M48
; DRILL file {KiCad 8.0.1} date 2024-07-17T22:43:05+1000
; FORMAT={-:-/ absolute / inch / decimal}
; #@! TF.CreationDate,2024-07-17T22:43:05+10:00
; #@! TF.GenerationSoftware,Kicad,Pcbnew,8.0.1
; #@! TF.FileFunction,Plated,1,2,PTH
FMAT,2
INCH
; #@! TA.AperFunction,Plated,PTH,ComponentDrill
T1C0.0394
; #@! TA.AperFunction,Plated,PTH,ComponentDrill
T2C0.0402
; #@! TA.AperFunction,Plated,PTH,ComponentDrill
T3C0.0512
; #@! TA.AperFunction,Plated,PTH,ComponentDrill
T4C0.1181
%
G90
G05
T1
X4.311Y-2.8416
X4.311Y-4.1014
X4.311Y-2.9991
X4.311Y-3.1566
X4.311Y-3.314
X4.311Y-3.4715
X4.311Y-3.629
X4.311Y-3.7865
X4.311Y-3.944
X7.9813Y-2.8587
X7.9813Y-3.0162
X7.9813Y-3.1737
X7.9813Y-3.3312
X7.9813Y-3.4886
X7.9813Y-3.6461
X7.9813Y-3.8036
X7.9813Y-3.9611
X7.9813Y-4.1186
T2
X5.7917Y-2.3559
X5.7917Y-2.4559
X5.7917Y-2.5559
X5.7917Y-2.6559
X5.7917Y-2.7559
X5.7917Y-2.8559
X5.7917Y-2.9559
X5.7917Y-3.0559
X5.7917Y-3.1559
X5.7917Y-3.2559
X5.7917Y-3.3559
X5.7917Y-3.4559
X5.7917Y-3.5559
X5.7917Y-3.6559
X5.7917Y-3.7559
X5.7917Y-3.8559
X5.7917Y-3.9559
X5.7917Y-4.0559
X5.7917Y-4.1559
X5.7917Y-4.2559
X6.0417Y-4.2469
X6.1417Y-4.2469
X6.2417Y-4.2469
X6.4917Y-2.3559
X6.4917Y-2.4559
X6.4917Y-2.5559
X6.4917Y-2.6559
X6.4917Y-2.7559
X6.4917Y-2.8559
X6.4917Y-2.9559
X6.4917Y-3.0559
X6.4917Y-3.1559
X6.4917Y-3.2559
X6.4917Y-3.3559
X6.4917Y-3.4559
X6.4917Y-3.5559
X6.4917Y-3.6559
X6.4917Y-3.7559
X6.4917Y-3.8559
X6.4917Y-3.9559
X6.4917Y-4.0559
X6.4917Y-4.1559
X6.4917Y-4.2559
T3
X4.668Y-4.5768
X4.8649Y-4.5768
X5.0617Y-4.5768
X5.2165Y-2.5394
X5.2586Y-4.5768
X5.4134Y-2.5394
X5.4554Y-4.5768
X5.6523Y-4.5768
X5.8491Y-4.5768
X6.046Y-4.5768
X6.2428Y-4.5768
X6.4397Y-4.5768
X6.6365Y-4.5768
X6.8334Y-4.5768
X7.0302Y-4.5768
X7.2271Y-4.5768
X7.4239Y-4.5768
X7.6208Y-4.5768
T4
X4.3898Y-2.4409
X4.3898Y-4.6752
X7.9035Y-2.4409
X7.9035Y-4.6752
T1
G00X4.7933Y-2.6732
M15
G01X4.7933Y-2.622
M16
G05
T3
G00X4.752Y-2.4705
M15
G01X4.8346Y-2.4705
M16
G05
M30
