%TF.GenerationSoftware,KiCad,Pcbnew,8.0.1*%
%TF.CreationDate,2024-07-17T22:43:04+10:00*%
%TF.ProjectId,psx,7073782e-6b69-4636-9164-5f7063625858,rev?*%
%TF.SameCoordinates,Original*%
%TF.FileFunction,Soldermask,Top*%
%TF.FilePolarity,Negative*%
%FSLAX46Y46*%
G04 Gerber Fmt 4.6, Leading zero omitted, Abs format (unit mm)*
G04 Created by KiCad (PCBNEW 8.0.1) date 2024-07-17 22:43:04*
%MOMM*%
%LPD*%
G01*
G04 APERTURE LIST*
G04 Aperture macros list*
%AMRoundRect*
0 Rectangle with rounded corners*
0 $1 Rounding radius*
0 $2 $3 $4 $5 $6 $7 $8 $9 X,Y pos of 4 corners*
0 Add a 4 corners polygon primitive as box body*
4,1,4,$2,$3,$4,$5,$6,$7,$8,$9,$2,$3,0*
0 Add four circle primitives for the rounded corners*
1,1,$1+$1,$2,$3*
1,1,$1+$1,$4,$5*
1,1,$1+$1,$6,$7*
1,1,$1+$1,$8,$9*
0 Add four rect primitives between the rounded corners*
20,1,$1+$1,$2,$3,$4,$5,0*
20,1,$1+$1,$4,$5,$6,$7,0*
20,1,$1+$1,$6,$7,$8,$9,0*
20,1,$1+$1,$8,$9,$2,$3,0*%
G04 Aperture macros list end*
%ADD10R,3.000000X3.000000*%
%ADD11C,3.000000*%
%ADD12C,6.000000*%
%ADD13O,1.800000X1.800000*%
%ADD14O,1.500000X1.500000*%
%ADD15O,1.700000X1.700000*%
%ADD16R,3.500000X1.700000*%
%ADD17R,1.700000X1.700000*%
%ADD18R,1.700000X3.500000*%
%ADD19RoundRect,0.250000X-0.475000X0.250000X-0.475000X-0.250000X0.475000X-0.250000X0.475000X0.250000X0*%
%ADD20RoundRect,0.375000X-0.375000X0.625000X-0.375000X-0.625000X0.375000X-0.625000X0.375000X0.625000X0*%
%ADD21RoundRect,0.500000X-1.400000X0.500000X-1.400000X-0.500000X1.400000X-0.500000X1.400000X0.500000X0*%
%ADD22O,5.004000X2.604000*%
%ADD23O,1.904000X3.604000*%
%ADD24RoundRect,0.250000X-0.250000X-0.475000X0.250000X-0.475000X0.250000X0.475000X-0.250000X0.475000X0*%
G04 APERTURE END LIST*
D10*
%TO.C,J4*%
X137500000Y-64500000D03*
D11*
X132500000Y-64500000D03*
%TD*%
D12*
%TO.C,H2*%
X200750000Y-62000000D03*
%TD*%
D13*
%TO.C,U2*%
X153275000Y-59970000D03*
D14*
X153575000Y-63000000D03*
X158425000Y-63000000D03*
D13*
X158725000Y-59970000D03*
D15*
X147110000Y-59840000D03*
D16*
X146210000Y-59840000D03*
D15*
X147110000Y-62380000D03*
D16*
X146210000Y-62380000D03*
D17*
X147110000Y-64920000D03*
D16*
X146210000Y-64920000D03*
D15*
X147110000Y-67460000D03*
D16*
X146210000Y-67460000D03*
D15*
X147110000Y-70000000D03*
D16*
X146210000Y-70000000D03*
D15*
X147110000Y-72540000D03*
D16*
X146210000Y-72540000D03*
D15*
X147110000Y-75080000D03*
D16*
X146210000Y-75080000D03*
D17*
X147110000Y-77620000D03*
D16*
X146210000Y-77620000D03*
D15*
X147110000Y-80160000D03*
D16*
X146210000Y-80160000D03*
D15*
X147110000Y-82700000D03*
D16*
X146210000Y-82700000D03*
D15*
X147110000Y-85240000D03*
D16*
X146210000Y-85240000D03*
D15*
X147110000Y-87780000D03*
D16*
X146210000Y-87780000D03*
D17*
X147110000Y-90320000D03*
D16*
X146210000Y-90320000D03*
D15*
X147110000Y-92860000D03*
D16*
X146210000Y-92860000D03*
D15*
X147110000Y-95400000D03*
D16*
X146210000Y-95400000D03*
D15*
X147110000Y-97940000D03*
D16*
X146210000Y-97940000D03*
D15*
X147110000Y-100480000D03*
D16*
X146210000Y-100480000D03*
D17*
X147110000Y-103020000D03*
D16*
X146210000Y-103020000D03*
D15*
X147110000Y-105560000D03*
D16*
X146210000Y-105560000D03*
D15*
X147110000Y-108100000D03*
D16*
X146210000Y-108100000D03*
D15*
X164890000Y-108100000D03*
D16*
X165790000Y-108100000D03*
D15*
X164890000Y-105560000D03*
D16*
X165790000Y-105560000D03*
D17*
X164890000Y-103020000D03*
D16*
X165790000Y-103020000D03*
D15*
X164890000Y-100480000D03*
D16*
X165790000Y-100480000D03*
D15*
X164890000Y-97940000D03*
D16*
X165790000Y-97940000D03*
D15*
X164890000Y-95400000D03*
D16*
X165790000Y-95400000D03*
D15*
X164890000Y-92860000D03*
D16*
X165790000Y-92860000D03*
D17*
X164890000Y-90320000D03*
D16*
X165790000Y-90320000D03*
D15*
X164890000Y-87780000D03*
D16*
X165790000Y-87780000D03*
D15*
X164890000Y-85240000D03*
D16*
X165790000Y-85240000D03*
D15*
X164890000Y-82700000D03*
D16*
X165790000Y-82700000D03*
D15*
X164890000Y-80160000D03*
D16*
X165790000Y-80160000D03*
D17*
X164890000Y-77620000D03*
D16*
X165790000Y-77620000D03*
D15*
X164890000Y-75080000D03*
D16*
X165790000Y-75080000D03*
D15*
X164890000Y-72540000D03*
D16*
X165790000Y-72540000D03*
D15*
X164890000Y-70000000D03*
D16*
X165790000Y-70000000D03*
D15*
X164890000Y-67460000D03*
D16*
X165790000Y-67460000D03*
D17*
X164890000Y-64920000D03*
D16*
X165790000Y-64920000D03*
D15*
X164890000Y-62380000D03*
D16*
X165790000Y-62380000D03*
D15*
X164890000Y-59840000D03*
D16*
X165790000Y-59840000D03*
D15*
X153460000Y-107870000D03*
D18*
X153460000Y-108770000D03*
D17*
X156000000Y-107870000D03*
D18*
X156000000Y-108770000D03*
D15*
X158540000Y-107870000D03*
D18*
X158540000Y-108770000D03*
%TD*%
D12*
%TO.C,H4*%
X200750000Y-118750000D03*
%TD*%
D19*
%TO.C,C1*%
X175000000Y-59840000D03*
X175000000Y-61739998D03*
%TD*%
D12*
%TO.C,H1*%
X111500000Y-62000000D03*
%TD*%
D20*
%TO.C,U1*%
X182550000Y-60100000D03*
X180250000Y-60100001D03*
D21*
X180250000Y-66399999D03*
D20*
X177950000Y-60100000D03*
%TD*%
D10*
%TO.C,J2*%
X118567500Y-116250000D03*
D11*
X123567500Y-116250000D03*
X128567500Y-116250000D03*
X133567500Y-116250000D03*
X138567500Y-116250000D03*
X143567500Y-116250000D03*
X148567500Y-116250000D03*
X153567500Y-116250000D03*
X158567500Y-116250000D03*
X163567500Y-116250000D03*
X168567500Y-116250000D03*
X173567500Y-116250000D03*
X178567500Y-116250000D03*
X183567500Y-116250000D03*
X188567500Y-116250000D03*
X193567500Y-116250000D03*
%TD*%
D12*
%TO.C,H3*%
X111500000Y-118750000D03*
%TD*%
D17*
%TO.C,J3*%
X202725000Y-104611666D03*
D15*
X202725000Y-100611666D03*
X202725000Y-96611666D03*
X202725000Y-92611666D03*
X202725000Y-88611666D03*
X202725000Y-84611666D03*
X202725000Y-80611666D03*
X202725000Y-76611666D03*
X202725000Y-72611666D03*
%TD*%
D22*
%TO.C,J5*%
X121750000Y-62750000D03*
D23*
X121750000Y-67250001D03*
%TD*%
D17*
%TO.C,J1*%
X109499999Y-72176666D03*
D15*
X109500000Y-76176667D03*
X109500000Y-80176666D03*
X109500000Y-84176666D03*
X109500000Y-88176666D03*
X109500000Y-92176666D03*
X109500000Y-96176666D03*
X109500000Y-100176665D03*
X109499999Y-104176666D03*
%TD*%
D24*
%TO.C,C2*%
X180300000Y-69000000D03*
X182200000Y-69000000D03*
%TD*%
M02*
