%TF.GenerationSoftware,KiCad,Pcbnew,8.0.1*%
%TF.CreationDate,2024-07-17T22:43:04+10:00*%
%TF.ProjectId,psx,7073782e-6b69-4636-9164-5f7063625858,rev?*%
%TF.SameCoordinates,Original*%
%TF.FileFunction,Copper,L2,Bot*%
%TF.FilePolarity,Positive*%
%FSLAX46Y46*%
G04 Gerber Fmt 4.6, Leading zero omitted, Abs format (unit mm)*
G04 Created by KiCad (PCBNEW 8.0.1) date 2024-07-17 22:43:04*
%MOMM*%
%LPD*%
G01*
G04 APERTURE LIST*
%TA.AperFunction,ComponentPad*%
%ADD10R,3.000000X3.000000*%
%TD*%
%TA.AperFunction,ComponentPad*%
%ADD11C,3.000000*%
%TD*%
%TA.AperFunction,ComponentPad*%
%ADD12C,6.000000*%
%TD*%
%TA.AperFunction,ComponentPad*%
%ADD13O,1.700000X1.700000*%
%TD*%
%TA.AperFunction,ComponentPad*%
%ADD14R,1.700000X1.700000*%
%TD*%
%TA.AperFunction,ComponentPad*%
%ADD15O,4.800000X2.400000*%
%TD*%
%TA.AperFunction,ComponentPad*%
%ADD16O,1.700000X3.400000*%
%TD*%
%TA.AperFunction,Conductor*%
%ADD17C,0.200000*%
%TD*%
G04 APERTURE END LIST*
D10*
%TO.P,J4,1,Pin_1*%
%TO.N,Net-(J4-Pin_1)*%
X137500000Y-64500000D03*
D11*
%TO.P,J4,2,Pin_2*%
%TO.N,GND*%
X132500000Y-64500000D03*
%TD*%
D12*
%TO.P,H2,1,1*%
%TO.N,GND*%
X200750000Y-62000000D03*
%TD*%
D13*
%TO.P,U2,1,GPIO0*%
%TO.N,/PS_DAT_1*%
X147110000Y-59840000D03*
%TO.P,U2,2,GPIO1*%
%TO.N,/PS_CMD_1*%
X147110000Y-62380000D03*
D14*
%TO.P,U2,3,GND*%
%TO.N,GND*%
X147110000Y-64920000D03*
D13*
%TO.P,U2,4,GPIO2*%
%TO.N,/~{PS_ATT_1}*%
X147110000Y-67460000D03*
%TO.P,U2,5,GPIO3*%
%TO.N,/PS_CLK_1*%
X147110000Y-70000000D03*
%TO.P,U2,6,GPIO4*%
%TO.N,/PS_ACK_1*%
X147110000Y-72540000D03*
%TO.P,U2,7,GPIO5*%
%TO.N,Net-(J2-Pin_1)*%
X147110000Y-75080000D03*
D14*
%TO.P,U2,8,GND*%
%TO.N,GND*%
X147110000Y-77620000D03*
D13*
%TO.P,U2,9,GPIO6*%
%TO.N,Net-(J2-Pin_2)*%
X147110000Y-80160000D03*
%TO.P,U2,10,GPIO7*%
%TO.N,Net-(J2-Pin_3)*%
X147110000Y-82700000D03*
%TO.P,U2,11,GPIO8*%
%TO.N,Net-(J2-Pin_4)*%
X147110000Y-85240000D03*
%TO.P,U2,12,GPIO9*%
%TO.N,Net-(J2-Pin_5)*%
X147110000Y-87780000D03*
D14*
%TO.P,U2,13,GND*%
%TO.N,GND*%
X147110000Y-90320000D03*
D13*
%TO.P,U2,14,GPIO10*%
%TO.N,Net-(J2-Pin_6)*%
X147110000Y-92860000D03*
%TO.P,U2,15,GPIO11*%
%TO.N,Net-(J2-Pin_7)*%
X147110000Y-95400000D03*
%TO.P,U2,16,GPIO12*%
%TO.N,Net-(J2-Pin_8)*%
X147110000Y-97940000D03*
%TO.P,U2,17,GPIO13*%
%TO.N,Net-(J2-Pin_9)*%
X147110000Y-100480000D03*
D14*
%TO.P,U2,18,GND*%
%TO.N,GND*%
X147110000Y-103020000D03*
D13*
%TO.P,U2,19,GPIO14*%
%TO.N,Net-(J2-Pin_10)*%
X147110000Y-105560000D03*
%TO.P,U2,20,GPIO15*%
%TO.N,Net-(J2-Pin_11)*%
X147110000Y-108100000D03*
%TO.P,U2,21,GPIO16*%
%TO.N,Net-(J2-Pin_12)*%
X164890000Y-108100000D03*
%TO.P,U2,22,GPIO17*%
%TO.N,Net-(J2-Pin_13)*%
X164890000Y-105560000D03*
D14*
%TO.P,U2,23,GND*%
%TO.N,GND*%
X164890000Y-103020000D03*
D13*
%TO.P,U2,24,GPIO18*%
%TO.N,Net-(J2-Pin_14)*%
X164890000Y-100480000D03*
%TO.P,U2,25,GPIO19*%
%TO.N,Net-(J2-Pin_15)*%
X164890000Y-97940000D03*
%TO.P,U2,26,GPIO20*%
%TO.N,Net-(J2-Pin_16)*%
X164890000Y-95400000D03*
%TO.P,U2,27,GPIO21*%
%TO.N,/PS_DAT_2*%
X164890000Y-92860000D03*
D14*
%TO.P,U2,28,GND*%
%TO.N,GND*%
X164890000Y-90320000D03*
D13*
%TO.P,U2,29,GPIO22*%
%TO.N,/PS_CMD_2*%
X164890000Y-87780000D03*
%TO.P,U2,30,RUN*%
%TO.N,unconnected-(U2-RUN-Pad30)*%
X164890000Y-85240000D03*
%TO.P,U2,31,GPIO26_ADC0*%
%TO.N,/~{PS_ATT_2}*%
X164890000Y-82700000D03*
%TO.P,U2,32,GPIO27_ADC1*%
%TO.N,/PS_CLK_2*%
X164890000Y-80160000D03*
D14*
%TO.P,U2,33,AGND*%
%TO.N,GND*%
X164890000Y-77620000D03*
D13*
%TO.P,U2,34,GPIO28_ADC2*%
%TO.N,/PS_ACK_2*%
X164890000Y-75080000D03*
%TO.P,U2,35,ADC_VREF*%
%TO.N,unconnected-(U2-ADC_VREF-Pad35)*%
X164890000Y-72540000D03*
%TO.P,U2,36,3V3*%
%TO.N,unconnected-(U2-3V3-Pad36)_0*%
X164890000Y-70000000D03*
%TO.P,U2,37,3V3_EN*%
%TO.N,unconnected-(U2-3V3_EN-Pad37)_0*%
X164890000Y-67460000D03*
D14*
%TO.P,U2,38,GND*%
%TO.N,GND*%
X164890000Y-64920000D03*
D13*
%TO.P,U2,39,VSYS*%
%TO.N,unconnected-(U2-VSYS-Pad39)_0*%
X164890000Y-62380000D03*
%TO.P,U2,40,VBUS*%
%TO.N,+5V*%
X164890000Y-59840000D03*
%TO.P,U2,41,SWCLK*%
%TO.N,unconnected-(U2-SWCLK-Pad41)_0*%
X153460000Y-107870000D03*
D14*
%TO.P,U2,42,GND*%
%TO.N,GND*%
X156000000Y-107870000D03*
D13*
%TO.P,U2,43,SWDIO*%
%TO.N,unconnected-(U2-SWDIO-Pad43)_0*%
X158540000Y-107870000D03*
%TD*%
D12*
%TO.P,H4,1,1*%
%TO.N,GND*%
X200750000Y-118750000D03*
%TD*%
%TO.P,H1,1,1*%
%TO.N,GND*%
X111500000Y-62000000D03*
%TD*%
D10*
%TO.P,J2,1,Pin_1*%
%TO.N,Net-(J2-Pin_1)*%
X118567500Y-116250000D03*
D11*
%TO.P,J2,2,Pin_2*%
%TO.N,Net-(J2-Pin_2)*%
X123567500Y-116250000D03*
%TO.P,J2,3,Pin_3*%
%TO.N,Net-(J2-Pin_3)*%
X128567500Y-116250000D03*
%TO.P,J2,4,Pin_4*%
%TO.N,Net-(J2-Pin_4)*%
X133567500Y-116250000D03*
%TO.P,J2,5,Pin_5*%
%TO.N,Net-(J2-Pin_5)*%
X138567500Y-116250000D03*
%TO.P,J2,6,Pin_6*%
%TO.N,Net-(J2-Pin_6)*%
X143567500Y-116250000D03*
%TO.P,J2,7,Pin_7*%
%TO.N,Net-(J2-Pin_7)*%
X148567500Y-116250000D03*
%TO.P,J2,8,Pin_8*%
%TO.N,Net-(J2-Pin_8)*%
X153567500Y-116250000D03*
%TO.P,J2,9,Pin_9*%
%TO.N,Net-(J2-Pin_9)*%
X158567500Y-116250000D03*
%TO.P,J2,10,Pin_10*%
%TO.N,Net-(J2-Pin_10)*%
X163567500Y-116250000D03*
%TO.P,J2,11,Pin_11*%
%TO.N,Net-(J2-Pin_11)*%
X168567500Y-116250000D03*
%TO.P,J2,12,Pin_12*%
%TO.N,Net-(J2-Pin_12)*%
X173567500Y-116250000D03*
%TO.P,J2,13,Pin_13*%
%TO.N,Net-(J2-Pin_13)*%
X178567500Y-116250000D03*
%TO.P,J2,14,Pin_14*%
%TO.N,Net-(J2-Pin_14)*%
X183567500Y-116250000D03*
%TO.P,J2,15,Pin_15*%
%TO.N,Net-(J2-Pin_15)*%
X188567500Y-116250000D03*
%TO.P,J2,16,Pin_16*%
%TO.N,Net-(J2-Pin_16)*%
X193567500Y-116250000D03*
%TD*%
D12*
%TO.P,H3,1,1*%
%TO.N,GND*%
X111500000Y-118750000D03*
%TD*%
D14*
%TO.P,J3,1,Pin_1*%
%TO.N,/PS_DAT_2*%
X202725000Y-104611666D03*
D13*
%TO.P,J3,2,Pin_2*%
%TO.N,/PS_CMD_2*%
X202725000Y-100611666D03*
%TO.P,J3,3,Pin_3*%
%TO.N,unconnected-(J3-Pin_3-Pad3)*%
X202725000Y-96611666D03*
%TO.P,J3,4,Pin_4*%
%TO.N,GND*%
X202725000Y-92611666D03*
%TO.P,J3,5,Pin_5*%
%TO.N,+3.3V*%
X202725000Y-88611666D03*
%TO.P,J3,6,Pin_6*%
%TO.N,/~{PS_ATT_2}*%
X202725000Y-84611666D03*
%TO.P,J3,7,Pin_7*%
%TO.N,/PS_CLK_2*%
X202725000Y-80611666D03*
%TO.P,J3,8,Pin_8*%
%TO.N,unconnected-(J3-Pin_8-Pad8)*%
X202725000Y-76611666D03*
%TO.P,J3,9,Pin_9*%
%TO.N,/PS_ACK_2*%
X202725000Y-72611666D03*
%TD*%
D15*
%TO.P,J5,1,In*%
%TO.N,Net-(J4-Pin_1)*%
X121750000Y-62750000D03*
D16*
%TO.P,J5,2,Ext*%
%TO.N,GND*%
X121750000Y-67250001D03*
%TD*%
D14*
%TO.P,J1,1,Pin_1*%
%TO.N,/PS_DAT_1*%
X109499999Y-72176666D03*
D13*
%TO.P,J1,2,Pin_2*%
%TO.N,/PS_CMD_1*%
X109500000Y-76176667D03*
%TO.P,J1,3,Pin_3*%
%TO.N,unconnected-(J1-Pin_3-Pad3)*%
X109500000Y-80176666D03*
%TO.P,J1,4,Pin_4*%
%TO.N,GND*%
X109500000Y-84176666D03*
%TO.P,J1,5,Pin_5*%
%TO.N,+3.3V*%
X109500000Y-88176666D03*
%TO.P,J1,6,Pin_6*%
%TO.N,/~{PS_ATT_1}*%
X109500000Y-92176666D03*
%TO.P,J1,7,Pin_7*%
%TO.N,/PS_CLK_1*%
X109500000Y-96176666D03*
%TO.P,J1,8,Pin_8*%
%TO.N,unconnected-(J1-Pin_8-Pad8)*%
X109500000Y-100176665D03*
%TO.P,J1,9,Pin_9*%
%TO.N,/PS_ACK_1*%
X109499999Y-104176666D03*
%TD*%
D17*
%TO.N,/PS_DAT_1*%
X109499999Y-72176666D02*
X134773334Y-72176666D01*
X134773334Y-72176666D02*
X147110000Y-59840000D01*
%TO.N,/PS_CMD_1*%
X133313333Y-76176667D02*
X147110000Y-62380000D01*
X109500000Y-76176667D02*
X133313333Y-76176667D01*
%TO.N,/PS_ACK_1*%
X115473334Y-104176666D02*
X147110000Y-72540000D01*
X109499999Y-104176666D02*
X115473334Y-104176666D01*
%TO.N,/~{PS_ATT_1}*%
X109500000Y-92176666D02*
X122393334Y-92176666D01*
X122393334Y-92176666D02*
X147110000Y-67460000D01*
%TO.N,/PS_CLK_1*%
X120933334Y-96176666D02*
X147110000Y-70000000D01*
X109500000Y-96176666D02*
X120933334Y-96176666D01*
%TO.N,/PS_DAT_2*%
X202725000Y-104611666D02*
X190973334Y-92860000D01*
X190973334Y-92860000D02*
X164890000Y-92860000D01*
%TO.N,/PS_CLK_2*%
X202725000Y-80611666D02*
X165341666Y-80611666D01*
X165341666Y-80611666D02*
X164890000Y-80160000D01*
%TO.N,/PS_ACK_2*%
X200256666Y-75080000D02*
X202725000Y-72611666D01*
X164890000Y-75080000D02*
X200256666Y-75080000D01*
%TO.N,/~{PS_ATT_2}*%
X200813334Y-82700000D02*
X202725000Y-84611666D01*
X164890000Y-82700000D02*
X200813334Y-82700000D01*
%TO.N,/PS_CMD_2*%
X164890000Y-87780000D02*
X189893334Y-87780000D01*
X189893334Y-87780000D02*
X202725000Y-100611666D01*
%TO.N,Net-(J2-Pin_4)*%
X133567500Y-116250000D02*
X133567500Y-98782500D01*
X133567500Y-98782500D02*
X147110000Y-85240000D01*
%TO.N,Net-(J2-Pin_3)*%
X128567500Y-101242500D02*
X147110000Y-82700000D01*
X128567500Y-116250000D02*
X128567500Y-101242500D01*
%TO.N,Net-(J2-Pin_13)*%
X167877500Y-105560000D02*
X178567500Y-116250000D01*
X164890000Y-105560000D02*
X167877500Y-105560000D01*
%TO.N,Net-(J2-Pin_5)*%
X138567500Y-116250000D02*
X138567500Y-96322500D01*
X138567500Y-96322500D02*
X147110000Y-87780000D01*
%TO.N,Net-(J2-Pin_14)*%
X164890000Y-100480000D02*
X167797500Y-100480000D01*
X167797500Y-100480000D02*
X183567500Y-116250000D01*
%TO.N,Net-(J2-Pin_15)*%
X170257500Y-97940000D02*
X188567500Y-116250000D01*
X164890000Y-97940000D02*
X170257500Y-97940000D01*
%TO.N,Net-(J2-Pin_16)*%
X164890000Y-95400000D02*
X172717500Y-95400000D01*
X172717500Y-95400000D02*
X193567500Y-116250000D01*
%TO.N,Net-(J2-Pin_6)*%
X147110000Y-92860000D02*
X143567500Y-96402500D01*
X143567500Y-96402500D02*
X143567500Y-116250000D01*
%TO.N,Net-(J2-Pin_9)*%
X158567500Y-116250000D02*
X154617500Y-112300000D01*
X154617500Y-112300000D02*
X149117968Y-112300000D01*
X145560000Y-108742031D02*
X145560000Y-102030000D01*
X149117968Y-112300000D02*
X145560000Y-108742031D01*
X145560000Y-102030000D02*
X147110000Y-100480000D01*
%TO.N,Net-(J2-Pin_2)*%
X123567500Y-116250000D02*
X123567500Y-103702500D01*
X123567500Y-103702500D02*
X147110000Y-80160000D01*
%TO.N,Net-(J2-Pin_12)*%
X165417500Y-108100000D02*
X173567500Y-116250000D01*
X164890000Y-108100000D02*
X165417500Y-108100000D01*
%TO.N,Net-(J2-Pin_11)*%
X147110000Y-108100000D02*
X150510000Y-111500000D01*
X150510000Y-111500000D02*
X163817500Y-111500000D01*
X163817500Y-111500000D02*
X168567500Y-116250000D01*
%TO.N,Net-(J2-Pin_8)*%
X145160000Y-99890000D02*
X147110000Y-97940000D01*
X153567500Y-116250000D02*
X152502282Y-116250000D01*
X152502282Y-116250000D02*
X145160000Y-108907716D01*
X145160000Y-108907716D02*
X145160000Y-99890000D01*
%TO.N,Net-(J2-Pin_1)*%
X147110000Y-75080000D02*
X118567500Y-103622500D01*
X118567500Y-103622500D02*
X118567500Y-116250000D01*
%TO.N,Net-(J2-Pin_10)*%
X159217500Y-111900000D02*
X163567500Y-116250000D01*
X149283654Y-111900000D02*
X159217500Y-111900000D01*
X145960000Y-106710000D02*
X145960000Y-108576346D01*
X145960000Y-108576346D02*
X149283654Y-111900000D01*
X147110000Y-105560000D02*
X145960000Y-106710000D01*
%TO.N,Net-(J2-Pin_7)*%
X144760000Y-112442500D02*
X144760000Y-97750000D01*
X148567500Y-116250000D02*
X144760000Y-112442500D01*
X144760000Y-97750000D02*
X147110000Y-95400000D01*
%TD*%
%TA.AperFunction,Conductor*%
%TO.N,GND*%
G36*
X110355864Y-119727184D02*
G01*
X110522816Y-119894136D01*
X110630893Y-119972658D01*
X109206850Y-121396701D01*
X109439929Y-121585446D01*
X109747593Y-121785245D01*
X110074464Y-121951795D01*
X110225405Y-122009736D01*
X110280937Y-122052138D01*
X110304730Y-122117832D01*
X110289228Y-122185960D01*
X110239355Y-122234893D01*
X110180967Y-122249500D01*
X108124500Y-122249500D01*
X108057461Y-122229815D01*
X108011706Y-122177011D01*
X108000500Y-122125500D01*
X108000500Y-120069033D01*
X108020185Y-120001994D01*
X108072989Y-119956239D01*
X108142147Y-119946295D01*
X108205703Y-119975320D01*
X108240264Y-120024595D01*
X108298204Y-120175535D01*
X108464754Y-120502406D01*
X108664553Y-120810070D01*
X108853297Y-121043148D01*
X110277340Y-119619105D01*
X110355864Y-119727184D01*
G37*
%TD.AperFunction*%
%TA.AperFunction,Conductor*%
G36*
X152625219Y-58520185D02*
G01*
X152670974Y-58572989D01*
X152680918Y-58642147D01*
X152651893Y-58705703D01*
X152617198Y-58733555D01*
X152506371Y-58793531D01*
X152506365Y-58793535D01*
X152323222Y-58936081D01*
X152323219Y-58936084D01*
X152166016Y-59106852D01*
X152039075Y-59301151D01*
X151945842Y-59513699D01*
X151888866Y-59738691D01*
X151888864Y-59738702D01*
X151869700Y-59969993D01*
X151869700Y-59970006D01*
X151888864Y-60201297D01*
X151888866Y-60201308D01*
X151945842Y-60426300D01*
X152039075Y-60638848D01*
X152166016Y-60833147D01*
X152166019Y-60833151D01*
X152166021Y-60833153D01*
X152323216Y-61003913D01*
X152323219Y-61003915D01*
X152323222Y-61003918D01*
X152506365Y-61146464D01*
X152506371Y-61146468D01*
X152506374Y-61146470D01*
X152710497Y-61256936D01*
X152752382Y-61271315D01*
X152930015Y-61332297D01*
X152930017Y-61332297D01*
X152930019Y-61332298D01*
X153158951Y-61370500D01*
X153158952Y-61370500D01*
X153391048Y-61370500D01*
X153391049Y-61370500D01*
X153619981Y-61332298D01*
X153839503Y-61256936D01*
X154043626Y-61146470D01*
X154056702Y-61136293D01*
X154119391Y-61087500D01*
X154226784Y-61003913D01*
X154383979Y-60833153D01*
X154510924Y-60638849D01*
X154604157Y-60426300D01*
X154661134Y-60201305D01*
X154661135Y-60201297D01*
X154680300Y-59970006D01*
X154680300Y-59969993D01*
X154661135Y-59738702D01*
X154661133Y-59738691D01*
X154604157Y-59513699D01*
X154510924Y-59301151D01*
X154383983Y-59106852D01*
X154383980Y-59106849D01*
X154383979Y-59106847D01*
X154226784Y-58936087D01*
X154226779Y-58936083D01*
X154226777Y-58936081D01*
X154043634Y-58793535D01*
X154043628Y-58793531D01*
X153932802Y-58733555D01*
X153883212Y-58684335D01*
X153868104Y-58616118D01*
X153892275Y-58550563D01*
X153948050Y-58508482D01*
X153991820Y-58500500D01*
X158008180Y-58500500D01*
X158075219Y-58520185D01*
X158120974Y-58572989D01*
X158130918Y-58642147D01*
X158101893Y-58705703D01*
X158067198Y-58733555D01*
X157956371Y-58793531D01*
X157956365Y-58793535D01*
X157773222Y-58936081D01*
X157773219Y-58936084D01*
X157616016Y-59106852D01*
X157489075Y-59301151D01*
X157395842Y-59513699D01*
X157338866Y-59738691D01*
X157338864Y-59738702D01*
X157319700Y-59969993D01*
X157319700Y-59970006D01*
X157338864Y-60201297D01*
X157338866Y-60201308D01*
X157395842Y-60426300D01*
X157489075Y-60638848D01*
X157616016Y-60833147D01*
X157616019Y-60833151D01*
X157616021Y-60833153D01*
X157773216Y-61003913D01*
X157773219Y-61003915D01*
X157773222Y-61003918D01*
X157956365Y-61146464D01*
X157956371Y-61146468D01*
X157956374Y-61146470D01*
X158160497Y-61256936D01*
X158202382Y-61271315D01*
X158380015Y-61332297D01*
X158380017Y-61332297D01*
X158380019Y-61332298D01*
X158608951Y-61370500D01*
X158608952Y-61370500D01*
X158841048Y-61370500D01*
X158841049Y-61370500D01*
X159069981Y-61332298D01*
X159289503Y-61256936D01*
X159493626Y-61146470D01*
X159506702Y-61136293D01*
X159569391Y-61087500D01*
X159676784Y-61003913D01*
X159833979Y-60833153D01*
X159960924Y-60638849D01*
X160054157Y-60426300D01*
X160111134Y-60201305D01*
X160111135Y-60201297D01*
X160130300Y-59970006D01*
X160130300Y-59969993D01*
X160111135Y-59738702D01*
X160111133Y-59738691D01*
X160054157Y-59513699D01*
X159960924Y-59301151D01*
X159833983Y-59106852D01*
X159833980Y-59106849D01*
X159833979Y-59106847D01*
X159676784Y-58936087D01*
X159676779Y-58936083D01*
X159676777Y-58936081D01*
X159493634Y-58793535D01*
X159493628Y-58793531D01*
X159382802Y-58733555D01*
X159333212Y-58684335D01*
X159318104Y-58616118D01*
X159342275Y-58550563D01*
X159398050Y-58508482D01*
X159441820Y-58500500D01*
X164055201Y-58500500D01*
X164122240Y-58520185D01*
X164167995Y-58572989D01*
X164177939Y-58642147D01*
X164148914Y-58705703D01*
X164126324Y-58726075D01*
X164018597Y-58801505D01*
X163851505Y-58968597D01*
X163715965Y-59162169D01*
X163715964Y-59162171D01*
X163616098Y-59376335D01*
X163616094Y-59376344D01*
X163554938Y-59604586D01*
X163554936Y-59604596D01*
X163534341Y-59839999D01*
X163534341Y-59840000D01*
X163554936Y-60075403D01*
X163554938Y-60075413D01*
X163616094Y-60303655D01*
X163616096Y-60303659D01*
X163616097Y-60303663D01*
X163673284Y-60426300D01*
X163715965Y-60517830D01*
X163715967Y-60517834D01*
X163851501Y-60711395D01*
X163851506Y-60711402D01*
X164018597Y-60878493D01*
X164018603Y-60878498D01*
X164204158Y-61008425D01*
X164247783Y-61063002D01*
X164254977Y-61132500D01*
X164223454Y-61194855D01*
X164204158Y-61211575D01*
X164018597Y-61341505D01*
X163851505Y-61508597D01*
X163715965Y-61702169D01*
X163715964Y-61702171D01*
X163616098Y-61916335D01*
X163616094Y-61916344D01*
X163554938Y-62144586D01*
X163554936Y-62144596D01*
X163534341Y-62379999D01*
X163534341Y-62380000D01*
X163554936Y-62615403D01*
X163554938Y-62615413D01*
X163616094Y-62843655D01*
X163616096Y-62843659D01*
X163616097Y-62843663D01*
X163678359Y-62977184D01*
X163715965Y-63057830D01*
X163715967Y-63057834D01*
X163776397Y-63144136D01*
X163851501Y-63251396D01*
X163851506Y-63251402D01*
X163973818Y-63373714D01*
X164007303Y-63435037D01*
X164002319Y-63504729D01*
X163960447Y-63560662D01*
X163929471Y-63577577D01*
X163797912Y-63626646D01*
X163797906Y-63626649D01*
X163682812Y-63712809D01*
X163682809Y-63712812D01*
X163596649Y-63827906D01*
X163596645Y-63827913D01*
X163546403Y-63962620D01*
X163546401Y-63962627D01*
X163540000Y-64022155D01*
X163540000Y-64670000D01*
X164445440Y-64670000D01*
X164414755Y-64723147D01*
X164380000Y-64852857D01*
X164380000Y-64987143D01*
X164414755Y-65116853D01*
X164445440Y-65170000D01*
X163540000Y-65170000D01*
X163540000Y-65817844D01*
X163546401Y-65877372D01*
X163546403Y-65877379D01*
X163596645Y-66012086D01*
X163596649Y-66012093D01*
X163682809Y-66127187D01*
X163682812Y-66127190D01*
X163797906Y-66213350D01*
X163797913Y-66213354D01*
X163929470Y-66262421D01*
X163985403Y-66304292D01*
X164009821Y-66369756D01*
X163994970Y-66438029D01*
X163973819Y-66466284D01*
X163851503Y-66588600D01*
X163715965Y-66782169D01*
X163715964Y-66782171D01*
X163616098Y-66996335D01*
X163616094Y-66996344D01*
X163554938Y-67224586D01*
X163554936Y-67224596D01*
X163534341Y-67459999D01*
X163534341Y-67460000D01*
X163554936Y-67695403D01*
X163554938Y-67695413D01*
X163616094Y-67923655D01*
X163616096Y-67923659D01*
X163616097Y-67923663D01*
X163695058Y-68092994D01*
X163715965Y-68137830D01*
X163715967Y-68137834D01*
X163851501Y-68331395D01*
X163851506Y-68331402D01*
X164018597Y-68498493D01*
X164018603Y-68498498D01*
X164204158Y-68628425D01*
X164247783Y-68683002D01*
X164254977Y-68752500D01*
X164223454Y-68814855D01*
X164204158Y-68831575D01*
X164018597Y-68961505D01*
X163851505Y-69128597D01*
X163715965Y-69322169D01*
X163715964Y-69322171D01*
X163616098Y-69536335D01*
X163616094Y-69536344D01*
X163554938Y-69764586D01*
X163554936Y-69764596D01*
X163534341Y-69999999D01*
X163534341Y-70000000D01*
X163554936Y-70235403D01*
X163554938Y-70235413D01*
X163616094Y-70463655D01*
X163616096Y-70463659D01*
X163616097Y-70463663D01*
X163715965Y-70677830D01*
X163715967Y-70677834D01*
X163851501Y-70871395D01*
X163851506Y-70871402D01*
X164018597Y-71038493D01*
X164018603Y-71038498D01*
X164204158Y-71168425D01*
X164247783Y-71223002D01*
X164254977Y-71292500D01*
X164223454Y-71354855D01*
X164204158Y-71371575D01*
X164018597Y-71501505D01*
X163851505Y-71668597D01*
X163715965Y-71862169D01*
X163715964Y-71862171D01*
X163616098Y-72076335D01*
X163616094Y-72076344D01*
X163554938Y-72304586D01*
X163554936Y-72304596D01*
X163534341Y-72539999D01*
X163534341Y-72540000D01*
X163554936Y-72775403D01*
X163554938Y-72775413D01*
X163616094Y-73003655D01*
X163616096Y-73003659D01*
X163616097Y-73003663D01*
X163676944Y-73134149D01*
X163715965Y-73217830D01*
X163715967Y-73217834D01*
X163851501Y-73411395D01*
X163851506Y-73411402D01*
X164018597Y-73578493D01*
X164018603Y-73578498D01*
X164204158Y-73708425D01*
X164247783Y-73763002D01*
X164254977Y-73832500D01*
X164223454Y-73894855D01*
X164204158Y-73911575D01*
X164018597Y-74041505D01*
X163851505Y-74208597D01*
X163715965Y-74402169D01*
X163715964Y-74402171D01*
X163616098Y-74616335D01*
X163616094Y-74616344D01*
X163554938Y-74844586D01*
X163554936Y-74844596D01*
X163534341Y-75079999D01*
X163534341Y-75080000D01*
X163554936Y-75315403D01*
X163554938Y-75315413D01*
X163616094Y-75543655D01*
X163616096Y-75543659D01*
X163616097Y-75543663D01*
X163679906Y-75680501D01*
X163715965Y-75757830D01*
X163715967Y-75757834D01*
X163824281Y-75912521D01*
X163851501Y-75951396D01*
X163851506Y-75951402D01*
X163973818Y-76073714D01*
X164007303Y-76135037D01*
X164002319Y-76204729D01*
X163960447Y-76260662D01*
X163929471Y-76277577D01*
X163797912Y-76326646D01*
X163797906Y-76326649D01*
X163682812Y-76412809D01*
X163682809Y-76412812D01*
X163596649Y-76527906D01*
X163596645Y-76527913D01*
X163546403Y-76662620D01*
X163546401Y-76662627D01*
X163540000Y-76722155D01*
X163540000Y-77370000D01*
X164445440Y-77370000D01*
X164414755Y-77423147D01*
X164380000Y-77552857D01*
X164380000Y-77687143D01*
X164414755Y-77816853D01*
X164445440Y-77870000D01*
X163540000Y-77870000D01*
X163540000Y-78517844D01*
X163546401Y-78577372D01*
X163546403Y-78577379D01*
X163596645Y-78712086D01*
X163596649Y-78712093D01*
X163682809Y-78827187D01*
X163682812Y-78827190D01*
X163797906Y-78913350D01*
X163797913Y-78913354D01*
X163929470Y-78962421D01*
X163985403Y-79004292D01*
X164009821Y-79069756D01*
X163994970Y-79138029D01*
X163973819Y-79166284D01*
X163851503Y-79288600D01*
X163715965Y-79482169D01*
X163715964Y-79482171D01*
X163616098Y-79696335D01*
X163616094Y-79696344D01*
X163554938Y-79924586D01*
X163554936Y-79924596D01*
X163534341Y-80159999D01*
X163534341Y-80160000D01*
X163554936Y-80395403D01*
X163554938Y-80395413D01*
X163616094Y-80623655D01*
X163616096Y-80623659D01*
X163616097Y-80623663D01*
X163715965Y-80837830D01*
X163715967Y-80837834D01*
X163851501Y-81031395D01*
X163851506Y-81031402D01*
X164018597Y-81198493D01*
X164018603Y-81198498D01*
X164204158Y-81328425D01*
X164247783Y-81383002D01*
X164254977Y-81452500D01*
X164223454Y-81514855D01*
X164204158Y-81531575D01*
X164018597Y-81661505D01*
X163851505Y-81828597D01*
X163715965Y-82022169D01*
X163715964Y-82022171D01*
X163616098Y-82236335D01*
X163616094Y-82236344D01*
X163554938Y-82464586D01*
X163554936Y-82464596D01*
X163534341Y-82699999D01*
X163534341Y-82700000D01*
X163554936Y-82935403D01*
X163554938Y-82935413D01*
X163616094Y-83163655D01*
X163616096Y-83163659D01*
X163616097Y-83163663D01*
X163682277Y-83305586D01*
X163715965Y-83377830D01*
X163715967Y-83377834D01*
X163851501Y-83571395D01*
X163851506Y-83571402D01*
X164018597Y-83738493D01*
X164018603Y-83738498D01*
X164204158Y-83868425D01*
X164247783Y-83923002D01*
X164254977Y-83992500D01*
X164223454Y-84054855D01*
X164204158Y-84071575D01*
X164018597Y-84201505D01*
X163851505Y-84368597D01*
X163715965Y-84562169D01*
X163715964Y-84562171D01*
X163616098Y-84776335D01*
X163616094Y-84776344D01*
X163554938Y-85004586D01*
X163554936Y-85004596D01*
X163534341Y-85239999D01*
X163534341Y-85240000D01*
X163554936Y-85475403D01*
X163554938Y-85475413D01*
X163616094Y-85703655D01*
X163616096Y-85703659D01*
X163616097Y-85703663D01*
X163700921Y-85885569D01*
X163715965Y-85917830D01*
X163715967Y-85917834D01*
X163851501Y-86111395D01*
X163851506Y-86111402D01*
X164018597Y-86278493D01*
X164018603Y-86278498D01*
X164204158Y-86408425D01*
X164247783Y-86463002D01*
X164254977Y-86532500D01*
X164223454Y-86594855D01*
X164204158Y-86611575D01*
X164018597Y-86741505D01*
X163851505Y-86908597D01*
X163715965Y-87102169D01*
X163715964Y-87102171D01*
X163616098Y-87316335D01*
X163616094Y-87316344D01*
X163554938Y-87544586D01*
X163554936Y-87544596D01*
X163534341Y-87779999D01*
X163534341Y-87780000D01*
X163554936Y-88015403D01*
X163554938Y-88015413D01*
X163616094Y-88243655D01*
X163616096Y-88243659D01*
X163616097Y-88243663D01*
X163688839Y-88399658D01*
X163715965Y-88457830D01*
X163715967Y-88457834D01*
X163810699Y-88593124D01*
X163851501Y-88651396D01*
X163851506Y-88651402D01*
X163973818Y-88773714D01*
X164007303Y-88835037D01*
X164002319Y-88904729D01*
X163960447Y-88960662D01*
X163929471Y-88977577D01*
X163797912Y-89026646D01*
X163797906Y-89026649D01*
X163682812Y-89112809D01*
X163682809Y-89112812D01*
X163596649Y-89227906D01*
X163596645Y-89227913D01*
X163546403Y-89362620D01*
X163546401Y-89362627D01*
X163540000Y-89422155D01*
X163540000Y-90070000D01*
X164445440Y-90070000D01*
X164414755Y-90123147D01*
X164380000Y-90252857D01*
X164380000Y-90387143D01*
X164414755Y-90516853D01*
X164445440Y-90570000D01*
X163540000Y-90570000D01*
X163540000Y-91217844D01*
X163546401Y-91277372D01*
X163546403Y-91277379D01*
X163596645Y-91412086D01*
X163596649Y-91412093D01*
X163682809Y-91527187D01*
X163682812Y-91527190D01*
X163797906Y-91613350D01*
X163797913Y-91613354D01*
X163929470Y-91662421D01*
X163985403Y-91704292D01*
X164009821Y-91769756D01*
X163994970Y-91838029D01*
X163973819Y-91866284D01*
X163851503Y-91988600D01*
X163715965Y-92182169D01*
X163715964Y-92182171D01*
X163616098Y-92396335D01*
X163616094Y-92396344D01*
X163554938Y-92624586D01*
X163554936Y-92624596D01*
X163534341Y-92859999D01*
X163534341Y-92860000D01*
X163554936Y-93095403D01*
X163554938Y-93095413D01*
X163616094Y-93323655D01*
X163616096Y-93323659D01*
X163616097Y-93323663D01*
X163688839Y-93479658D01*
X163715965Y-93537830D01*
X163715967Y-93537834D01*
X163851501Y-93731395D01*
X163851506Y-93731402D01*
X164018597Y-93898493D01*
X164018603Y-93898498D01*
X164204158Y-94028425D01*
X164247783Y-94083002D01*
X164254977Y-94152500D01*
X164223454Y-94214855D01*
X164204158Y-94231575D01*
X164018597Y-94361505D01*
X163851505Y-94528597D01*
X163715965Y-94722169D01*
X163715964Y-94722171D01*
X163616098Y-94936335D01*
X163616094Y-94936344D01*
X163554938Y-95164586D01*
X163554936Y-95164596D01*
X163534341Y-95399999D01*
X163534341Y-95400000D01*
X163554936Y-95635403D01*
X163554938Y-95635413D01*
X163616094Y-95863655D01*
X163616096Y-95863659D01*
X163616097Y-95863663D01*
X163696841Y-96036819D01*
X163715965Y-96077830D01*
X163715967Y-96077834D01*
X163851501Y-96271395D01*
X163851506Y-96271402D01*
X164018597Y-96438493D01*
X164018603Y-96438498D01*
X164204158Y-96568425D01*
X164247783Y-96623002D01*
X164254977Y-96692500D01*
X164223454Y-96754855D01*
X164204158Y-96771575D01*
X164018597Y-96901505D01*
X163851505Y-97068597D01*
X163715965Y-97262169D01*
X163715964Y-97262171D01*
X163616098Y-97476335D01*
X163616094Y-97476344D01*
X163554938Y-97704586D01*
X163554936Y-97704596D01*
X163534341Y-97939999D01*
X163534341Y-97940000D01*
X163554936Y-98175403D01*
X163554938Y-98175413D01*
X163616094Y-98403655D01*
X163616096Y-98403659D01*
X163616097Y-98403663D01*
X163680093Y-98540902D01*
X163715965Y-98617830D01*
X163715967Y-98617834D01*
X163851501Y-98811395D01*
X163851506Y-98811402D01*
X164018597Y-98978493D01*
X164018603Y-98978498D01*
X164204158Y-99108425D01*
X164247783Y-99163002D01*
X164254977Y-99232500D01*
X164223454Y-99294855D01*
X164204158Y-99311575D01*
X164018597Y-99441505D01*
X163851505Y-99608597D01*
X163715965Y-99802169D01*
X163715964Y-99802171D01*
X163616098Y-100016335D01*
X163616094Y-100016344D01*
X163554938Y-100244586D01*
X163554936Y-100244596D01*
X163534341Y-100479999D01*
X163534341Y-100480000D01*
X163554936Y-100715403D01*
X163554938Y-100715413D01*
X163616094Y-100943655D01*
X163616096Y-100943660D01*
X163616097Y-100943663D01*
X163677490Y-101075321D01*
X163715965Y-101157830D01*
X163715967Y-101157834D01*
X163808161Y-101289500D01*
X163851501Y-101351396D01*
X163851506Y-101351402D01*
X163973818Y-101473714D01*
X164007303Y-101535037D01*
X164002319Y-101604729D01*
X163960447Y-101660662D01*
X163929471Y-101677577D01*
X163797912Y-101726646D01*
X163797906Y-101726649D01*
X163682812Y-101812809D01*
X163682809Y-101812812D01*
X163596649Y-101927906D01*
X163596645Y-101927913D01*
X163546403Y-102062620D01*
X163546401Y-102062627D01*
X163540000Y-102122155D01*
X163540000Y-102770000D01*
X164445440Y-102770000D01*
X164414755Y-102823147D01*
X164380000Y-102952857D01*
X164380000Y-103087143D01*
X164414755Y-103216853D01*
X164445440Y-103270000D01*
X163540000Y-103270000D01*
X163540000Y-103917844D01*
X163546401Y-103977372D01*
X163546403Y-103977379D01*
X163596645Y-104112086D01*
X163596649Y-104112093D01*
X163682809Y-104227187D01*
X163682812Y-104227190D01*
X163797906Y-104313350D01*
X163797913Y-104313354D01*
X163929470Y-104362421D01*
X163985403Y-104404292D01*
X164009821Y-104469756D01*
X163994970Y-104538029D01*
X163973819Y-104566284D01*
X163851503Y-104688600D01*
X163715965Y-104882169D01*
X163715964Y-104882171D01*
X163616098Y-105096335D01*
X163616094Y-105096344D01*
X163554938Y-105324586D01*
X163554936Y-105324596D01*
X163534341Y-105559999D01*
X163534341Y-105560000D01*
X163554936Y-105795403D01*
X163554938Y-105795413D01*
X163616094Y-106023655D01*
X163616096Y-106023659D01*
X163616097Y-106023663D01*
X163688839Y-106179658D01*
X163715965Y-106237830D01*
X163715967Y-106237834D01*
X163851501Y-106431395D01*
X163851506Y-106431402D01*
X164018597Y-106598493D01*
X164018603Y-106598498D01*
X164204158Y-106728425D01*
X164247783Y-106783002D01*
X164254977Y-106852500D01*
X164223454Y-106914855D01*
X164204158Y-106931575D01*
X164018597Y-107061505D01*
X163851505Y-107228597D01*
X163715965Y-107422169D01*
X163715964Y-107422171D01*
X163616098Y-107636335D01*
X163616094Y-107636344D01*
X163554938Y-107864586D01*
X163554936Y-107864596D01*
X163534341Y-108099999D01*
X163534341Y-108100000D01*
X163554936Y-108335403D01*
X163554938Y-108335413D01*
X163616094Y-108563655D01*
X163616096Y-108563659D01*
X163616097Y-108563663D01*
X163625362Y-108583531D01*
X163715965Y-108777830D01*
X163715967Y-108777834D01*
X163752865Y-108830529D01*
X163851505Y-108971401D01*
X164018599Y-109138495D01*
X164109552Y-109202181D01*
X164212165Y-109274032D01*
X164212167Y-109274033D01*
X164212170Y-109274035D01*
X164426337Y-109373903D01*
X164654592Y-109435063D01*
X164842918Y-109451539D01*
X164889999Y-109455659D01*
X164890000Y-109455659D01*
X164890001Y-109455659D01*
X164929234Y-109452226D01*
X165125408Y-109435063D01*
X165353663Y-109373903D01*
X165567830Y-109274035D01*
X165585214Y-109261861D01*
X165651420Y-109239534D01*
X165719187Y-109256543D01*
X165744020Y-109275755D01*
X171727637Y-115259372D01*
X171761122Y-115320695D01*
X171756138Y-115390387D01*
X171748791Y-115406475D01*
X171743135Y-115416833D01*
X171643128Y-115684962D01*
X171582304Y-115964566D01*
X171561890Y-116249998D01*
X171561890Y-116250001D01*
X171582304Y-116535433D01*
X171643128Y-116815037D01*
X171743135Y-117083166D01*
X171880270Y-117334309D01*
X171880275Y-117334317D01*
X172051754Y-117563387D01*
X172051770Y-117563405D01*
X172254094Y-117765729D01*
X172254112Y-117765745D01*
X172483182Y-117937224D01*
X172483190Y-117937229D01*
X172734333Y-118074364D01*
X172734332Y-118074364D01*
X172734336Y-118074365D01*
X172734339Y-118074367D01*
X173002454Y-118174369D01*
X173002460Y-118174370D01*
X173002462Y-118174371D01*
X173282066Y-118235195D01*
X173282068Y-118235195D01*
X173282072Y-118235196D01*
X173535720Y-118253337D01*
X173567499Y-118255610D01*
X173567500Y-118255610D01*
X173567501Y-118255610D01*
X173596095Y-118253564D01*
X173852928Y-118235196D01*
X174043242Y-118193796D01*
X174132537Y-118174371D01*
X174132537Y-118174370D01*
X174132546Y-118174369D01*
X174400661Y-118074367D01*
X174651815Y-117937226D01*
X174880895Y-117765739D01*
X175083239Y-117563395D01*
X175254726Y-117334315D01*
X175391867Y-117083161D01*
X175491869Y-116815046D01*
X175491871Y-116815037D01*
X175552695Y-116535433D01*
X175552695Y-116535432D01*
X175552696Y-116535428D01*
X175573110Y-116250000D01*
X175552696Y-115964572D01*
X175491869Y-115684954D01*
X175391867Y-115416839D01*
X175341724Y-115325010D01*
X175254729Y-115165690D01*
X175254724Y-115165682D01*
X175083245Y-114936612D01*
X175083229Y-114936594D01*
X174880905Y-114734270D01*
X174880887Y-114734254D01*
X174651817Y-114562775D01*
X174651809Y-114562770D01*
X174400666Y-114425635D01*
X174400667Y-114425635D01*
X174293415Y-114385632D01*
X174132546Y-114325631D01*
X174132543Y-114325630D01*
X174132537Y-114325628D01*
X173852933Y-114264804D01*
X173567501Y-114244390D01*
X173567499Y-114244390D01*
X173282066Y-114264804D01*
X173002462Y-114325628D01*
X172734333Y-114425635D01*
X172723975Y-114431291D01*
X172655701Y-114446140D01*
X172590238Y-114421719D01*
X172576872Y-114410137D01*
X166275551Y-108108816D01*
X166242066Y-108047493D01*
X166239704Y-108031942D01*
X166225063Y-107864597D01*
X166225063Y-107864596D01*
X166225063Y-107864592D01*
X166163903Y-107636337D01*
X166064035Y-107422171D01*
X166044839Y-107394755D01*
X165928494Y-107228597D01*
X165761402Y-107061506D01*
X165761396Y-107061501D01*
X165575842Y-106931575D01*
X165532217Y-106876998D01*
X165525023Y-106807500D01*
X165556546Y-106745145D01*
X165575842Y-106728425D01*
X165622197Y-106695967D01*
X165761401Y-106598495D01*
X165928495Y-106431401D01*
X166064035Y-106237830D01*
X166066707Y-106232097D01*
X166112878Y-106179658D01*
X166179091Y-106160500D01*
X167577403Y-106160500D01*
X167644442Y-106180185D01*
X167665084Y-106196819D01*
X176727637Y-115259372D01*
X176761122Y-115320695D01*
X176756138Y-115390387D01*
X176748791Y-115406475D01*
X176743135Y-115416833D01*
X176643128Y-115684962D01*
X176582304Y-115964566D01*
X176561890Y-116249998D01*
X176561890Y-116250001D01*
X176582304Y-116535433D01*
X176643128Y-116815037D01*
X176743135Y-117083166D01*
X176880270Y-117334309D01*
X176880275Y-117334317D01*
X177051754Y-117563387D01*
X177051770Y-117563405D01*
X177254094Y-117765729D01*
X177254112Y-117765745D01*
X177483182Y-117937224D01*
X177483190Y-117937229D01*
X177734333Y-118074364D01*
X177734332Y-118074364D01*
X177734336Y-118074365D01*
X177734339Y-118074367D01*
X178002454Y-118174369D01*
X178002460Y-118174370D01*
X178002462Y-118174371D01*
X178282066Y-118235195D01*
X178282068Y-118235195D01*
X178282072Y-118235196D01*
X178535720Y-118253337D01*
X178567499Y-118255610D01*
X178567500Y-118255610D01*
X178567501Y-118255610D01*
X178596095Y-118253564D01*
X178852928Y-118235196D01*
X179043242Y-118193796D01*
X179132537Y-118174371D01*
X179132537Y-118174370D01*
X179132546Y-118174369D01*
X179400661Y-118074367D01*
X179651815Y-117937226D01*
X179880895Y-117765739D01*
X180083239Y-117563395D01*
X180254726Y-117334315D01*
X180391867Y-117083161D01*
X180491869Y-116815046D01*
X180491871Y-116815037D01*
X180552695Y-116535433D01*
X180552695Y-116535432D01*
X180552696Y-116535428D01*
X180573110Y-116250000D01*
X180552696Y-115964572D01*
X180491869Y-115684954D01*
X180391867Y-115416839D01*
X180341724Y-115325010D01*
X180254729Y-115165690D01*
X180254724Y-115165682D01*
X180083245Y-114936612D01*
X180083229Y-114936594D01*
X179880905Y-114734270D01*
X179880887Y-114734254D01*
X179651817Y-114562775D01*
X179651809Y-114562770D01*
X179400666Y-114425635D01*
X179400667Y-114425635D01*
X179293415Y-114385632D01*
X179132546Y-114325631D01*
X179132543Y-114325630D01*
X179132537Y-114325628D01*
X178852933Y-114264804D01*
X178567501Y-114244390D01*
X178567499Y-114244390D01*
X178282066Y-114264804D01*
X178002462Y-114325628D01*
X177734333Y-114425635D01*
X177723975Y-114431291D01*
X177655701Y-114446140D01*
X177590238Y-114421719D01*
X177576872Y-114410137D01*
X168365090Y-105198355D01*
X168365088Y-105198352D01*
X168246217Y-105079481D01*
X168246216Y-105079480D01*
X168159404Y-105029360D01*
X168159404Y-105029359D01*
X168159400Y-105029358D01*
X168109285Y-105000423D01*
X167956557Y-104959499D01*
X167798443Y-104959499D01*
X167790847Y-104959499D01*
X167790831Y-104959500D01*
X166179091Y-104959500D01*
X166112052Y-104939815D01*
X166066711Y-104887909D01*
X166064037Y-104882175D01*
X166064034Y-104882170D01*
X166064033Y-104882169D01*
X165928495Y-104688599D01*
X165806179Y-104566283D01*
X165772696Y-104504963D01*
X165777680Y-104435271D01*
X165819551Y-104379337D01*
X165850529Y-104362422D01*
X165982086Y-104313354D01*
X165982093Y-104313350D01*
X166097187Y-104227190D01*
X166097190Y-104227187D01*
X166183350Y-104112093D01*
X166183354Y-104112086D01*
X166233596Y-103977379D01*
X166233598Y-103977372D01*
X166239999Y-103917844D01*
X166240000Y-103917827D01*
X166240000Y-103270000D01*
X165334560Y-103270000D01*
X165365245Y-103216853D01*
X165400000Y-103087143D01*
X165400000Y-102952857D01*
X165365245Y-102823147D01*
X165334560Y-102770000D01*
X166240000Y-102770000D01*
X166240000Y-102122172D01*
X166239999Y-102122155D01*
X166233598Y-102062627D01*
X166233596Y-102062620D01*
X166183354Y-101927913D01*
X166183350Y-101927906D01*
X166097190Y-101812812D01*
X166097187Y-101812809D01*
X165982093Y-101726649D01*
X165982088Y-101726646D01*
X165850528Y-101677577D01*
X165794595Y-101635705D01*
X165770178Y-101570241D01*
X165785030Y-101501968D01*
X165806175Y-101473720D01*
X165928495Y-101351401D01*
X166064035Y-101157830D01*
X166066707Y-101152097D01*
X166112878Y-101099658D01*
X166179091Y-101080500D01*
X167497403Y-101080500D01*
X167564442Y-101100185D01*
X167585084Y-101116819D01*
X181727637Y-115259372D01*
X181761122Y-115320695D01*
X181756138Y-115390387D01*
X181748791Y-115406475D01*
X181743135Y-115416833D01*
X181643128Y-115684962D01*
X181582304Y-115964566D01*
X181561890Y-116249998D01*
X181561890Y-116250001D01*
X181582304Y-116535433D01*
X181643128Y-116815037D01*
X181743135Y-117083166D01*
X181880270Y-117334309D01*
X181880275Y-117334317D01*
X182051754Y-117563387D01*
X182051770Y-117563405D01*
X182254094Y-117765729D01*
X182254112Y-117765745D01*
X182483182Y-117937224D01*
X182483190Y-117937229D01*
X182734333Y-118074364D01*
X182734332Y-118074364D01*
X182734336Y-118074365D01*
X182734339Y-118074367D01*
X183002454Y-118174369D01*
X183002460Y-118174370D01*
X183002462Y-118174371D01*
X183282066Y-118235195D01*
X183282068Y-118235195D01*
X183282072Y-118235196D01*
X183535720Y-118253337D01*
X183567499Y-118255610D01*
X183567500Y-118255610D01*
X183567501Y-118255610D01*
X183596095Y-118253564D01*
X183852928Y-118235196D01*
X184043242Y-118193796D01*
X184132537Y-118174371D01*
X184132537Y-118174370D01*
X184132546Y-118174369D01*
X184400661Y-118074367D01*
X184651815Y-117937226D01*
X184880895Y-117765739D01*
X185083239Y-117563395D01*
X185254726Y-117334315D01*
X185391867Y-117083161D01*
X185491869Y-116815046D01*
X185491871Y-116815037D01*
X185552695Y-116535433D01*
X185552695Y-116535432D01*
X185552696Y-116535428D01*
X185573110Y-116250000D01*
X185552696Y-115964572D01*
X185491869Y-115684954D01*
X185391867Y-115416839D01*
X185341724Y-115325010D01*
X185254729Y-115165690D01*
X185254724Y-115165682D01*
X185083245Y-114936612D01*
X185083229Y-114936594D01*
X184880905Y-114734270D01*
X184880887Y-114734254D01*
X184651817Y-114562775D01*
X184651809Y-114562770D01*
X184400666Y-114425635D01*
X184400667Y-114425635D01*
X184293415Y-114385632D01*
X184132546Y-114325631D01*
X184132543Y-114325630D01*
X184132537Y-114325628D01*
X183852933Y-114264804D01*
X183567501Y-114244390D01*
X183567499Y-114244390D01*
X183282066Y-114264804D01*
X183002462Y-114325628D01*
X182734333Y-114425635D01*
X182723975Y-114431291D01*
X182655701Y-114446140D01*
X182590238Y-114421719D01*
X182576872Y-114410137D01*
X168285090Y-100118355D01*
X168285088Y-100118352D01*
X168166217Y-99999481D01*
X168166216Y-99999480D01*
X168052519Y-99933837D01*
X168052519Y-99933836D01*
X168052514Y-99933835D01*
X168044408Y-99929154D01*
X168029286Y-99920423D01*
X167991103Y-99910192D01*
X167876557Y-99879499D01*
X167718443Y-99879499D01*
X167710847Y-99879499D01*
X167710831Y-99879500D01*
X166179091Y-99879500D01*
X166112052Y-99859815D01*
X166066711Y-99807909D01*
X166064037Y-99802175D01*
X166064034Y-99802170D01*
X166064033Y-99802169D01*
X166001597Y-99713000D01*
X165928494Y-99608597D01*
X165761402Y-99441506D01*
X165761396Y-99441501D01*
X165575842Y-99311575D01*
X165532217Y-99256998D01*
X165525023Y-99187500D01*
X165556546Y-99125145D01*
X165575842Y-99108425D01*
X165598026Y-99092891D01*
X165761401Y-98978495D01*
X165928495Y-98811401D01*
X166064035Y-98617830D01*
X166066707Y-98612097D01*
X166112878Y-98559658D01*
X166179091Y-98540500D01*
X169957403Y-98540500D01*
X170024442Y-98560185D01*
X170045084Y-98576819D01*
X186727637Y-115259372D01*
X186761122Y-115320695D01*
X186756138Y-115390387D01*
X186748791Y-115406475D01*
X186743135Y-115416833D01*
X186643128Y-115684962D01*
X186582304Y-115964566D01*
X186561890Y-116249998D01*
X186561890Y-116250001D01*
X186582304Y-116535433D01*
X186643128Y-116815037D01*
X186743135Y-117083166D01*
X186880270Y-117334309D01*
X186880275Y-117334317D01*
X187051754Y-117563387D01*
X187051770Y-117563405D01*
X187254094Y-117765729D01*
X187254112Y-117765745D01*
X187483182Y-117937224D01*
X187483190Y-117937229D01*
X187734333Y-118074364D01*
X187734332Y-118074364D01*
X187734336Y-118074365D01*
X187734339Y-118074367D01*
X188002454Y-118174369D01*
X188002460Y-118174370D01*
X188002462Y-118174371D01*
X188282066Y-118235195D01*
X188282068Y-118235195D01*
X188282072Y-118235196D01*
X188535720Y-118253337D01*
X188567499Y-118255610D01*
X188567500Y-118255610D01*
X188567501Y-118255610D01*
X188596095Y-118253564D01*
X188852928Y-118235196D01*
X189043242Y-118193796D01*
X189132537Y-118174371D01*
X189132537Y-118174370D01*
X189132546Y-118174369D01*
X189400661Y-118074367D01*
X189651815Y-117937226D01*
X189880895Y-117765739D01*
X190083239Y-117563395D01*
X190254726Y-117334315D01*
X190391867Y-117083161D01*
X190491869Y-116815046D01*
X190491871Y-116815037D01*
X190552695Y-116535433D01*
X190552695Y-116535432D01*
X190552696Y-116535428D01*
X190573110Y-116250000D01*
X190552696Y-115964572D01*
X190491869Y-115684954D01*
X190391867Y-115416839D01*
X190341724Y-115325010D01*
X190254729Y-115165690D01*
X190254724Y-115165682D01*
X190083245Y-114936612D01*
X190083229Y-114936594D01*
X189880905Y-114734270D01*
X189880887Y-114734254D01*
X189651817Y-114562775D01*
X189651809Y-114562770D01*
X189400666Y-114425635D01*
X189400667Y-114425635D01*
X189293415Y-114385632D01*
X189132546Y-114325631D01*
X189132543Y-114325630D01*
X189132537Y-114325628D01*
X188852933Y-114264804D01*
X188567501Y-114244390D01*
X188567499Y-114244390D01*
X188282066Y-114264804D01*
X188002462Y-114325628D01*
X187734333Y-114425635D01*
X187723975Y-114431291D01*
X187655701Y-114446140D01*
X187590238Y-114421719D01*
X187576872Y-114410137D01*
X170745090Y-97578355D01*
X170745088Y-97578352D01*
X170626217Y-97459481D01*
X170626216Y-97459480D01*
X170539404Y-97409360D01*
X170539404Y-97409359D01*
X170539400Y-97409358D01*
X170489285Y-97380423D01*
X170336557Y-97339499D01*
X170178443Y-97339499D01*
X170170847Y-97339499D01*
X170170831Y-97339500D01*
X166179091Y-97339500D01*
X166112052Y-97319815D01*
X166066711Y-97267909D01*
X166064037Y-97262175D01*
X166064034Y-97262170D01*
X166064033Y-97262169D01*
X165933208Y-97075330D01*
X165928494Y-97068597D01*
X165761402Y-96901506D01*
X165761396Y-96901501D01*
X165575842Y-96771575D01*
X165532217Y-96716998D01*
X165525023Y-96647500D01*
X165556546Y-96585145D01*
X165575842Y-96568425D01*
X165623699Y-96534915D01*
X165761401Y-96438495D01*
X165928495Y-96271401D01*
X166064035Y-96077830D01*
X166066707Y-96072097D01*
X166112878Y-96019658D01*
X166179091Y-96000500D01*
X172417403Y-96000500D01*
X172484442Y-96020185D01*
X172505084Y-96036819D01*
X191727637Y-115259373D01*
X191761122Y-115320696D01*
X191756138Y-115390388D01*
X191748789Y-115406479D01*
X191743136Y-115416830D01*
X191743135Y-115416832D01*
X191643128Y-115684962D01*
X191582304Y-115964566D01*
X191561890Y-116249998D01*
X191561890Y-116250001D01*
X191582304Y-116535433D01*
X191643128Y-116815037D01*
X191743135Y-117083166D01*
X191880270Y-117334309D01*
X191880275Y-117334317D01*
X192051754Y-117563387D01*
X192051770Y-117563405D01*
X192254094Y-117765729D01*
X192254112Y-117765745D01*
X192483182Y-117937224D01*
X192483190Y-117937229D01*
X192734333Y-118074364D01*
X192734332Y-118074364D01*
X192734336Y-118074365D01*
X192734339Y-118074367D01*
X193002454Y-118174369D01*
X193002460Y-118174370D01*
X193002462Y-118174371D01*
X193282066Y-118235195D01*
X193282068Y-118235195D01*
X193282072Y-118235196D01*
X193535720Y-118253337D01*
X193567499Y-118255610D01*
X193567500Y-118255610D01*
X193567501Y-118255610D01*
X193596095Y-118253564D01*
X193852928Y-118235196D01*
X194043242Y-118193796D01*
X194132537Y-118174371D01*
X194132537Y-118174370D01*
X194132546Y-118174369D01*
X194400661Y-118074367D01*
X194651815Y-117937226D01*
X194880895Y-117765739D01*
X195083239Y-117563395D01*
X195254726Y-117334315D01*
X195391867Y-117083161D01*
X195491869Y-116815046D01*
X195491871Y-116815037D01*
X195552695Y-116535433D01*
X195552695Y-116535432D01*
X195552696Y-116535428D01*
X195573110Y-116250000D01*
X195552696Y-115964572D01*
X195491869Y-115684954D01*
X195391867Y-115416839D01*
X195341724Y-115325010D01*
X195254729Y-115165690D01*
X195254724Y-115165682D01*
X195083245Y-114936612D01*
X195083229Y-114936594D01*
X194880905Y-114734270D01*
X194880887Y-114734254D01*
X194651817Y-114562775D01*
X194651809Y-114562770D01*
X194400666Y-114425635D01*
X194400667Y-114425635D01*
X194293415Y-114385632D01*
X194132546Y-114325631D01*
X194132543Y-114325630D01*
X194132537Y-114325628D01*
X193852933Y-114264804D01*
X193567501Y-114244390D01*
X193567499Y-114244390D01*
X193282066Y-114264804D01*
X193002462Y-114325628D01*
X192734332Y-114425635D01*
X192734330Y-114425636D01*
X192723979Y-114431289D01*
X192655706Y-114446140D01*
X192590242Y-114421722D01*
X192576873Y-114410137D01*
X173205090Y-95038355D01*
X173205088Y-95038352D01*
X173086217Y-94919481D01*
X173086216Y-94919480D01*
X172999404Y-94869360D01*
X172999404Y-94869359D01*
X172999400Y-94869358D01*
X172949285Y-94840423D01*
X172796557Y-94799499D01*
X172638443Y-94799499D01*
X172630847Y-94799499D01*
X172630831Y-94799500D01*
X166179091Y-94799500D01*
X166112052Y-94779815D01*
X166066711Y-94727909D01*
X166064037Y-94722175D01*
X166064034Y-94722170D01*
X166064033Y-94722169D01*
X165928495Y-94528599D01*
X165928494Y-94528597D01*
X165761402Y-94361506D01*
X165761396Y-94361501D01*
X165575842Y-94231575D01*
X165532217Y-94176998D01*
X165525023Y-94107500D01*
X165556546Y-94045145D01*
X165575842Y-94028425D01*
X165698842Y-93942299D01*
X165761401Y-93898495D01*
X165928495Y-93731401D01*
X166064035Y-93537830D01*
X166066707Y-93532097D01*
X166112878Y-93479658D01*
X166179091Y-93460500D01*
X190673237Y-93460500D01*
X190740276Y-93480185D01*
X190760918Y-93496819D01*
X201338181Y-104074082D01*
X201371666Y-104135405D01*
X201374500Y-104161763D01*
X201374500Y-105509536D01*
X201374501Y-105509542D01*
X201380908Y-105569149D01*
X201431202Y-105703994D01*
X201431206Y-105704001D01*
X201517452Y-105819210D01*
X201517455Y-105819213D01*
X201632664Y-105905459D01*
X201632671Y-105905463D01*
X201767517Y-105955757D01*
X201767516Y-105955757D01*
X201774444Y-105956501D01*
X201827127Y-105962166D01*
X203622872Y-105962165D01*
X203682483Y-105955757D01*
X203817331Y-105905462D01*
X203932546Y-105819212D01*
X203971392Y-105767321D01*
X204024112Y-105696897D01*
X204026145Y-105698419D01*
X204066063Y-105658494D01*
X204134335Y-105643636D01*
X204199801Y-105668047D01*
X204241678Y-105723977D01*
X204249500Y-105767321D01*
X204249500Y-117430966D01*
X204229815Y-117498005D01*
X204177011Y-117543760D01*
X204107853Y-117553704D01*
X204044297Y-117524679D01*
X204009736Y-117475404D01*
X203951795Y-117324464D01*
X203785245Y-116997594D01*
X203585446Y-116689929D01*
X203396701Y-116456850D01*
X201972658Y-117880893D01*
X201894136Y-117772816D01*
X201727184Y-117605864D01*
X201619106Y-117527340D01*
X203043149Y-116103297D01*
X202810070Y-115914553D01*
X202502406Y-115714754D01*
X202175535Y-115548204D01*
X201833051Y-115416736D01*
X201478685Y-115321784D01*
X201116353Y-115264397D01*
X200750001Y-115245197D01*
X200749999Y-115245197D01*
X200383646Y-115264397D01*
X200021315Y-115321784D01*
X200021313Y-115321784D01*
X199666948Y-115416736D01*
X199324464Y-115548204D01*
X198997594Y-115714754D01*
X198689924Y-115914557D01*
X198456849Y-116103296D01*
X198456849Y-116103297D01*
X199880893Y-117527341D01*
X199772816Y-117605864D01*
X199605864Y-117772816D01*
X199527341Y-117880893D01*
X198103297Y-116456849D01*
X198103296Y-116456849D01*
X197914557Y-116689924D01*
X197714754Y-116997594D01*
X197548204Y-117324464D01*
X197416736Y-117666948D01*
X197321784Y-118021313D01*
X197321784Y-118021315D01*
X197264397Y-118383646D01*
X197245197Y-118749999D01*
X197245197Y-118750000D01*
X197264397Y-119116353D01*
X197321784Y-119478684D01*
X197321784Y-119478686D01*
X197416736Y-119833051D01*
X197548204Y-120175535D01*
X197714754Y-120502406D01*
X197914553Y-120810070D01*
X198103297Y-121043148D01*
X199527340Y-119619105D01*
X199605864Y-119727184D01*
X199772816Y-119894136D01*
X199880893Y-119972658D01*
X198456850Y-121396701D01*
X198689929Y-121585446D01*
X198997593Y-121785245D01*
X199324464Y-121951795D01*
X199475405Y-122009736D01*
X199530937Y-122052138D01*
X199554730Y-122117832D01*
X199539228Y-122185960D01*
X199489355Y-122234893D01*
X199430967Y-122249500D01*
X112819033Y-122249500D01*
X112751994Y-122229815D01*
X112706239Y-122177011D01*
X112696295Y-122107853D01*
X112725320Y-122044297D01*
X112774595Y-122009736D01*
X112925535Y-121951795D01*
X113252406Y-121785245D01*
X113560064Y-121585450D01*
X113793148Y-121396701D01*
X112369106Y-119972659D01*
X112477184Y-119894136D01*
X112644136Y-119727184D01*
X112722659Y-119619106D01*
X114146701Y-121043148D01*
X114335450Y-120810064D01*
X114535245Y-120502406D01*
X114701795Y-120175535D01*
X114833263Y-119833051D01*
X114928215Y-119478686D01*
X114928215Y-119478684D01*
X114985602Y-119116353D01*
X115004803Y-118750000D01*
X115004803Y-118749999D01*
X114985602Y-118383646D01*
X114928215Y-118021315D01*
X114928215Y-118021313D01*
X114833263Y-117666948D01*
X114701795Y-117324464D01*
X114535245Y-116997594D01*
X114335446Y-116689929D01*
X114146701Y-116456850D01*
X112722658Y-117880893D01*
X112644136Y-117772816D01*
X112477184Y-117605864D01*
X112369106Y-117527340D01*
X113793149Y-116103297D01*
X113560070Y-115914553D01*
X113252406Y-115714754D01*
X112925535Y-115548204D01*
X112583051Y-115416736D01*
X112228685Y-115321784D01*
X111866353Y-115264397D01*
X111500001Y-115245197D01*
X111499999Y-115245197D01*
X111133646Y-115264397D01*
X110771315Y-115321784D01*
X110771313Y-115321784D01*
X110416948Y-115416736D01*
X110074464Y-115548204D01*
X109747594Y-115714754D01*
X109439924Y-115914557D01*
X109206849Y-116103296D01*
X109206849Y-116103297D01*
X110630893Y-117527341D01*
X110522816Y-117605864D01*
X110355864Y-117772816D01*
X110277341Y-117880893D01*
X108853297Y-116456849D01*
X108853296Y-116456849D01*
X108664557Y-116689924D01*
X108464754Y-116997594D01*
X108298204Y-117324464D01*
X108240264Y-117475404D01*
X108197862Y-117530936D01*
X108132168Y-117554729D01*
X108064039Y-117539227D01*
X108015107Y-117489354D01*
X108000500Y-117430966D01*
X108000500Y-104715864D01*
X108020185Y-104648825D01*
X108072989Y-104603070D01*
X108142147Y-104593126D01*
X108205703Y-104622151D01*
X108236882Y-104663459D01*
X108325964Y-104854496D01*
X108325966Y-104854500D01*
X108428143Y-105000423D01*
X108461504Y-105048067D01*
X108628598Y-105215161D01*
X108725383Y-105282931D01*
X108822164Y-105350698D01*
X108822166Y-105350699D01*
X108822169Y-105350701D01*
X109036336Y-105450569D01*
X109264591Y-105511729D01*
X109452917Y-105528205D01*
X109499998Y-105532325D01*
X109499999Y-105532325D01*
X109500000Y-105532325D01*
X109539233Y-105528892D01*
X109735407Y-105511729D01*
X109963662Y-105450569D01*
X110177829Y-105350701D01*
X110371400Y-105215161D01*
X110538494Y-105048067D01*
X110674034Y-104854496D01*
X110676706Y-104848763D01*
X110722877Y-104796324D01*
X110789090Y-104777166D01*
X115386665Y-104777166D01*
X115386681Y-104777167D01*
X115394277Y-104777167D01*
X115552388Y-104777167D01*
X115552391Y-104777167D01*
X115705119Y-104736243D01*
X115755238Y-104707305D01*
X115842050Y-104657186D01*
X115953854Y-104545382D01*
X115953854Y-104545380D01*
X115964062Y-104535173D01*
X115964064Y-104535170D01*
X145545570Y-74953663D01*
X145606891Y-74920180D01*
X145676583Y-74925164D01*
X145732516Y-74967036D01*
X145756933Y-75032500D01*
X145756777Y-75052153D01*
X145754341Y-75079997D01*
X145754341Y-75080000D01*
X145774936Y-75315403D01*
X145774938Y-75315413D01*
X145809327Y-75443755D01*
X145807664Y-75513605D01*
X145777233Y-75563529D01*
X118198786Y-103141978D01*
X118086982Y-103253781D01*
X118086978Y-103253787D01*
X118040792Y-103333784D01*
X118007924Y-103390712D01*
X118007923Y-103390713D01*
X117997905Y-103428102D01*
X117966999Y-103543443D01*
X117966999Y-103543445D01*
X117966999Y-103711546D01*
X117967000Y-103711559D01*
X117967000Y-114125500D01*
X117947315Y-114192539D01*
X117894511Y-114238294D01*
X117843000Y-114249500D01*
X117019629Y-114249500D01*
X117019623Y-114249501D01*
X116960016Y-114255908D01*
X116825171Y-114306202D01*
X116825164Y-114306206D01*
X116709955Y-114392452D01*
X116709952Y-114392455D01*
X116623706Y-114507664D01*
X116623702Y-114507671D01*
X116573408Y-114642517D01*
X116567001Y-114702116D01*
X116567001Y-114702123D01*
X116567000Y-114702135D01*
X116567000Y-117797870D01*
X116567001Y-117797876D01*
X116573408Y-117857483D01*
X116623702Y-117992328D01*
X116623706Y-117992335D01*
X116709952Y-118107544D01*
X116709955Y-118107547D01*
X116825164Y-118193793D01*
X116825171Y-118193797D01*
X116960017Y-118244091D01*
X116960016Y-118244091D01*
X116966944Y-118244835D01*
X117019627Y-118250500D01*
X120115372Y-118250499D01*
X120174983Y-118244091D01*
X120309831Y-118193796D01*
X120425046Y-118107546D01*
X120511296Y-117992331D01*
X120561591Y-117857483D01*
X120568000Y-117797873D01*
X120567999Y-114702128D01*
X120561591Y-114642517D01*
X120531847Y-114562770D01*
X120511297Y-114507671D01*
X120511293Y-114507664D01*
X120425047Y-114392455D01*
X120425044Y-114392452D01*
X120309835Y-114306206D01*
X120309828Y-114306202D01*
X120174982Y-114255908D01*
X120174983Y-114255908D01*
X120115383Y-114249501D01*
X120115381Y-114249500D01*
X120115373Y-114249500D01*
X120115365Y-114249500D01*
X119292000Y-114249500D01*
X119224961Y-114229815D01*
X119179206Y-114177011D01*
X119168000Y-114125500D01*
X119168000Y-103922597D01*
X119187685Y-103855558D01*
X119204319Y-103834916D01*
X145632916Y-77406319D01*
X145694239Y-77372834D01*
X145720597Y-77370000D01*
X146665440Y-77370000D01*
X146634755Y-77423147D01*
X146600000Y-77552857D01*
X146600000Y-77687143D01*
X146634755Y-77816853D01*
X146665440Y-77870000D01*
X145760000Y-77870000D01*
X145760000Y-78517844D01*
X145766401Y-78577372D01*
X145766403Y-78577379D01*
X145816645Y-78712086D01*
X145816649Y-78712093D01*
X145902809Y-78827187D01*
X145902812Y-78827190D01*
X146017906Y-78913350D01*
X146017913Y-78913354D01*
X146149470Y-78962421D01*
X146205403Y-79004292D01*
X146229821Y-79069756D01*
X146214970Y-79138029D01*
X146193819Y-79166284D01*
X146071503Y-79288600D01*
X145935965Y-79482169D01*
X145935964Y-79482171D01*
X145836098Y-79696335D01*
X145836094Y-79696344D01*
X145774938Y-79924586D01*
X145774936Y-79924596D01*
X145754341Y-80159999D01*
X145754341Y-80160000D01*
X145774936Y-80395403D01*
X145774938Y-80395413D01*
X145809327Y-80523755D01*
X145807664Y-80593605D01*
X145777233Y-80643529D01*
X123198786Y-103221978D01*
X123086981Y-103333782D01*
X123086980Y-103333784D01*
X123054112Y-103390714D01*
X123054111Y-103390716D01*
X123007923Y-103470714D01*
X122998850Y-103504575D01*
X122966999Y-103623443D01*
X122966999Y-103623445D01*
X122966999Y-103791546D01*
X122967000Y-103791559D01*
X122967000Y-114252759D01*
X122947315Y-114319798D01*
X122894511Y-114365553D01*
X122886334Y-114368940D01*
X122734345Y-114425630D01*
X122734333Y-114425635D01*
X122483190Y-114562770D01*
X122483182Y-114562775D01*
X122254112Y-114734254D01*
X122254094Y-114734270D01*
X122051770Y-114936594D01*
X122051754Y-114936612D01*
X121880275Y-115165682D01*
X121880270Y-115165690D01*
X121743135Y-115416833D01*
X121643128Y-115684962D01*
X121582304Y-115964566D01*
X121561890Y-116249998D01*
X121561890Y-116250001D01*
X121582304Y-116535433D01*
X121643128Y-116815037D01*
X121743135Y-117083166D01*
X121880270Y-117334309D01*
X121880275Y-117334317D01*
X122051754Y-117563387D01*
X122051770Y-117563405D01*
X122254094Y-117765729D01*
X122254112Y-117765745D01*
X122483182Y-117937224D01*
X122483190Y-117937229D01*
X122734333Y-118074364D01*
X122734332Y-118074364D01*
X122734336Y-118074365D01*
X122734339Y-118074367D01*
X123002454Y-118174369D01*
X123002460Y-118174370D01*
X123002462Y-118174371D01*
X123282066Y-118235195D01*
X123282068Y-118235195D01*
X123282072Y-118235196D01*
X123535720Y-118253337D01*
X123567499Y-118255610D01*
X123567500Y-118255610D01*
X123567501Y-118255610D01*
X123596095Y-118253564D01*
X123852928Y-118235196D01*
X124043242Y-118193796D01*
X124132537Y-118174371D01*
X124132537Y-118174370D01*
X124132546Y-118174369D01*
X124400661Y-118074367D01*
X124651815Y-117937226D01*
X124880895Y-117765739D01*
X125083239Y-117563395D01*
X125254726Y-117334315D01*
X125391867Y-117083161D01*
X125491869Y-116815046D01*
X125491871Y-116815037D01*
X125552695Y-116535433D01*
X125552695Y-116535432D01*
X125552696Y-116535428D01*
X125573110Y-116250000D01*
X125552696Y-115964572D01*
X125491869Y-115684954D01*
X125391867Y-115416839D01*
X125341724Y-115325010D01*
X125254729Y-115165690D01*
X125254724Y-115165682D01*
X125083245Y-114936612D01*
X125083229Y-114936594D01*
X124880905Y-114734270D01*
X124880887Y-114734254D01*
X124651817Y-114562775D01*
X124651809Y-114562770D01*
X124400666Y-114425635D01*
X124400654Y-114425630D01*
X124248666Y-114368940D01*
X124192732Y-114327069D01*
X124168316Y-114261604D01*
X124168000Y-114252759D01*
X124168000Y-104002597D01*
X124187685Y-103935558D01*
X124204319Y-103914916D01*
X134829991Y-93289244D01*
X145545570Y-82573664D01*
X145606891Y-82540181D01*
X145676583Y-82545165D01*
X145732516Y-82587037D01*
X145756933Y-82652501D01*
X145756777Y-82672154D01*
X145754341Y-82699997D01*
X145754341Y-82700000D01*
X145774936Y-82935403D01*
X145774938Y-82935413D01*
X145809327Y-83063756D01*
X145807664Y-83133606D01*
X145777233Y-83183530D01*
X128198786Y-100761978D01*
X128086981Y-100873782D01*
X128086977Y-100873787D01*
X128046636Y-100943662D01*
X128046636Y-100943663D01*
X128007923Y-101010714D01*
X128007923Y-101010715D01*
X127966999Y-101163443D01*
X127966999Y-101163445D01*
X127966999Y-101331546D01*
X127967000Y-101331559D01*
X127967000Y-114252759D01*
X127947315Y-114319798D01*
X127894511Y-114365553D01*
X127886334Y-114368940D01*
X127734345Y-114425630D01*
X127734333Y-114425635D01*
X127483190Y-114562770D01*
X127483182Y-114562775D01*
X127254112Y-114734254D01*
X127254094Y-114734270D01*
X127051770Y-114936594D01*
X127051754Y-114936612D01*
X126880275Y-115165682D01*
X126880270Y-115165690D01*
X126743135Y-115416833D01*
X126643128Y-115684962D01*
X126582304Y-115964566D01*
X126561890Y-116249998D01*
X126561890Y-116250001D01*
X126582304Y-116535433D01*
X126643128Y-116815037D01*
X126743135Y-117083166D01*
X126880270Y-117334309D01*
X126880275Y-117334317D01*
X127051754Y-117563387D01*
X127051770Y-117563405D01*
X127254094Y-117765729D01*
X127254112Y-117765745D01*
X127483182Y-117937224D01*
X127483190Y-117937229D01*
X127734333Y-118074364D01*
X127734332Y-118074364D01*
X127734336Y-118074365D01*
X127734339Y-118074367D01*
X128002454Y-118174369D01*
X128002460Y-118174370D01*
X128002462Y-118174371D01*
X128282066Y-118235195D01*
X128282068Y-118235195D01*
X128282072Y-118235196D01*
X128535720Y-118253337D01*
X128567499Y-118255610D01*
X128567500Y-118255610D01*
X128567501Y-118255610D01*
X128596095Y-118253564D01*
X128852928Y-118235196D01*
X129043242Y-118193796D01*
X129132537Y-118174371D01*
X129132537Y-118174370D01*
X129132546Y-118174369D01*
X129400661Y-118074367D01*
X129651815Y-117937226D01*
X129880895Y-117765739D01*
X130083239Y-117563395D01*
X130254726Y-117334315D01*
X130391867Y-117083161D01*
X130491869Y-116815046D01*
X130491871Y-116815037D01*
X130552695Y-116535433D01*
X130552695Y-116535432D01*
X130552696Y-116535428D01*
X130573110Y-116250000D01*
X130552696Y-115964572D01*
X130491869Y-115684954D01*
X130391867Y-115416839D01*
X130341724Y-115325010D01*
X130254729Y-115165690D01*
X130254724Y-115165682D01*
X130083245Y-114936612D01*
X130083229Y-114936594D01*
X129880905Y-114734270D01*
X129880887Y-114734254D01*
X129651817Y-114562775D01*
X129651809Y-114562770D01*
X129400666Y-114425635D01*
X129400654Y-114425630D01*
X129248666Y-114368940D01*
X129192732Y-114327069D01*
X129168316Y-114261604D01*
X129168000Y-114252759D01*
X129168000Y-101542596D01*
X129187685Y-101475557D01*
X129204314Y-101454920D01*
X145545570Y-85113663D01*
X145606891Y-85080180D01*
X145676583Y-85085164D01*
X145732516Y-85127036D01*
X145756933Y-85192500D01*
X145756777Y-85212153D01*
X145754341Y-85239997D01*
X145754341Y-85240000D01*
X145774936Y-85475403D01*
X145774938Y-85475413D01*
X145809327Y-85603756D01*
X145807664Y-85673606D01*
X145777233Y-85723530D01*
X133198786Y-98301978D01*
X133086981Y-98413782D01*
X133086977Y-98413787D01*
X133037448Y-98499576D01*
X133037448Y-98499577D01*
X133007923Y-98550714D01*
X133005385Y-98560185D01*
X132966999Y-98703443D01*
X132966999Y-98703445D01*
X132966999Y-98871546D01*
X132967000Y-98871559D01*
X132967000Y-114252759D01*
X132947315Y-114319798D01*
X132894511Y-114365553D01*
X132886334Y-114368940D01*
X132734345Y-114425630D01*
X132734333Y-114425635D01*
X132483190Y-114562770D01*
X132483182Y-114562775D01*
X132254112Y-114734254D01*
X132254094Y-114734270D01*
X132051770Y-114936594D01*
X132051754Y-114936612D01*
X131880275Y-115165682D01*
X131880270Y-115165690D01*
X131743135Y-115416833D01*
X131643128Y-115684962D01*
X131582304Y-115964566D01*
X131561890Y-116249998D01*
X131561890Y-116250001D01*
X131582304Y-116535433D01*
X131643128Y-116815037D01*
X131743135Y-117083166D01*
X131880270Y-117334309D01*
X131880275Y-117334317D01*
X132051754Y-117563387D01*
X132051770Y-117563405D01*
X132254094Y-117765729D01*
X132254112Y-117765745D01*
X132483182Y-117937224D01*
X132483190Y-117937229D01*
X132734333Y-118074364D01*
X132734332Y-118074364D01*
X132734336Y-118074365D01*
X132734339Y-118074367D01*
X133002454Y-118174369D01*
X133002460Y-118174370D01*
X133002462Y-118174371D01*
X133282066Y-118235195D01*
X133282068Y-118235195D01*
X133282072Y-118235196D01*
X133535720Y-118253337D01*
X133567499Y-118255610D01*
X133567500Y-118255610D01*
X133567501Y-118255610D01*
X133596095Y-118253564D01*
X133852928Y-118235196D01*
X134043242Y-118193796D01*
X134132537Y-118174371D01*
X134132537Y-118174370D01*
X134132546Y-118174369D01*
X134400661Y-118074367D01*
X134651815Y-117937226D01*
X134880895Y-117765739D01*
X135083239Y-117563395D01*
X135254726Y-117334315D01*
X135391867Y-117083161D01*
X135491869Y-116815046D01*
X135491871Y-116815037D01*
X135552695Y-116535433D01*
X135552695Y-116535432D01*
X135552696Y-116535428D01*
X135573110Y-116250000D01*
X135552696Y-115964572D01*
X135491869Y-115684954D01*
X135391867Y-115416839D01*
X135341724Y-115325010D01*
X135254729Y-115165690D01*
X135254724Y-115165682D01*
X135083245Y-114936612D01*
X135083229Y-114936594D01*
X134880905Y-114734270D01*
X134880887Y-114734254D01*
X134651817Y-114562775D01*
X134651809Y-114562770D01*
X134400666Y-114425635D01*
X134400654Y-114425630D01*
X134248666Y-114368940D01*
X134192732Y-114327069D01*
X134168316Y-114261604D01*
X134168000Y-114252759D01*
X134168000Y-99082596D01*
X134187685Y-99015557D01*
X134204314Y-98994920D01*
X145545570Y-87653663D01*
X145606891Y-87620180D01*
X145676583Y-87625164D01*
X145732516Y-87667036D01*
X145756933Y-87732500D01*
X145756777Y-87752153D01*
X145754341Y-87779997D01*
X145754341Y-87780000D01*
X145774936Y-88015403D01*
X145774938Y-88015413D01*
X145809327Y-88143756D01*
X145807664Y-88213606D01*
X145777233Y-88263530D01*
X138198786Y-95841978D01*
X138086981Y-95953782D01*
X138086979Y-95953784D01*
X138068022Y-95986620D01*
X138060009Y-96000500D01*
X138007923Y-96090715D01*
X137966999Y-96243443D01*
X137966999Y-96243445D01*
X137966999Y-96411546D01*
X137967000Y-96411559D01*
X137967000Y-114252759D01*
X137947315Y-114319798D01*
X137894511Y-114365553D01*
X137886334Y-114368940D01*
X137734345Y-114425630D01*
X137734333Y-114425635D01*
X137483190Y-114562770D01*
X137483182Y-114562775D01*
X137254112Y-114734254D01*
X137254094Y-114734270D01*
X137051770Y-114936594D01*
X137051754Y-114936612D01*
X136880275Y-115165682D01*
X136880270Y-115165690D01*
X136743135Y-115416833D01*
X136643128Y-115684962D01*
X136582304Y-115964566D01*
X136561890Y-116249998D01*
X136561890Y-116250001D01*
X136582304Y-116535433D01*
X136643128Y-116815037D01*
X136743135Y-117083166D01*
X136880270Y-117334309D01*
X136880275Y-117334317D01*
X137051754Y-117563387D01*
X137051770Y-117563405D01*
X137254094Y-117765729D01*
X137254112Y-117765745D01*
X137483182Y-117937224D01*
X137483190Y-117937229D01*
X137734333Y-118074364D01*
X137734332Y-118074364D01*
X137734336Y-118074365D01*
X137734339Y-118074367D01*
X138002454Y-118174369D01*
X138002460Y-118174370D01*
X138002462Y-118174371D01*
X138282066Y-118235195D01*
X138282068Y-118235195D01*
X138282072Y-118235196D01*
X138535720Y-118253337D01*
X138567499Y-118255610D01*
X138567500Y-118255610D01*
X138567501Y-118255610D01*
X138596095Y-118253564D01*
X138852928Y-118235196D01*
X139043242Y-118193796D01*
X139132537Y-118174371D01*
X139132537Y-118174370D01*
X139132546Y-118174369D01*
X139400661Y-118074367D01*
X139651815Y-117937226D01*
X139880895Y-117765739D01*
X140083239Y-117563395D01*
X140254726Y-117334315D01*
X140391867Y-117083161D01*
X140491869Y-116815046D01*
X140491871Y-116815037D01*
X140552695Y-116535433D01*
X140552695Y-116535432D01*
X140552696Y-116535428D01*
X140573110Y-116250000D01*
X140552696Y-115964572D01*
X140491869Y-115684954D01*
X140391867Y-115416839D01*
X140341724Y-115325010D01*
X140254729Y-115165690D01*
X140254724Y-115165682D01*
X140083245Y-114936612D01*
X140083229Y-114936594D01*
X139880905Y-114734270D01*
X139880887Y-114734254D01*
X139651817Y-114562775D01*
X139651809Y-114562770D01*
X139400666Y-114425635D01*
X139400654Y-114425630D01*
X139248666Y-114368940D01*
X139192732Y-114327069D01*
X139168316Y-114261604D01*
X139168000Y-114252759D01*
X139168000Y-96622596D01*
X139187685Y-96555557D01*
X139204314Y-96534920D01*
X145632915Y-90106318D01*
X145694238Y-90072834D01*
X145720596Y-90070000D01*
X146665440Y-90070000D01*
X146634755Y-90123147D01*
X146600000Y-90252857D01*
X146600000Y-90387143D01*
X146634755Y-90516853D01*
X146665440Y-90570000D01*
X145760000Y-90570000D01*
X145760000Y-91217844D01*
X145766401Y-91277372D01*
X145766403Y-91277379D01*
X145816645Y-91412086D01*
X145816649Y-91412093D01*
X145902809Y-91527187D01*
X145902812Y-91527190D01*
X146017906Y-91613350D01*
X146017913Y-91613354D01*
X146149470Y-91662421D01*
X146205403Y-91704292D01*
X146229821Y-91769756D01*
X146214970Y-91838029D01*
X146193819Y-91866284D01*
X146071503Y-91988600D01*
X145935965Y-92182169D01*
X145935964Y-92182171D01*
X145836098Y-92396335D01*
X145836094Y-92396344D01*
X145774938Y-92624586D01*
X145774936Y-92624596D01*
X145754341Y-92859999D01*
X145754341Y-92860000D01*
X145774936Y-93095403D01*
X145774938Y-93095413D01*
X145809327Y-93223755D01*
X145807664Y-93293605D01*
X145777233Y-93343529D01*
X143198786Y-95921978D01*
X143086981Y-96033782D01*
X143086979Y-96033785D01*
X143054112Y-96090714D01*
X143054111Y-96090716D01*
X143007923Y-96170714D01*
X143007923Y-96170715D01*
X142966999Y-96323443D01*
X142966999Y-96323445D01*
X142966999Y-96491546D01*
X142967000Y-96491559D01*
X142967000Y-114252759D01*
X142947315Y-114319798D01*
X142894511Y-114365553D01*
X142886334Y-114368940D01*
X142734345Y-114425630D01*
X142734333Y-114425635D01*
X142483190Y-114562770D01*
X142483182Y-114562775D01*
X142254112Y-114734254D01*
X142254094Y-114734270D01*
X142051770Y-114936594D01*
X142051754Y-114936612D01*
X141880275Y-115165682D01*
X141880270Y-115165690D01*
X141743135Y-115416833D01*
X141643128Y-115684962D01*
X141582304Y-115964566D01*
X141561890Y-116249998D01*
X141561890Y-116250001D01*
X141582304Y-116535433D01*
X141643128Y-116815037D01*
X141743135Y-117083166D01*
X141880270Y-117334309D01*
X141880275Y-117334317D01*
X142051754Y-117563387D01*
X142051770Y-117563405D01*
X142254094Y-117765729D01*
X142254112Y-117765745D01*
X142483182Y-117937224D01*
X142483190Y-117937229D01*
X142734333Y-118074364D01*
X142734332Y-118074364D01*
X142734336Y-118074365D01*
X142734339Y-118074367D01*
X143002454Y-118174369D01*
X143002460Y-118174370D01*
X143002462Y-118174371D01*
X143282066Y-118235195D01*
X143282068Y-118235195D01*
X143282072Y-118235196D01*
X143535720Y-118253337D01*
X143567499Y-118255610D01*
X143567500Y-118255610D01*
X143567501Y-118255610D01*
X143596095Y-118253564D01*
X143852928Y-118235196D01*
X144043242Y-118193796D01*
X144132537Y-118174371D01*
X144132537Y-118174370D01*
X144132546Y-118174369D01*
X144400661Y-118074367D01*
X144651815Y-117937226D01*
X144880895Y-117765739D01*
X145083239Y-117563395D01*
X145254726Y-117334315D01*
X145391867Y-117083161D01*
X145491869Y-116815046D01*
X145491871Y-116815037D01*
X145552695Y-116535433D01*
X145552695Y-116535432D01*
X145552696Y-116535428D01*
X145573110Y-116250000D01*
X145552696Y-115964572D01*
X145491869Y-115684954D01*
X145391867Y-115416839D01*
X145341724Y-115325010D01*
X145254729Y-115165690D01*
X145254724Y-115165682D01*
X145083245Y-114936612D01*
X145083229Y-114936594D01*
X144880905Y-114734270D01*
X144880887Y-114734254D01*
X144651817Y-114562775D01*
X144651809Y-114562770D01*
X144400666Y-114425635D01*
X144400654Y-114425630D01*
X144248666Y-114368940D01*
X144192732Y-114327069D01*
X144168316Y-114261604D01*
X144168000Y-114252759D01*
X144168000Y-112999098D01*
X144187685Y-112932059D01*
X144240489Y-112886304D01*
X144309647Y-112876360D01*
X144373203Y-112905385D01*
X144379681Y-112911417D01*
X144398349Y-112930085D01*
X144398355Y-112930090D01*
X146727637Y-115259372D01*
X146761122Y-115320695D01*
X146756138Y-115390387D01*
X146748791Y-115406475D01*
X146743135Y-115416833D01*
X146643128Y-115684962D01*
X146582304Y-115964566D01*
X146561890Y-116249998D01*
X146561890Y-116250001D01*
X146582304Y-116535433D01*
X146643128Y-116815037D01*
X146743135Y-117083166D01*
X146880270Y-117334309D01*
X146880275Y-117334317D01*
X147051754Y-117563387D01*
X147051770Y-117563405D01*
X147254094Y-117765729D01*
X147254112Y-117765745D01*
X147483182Y-117937224D01*
X147483190Y-117937229D01*
X147734333Y-118074364D01*
X147734332Y-118074364D01*
X147734336Y-118074365D01*
X147734339Y-118074367D01*
X148002454Y-118174369D01*
X148002460Y-118174370D01*
X148002462Y-118174371D01*
X148282066Y-118235195D01*
X148282068Y-118235195D01*
X148282072Y-118235196D01*
X148535720Y-118253337D01*
X148567499Y-118255610D01*
X148567500Y-118255610D01*
X148567501Y-118255610D01*
X148596095Y-118253564D01*
X148852928Y-118235196D01*
X149043242Y-118193796D01*
X149132537Y-118174371D01*
X149132537Y-118174370D01*
X149132546Y-118174369D01*
X149400661Y-118074367D01*
X149651815Y-117937226D01*
X149880895Y-117765739D01*
X150083239Y-117563395D01*
X150254726Y-117334315D01*
X150391867Y-117083161D01*
X150491869Y-116815046D01*
X150491871Y-116815037D01*
X150552695Y-116535433D01*
X150552695Y-116535432D01*
X150552696Y-116535428D01*
X150573110Y-116250000D01*
X150552696Y-115964572D01*
X150491869Y-115684954D01*
X150391867Y-115416839D01*
X150341725Y-115325011D01*
X150290349Y-115230922D01*
X150275497Y-115162649D01*
X150299914Y-115097185D01*
X150355847Y-115055313D01*
X150425539Y-115050329D01*
X150486860Y-115083813D01*
X151088001Y-115684954D01*
X151527931Y-116124884D01*
X151561416Y-116186207D01*
X151563934Y-116221408D01*
X151561890Y-116249995D01*
X151561890Y-116250001D01*
X151582304Y-116535433D01*
X151643128Y-116815037D01*
X151743135Y-117083166D01*
X151880270Y-117334309D01*
X151880275Y-117334317D01*
X152051754Y-117563387D01*
X152051770Y-117563405D01*
X152254094Y-117765729D01*
X152254112Y-117765745D01*
X152483182Y-117937224D01*
X152483190Y-117937229D01*
X152734333Y-118074364D01*
X152734332Y-118074364D01*
X152734336Y-118074365D01*
X152734339Y-118074367D01*
X153002454Y-118174369D01*
X153002460Y-118174370D01*
X153002462Y-118174371D01*
X153282066Y-118235195D01*
X153282068Y-118235195D01*
X153282072Y-118235196D01*
X153535720Y-118253337D01*
X153567499Y-118255610D01*
X153567500Y-118255610D01*
X153567501Y-118255610D01*
X153596095Y-118253564D01*
X153852928Y-118235196D01*
X154043242Y-118193796D01*
X154132537Y-118174371D01*
X154132537Y-118174370D01*
X154132546Y-118174369D01*
X154400661Y-118074367D01*
X154651815Y-117937226D01*
X154880895Y-117765739D01*
X155083239Y-117563395D01*
X155254726Y-117334315D01*
X155391867Y-117083161D01*
X155491869Y-116815046D01*
X155491871Y-116815037D01*
X155552695Y-116535433D01*
X155552695Y-116535432D01*
X155552696Y-116535428D01*
X155573110Y-116250000D01*
X155552696Y-115964572D01*
X155491869Y-115684954D01*
X155391867Y-115416839D01*
X155341724Y-115325010D01*
X155254729Y-115165690D01*
X155254724Y-115165682D01*
X155083245Y-114936612D01*
X155083229Y-114936594D01*
X154880905Y-114734270D01*
X154880887Y-114734254D01*
X154651817Y-114562775D01*
X154651809Y-114562770D01*
X154400666Y-114425635D01*
X154400667Y-114425635D01*
X154293415Y-114385632D01*
X154132546Y-114325631D01*
X154132543Y-114325630D01*
X154132537Y-114325628D01*
X153852933Y-114264804D01*
X153567501Y-114244390D01*
X153567499Y-114244390D01*
X153282066Y-114264804D01*
X153002462Y-114325628D01*
X152734333Y-114425635D01*
X152483190Y-114562770D01*
X152483182Y-114562775D01*
X152254112Y-114734254D01*
X152254101Y-114734264D01*
X152132622Y-114855743D01*
X152071299Y-114889227D01*
X152001607Y-114884243D01*
X151957260Y-114855742D01*
X150213699Y-113112181D01*
X150180214Y-113050858D01*
X150185198Y-112981166D01*
X150227070Y-112925233D01*
X150292534Y-112900816D01*
X150301380Y-112900500D01*
X154317403Y-112900500D01*
X154384442Y-112920185D01*
X154405084Y-112936819D01*
X156727637Y-115259372D01*
X156761122Y-115320695D01*
X156756138Y-115390387D01*
X156748791Y-115406475D01*
X156743135Y-115416833D01*
X156643128Y-115684962D01*
X156582304Y-115964566D01*
X156561890Y-116249998D01*
X156561890Y-116250001D01*
X156582304Y-116535433D01*
X156643128Y-116815037D01*
X156743135Y-117083166D01*
X156880270Y-117334309D01*
X156880275Y-117334317D01*
X157051754Y-117563387D01*
X157051770Y-117563405D01*
X157254094Y-117765729D01*
X157254112Y-117765745D01*
X157483182Y-117937224D01*
X157483190Y-117937229D01*
X157734333Y-118074364D01*
X157734332Y-118074364D01*
X157734336Y-118074365D01*
X157734339Y-118074367D01*
X158002454Y-118174369D01*
X158002460Y-118174370D01*
X158002462Y-118174371D01*
X158282066Y-118235195D01*
X158282068Y-118235195D01*
X158282072Y-118235196D01*
X158535720Y-118253337D01*
X158567499Y-118255610D01*
X158567500Y-118255610D01*
X158567501Y-118255610D01*
X158596095Y-118253564D01*
X158852928Y-118235196D01*
X159043242Y-118193796D01*
X159132537Y-118174371D01*
X159132537Y-118174370D01*
X159132546Y-118174369D01*
X159400661Y-118074367D01*
X159651815Y-117937226D01*
X159880895Y-117765739D01*
X160083239Y-117563395D01*
X160254726Y-117334315D01*
X160391867Y-117083161D01*
X160491869Y-116815046D01*
X160491871Y-116815037D01*
X160552695Y-116535433D01*
X160552695Y-116535432D01*
X160552696Y-116535428D01*
X160573110Y-116250000D01*
X160552696Y-115964572D01*
X160491869Y-115684954D01*
X160391867Y-115416839D01*
X160341724Y-115325010D01*
X160254729Y-115165690D01*
X160254724Y-115165682D01*
X160083245Y-114936612D01*
X160083229Y-114936594D01*
X159880905Y-114734270D01*
X159880887Y-114734254D01*
X159651817Y-114562775D01*
X159651809Y-114562770D01*
X159400666Y-114425635D01*
X159400667Y-114425635D01*
X159293415Y-114385632D01*
X159132546Y-114325631D01*
X159132543Y-114325630D01*
X159132537Y-114325628D01*
X158852933Y-114264804D01*
X158567501Y-114244390D01*
X158567499Y-114244390D01*
X158282066Y-114264804D01*
X158002462Y-114325628D01*
X157734333Y-114425635D01*
X157723975Y-114431291D01*
X157655701Y-114446140D01*
X157590238Y-114421719D01*
X157576872Y-114410137D01*
X155878916Y-112712181D01*
X155845431Y-112650858D01*
X155850415Y-112581166D01*
X155892287Y-112525233D01*
X155957751Y-112500816D01*
X155966597Y-112500500D01*
X158917403Y-112500500D01*
X158984442Y-112520185D01*
X159005084Y-112536819D01*
X161727637Y-115259372D01*
X161761122Y-115320695D01*
X161756138Y-115390387D01*
X161748791Y-115406475D01*
X161743135Y-115416833D01*
X161643128Y-115684962D01*
X161582304Y-115964566D01*
X161561890Y-116249998D01*
X161561890Y-116250001D01*
X161582304Y-116535433D01*
X161643128Y-116815037D01*
X161743135Y-117083166D01*
X161880270Y-117334309D01*
X161880275Y-117334317D01*
X162051754Y-117563387D01*
X162051770Y-117563405D01*
X162254094Y-117765729D01*
X162254112Y-117765745D01*
X162483182Y-117937224D01*
X162483190Y-117937229D01*
X162734333Y-118074364D01*
X162734332Y-118074364D01*
X162734336Y-118074365D01*
X162734339Y-118074367D01*
X163002454Y-118174369D01*
X163002460Y-118174370D01*
X163002462Y-118174371D01*
X163282066Y-118235195D01*
X163282068Y-118235195D01*
X163282072Y-118235196D01*
X163535720Y-118253337D01*
X163567499Y-118255610D01*
X163567500Y-118255610D01*
X163567501Y-118255610D01*
X163596095Y-118253564D01*
X163852928Y-118235196D01*
X164043242Y-118193796D01*
X164132537Y-118174371D01*
X164132537Y-118174370D01*
X164132546Y-118174369D01*
X164400661Y-118074367D01*
X164651815Y-117937226D01*
X164880895Y-117765739D01*
X165083239Y-117563395D01*
X165254726Y-117334315D01*
X165391867Y-117083161D01*
X165491869Y-116815046D01*
X165491871Y-116815037D01*
X165552695Y-116535433D01*
X165552695Y-116535432D01*
X165552696Y-116535428D01*
X165573110Y-116250000D01*
X165552696Y-115964572D01*
X165491869Y-115684954D01*
X165391867Y-115416839D01*
X165341724Y-115325010D01*
X165254729Y-115165690D01*
X165254724Y-115165682D01*
X165083245Y-114936612D01*
X165083229Y-114936594D01*
X164880905Y-114734270D01*
X164880887Y-114734254D01*
X164651817Y-114562775D01*
X164651809Y-114562770D01*
X164400666Y-114425635D01*
X164400667Y-114425635D01*
X164293415Y-114385632D01*
X164132546Y-114325631D01*
X164132543Y-114325630D01*
X164132537Y-114325628D01*
X163852933Y-114264804D01*
X163567501Y-114244390D01*
X163567499Y-114244390D01*
X163282066Y-114264804D01*
X163002462Y-114325628D01*
X162734333Y-114425635D01*
X162723975Y-114431291D01*
X162655701Y-114446140D01*
X162590238Y-114421719D01*
X162576872Y-114410137D01*
X160478916Y-112312181D01*
X160445431Y-112250858D01*
X160450415Y-112181166D01*
X160492287Y-112125233D01*
X160557751Y-112100816D01*
X160566597Y-112100500D01*
X163517403Y-112100500D01*
X163584442Y-112120185D01*
X163605084Y-112136819D01*
X166727637Y-115259372D01*
X166761122Y-115320695D01*
X166756138Y-115390387D01*
X166748791Y-115406475D01*
X166743135Y-115416833D01*
X166643128Y-115684962D01*
X166582304Y-115964566D01*
X166561890Y-116249998D01*
X166561890Y-116250001D01*
X166582304Y-116535433D01*
X166643128Y-116815037D01*
X166743135Y-117083166D01*
X166880270Y-117334309D01*
X166880275Y-117334317D01*
X167051754Y-117563387D01*
X167051770Y-117563405D01*
X167254094Y-117765729D01*
X167254112Y-117765745D01*
X167483182Y-117937224D01*
X167483190Y-117937229D01*
X167734333Y-118074364D01*
X167734332Y-118074364D01*
X167734336Y-118074365D01*
X167734339Y-118074367D01*
X168002454Y-118174369D01*
X168002460Y-118174370D01*
X168002462Y-118174371D01*
X168282066Y-118235195D01*
X168282068Y-118235195D01*
X168282072Y-118235196D01*
X168535720Y-118253337D01*
X168567499Y-118255610D01*
X168567500Y-118255610D01*
X168567501Y-118255610D01*
X168596095Y-118253564D01*
X168852928Y-118235196D01*
X169043242Y-118193796D01*
X169132537Y-118174371D01*
X169132537Y-118174370D01*
X169132546Y-118174369D01*
X169400661Y-118074367D01*
X169651815Y-117937226D01*
X169880895Y-117765739D01*
X170083239Y-117563395D01*
X170254726Y-117334315D01*
X170391867Y-117083161D01*
X170491869Y-116815046D01*
X170491871Y-116815037D01*
X170552695Y-116535433D01*
X170552695Y-116535432D01*
X170552696Y-116535428D01*
X170573110Y-116250000D01*
X170552696Y-115964572D01*
X170491869Y-115684954D01*
X170391867Y-115416839D01*
X170341724Y-115325010D01*
X170254729Y-115165690D01*
X170254724Y-115165682D01*
X170083245Y-114936612D01*
X170083229Y-114936594D01*
X169880905Y-114734270D01*
X169880887Y-114734254D01*
X169651817Y-114562775D01*
X169651809Y-114562770D01*
X169400666Y-114425635D01*
X169400667Y-114425635D01*
X169293415Y-114385632D01*
X169132546Y-114325631D01*
X169132543Y-114325630D01*
X169132537Y-114325628D01*
X168852933Y-114264804D01*
X168567501Y-114244390D01*
X168567499Y-114244390D01*
X168282066Y-114264804D01*
X168002462Y-114325628D01*
X167734333Y-114425635D01*
X167723975Y-114431291D01*
X167655701Y-114446140D01*
X167590238Y-114421719D01*
X167576872Y-114410137D01*
X164305090Y-111138355D01*
X164305088Y-111138352D01*
X164186217Y-111019481D01*
X164186216Y-111019480D01*
X164099404Y-110969360D01*
X164099404Y-110969359D01*
X164099400Y-110969358D01*
X164049285Y-110940423D01*
X163896557Y-110899499D01*
X163738443Y-110899499D01*
X163730847Y-110899499D01*
X163730831Y-110899500D01*
X150810097Y-110899500D01*
X150743058Y-110879815D01*
X150722416Y-110863181D01*
X148442766Y-108583531D01*
X148409281Y-108522208D01*
X148410672Y-108463757D01*
X148411863Y-108459309D01*
X148445063Y-108335408D01*
X148465659Y-108100000D01*
X148445536Y-107870000D01*
X152104341Y-107870000D01*
X152124936Y-108105403D01*
X152124938Y-108105413D01*
X152186094Y-108333655D01*
X152186096Y-108333659D01*
X152186097Y-108333663D01*
X152246761Y-108463757D01*
X152285965Y-108547830D01*
X152285967Y-108547834D01*
X152310963Y-108583531D01*
X152421505Y-108741401D01*
X152588599Y-108908495D01*
X152665135Y-108962086D01*
X152782165Y-109044032D01*
X152782167Y-109044033D01*
X152782170Y-109044035D01*
X152996337Y-109143903D01*
X153224592Y-109205063D01*
X153395319Y-109220000D01*
X153459999Y-109225659D01*
X153460000Y-109225659D01*
X153460001Y-109225659D01*
X153524681Y-109220000D01*
X153695408Y-109205063D01*
X153923663Y-109143903D01*
X154137830Y-109044035D01*
X154331401Y-108908495D01*
X154453717Y-108786178D01*
X154515036Y-108752696D01*
X154584728Y-108757680D01*
X154640662Y-108799551D01*
X154657577Y-108830528D01*
X154706646Y-108962088D01*
X154706649Y-108962093D01*
X154792809Y-109077187D01*
X154792812Y-109077190D01*
X154907906Y-109163350D01*
X154907913Y-109163354D01*
X155042620Y-109213596D01*
X155042627Y-109213598D01*
X155102155Y-109219999D01*
X155102172Y-109220000D01*
X155750000Y-109220000D01*
X155750000Y-108314560D01*
X155803147Y-108345245D01*
X155932857Y-108380000D01*
X156067143Y-108380000D01*
X156196853Y-108345245D01*
X156250000Y-108314560D01*
X156250000Y-109220000D01*
X156897828Y-109220000D01*
X156897844Y-109219999D01*
X156957372Y-109213598D01*
X156957379Y-109213596D01*
X157092086Y-109163354D01*
X157092093Y-109163350D01*
X157207187Y-109077190D01*
X157207190Y-109077187D01*
X157293350Y-108962093D01*
X157293354Y-108962086D01*
X157342422Y-108830529D01*
X157384293Y-108774595D01*
X157449757Y-108750178D01*
X157518030Y-108765030D01*
X157546285Y-108786181D01*
X157668599Y-108908495D01*
X157745135Y-108962086D01*
X157862165Y-109044032D01*
X157862167Y-109044033D01*
X157862170Y-109044035D01*
X158076337Y-109143903D01*
X158304592Y-109205063D01*
X158475319Y-109220000D01*
X158539999Y-109225659D01*
X158540000Y-109225659D01*
X158540001Y-109225659D01*
X158604681Y-109220000D01*
X158775408Y-109205063D01*
X159003663Y-109143903D01*
X159217830Y-109044035D01*
X159411401Y-108908495D01*
X159578495Y-108741401D01*
X159714035Y-108547830D01*
X159813903Y-108333663D01*
X159875063Y-108105408D01*
X159895659Y-107870000D01*
X159875063Y-107634592D01*
X159813903Y-107406337D01*
X159714035Y-107192171D01*
X159622540Y-107061501D01*
X159578494Y-106998597D01*
X159411402Y-106831506D01*
X159411395Y-106831501D01*
X159409251Y-106830000D01*
X159334854Y-106777906D01*
X159217834Y-106695967D01*
X159217830Y-106695965D01*
X159146727Y-106662809D01*
X159003663Y-106596097D01*
X159003659Y-106596096D01*
X159003655Y-106596094D01*
X158775413Y-106534938D01*
X158775403Y-106534936D01*
X158540001Y-106514341D01*
X158539999Y-106514341D01*
X158304596Y-106534936D01*
X158304586Y-106534938D01*
X158076344Y-106596094D01*
X158076335Y-106596098D01*
X157862171Y-106695964D01*
X157862169Y-106695965D01*
X157668600Y-106831503D01*
X157546284Y-106953819D01*
X157484961Y-106987303D01*
X157415269Y-106982319D01*
X157359336Y-106940447D01*
X157342421Y-106909470D01*
X157293354Y-106777913D01*
X157293350Y-106777906D01*
X157207190Y-106662812D01*
X157207187Y-106662809D01*
X157092093Y-106576649D01*
X157092086Y-106576645D01*
X156957379Y-106526403D01*
X156957372Y-106526401D01*
X156897844Y-106520000D01*
X156250000Y-106520000D01*
X156250000Y-107425439D01*
X156196853Y-107394755D01*
X156067143Y-107360000D01*
X155932857Y-107360000D01*
X155803147Y-107394755D01*
X155750000Y-107425439D01*
X155750000Y-106520000D01*
X155102155Y-106520000D01*
X155042627Y-106526401D01*
X155042620Y-106526403D01*
X154907913Y-106576645D01*
X154907906Y-106576649D01*
X154792812Y-106662809D01*
X154792809Y-106662812D01*
X154706649Y-106777906D01*
X154706645Y-106777913D01*
X154657578Y-106909470D01*
X154615707Y-106965404D01*
X154550242Y-106989821D01*
X154481969Y-106974969D01*
X154453715Y-106953819D01*
X154409366Y-106909470D01*
X154331401Y-106831505D01*
X154331397Y-106831502D01*
X154331396Y-106831501D01*
X154137834Y-106695967D01*
X154137830Y-106695965D01*
X154066727Y-106662809D01*
X153923663Y-106596097D01*
X153923659Y-106596096D01*
X153923655Y-106596094D01*
X153695413Y-106534938D01*
X153695403Y-106534936D01*
X153460001Y-106514341D01*
X153459999Y-106514341D01*
X153224596Y-106534936D01*
X153224586Y-106534938D01*
X152996344Y-106596094D01*
X152996335Y-106596098D01*
X152782171Y-106695964D01*
X152782169Y-106695965D01*
X152588597Y-106831505D01*
X152421505Y-106998597D01*
X152285965Y-107192169D01*
X152285964Y-107192171D01*
X152186098Y-107406335D01*
X152186094Y-107406344D01*
X152124938Y-107634586D01*
X152124936Y-107634596D01*
X152104341Y-107869999D01*
X152104341Y-107870000D01*
X148445536Y-107870000D01*
X148445063Y-107864592D01*
X148383903Y-107636337D01*
X148284035Y-107422171D01*
X148264839Y-107394755D01*
X148148494Y-107228597D01*
X147981402Y-107061506D01*
X147981396Y-107061501D01*
X147795842Y-106931575D01*
X147752217Y-106876998D01*
X147745023Y-106807500D01*
X147776546Y-106745145D01*
X147795842Y-106728425D01*
X147842197Y-106695967D01*
X147981401Y-106598495D01*
X148148495Y-106431401D01*
X148284035Y-106237830D01*
X148383903Y-106023663D01*
X148445063Y-105795408D01*
X148465659Y-105560000D01*
X148445063Y-105324592D01*
X148383903Y-105096337D01*
X148284035Y-104882171D01*
X148284034Y-104882169D01*
X148148496Y-104688600D01*
X148100225Y-104640329D01*
X148026179Y-104566283D01*
X147992696Y-104504963D01*
X147997680Y-104435271D01*
X148039551Y-104379337D01*
X148070529Y-104362422D01*
X148202086Y-104313354D01*
X148202093Y-104313350D01*
X148317187Y-104227190D01*
X148317190Y-104227187D01*
X148403350Y-104112093D01*
X148403354Y-104112086D01*
X148453596Y-103977379D01*
X148453598Y-103977372D01*
X148459999Y-103917844D01*
X148460000Y-103917827D01*
X148460000Y-103270000D01*
X147554560Y-103270000D01*
X147585245Y-103216853D01*
X147620000Y-103087143D01*
X147620000Y-102952857D01*
X147585245Y-102823147D01*
X147554560Y-102770000D01*
X148460000Y-102770000D01*
X148460000Y-102122172D01*
X148459999Y-102122155D01*
X148453598Y-102062627D01*
X148453596Y-102062620D01*
X148403354Y-101927913D01*
X148403350Y-101927906D01*
X148317190Y-101812812D01*
X148317187Y-101812809D01*
X148202093Y-101726649D01*
X148202088Y-101726646D01*
X148070528Y-101677577D01*
X148014595Y-101635705D01*
X147990178Y-101570241D01*
X148005030Y-101501968D01*
X148026175Y-101473720D01*
X148148495Y-101351401D01*
X148284035Y-101157830D01*
X148383903Y-100943663D01*
X148445063Y-100715408D01*
X148465659Y-100480000D01*
X148445063Y-100244592D01*
X148383903Y-100016337D01*
X148284035Y-99802171D01*
X148284034Y-99802169D01*
X148148494Y-99608597D01*
X147981402Y-99441506D01*
X147981396Y-99441501D01*
X147795842Y-99311575D01*
X147752217Y-99256998D01*
X147745023Y-99187500D01*
X147776546Y-99125145D01*
X147795842Y-99108425D01*
X147818026Y-99092891D01*
X147981401Y-98978495D01*
X148148495Y-98811401D01*
X148284035Y-98617830D01*
X148383903Y-98403663D01*
X148445063Y-98175408D01*
X148465659Y-97940000D01*
X148445063Y-97704592D01*
X148383903Y-97476337D01*
X148284035Y-97262171D01*
X148284034Y-97262169D01*
X148148494Y-97068597D01*
X147981402Y-96901506D01*
X147981396Y-96901501D01*
X147795842Y-96771575D01*
X147752217Y-96716998D01*
X147745023Y-96647500D01*
X147776546Y-96585145D01*
X147795842Y-96568425D01*
X147843699Y-96534915D01*
X147981401Y-96438495D01*
X148148495Y-96271401D01*
X148284035Y-96077830D01*
X148383903Y-95863663D01*
X148445063Y-95635408D01*
X148465659Y-95400000D01*
X148445063Y-95164592D01*
X148383903Y-94936337D01*
X148284035Y-94722171D01*
X148284034Y-94722169D01*
X148148494Y-94528597D01*
X147981402Y-94361506D01*
X147981396Y-94361501D01*
X147795842Y-94231575D01*
X147752217Y-94176998D01*
X147745023Y-94107500D01*
X147776546Y-94045145D01*
X147795842Y-94028425D01*
X147918842Y-93942299D01*
X147981401Y-93898495D01*
X148148495Y-93731401D01*
X148284035Y-93537830D01*
X148383903Y-93323663D01*
X148445063Y-93095408D01*
X148465659Y-92860000D01*
X148465177Y-92854496D01*
X148452300Y-92707308D01*
X148445063Y-92624592D01*
X148383903Y-92396337D01*
X148284035Y-92182171D01*
X148284034Y-92182169D01*
X148148496Y-91988600D01*
X148093982Y-91934086D01*
X148026179Y-91866283D01*
X147992696Y-91804963D01*
X147997680Y-91735271D01*
X148039551Y-91679337D01*
X148070529Y-91662422D01*
X148202086Y-91613354D01*
X148202093Y-91613350D01*
X148317187Y-91527190D01*
X148317190Y-91527187D01*
X148403350Y-91412093D01*
X148403354Y-91412086D01*
X148453596Y-91277379D01*
X148453598Y-91277372D01*
X148459999Y-91217844D01*
X148460000Y-91217827D01*
X148460000Y-90570000D01*
X147554560Y-90570000D01*
X147585245Y-90516853D01*
X147620000Y-90387143D01*
X147620000Y-90252857D01*
X147585245Y-90123147D01*
X147554560Y-90070000D01*
X148460000Y-90070000D01*
X148460000Y-89422172D01*
X148459999Y-89422155D01*
X148453598Y-89362627D01*
X148453596Y-89362620D01*
X148403354Y-89227913D01*
X148403350Y-89227906D01*
X148317190Y-89112812D01*
X148317187Y-89112809D01*
X148202093Y-89026649D01*
X148202088Y-89026646D01*
X148070528Y-88977577D01*
X148014595Y-88935705D01*
X147990178Y-88870241D01*
X148005030Y-88801968D01*
X148026175Y-88773720D01*
X148148495Y-88651401D01*
X148284035Y-88457830D01*
X148383903Y-88243663D01*
X148445063Y-88015408D01*
X148465659Y-87780000D01*
X148445063Y-87544592D01*
X148383903Y-87316337D01*
X148284035Y-87102171D01*
X148284034Y-87102169D01*
X148148494Y-86908597D01*
X147981402Y-86741506D01*
X147981396Y-86741501D01*
X147795842Y-86611575D01*
X147752217Y-86556998D01*
X147745023Y-86487500D01*
X147776546Y-86425145D01*
X147795842Y-86408425D01*
X147818026Y-86392891D01*
X147981401Y-86278495D01*
X148148495Y-86111401D01*
X148284035Y-85917830D01*
X148383903Y-85703663D01*
X148445063Y-85475408D01*
X148465659Y-85240000D01*
X148445063Y-85004592D01*
X148383903Y-84776337D01*
X148284035Y-84562171D01*
X148229071Y-84483673D01*
X148148494Y-84368597D01*
X147981402Y-84201506D01*
X147981396Y-84201501D01*
X147795842Y-84071575D01*
X147752217Y-84016998D01*
X147745023Y-83947500D01*
X147776546Y-83885145D01*
X147795842Y-83868425D01*
X147818026Y-83852891D01*
X147981401Y-83738495D01*
X148148495Y-83571401D01*
X148284035Y-83377830D01*
X148383903Y-83163663D01*
X148445063Y-82935408D01*
X148465659Y-82700000D01*
X148445063Y-82464592D01*
X148383903Y-82236337D01*
X148284035Y-82022171D01*
X148284034Y-82022169D01*
X148148494Y-81828597D01*
X147981402Y-81661506D01*
X147981396Y-81661501D01*
X147795842Y-81531575D01*
X147752217Y-81476998D01*
X147745023Y-81407500D01*
X147776546Y-81345145D01*
X147795842Y-81328425D01*
X147818026Y-81312891D01*
X147981401Y-81198495D01*
X148148495Y-81031401D01*
X148284035Y-80837830D01*
X148383903Y-80623663D01*
X148445063Y-80395408D01*
X148465659Y-80160000D01*
X148445063Y-79924592D01*
X148395673Y-79740262D01*
X148383905Y-79696344D01*
X148383904Y-79696343D01*
X148383903Y-79696337D01*
X148284035Y-79482171D01*
X148252849Y-79437633D01*
X148148496Y-79288600D01*
X148115903Y-79256007D01*
X148026179Y-79166283D01*
X147992696Y-79104963D01*
X147997680Y-79035271D01*
X148039551Y-78979337D01*
X148070529Y-78962422D01*
X148202086Y-78913354D01*
X148202093Y-78913350D01*
X148317187Y-78827190D01*
X148317190Y-78827187D01*
X148403350Y-78712093D01*
X148403354Y-78712086D01*
X148453596Y-78577379D01*
X148453598Y-78577372D01*
X148459999Y-78517844D01*
X148460000Y-78517827D01*
X148460000Y-77870000D01*
X147554560Y-77870000D01*
X147585245Y-77816853D01*
X147620000Y-77687143D01*
X147620000Y-77552857D01*
X147585245Y-77423147D01*
X147554560Y-77370000D01*
X148460000Y-77370000D01*
X148460000Y-76722172D01*
X148459999Y-76722155D01*
X148453598Y-76662627D01*
X148453596Y-76662620D01*
X148403354Y-76527913D01*
X148403350Y-76527906D01*
X148317190Y-76412812D01*
X148317187Y-76412809D01*
X148202093Y-76326649D01*
X148202088Y-76326646D01*
X148070528Y-76277577D01*
X148014595Y-76235705D01*
X147990178Y-76170241D01*
X148005030Y-76101968D01*
X148026175Y-76073720D01*
X148148495Y-75951401D01*
X148284035Y-75757830D01*
X148383903Y-75543663D01*
X148445063Y-75315408D01*
X148465659Y-75080000D01*
X148445063Y-74844592D01*
X148383903Y-74616337D01*
X148284035Y-74402171D01*
X148284034Y-74402169D01*
X148148494Y-74208597D01*
X147981402Y-74041506D01*
X147981396Y-74041501D01*
X147795842Y-73911575D01*
X147752217Y-73856998D01*
X147745023Y-73787500D01*
X147776546Y-73725145D01*
X147795842Y-73708425D01*
X147879054Y-73650159D01*
X147981401Y-73578495D01*
X148148495Y-73411401D01*
X148284035Y-73217830D01*
X148383903Y-73003663D01*
X148445063Y-72775408D01*
X148465659Y-72540000D01*
X148445063Y-72304592D01*
X148383903Y-72076337D01*
X148284035Y-71862171D01*
X148198675Y-71740263D01*
X148148494Y-71668597D01*
X147981402Y-71501506D01*
X147981396Y-71501501D01*
X147795842Y-71371575D01*
X147752217Y-71316998D01*
X147745023Y-71247500D01*
X147776546Y-71185145D01*
X147795842Y-71168425D01*
X147818026Y-71152891D01*
X147981401Y-71038495D01*
X148148495Y-70871401D01*
X148284035Y-70677830D01*
X148383903Y-70463663D01*
X148445063Y-70235408D01*
X148465659Y-70000000D01*
X148445063Y-69764592D01*
X148383903Y-69536337D01*
X148284035Y-69322171D01*
X148236737Y-69254621D01*
X148148494Y-69128597D01*
X147981402Y-68961506D01*
X147981396Y-68961501D01*
X147795842Y-68831575D01*
X147752217Y-68776998D01*
X147745023Y-68707500D01*
X147776546Y-68645145D01*
X147795842Y-68628425D01*
X147818026Y-68612891D01*
X147981401Y-68498495D01*
X148148495Y-68331401D01*
X148284035Y-68137830D01*
X148383903Y-67923663D01*
X148445063Y-67695408D01*
X148465659Y-67460000D01*
X148445063Y-67224592D01*
X148383903Y-66996337D01*
X148284035Y-66782171D01*
X148148495Y-66588599D01*
X148026179Y-66466283D01*
X147992696Y-66404963D01*
X147997680Y-66335271D01*
X148039551Y-66279337D01*
X148070529Y-66262422D01*
X148202086Y-66213354D01*
X148202093Y-66213350D01*
X148317187Y-66127190D01*
X148317190Y-66127187D01*
X148403350Y-66012093D01*
X148403354Y-66012086D01*
X148453596Y-65877379D01*
X148453598Y-65877372D01*
X148459999Y-65817844D01*
X148460000Y-65817827D01*
X148460000Y-65170000D01*
X147554560Y-65170000D01*
X147585245Y-65116853D01*
X147620000Y-64987143D01*
X147620000Y-64852857D01*
X147585245Y-64723147D01*
X147554560Y-64670000D01*
X148460000Y-64670000D01*
X148460000Y-64022172D01*
X148459999Y-64022155D01*
X148453598Y-63962627D01*
X148453596Y-63962620D01*
X148403354Y-63827913D01*
X148403350Y-63827906D01*
X148317190Y-63712812D01*
X148317187Y-63712809D01*
X148202093Y-63626649D01*
X148202088Y-63626646D01*
X148070528Y-63577577D01*
X148014595Y-63535705D01*
X147990178Y-63470241D01*
X148005030Y-63401968D01*
X148026175Y-63373720D01*
X148148495Y-63251401D01*
X148284035Y-63057830D01*
X148311002Y-63000000D01*
X152319723Y-63000000D01*
X152336806Y-63195270D01*
X152338793Y-63217975D01*
X152338793Y-63217979D01*
X152395422Y-63429322D01*
X152395424Y-63429326D01*
X152395425Y-63429330D01*
X152430584Y-63504729D01*
X152487897Y-63627638D01*
X152487898Y-63627639D01*
X152613402Y-63806877D01*
X152768123Y-63961598D01*
X152947361Y-64087102D01*
X153145670Y-64179575D01*
X153357023Y-64236207D01*
X153539926Y-64252208D01*
X153574998Y-64255277D01*
X153575000Y-64255277D01*
X153575002Y-64255277D01*
X153603254Y-64252805D01*
X153792977Y-64236207D01*
X154004330Y-64179575D01*
X154202639Y-64087102D01*
X154381877Y-63961598D01*
X154536598Y-63806877D01*
X154662102Y-63627639D01*
X154754575Y-63429330D01*
X154811207Y-63217977D01*
X154830277Y-63000000D01*
X157169723Y-63000000D01*
X157186806Y-63195270D01*
X157188793Y-63217975D01*
X157188793Y-63217979D01*
X157245422Y-63429322D01*
X157245424Y-63429326D01*
X157245425Y-63429330D01*
X157280584Y-63504729D01*
X157337897Y-63627638D01*
X157337898Y-63627639D01*
X157463402Y-63806877D01*
X157618123Y-63961598D01*
X157797361Y-64087102D01*
X157995670Y-64179575D01*
X158207023Y-64236207D01*
X158389926Y-64252208D01*
X158424998Y-64255277D01*
X158425000Y-64255277D01*
X158425002Y-64255277D01*
X158453254Y-64252805D01*
X158642977Y-64236207D01*
X158854330Y-64179575D01*
X159052639Y-64087102D01*
X159231877Y-63961598D01*
X159386598Y-63806877D01*
X159512102Y-63627639D01*
X159604575Y-63429330D01*
X159661207Y-63217977D01*
X159680277Y-63000000D01*
X159661207Y-62782023D01*
X159604575Y-62570670D01*
X159512102Y-62372362D01*
X159512100Y-62372359D01*
X159512099Y-62372357D01*
X159386599Y-62193124D01*
X159311528Y-62118053D01*
X159231877Y-62038402D01*
X159093978Y-61941844D01*
X159052638Y-61912897D01*
X158953484Y-61866661D01*
X158854330Y-61820425D01*
X158854326Y-61820424D01*
X158854322Y-61820422D01*
X158642977Y-61763793D01*
X158425002Y-61744723D01*
X158424998Y-61744723D01*
X158279682Y-61757436D01*
X158207023Y-61763793D01*
X158207020Y-61763793D01*
X157995677Y-61820422D01*
X157995668Y-61820426D01*
X157797361Y-61912898D01*
X157797357Y-61912900D01*
X157618121Y-62038402D01*
X157463402Y-62193121D01*
X157337900Y-62372357D01*
X157337898Y-62372361D01*
X157245426Y-62570668D01*
X157245422Y-62570677D01*
X157188793Y-62782020D01*
X157188793Y-62782024D01*
X157173911Y-62952135D01*
X157169723Y-63000000D01*
X154830277Y-63000000D01*
X154811207Y-62782023D01*
X154754575Y-62570670D01*
X154662102Y-62372362D01*
X154662100Y-62372359D01*
X154662099Y-62372357D01*
X154536599Y-62193124D01*
X154461528Y-62118053D01*
X154381877Y-62038402D01*
X154243978Y-61941844D01*
X154202638Y-61912897D01*
X154103484Y-61866661D01*
X154004330Y-61820425D01*
X154004326Y-61820424D01*
X154004322Y-61820422D01*
X153792977Y-61763793D01*
X153575002Y-61744723D01*
X153574998Y-61744723D01*
X153429682Y-61757436D01*
X153357023Y-61763793D01*
X153357020Y-61763793D01*
X153145677Y-61820422D01*
X153145668Y-61820426D01*
X152947361Y-61912898D01*
X152947357Y-61912900D01*
X152768121Y-62038402D01*
X152613402Y-62193121D01*
X152487900Y-62372357D01*
X152487898Y-62372361D01*
X152395426Y-62570668D01*
X152395422Y-62570677D01*
X152338793Y-62782020D01*
X152338793Y-62782024D01*
X152323911Y-62952135D01*
X152319723Y-63000000D01*
X148311002Y-63000000D01*
X148383903Y-62843663D01*
X148445063Y-62615408D01*
X148465659Y-62380000D01*
X148445063Y-62144592D01*
X148383903Y-61916337D01*
X148284035Y-61702171D01*
X148236054Y-61633646D01*
X148148494Y-61508597D01*
X147981402Y-61341506D01*
X147981396Y-61341501D01*
X147795842Y-61211575D01*
X147752217Y-61156998D01*
X147745023Y-61087500D01*
X147776546Y-61025145D01*
X147795842Y-61008425D01*
X147878567Y-60950500D01*
X147981401Y-60878495D01*
X148148495Y-60711401D01*
X148284035Y-60517830D01*
X148383903Y-60303663D01*
X148445063Y-60075408D01*
X148465659Y-59840000D01*
X148445063Y-59604592D01*
X148383903Y-59376337D01*
X148284035Y-59162171D01*
X148245301Y-59106852D01*
X148148494Y-58968597D01*
X147981402Y-58801506D01*
X147981396Y-58801501D01*
X147873676Y-58726075D01*
X147830051Y-58671498D01*
X147822857Y-58602000D01*
X147854380Y-58539645D01*
X147914610Y-58504231D01*
X147944799Y-58500500D01*
X152558180Y-58500500D01*
X152625219Y-58520185D01*
G37*
%TD.AperFunction*%
%TA.AperFunction,Conductor*%
G36*
X203396701Y-121043148D02*
G01*
X203585450Y-120810064D01*
X203785245Y-120502406D01*
X203951795Y-120175535D01*
X204009736Y-120024595D01*
X204052138Y-119969063D01*
X204117832Y-119945270D01*
X204185960Y-119960772D01*
X204234893Y-120010645D01*
X204249500Y-120069033D01*
X204249500Y-122125500D01*
X204229815Y-122192539D01*
X204177011Y-122238294D01*
X204125500Y-122249500D01*
X202069033Y-122249500D01*
X202001994Y-122229815D01*
X201956239Y-122177011D01*
X201946295Y-122107853D01*
X201975320Y-122044297D01*
X202024595Y-122009736D01*
X202175535Y-121951795D01*
X202502406Y-121785245D01*
X202810064Y-121585450D01*
X203043148Y-121396701D01*
X201619106Y-119972659D01*
X201727184Y-119894136D01*
X201894136Y-119727184D01*
X201972659Y-119619106D01*
X203396701Y-121043148D01*
G37*
%TD.AperFunction*%
%TA.AperFunction,Conductor*%
G36*
X189660276Y-88400185D02*
G01*
X189680918Y-88416819D01*
X201392233Y-100128134D01*
X201425718Y-100189457D01*
X201424327Y-100247907D01*
X201389939Y-100376249D01*
X201389936Y-100376262D01*
X201369341Y-100611665D01*
X201369341Y-100611666D01*
X201389936Y-100847069D01*
X201389938Y-100847079D01*
X201451094Y-101075321D01*
X201451096Y-101075325D01*
X201451097Y-101075329D01*
X201516303Y-101215163D01*
X201550965Y-101289496D01*
X201550967Y-101289500D01*
X201594311Y-101351401D01*
X201686505Y-101483067D01*
X201853599Y-101650161D01*
X201892753Y-101677577D01*
X202047165Y-101785698D01*
X202047167Y-101785699D01*
X202047170Y-101785701D01*
X202261337Y-101885569D01*
X202489592Y-101946729D01*
X202677918Y-101963205D01*
X202724999Y-101967325D01*
X202725000Y-101967325D01*
X202725001Y-101967325D01*
X202764234Y-101963892D01*
X202960408Y-101946729D01*
X203188663Y-101885569D01*
X203402830Y-101785701D01*
X203596401Y-101650161D01*
X203763495Y-101483067D01*
X203899035Y-101289496D01*
X203998903Y-101075329D01*
X204005725Y-101049870D01*
X204042089Y-100990209D01*
X204104936Y-100959679D01*
X204174311Y-100967973D01*
X204228190Y-101012458D01*
X204249465Y-101079010D01*
X204249500Y-101081962D01*
X204249500Y-103456010D01*
X204229815Y-103523049D01*
X204177011Y-103568804D01*
X204107853Y-103578748D01*
X204044297Y-103549723D01*
X204024996Y-103525772D01*
X204024112Y-103526435D01*
X203932547Y-103404121D01*
X203932544Y-103404118D01*
X203817335Y-103317872D01*
X203817328Y-103317868D01*
X203682482Y-103267574D01*
X203682483Y-103267574D01*
X203622883Y-103261167D01*
X203622881Y-103261166D01*
X203622873Y-103261166D01*
X203622865Y-103261166D01*
X202275097Y-103261166D01*
X202208058Y-103241481D01*
X202187416Y-103224847D01*
X191460924Y-92498355D01*
X191460922Y-92498352D01*
X191342051Y-92379481D01*
X191342050Y-92379480D01*
X191255238Y-92329360D01*
X191255238Y-92329359D01*
X191255234Y-92329358D01*
X191205119Y-92300423D01*
X191052391Y-92259499D01*
X190894277Y-92259499D01*
X190886681Y-92259499D01*
X190886665Y-92259500D01*
X166179091Y-92259500D01*
X166112052Y-92239815D01*
X166066711Y-92187909D01*
X166064037Y-92182175D01*
X166064034Y-92182170D01*
X166064033Y-92182169D01*
X165928495Y-91988599D01*
X165806179Y-91866283D01*
X165772696Y-91804963D01*
X165777680Y-91735271D01*
X165819551Y-91679337D01*
X165850529Y-91662422D01*
X165982086Y-91613354D01*
X165982093Y-91613350D01*
X166097187Y-91527190D01*
X166097190Y-91527187D01*
X166183350Y-91412093D01*
X166183354Y-91412086D01*
X166233596Y-91277379D01*
X166233598Y-91277372D01*
X166239999Y-91217844D01*
X166240000Y-91217827D01*
X166240000Y-90570000D01*
X165334560Y-90570000D01*
X165365245Y-90516853D01*
X165400000Y-90387143D01*
X165400000Y-90252857D01*
X165365245Y-90123147D01*
X165334560Y-90070000D01*
X166240000Y-90070000D01*
X166240000Y-89422172D01*
X166239999Y-89422155D01*
X166233598Y-89362627D01*
X166233596Y-89362620D01*
X166183354Y-89227913D01*
X166183350Y-89227906D01*
X166097190Y-89112812D01*
X166097187Y-89112809D01*
X165982093Y-89026649D01*
X165982088Y-89026646D01*
X165850528Y-88977577D01*
X165794595Y-88935705D01*
X165770178Y-88870241D01*
X165785030Y-88801968D01*
X165806175Y-88773720D01*
X165928495Y-88651401D01*
X166064035Y-88457830D01*
X166066707Y-88452097D01*
X166112878Y-88399658D01*
X166179091Y-88380500D01*
X189593237Y-88380500D01*
X189660276Y-88400185D01*
G37*
%TD.AperFunction*%
%TA.AperFunction,Conductor*%
G36*
X200580276Y-83320185D02*
G01*
X200600918Y-83336819D01*
X201392233Y-84128134D01*
X201425718Y-84189457D01*
X201424327Y-84247907D01*
X201389939Y-84376249D01*
X201389936Y-84376262D01*
X201369341Y-84611665D01*
X201369341Y-84611666D01*
X201389936Y-84847069D01*
X201389938Y-84847079D01*
X201451094Y-85075321D01*
X201451096Y-85075325D01*
X201451097Y-85075329D01*
X201505735Y-85192500D01*
X201550965Y-85289496D01*
X201550967Y-85289500D01*
X201659281Y-85444187D01*
X201686505Y-85483067D01*
X201853599Y-85650161D01*
X201887082Y-85673606D01*
X202047165Y-85785698D01*
X202047167Y-85785699D01*
X202047170Y-85785701D01*
X202261337Y-85885569D01*
X202489592Y-85946729D01*
X202677918Y-85963205D01*
X202724999Y-85967325D01*
X202725000Y-85967325D01*
X202725001Y-85967325D01*
X202764234Y-85963892D01*
X202960408Y-85946729D01*
X203188663Y-85885569D01*
X203402830Y-85785701D01*
X203596401Y-85650161D01*
X203763495Y-85483067D01*
X203899035Y-85289496D01*
X203998903Y-85075329D01*
X204005725Y-85049870D01*
X204042089Y-84990209D01*
X204104936Y-84959679D01*
X204174311Y-84967973D01*
X204228190Y-85012458D01*
X204249465Y-85079010D01*
X204249500Y-85081962D01*
X204249500Y-88141369D01*
X204229815Y-88208408D01*
X204177011Y-88254163D01*
X204107853Y-88264107D01*
X204044297Y-88235082D01*
X204006523Y-88176304D01*
X204005725Y-88173462D01*
X203998905Y-88148010D01*
X203998904Y-88148009D01*
X203998903Y-88148003D01*
X203899035Y-87933837D01*
X203778340Y-87761465D01*
X203763494Y-87740263D01*
X203596402Y-87573172D01*
X203596395Y-87573167D01*
X203402834Y-87437633D01*
X203402830Y-87437631D01*
X203402828Y-87437630D01*
X203188663Y-87337763D01*
X203188659Y-87337762D01*
X203188655Y-87337760D01*
X202960413Y-87276604D01*
X202960403Y-87276602D01*
X202725001Y-87256007D01*
X202724999Y-87256007D01*
X202489596Y-87276602D01*
X202489586Y-87276604D01*
X202261344Y-87337760D01*
X202261335Y-87337764D01*
X202047171Y-87437630D01*
X202047169Y-87437631D01*
X201853597Y-87573171D01*
X201686505Y-87740263D01*
X201550965Y-87933835D01*
X201550964Y-87933837D01*
X201451098Y-88148001D01*
X201451094Y-88148010D01*
X201389938Y-88376252D01*
X201389936Y-88376262D01*
X201369341Y-88611665D01*
X201369341Y-88611666D01*
X201389936Y-88847069D01*
X201389938Y-88847079D01*
X201451094Y-89075321D01*
X201451096Y-89075325D01*
X201451097Y-89075329D01*
X201522245Y-89227906D01*
X201550965Y-89289496D01*
X201550967Y-89289500D01*
X201593821Y-89350701D01*
X201686505Y-89483067D01*
X201853599Y-89650161D01*
X201950384Y-89717931D01*
X202047165Y-89785698D01*
X202047167Y-89785699D01*
X202047170Y-89785701D01*
X202261337Y-89885569D01*
X202489592Y-89946729D01*
X202677918Y-89963205D01*
X202724999Y-89967325D01*
X202725000Y-89967325D01*
X202725001Y-89967325D01*
X202764234Y-89963892D01*
X202960408Y-89946729D01*
X203188663Y-89885569D01*
X203402830Y-89785701D01*
X203596401Y-89650161D01*
X203763495Y-89483067D01*
X203899035Y-89289496D01*
X203998903Y-89075329D01*
X204005725Y-89049870D01*
X204042089Y-88990209D01*
X204104936Y-88959679D01*
X204174311Y-88967973D01*
X204228190Y-89012458D01*
X204249465Y-89079010D01*
X204249500Y-89081962D01*
X204249500Y-92143302D01*
X204229815Y-92210341D01*
X204177011Y-92256096D01*
X204107853Y-92266040D01*
X204044297Y-92237015D01*
X204006523Y-92178237D01*
X204005725Y-92175396D01*
X203998432Y-92148179D01*
X203998429Y-92148173D01*
X203898600Y-91934088D01*
X203898599Y-91934086D01*
X203763113Y-91740592D01*
X203763108Y-91740586D01*
X203596082Y-91573560D01*
X203402578Y-91438065D01*
X203188492Y-91338236D01*
X203188486Y-91338233D01*
X202975000Y-91281030D01*
X202975000Y-92178654D01*
X202917993Y-92145741D01*
X202790826Y-92111666D01*
X202659174Y-92111666D01*
X202532007Y-92145741D01*
X202475000Y-92178654D01*
X202475000Y-91281030D01*
X202474999Y-91281030D01*
X202261513Y-91338233D01*
X202261507Y-91338236D01*
X202047422Y-91438065D01*
X202047420Y-91438066D01*
X201853926Y-91573552D01*
X201853920Y-91573557D01*
X201686891Y-91740586D01*
X201686886Y-91740592D01*
X201551400Y-91934086D01*
X201551399Y-91934088D01*
X201451570Y-92148173D01*
X201451567Y-92148179D01*
X201394364Y-92361665D01*
X201394364Y-92361666D01*
X202291988Y-92361666D01*
X202259075Y-92418673D01*
X202225000Y-92545840D01*
X202225000Y-92677492D01*
X202259075Y-92804659D01*
X202291988Y-92861666D01*
X201394364Y-92861666D01*
X201451567Y-93075152D01*
X201451570Y-93075158D01*
X201551399Y-93289244D01*
X201686894Y-93482748D01*
X201853917Y-93649771D01*
X202047421Y-93785266D01*
X202261507Y-93885095D01*
X202261516Y-93885099D01*
X202475000Y-93942300D01*
X202475000Y-93044678D01*
X202532007Y-93077591D01*
X202659174Y-93111666D01*
X202790826Y-93111666D01*
X202917993Y-93077591D01*
X202975000Y-93044678D01*
X202975000Y-93942299D01*
X203188483Y-93885099D01*
X203188492Y-93885095D01*
X203402578Y-93785266D01*
X203596082Y-93649771D01*
X203763105Y-93482748D01*
X203898600Y-93289244D01*
X203998429Y-93075158D01*
X203998433Y-93075149D01*
X204005725Y-93047936D01*
X204042090Y-92988276D01*
X204104936Y-92957746D01*
X204174312Y-92966040D01*
X204228190Y-93010525D01*
X204249465Y-93077077D01*
X204249500Y-93080029D01*
X204249500Y-96141369D01*
X204229815Y-96208408D01*
X204177011Y-96254163D01*
X204107853Y-96264107D01*
X204044297Y-96235082D01*
X204006523Y-96176304D01*
X204005725Y-96173462D01*
X203998905Y-96148010D01*
X203998904Y-96148009D01*
X203998903Y-96148003D01*
X203899035Y-95933837D01*
X203890732Y-95921978D01*
X203763494Y-95740263D01*
X203596402Y-95573172D01*
X203596395Y-95573167D01*
X203402834Y-95437633D01*
X203402830Y-95437631D01*
X203322128Y-95399999D01*
X203188663Y-95337763D01*
X203188659Y-95337762D01*
X203188655Y-95337760D01*
X202960413Y-95276604D01*
X202960403Y-95276602D01*
X202725001Y-95256007D01*
X202724999Y-95256007D01*
X202489596Y-95276602D01*
X202489586Y-95276604D01*
X202261344Y-95337760D01*
X202261335Y-95337764D01*
X202047171Y-95437630D01*
X202047169Y-95437631D01*
X201853597Y-95573171D01*
X201686505Y-95740263D01*
X201550965Y-95933835D01*
X201550964Y-95933837D01*
X201451098Y-96148001D01*
X201451094Y-96148010D01*
X201389938Y-96376252D01*
X201389936Y-96376262D01*
X201369341Y-96611665D01*
X201369341Y-96611666D01*
X201389936Y-96847069D01*
X201389938Y-96847079D01*
X201451094Y-97075321D01*
X201451096Y-97075325D01*
X201451097Y-97075329D01*
X201538222Y-97262169D01*
X201550965Y-97289496D01*
X201550967Y-97289500D01*
X201634893Y-97409358D01*
X201686505Y-97483067D01*
X201853599Y-97650161D01*
X201931340Y-97704596D01*
X202047165Y-97785698D01*
X202047167Y-97785699D01*
X202047170Y-97785701D01*
X202261337Y-97885569D01*
X202489592Y-97946729D01*
X202668880Y-97962415D01*
X202724999Y-97967325D01*
X202725000Y-97967325D01*
X202725001Y-97967325D01*
X202781120Y-97962415D01*
X202960408Y-97946729D01*
X203188663Y-97885569D01*
X203402830Y-97785701D01*
X203596401Y-97650161D01*
X203763495Y-97483067D01*
X203899035Y-97289496D01*
X203998903Y-97075329D01*
X203998906Y-97075319D01*
X204005725Y-97049870D01*
X204042089Y-96990209D01*
X204104936Y-96959679D01*
X204174311Y-96967973D01*
X204228190Y-97012458D01*
X204249465Y-97079010D01*
X204249500Y-97081962D01*
X204249500Y-100141369D01*
X204229815Y-100208408D01*
X204177011Y-100254163D01*
X204107853Y-100264107D01*
X204044297Y-100235082D01*
X204006523Y-100176304D01*
X204005725Y-100173462D01*
X203998905Y-100148010D01*
X203998904Y-100148009D01*
X203998903Y-100148003D01*
X203899035Y-99933837D01*
X203889643Y-99920423D01*
X203763494Y-99740263D01*
X203596402Y-99573172D01*
X203596395Y-99573167D01*
X203402834Y-99437633D01*
X203402830Y-99437631D01*
X203188663Y-99337763D01*
X203188659Y-99337762D01*
X203188655Y-99337760D01*
X202960413Y-99276604D01*
X202960403Y-99276602D01*
X202725001Y-99256007D01*
X202724999Y-99256007D01*
X202489596Y-99276602D01*
X202489583Y-99276605D01*
X202361241Y-99310993D01*
X202291392Y-99309330D01*
X202241468Y-99278899D01*
X190380924Y-87418355D01*
X190380922Y-87418352D01*
X190262051Y-87299481D01*
X190262050Y-87299480D01*
X190175238Y-87249360D01*
X190175238Y-87249359D01*
X190175234Y-87249358D01*
X190125119Y-87220423D01*
X189972391Y-87179499D01*
X189814277Y-87179499D01*
X189806681Y-87179499D01*
X189806665Y-87179500D01*
X166179091Y-87179500D01*
X166112052Y-87159815D01*
X166066711Y-87107909D01*
X166064037Y-87102175D01*
X166064034Y-87102170D01*
X166064033Y-87102169D01*
X165928495Y-86908599D01*
X165928494Y-86908597D01*
X165761402Y-86741506D01*
X165761396Y-86741501D01*
X165575842Y-86611575D01*
X165532217Y-86556998D01*
X165525023Y-86487500D01*
X165556546Y-86425145D01*
X165575842Y-86408425D01*
X165598026Y-86392891D01*
X165761401Y-86278495D01*
X165928495Y-86111401D01*
X166064035Y-85917830D01*
X166163903Y-85703663D01*
X166225063Y-85475408D01*
X166245659Y-85240000D01*
X166225063Y-85004592D01*
X166163903Y-84776337D01*
X166064035Y-84562171D01*
X166009071Y-84483673D01*
X165928494Y-84368597D01*
X165761402Y-84201506D01*
X165761396Y-84201501D01*
X165575842Y-84071575D01*
X165532217Y-84016998D01*
X165525023Y-83947500D01*
X165556546Y-83885145D01*
X165575842Y-83868425D01*
X165598026Y-83852891D01*
X165761401Y-83738495D01*
X165928495Y-83571401D01*
X166064035Y-83377830D01*
X166066707Y-83372097D01*
X166112878Y-83319658D01*
X166179091Y-83300500D01*
X200513237Y-83300500D01*
X200580276Y-83320185D01*
G37*
%TD.AperFunction*%
%TA.AperFunction,Conductor*%
G36*
X146634755Y-64723147D02*
G01*
X146600000Y-64852857D01*
X146600000Y-64987143D01*
X146634755Y-65116853D01*
X146665440Y-65170000D01*
X145760000Y-65170000D01*
X145760000Y-65817844D01*
X145766401Y-65877372D01*
X145766403Y-65877379D01*
X145816645Y-66012086D01*
X145816649Y-66012093D01*
X145902809Y-66127187D01*
X145902812Y-66127190D01*
X146017906Y-66213350D01*
X146017913Y-66213354D01*
X146149470Y-66262421D01*
X146205403Y-66304292D01*
X146229821Y-66369756D01*
X146214970Y-66438029D01*
X146193819Y-66466284D01*
X146071503Y-66588600D01*
X145935965Y-66782169D01*
X145935964Y-66782171D01*
X145836098Y-66996335D01*
X145836094Y-66996344D01*
X145774938Y-67224586D01*
X145774936Y-67224596D01*
X145754341Y-67459999D01*
X145754341Y-67460000D01*
X145774936Y-67695403D01*
X145774938Y-67695413D01*
X145809327Y-67823756D01*
X145807664Y-67893606D01*
X145777233Y-67943530D01*
X122180918Y-91539847D01*
X122119595Y-91573332D01*
X122093237Y-91576166D01*
X110789091Y-91576166D01*
X110722052Y-91556481D01*
X110676711Y-91504575D01*
X110674037Y-91498841D01*
X110674034Y-91498836D01*
X110674033Y-91498835D01*
X110613292Y-91412086D01*
X110538494Y-91305263D01*
X110371402Y-91138172D01*
X110371395Y-91138167D01*
X110177834Y-91002633D01*
X110177830Y-91002631D01*
X110177828Y-91002630D01*
X109963663Y-90902763D01*
X109963659Y-90902762D01*
X109963655Y-90902760D01*
X109735413Y-90841604D01*
X109735403Y-90841602D01*
X109500001Y-90821007D01*
X109499999Y-90821007D01*
X109264596Y-90841602D01*
X109264586Y-90841604D01*
X109036344Y-90902760D01*
X109036335Y-90902764D01*
X108822171Y-91002630D01*
X108822169Y-91002631D01*
X108628597Y-91138171D01*
X108461505Y-91305263D01*
X108325965Y-91498835D01*
X108325964Y-91498837D01*
X108236882Y-91689874D01*
X108190709Y-91742313D01*
X108123516Y-91761465D01*
X108056635Y-91741249D01*
X108011300Y-91688084D01*
X108000500Y-91637469D01*
X108000500Y-88715862D01*
X108020185Y-88648823D01*
X108072989Y-88603068D01*
X108142147Y-88593124D01*
X108205703Y-88622149D01*
X108236882Y-88663457D01*
X108325965Y-88854496D01*
X108325967Y-88854500D01*
X108412147Y-88977577D01*
X108461505Y-89048067D01*
X108628599Y-89215161D01*
X108646801Y-89227906D01*
X108822165Y-89350698D01*
X108822167Y-89350699D01*
X108822170Y-89350701D01*
X109036337Y-89450569D01*
X109264592Y-89511729D01*
X109452918Y-89528205D01*
X109499999Y-89532325D01*
X109500000Y-89532325D01*
X109500001Y-89532325D01*
X109539234Y-89528892D01*
X109735408Y-89511729D01*
X109963663Y-89450569D01*
X110177830Y-89350701D01*
X110371401Y-89215161D01*
X110538495Y-89048067D01*
X110674035Y-88854496D01*
X110773903Y-88640329D01*
X110835063Y-88412074D01*
X110855659Y-88176666D01*
X110835063Y-87941258D01*
X110784393Y-87752153D01*
X110773905Y-87713010D01*
X110773904Y-87713009D01*
X110773903Y-87713003D01*
X110674035Y-87498837D01*
X110631179Y-87437631D01*
X110538494Y-87305263D01*
X110371402Y-87138172D01*
X110371395Y-87138167D01*
X110177834Y-87002633D01*
X110177830Y-87002631D01*
X110177828Y-87002630D01*
X109963663Y-86902763D01*
X109963659Y-86902762D01*
X109963655Y-86902760D01*
X109735413Y-86841604D01*
X109735403Y-86841602D01*
X109500001Y-86821007D01*
X109499999Y-86821007D01*
X109264596Y-86841602D01*
X109264586Y-86841604D01*
X109036344Y-86902760D01*
X109036335Y-86902764D01*
X108822171Y-87002630D01*
X108822169Y-87002631D01*
X108628597Y-87138171D01*
X108461505Y-87305263D01*
X108325965Y-87498835D01*
X108325964Y-87498837D01*
X108236882Y-87689874D01*
X108190709Y-87742313D01*
X108123516Y-87761465D01*
X108056635Y-87741249D01*
X108011300Y-87688084D01*
X108000500Y-87637469D01*
X108000500Y-84714677D01*
X108020185Y-84647638D01*
X108072989Y-84601883D01*
X108142147Y-84591939D01*
X108205703Y-84620964D01*
X108236882Y-84662272D01*
X108326399Y-84854244D01*
X108461894Y-85047748D01*
X108628917Y-85214771D01*
X108822421Y-85350266D01*
X109036507Y-85450095D01*
X109036516Y-85450099D01*
X109250000Y-85507300D01*
X109250000Y-84609678D01*
X109307007Y-84642591D01*
X109434174Y-84676666D01*
X109565826Y-84676666D01*
X109692993Y-84642591D01*
X109750000Y-84609678D01*
X109750000Y-85507299D01*
X109963483Y-85450099D01*
X109963492Y-85450095D01*
X110177578Y-85350266D01*
X110371082Y-85214771D01*
X110538105Y-85047748D01*
X110673600Y-84854244D01*
X110773429Y-84640158D01*
X110773432Y-84640152D01*
X110830636Y-84426666D01*
X109933012Y-84426666D01*
X109965925Y-84369659D01*
X110000000Y-84242492D01*
X110000000Y-84110840D01*
X109965925Y-83983673D01*
X109933012Y-83926666D01*
X110830636Y-83926666D01*
X110830635Y-83926665D01*
X110773432Y-83713179D01*
X110773429Y-83713173D01*
X110673600Y-83499088D01*
X110673599Y-83499086D01*
X110538113Y-83305592D01*
X110538108Y-83305586D01*
X110371082Y-83138560D01*
X110177578Y-83003065D01*
X109963492Y-82903236D01*
X109963486Y-82903233D01*
X109750000Y-82846030D01*
X109750000Y-83743654D01*
X109692993Y-83710741D01*
X109565826Y-83676666D01*
X109434174Y-83676666D01*
X109307007Y-83710741D01*
X109250000Y-83743654D01*
X109250000Y-82846030D01*
X109249999Y-82846030D01*
X109036513Y-82903233D01*
X109036507Y-82903236D01*
X108822422Y-83003065D01*
X108822420Y-83003066D01*
X108628926Y-83138552D01*
X108628920Y-83138557D01*
X108461891Y-83305586D01*
X108461886Y-83305592D01*
X108326400Y-83499086D01*
X108326399Y-83499088D01*
X108236882Y-83691059D01*
X108190710Y-83743498D01*
X108123516Y-83762650D01*
X108056635Y-83742434D01*
X108011300Y-83689269D01*
X108000500Y-83638654D01*
X108000500Y-80715862D01*
X108020185Y-80648823D01*
X108072989Y-80603068D01*
X108142147Y-80593124D01*
X108205703Y-80622149D01*
X108236881Y-80663456D01*
X108318195Y-80837834D01*
X108325965Y-80854496D01*
X108325967Y-80854500D01*
X108420992Y-80990209D01*
X108461505Y-81048067D01*
X108628599Y-81215161D01*
X108652435Y-81231851D01*
X108822165Y-81350698D01*
X108822167Y-81350699D01*
X108822170Y-81350701D01*
X109036337Y-81450569D01*
X109036343Y-81450570D01*
X109036344Y-81450571D01*
X109091285Y-81465292D01*
X109264592Y-81511729D01*
X109427307Y-81525965D01*
X109499999Y-81532325D01*
X109500000Y-81532325D01*
X109500001Y-81532325D01*
X109572693Y-81525965D01*
X109735408Y-81511729D01*
X109963663Y-81450569D01*
X110177830Y-81350701D01*
X110371401Y-81215161D01*
X110538495Y-81048067D01*
X110674035Y-80854496D01*
X110773903Y-80640329D01*
X110835063Y-80412074D01*
X110855659Y-80176666D01*
X110835063Y-79941258D01*
X110786888Y-79761465D01*
X110773905Y-79713010D01*
X110773904Y-79713009D01*
X110773903Y-79713003D01*
X110674035Y-79498837D01*
X110662366Y-79482171D01*
X110538494Y-79305263D01*
X110371402Y-79138172D01*
X110371395Y-79138167D01*
X110347599Y-79121505D01*
X110323975Y-79104963D01*
X110177834Y-79002633D01*
X110177830Y-79002631D01*
X110127876Y-78979337D01*
X109963663Y-78902763D01*
X109963659Y-78902762D01*
X109963655Y-78902760D01*
X109735413Y-78841604D01*
X109735403Y-78841602D01*
X109500001Y-78821007D01*
X109499999Y-78821007D01*
X109264596Y-78841602D01*
X109264586Y-78841604D01*
X109036344Y-78902760D01*
X109036335Y-78902764D01*
X108822171Y-79002630D01*
X108822169Y-79002631D01*
X108628597Y-79138171D01*
X108461505Y-79305263D01*
X108325965Y-79498835D01*
X108325964Y-79498837D01*
X108236882Y-79689874D01*
X108190709Y-79742313D01*
X108123516Y-79761465D01*
X108056635Y-79741249D01*
X108011300Y-79688084D01*
X108000500Y-79637469D01*
X108000500Y-76715863D01*
X108020185Y-76648824D01*
X108072989Y-76603069D01*
X108142147Y-76593125D01*
X108205703Y-76622150D01*
X108236882Y-76663458D01*
X108325965Y-76854497D01*
X108325967Y-76854501D01*
X108399614Y-76959679D01*
X108461505Y-77048068D01*
X108628599Y-77215162D01*
X108725384Y-77282932D01*
X108822165Y-77350699D01*
X108822167Y-77350700D01*
X108822170Y-77350702D01*
X109036337Y-77450570D01*
X109264592Y-77511730D01*
X109452918Y-77528206D01*
X109499999Y-77532326D01*
X109500000Y-77532326D01*
X109500001Y-77532326D01*
X109539234Y-77528893D01*
X109735408Y-77511730D01*
X109963663Y-77450570D01*
X110177830Y-77350702D01*
X110371401Y-77215162D01*
X110538495Y-77048068D01*
X110674035Y-76854497D01*
X110676707Y-76848764D01*
X110722878Y-76796325D01*
X110789091Y-76777167D01*
X133226664Y-76777167D01*
X133226680Y-76777168D01*
X133234276Y-76777168D01*
X133392387Y-76777168D01*
X133392390Y-76777168D01*
X133545118Y-76736244D01*
X133595237Y-76707306D01*
X133682049Y-76657187D01*
X133793853Y-76545383D01*
X133793853Y-76545381D01*
X133804061Y-76535174D01*
X133804062Y-76535171D01*
X145632917Y-64706317D01*
X145694238Y-64672834D01*
X145720596Y-64670000D01*
X146665440Y-64670000D01*
X146634755Y-64723147D01*
G37*
%TD.AperFunction*%
%TA.AperFunction,Conductor*%
G36*
X204174311Y-72967973D02*
G01*
X204228190Y-73012458D01*
X204249465Y-73079010D01*
X204249500Y-73081962D01*
X204249500Y-76141369D01*
X204229815Y-76208408D01*
X204177011Y-76254163D01*
X204107853Y-76264107D01*
X204044297Y-76235082D01*
X204006523Y-76176304D01*
X204005725Y-76173462D01*
X203998905Y-76148010D01*
X203998904Y-76148009D01*
X203998903Y-76148003D01*
X203899035Y-75933837D01*
X203771782Y-75752099D01*
X203763494Y-75740263D01*
X203596402Y-75573172D01*
X203596395Y-75573167D01*
X203578333Y-75560520D01*
X203511332Y-75513605D01*
X203402834Y-75437633D01*
X203402830Y-75437631D01*
X203402828Y-75437630D01*
X203188663Y-75337763D01*
X203188659Y-75337762D01*
X203188655Y-75337760D01*
X202960413Y-75276604D01*
X202960403Y-75276602D01*
X202725001Y-75256007D01*
X202724999Y-75256007D01*
X202489596Y-75276602D01*
X202489586Y-75276604D01*
X202261344Y-75337760D01*
X202261335Y-75337764D01*
X202047171Y-75437630D01*
X202047169Y-75437631D01*
X201853597Y-75573171D01*
X201686505Y-75740263D01*
X201550965Y-75933835D01*
X201550964Y-75933837D01*
X201451098Y-76148001D01*
X201451094Y-76148010D01*
X201389938Y-76376252D01*
X201389936Y-76376262D01*
X201369341Y-76611665D01*
X201369341Y-76611666D01*
X201389936Y-76847069D01*
X201389938Y-76847079D01*
X201451094Y-77075321D01*
X201451096Y-77075325D01*
X201451097Y-77075329D01*
X201516304Y-77215165D01*
X201550965Y-77289496D01*
X201550967Y-77289500D01*
X201659281Y-77444187D01*
X201686505Y-77483067D01*
X201853599Y-77650161D01*
X201906415Y-77687143D01*
X202047165Y-77785698D01*
X202047167Y-77785699D01*
X202047170Y-77785701D01*
X202261337Y-77885569D01*
X202489592Y-77946729D01*
X202677918Y-77963205D01*
X202724999Y-77967325D01*
X202725000Y-77967325D01*
X202725001Y-77967325D01*
X202764234Y-77963892D01*
X202960408Y-77946729D01*
X203188663Y-77885569D01*
X203402830Y-77785701D01*
X203596401Y-77650161D01*
X203763495Y-77483067D01*
X203899035Y-77289496D01*
X203998903Y-77075329D01*
X204005725Y-77049870D01*
X204042089Y-76990209D01*
X204104936Y-76959679D01*
X204174311Y-76967973D01*
X204228190Y-77012458D01*
X204249465Y-77079010D01*
X204249500Y-77081962D01*
X204249500Y-80141369D01*
X204229815Y-80208408D01*
X204177011Y-80254163D01*
X204107853Y-80264107D01*
X204044297Y-80235082D01*
X204006523Y-80176304D01*
X204005725Y-80173462D01*
X203998905Y-80148010D01*
X203998904Y-80148009D01*
X203998903Y-80148003D01*
X203899035Y-79933837D01*
X203899034Y-79933835D01*
X203763494Y-79740263D01*
X203596402Y-79573172D01*
X203596395Y-79573167D01*
X203402834Y-79437633D01*
X203402830Y-79437631D01*
X203402828Y-79437630D01*
X203188663Y-79337763D01*
X203188659Y-79337762D01*
X203188655Y-79337760D01*
X202960413Y-79276604D01*
X202960403Y-79276602D01*
X202725001Y-79256007D01*
X202724999Y-79256007D01*
X202489596Y-79276602D01*
X202489586Y-79276604D01*
X202261344Y-79337760D01*
X202261335Y-79337764D01*
X202047171Y-79437630D01*
X202047169Y-79437631D01*
X201853597Y-79573171D01*
X201686506Y-79740262D01*
X201550965Y-79933836D01*
X201550962Y-79933841D01*
X201548289Y-79939575D01*
X201502115Y-79992012D01*
X201435909Y-80011166D01*
X166343409Y-80011166D01*
X166276370Y-79991481D01*
X166230615Y-79938677D01*
X166223634Y-79919259D01*
X166163905Y-79696344D01*
X166163904Y-79696343D01*
X166163903Y-79696337D01*
X166064035Y-79482171D01*
X166032849Y-79437633D01*
X165928496Y-79288600D01*
X165895903Y-79256007D01*
X165806179Y-79166283D01*
X165772696Y-79104963D01*
X165777680Y-79035271D01*
X165819551Y-78979337D01*
X165850529Y-78962422D01*
X165982086Y-78913354D01*
X165982093Y-78913350D01*
X166097187Y-78827190D01*
X166097190Y-78827187D01*
X166183350Y-78712093D01*
X166183354Y-78712086D01*
X166233596Y-78577379D01*
X166233598Y-78577372D01*
X166239999Y-78517844D01*
X166240000Y-78517827D01*
X166240000Y-77870000D01*
X165334560Y-77870000D01*
X165365245Y-77816853D01*
X165400000Y-77687143D01*
X165400000Y-77552857D01*
X165365245Y-77423147D01*
X165334560Y-77370000D01*
X166240000Y-77370000D01*
X166240000Y-76722172D01*
X166239999Y-76722155D01*
X166233598Y-76662627D01*
X166233596Y-76662620D01*
X166183354Y-76527913D01*
X166183350Y-76527906D01*
X166097190Y-76412812D01*
X166097187Y-76412809D01*
X165982093Y-76326649D01*
X165982088Y-76326646D01*
X165850528Y-76277577D01*
X165794595Y-76235705D01*
X165770178Y-76170241D01*
X165785030Y-76101968D01*
X165806175Y-76073720D01*
X165928495Y-75951401D01*
X166064035Y-75757830D01*
X166066707Y-75752097D01*
X166112878Y-75699658D01*
X166179091Y-75680500D01*
X200169997Y-75680500D01*
X200170013Y-75680501D01*
X200177609Y-75680501D01*
X200335720Y-75680501D01*
X200335723Y-75680501D01*
X200488451Y-75639577D01*
X200538570Y-75610639D01*
X200625382Y-75560520D01*
X200737186Y-75448716D01*
X200737186Y-75448714D01*
X200747394Y-75438507D01*
X200747396Y-75438504D01*
X202241470Y-73944429D01*
X202302791Y-73910946D01*
X202361238Y-73912336D01*
X202489592Y-73946729D01*
X202677918Y-73963205D01*
X202724999Y-73967325D01*
X202725000Y-73967325D01*
X202725001Y-73967325D01*
X202764234Y-73963892D01*
X202960408Y-73946729D01*
X203188663Y-73885569D01*
X203402830Y-73785701D01*
X203596401Y-73650161D01*
X203763495Y-73483067D01*
X203899035Y-73289496D01*
X203998903Y-73075329D01*
X204005725Y-73049870D01*
X204042089Y-72990209D01*
X204104936Y-72959679D01*
X204174311Y-72967973D01*
G37*
%TD.AperFunction*%
%TA.AperFunction,Conductor*%
G36*
X199498006Y-58520185D02*
G01*
X199543761Y-58572989D01*
X199553705Y-58642147D01*
X199524680Y-58705703D01*
X199475405Y-58740264D01*
X199324464Y-58798204D01*
X198997594Y-58964754D01*
X198689924Y-59164557D01*
X198456849Y-59353296D01*
X198456849Y-59353297D01*
X199880893Y-60777341D01*
X199772816Y-60855864D01*
X199605864Y-61022816D01*
X199527341Y-61130893D01*
X198103297Y-59706849D01*
X198103296Y-59706849D01*
X197914557Y-59939924D01*
X197714754Y-60247594D01*
X197548204Y-60574464D01*
X197416736Y-60916948D01*
X197321784Y-61271313D01*
X197321784Y-61271315D01*
X197264397Y-61633646D01*
X197245197Y-61999999D01*
X197245197Y-62000000D01*
X197264397Y-62366353D01*
X197321784Y-62728684D01*
X197321784Y-62728686D01*
X197416736Y-63083051D01*
X197548204Y-63425535D01*
X197714754Y-63752406D01*
X197914551Y-64060067D01*
X198103297Y-64293148D01*
X199527340Y-62869105D01*
X199605864Y-62977184D01*
X199772816Y-63144136D01*
X199880893Y-63222658D01*
X198456850Y-64646701D01*
X198689929Y-64835446D01*
X198997593Y-65035245D01*
X199324464Y-65201795D01*
X199666948Y-65333263D01*
X200021314Y-65428215D01*
X200383646Y-65485602D01*
X200749999Y-65504803D01*
X200750001Y-65504803D01*
X201116353Y-65485602D01*
X201478684Y-65428215D01*
X201478686Y-65428215D01*
X201833051Y-65333263D01*
X202175535Y-65201795D01*
X202502406Y-65035245D01*
X202810064Y-64835450D01*
X203043148Y-64646701D01*
X201619106Y-63222659D01*
X201727184Y-63144136D01*
X201894136Y-62977184D01*
X201972659Y-62869106D01*
X203396701Y-64293148D01*
X203585450Y-64060064D01*
X203785245Y-63752406D01*
X203951795Y-63425535D01*
X204009736Y-63274595D01*
X204052138Y-63219063D01*
X204117832Y-63195270D01*
X204185960Y-63210772D01*
X204234893Y-63260645D01*
X204249500Y-63319033D01*
X204249500Y-72141369D01*
X204229815Y-72208408D01*
X204177011Y-72254163D01*
X204107853Y-72264107D01*
X204044297Y-72235082D01*
X204006523Y-72176304D01*
X204005725Y-72173462D01*
X203998905Y-72148010D01*
X203998904Y-72148009D01*
X203998903Y-72148003D01*
X203899035Y-71933837D01*
X203848855Y-71862171D01*
X203763494Y-71740263D01*
X203596402Y-71573172D01*
X203596395Y-71573167D01*
X203402834Y-71437633D01*
X203402830Y-71437631D01*
X203402828Y-71437630D01*
X203188663Y-71337763D01*
X203188659Y-71337762D01*
X203188655Y-71337760D01*
X202960413Y-71276604D01*
X202960403Y-71276602D01*
X202725001Y-71256007D01*
X202724999Y-71256007D01*
X202489596Y-71276602D01*
X202489586Y-71276604D01*
X202261344Y-71337760D01*
X202261335Y-71337764D01*
X202047171Y-71437630D01*
X202047169Y-71437631D01*
X201853597Y-71573171D01*
X201686505Y-71740263D01*
X201550965Y-71933835D01*
X201550964Y-71933837D01*
X201451098Y-72148001D01*
X201451094Y-72148010D01*
X201389938Y-72376252D01*
X201389936Y-72376262D01*
X201369341Y-72611665D01*
X201369341Y-72611666D01*
X201389936Y-72847069D01*
X201389938Y-72847079D01*
X201424327Y-72975422D01*
X201422664Y-73045272D01*
X201392233Y-73095196D01*
X200044250Y-74443181D01*
X199982927Y-74476666D01*
X199956569Y-74479500D01*
X166179091Y-74479500D01*
X166112052Y-74459815D01*
X166066711Y-74407909D01*
X166064037Y-74402175D01*
X166064034Y-74402170D01*
X166064033Y-74402169D01*
X165928495Y-74208599D01*
X165928494Y-74208597D01*
X165761402Y-74041506D01*
X165761396Y-74041501D01*
X165575842Y-73911575D01*
X165532217Y-73856998D01*
X165525023Y-73787500D01*
X165556546Y-73725145D01*
X165575842Y-73708425D01*
X165659054Y-73650159D01*
X165761401Y-73578495D01*
X165928495Y-73411401D01*
X166064035Y-73217830D01*
X166163903Y-73003663D01*
X166225063Y-72775408D01*
X166245659Y-72540000D01*
X166225063Y-72304592D01*
X166163903Y-72076337D01*
X166064035Y-71862171D01*
X165978675Y-71740263D01*
X165928494Y-71668597D01*
X165761402Y-71501506D01*
X165761396Y-71501501D01*
X165575842Y-71371575D01*
X165532217Y-71316998D01*
X165525023Y-71247500D01*
X165556546Y-71185145D01*
X165575842Y-71168425D01*
X165598026Y-71152891D01*
X165761401Y-71038495D01*
X165928495Y-70871401D01*
X166064035Y-70677830D01*
X166163903Y-70463663D01*
X166225063Y-70235408D01*
X166245659Y-70000000D01*
X166225063Y-69764592D01*
X166163903Y-69536337D01*
X166064035Y-69322171D01*
X166016737Y-69254621D01*
X165928494Y-69128597D01*
X165761402Y-68961506D01*
X165761396Y-68961501D01*
X165575842Y-68831575D01*
X165532217Y-68776998D01*
X165525023Y-68707500D01*
X165556546Y-68645145D01*
X165575842Y-68628425D01*
X165598026Y-68612891D01*
X165761401Y-68498495D01*
X165928495Y-68331401D01*
X166064035Y-68137830D01*
X166163903Y-67923663D01*
X166225063Y-67695408D01*
X166245659Y-67460000D01*
X166225063Y-67224592D01*
X166163903Y-66996337D01*
X166064035Y-66782171D01*
X165928495Y-66588599D01*
X165806179Y-66466283D01*
X165772696Y-66404963D01*
X165777680Y-66335271D01*
X165819551Y-66279337D01*
X165850529Y-66262422D01*
X165982086Y-66213354D01*
X165982093Y-66213350D01*
X166097187Y-66127190D01*
X166097190Y-66127187D01*
X166183350Y-66012093D01*
X166183354Y-66012086D01*
X166233596Y-65877379D01*
X166233598Y-65877372D01*
X166239999Y-65817844D01*
X166240000Y-65817827D01*
X166240000Y-65170000D01*
X165334560Y-65170000D01*
X165365245Y-65116853D01*
X165400000Y-64987143D01*
X165400000Y-64852857D01*
X165365245Y-64723147D01*
X165334560Y-64670000D01*
X166240000Y-64670000D01*
X166240000Y-64022172D01*
X166239999Y-64022155D01*
X166233598Y-63962627D01*
X166233596Y-63962620D01*
X166183354Y-63827913D01*
X166183350Y-63827906D01*
X166097190Y-63712812D01*
X166097187Y-63712809D01*
X165982093Y-63626649D01*
X165982088Y-63626646D01*
X165850528Y-63577577D01*
X165794595Y-63535705D01*
X165770178Y-63470241D01*
X165785030Y-63401968D01*
X165806175Y-63373720D01*
X165928495Y-63251401D01*
X166064035Y-63057830D01*
X166163903Y-62843663D01*
X166225063Y-62615408D01*
X166245659Y-62380000D01*
X166225063Y-62144592D01*
X166163903Y-61916337D01*
X166064035Y-61702171D01*
X166016054Y-61633646D01*
X165928494Y-61508597D01*
X165761402Y-61341506D01*
X165761396Y-61341501D01*
X165575842Y-61211575D01*
X165532217Y-61156998D01*
X165525023Y-61087500D01*
X165556546Y-61025145D01*
X165575842Y-61008425D01*
X165658567Y-60950500D01*
X165761401Y-60878495D01*
X165928495Y-60711401D01*
X166064035Y-60517830D01*
X166163903Y-60303663D01*
X166225063Y-60075408D01*
X166245659Y-59840000D01*
X166225063Y-59604592D01*
X166163903Y-59376337D01*
X166064035Y-59162171D01*
X166025301Y-59106852D01*
X165928494Y-58968597D01*
X165761402Y-58801506D01*
X165761396Y-58801501D01*
X165653676Y-58726075D01*
X165610051Y-58671498D01*
X165602857Y-58602000D01*
X165634380Y-58539645D01*
X165694610Y-58504231D01*
X165724799Y-58500500D01*
X199430967Y-58500500D01*
X199498006Y-58520185D01*
G37*
%TD.AperFunction*%
%TA.AperFunction,Conductor*%
G36*
X116054137Y-58520185D02*
G01*
X116099892Y-58572989D01*
X116109836Y-58642147D01*
X116106874Y-58656585D01*
X116099500Y-58684108D01*
X116099501Y-60384108D01*
X116099501Y-60515892D01*
X116115195Y-60574464D01*
X116133609Y-60643187D01*
X116155421Y-60680966D01*
X116199501Y-60757314D01*
X116292687Y-60850500D01*
X116406815Y-60916392D01*
X116534109Y-60950500D01*
X116534111Y-60950500D01*
X118465890Y-60950500D01*
X118465892Y-60950500D01*
X118593186Y-60916392D01*
X118707314Y-60850500D01*
X118800500Y-60757314D01*
X118866392Y-60643186D01*
X118900500Y-60515892D01*
X118900500Y-58684108D01*
X118893127Y-58656591D01*
X118894790Y-58586744D01*
X118933952Y-58528881D01*
X118998181Y-58501377D01*
X119012902Y-58500500D01*
X124487098Y-58500500D01*
X124554137Y-58520185D01*
X124599892Y-58572989D01*
X124609836Y-58642147D01*
X124606874Y-58656585D01*
X124599500Y-58684108D01*
X124599500Y-60384108D01*
X124599500Y-60515892D01*
X124615194Y-60574464D01*
X124633608Y-60643187D01*
X124655420Y-60680966D01*
X124699500Y-60757314D01*
X124792686Y-60850500D01*
X124906814Y-60916392D01*
X125034108Y-60950500D01*
X125034110Y-60950500D01*
X126965889Y-60950500D01*
X126965891Y-60950500D01*
X127093185Y-60916392D01*
X127207313Y-60850500D01*
X127300499Y-60757314D01*
X127366391Y-60643186D01*
X127400499Y-60515892D01*
X127400500Y-58684108D01*
X127393127Y-58656591D01*
X127394790Y-58586744D01*
X127433952Y-58528881D01*
X127498181Y-58501377D01*
X127512902Y-58500500D01*
X146275201Y-58500500D01*
X146342240Y-58520185D01*
X146387995Y-58572989D01*
X146397939Y-58642147D01*
X146368914Y-58705703D01*
X146346324Y-58726075D01*
X146238597Y-58801505D01*
X146071505Y-58968597D01*
X145935965Y-59162169D01*
X145935964Y-59162171D01*
X145836098Y-59376335D01*
X145836094Y-59376344D01*
X145774938Y-59604586D01*
X145774936Y-59604596D01*
X145754341Y-59839999D01*
X145754341Y-59840000D01*
X145774936Y-60075403D01*
X145774938Y-60075413D01*
X145809327Y-60203756D01*
X145807664Y-60273606D01*
X145777233Y-60323530D01*
X134560918Y-71539847D01*
X134499595Y-71573332D01*
X134473237Y-71576166D01*
X110974498Y-71576166D01*
X110907459Y-71556481D01*
X110861704Y-71503677D01*
X110850498Y-71452166D01*
X110850498Y-71278795D01*
X110850497Y-71278789D01*
X110850262Y-71276604D01*
X110844090Y-71219183D01*
X110793795Y-71084335D01*
X110793794Y-71084334D01*
X110793792Y-71084330D01*
X110707546Y-70969121D01*
X110707543Y-70969118D01*
X110592334Y-70882872D01*
X110592327Y-70882868D01*
X110457481Y-70832574D01*
X110457482Y-70832574D01*
X110397882Y-70826167D01*
X110397880Y-70826166D01*
X110397872Y-70826166D01*
X110397863Y-70826166D01*
X108602128Y-70826166D01*
X108602122Y-70826167D01*
X108542515Y-70832574D01*
X108407670Y-70882868D01*
X108407663Y-70882872D01*
X108292454Y-70969118D01*
X108223766Y-71060873D01*
X108167832Y-71102743D01*
X108098140Y-71107727D01*
X108036818Y-71074241D01*
X108003333Y-71012917D01*
X108000500Y-70986561D01*
X108000500Y-68206247D01*
X120400000Y-68206247D01*
X120433242Y-68416128D01*
X120433242Y-68416131D01*
X120498904Y-68618218D01*
X120595379Y-68807558D01*
X120720272Y-68979460D01*
X120720276Y-68979465D01*
X120870535Y-69129724D01*
X120870540Y-69129728D01*
X121042442Y-69254621D01*
X121231782Y-69351096D01*
X121433871Y-69416758D01*
X121500000Y-69427232D01*
X121500000Y-68333013D01*
X121557007Y-68365926D01*
X121684174Y-68400001D01*
X121815826Y-68400001D01*
X121942993Y-68365926D01*
X122000000Y-68333013D01*
X122000000Y-69427231D01*
X122066126Y-69416758D01*
X122066129Y-69416758D01*
X122268217Y-69351096D01*
X122457557Y-69254621D01*
X122629459Y-69129728D01*
X122629464Y-69129724D01*
X122779723Y-68979465D01*
X122779727Y-68979460D01*
X122904620Y-68807558D01*
X123001095Y-68618218D01*
X123066757Y-68416131D01*
X123066757Y-68416128D01*
X123100000Y-68206247D01*
X123100000Y-67500001D01*
X122250000Y-67500001D01*
X122250000Y-67000001D01*
X123100000Y-67000001D01*
X123100000Y-66293754D01*
X123066757Y-66083873D01*
X123066757Y-66083870D01*
X123001095Y-65881783D01*
X122904620Y-65692443D01*
X122779727Y-65520541D01*
X122779723Y-65520536D01*
X122629464Y-65370277D01*
X122629459Y-65370273D01*
X122457557Y-65245380D01*
X122268215Y-65148904D01*
X122066124Y-65083242D01*
X122000000Y-65072769D01*
X122000000Y-66166989D01*
X121942993Y-66134076D01*
X121815826Y-66100001D01*
X121684174Y-66100001D01*
X121557007Y-66134076D01*
X121500000Y-66166989D01*
X121500000Y-65072769D01*
X121499999Y-65072769D01*
X121433875Y-65083242D01*
X121231784Y-65148904D01*
X121042442Y-65245380D01*
X120870540Y-65370273D01*
X120870535Y-65370277D01*
X120720276Y-65520536D01*
X120720272Y-65520541D01*
X120595379Y-65692443D01*
X120498904Y-65881783D01*
X120433242Y-66083870D01*
X120433242Y-66083873D01*
X120400000Y-66293754D01*
X120400000Y-67000001D01*
X121250000Y-67000001D01*
X121250000Y-67500001D01*
X120400000Y-67500001D01*
X120400000Y-68206247D01*
X108000500Y-68206247D01*
X108000500Y-63319033D01*
X108020185Y-63251994D01*
X108072989Y-63206239D01*
X108142147Y-63196295D01*
X108205703Y-63225320D01*
X108240264Y-63274595D01*
X108298204Y-63425535D01*
X108464754Y-63752406D01*
X108664551Y-64060067D01*
X108853297Y-64293148D01*
X110277340Y-62869105D01*
X110355864Y-62977184D01*
X110522816Y-63144136D01*
X110630893Y-63222658D01*
X109206850Y-64646701D01*
X109439929Y-64835446D01*
X109747593Y-65035245D01*
X110074464Y-65201795D01*
X110416948Y-65333263D01*
X110771314Y-65428215D01*
X111133646Y-65485602D01*
X111499999Y-65504803D01*
X111500001Y-65504803D01*
X111866353Y-65485602D01*
X112228684Y-65428215D01*
X112228686Y-65428215D01*
X112583051Y-65333263D01*
X112925535Y-65201795D01*
X113252406Y-65035245D01*
X113560064Y-64835450D01*
X113793148Y-64646701D01*
X113646448Y-64500001D01*
X130494891Y-64500001D01*
X130515300Y-64785362D01*
X130576109Y-65064895D01*
X130676091Y-65332958D01*
X130813191Y-65584038D01*
X130813196Y-65584046D01*
X130919882Y-65726561D01*
X130919883Y-65726562D01*
X131898958Y-64747487D01*
X131923978Y-64807890D01*
X131995112Y-64914351D01*
X132085649Y-65004888D01*
X132192110Y-65076022D01*
X132252511Y-65101041D01*
X131273436Y-66080115D01*
X131415960Y-66186807D01*
X131415961Y-66186808D01*
X131667042Y-66323908D01*
X131667041Y-66323908D01*
X131935104Y-66423890D01*
X132214637Y-66484699D01*
X132499999Y-66505109D01*
X132500001Y-66505109D01*
X132785362Y-66484699D01*
X133064895Y-66423890D01*
X133332958Y-66323908D01*
X133584047Y-66186803D01*
X133726561Y-66080116D01*
X133726562Y-66080115D01*
X133694317Y-66047870D01*
X135499500Y-66047870D01*
X135499501Y-66047876D01*
X135505908Y-66107483D01*
X135556202Y-66242328D01*
X135556206Y-66242335D01*
X135642452Y-66357544D01*
X135642455Y-66357547D01*
X135757664Y-66443793D01*
X135757671Y-66443797D01*
X135892517Y-66494091D01*
X135892516Y-66494091D01*
X135899444Y-66494835D01*
X135952127Y-66500500D01*
X139047872Y-66500499D01*
X139107483Y-66494091D01*
X139242331Y-66443796D01*
X139357546Y-66357546D01*
X139443796Y-66242331D01*
X139494091Y-66107483D01*
X139500500Y-66047873D01*
X139500499Y-62952128D01*
X139494091Y-62892517D01*
X139483279Y-62863529D01*
X139443797Y-62757671D01*
X139443793Y-62757664D01*
X139357547Y-62642455D01*
X139357544Y-62642452D01*
X139242335Y-62556206D01*
X139242328Y-62556202D01*
X139107482Y-62505908D01*
X139107483Y-62505908D01*
X139047883Y-62499501D01*
X139047881Y-62499500D01*
X139047873Y-62499500D01*
X139047864Y-62499500D01*
X135952129Y-62499500D01*
X135952123Y-62499501D01*
X135892516Y-62505908D01*
X135757671Y-62556202D01*
X135757664Y-62556206D01*
X135642455Y-62642452D01*
X135642452Y-62642455D01*
X135556206Y-62757664D01*
X135556202Y-62757671D01*
X135505908Y-62892517D01*
X135499501Y-62952116D01*
X135499501Y-62952123D01*
X135499500Y-62952135D01*
X135499500Y-66047870D01*
X133694317Y-66047870D01*
X132747489Y-65101041D01*
X132807890Y-65076022D01*
X132914351Y-65004888D01*
X133004888Y-64914351D01*
X133076022Y-64807890D01*
X133101041Y-64747488D01*
X134080115Y-65726562D01*
X134080116Y-65726561D01*
X134186803Y-65584047D01*
X134323908Y-65332958D01*
X134423890Y-65064895D01*
X134484699Y-64785362D01*
X134505109Y-64500001D01*
X134505109Y-64499998D01*
X134484699Y-64214637D01*
X134423890Y-63935104D01*
X134323908Y-63667041D01*
X134186808Y-63415961D01*
X134186807Y-63415960D01*
X134080115Y-63273436D01*
X133101041Y-64252510D01*
X133076022Y-64192110D01*
X133004888Y-64085649D01*
X132914351Y-63995112D01*
X132807890Y-63923978D01*
X132747488Y-63898958D01*
X133726562Y-62919883D01*
X133726561Y-62919882D01*
X133584046Y-62813196D01*
X133584038Y-62813191D01*
X133332957Y-62676091D01*
X133332958Y-62676091D01*
X133064895Y-62576109D01*
X132785362Y-62515300D01*
X132500001Y-62494891D01*
X132499999Y-62494891D01*
X132214637Y-62515300D01*
X131935104Y-62576109D01*
X131667041Y-62676091D01*
X131415961Y-62813191D01*
X131415953Y-62813196D01*
X131273437Y-62919882D01*
X131273436Y-62919883D01*
X132252512Y-63898958D01*
X132192110Y-63923978D01*
X132085649Y-63995112D01*
X131995112Y-64085649D01*
X131923978Y-64192110D01*
X131898958Y-64252511D01*
X130919883Y-63273436D01*
X130919882Y-63273437D01*
X130813196Y-63415953D01*
X130813191Y-63415961D01*
X130676091Y-63667041D01*
X130576109Y-63935104D01*
X130515300Y-64214637D01*
X130494891Y-64499998D01*
X130494891Y-64500001D01*
X113646448Y-64500001D01*
X112369106Y-63222659D01*
X112477184Y-63144136D01*
X112644136Y-62977184D01*
X112722659Y-62869106D01*
X114146701Y-64293148D01*
X114335450Y-64060064D01*
X114535245Y-63752406D01*
X114701795Y-63425535D01*
X114833263Y-63083051D01*
X114892641Y-62861450D01*
X118849500Y-62861450D01*
X118849501Y-62861466D01*
X118878594Y-63082452D01*
X118878595Y-63082457D01*
X118878596Y-63082463D01*
X118932307Y-63282915D01*
X118936290Y-63297780D01*
X118936293Y-63297790D01*
X119021593Y-63503722D01*
X119021595Y-63503726D01*
X119133052Y-63696774D01*
X119133057Y-63696780D01*
X119133058Y-63696782D01*
X119268751Y-63873622D01*
X119268757Y-63873629D01*
X119426370Y-64031242D01*
X119426376Y-64031247D01*
X119603226Y-64166948D01*
X119796274Y-64278405D01*
X120002219Y-64363710D01*
X120217537Y-64421404D01*
X120438543Y-64450500D01*
X120438550Y-64450500D01*
X123061450Y-64450500D01*
X123061457Y-64450500D01*
X123282463Y-64421404D01*
X123497781Y-64363710D01*
X123703726Y-64278405D01*
X123896774Y-64166948D01*
X124073624Y-64031247D01*
X124231247Y-63873624D01*
X124366948Y-63696774D01*
X124478405Y-63503726D01*
X124563710Y-63297781D01*
X124621404Y-63082463D01*
X124650500Y-62861457D01*
X124650500Y-62638543D01*
X124621404Y-62417537D01*
X124563710Y-62202219D01*
X124559941Y-62193121D01*
X124478406Y-61996277D01*
X124478405Y-61996274D01*
X124366948Y-61803226D01*
X124246648Y-61646447D01*
X124231248Y-61626377D01*
X124231242Y-61626370D01*
X124073629Y-61468757D01*
X124073622Y-61468751D01*
X123896782Y-61333058D01*
X123896780Y-61333057D01*
X123896774Y-61333052D01*
X123703726Y-61221595D01*
X123703722Y-61221593D01*
X123497790Y-61136293D01*
X123497783Y-61136291D01*
X123497781Y-61136290D01*
X123282463Y-61078596D01*
X123282457Y-61078595D01*
X123282452Y-61078594D01*
X123061466Y-61049501D01*
X123061463Y-61049500D01*
X123061457Y-61049500D01*
X120438543Y-61049500D01*
X120438537Y-61049500D01*
X120438533Y-61049501D01*
X120217547Y-61078594D01*
X120217540Y-61078595D01*
X120217537Y-61078596D01*
X120184307Y-61087500D01*
X120002219Y-61136290D01*
X120002209Y-61136293D01*
X119796277Y-61221593D01*
X119796273Y-61221595D01*
X119603226Y-61333052D01*
X119603217Y-61333058D01*
X119426377Y-61468751D01*
X119426370Y-61468757D01*
X119268757Y-61626370D01*
X119268751Y-61626377D01*
X119133058Y-61803217D01*
X119133052Y-61803226D01*
X119021595Y-61996273D01*
X119021593Y-61996277D01*
X118936293Y-62202209D01*
X118936290Y-62202219D01*
X118895741Y-62353553D01*
X118878597Y-62417534D01*
X118878594Y-62417547D01*
X118849501Y-62638533D01*
X118849500Y-62638549D01*
X118849500Y-62861450D01*
X114892641Y-62861450D01*
X114928215Y-62728686D01*
X114928215Y-62728684D01*
X114985602Y-62366353D01*
X115004803Y-62000000D01*
X115004803Y-61999999D01*
X114985602Y-61633646D01*
X114928215Y-61271315D01*
X114928215Y-61271313D01*
X114833263Y-60916948D01*
X114701795Y-60574464D01*
X114535245Y-60247594D01*
X114335446Y-59939929D01*
X114146701Y-59706850D01*
X112722658Y-61130893D01*
X112644136Y-61022816D01*
X112477184Y-60855864D01*
X112369106Y-60777340D01*
X113793149Y-59353297D01*
X113560070Y-59164553D01*
X113252406Y-58964754D01*
X112925535Y-58798204D01*
X112774595Y-58740264D01*
X112719063Y-58697862D01*
X112695270Y-58632168D01*
X112710772Y-58564040D01*
X112760645Y-58515107D01*
X112819033Y-58500500D01*
X115987098Y-58500500D01*
X116054137Y-58520185D01*
G37*
%TD.AperFunction*%
%TA.AperFunction,Conductor*%
G36*
X110248006Y-58520185D02*
G01*
X110293761Y-58572989D01*
X110303705Y-58642147D01*
X110274680Y-58705703D01*
X110225405Y-58740264D01*
X110074464Y-58798204D01*
X109747594Y-58964754D01*
X109439924Y-59164557D01*
X109206849Y-59353296D01*
X109206849Y-59353297D01*
X110630893Y-60777341D01*
X110522816Y-60855864D01*
X110355864Y-61022816D01*
X110277341Y-61130893D01*
X108853297Y-59706849D01*
X108853296Y-59706849D01*
X108664557Y-59939924D01*
X108464754Y-60247594D01*
X108298204Y-60574464D01*
X108240264Y-60725404D01*
X108197862Y-60780936D01*
X108132168Y-60804729D01*
X108064039Y-60789227D01*
X108015107Y-60739354D01*
X108000500Y-60680966D01*
X108000500Y-58624500D01*
X108020185Y-58557461D01*
X108072989Y-58511706D01*
X108124500Y-58500500D01*
X110180967Y-58500500D01*
X110248006Y-58520185D01*
G37*
%TD.AperFunction*%
%TA.AperFunction,Conductor*%
G36*
X204192539Y-58520185D02*
G01*
X204238294Y-58572989D01*
X204249500Y-58624500D01*
X204249500Y-60680966D01*
X204229815Y-60748005D01*
X204177011Y-60793760D01*
X204107853Y-60803704D01*
X204044297Y-60774679D01*
X204009736Y-60725404D01*
X203951795Y-60574464D01*
X203785245Y-60247594D01*
X203585446Y-59939929D01*
X203396701Y-59706850D01*
X201972658Y-61130893D01*
X201894136Y-61022816D01*
X201727184Y-60855864D01*
X201619106Y-60777340D01*
X203043149Y-59353297D01*
X202810070Y-59164553D01*
X202502406Y-58964754D01*
X202175535Y-58798204D01*
X202024595Y-58740264D01*
X201969063Y-58697862D01*
X201945270Y-58632168D01*
X201960772Y-58564040D01*
X202010645Y-58515107D01*
X202069033Y-58500500D01*
X204125500Y-58500500D01*
X204192539Y-58520185D01*
G37*
%TD.AperFunction*%
%TD*%
M02*
