M48
; DRILL file {KiCad 8.0.1} date 2024-07-17T22:41:00+1000
; FORMAT={-:-/ absolute / inch / decimal}
; #@! TF.CreationDate,2024-07-17T22:41:00+10:00
; #@! TF.GenerationSoftware,Kicad,Pcbnew,8.0.1
; #@! TF.FileFunction,Plated,1,2,PTH
FMAT,2
INCH
; #@! TA.AperFunction,Plated,PTH,ViaDrill
T1C0.0118
; #@! TA.AperFunction,Plated,PTH,ComponentDrill
T2C0.0402
; #@! TA.AperFunction,Plated,PTH,ComponentDrill
T3C0.0512
; #@! TA.AperFunction,Plated,PTH,ComponentDrill
T4C0.1181
%
G90
G05
T1
X5.0689Y-3.6598
X5.1979Y-1.6598
X5.1979Y-1.7602
X5.2688Y-1.8882
X5.2688Y-2.1303
X5.8003Y-2.0831
X6.5748Y-3.3449
T2
X5.4673Y-1.6598
X5.4673Y-1.7598
X5.4673Y-1.8598
X5.4673Y-1.9598
X5.4673Y-2.0598
X5.4673Y-2.1598
X5.4673Y-2.2598
X5.4673Y-2.3598
X5.4673Y-2.4598
X5.4673Y-2.5598
X5.4673Y-2.6598
X5.4673Y-2.7598
X5.4673Y-2.8598
X5.4673Y-2.9598
X5.4673Y-3.0598
X5.4673Y-3.1598
X5.4673Y-3.2598
X5.4673Y-3.3598
X5.4673Y-3.4598
X5.4673Y-3.5598
X5.7173Y-3.5508
X5.8173Y-3.5508
X5.9173Y-3.5508
X6.1673Y-1.6598
X6.1673Y-1.7598
X6.1673Y-1.8598
X6.1673Y-1.9598
X6.1673Y-2.0598
X6.1673Y-2.1598
X6.1673Y-2.2598
X6.1673Y-2.3598
X6.1673Y-2.4598
X6.1673Y-2.5598
X6.1673Y-2.6598
X6.1673Y-2.7598
X6.1673Y-2.8598
X6.1673Y-2.9598
X6.1673Y-3.0598
X6.1673Y-3.1598
X6.1673Y-3.2598
X6.1673Y-3.3598
X6.1673Y-3.4598
X6.1673Y-3.5598
T3
X4.0024Y-2.0296
X4.0024Y-2.2265
X4.0024Y-2.4233
X4.0024Y-2.6202
X4.0024Y-2.817
X4.0024Y-3.0139
X4.0024Y-3.2107
X4.0024Y-3.4076
X4.0024Y-3.6044
X4.0024Y-3.8013
X4.0024Y-3.9981
X4.0024Y-4.195
X4.0024Y-4.3918
X4.0024Y-4.5887
X4.0024Y-4.7855
X4.0024Y-4.9824
X4.3436Y-5.3213
X4.3602Y-1.8602
X4.5405Y-5.3213
X4.5571Y-1.8602
X4.7373Y-5.3213
X4.7539Y-1.8602
X4.9342Y-5.3213
X5.131Y-5.3213
X5.3279Y-5.3213
X5.5247Y-5.3213
X5.7216Y-5.3213
X5.9184Y-5.3213
X6.1153Y-5.3213
X6.3121Y-5.3213
X6.509Y-5.3213
X6.7058Y-5.3213
X6.9027Y-5.3213
X7.0995Y-5.3213
X7.2964Y-5.3213
X7.6455Y-2.0233
X7.6455Y-2.2202
X7.6455Y-2.417
X7.6455Y-2.6139
X7.6455Y-2.8107
X7.6455Y-3.0076
X7.6455Y-3.2044
X7.6455Y-3.4013
X7.6455Y-3.5981
X7.6455Y-3.795
X7.6455Y-3.9918
X7.6455Y-4.1887
X7.6455Y-4.3855
X7.6455Y-4.5824
X7.6455Y-4.7792
X7.6455Y-4.9761
T4
X3.9125Y-5.3961
X3.9145Y-1.7543
X7.7196Y-1.7543
X7.7196Y-5.3961
M30
