%TF.GenerationSoftware,KiCad,Pcbnew,8.0.1*%
%TF.CreationDate,2024-07-17T22:40:59+10:00*%
%TF.ProjectId,stick,73746963-6b2e-46b6-9963-61645f706362,rev?*%
%TF.SameCoordinates,Original*%
%TF.FileFunction,Soldermask,Bot*%
%TF.FilePolarity,Negative*%
%FSLAX46Y46*%
G04 Gerber Fmt 4.6, Leading zero omitted, Abs format (unit mm)*
G04 Created by KiCad (PCBNEW 8.0.1) date 2024-07-17 22:40:59*
%MOMM*%
%LPD*%
G01*
G04 APERTURE LIST*
%ADD10C,6.000000*%
%ADD11R,3.000000X3.000000*%
%ADD12C,3.000000*%
%ADD13O,1.800000X1.800000*%
%ADD14O,1.500000X1.500000*%
%ADD15O,1.700000X1.700000*%
%ADD16R,1.700000X1.700000*%
G04 APERTURE END LIST*
D10*
%TO.C,H3*%
X99377500Y-137060000D03*
%TD*%
D11*
%TO.C,J2*%
X194195000Y-126392500D03*
D12*
X194195000Y-121392500D03*
X194195000Y-116392500D03*
X194195000Y-111392500D03*
X194195000Y-106392499D03*
X194195000Y-101392499D03*
X194195000Y-96392501D03*
X194195000Y-91392500D03*
X194195000Y-86392500D03*
X194195000Y-81392500D03*
X194195000Y-76392500D03*
X194195000Y-71392500D03*
X194195000Y-66392500D03*
X194195000Y-61392500D03*
X194195000Y-56392500D03*
X194195000Y-51392499D03*
%TD*%
D11*
%TO.C,J4*%
X120750000Y-47250000D03*
D12*
X115750000Y-47250000D03*
X110750000Y-47250000D03*
%TD*%
D11*
%TO.C,J3*%
X110327500Y-135160000D03*
D12*
X115327500Y-135160000D03*
X120327500Y-135160000D03*
X125327500Y-135160000D03*
X130327500Y-135160000D03*
X135327500Y-135160000D03*
X140327500Y-135160000D03*
X145327500Y-135160000D03*
X150327500Y-135160000D03*
X155327500Y-135160000D03*
X160327500Y-135160000D03*
X165327500Y-135160000D03*
X170327500Y-135160000D03*
X175327500Y-135160000D03*
X180327500Y-135160000D03*
X185327500Y-135160000D03*
%TD*%
D10*
%TO.C,H4*%
X196077500Y-137060000D03*
%TD*%
D11*
%TO.C,J1*%
X101659999Y-51552501D03*
D12*
X101659999Y-56552501D03*
X101659999Y-61552501D03*
X101659999Y-66552501D03*
X101659999Y-71552502D03*
X101659999Y-76552502D03*
X101659999Y-81552500D03*
X101659999Y-86552501D03*
X101659999Y-91552501D03*
X101659999Y-96552501D03*
X101659999Y-101552501D03*
X101659999Y-106552501D03*
X101659999Y-111552501D03*
X101659999Y-116552501D03*
X101659999Y-121552501D03*
X101659999Y-126552502D03*
%TD*%
D10*
%TO.C,H2*%
X196077500Y-44560000D03*
%TD*%
%TO.C,H1*%
X99427500Y-44560000D03*
%TD*%
D13*
%TO.C,U1*%
X145035000Y-42290000D03*
D14*
X145335000Y-45320000D03*
X150185000Y-45320000D03*
D13*
X150485000Y-42290000D03*
D15*
X138870000Y-42160000D03*
X138870000Y-44700000D03*
D16*
X138870000Y-47240000D03*
D15*
X138870000Y-49780000D03*
X138870000Y-52320000D03*
X138870000Y-54860000D03*
X138870000Y-57400000D03*
D16*
X138870000Y-59940000D03*
D15*
X138870000Y-62480000D03*
X138870000Y-65020000D03*
X138870000Y-67560000D03*
X138870000Y-70100000D03*
D16*
X138870000Y-72640000D03*
D15*
X138870000Y-75180000D03*
X138870000Y-77720000D03*
X138870000Y-80260000D03*
X138870000Y-82800000D03*
D16*
X138870000Y-85340000D03*
D15*
X138870000Y-87880000D03*
X138870000Y-90420000D03*
X156650000Y-90420000D03*
X156650000Y-87880000D03*
D16*
X156650000Y-85340000D03*
D15*
X156650000Y-82800000D03*
X156650000Y-80260000D03*
X156650000Y-77720000D03*
X156650000Y-75180000D03*
D16*
X156650000Y-72640000D03*
D15*
X156650000Y-70100000D03*
X156650000Y-67560000D03*
X156650000Y-65020000D03*
X156650000Y-62480000D03*
D16*
X156650000Y-59940000D03*
D15*
X156650000Y-57400000D03*
X156650000Y-54860000D03*
X156650000Y-52320000D03*
X156650000Y-49780000D03*
D16*
X156650000Y-47240000D03*
D15*
X156650000Y-44700000D03*
X156650000Y-42160000D03*
X145220000Y-90190000D03*
D16*
X147760000Y-90190000D03*
D15*
X150300000Y-90190000D03*
%TD*%
M02*
