%TF.GenerationSoftware,KiCad,Pcbnew,8.0.1*%
%TF.CreationDate,2024-07-17T22:44:32+10:00*%
%TF.ProjectId,vga,7667612e-6b69-4636-9164-5f7063625858,rev?*%
%TF.SameCoordinates,Original*%
%TF.FileFunction,Legend,Bot*%
%TF.FilePolarity,Positive*%
%FSLAX46Y46*%
G04 Gerber Fmt 4.6, Leading zero omitted, Abs format (unit mm)*
G04 Created by KiCad (PCBNEW 8.0.1) date 2024-07-17 22:44:32*
%MOMM*%
%LPD*%
G01*
G04 APERTURE LIST*
%ADD10C,0.100000*%
%ADD11C,0.150000*%
%ADD12C,0.120000*%
G04 APERTURE END LIST*
D10*
X106353258Y-88612755D02*
X106353258Y-88850850D01*
X106591353Y-88755612D02*
X106353258Y-88850850D01*
X106353258Y-88850850D02*
X106115163Y-88755612D01*
X106496115Y-89041326D02*
X106353258Y-88850850D01*
X106353258Y-88850850D02*
X106210401Y-89041326D01*
X104781829Y-89136564D02*
X104781829Y-89612755D01*
X105115162Y-88612755D02*
X104781829Y-89136564D01*
X104781829Y-89136564D02*
X104448496Y-88612755D01*
X103734210Y-89565136D02*
X103829448Y-89612755D01*
X103829448Y-89612755D02*
X104019924Y-89612755D01*
X104019924Y-89612755D02*
X104115162Y-89565136D01*
X104115162Y-89565136D02*
X104162781Y-89469897D01*
X104162781Y-89469897D02*
X104162781Y-89088945D01*
X104162781Y-89088945D02*
X104115162Y-88993707D01*
X104115162Y-88993707D02*
X104019924Y-88946088D01*
X104019924Y-88946088D02*
X103829448Y-88946088D01*
X103829448Y-88946088D02*
X103734210Y-88993707D01*
X103734210Y-88993707D02*
X103686591Y-89088945D01*
X103686591Y-89088945D02*
X103686591Y-89184183D01*
X103686591Y-89184183D02*
X104162781Y-89279421D01*
X103400876Y-88946088D02*
X103019924Y-88946088D01*
X103258019Y-88612755D02*
X103258019Y-89469897D01*
X103258019Y-89469897D02*
X103210400Y-89565136D01*
X103210400Y-89565136D02*
X103115162Y-89612755D01*
X103115162Y-89612755D02*
X103019924Y-89612755D01*
X101496114Y-89612755D02*
X101496114Y-89088945D01*
X101496114Y-89088945D02*
X101543733Y-88993707D01*
X101543733Y-88993707D02*
X101638971Y-88946088D01*
X101638971Y-88946088D02*
X101829447Y-88946088D01*
X101829447Y-88946088D02*
X101924685Y-88993707D01*
X101496114Y-89565136D02*
X101591352Y-89612755D01*
X101591352Y-89612755D02*
X101829447Y-89612755D01*
X101829447Y-89612755D02*
X101924685Y-89565136D01*
X101924685Y-89565136D02*
X101972304Y-89469897D01*
X101972304Y-89469897D02*
X101972304Y-89374659D01*
X101972304Y-89374659D02*
X101924685Y-89279421D01*
X101924685Y-89279421D02*
X101829447Y-89231802D01*
X101829447Y-89231802D02*
X101591352Y-89231802D01*
X101591352Y-89231802D02*
X101496114Y-89184183D01*
X101019923Y-88946088D02*
X101019923Y-89612755D01*
X101019923Y-89041326D02*
X100972304Y-88993707D01*
X100972304Y-88993707D02*
X100877066Y-88946088D01*
X100877066Y-88946088D02*
X100734209Y-88946088D01*
X100734209Y-88946088D02*
X100638971Y-88993707D01*
X100638971Y-88993707D02*
X100591352Y-89088945D01*
X100591352Y-89088945D02*
X100591352Y-89612755D01*
X99972304Y-89612755D02*
X100067542Y-89565136D01*
X100067542Y-89565136D02*
X100115161Y-89517516D01*
X100115161Y-89517516D02*
X100162780Y-89422278D01*
X100162780Y-89422278D02*
X100162780Y-89136564D01*
X100162780Y-89136564D02*
X100115161Y-89041326D01*
X100115161Y-89041326D02*
X100067542Y-88993707D01*
X100067542Y-88993707D02*
X99972304Y-88946088D01*
X99972304Y-88946088D02*
X99829447Y-88946088D01*
X99829447Y-88946088D02*
X99734209Y-88993707D01*
X99734209Y-88993707D02*
X99686590Y-89041326D01*
X99686590Y-89041326D02*
X99638971Y-89136564D01*
X99638971Y-89136564D02*
X99638971Y-89422278D01*
X99638971Y-89422278D02*
X99686590Y-89517516D01*
X99686590Y-89517516D02*
X99734209Y-89565136D01*
X99734209Y-89565136D02*
X99829447Y-89612755D01*
X99829447Y-89612755D02*
X99972304Y-89612755D01*
X99353256Y-88946088D02*
X98972304Y-88946088D01*
X99210399Y-88612755D02*
X99210399Y-89469897D01*
X99210399Y-89469897D02*
X99162780Y-89565136D01*
X99162780Y-89565136D02*
X99067542Y-89612755D01*
X99067542Y-89612755D02*
X98972304Y-89612755D01*
X98638970Y-89612755D02*
X98638970Y-88612755D01*
X98210399Y-89612755D02*
X98210399Y-89088945D01*
X98210399Y-89088945D02*
X98258018Y-88993707D01*
X98258018Y-88993707D02*
X98353256Y-88946088D01*
X98353256Y-88946088D02*
X98496113Y-88946088D01*
X98496113Y-88946088D02*
X98591351Y-88993707D01*
X98591351Y-88993707D02*
X98638970Y-89041326D01*
X97353256Y-89565136D02*
X97448494Y-89612755D01*
X97448494Y-89612755D02*
X97638970Y-89612755D01*
X97638970Y-89612755D02*
X97734208Y-89565136D01*
X97734208Y-89565136D02*
X97781827Y-89469897D01*
X97781827Y-89469897D02*
X97781827Y-89088945D01*
X97781827Y-89088945D02*
X97734208Y-88993707D01*
X97734208Y-88993707D02*
X97638970Y-88946088D01*
X97638970Y-88946088D02*
X97448494Y-88946088D01*
X97448494Y-88946088D02*
X97353256Y-88993707D01*
X97353256Y-88993707D02*
X97305637Y-89088945D01*
X97305637Y-89088945D02*
X97305637Y-89184183D01*
X97305637Y-89184183D02*
X97781827Y-89279421D01*
X96877065Y-89612755D02*
X96877065Y-88946088D01*
X96877065Y-89136564D02*
X96829446Y-89041326D01*
X96829446Y-89041326D02*
X96781827Y-88993707D01*
X96781827Y-88993707D02*
X96686589Y-88946088D01*
X96686589Y-88946088D02*
X96591351Y-88946088D01*
X95496112Y-89612755D02*
X95496112Y-88612755D01*
X95496112Y-88612755D02*
X95115160Y-88612755D01*
X95115160Y-88612755D02*
X95019922Y-88660374D01*
X95019922Y-88660374D02*
X94972303Y-88707993D01*
X94972303Y-88707993D02*
X94924684Y-88803231D01*
X94924684Y-88803231D02*
X94924684Y-88946088D01*
X94924684Y-88946088D02*
X94972303Y-89041326D01*
X94972303Y-89041326D02*
X95019922Y-89088945D01*
X95019922Y-89088945D02*
X95115160Y-89136564D01*
X95115160Y-89136564D02*
X95496112Y-89136564D01*
X94496112Y-89612755D02*
X94496112Y-88946088D01*
X94496112Y-88612755D02*
X94543731Y-88660374D01*
X94543731Y-88660374D02*
X94496112Y-88707993D01*
X94496112Y-88707993D02*
X94448493Y-88660374D01*
X94448493Y-88660374D02*
X94496112Y-88612755D01*
X94496112Y-88612755D02*
X94496112Y-88707993D01*
X93258017Y-89612755D02*
X93258017Y-88612755D01*
X93258017Y-88612755D02*
X92877065Y-88612755D01*
X92877065Y-88612755D02*
X92781827Y-88660374D01*
X92781827Y-88660374D02*
X92734208Y-88707993D01*
X92734208Y-88707993D02*
X92686589Y-88803231D01*
X92686589Y-88803231D02*
X92686589Y-88946088D01*
X92686589Y-88946088D02*
X92734208Y-89041326D01*
X92734208Y-89041326D02*
X92781827Y-89088945D01*
X92781827Y-89088945D02*
X92877065Y-89136564D01*
X92877065Y-89136564D02*
X93258017Y-89136564D01*
X92258017Y-89612755D02*
X92258017Y-88946088D01*
X92258017Y-88612755D02*
X92305636Y-88660374D01*
X92305636Y-88660374D02*
X92258017Y-88707993D01*
X92258017Y-88707993D02*
X92210398Y-88660374D01*
X92210398Y-88660374D02*
X92258017Y-88612755D01*
X92258017Y-88612755D02*
X92258017Y-88707993D01*
X91353256Y-89565136D02*
X91448494Y-89612755D01*
X91448494Y-89612755D02*
X91638970Y-89612755D01*
X91638970Y-89612755D02*
X91734208Y-89565136D01*
X91734208Y-89565136D02*
X91781827Y-89517516D01*
X91781827Y-89517516D02*
X91829446Y-89422278D01*
X91829446Y-89422278D02*
X91829446Y-89136564D01*
X91829446Y-89136564D02*
X91781827Y-89041326D01*
X91781827Y-89041326D02*
X91734208Y-88993707D01*
X91734208Y-88993707D02*
X91638970Y-88946088D01*
X91638970Y-88946088D02*
X91448494Y-88946088D01*
X91448494Y-88946088D02*
X91353256Y-88993707D01*
X90781827Y-89612755D02*
X90877065Y-89565136D01*
X90877065Y-89565136D02*
X90924684Y-89517516D01*
X90924684Y-89517516D02*
X90972303Y-89422278D01*
X90972303Y-89422278D02*
X90972303Y-89136564D01*
X90972303Y-89136564D02*
X90924684Y-89041326D01*
X90924684Y-89041326D02*
X90877065Y-88993707D01*
X90877065Y-88993707D02*
X90781827Y-88946088D01*
X90781827Y-88946088D02*
X90638970Y-88946088D01*
X90638970Y-88946088D02*
X90543732Y-88993707D01*
X90543732Y-88993707D02*
X90496113Y-89041326D01*
X90496113Y-89041326D02*
X90448494Y-89136564D01*
X90448494Y-89136564D02*
X90448494Y-89422278D01*
X90448494Y-89422278D02*
X90496113Y-89517516D01*
X90496113Y-89517516D02*
X90543732Y-89565136D01*
X90543732Y-89565136D02*
X90638970Y-89612755D01*
X90638970Y-89612755D02*
X90781827Y-89612755D01*
X90019922Y-89517516D02*
X89972303Y-89565136D01*
X89972303Y-89565136D02*
X90019922Y-89612755D01*
X90019922Y-89612755D02*
X90067541Y-89565136D01*
X90067541Y-89565136D02*
X90019922Y-89517516D01*
X90019922Y-89517516D02*
X90019922Y-89612755D01*
X90019922Y-89231802D02*
X90067541Y-88660374D01*
X90067541Y-88660374D02*
X90019922Y-88612755D01*
X90019922Y-88612755D02*
X89972303Y-88660374D01*
X89972303Y-88660374D02*
X90019922Y-89231802D01*
X90019922Y-89231802D02*
X90019922Y-88612755D01*
X106353258Y-90222699D02*
X106353258Y-90460794D01*
X106591353Y-90365556D02*
X106353258Y-90460794D01*
X106353258Y-90460794D02*
X106115163Y-90365556D01*
X106496115Y-90651270D02*
X106353258Y-90460794D01*
X106353258Y-90460794D02*
X106210401Y-90651270D01*
X105115162Y-90222699D02*
X104781829Y-91222699D01*
X104781829Y-91222699D02*
X104448496Y-90222699D01*
X103591353Y-90270318D02*
X103686591Y-90222699D01*
X103686591Y-90222699D02*
X103829448Y-90222699D01*
X103829448Y-90222699D02*
X103972305Y-90270318D01*
X103972305Y-90270318D02*
X104067543Y-90365556D01*
X104067543Y-90365556D02*
X104115162Y-90460794D01*
X104115162Y-90460794D02*
X104162781Y-90651270D01*
X104162781Y-90651270D02*
X104162781Y-90794127D01*
X104162781Y-90794127D02*
X104115162Y-90984603D01*
X104115162Y-90984603D02*
X104067543Y-91079841D01*
X104067543Y-91079841D02*
X103972305Y-91175080D01*
X103972305Y-91175080D02*
X103829448Y-91222699D01*
X103829448Y-91222699D02*
X103734210Y-91222699D01*
X103734210Y-91222699D02*
X103591353Y-91175080D01*
X103591353Y-91175080D02*
X103543734Y-91127460D01*
X103543734Y-91127460D02*
X103543734Y-90794127D01*
X103543734Y-90794127D02*
X103734210Y-90794127D01*
X103162781Y-90936984D02*
X102686591Y-90936984D01*
X103258019Y-91222699D02*
X102924686Y-90222699D01*
X102924686Y-90222699D02*
X102591353Y-91222699D01*
X101638971Y-90556032D02*
X101258019Y-90556032D01*
X101496114Y-90222699D02*
X101496114Y-91079841D01*
X101496114Y-91079841D02*
X101448495Y-91175080D01*
X101448495Y-91175080D02*
X101353257Y-91222699D01*
X101353257Y-91222699D02*
X101258019Y-91222699D01*
X100781828Y-91222699D02*
X100877066Y-91175080D01*
X100877066Y-91175080D02*
X100924685Y-91127460D01*
X100924685Y-91127460D02*
X100972304Y-91032222D01*
X100972304Y-91032222D02*
X100972304Y-90746508D01*
X100972304Y-90746508D02*
X100924685Y-90651270D01*
X100924685Y-90651270D02*
X100877066Y-90603651D01*
X100877066Y-90603651D02*
X100781828Y-90556032D01*
X100781828Y-90556032D02*
X100638971Y-90556032D01*
X100638971Y-90556032D02*
X100543733Y-90603651D01*
X100543733Y-90603651D02*
X100496114Y-90651270D01*
X100496114Y-90651270D02*
X100448495Y-90746508D01*
X100448495Y-90746508D02*
X100448495Y-91032222D01*
X100448495Y-91032222D02*
X100496114Y-91127460D01*
X100496114Y-91127460D02*
X100543733Y-91175080D01*
X100543733Y-91175080D02*
X100638971Y-91222699D01*
X100638971Y-91222699D02*
X100781828Y-91222699D01*
X98686590Y-91222699D02*
X99019923Y-90746508D01*
X99258018Y-91222699D02*
X99258018Y-90222699D01*
X99258018Y-90222699D02*
X98877066Y-90222699D01*
X98877066Y-90222699D02*
X98781828Y-90270318D01*
X98781828Y-90270318D02*
X98734209Y-90317937D01*
X98734209Y-90317937D02*
X98686590Y-90413175D01*
X98686590Y-90413175D02*
X98686590Y-90556032D01*
X98686590Y-90556032D02*
X98734209Y-90651270D01*
X98734209Y-90651270D02*
X98781828Y-90698889D01*
X98781828Y-90698889D02*
X98877066Y-90746508D01*
X98877066Y-90746508D02*
X99258018Y-90746508D01*
X97734209Y-90270318D02*
X97829447Y-90222699D01*
X97829447Y-90222699D02*
X97972304Y-90222699D01*
X97972304Y-90222699D02*
X98115161Y-90270318D01*
X98115161Y-90270318D02*
X98210399Y-90365556D01*
X98210399Y-90365556D02*
X98258018Y-90460794D01*
X98258018Y-90460794D02*
X98305637Y-90651270D01*
X98305637Y-90651270D02*
X98305637Y-90794127D01*
X98305637Y-90794127D02*
X98258018Y-90984603D01*
X98258018Y-90984603D02*
X98210399Y-91079841D01*
X98210399Y-91079841D02*
X98115161Y-91175080D01*
X98115161Y-91175080D02*
X97972304Y-91222699D01*
X97972304Y-91222699D02*
X97877066Y-91222699D01*
X97877066Y-91222699D02*
X97734209Y-91175080D01*
X97734209Y-91175080D02*
X97686590Y-91127460D01*
X97686590Y-91127460D02*
X97686590Y-90794127D01*
X97686590Y-90794127D02*
X97877066Y-90794127D01*
X96924685Y-90698889D02*
X96781828Y-90746508D01*
X96781828Y-90746508D02*
X96734209Y-90794127D01*
X96734209Y-90794127D02*
X96686590Y-90889365D01*
X96686590Y-90889365D02*
X96686590Y-91032222D01*
X96686590Y-91032222D02*
X96734209Y-91127460D01*
X96734209Y-91127460D02*
X96781828Y-91175080D01*
X96781828Y-91175080D02*
X96877066Y-91222699D01*
X96877066Y-91222699D02*
X97258018Y-91222699D01*
X97258018Y-91222699D02*
X97258018Y-90222699D01*
X97258018Y-90222699D02*
X96924685Y-90222699D01*
X96924685Y-90222699D02*
X96829447Y-90270318D01*
X96829447Y-90270318D02*
X96781828Y-90317937D01*
X96781828Y-90317937D02*
X96734209Y-90413175D01*
X96734209Y-90413175D02*
X96734209Y-90508413D01*
X96734209Y-90508413D02*
X96781828Y-90603651D01*
X96781828Y-90603651D02*
X96829447Y-90651270D01*
X96829447Y-90651270D02*
X96924685Y-90698889D01*
X96924685Y-90698889D02*
X97258018Y-90698889D01*
X106353258Y-91832643D02*
X106353258Y-92070738D01*
X106591353Y-91975500D02*
X106353258Y-92070738D01*
X106353258Y-92070738D02*
X106115163Y-91975500D01*
X106496115Y-92261214D02*
X106353258Y-92070738D01*
X106353258Y-92070738D02*
X106210401Y-92261214D01*
X104972305Y-92308833D02*
X104638972Y-92308833D01*
X104496115Y-92832643D02*
X104972305Y-92832643D01*
X104972305Y-92832643D02*
X104972305Y-91832643D01*
X104972305Y-91832643D02*
X104496115Y-91832643D01*
X104162781Y-92832643D02*
X103638972Y-92165976D01*
X104162781Y-92165976D02*
X103638972Y-92832643D01*
X103400876Y-92165976D02*
X103019924Y-92165976D01*
X103258019Y-91832643D02*
X103258019Y-92689785D01*
X103258019Y-92689785D02*
X103210400Y-92785024D01*
X103210400Y-92785024D02*
X103115162Y-92832643D01*
X103115162Y-92832643D02*
X103019924Y-92832643D01*
X102686590Y-92832643D02*
X102686590Y-92165976D01*
X102686590Y-92356452D02*
X102638971Y-92261214D01*
X102638971Y-92261214D02*
X102591352Y-92213595D01*
X102591352Y-92213595D02*
X102496114Y-92165976D01*
X102496114Y-92165976D02*
X102400876Y-92165976D01*
X101638971Y-92832643D02*
X101638971Y-92308833D01*
X101638971Y-92308833D02*
X101686590Y-92213595D01*
X101686590Y-92213595D02*
X101781828Y-92165976D01*
X101781828Y-92165976D02*
X101972304Y-92165976D01*
X101972304Y-92165976D02*
X102067542Y-92213595D01*
X101638971Y-92785024D02*
X101734209Y-92832643D01*
X101734209Y-92832643D02*
X101972304Y-92832643D01*
X101972304Y-92832643D02*
X102067542Y-92785024D01*
X102067542Y-92785024D02*
X102115161Y-92689785D01*
X102115161Y-92689785D02*
X102115161Y-92594547D01*
X102115161Y-92594547D02*
X102067542Y-92499309D01*
X102067542Y-92499309D02*
X101972304Y-92451690D01*
X101972304Y-92451690D02*
X101734209Y-92451690D01*
X101734209Y-92451690D02*
X101638971Y-92404071D01*
X100734209Y-92785024D02*
X100829447Y-92832643D01*
X100829447Y-92832643D02*
X101019923Y-92832643D01*
X101019923Y-92832643D02*
X101115161Y-92785024D01*
X101115161Y-92785024D02*
X101162780Y-92737404D01*
X101162780Y-92737404D02*
X101210399Y-92642166D01*
X101210399Y-92642166D02*
X101210399Y-92356452D01*
X101210399Y-92356452D02*
X101162780Y-92261214D01*
X101162780Y-92261214D02*
X101115161Y-92213595D01*
X101115161Y-92213595D02*
X101019923Y-92165976D01*
X101019923Y-92165976D02*
X100829447Y-92165976D01*
X100829447Y-92165976D02*
X100734209Y-92213595D01*
X100448494Y-92165976D02*
X100067542Y-92165976D01*
X100305637Y-91832643D02*
X100305637Y-92689785D01*
X100305637Y-92689785D02*
X100258018Y-92785024D01*
X100258018Y-92785024D02*
X100162780Y-92832643D01*
X100162780Y-92832643D02*
X100067542Y-92832643D01*
X99781827Y-92785024D02*
X99686589Y-92832643D01*
X99686589Y-92832643D02*
X99496113Y-92832643D01*
X99496113Y-92832643D02*
X99400875Y-92785024D01*
X99400875Y-92785024D02*
X99353256Y-92689785D01*
X99353256Y-92689785D02*
X99353256Y-92642166D01*
X99353256Y-92642166D02*
X99400875Y-92546928D01*
X99400875Y-92546928D02*
X99496113Y-92499309D01*
X99496113Y-92499309D02*
X99638970Y-92499309D01*
X99638970Y-92499309D02*
X99734208Y-92451690D01*
X99734208Y-92451690D02*
X99781827Y-92356452D01*
X99781827Y-92356452D02*
X99781827Y-92308833D01*
X99781827Y-92308833D02*
X99734208Y-92213595D01*
X99734208Y-92213595D02*
X99638970Y-92165976D01*
X99638970Y-92165976D02*
X99496113Y-92165976D01*
X99496113Y-92165976D02*
X99400875Y-92213595D01*
X97734208Y-92832643D02*
X97734208Y-92308833D01*
X97734208Y-92308833D02*
X97781827Y-92213595D01*
X97781827Y-92213595D02*
X97877065Y-92165976D01*
X97877065Y-92165976D02*
X98067541Y-92165976D01*
X98067541Y-92165976D02*
X98162779Y-92213595D01*
X97734208Y-92785024D02*
X97829446Y-92832643D01*
X97829446Y-92832643D02*
X98067541Y-92832643D01*
X98067541Y-92832643D02*
X98162779Y-92785024D01*
X98162779Y-92785024D02*
X98210398Y-92689785D01*
X98210398Y-92689785D02*
X98210398Y-92594547D01*
X98210398Y-92594547D02*
X98162779Y-92499309D01*
X98162779Y-92499309D02*
X98067541Y-92451690D01*
X98067541Y-92451690D02*
X97829446Y-92451690D01*
X97829446Y-92451690D02*
X97734208Y-92404071D01*
X97258017Y-92165976D02*
X97258017Y-92832643D01*
X97258017Y-92261214D02*
X97210398Y-92213595D01*
X97210398Y-92213595D02*
X97115160Y-92165976D01*
X97115160Y-92165976D02*
X96972303Y-92165976D01*
X96972303Y-92165976D02*
X96877065Y-92213595D01*
X96877065Y-92213595D02*
X96829446Y-92308833D01*
X96829446Y-92308833D02*
X96829446Y-92832643D01*
X95924684Y-92832643D02*
X95924684Y-91832643D01*
X95924684Y-92785024D02*
X96019922Y-92832643D01*
X96019922Y-92832643D02*
X96210398Y-92832643D01*
X96210398Y-92832643D02*
X96305636Y-92785024D01*
X96305636Y-92785024D02*
X96353255Y-92737404D01*
X96353255Y-92737404D02*
X96400874Y-92642166D01*
X96400874Y-92642166D02*
X96400874Y-92356452D01*
X96400874Y-92356452D02*
X96353255Y-92261214D01*
X96353255Y-92261214D02*
X96305636Y-92213595D01*
X96305636Y-92213595D02*
X96210398Y-92165976D01*
X96210398Y-92165976D02*
X96019922Y-92165976D01*
X96019922Y-92165976D02*
X95924684Y-92213595D01*
X94258017Y-92785024D02*
X94353255Y-92832643D01*
X94353255Y-92832643D02*
X94543731Y-92832643D01*
X94543731Y-92832643D02*
X94638969Y-92785024D01*
X94638969Y-92785024D02*
X94686588Y-92737404D01*
X94686588Y-92737404D02*
X94734207Y-92642166D01*
X94734207Y-92642166D02*
X94734207Y-92356452D01*
X94734207Y-92356452D02*
X94686588Y-92261214D01*
X94686588Y-92261214D02*
X94638969Y-92213595D01*
X94638969Y-92213595D02*
X94543731Y-92165976D01*
X94543731Y-92165976D02*
X94353255Y-92165976D01*
X94353255Y-92165976D02*
X94258017Y-92213595D01*
X93686588Y-92832643D02*
X93781826Y-92785024D01*
X93781826Y-92785024D02*
X93829445Y-92737404D01*
X93829445Y-92737404D02*
X93877064Y-92642166D01*
X93877064Y-92642166D02*
X93877064Y-92356452D01*
X93877064Y-92356452D02*
X93829445Y-92261214D01*
X93829445Y-92261214D02*
X93781826Y-92213595D01*
X93781826Y-92213595D02*
X93686588Y-92165976D01*
X93686588Y-92165976D02*
X93543731Y-92165976D01*
X93543731Y-92165976D02*
X93448493Y-92213595D01*
X93448493Y-92213595D02*
X93400874Y-92261214D01*
X93400874Y-92261214D02*
X93353255Y-92356452D01*
X93353255Y-92356452D02*
X93353255Y-92642166D01*
X93353255Y-92642166D02*
X93400874Y-92737404D01*
X93400874Y-92737404D02*
X93448493Y-92785024D01*
X93448493Y-92785024D02*
X93543731Y-92832643D01*
X93543731Y-92832643D02*
X93686588Y-92832643D01*
X92924683Y-92832643D02*
X92924683Y-92165976D01*
X92924683Y-92261214D02*
X92877064Y-92213595D01*
X92877064Y-92213595D02*
X92781826Y-92165976D01*
X92781826Y-92165976D02*
X92638969Y-92165976D01*
X92638969Y-92165976D02*
X92543731Y-92213595D01*
X92543731Y-92213595D02*
X92496112Y-92308833D01*
X92496112Y-92308833D02*
X92496112Y-92832643D01*
X92496112Y-92308833D02*
X92448493Y-92213595D01*
X92448493Y-92213595D02*
X92353255Y-92165976D01*
X92353255Y-92165976D02*
X92210398Y-92165976D01*
X92210398Y-92165976D02*
X92115159Y-92213595D01*
X92115159Y-92213595D02*
X92067540Y-92308833D01*
X92067540Y-92308833D02*
X92067540Y-92832643D01*
X91591350Y-92832643D02*
X91591350Y-91832643D01*
X91591350Y-92213595D02*
X91496112Y-92165976D01*
X91496112Y-92165976D02*
X91305636Y-92165976D01*
X91305636Y-92165976D02*
X91210398Y-92213595D01*
X91210398Y-92213595D02*
X91162779Y-92261214D01*
X91162779Y-92261214D02*
X91115160Y-92356452D01*
X91115160Y-92356452D02*
X91115160Y-92642166D01*
X91115160Y-92642166D02*
X91162779Y-92737404D01*
X91162779Y-92737404D02*
X91210398Y-92785024D01*
X91210398Y-92785024D02*
X91305636Y-92832643D01*
X91305636Y-92832643D02*
X91496112Y-92832643D01*
X91496112Y-92832643D02*
X91591350Y-92785024D01*
X90686588Y-92832643D02*
X90686588Y-92165976D01*
X90686588Y-91832643D02*
X90734207Y-91880262D01*
X90734207Y-91880262D02*
X90686588Y-91927881D01*
X90686588Y-91927881D02*
X90638969Y-91880262D01*
X90638969Y-91880262D02*
X90686588Y-91832643D01*
X90686588Y-91832643D02*
X90686588Y-91927881D01*
X90210398Y-92165976D02*
X90210398Y-92832643D01*
X90210398Y-92261214D02*
X90162779Y-92213595D01*
X90162779Y-92213595D02*
X90067541Y-92165976D01*
X90067541Y-92165976D02*
X89924684Y-92165976D01*
X89924684Y-92165976D02*
X89829446Y-92213595D01*
X89829446Y-92213595D02*
X89781827Y-92308833D01*
X89781827Y-92308833D02*
X89781827Y-92832643D01*
X88924684Y-92785024D02*
X89019922Y-92832643D01*
X89019922Y-92832643D02*
X89210398Y-92832643D01*
X89210398Y-92832643D02*
X89305636Y-92785024D01*
X89305636Y-92785024D02*
X89353255Y-92689785D01*
X89353255Y-92689785D02*
X89353255Y-92308833D01*
X89353255Y-92308833D02*
X89305636Y-92213595D01*
X89305636Y-92213595D02*
X89210398Y-92165976D01*
X89210398Y-92165976D02*
X89019922Y-92165976D01*
X89019922Y-92165976D02*
X88924684Y-92213595D01*
X88924684Y-92213595D02*
X88877065Y-92308833D01*
X88877065Y-92308833D02*
X88877065Y-92404071D01*
X88877065Y-92404071D02*
X89353255Y-92499309D01*
X88496112Y-92785024D02*
X88400874Y-92832643D01*
X88400874Y-92832643D02*
X88210398Y-92832643D01*
X88210398Y-92832643D02*
X88115160Y-92785024D01*
X88115160Y-92785024D02*
X88067541Y-92689785D01*
X88067541Y-92689785D02*
X88067541Y-92642166D01*
X88067541Y-92642166D02*
X88115160Y-92546928D01*
X88115160Y-92546928D02*
X88210398Y-92499309D01*
X88210398Y-92499309D02*
X88353255Y-92499309D01*
X88353255Y-92499309D02*
X88448493Y-92451690D01*
X88448493Y-92451690D02*
X88496112Y-92356452D01*
X88496112Y-92356452D02*
X88496112Y-92308833D01*
X88496112Y-92308833D02*
X88448493Y-92213595D01*
X88448493Y-92213595D02*
X88353255Y-92165976D01*
X88353255Y-92165976D02*
X88210398Y-92165976D01*
X88210398Y-92165976D02*
X88115160Y-92213595D01*
X104972305Y-94442587D02*
X104972305Y-93442587D01*
X104543734Y-94442587D02*
X104543734Y-93918777D01*
X104543734Y-93918777D02*
X104591353Y-93823539D01*
X104591353Y-93823539D02*
X104686591Y-93775920D01*
X104686591Y-93775920D02*
X104829448Y-93775920D01*
X104829448Y-93775920D02*
X104924686Y-93823539D01*
X104924686Y-93823539D02*
X104972305Y-93871158D01*
X104067543Y-94061634D02*
X103305639Y-94061634D01*
X103686591Y-94442587D02*
X103686591Y-93680682D01*
X102924686Y-93775920D02*
X102686591Y-94442587D01*
X102686591Y-94442587D02*
X102448496Y-93775920D01*
X101353257Y-94394968D02*
X101258019Y-94442587D01*
X101258019Y-94442587D02*
X101067543Y-94442587D01*
X101067543Y-94442587D02*
X100972305Y-94394968D01*
X100972305Y-94394968D02*
X100924686Y-94299729D01*
X100924686Y-94299729D02*
X100924686Y-94252110D01*
X100924686Y-94252110D02*
X100972305Y-94156872D01*
X100972305Y-94156872D02*
X101067543Y-94109253D01*
X101067543Y-94109253D02*
X101210400Y-94109253D01*
X101210400Y-94109253D02*
X101305638Y-94061634D01*
X101305638Y-94061634D02*
X101353257Y-93966396D01*
X101353257Y-93966396D02*
X101353257Y-93918777D01*
X101353257Y-93918777D02*
X101305638Y-93823539D01*
X101305638Y-93823539D02*
X101210400Y-93775920D01*
X101210400Y-93775920D02*
X101067543Y-93775920D01*
X101067543Y-93775920D02*
X100972305Y-93823539D01*
X100591352Y-93775920D02*
X100353257Y-94442587D01*
X100115162Y-93775920D02*
X100353257Y-94442587D01*
X100353257Y-94442587D02*
X100448495Y-94680682D01*
X100448495Y-94680682D02*
X100496114Y-94728301D01*
X100496114Y-94728301D02*
X100591352Y-94775920D01*
X99734209Y-93775920D02*
X99734209Y-94442587D01*
X99734209Y-93871158D02*
X99686590Y-93823539D01*
X99686590Y-93823539D02*
X99591352Y-93775920D01*
X99591352Y-93775920D02*
X99448495Y-93775920D01*
X99448495Y-93775920D02*
X99353257Y-93823539D01*
X99353257Y-93823539D02*
X99305638Y-93918777D01*
X99305638Y-93918777D02*
X99305638Y-94442587D01*
X98400876Y-94394968D02*
X98496114Y-94442587D01*
X98496114Y-94442587D02*
X98686590Y-94442587D01*
X98686590Y-94442587D02*
X98781828Y-94394968D01*
X98781828Y-94394968D02*
X98829447Y-94347348D01*
X98829447Y-94347348D02*
X98877066Y-94252110D01*
X98877066Y-94252110D02*
X98877066Y-93966396D01*
X98877066Y-93966396D02*
X98829447Y-93871158D01*
X98829447Y-93871158D02*
X98781828Y-93823539D01*
X98781828Y-93823539D02*
X98686590Y-93775920D01*
X98686590Y-93775920D02*
X98496114Y-93775920D01*
X98496114Y-93775920D02*
X98400876Y-93823539D01*
X97210399Y-94442587D02*
X97210399Y-93775920D01*
X97210399Y-93442587D02*
X97258018Y-93490206D01*
X97258018Y-93490206D02*
X97210399Y-93537825D01*
X97210399Y-93537825D02*
X97162780Y-93490206D01*
X97162780Y-93490206D02*
X97210399Y-93442587D01*
X97210399Y-93442587D02*
X97210399Y-93537825D01*
X96734209Y-93775920D02*
X96734209Y-94442587D01*
X96734209Y-93871158D02*
X96686590Y-93823539D01*
X96686590Y-93823539D02*
X96591352Y-93775920D01*
X96591352Y-93775920D02*
X96448495Y-93775920D01*
X96448495Y-93775920D02*
X96353257Y-93823539D01*
X96353257Y-93823539D02*
X96305638Y-93918777D01*
X96305638Y-93918777D02*
X96305638Y-94442587D01*
X95972304Y-93775920D02*
X95591352Y-93775920D01*
X95829447Y-93442587D02*
X95829447Y-94299729D01*
X95829447Y-94299729D02*
X95781828Y-94394968D01*
X95781828Y-94394968D02*
X95686590Y-94442587D01*
X95686590Y-94442587D02*
X95591352Y-94442587D01*
X95115161Y-94442587D02*
X95210399Y-94394968D01*
X95210399Y-94394968D02*
X95258018Y-94347348D01*
X95258018Y-94347348D02*
X95305637Y-94252110D01*
X95305637Y-94252110D02*
X95305637Y-93966396D01*
X95305637Y-93966396D02*
X95258018Y-93871158D01*
X95258018Y-93871158D02*
X95210399Y-93823539D01*
X95210399Y-93823539D02*
X95115161Y-93775920D01*
X95115161Y-93775920D02*
X94972304Y-93775920D01*
X94972304Y-93775920D02*
X94877066Y-93823539D01*
X94877066Y-93823539D02*
X94829447Y-93871158D01*
X94829447Y-93871158D02*
X94781828Y-93966396D01*
X94781828Y-93966396D02*
X94781828Y-94252110D01*
X94781828Y-94252110D02*
X94829447Y-94347348D01*
X94829447Y-94347348D02*
X94877066Y-94394968D01*
X94877066Y-94394968D02*
X94972304Y-94442587D01*
X94972304Y-94442587D02*
X95115161Y-94442587D01*
X93162780Y-94394968D02*
X93258018Y-94442587D01*
X93258018Y-94442587D02*
X93448494Y-94442587D01*
X93448494Y-94442587D02*
X93543732Y-94394968D01*
X93543732Y-94394968D02*
X93591351Y-94347348D01*
X93591351Y-94347348D02*
X93638970Y-94252110D01*
X93638970Y-94252110D02*
X93638970Y-93966396D01*
X93638970Y-93966396D02*
X93591351Y-93871158D01*
X93591351Y-93871158D02*
X93543732Y-93823539D01*
X93543732Y-93823539D02*
X93448494Y-93775920D01*
X93448494Y-93775920D02*
X93258018Y-93775920D01*
X93258018Y-93775920D02*
X93162780Y-93823539D01*
X92781827Y-94394968D02*
X92686589Y-94442587D01*
X92686589Y-94442587D02*
X92496113Y-94442587D01*
X92496113Y-94442587D02*
X92400875Y-94394968D01*
X92400875Y-94394968D02*
X92353256Y-94299729D01*
X92353256Y-94299729D02*
X92353256Y-94252110D01*
X92353256Y-94252110D02*
X92400875Y-94156872D01*
X92400875Y-94156872D02*
X92496113Y-94109253D01*
X92496113Y-94109253D02*
X92638970Y-94109253D01*
X92638970Y-94109253D02*
X92734208Y-94061634D01*
X92734208Y-94061634D02*
X92781827Y-93966396D01*
X92781827Y-93966396D02*
X92781827Y-93918777D01*
X92781827Y-93918777D02*
X92734208Y-93823539D01*
X92734208Y-93823539D02*
X92638970Y-93775920D01*
X92638970Y-93775920D02*
X92496113Y-93775920D01*
X92496113Y-93775920D02*
X92400875Y-93823539D01*
X92019922Y-93775920D02*
X91781827Y-94442587D01*
X91543732Y-93775920D02*
X91781827Y-94442587D01*
X91781827Y-94442587D02*
X91877065Y-94680682D01*
X91877065Y-94680682D02*
X91924684Y-94728301D01*
X91924684Y-94728301D02*
X92019922Y-94775920D01*
X91162779Y-93775920D02*
X91162779Y-94442587D01*
X91162779Y-93871158D02*
X91115160Y-93823539D01*
X91115160Y-93823539D02*
X91019922Y-93775920D01*
X91019922Y-93775920D02*
X90877065Y-93775920D01*
X90877065Y-93775920D02*
X90781827Y-93823539D01*
X90781827Y-93823539D02*
X90734208Y-93918777D01*
X90734208Y-93918777D02*
X90734208Y-94442587D01*
X89829446Y-94394968D02*
X89924684Y-94442587D01*
X89924684Y-94442587D02*
X90115160Y-94442587D01*
X90115160Y-94442587D02*
X90210398Y-94394968D01*
X90210398Y-94394968D02*
X90258017Y-94347348D01*
X90258017Y-94347348D02*
X90305636Y-94252110D01*
X90305636Y-94252110D02*
X90305636Y-93966396D01*
X90305636Y-93966396D02*
X90258017Y-93871158D01*
X90258017Y-93871158D02*
X90210398Y-93823539D01*
X90210398Y-93823539D02*
X90115160Y-93775920D01*
X90115160Y-93775920D02*
X89924684Y-93775920D01*
X89924684Y-93775920D02*
X89829446Y-93823539D01*
X106353258Y-95052531D02*
X106353258Y-95290626D01*
X106591353Y-95195388D02*
X106353258Y-95290626D01*
X106353258Y-95290626D02*
X106115163Y-95195388D01*
X106496115Y-95481102D02*
X106353258Y-95290626D01*
X106353258Y-95290626D02*
X106210401Y-95481102D01*
X105019924Y-96004912D02*
X104877067Y-96052531D01*
X104877067Y-96052531D02*
X104638972Y-96052531D01*
X104638972Y-96052531D02*
X104543734Y-96004912D01*
X104543734Y-96004912D02*
X104496115Y-95957292D01*
X104496115Y-95957292D02*
X104448496Y-95862054D01*
X104448496Y-95862054D02*
X104448496Y-95766816D01*
X104448496Y-95766816D02*
X104496115Y-95671578D01*
X104496115Y-95671578D02*
X104543734Y-95623959D01*
X104543734Y-95623959D02*
X104638972Y-95576340D01*
X104638972Y-95576340D02*
X104829448Y-95528721D01*
X104829448Y-95528721D02*
X104924686Y-95481102D01*
X104924686Y-95481102D02*
X104972305Y-95433483D01*
X104972305Y-95433483D02*
X105019924Y-95338245D01*
X105019924Y-95338245D02*
X105019924Y-95243007D01*
X105019924Y-95243007D02*
X104972305Y-95147769D01*
X104972305Y-95147769D02*
X104924686Y-95100150D01*
X104924686Y-95100150D02*
X104829448Y-95052531D01*
X104829448Y-95052531D02*
X104591353Y-95052531D01*
X104591353Y-95052531D02*
X104448496Y-95100150D01*
X104019924Y-96052531D02*
X104019924Y-95385864D01*
X104019924Y-95481102D02*
X103972305Y-95433483D01*
X103972305Y-95433483D02*
X103877067Y-95385864D01*
X103877067Y-95385864D02*
X103734210Y-95385864D01*
X103734210Y-95385864D02*
X103638972Y-95433483D01*
X103638972Y-95433483D02*
X103591353Y-95528721D01*
X103591353Y-95528721D02*
X103591353Y-96052531D01*
X103591353Y-95528721D02*
X103543734Y-95433483D01*
X103543734Y-95433483D02*
X103448496Y-95385864D01*
X103448496Y-95385864D02*
X103305639Y-95385864D01*
X103305639Y-95385864D02*
X103210400Y-95433483D01*
X103210400Y-95433483D02*
X103162781Y-95528721D01*
X103162781Y-95528721D02*
X103162781Y-96052531D01*
X102258020Y-96052531D02*
X102258020Y-95528721D01*
X102258020Y-95528721D02*
X102305639Y-95433483D01*
X102305639Y-95433483D02*
X102400877Y-95385864D01*
X102400877Y-95385864D02*
X102591353Y-95385864D01*
X102591353Y-95385864D02*
X102686591Y-95433483D01*
X102258020Y-96004912D02*
X102353258Y-96052531D01*
X102353258Y-96052531D02*
X102591353Y-96052531D01*
X102591353Y-96052531D02*
X102686591Y-96004912D01*
X102686591Y-96004912D02*
X102734210Y-95909673D01*
X102734210Y-95909673D02*
X102734210Y-95814435D01*
X102734210Y-95814435D02*
X102686591Y-95719197D01*
X102686591Y-95719197D02*
X102591353Y-95671578D01*
X102591353Y-95671578D02*
X102353258Y-95671578D01*
X102353258Y-95671578D02*
X102258020Y-95623959D01*
X101638972Y-96052531D02*
X101734210Y-96004912D01*
X101734210Y-96004912D02*
X101781829Y-95909673D01*
X101781829Y-95909673D02*
X101781829Y-95052531D01*
X101115162Y-96052531D02*
X101210400Y-96004912D01*
X101210400Y-96004912D02*
X101258019Y-95909673D01*
X101258019Y-95909673D02*
X101258019Y-95052531D01*
X100115161Y-95385864D02*
X99734209Y-95385864D01*
X99972304Y-96052531D02*
X99972304Y-95195388D01*
X99972304Y-95195388D02*
X99924685Y-95100150D01*
X99924685Y-95100150D02*
X99829447Y-95052531D01*
X99829447Y-95052531D02*
X99734209Y-95052531D01*
X99258018Y-96052531D02*
X99353256Y-96004912D01*
X99353256Y-96004912D02*
X99400875Y-95957292D01*
X99400875Y-95957292D02*
X99448494Y-95862054D01*
X99448494Y-95862054D02*
X99448494Y-95576340D01*
X99448494Y-95576340D02*
X99400875Y-95481102D01*
X99400875Y-95481102D02*
X99353256Y-95433483D01*
X99353256Y-95433483D02*
X99258018Y-95385864D01*
X99258018Y-95385864D02*
X99115161Y-95385864D01*
X99115161Y-95385864D02*
X99019923Y-95433483D01*
X99019923Y-95433483D02*
X98972304Y-95481102D01*
X98972304Y-95481102D02*
X98924685Y-95576340D01*
X98924685Y-95576340D02*
X98924685Y-95862054D01*
X98924685Y-95862054D02*
X98972304Y-95957292D01*
X98972304Y-95957292D02*
X99019923Y-96004912D01*
X99019923Y-96004912D02*
X99115161Y-96052531D01*
X99115161Y-96052531D02*
X99258018Y-96052531D01*
X98353256Y-96052531D02*
X98448494Y-96004912D01*
X98448494Y-96004912D02*
X98496113Y-95957292D01*
X98496113Y-95957292D02*
X98543732Y-95862054D01*
X98543732Y-95862054D02*
X98543732Y-95576340D01*
X98543732Y-95576340D02*
X98496113Y-95481102D01*
X98496113Y-95481102D02*
X98448494Y-95433483D01*
X98448494Y-95433483D02*
X98353256Y-95385864D01*
X98353256Y-95385864D02*
X98210399Y-95385864D01*
X98210399Y-95385864D02*
X98115161Y-95433483D01*
X98115161Y-95433483D02*
X98067542Y-95481102D01*
X98067542Y-95481102D02*
X98019923Y-95576340D01*
X98019923Y-95576340D02*
X98019923Y-95862054D01*
X98019923Y-95862054D02*
X98067542Y-95957292D01*
X98067542Y-95957292D02*
X98115161Y-96004912D01*
X98115161Y-96004912D02*
X98210399Y-96052531D01*
X98210399Y-96052531D02*
X98353256Y-96052531D01*
X97734208Y-95385864D02*
X97353256Y-95385864D01*
X97591351Y-95052531D02*
X97591351Y-95909673D01*
X97591351Y-95909673D02*
X97543732Y-96004912D01*
X97543732Y-96004912D02*
X97448494Y-96052531D01*
X97448494Y-96052531D02*
X97353256Y-96052531D01*
X97019922Y-95385864D02*
X97019922Y-96385864D01*
X97019922Y-95433483D02*
X96924684Y-95385864D01*
X96924684Y-95385864D02*
X96734208Y-95385864D01*
X96734208Y-95385864D02*
X96638970Y-95433483D01*
X96638970Y-95433483D02*
X96591351Y-95481102D01*
X96591351Y-95481102D02*
X96543732Y-95576340D01*
X96543732Y-95576340D02*
X96543732Y-95862054D01*
X96543732Y-95862054D02*
X96591351Y-95957292D01*
X96591351Y-95957292D02*
X96638970Y-96004912D01*
X96638970Y-96004912D02*
X96734208Y-96052531D01*
X96734208Y-96052531D02*
X96924684Y-96052531D01*
X96924684Y-96052531D02*
X97019922Y-96004912D01*
X96115160Y-96052531D02*
X96115160Y-95385864D01*
X96115160Y-95576340D02*
X96067541Y-95481102D01*
X96067541Y-95481102D02*
X96019922Y-95433483D01*
X96019922Y-95433483D02*
X95924684Y-95385864D01*
X95924684Y-95385864D02*
X95829446Y-95385864D01*
X95496112Y-96052531D02*
X95496112Y-95385864D01*
X95496112Y-95052531D02*
X95543731Y-95100150D01*
X95543731Y-95100150D02*
X95496112Y-95147769D01*
X95496112Y-95147769D02*
X95448493Y-95100150D01*
X95448493Y-95100150D02*
X95496112Y-95052531D01*
X95496112Y-95052531D02*
X95496112Y-95147769D01*
X95019922Y-95385864D02*
X95019922Y-96052531D01*
X95019922Y-95481102D02*
X94972303Y-95433483D01*
X94972303Y-95433483D02*
X94877065Y-95385864D01*
X94877065Y-95385864D02*
X94734208Y-95385864D01*
X94734208Y-95385864D02*
X94638970Y-95433483D01*
X94638970Y-95433483D02*
X94591351Y-95528721D01*
X94591351Y-95528721D02*
X94591351Y-96052531D01*
X94258017Y-95385864D02*
X93877065Y-95385864D01*
X94115160Y-95052531D02*
X94115160Y-95909673D01*
X94115160Y-95909673D02*
X94067541Y-96004912D01*
X94067541Y-96004912D02*
X93972303Y-96052531D01*
X93972303Y-96052531D02*
X93877065Y-96052531D01*
X106353258Y-96662475D02*
X106353258Y-96900570D01*
X106591353Y-96805332D02*
X106353258Y-96900570D01*
X106353258Y-96900570D02*
X106115163Y-96805332D01*
X106496115Y-97091046D02*
X106353258Y-96900570D01*
X106353258Y-96900570D02*
X106210401Y-97091046D01*
X105019924Y-97614856D02*
X104877067Y-97662475D01*
X104877067Y-97662475D02*
X104638972Y-97662475D01*
X104638972Y-97662475D02*
X104543734Y-97614856D01*
X104543734Y-97614856D02*
X104496115Y-97567236D01*
X104496115Y-97567236D02*
X104448496Y-97471998D01*
X104448496Y-97471998D02*
X104448496Y-97376760D01*
X104448496Y-97376760D02*
X104496115Y-97281522D01*
X104496115Y-97281522D02*
X104543734Y-97233903D01*
X104543734Y-97233903D02*
X104638972Y-97186284D01*
X104638972Y-97186284D02*
X104829448Y-97138665D01*
X104829448Y-97138665D02*
X104924686Y-97091046D01*
X104924686Y-97091046D02*
X104972305Y-97043427D01*
X104972305Y-97043427D02*
X105019924Y-96948189D01*
X105019924Y-96948189D02*
X105019924Y-96852951D01*
X105019924Y-96852951D02*
X104972305Y-96757713D01*
X104972305Y-96757713D02*
X104924686Y-96710094D01*
X104924686Y-96710094D02*
X104829448Y-96662475D01*
X104829448Y-96662475D02*
X104591353Y-96662475D01*
X104591353Y-96662475D02*
X104448496Y-96710094D01*
X103877067Y-97662475D02*
X103972305Y-97614856D01*
X103972305Y-97614856D02*
X104019924Y-97567236D01*
X104019924Y-97567236D02*
X104067543Y-97471998D01*
X104067543Y-97471998D02*
X104067543Y-97186284D01*
X104067543Y-97186284D02*
X104019924Y-97091046D01*
X104019924Y-97091046D02*
X103972305Y-97043427D01*
X103972305Y-97043427D02*
X103877067Y-96995808D01*
X103877067Y-96995808D02*
X103734210Y-96995808D01*
X103734210Y-96995808D02*
X103638972Y-97043427D01*
X103638972Y-97043427D02*
X103591353Y-97091046D01*
X103591353Y-97091046D02*
X103543734Y-97186284D01*
X103543734Y-97186284D02*
X103543734Y-97471998D01*
X103543734Y-97471998D02*
X103591353Y-97567236D01*
X103591353Y-97567236D02*
X103638972Y-97614856D01*
X103638972Y-97614856D02*
X103734210Y-97662475D01*
X103734210Y-97662475D02*
X103877067Y-97662475D01*
X103258019Y-96995808D02*
X102877067Y-96995808D01*
X103115162Y-97662475D02*
X103115162Y-96805332D01*
X103115162Y-96805332D02*
X103067543Y-96710094D01*
X103067543Y-96710094D02*
X102972305Y-96662475D01*
X102972305Y-96662475D02*
X102877067Y-96662475D01*
X102686590Y-96995808D02*
X102305638Y-96995808D01*
X102543733Y-96662475D02*
X102543733Y-97519617D01*
X102543733Y-97519617D02*
X102496114Y-97614856D01*
X102496114Y-97614856D02*
X102400876Y-97662475D01*
X102400876Y-97662475D02*
X102305638Y-97662475D01*
X102067542Y-96995808D02*
X101877066Y-97662475D01*
X101877066Y-97662475D02*
X101686590Y-97186284D01*
X101686590Y-97186284D02*
X101496114Y-97662475D01*
X101496114Y-97662475D02*
X101305638Y-96995808D01*
X100496114Y-97662475D02*
X100496114Y-97138665D01*
X100496114Y-97138665D02*
X100543733Y-97043427D01*
X100543733Y-97043427D02*
X100638971Y-96995808D01*
X100638971Y-96995808D02*
X100829447Y-96995808D01*
X100829447Y-96995808D02*
X100924685Y-97043427D01*
X100496114Y-97614856D02*
X100591352Y-97662475D01*
X100591352Y-97662475D02*
X100829447Y-97662475D01*
X100829447Y-97662475D02*
X100924685Y-97614856D01*
X100924685Y-97614856D02*
X100972304Y-97519617D01*
X100972304Y-97519617D02*
X100972304Y-97424379D01*
X100972304Y-97424379D02*
X100924685Y-97329141D01*
X100924685Y-97329141D02*
X100829447Y-97281522D01*
X100829447Y-97281522D02*
X100591352Y-97281522D01*
X100591352Y-97281522D02*
X100496114Y-97233903D01*
X100019923Y-97662475D02*
X100019923Y-96995808D01*
X100019923Y-97186284D02*
X99972304Y-97091046D01*
X99972304Y-97091046D02*
X99924685Y-97043427D01*
X99924685Y-97043427D02*
X99829447Y-96995808D01*
X99829447Y-96995808D02*
X99734209Y-96995808D01*
X99019923Y-97614856D02*
X99115161Y-97662475D01*
X99115161Y-97662475D02*
X99305637Y-97662475D01*
X99305637Y-97662475D02*
X99400875Y-97614856D01*
X99400875Y-97614856D02*
X99448494Y-97519617D01*
X99448494Y-97519617D02*
X99448494Y-97138665D01*
X99448494Y-97138665D02*
X99400875Y-97043427D01*
X99400875Y-97043427D02*
X99305637Y-96995808D01*
X99305637Y-96995808D02*
X99115161Y-96995808D01*
X99115161Y-96995808D02*
X99019923Y-97043427D01*
X99019923Y-97043427D02*
X98972304Y-97138665D01*
X98972304Y-97138665D02*
X98972304Y-97233903D01*
X98972304Y-97233903D02*
X99448494Y-97329141D01*
X97781827Y-97662475D02*
X97781827Y-96662475D01*
X97781827Y-97043427D02*
X97686589Y-96995808D01*
X97686589Y-96995808D02*
X97496113Y-96995808D01*
X97496113Y-96995808D02*
X97400875Y-97043427D01*
X97400875Y-97043427D02*
X97353256Y-97091046D01*
X97353256Y-97091046D02*
X97305637Y-97186284D01*
X97305637Y-97186284D02*
X97305637Y-97471998D01*
X97305637Y-97471998D02*
X97353256Y-97567236D01*
X97353256Y-97567236D02*
X97400875Y-97614856D01*
X97400875Y-97614856D02*
X97496113Y-97662475D01*
X97496113Y-97662475D02*
X97686589Y-97662475D01*
X97686589Y-97662475D02*
X97781827Y-97614856D01*
X96734208Y-97662475D02*
X96829446Y-97614856D01*
X96829446Y-97614856D02*
X96877065Y-97519617D01*
X96877065Y-97519617D02*
X96877065Y-96662475D01*
X95924684Y-97662475D02*
X95924684Y-97138665D01*
X95924684Y-97138665D02*
X95972303Y-97043427D01*
X95972303Y-97043427D02*
X96067541Y-96995808D01*
X96067541Y-96995808D02*
X96258017Y-96995808D01*
X96258017Y-96995808D02*
X96353255Y-97043427D01*
X95924684Y-97614856D02*
X96019922Y-97662475D01*
X96019922Y-97662475D02*
X96258017Y-97662475D01*
X96258017Y-97662475D02*
X96353255Y-97614856D01*
X96353255Y-97614856D02*
X96400874Y-97519617D01*
X96400874Y-97519617D02*
X96400874Y-97424379D01*
X96400874Y-97424379D02*
X96353255Y-97329141D01*
X96353255Y-97329141D02*
X96258017Y-97281522D01*
X96258017Y-97281522D02*
X96019922Y-97281522D01*
X96019922Y-97281522D02*
X95924684Y-97233903D01*
X95448493Y-96995808D02*
X95448493Y-97662475D01*
X95448493Y-97091046D02*
X95400874Y-97043427D01*
X95400874Y-97043427D02*
X95305636Y-96995808D01*
X95305636Y-96995808D02*
X95162779Y-96995808D01*
X95162779Y-96995808D02*
X95067541Y-97043427D01*
X95067541Y-97043427D02*
X95019922Y-97138665D01*
X95019922Y-97138665D02*
X95019922Y-97662475D01*
X94543731Y-97662475D02*
X94543731Y-96662475D01*
X94448493Y-97281522D02*
X94162779Y-97662475D01*
X94162779Y-96995808D02*
X94543731Y-97376760D01*
X93734207Y-97662475D02*
X93734207Y-96995808D01*
X93734207Y-96662475D02*
X93781826Y-96710094D01*
X93781826Y-96710094D02*
X93734207Y-96757713D01*
X93734207Y-96757713D02*
X93686588Y-96710094D01*
X93686588Y-96710094D02*
X93734207Y-96662475D01*
X93734207Y-96662475D02*
X93734207Y-96757713D01*
X93258017Y-96995808D02*
X93258017Y-97662475D01*
X93258017Y-97091046D02*
X93210398Y-97043427D01*
X93210398Y-97043427D02*
X93115160Y-96995808D01*
X93115160Y-96995808D02*
X92972303Y-96995808D01*
X92972303Y-96995808D02*
X92877065Y-97043427D01*
X92877065Y-97043427D02*
X92829446Y-97138665D01*
X92829446Y-97138665D02*
X92829446Y-97662475D01*
X91924684Y-96995808D02*
X91924684Y-97805332D01*
X91924684Y-97805332D02*
X91972303Y-97900570D01*
X91972303Y-97900570D02*
X92019922Y-97948189D01*
X92019922Y-97948189D02*
X92115160Y-97995808D01*
X92115160Y-97995808D02*
X92258017Y-97995808D01*
X92258017Y-97995808D02*
X92353255Y-97948189D01*
X91924684Y-97614856D02*
X92019922Y-97662475D01*
X92019922Y-97662475D02*
X92210398Y-97662475D01*
X92210398Y-97662475D02*
X92305636Y-97614856D01*
X92305636Y-97614856D02*
X92353255Y-97567236D01*
X92353255Y-97567236D02*
X92400874Y-97471998D01*
X92400874Y-97471998D02*
X92400874Y-97186284D01*
X92400874Y-97186284D02*
X92353255Y-97091046D01*
X92353255Y-97091046D02*
X92305636Y-97043427D01*
X92305636Y-97043427D02*
X92210398Y-96995808D01*
X92210398Y-96995808D02*
X92019922Y-96995808D01*
X92019922Y-96995808D02*
X91924684Y-97043427D01*
X106353258Y-98272419D02*
X106353258Y-98510514D01*
X106591353Y-98415276D02*
X106353258Y-98510514D01*
X106353258Y-98510514D02*
X106115163Y-98415276D01*
X106496115Y-98700990D02*
X106353258Y-98510514D01*
X106353258Y-98510514D02*
X106210401Y-98700990D01*
X104400877Y-99177180D02*
X104448496Y-99224800D01*
X104448496Y-99224800D02*
X104591353Y-99272419D01*
X104591353Y-99272419D02*
X104686591Y-99272419D01*
X104686591Y-99272419D02*
X104829448Y-99224800D01*
X104829448Y-99224800D02*
X104924686Y-99129561D01*
X104924686Y-99129561D02*
X104972305Y-99034323D01*
X104972305Y-99034323D02*
X105019924Y-98843847D01*
X105019924Y-98843847D02*
X105019924Y-98700990D01*
X105019924Y-98700990D02*
X104972305Y-98510514D01*
X104972305Y-98510514D02*
X104924686Y-98415276D01*
X104924686Y-98415276D02*
X104829448Y-98320038D01*
X104829448Y-98320038D02*
X104686591Y-98272419D01*
X104686591Y-98272419D02*
X104591353Y-98272419D01*
X104591353Y-98272419D02*
X104448496Y-98320038D01*
X104448496Y-98320038D02*
X104400877Y-98367657D01*
X103543734Y-99272419D02*
X103543734Y-98748609D01*
X103543734Y-98748609D02*
X103591353Y-98653371D01*
X103591353Y-98653371D02*
X103686591Y-98605752D01*
X103686591Y-98605752D02*
X103877067Y-98605752D01*
X103877067Y-98605752D02*
X103972305Y-98653371D01*
X103543734Y-99224800D02*
X103638972Y-99272419D01*
X103638972Y-99272419D02*
X103877067Y-99272419D01*
X103877067Y-99272419D02*
X103972305Y-99224800D01*
X103972305Y-99224800D02*
X104019924Y-99129561D01*
X104019924Y-99129561D02*
X104019924Y-99034323D01*
X104019924Y-99034323D02*
X103972305Y-98939085D01*
X103972305Y-98939085D02*
X103877067Y-98891466D01*
X103877067Y-98891466D02*
X103638972Y-98891466D01*
X103638972Y-98891466D02*
X103543734Y-98843847D01*
X103067543Y-98605752D02*
X103067543Y-99272419D01*
X103067543Y-98700990D02*
X103019924Y-98653371D01*
X103019924Y-98653371D02*
X102924686Y-98605752D01*
X102924686Y-98605752D02*
X102781829Y-98605752D01*
X102781829Y-98605752D02*
X102686591Y-98653371D01*
X102686591Y-98653371D02*
X102638972Y-98748609D01*
X102638972Y-98748609D02*
X102638972Y-99272419D01*
X100972305Y-99224800D02*
X101067543Y-99272419D01*
X101067543Y-99272419D02*
X101258019Y-99272419D01*
X101258019Y-99272419D02*
X101353257Y-99224800D01*
X101353257Y-99224800D02*
X101400876Y-99177180D01*
X101400876Y-99177180D02*
X101448495Y-99081942D01*
X101448495Y-99081942D02*
X101448495Y-98796228D01*
X101448495Y-98796228D02*
X101400876Y-98700990D01*
X101400876Y-98700990D02*
X101353257Y-98653371D01*
X101353257Y-98653371D02*
X101258019Y-98605752D01*
X101258019Y-98605752D02*
X101067543Y-98605752D01*
X101067543Y-98605752D02*
X100972305Y-98653371D01*
X100400876Y-99272419D02*
X100496114Y-99224800D01*
X100496114Y-99224800D02*
X100543733Y-99177180D01*
X100543733Y-99177180D02*
X100591352Y-99081942D01*
X100591352Y-99081942D02*
X100591352Y-98796228D01*
X100591352Y-98796228D02*
X100543733Y-98700990D01*
X100543733Y-98700990D02*
X100496114Y-98653371D01*
X100496114Y-98653371D02*
X100400876Y-98605752D01*
X100400876Y-98605752D02*
X100258019Y-98605752D01*
X100258019Y-98605752D02*
X100162781Y-98653371D01*
X100162781Y-98653371D02*
X100115162Y-98700990D01*
X100115162Y-98700990D02*
X100067543Y-98796228D01*
X100067543Y-98796228D02*
X100067543Y-99081942D01*
X100067543Y-99081942D02*
X100115162Y-99177180D01*
X100115162Y-99177180D02*
X100162781Y-99224800D01*
X100162781Y-99224800D02*
X100258019Y-99272419D01*
X100258019Y-99272419D02*
X100400876Y-99272419D01*
X99638971Y-98605752D02*
X99638971Y-99272419D01*
X99638971Y-98700990D02*
X99591352Y-98653371D01*
X99591352Y-98653371D02*
X99496114Y-98605752D01*
X99496114Y-98605752D02*
X99353257Y-98605752D01*
X99353257Y-98605752D02*
X99258019Y-98653371D01*
X99258019Y-98653371D02*
X99210400Y-98748609D01*
X99210400Y-98748609D02*
X99210400Y-99272419D01*
X98877066Y-98605752D02*
X98496114Y-98605752D01*
X98734209Y-98272419D02*
X98734209Y-99129561D01*
X98734209Y-99129561D02*
X98686590Y-99224800D01*
X98686590Y-99224800D02*
X98591352Y-99272419D01*
X98591352Y-99272419D02*
X98496114Y-99272419D01*
X98162780Y-99272419D02*
X98162780Y-98605752D01*
X98162780Y-98796228D02*
X98115161Y-98700990D01*
X98115161Y-98700990D02*
X98067542Y-98653371D01*
X98067542Y-98653371D02*
X97972304Y-98605752D01*
X97972304Y-98605752D02*
X97877066Y-98605752D01*
X97400875Y-99272419D02*
X97496113Y-99224800D01*
X97496113Y-99224800D02*
X97543732Y-99177180D01*
X97543732Y-99177180D02*
X97591351Y-99081942D01*
X97591351Y-99081942D02*
X97591351Y-98796228D01*
X97591351Y-98796228D02*
X97543732Y-98700990D01*
X97543732Y-98700990D02*
X97496113Y-98653371D01*
X97496113Y-98653371D02*
X97400875Y-98605752D01*
X97400875Y-98605752D02*
X97258018Y-98605752D01*
X97258018Y-98605752D02*
X97162780Y-98653371D01*
X97162780Y-98653371D02*
X97115161Y-98700990D01*
X97115161Y-98700990D02*
X97067542Y-98796228D01*
X97067542Y-98796228D02*
X97067542Y-99081942D01*
X97067542Y-99081942D02*
X97115161Y-99177180D01*
X97115161Y-99177180D02*
X97162780Y-99224800D01*
X97162780Y-99224800D02*
X97258018Y-99272419D01*
X97258018Y-99272419D02*
X97400875Y-99272419D01*
X96496113Y-99272419D02*
X96591351Y-99224800D01*
X96591351Y-99224800D02*
X96638970Y-99129561D01*
X96638970Y-99129561D02*
X96638970Y-98272419D01*
X95496112Y-98272419D02*
X94924684Y-98272419D01*
X95210398Y-99272419D02*
X95210398Y-98272419D01*
X94734207Y-98272419D02*
X94400874Y-99272419D01*
X94400874Y-99272419D02*
X94067541Y-98272419D01*
X93686588Y-98272419D02*
X93781826Y-98462895D01*
X93305636Y-99224800D02*
X93210398Y-99272419D01*
X93210398Y-99272419D02*
X93019922Y-99272419D01*
X93019922Y-99272419D02*
X92924684Y-99224800D01*
X92924684Y-99224800D02*
X92877065Y-99129561D01*
X92877065Y-99129561D02*
X92877065Y-99081942D01*
X92877065Y-99081942D02*
X92924684Y-98986704D01*
X92924684Y-98986704D02*
X93019922Y-98939085D01*
X93019922Y-98939085D02*
X93162779Y-98939085D01*
X93162779Y-98939085D02*
X93258017Y-98891466D01*
X93258017Y-98891466D02*
X93305636Y-98796228D01*
X93305636Y-98796228D02*
X93305636Y-98748609D01*
X93305636Y-98748609D02*
X93258017Y-98653371D01*
X93258017Y-98653371D02*
X93162779Y-98605752D01*
X93162779Y-98605752D02*
X93019922Y-98605752D01*
X93019922Y-98605752D02*
X92924684Y-98653371D01*
X91686588Y-99272419D02*
X91686588Y-98605752D01*
X91686588Y-98272419D02*
X91734207Y-98320038D01*
X91734207Y-98320038D02*
X91686588Y-98367657D01*
X91686588Y-98367657D02*
X91638969Y-98320038D01*
X91638969Y-98320038D02*
X91686588Y-98272419D01*
X91686588Y-98272419D02*
X91686588Y-98367657D01*
X91258017Y-98367657D02*
X91210398Y-98320038D01*
X91210398Y-98320038D02*
X91115160Y-98272419D01*
X91115160Y-98272419D02*
X90877065Y-98272419D01*
X90877065Y-98272419D02*
X90781827Y-98320038D01*
X90781827Y-98320038D02*
X90734208Y-98367657D01*
X90734208Y-98367657D02*
X90686589Y-98462895D01*
X90686589Y-98462895D02*
X90686589Y-98558133D01*
X90686589Y-98558133D02*
X90734208Y-98700990D01*
X90734208Y-98700990D02*
X91305636Y-99272419D01*
X91305636Y-99272419D02*
X90686589Y-99272419D01*
X89829446Y-99224800D02*
X89924684Y-99272419D01*
X89924684Y-99272419D02*
X90115160Y-99272419D01*
X90115160Y-99272419D02*
X90210398Y-99224800D01*
X90210398Y-99224800D02*
X90258017Y-99177180D01*
X90258017Y-99177180D02*
X90305636Y-99081942D01*
X90305636Y-99081942D02*
X90305636Y-98796228D01*
X90305636Y-98796228D02*
X90258017Y-98700990D01*
X90258017Y-98700990D02*
X90210398Y-98653371D01*
X90210398Y-98653371D02*
X90115160Y-98605752D01*
X90115160Y-98605752D02*
X89924684Y-98605752D01*
X89924684Y-98605752D02*
X89829446Y-98653371D01*
X88638969Y-99272419D02*
X88638969Y-98272419D01*
X88638969Y-98653371D02*
X88543731Y-98605752D01*
X88543731Y-98605752D02*
X88353255Y-98605752D01*
X88353255Y-98605752D02*
X88258017Y-98653371D01*
X88258017Y-98653371D02*
X88210398Y-98700990D01*
X88210398Y-98700990D02*
X88162779Y-98796228D01*
X88162779Y-98796228D02*
X88162779Y-99081942D01*
X88162779Y-99081942D02*
X88210398Y-99177180D01*
X88210398Y-99177180D02*
X88258017Y-99224800D01*
X88258017Y-99224800D02*
X88353255Y-99272419D01*
X88353255Y-99272419D02*
X88543731Y-99272419D01*
X88543731Y-99272419D02*
X88638969Y-99224800D01*
X87305636Y-98605752D02*
X87305636Y-99272419D01*
X87734207Y-98605752D02*
X87734207Y-99129561D01*
X87734207Y-99129561D02*
X87686588Y-99224800D01*
X87686588Y-99224800D02*
X87591350Y-99272419D01*
X87591350Y-99272419D02*
X87448493Y-99272419D01*
X87448493Y-99272419D02*
X87353255Y-99224800D01*
X87353255Y-99224800D02*
X87305636Y-99177180D01*
X86877064Y-99224800D02*
X86781826Y-99272419D01*
X86781826Y-99272419D02*
X86591350Y-99272419D01*
X86591350Y-99272419D02*
X86496112Y-99224800D01*
X86496112Y-99224800D02*
X86448493Y-99129561D01*
X86448493Y-99129561D02*
X86448493Y-99081942D01*
X86448493Y-99081942D02*
X86496112Y-98986704D01*
X86496112Y-98986704D02*
X86591350Y-98939085D01*
X86591350Y-98939085D02*
X86734207Y-98939085D01*
X86734207Y-98939085D02*
X86829445Y-98891466D01*
X86829445Y-98891466D02*
X86877064Y-98796228D01*
X86877064Y-98796228D02*
X86877064Y-98748609D01*
X86877064Y-98748609D02*
X86829445Y-98653371D01*
X86829445Y-98653371D02*
X86734207Y-98605752D01*
X86734207Y-98605752D02*
X86591350Y-98605752D01*
X86591350Y-98605752D02*
X86496112Y-98653371D01*
D11*
X89079166Y-77904819D02*
X89412499Y-77428628D01*
X89650594Y-77904819D02*
X89650594Y-76904819D01*
X89650594Y-76904819D02*
X89269642Y-76904819D01*
X89269642Y-76904819D02*
X89174404Y-76952438D01*
X89174404Y-76952438D02*
X89126785Y-77000057D01*
X89126785Y-77000057D02*
X89079166Y-77095295D01*
X89079166Y-77095295D02*
X89079166Y-77238152D01*
X89079166Y-77238152D02*
X89126785Y-77333390D01*
X89126785Y-77333390D02*
X89174404Y-77381009D01*
X89174404Y-77381009D02*
X89269642Y-77428628D01*
X89269642Y-77428628D02*
X89650594Y-77428628D01*
X88745832Y-76904819D02*
X88079166Y-76904819D01*
X88079166Y-76904819D02*
X88507737Y-77904819D01*
X104366666Y-72359580D02*
X104414285Y-72407200D01*
X104414285Y-72407200D02*
X104557142Y-72454819D01*
X104557142Y-72454819D02*
X104652380Y-72454819D01*
X104652380Y-72454819D02*
X104795237Y-72407200D01*
X104795237Y-72407200D02*
X104890475Y-72311961D01*
X104890475Y-72311961D02*
X104938094Y-72216723D01*
X104938094Y-72216723D02*
X104985713Y-72026247D01*
X104985713Y-72026247D02*
X104985713Y-71883390D01*
X104985713Y-71883390D02*
X104938094Y-71692914D01*
X104938094Y-71692914D02*
X104890475Y-71597676D01*
X104890475Y-71597676D02*
X104795237Y-71502438D01*
X104795237Y-71502438D02*
X104652380Y-71454819D01*
X104652380Y-71454819D02*
X104557142Y-71454819D01*
X104557142Y-71454819D02*
X104414285Y-71502438D01*
X104414285Y-71502438D02*
X104366666Y-71550057D01*
X103414285Y-72454819D02*
X103985713Y-72454819D01*
X103699999Y-72454819D02*
X103699999Y-71454819D01*
X103699999Y-71454819D02*
X103795237Y-71597676D01*
X103795237Y-71597676D02*
X103890475Y-71692914D01*
X103890475Y-71692914D02*
X103985713Y-71740533D01*
X88166666Y-63759580D02*
X88214285Y-63807200D01*
X88214285Y-63807200D02*
X88357142Y-63854819D01*
X88357142Y-63854819D02*
X88452380Y-63854819D01*
X88452380Y-63854819D02*
X88595237Y-63807200D01*
X88595237Y-63807200D02*
X88690475Y-63711961D01*
X88690475Y-63711961D02*
X88738094Y-63616723D01*
X88738094Y-63616723D02*
X88785713Y-63426247D01*
X88785713Y-63426247D02*
X88785713Y-63283390D01*
X88785713Y-63283390D02*
X88738094Y-63092914D01*
X88738094Y-63092914D02*
X88690475Y-62997676D01*
X88690475Y-62997676D02*
X88595237Y-62902438D01*
X88595237Y-62902438D02*
X88452380Y-62854819D01*
X88452380Y-62854819D02*
X88357142Y-62854819D01*
X88357142Y-62854819D02*
X88214285Y-62902438D01*
X88214285Y-62902438D02*
X88166666Y-62950057D01*
X87261904Y-62854819D02*
X87738094Y-62854819D01*
X87738094Y-62854819D02*
X87785713Y-63331009D01*
X87785713Y-63331009D02*
X87738094Y-63283390D01*
X87738094Y-63283390D02*
X87642856Y-63235771D01*
X87642856Y-63235771D02*
X87404761Y-63235771D01*
X87404761Y-63235771D02*
X87309523Y-63283390D01*
X87309523Y-63283390D02*
X87261904Y-63331009D01*
X87261904Y-63331009D02*
X87214285Y-63426247D01*
X87214285Y-63426247D02*
X87214285Y-63664342D01*
X87214285Y-63664342D02*
X87261904Y-63759580D01*
X87261904Y-63759580D02*
X87309523Y-63807200D01*
X87309523Y-63807200D02*
X87404761Y-63854819D01*
X87404761Y-63854819D02*
X87642856Y-63854819D01*
X87642856Y-63854819D02*
X87738094Y-63807200D01*
X87738094Y-63807200D02*
X87785713Y-63759580D01*
X89054166Y-72404819D02*
X89387499Y-71928628D01*
X89625594Y-72404819D02*
X89625594Y-71404819D01*
X89625594Y-71404819D02*
X89244642Y-71404819D01*
X89244642Y-71404819D02*
X89149404Y-71452438D01*
X89149404Y-71452438D02*
X89101785Y-71500057D01*
X89101785Y-71500057D02*
X89054166Y-71595295D01*
X89054166Y-71595295D02*
X89054166Y-71738152D01*
X89054166Y-71738152D02*
X89101785Y-71833390D01*
X89101785Y-71833390D02*
X89149404Y-71881009D01*
X89149404Y-71881009D02*
X89244642Y-71928628D01*
X89244642Y-71928628D02*
X89625594Y-71928628D01*
X88197023Y-71404819D02*
X88387499Y-71404819D01*
X88387499Y-71404819D02*
X88482737Y-71452438D01*
X88482737Y-71452438D02*
X88530356Y-71500057D01*
X88530356Y-71500057D02*
X88625594Y-71642914D01*
X88625594Y-71642914D02*
X88673213Y-71833390D01*
X88673213Y-71833390D02*
X88673213Y-72214342D01*
X88673213Y-72214342D02*
X88625594Y-72309580D01*
X88625594Y-72309580D02*
X88577975Y-72357200D01*
X88577975Y-72357200D02*
X88482737Y-72404819D01*
X88482737Y-72404819D02*
X88292261Y-72404819D01*
X88292261Y-72404819D02*
X88197023Y-72357200D01*
X88197023Y-72357200D02*
X88149404Y-72309580D01*
X88149404Y-72309580D02*
X88101785Y-72214342D01*
X88101785Y-72214342D02*
X88101785Y-71976247D01*
X88101785Y-71976247D02*
X88149404Y-71881009D01*
X88149404Y-71881009D02*
X88197023Y-71833390D01*
X88197023Y-71833390D02*
X88292261Y-71785771D01*
X88292261Y-71785771D02*
X88482737Y-71785771D01*
X88482737Y-71785771D02*
X88577975Y-71833390D01*
X88577975Y-71833390D02*
X88625594Y-71881009D01*
X88625594Y-71881009D02*
X88673213Y-71976247D01*
X99286904Y-71754819D02*
X99286904Y-72564342D01*
X99286904Y-72564342D02*
X99239285Y-72659580D01*
X99239285Y-72659580D02*
X99191666Y-72707200D01*
X99191666Y-72707200D02*
X99096428Y-72754819D01*
X99096428Y-72754819D02*
X98905952Y-72754819D01*
X98905952Y-72754819D02*
X98810714Y-72707200D01*
X98810714Y-72707200D02*
X98763095Y-72659580D01*
X98763095Y-72659580D02*
X98715476Y-72564342D01*
X98715476Y-72564342D02*
X98715476Y-71754819D01*
X97715476Y-72754819D02*
X98286904Y-72754819D01*
X98001190Y-72754819D02*
X98001190Y-71754819D01*
X98001190Y-71754819D02*
X98096428Y-71897676D01*
X98096428Y-71897676D02*
X98191666Y-71992914D01*
X98191666Y-71992914D02*
X98286904Y-72040533D01*
X89042857Y-66854819D02*
X89376190Y-66378628D01*
X89614285Y-66854819D02*
X89614285Y-65854819D01*
X89614285Y-65854819D02*
X89233333Y-65854819D01*
X89233333Y-65854819D02*
X89138095Y-65902438D01*
X89138095Y-65902438D02*
X89090476Y-65950057D01*
X89090476Y-65950057D02*
X89042857Y-66045295D01*
X89042857Y-66045295D02*
X89042857Y-66188152D01*
X89042857Y-66188152D02*
X89090476Y-66283390D01*
X89090476Y-66283390D02*
X89138095Y-66331009D01*
X89138095Y-66331009D02*
X89233333Y-66378628D01*
X89233333Y-66378628D02*
X89614285Y-66378628D01*
X88090476Y-66854819D02*
X88661904Y-66854819D01*
X88376190Y-66854819D02*
X88376190Y-65854819D01*
X88376190Y-65854819D02*
X88471428Y-65997676D01*
X88471428Y-65997676D02*
X88566666Y-66092914D01*
X88566666Y-66092914D02*
X88661904Y-66140533D01*
X87138095Y-66854819D02*
X87709523Y-66854819D01*
X87423809Y-66854819D02*
X87423809Y-65854819D01*
X87423809Y-65854819D02*
X87519047Y-65997676D01*
X87519047Y-65997676D02*
X87614285Y-66092914D01*
X87614285Y-66092914D02*
X87709523Y-66140533D01*
X85955357Y-80504819D02*
X86288690Y-80028628D01*
X86526785Y-80504819D02*
X86526785Y-79504819D01*
X86526785Y-79504819D02*
X86145833Y-79504819D01*
X86145833Y-79504819D02*
X86050595Y-79552438D01*
X86050595Y-79552438D02*
X86002976Y-79600057D01*
X86002976Y-79600057D02*
X85955357Y-79695295D01*
X85955357Y-79695295D02*
X85955357Y-79838152D01*
X85955357Y-79838152D02*
X86002976Y-79933390D01*
X86002976Y-79933390D02*
X86050595Y-79981009D01*
X86050595Y-79981009D02*
X86145833Y-80028628D01*
X86145833Y-80028628D02*
X86526785Y-80028628D01*
X85002976Y-80504819D02*
X85574404Y-80504819D01*
X85288690Y-80504819D02*
X85288690Y-79504819D01*
X85288690Y-79504819D02*
X85383928Y-79647676D01*
X85383928Y-79647676D02*
X85479166Y-79742914D01*
X85479166Y-79742914D02*
X85574404Y-79790533D01*
X84669642Y-79504819D02*
X84050595Y-79504819D01*
X84050595Y-79504819D02*
X84383928Y-79885771D01*
X84383928Y-79885771D02*
X84241071Y-79885771D01*
X84241071Y-79885771D02*
X84145833Y-79933390D01*
X84145833Y-79933390D02*
X84098214Y-79981009D01*
X84098214Y-79981009D02*
X84050595Y-80076247D01*
X84050595Y-80076247D02*
X84050595Y-80314342D01*
X84050595Y-80314342D02*
X84098214Y-80409580D01*
X84098214Y-80409580D02*
X84145833Y-80457200D01*
X84145833Y-80457200D02*
X84241071Y-80504819D01*
X84241071Y-80504819D02*
X84526785Y-80504819D01*
X84526785Y-80504819D02*
X84622023Y-80457200D01*
X84622023Y-80457200D02*
X84669642Y-80409580D01*
X85454166Y-75704819D02*
X85787499Y-75228628D01*
X86025594Y-75704819D02*
X86025594Y-74704819D01*
X86025594Y-74704819D02*
X85644642Y-74704819D01*
X85644642Y-74704819D02*
X85549404Y-74752438D01*
X85549404Y-74752438D02*
X85501785Y-74800057D01*
X85501785Y-74800057D02*
X85454166Y-74895295D01*
X85454166Y-74895295D02*
X85454166Y-75038152D01*
X85454166Y-75038152D02*
X85501785Y-75133390D01*
X85501785Y-75133390D02*
X85549404Y-75181009D01*
X85549404Y-75181009D02*
X85644642Y-75228628D01*
X85644642Y-75228628D02*
X86025594Y-75228628D01*
X84882737Y-75133390D02*
X84977975Y-75085771D01*
X84977975Y-75085771D02*
X85025594Y-75038152D01*
X85025594Y-75038152D02*
X85073213Y-74942914D01*
X85073213Y-74942914D02*
X85073213Y-74895295D01*
X85073213Y-74895295D02*
X85025594Y-74800057D01*
X85025594Y-74800057D02*
X84977975Y-74752438D01*
X84977975Y-74752438D02*
X84882737Y-74704819D01*
X84882737Y-74704819D02*
X84692261Y-74704819D01*
X84692261Y-74704819D02*
X84597023Y-74752438D01*
X84597023Y-74752438D02*
X84549404Y-74800057D01*
X84549404Y-74800057D02*
X84501785Y-74895295D01*
X84501785Y-74895295D02*
X84501785Y-74942914D01*
X84501785Y-74942914D02*
X84549404Y-75038152D01*
X84549404Y-75038152D02*
X84597023Y-75085771D01*
X84597023Y-75085771D02*
X84692261Y-75133390D01*
X84692261Y-75133390D02*
X84882737Y-75133390D01*
X84882737Y-75133390D02*
X84977975Y-75181009D01*
X84977975Y-75181009D02*
X85025594Y-75228628D01*
X85025594Y-75228628D02*
X85073213Y-75323866D01*
X85073213Y-75323866D02*
X85073213Y-75514342D01*
X85073213Y-75514342D02*
X85025594Y-75609580D01*
X85025594Y-75609580D02*
X84977975Y-75657200D01*
X84977975Y-75657200D02*
X84882737Y-75704819D01*
X84882737Y-75704819D02*
X84692261Y-75704819D01*
X84692261Y-75704819D02*
X84597023Y-75657200D01*
X84597023Y-75657200D02*
X84549404Y-75609580D01*
X84549404Y-75609580D02*
X84501785Y-75514342D01*
X84501785Y-75514342D02*
X84501785Y-75323866D01*
X84501785Y-75323866D02*
X84549404Y-75228628D01*
X84549404Y-75228628D02*
X84597023Y-75181009D01*
X84597023Y-75181009D02*
X84692261Y-75133390D01*
X88166666Y-58959580D02*
X88214285Y-59007200D01*
X88214285Y-59007200D02*
X88357142Y-59054819D01*
X88357142Y-59054819D02*
X88452380Y-59054819D01*
X88452380Y-59054819D02*
X88595237Y-59007200D01*
X88595237Y-59007200D02*
X88690475Y-58911961D01*
X88690475Y-58911961D02*
X88738094Y-58816723D01*
X88738094Y-58816723D02*
X88785713Y-58626247D01*
X88785713Y-58626247D02*
X88785713Y-58483390D01*
X88785713Y-58483390D02*
X88738094Y-58292914D01*
X88738094Y-58292914D02*
X88690475Y-58197676D01*
X88690475Y-58197676D02*
X88595237Y-58102438D01*
X88595237Y-58102438D02*
X88452380Y-58054819D01*
X88452380Y-58054819D02*
X88357142Y-58054819D01*
X88357142Y-58054819D02*
X88214285Y-58102438D01*
X88214285Y-58102438D02*
X88166666Y-58150057D01*
X87833332Y-58054819D02*
X87214285Y-58054819D01*
X87214285Y-58054819D02*
X87547618Y-58435771D01*
X87547618Y-58435771D02*
X87404761Y-58435771D01*
X87404761Y-58435771D02*
X87309523Y-58483390D01*
X87309523Y-58483390D02*
X87261904Y-58531009D01*
X87261904Y-58531009D02*
X87214285Y-58626247D01*
X87214285Y-58626247D02*
X87214285Y-58864342D01*
X87214285Y-58864342D02*
X87261904Y-58959580D01*
X87261904Y-58959580D02*
X87309523Y-59007200D01*
X87309523Y-59007200D02*
X87404761Y-59054819D01*
X87404761Y-59054819D02*
X87690475Y-59054819D01*
X87690475Y-59054819D02*
X87785713Y-59007200D01*
X87785713Y-59007200D02*
X87833332Y-58959580D01*
X88166666Y-69159580D02*
X88214285Y-69207200D01*
X88214285Y-69207200D02*
X88357142Y-69254819D01*
X88357142Y-69254819D02*
X88452380Y-69254819D01*
X88452380Y-69254819D02*
X88595237Y-69207200D01*
X88595237Y-69207200D02*
X88690475Y-69111961D01*
X88690475Y-69111961D02*
X88738094Y-69016723D01*
X88738094Y-69016723D02*
X88785713Y-68826247D01*
X88785713Y-68826247D02*
X88785713Y-68683390D01*
X88785713Y-68683390D02*
X88738094Y-68492914D01*
X88738094Y-68492914D02*
X88690475Y-68397676D01*
X88690475Y-68397676D02*
X88595237Y-68302438D01*
X88595237Y-68302438D02*
X88452380Y-68254819D01*
X88452380Y-68254819D02*
X88357142Y-68254819D01*
X88357142Y-68254819D02*
X88214285Y-68302438D01*
X88214285Y-68302438D02*
X88166666Y-68350057D01*
X87833332Y-68254819D02*
X87166666Y-68254819D01*
X87166666Y-68254819D02*
X87595237Y-69254819D01*
X93766666Y-70604819D02*
X94099999Y-70128628D01*
X94338094Y-70604819D02*
X94338094Y-69604819D01*
X94338094Y-69604819D02*
X93957142Y-69604819D01*
X93957142Y-69604819D02*
X93861904Y-69652438D01*
X93861904Y-69652438D02*
X93814285Y-69700057D01*
X93814285Y-69700057D02*
X93766666Y-69795295D01*
X93766666Y-69795295D02*
X93766666Y-69938152D01*
X93766666Y-69938152D02*
X93814285Y-70033390D01*
X93814285Y-70033390D02*
X93861904Y-70081009D01*
X93861904Y-70081009D02*
X93957142Y-70128628D01*
X93957142Y-70128628D02*
X94338094Y-70128628D01*
X92861904Y-69604819D02*
X93338094Y-69604819D01*
X93338094Y-69604819D02*
X93385713Y-70081009D01*
X93385713Y-70081009D02*
X93338094Y-70033390D01*
X93338094Y-70033390D02*
X93242856Y-69985771D01*
X93242856Y-69985771D02*
X93004761Y-69985771D01*
X93004761Y-69985771D02*
X92909523Y-70033390D01*
X92909523Y-70033390D02*
X92861904Y-70081009D01*
X92861904Y-70081009D02*
X92814285Y-70176247D01*
X92814285Y-70176247D02*
X92814285Y-70414342D01*
X92814285Y-70414342D02*
X92861904Y-70509580D01*
X92861904Y-70509580D02*
X92909523Y-70557200D01*
X92909523Y-70557200D02*
X93004761Y-70604819D01*
X93004761Y-70604819D02*
X93242856Y-70604819D01*
X93242856Y-70604819D02*
X93338094Y-70557200D01*
X93338094Y-70557200D02*
X93385713Y-70509580D01*
X91766666Y-82454819D02*
X92099999Y-81978628D01*
X92338094Y-82454819D02*
X92338094Y-81454819D01*
X92338094Y-81454819D02*
X91957142Y-81454819D01*
X91957142Y-81454819D02*
X91861904Y-81502438D01*
X91861904Y-81502438D02*
X91814285Y-81550057D01*
X91814285Y-81550057D02*
X91766666Y-81645295D01*
X91766666Y-81645295D02*
X91766666Y-81788152D01*
X91766666Y-81788152D02*
X91814285Y-81883390D01*
X91814285Y-81883390D02*
X91861904Y-81931009D01*
X91861904Y-81931009D02*
X91957142Y-81978628D01*
X91957142Y-81978628D02*
X92338094Y-81978628D01*
X90909523Y-81788152D02*
X90909523Y-82454819D01*
X91147618Y-81407200D02*
X91385713Y-82121485D01*
X91385713Y-82121485D02*
X90766666Y-82121485D01*
X104366666Y-84759580D02*
X104414285Y-84807200D01*
X104414285Y-84807200D02*
X104557142Y-84854819D01*
X104557142Y-84854819D02*
X104652380Y-84854819D01*
X104652380Y-84854819D02*
X104795237Y-84807200D01*
X104795237Y-84807200D02*
X104890475Y-84711961D01*
X104890475Y-84711961D02*
X104938094Y-84616723D01*
X104938094Y-84616723D02*
X104985713Y-84426247D01*
X104985713Y-84426247D02*
X104985713Y-84283390D01*
X104985713Y-84283390D02*
X104938094Y-84092914D01*
X104938094Y-84092914D02*
X104890475Y-83997676D01*
X104890475Y-83997676D02*
X104795237Y-83902438D01*
X104795237Y-83902438D02*
X104652380Y-83854819D01*
X104652380Y-83854819D02*
X104557142Y-83854819D01*
X104557142Y-83854819D02*
X104414285Y-83902438D01*
X104414285Y-83902438D02*
X104366666Y-83950057D01*
X103985713Y-83950057D02*
X103938094Y-83902438D01*
X103938094Y-83902438D02*
X103842856Y-83854819D01*
X103842856Y-83854819D02*
X103604761Y-83854819D01*
X103604761Y-83854819D02*
X103509523Y-83902438D01*
X103509523Y-83902438D02*
X103461904Y-83950057D01*
X103461904Y-83950057D02*
X103414285Y-84045295D01*
X103414285Y-84045295D02*
X103414285Y-84140533D01*
X103414285Y-84140533D02*
X103461904Y-84283390D01*
X103461904Y-84283390D02*
X104033332Y-84854819D01*
X104033332Y-84854819D02*
X103414285Y-84854819D01*
X107766666Y-79654819D02*
X108099999Y-79178628D01*
X108338094Y-79654819D02*
X108338094Y-78654819D01*
X108338094Y-78654819D02*
X107957142Y-78654819D01*
X107957142Y-78654819D02*
X107861904Y-78702438D01*
X107861904Y-78702438D02*
X107814285Y-78750057D01*
X107814285Y-78750057D02*
X107766666Y-78845295D01*
X107766666Y-78845295D02*
X107766666Y-78988152D01*
X107766666Y-78988152D02*
X107814285Y-79083390D01*
X107814285Y-79083390D02*
X107861904Y-79131009D01*
X107861904Y-79131009D02*
X107957142Y-79178628D01*
X107957142Y-79178628D02*
X108338094Y-79178628D01*
X107385713Y-78750057D02*
X107338094Y-78702438D01*
X107338094Y-78702438D02*
X107242856Y-78654819D01*
X107242856Y-78654819D02*
X107004761Y-78654819D01*
X107004761Y-78654819D02*
X106909523Y-78702438D01*
X106909523Y-78702438D02*
X106861904Y-78750057D01*
X106861904Y-78750057D02*
X106814285Y-78845295D01*
X106814285Y-78845295D02*
X106814285Y-78940533D01*
X106814285Y-78940533D02*
X106861904Y-79083390D01*
X106861904Y-79083390D02*
X107433332Y-79654819D01*
X107433332Y-79654819D02*
X106814285Y-79654819D01*
X89042857Y-61654819D02*
X89376190Y-61178628D01*
X89614285Y-61654819D02*
X89614285Y-60654819D01*
X89614285Y-60654819D02*
X89233333Y-60654819D01*
X89233333Y-60654819D02*
X89138095Y-60702438D01*
X89138095Y-60702438D02*
X89090476Y-60750057D01*
X89090476Y-60750057D02*
X89042857Y-60845295D01*
X89042857Y-60845295D02*
X89042857Y-60988152D01*
X89042857Y-60988152D02*
X89090476Y-61083390D01*
X89090476Y-61083390D02*
X89138095Y-61131009D01*
X89138095Y-61131009D02*
X89233333Y-61178628D01*
X89233333Y-61178628D02*
X89614285Y-61178628D01*
X88090476Y-61654819D02*
X88661904Y-61654819D01*
X88376190Y-61654819D02*
X88376190Y-60654819D01*
X88376190Y-60654819D02*
X88471428Y-60797676D01*
X88471428Y-60797676D02*
X88566666Y-60892914D01*
X88566666Y-60892914D02*
X88661904Y-60940533D01*
X87471428Y-60654819D02*
X87376190Y-60654819D01*
X87376190Y-60654819D02*
X87280952Y-60702438D01*
X87280952Y-60702438D02*
X87233333Y-60750057D01*
X87233333Y-60750057D02*
X87185714Y-60845295D01*
X87185714Y-60845295D02*
X87138095Y-61035771D01*
X87138095Y-61035771D02*
X87138095Y-61273866D01*
X87138095Y-61273866D02*
X87185714Y-61464342D01*
X87185714Y-61464342D02*
X87233333Y-61559580D01*
X87233333Y-61559580D02*
X87280952Y-61607200D01*
X87280952Y-61607200D02*
X87376190Y-61654819D01*
X87376190Y-61654819D02*
X87471428Y-61654819D01*
X87471428Y-61654819D02*
X87566666Y-61607200D01*
X87566666Y-61607200D02*
X87614285Y-61559580D01*
X87614285Y-61559580D02*
X87661904Y-61464342D01*
X87661904Y-61464342D02*
X87709523Y-61273866D01*
X87709523Y-61273866D02*
X87709523Y-61035771D01*
X87709523Y-61035771D02*
X87661904Y-60845295D01*
X87661904Y-60845295D02*
X87614285Y-60750057D01*
X87614285Y-60750057D02*
X87566666Y-60702438D01*
X87566666Y-60702438D02*
X87471428Y-60654819D01*
X94550057Y-77104761D02*
X94502438Y-77009523D01*
X94502438Y-77009523D02*
X94407200Y-76914285D01*
X94407200Y-76914285D02*
X94264342Y-76771428D01*
X94264342Y-76771428D02*
X94216723Y-76676190D01*
X94216723Y-76676190D02*
X94216723Y-76580952D01*
X94454819Y-76628571D02*
X94407200Y-76533333D01*
X94407200Y-76533333D02*
X94311961Y-76438095D01*
X94311961Y-76438095D02*
X94121485Y-76390476D01*
X94121485Y-76390476D02*
X93788152Y-76390476D01*
X93788152Y-76390476D02*
X93597676Y-76438095D01*
X93597676Y-76438095D02*
X93502438Y-76533333D01*
X93502438Y-76533333D02*
X93454819Y-76628571D01*
X93454819Y-76628571D02*
X93454819Y-76819047D01*
X93454819Y-76819047D02*
X93502438Y-76914285D01*
X93502438Y-76914285D02*
X93597676Y-77009523D01*
X93597676Y-77009523D02*
X93788152Y-77057142D01*
X93788152Y-77057142D02*
X94121485Y-77057142D01*
X94121485Y-77057142D02*
X94311961Y-77009523D01*
X94311961Y-77009523D02*
X94407200Y-76914285D01*
X94407200Y-76914285D02*
X94454819Y-76819047D01*
X94454819Y-76819047D02*
X94454819Y-76628571D01*
X94454819Y-78009523D02*
X94454819Y-77438095D01*
X94454819Y-77723809D02*
X93454819Y-77723809D01*
X93454819Y-77723809D02*
X93597676Y-77628571D01*
X93597676Y-77628571D02*
X93692914Y-77533333D01*
X93692914Y-77533333D02*
X93740533Y-77438095D01*
X107766666Y-77654819D02*
X108099999Y-77178628D01*
X108338094Y-77654819D02*
X108338094Y-76654819D01*
X108338094Y-76654819D02*
X107957142Y-76654819D01*
X107957142Y-76654819D02*
X107861904Y-76702438D01*
X107861904Y-76702438D02*
X107814285Y-76750057D01*
X107814285Y-76750057D02*
X107766666Y-76845295D01*
X107766666Y-76845295D02*
X107766666Y-76988152D01*
X107766666Y-76988152D02*
X107814285Y-77083390D01*
X107814285Y-77083390D02*
X107861904Y-77131009D01*
X107861904Y-77131009D02*
X107957142Y-77178628D01*
X107957142Y-77178628D02*
X108338094Y-77178628D01*
X106814285Y-77654819D02*
X107385713Y-77654819D01*
X107099999Y-77654819D02*
X107099999Y-76654819D01*
X107099999Y-76654819D02*
X107195237Y-76797676D01*
X107195237Y-76797676D02*
X107290475Y-76892914D01*
X107290475Y-76892914D02*
X107385713Y-76940533D01*
X88166666Y-56854819D02*
X88499999Y-56378628D01*
X88738094Y-56854819D02*
X88738094Y-55854819D01*
X88738094Y-55854819D02*
X88357142Y-55854819D01*
X88357142Y-55854819D02*
X88261904Y-55902438D01*
X88261904Y-55902438D02*
X88214285Y-55950057D01*
X88214285Y-55950057D02*
X88166666Y-56045295D01*
X88166666Y-56045295D02*
X88166666Y-56188152D01*
X88166666Y-56188152D02*
X88214285Y-56283390D01*
X88214285Y-56283390D02*
X88261904Y-56331009D01*
X88261904Y-56331009D02*
X88357142Y-56378628D01*
X88357142Y-56378628D02*
X88738094Y-56378628D01*
X87690475Y-56854819D02*
X87499999Y-56854819D01*
X87499999Y-56854819D02*
X87404761Y-56807200D01*
X87404761Y-56807200D02*
X87357142Y-56759580D01*
X87357142Y-56759580D02*
X87261904Y-56616723D01*
X87261904Y-56616723D02*
X87214285Y-56426247D01*
X87214285Y-56426247D02*
X87214285Y-56045295D01*
X87214285Y-56045295D02*
X87261904Y-55950057D01*
X87261904Y-55950057D02*
X87309523Y-55902438D01*
X87309523Y-55902438D02*
X87404761Y-55854819D01*
X87404761Y-55854819D02*
X87595237Y-55854819D01*
X87595237Y-55854819D02*
X87690475Y-55902438D01*
X87690475Y-55902438D02*
X87738094Y-55950057D01*
X87738094Y-55950057D02*
X87785713Y-56045295D01*
X87785713Y-56045295D02*
X87785713Y-56283390D01*
X87785713Y-56283390D02*
X87738094Y-56378628D01*
X87738094Y-56378628D02*
X87690475Y-56426247D01*
X87690475Y-56426247D02*
X87595237Y-56473866D01*
X87595237Y-56473866D02*
X87404761Y-56473866D01*
X87404761Y-56473866D02*
X87309523Y-56426247D01*
X87309523Y-56426247D02*
X87261904Y-56378628D01*
X87261904Y-56378628D02*
X87214285Y-56283390D01*
X91679166Y-83854819D02*
X92012499Y-83378628D01*
X92250594Y-83854819D02*
X92250594Y-82854819D01*
X92250594Y-82854819D02*
X91869642Y-82854819D01*
X91869642Y-82854819D02*
X91774404Y-82902438D01*
X91774404Y-82902438D02*
X91726785Y-82950057D01*
X91726785Y-82950057D02*
X91679166Y-83045295D01*
X91679166Y-83045295D02*
X91679166Y-83188152D01*
X91679166Y-83188152D02*
X91726785Y-83283390D01*
X91726785Y-83283390D02*
X91774404Y-83331009D01*
X91774404Y-83331009D02*
X91869642Y-83378628D01*
X91869642Y-83378628D02*
X92250594Y-83378628D01*
X91345832Y-82854819D02*
X90726785Y-82854819D01*
X90726785Y-82854819D02*
X91060118Y-83235771D01*
X91060118Y-83235771D02*
X90917261Y-83235771D01*
X90917261Y-83235771D02*
X90822023Y-83283390D01*
X90822023Y-83283390D02*
X90774404Y-83331009D01*
X90774404Y-83331009D02*
X90726785Y-83426247D01*
X90726785Y-83426247D02*
X90726785Y-83664342D01*
X90726785Y-83664342D02*
X90774404Y-83759580D01*
X90774404Y-83759580D02*
X90822023Y-83807200D01*
X90822023Y-83807200D02*
X90917261Y-83854819D01*
X90917261Y-83854819D02*
X91202975Y-83854819D01*
X91202975Y-83854819D02*
X91298213Y-83807200D01*
X91298213Y-83807200D02*
X91345832Y-83759580D01*
D12*
%TO.C,R7*%
X89139564Y-75065000D02*
X88685436Y-75065000D01*
X89139564Y-76535000D02*
X88685436Y-76535000D01*
%TO.C,C1*%
X103490000Y-74188748D02*
X103490000Y-74711254D01*
X104960000Y-74188748D02*
X104960000Y-74711254D01*
%TO.C,C5*%
X84988748Y-62655000D02*
X85511252Y-62655000D01*
X84988748Y-64125000D02*
X85511252Y-64125000D01*
%TO.C,R6*%
X88660436Y-72865000D02*
X89114564Y-72865000D01*
X88660436Y-74335000D02*
X89114564Y-74335000D01*
%TO.C,U1*%
X96575000Y-73140000D02*
X98525000Y-73140000D01*
X96575000Y-83260000D02*
X98525000Y-83260000D01*
X100475000Y-73140000D02*
X98525000Y-73140000D01*
X100475000Y-83260000D02*
X98525000Y-83260000D01*
X100925000Y-73200000D02*
X100685000Y-72870000D01*
X101165000Y-72870000D01*
X100925000Y-73200000D01*
G36*
X100925000Y-73200000D02*
G01*
X100685000Y-72870000D01*
X101165000Y-72870000D01*
X100925000Y-73200000D01*
G37*
%TO.C,R11*%
X85060436Y-65665000D02*
X85514564Y-65665000D01*
X85060436Y-67135000D02*
X85514564Y-67135000D01*
%TO.C,R13*%
X85539564Y-77665000D02*
X85085436Y-77665000D01*
X85539564Y-79135000D02*
X85085436Y-79135000D01*
%TO.C,R8*%
X85514564Y-72865000D02*
X85060436Y-72865000D01*
X85514564Y-74335000D02*
X85060436Y-74335000D01*
%TO.C,C3*%
X84988748Y-57845000D02*
X85511252Y-57845000D01*
X84988748Y-59315000D02*
X85511252Y-59315000D01*
%TO.C,C7*%
X84988748Y-67865000D02*
X85511252Y-67865000D01*
X84988748Y-69335000D02*
X85511252Y-69335000D01*
%TO.C,R5*%
X93372936Y-71065000D02*
X93827064Y-71065000D01*
X93372936Y-72535000D02*
X93827064Y-72535000D01*
%TO.C,R4*%
X91739564Y-77265000D02*
X91285436Y-77265000D01*
X91739564Y-78735000D02*
X91285436Y-78735000D01*
%TO.C,C2*%
X103490000Y-82211252D02*
X103490000Y-81688746D01*
X104960000Y-82211252D02*
X104960000Y-81688746D01*
%TO.C,R2*%
X104685436Y-78465000D02*
X105139564Y-78465000D01*
X104685436Y-79935000D02*
X105139564Y-79935000D01*
%TO.C,R10*%
X85060436Y-60465000D02*
X85514564Y-60465000D01*
X85060436Y-61935000D02*
X85514564Y-61935000D01*
%TO.C,Q1*%
X91115000Y-73900000D02*
X91115000Y-75300000D01*
X93435000Y-73900000D02*
X93435000Y-75310000D01*
X93715000Y-75920000D02*
X93385000Y-75680000D01*
X93715000Y-75440000D01*
X93715000Y-75920000D01*
G36*
X93715000Y-75920000D02*
G01*
X93385000Y-75680000D01*
X93715000Y-75440000D01*
X93715000Y-75920000D01*
G37*
%TO.C,R1*%
X104685436Y-76465000D02*
X105139564Y-76465000D01*
X104685436Y-77935000D02*
X105139564Y-77935000D01*
%TO.C,R9*%
X85060436Y-55665000D02*
X85514564Y-55665000D01*
X85060436Y-57135000D02*
X85514564Y-57135000D01*
%TO.C,R3*%
X91285436Y-79465000D02*
X91739564Y-79465000D01*
X91285436Y-80935000D02*
X91739564Y-80935000D01*
%TD*%
M02*
