%TF.GenerationSoftware,KiCad,Pcbnew,8.0.1*%
%TF.CreationDate,2024-07-17T22:44:32+10:00*%
%TF.ProjectId,vga,7667612e-6b69-4636-9164-5f7063625858,rev?*%
%TF.SameCoordinates,Original*%
%TF.FileFunction,Soldermask,Bot*%
%TF.FilePolarity,Negative*%
%FSLAX46Y46*%
G04 Gerber Fmt 4.6, Leading zero omitted, Abs format (unit mm)*
G04 Created by KiCad (PCBNEW 8.0.1) date 2024-07-17 22:44:32*
%MOMM*%
%LPD*%
G01*
G04 APERTURE LIST*
G04 Aperture macros list*
%AMRoundRect*
0 Rectangle with rounded corners*
0 $1 Rounding radius*
0 $2 $3 $4 $5 $6 $7 $8 $9 X,Y pos of 4 corners*
0 Add a 4 corners polygon primitive as box body*
4,1,4,$2,$3,$4,$5,$6,$7,$8,$9,$2,$3,0*
0 Add four circle primitives for the rounded corners*
1,1,$1+$1,$2,$3*
1,1,$1+$1,$4,$5*
1,1,$1+$1,$6,$7*
1,1,$1+$1,$8,$9*
0 Add four rect primitives between the rounded corners*
20,1,$1+$1,$2,$3,$4,$5,0*
20,1,$1+$1,$4,$5,$6,$7,0*
20,1,$1+$1,$6,$7,$8,$9,0*
20,1,$1+$1,$8,$9,$2,$3,0*%
G04 Aperture macros list end*
%ADD10R,3.000000X3.000000*%
%ADD11C,3.000000*%
%ADD12C,6.400000*%
%ADD13C,1.600000*%
%ADD14R,1.600000X1.600000*%
%ADD15C,4.000000*%
%ADD16RoundRect,0.250000X-0.262500X-0.450000X0.262500X-0.450000X0.262500X0.450000X-0.262500X0.450000X0*%
%ADD17RoundRect,0.250000X0.475000X-0.250000X0.475000X0.250000X-0.475000X0.250000X-0.475000X-0.250000X0*%
%ADD18RoundRect,0.250000X0.250000X0.475000X-0.250000X0.475000X-0.250000X-0.475000X0.250000X-0.475000X0*%
%ADD19RoundRect,0.250000X0.262500X0.450000X-0.262500X0.450000X-0.262500X-0.450000X0.262500X-0.450000X0*%
%ADD20RoundRect,0.150000X0.825000X0.150000X-0.825000X0.150000X-0.825000X-0.150000X0.825000X-0.150000X0*%
%ADD21RoundRect,0.250000X-0.475000X0.250000X-0.475000X-0.250000X0.475000X-0.250000X0.475000X0.250000X0*%
%ADD22RoundRect,0.100000X0.100000X-0.225000X0.100000X0.225000X-0.100000X0.225000X-0.100000X-0.225000X0*%
G04 APERTURE END LIST*
D10*
%TO.C,J2*%
X80600000Y-58500000D03*
D11*
X80600000Y-63500000D03*
X80600000Y-68500000D03*
X80600000Y-73500000D03*
X80600000Y-78500001D03*
X80600000Y-83500001D03*
X80600000Y-88499999D03*
X80600000Y-93500000D03*
%TD*%
D12*
%TO.C,H1*%
X78400000Y-100200000D03*
%TD*%
%TO.C,H2*%
X114600000Y-100200000D03*
%TD*%
%TO.C,H1*%
X78400000Y-49475000D03*
%TD*%
D13*
%TO.C,J1*%
X116160000Y-80222500D03*
X116160000Y-77932500D03*
X116160000Y-75642500D03*
X116160000Y-73352500D03*
X116160000Y-71062500D03*
X114180000Y-79077500D03*
X114180000Y-76787500D03*
X114180000Y-74497500D03*
X114180000Y-72207500D03*
X114180000Y-69917500D03*
X112200000Y-80222500D03*
X112200000Y-77932501D03*
X112200000Y-75642500D03*
X112200000Y-73352501D03*
D14*
X112200000Y-71062500D03*
D15*
X114250000Y-62877500D03*
X114249999Y-87877500D03*
%TD*%
D12*
%TO.C,H2*%
X114600000Y-49400000D03*
%TD*%
D16*
%TO.C,R7*%
X88000000Y-75800000D03*
X89825000Y-75800000D03*
%TD*%
D17*
%TO.C,C1*%
X104225000Y-75400000D03*
X104225000Y-73500002D03*
%TD*%
D18*
%TO.C,C5*%
X86200000Y-63390000D03*
X84300000Y-63390000D03*
%TD*%
D19*
%TO.C,R6*%
X89800000Y-73600000D03*
X87975000Y-73600000D03*
%TD*%
D20*
%TO.C,U1*%
X101000000Y-73755000D03*
X101000000Y-76295000D03*
X101000000Y-77565000D03*
X101000000Y-78835000D03*
X101000000Y-80105000D03*
X101000000Y-81375000D03*
X101000000Y-82645000D03*
X96050000Y-82645000D03*
X96050000Y-81375000D03*
X96050000Y-80105000D03*
X96050000Y-78835000D03*
X96050000Y-76295000D03*
X96050000Y-75025000D03*
X96050000Y-73755000D03*
%TD*%
D19*
%TO.C,R11*%
X86200000Y-66400000D03*
X84375000Y-66400000D03*
%TD*%
D16*
%TO.C,R13*%
X84400000Y-78400000D03*
X86225000Y-78400000D03*
%TD*%
%TO.C,R8*%
X84375000Y-73600000D03*
X86200000Y-73600000D03*
%TD*%
D18*
%TO.C,C3*%
X86200000Y-58580000D03*
X84300000Y-58580000D03*
%TD*%
%TO.C,C7*%
X86200000Y-68600000D03*
X84300000Y-68600000D03*
%TD*%
D19*
%TO.C,R5*%
X94512500Y-71800000D03*
X92687500Y-71800000D03*
%TD*%
D16*
%TO.C,R4*%
X90600000Y-78000000D03*
X92425000Y-78000000D03*
%TD*%
D21*
%TO.C,C2*%
X104225000Y-81000000D03*
X104225000Y-82899998D03*
%TD*%
D19*
%TO.C,R2*%
X105825000Y-79200000D03*
X104000000Y-79200000D03*
%TD*%
%TO.C,R10*%
X86200000Y-61200000D03*
X84375000Y-61200000D03*
%TD*%
D22*
%TO.C,Q1*%
X92925000Y-75550000D03*
X92275000Y-75549999D03*
X91625000Y-75550000D03*
X91625000Y-73650000D03*
X92275000Y-73650001D03*
X92925000Y-73650000D03*
%TD*%
D19*
%TO.C,R1*%
X105825000Y-77200000D03*
X104000000Y-77200000D03*
%TD*%
%TO.C,R9*%
X86200000Y-56400000D03*
X84375000Y-56400000D03*
%TD*%
%TO.C,R3*%
X92425000Y-80200000D03*
X90600000Y-80200000D03*
%TD*%
M02*
