M48
; DRILL file {KiCad 8.0.1} date 2024-07-17T22:44:33+1000
; FORMAT={-:-/ absolute / inch / decimal}
; #@! TF.CreationDate,2024-07-17T22:44:33+10:00
; #@! TF.GenerationSoftware,Kicad,Pcbnew,8.0.1
; #@! TF.FileFunction,Plated,1,2,PTH
FMAT,2
INCH
; #@! TA.AperFunction,Plated,PTH,ViaDrill
T1C0.0118
; #@! TA.AperFunction,Plated,PTH,ComponentDrill
T2C0.0394
; #@! TA.AperFunction,Plated,PTH,ComponentDrill
T3C0.0512
; #@! TA.AperFunction,Plated,PTH,ComponentDrill
T4C0.1260
%
G90
G05
T1
X3.5748Y-3.0
X3.685Y-3.0236
X3.721Y-2.8268
T2
X4.4173Y-2.7977
X4.4173Y-2.8879
X4.4173Y-2.9781
X4.4173Y-3.0682
X4.4173Y-3.1584
X4.4953Y-2.7527
X4.4953Y-2.8428
X4.4953Y-2.933
X4.4953Y-3.0231
X4.4953Y-3.1133
X4.5732Y-2.7977
X4.5732Y-2.8879
X4.5732Y-2.9781
X4.5732Y-3.0682
X4.5732Y-3.1584
T3
X3.1732Y-2.3031
X3.1732Y-2.5
X3.1732Y-2.6969
X3.1732Y-2.8937
X3.1732Y-3.0906
X3.1732Y-3.2874
X3.1732Y-3.4843
X3.1732Y-3.6811
T4
X3.0866Y-1.9478
X3.0866Y-3.9449
X4.498Y-3.4597
X4.498Y-2.4755
X4.5118Y-1.9449
X4.5118Y-3.9449
M30
