%TF.GenerationSoftware,KiCad,Pcbnew,8.0.1*%
%TF.CreationDate,2024-06-23T19:42:57+10:00*%
%TF.ProjectId,arcade,61726361-6465-42e6-9b69-6361645f7063,rev?*%
%TF.SameCoordinates,Original*%
%TF.FileFunction,Legend,Bot*%
%TF.FilePolarity,Positive*%
%FSLAX46Y46*%
G04 Gerber Fmt 4.6, Leading zero omitted, Abs format (unit mm)*
G04 Created by KiCad (PCBNEW 8.0.1) date 2024-06-23 19:42:57*
%MOMM*%
%LPD*%
G01*
G04 APERTURE LIST*
%ADD10C,0.100000*%
G04 APERTURE END LIST*
D10*
X95244688Y-63572419D02*
X95578021Y-63096228D01*
X95816116Y-63572419D02*
X95816116Y-62572419D01*
X95816116Y-62572419D02*
X95435164Y-62572419D01*
X95435164Y-62572419D02*
X95339926Y-62620038D01*
X95339926Y-62620038D02*
X95292307Y-62667657D01*
X95292307Y-62667657D02*
X95244688Y-62762895D01*
X95244688Y-62762895D02*
X95244688Y-62905752D01*
X95244688Y-62905752D02*
X95292307Y-63000990D01*
X95292307Y-63000990D02*
X95339926Y-63048609D01*
X95339926Y-63048609D02*
X95435164Y-63096228D01*
X95435164Y-63096228D02*
X95816116Y-63096228D01*
X90482783Y-63048609D02*
X90339926Y-63096228D01*
X90339926Y-63096228D02*
X90292307Y-63143847D01*
X90292307Y-63143847D02*
X90244688Y-63239085D01*
X90244688Y-63239085D02*
X90244688Y-63381942D01*
X90244688Y-63381942D02*
X90292307Y-63477180D01*
X90292307Y-63477180D02*
X90339926Y-63524800D01*
X90339926Y-63524800D02*
X90435164Y-63572419D01*
X90435164Y-63572419D02*
X90816116Y-63572419D01*
X90816116Y-63572419D02*
X90816116Y-62572419D01*
X90816116Y-62572419D02*
X90482783Y-62572419D01*
X90482783Y-62572419D02*
X90387545Y-62620038D01*
X90387545Y-62620038D02*
X90339926Y-62667657D01*
X90339926Y-62667657D02*
X90292307Y-62762895D01*
X90292307Y-62762895D02*
X90292307Y-62858133D01*
X90292307Y-62858133D02*
X90339926Y-62953371D01*
X90339926Y-62953371D02*
X90387545Y-63000990D01*
X90387545Y-63000990D02*
X90482783Y-63048609D01*
X90482783Y-63048609D02*
X90816116Y-63048609D01*
X106893734Y-59459300D02*
X106798496Y-59506919D01*
X106798496Y-59506919D02*
X106608020Y-59506919D01*
X106608020Y-59506919D02*
X106512782Y-59459300D01*
X106512782Y-59459300D02*
X106465163Y-59364061D01*
X106465163Y-59364061D02*
X106465163Y-59316442D01*
X106465163Y-59316442D02*
X106512782Y-59221204D01*
X106512782Y-59221204D02*
X106608020Y-59173585D01*
X106608020Y-59173585D02*
X106750877Y-59173585D01*
X106750877Y-59173585D02*
X106846115Y-59125966D01*
X106846115Y-59125966D02*
X106893734Y-59030728D01*
X106893734Y-59030728D02*
X106893734Y-58983109D01*
X106893734Y-58983109D02*
X106846115Y-58887871D01*
X106846115Y-58887871D02*
X106750877Y-58840252D01*
X106750877Y-58840252D02*
X106608020Y-58840252D01*
X106608020Y-58840252D02*
X106512782Y-58887871D01*
X92792307Y-62620038D02*
X92887545Y-62572419D01*
X92887545Y-62572419D02*
X93030402Y-62572419D01*
X93030402Y-62572419D02*
X93173259Y-62620038D01*
X93173259Y-62620038D02*
X93268497Y-62715276D01*
X93268497Y-62715276D02*
X93316116Y-62810514D01*
X93316116Y-62810514D02*
X93363735Y-63000990D01*
X93363735Y-63000990D02*
X93363735Y-63143847D01*
X93363735Y-63143847D02*
X93316116Y-63334323D01*
X93316116Y-63334323D02*
X93268497Y-63429561D01*
X93268497Y-63429561D02*
X93173259Y-63524800D01*
X93173259Y-63524800D02*
X93030402Y-63572419D01*
X93030402Y-63572419D02*
X92935164Y-63572419D01*
X92935164Y-63572419D02*
X92792307Y-63524800D01*
X92792307Y-63524800D02*
X92744688Y-63477180D01*
X92744688Y-63477180D02*
X92744688Y-63143847D01*
X92744688Y-63143847D02*
X92935164Y-63143847D01*
M02*
