M48
; DRILL file {KiCad 8.0.1} date 2024-06-23T19:42:59+1000
; FORMAT={-:-/ absolute / inch / decimal}
; #@! TF.CreationDate,2024-06-23T19:42:59+10:00
; #@! TF.GenerationSoftware,Kicad,Pcbnew,8.0.1
; #@! TF.FileFunction,Plated,1,2,PTH
FMAT,2
INCH
; #@! TA.AperFunction,Plated,PTH,ViaDrill
T1C0.0118
; #@! TA.AperFunction,Plated,PTH,ComponentDrill
T2C0.0276
; #@! TA.AperFunction,Plated,PTH,ComponentDrill
T3C0.0295
; #@! TA.AperFunction,Plated,PTH,ComponentDrill
T4C0.0315
; #@! TA.AperFunction,Plated,PTH,ComponentDrill
T5C0.0394
; #@! TA.AperFunction,Plated,PTH,ComponentDrill
T6C0.0402
; #@! TA.AperFunction,Plated,PTH,ComponentDrill
T7C0.0512
; #@! TA.AperFunction,Plated,PTH,ComponentDrill
T8C0.1260
%
G90
G05
T1
X5.3132Y-3.0219
X5.4468Y-3.1555
T2
X3.565Y-2.2394
X3.565Y-2.5394
X3.6634Y-2.2394
X3.6634Y-2.5394
X3.7618Y-2.2394
X3.7618Y-2.5394
X3.8681Y-2.2394
X3.8681Y-2.5394
X3.8681Y-2.624
X3.8681Y-2.924
X3.9583Y-2.9163
X3.9606Y-2.3266
X3.9606Y-2.4348
X3.9606Y-2.5285
X3.9606Y-2.8285
X4.2583Y-2.9163
X4.2606Y-2.3266
X4.2606Y-2.4348
X4.3717Y-2.2234
X4.3717Y-2.5234
X4.3717Y-2.6171
X4.3717Y-2.9171
X4.8886Y-2.503
X4.8886Y-2.6014
X5.1886Y-2.503
X5.1886Y-2.6014
T3
X4.1067Y-2.5884
X4.1067Y-2.7795
X4.1567Y-2.7795
X4.1567Y-2.5884
X4.2067Y-2.5884
X4.2067Y-2.7795
T4
X3.565Y-2.6457
X3.565Y-2.7756
X3.565Y-2.9055
X3.7618Y-2.6457
X3.7618Y-2.7756
X3.7618Y-2.9055
X4.485Y-2.3014
X4.485Y-2.4014
X4.485Y-2.5014
X4.485Y-2.6014
X4.485Y-2.7014
X4.485Y-2.8014
X4.485Y-2.9014
X4.785Y-2.3014
X4.785Y-2.4014
X4.785Y-2.5014
X4.785Y-2.6014
X4.785Y-2.7014
X4.785Y-2.8014
X4.785Y-2.9014
X5.0016Y-2.2667
X5.0016Y-2.3652
X5.0016Y-2.7409
X5.0016Y-2.8394
T5
X4.1577Y-2.0087
X4.2028Y-1.9307
X4.2028Y-2.0866
X4.2478Y-2.0087
X4.2929Y-1.9307
X4.2929Y-2.0866
X4.338Y-2.0087
X4.3831Y-1.9307
X4.3831Y-2.0866
X4.4281Y-2.0087
X4.4732Y-1.9307
X4.4732Y-2.0866
X4.5183Y-2.0087
X4.5634Y-1.9307
X4.5634Y-2.0866
X6.9486Y-2.6853
X7.1061Y-2.6853
X7.2636Y-2.6853
X7.4211Y-2.6853
X7.5657Y-3.4734
X7.5657Y-3.6309
X7.5657Y-3.7884
X7.5657Y-3.9459
X7.5657Y-4.1033
X7.5657Y-4.2608
X7.5657Y-4.4183
X7.5657Y-4.5758
X7.5657Y-4.7333
X7.5785Y-2.6853
X7.736Y-2.6853
X7.8935Y-2.6853
X8.051Y-2.6853
X8.2085Y-2.6853
T6
X3.0118Y-4.1504
X3.0118Y-4.8504
X3.1118Y-4.1504
X3.1118Y-4.8504
X3.2118Y-4.1504
X3.2118Y-4.8504
X3.3118Y-4.1504
X3.3118Y-4.8504
X3.4118Y-4.1504
X3.4118Y-4.8504
X3.5118Y-4.1504
X3.5118Y-4.8504
X3.6118Y-4.1504
X3.6118Y-4.8504
X3.7118Y-4.1504
X3.7118Y-4.8504
X3.8118Y-4.1504
X3.8118Y-4.8504
X3.9118Y-4.1504
X3.9118Y-4.8504
X4.0118Y-4.1504
X4.0118Y-4.8504
X4.1118Y-4.1504
X4.1118Y-4.8504
X4.2118Y-4.1504
X4.2118Y-4.8504
X4.3118Y-4.1504
X4.3118Y-4.8504
X4.4118Y-4.1504
X4.4118Y-4.8504
X4.5118Y-4.1504
X4.5118Y-4.8504
X4.6118Y-4.1504
X4.6118Y-4.8504
X4.7118Y-4.1504
X4.7118Y-4.8504
X4.8118Y-4.1504
X4.8118Y-4.8504
X4.9028Y-4.4004
X4.9028Y-4.5004
X4.9028Y-4.6004
X4.9118Y-4.1504
X4.9118Y-4.8504
X5.7224Y-1.8406
X5.7224Y-1.9406
X5.7224Y-2.0406
X5.7224Y-2.1406
X5.7224Y-2.2406
X5.7224Y-2.3406
X5.7224Y-2.4406
X5.7224Y-2.5406
X5.7224Y-2.6406
X5.7224Y-2.7406
X5.7224Y-2.8406
X5.7224Y-2.9406
X5.7224Y-3.0406
X5.7224Y-3.1406
X5.7224Y-3.2406
X5.7224Y-3.3406
X5.7224Y-3.4406
X5.7224Y-3.5406
X5.7224Y-3.6406
X5.7224Y-3.7406
X5.9724Y-3.7315
X6.0724Y-3.7315
X6.1724Y-3.7315
X6.4224Y-1.8406
X6.4224Y-1.9406
X6.4224Y-2.0406
X6.4224Y-2.1406
X6.4224Y-2.2406
X6.4224Y-2.3406
X6.4224Y-2.4406
X6.4224Y-2.5406
X6.4224Y-2.6406
X6.4224Y-2.7406
X6.4224Y-2.8406
X6.4224Y-2.9406
X6.4224Y-3.0406
X6.4224Y-3.1406
X6.4224Y-3.2406
X6.4224Y-3.3406
X6.4224Y-3.4406
X6.4224Y-3.5406
X6.4224Y-3.6406
X6.4224Y-3.7406
T7
X3.0736Y-5.2333
X3.1634Y-2.3071
X3.1634Y-2.5039
X3.1634Y-2.7008
X3.1634Y-2.8976
X3.1634Y-3.0945
X3.1634Y-3.2913
X3.1634Y-3.4882
X3.1634Y-3.685
X3.2705Y-5.2333
X3.4673Y-5.2333
X3.6642Y-5.2333
X3.861Y-5.2333
X3.9488Y-3.3996
X4.0579Y-5.2333
X4.1457Y-3.3996
X4.2547Y-5.2333
X4.3425Y-3.3996
X4.4516Y-5.2333
X4.5394Y-3.3996
X4.6484Y-5.2333
X4.7362Y-3.3996
X4.8453Y-5.2333
X4.9331Y-3.3996
X5.0421Y-5.2333
X5.1299Y-3.3996
X5.239Y-5.2333
X5.3268Y-3.3996
X5.4358Y-5.2333
X5.6831Y-4.124
X5.6957Y-5.2372
X5.8799Y-4.124
X5.8925Y-5.2372
X6.0768Y-4.124
X6.0894Y-5.2372
X6.2736Y-4.124
X6.2862Y-5.2372
X6.4705Y-4.124
X6.4831Y-5.2372
X6.6673Y-4.124
X6.6799Y-5.2372
X6.8642Y-4.124
X6.8768Y-5.2372
X7.061Y-4.124
X7.0736Y-5.2372
X7.2705Y-5.2372
X7.4673Y-5.2372
X7.6642Y-5.2372
X7.861Y-5.2372
X8.0579Y-5.2372
T8
X3.1209Y-1.9478
X3.8805Y-2.0059
X4.8648Y-2.0059
X5.2874Y-1.9478
X8.302Y-5.2352
T5
G00X8.0461Y-2.9796
M15
G01X8.0972Y-2.9796
M16
G05
T7
G00X8.2488Y-2.9382
M15
G01X8.2488Y-3.0209
M16
G05
M30
