%TF.GenerationSoftware,KiCad,Pcbnew,8.0.1*%
%TF.CreationDate,2024-06-07T20:59:54+10:00*%
%TF.ProjectId,arcade,61726361-6465-42e6-9b69-6361645f7063,rev?*%
%TF.SameCoordinates,Original*%
%TF.FileFunction,Copper,L2,Bot*%
%TF.FilePolarity,Positive*%
%FSLAX46Y46*%
G04 Gerber Fmt 4.6, Leading zero omitted, Abs format (unit mm)*
G04 Created by KiCad (PCBNEW 8.0.1) date 2024-06-07 20:59:54*
%MOMM*%
%LPD*%
G01*
G04 APERTURE LIST*
%TA.AperFunction,ComponentPad*%
%ADD10C,1.600000*%
%TD*%
%TA.AperFunction,ComponentPad*%
%ADD11C,1.400000*%
%TD*%
%TA.AperFunction,ComponentPad*%
%ADD12O,1.400000X1.400000*%
%TD*%
%TA.AperFunction,ComponentPad*%
%ADD13R,1.500000X1.500000*%
%TD*%
%TA.AperFunction,ComponentPad*%
%ADD14C,1.500000*%
%TD*%
%TA.AperFunction,ComponentPad*%
%ADD15R,1.600000X1.600000*%
%TD*%
%TA.AperFunction,ComponentPad*%
%ADD16C,4.000000*%
%TD*%
%TA.AperFunction,ComponentPad*%
%ADD17O,1.600000X1.600000*%
%TD*%
%TA.AperFunction,ComponentPad*%
%ADD18R,3.000000X3.000000*%
%TD*%
%TA.AperFunction,ComponentPad*%
%ADD19C,3.000000*%
%TD*%
%TA.AperFunction,ViaPad*%
%ADD20C,0.600000*%
%TD*%
%TA.AperFunction,Conductor*%
%ADD21C,0.200000*%
%TD*%
G04 APERTURE END LIST*
D10*
%TO.P,C10,1*%
%TO.N,AMP R*%
X87800000Y-111800000D03*
%TO.P,C10,2*%
%TO.N,Net-(C10-Pad2)*%
X87800000Y-106800000D03*
%TD*%
D11*
%TO.P,R27,1*%
%TO.N,Net-(C12-Pad2)*%
X104590000Y-114200000D03*
D12*
%TO.P,R27,2*%
%TO.N,/rgb mod/OUT B*%
X112210000Y-114200000D03*
%TD*%
D11*
%TO.P,R9,1*%
%TO.N,IN R*%
X97700000Y-94180000D03*
D12*
%TO.P,R9,2*%
%TO.N,GND*%
X97700000Y-101800000D03*
%TD*%
D13*
%TO.P,Q2,1,B*%
%TO.N,Net-(Q1-C)*%
X130600000Y-122140000D03*
D14*
%TO.P,Q2,2,E*%
%TO.N,Net-(Q2-E)*%
X130600000Y-119600000D03*
%TO.P,Q2,3,C*%
%TO.N,5V*%
X130600000Y-117060001D03*
%TD*%
D15*
%TO.P,C2,1*%
%TO.N,Net-(C2-Pad1)*%
X119830000Y-98140000D03*
D10*
%TO.P,C2,2*%
%TO.N,GND*%
X117330000Y-98140000D03*
%TD*%
D11*
%TO.P,R3,1*%
%TO.N,Net-(R3-Pad1)*%
X133850000Y-114140000D03*
D12*
%TO.P,R3,2*%
%TO.N,Net-(Q1-B)*%
X126230000Y-114140000D03*
%TD*%
D11*
%TO.P,R11,1*%
%TO.N,IN B*%
X108900000Y-94180000D03*
D12*
%TO.P,R11,2*%
%TO.N,GND*%
X108900000Y-101800000D03*
%TD*%
D11*
%TO.P,R5,1*%
%TO.N,5V*%
X133830000Y-117020000D03*
D12*
%TO.P,R5,2*%
%TO.N,Net-(Q1-C)*%
X133830000Y-124640000D03*
%TD*%
D11*
%TO.P,R10,1*%
%TO.N,IN G*%
X103300000Y-94180000D03*
D12*
%TO.P,R10,2*%
%TO.N,GND*%
X103300000Y-101800000D03*
%TD*%
D11*
%TO.P,R4,1*%
%TO.N,Net-(Q1-B)*%
X123850000Y-114140000D03*
D12*
%TO.P,R4,2*%
%TO.N,GND*%
X116230000Y-114140000D03*
%TD*%
D11*
%TO.P,R17,1*%
%TO.N,AMP R*%
X90600000Y-111900000D03*
D12*
%TO.P,R17,2*%
%TO.N,GND*%
X90600000Y-104280000D03*
%TD*%
D10*
%TO.P,C6,1*%
%TO.N,GND*%
X85000000Y-96500000D03*
%TO.P,C6,2*%
%TO.N,5V*%
X85000000Y-101500000D03*
%TD*%
D11*
%TO.P,R2,1*%
%TO.N,Net-(J1-Pin_14)*%
X123330000Y-93390000D03*
D12*
%TO.P,R2,2*%
%TO.N,Net-(C2-Pad1)*%
X123330000Y-101010000D03*
%TD*%
D10*
%TO.P,C3,1*%
%TO.N,IN B*%
X106100000Y-96700000D03*
%TO.P,C3,2*%
%TO.N,Net-(U2-CH1_IN)*%
X106100000Y-101700000D03*
%TD*%
D13*
%TO.P,Q1,1,B*%
%TO.N,Net-(Q1-B)*%
X125600000Y-122140000D03*
D14*
%TO.P,Q1,2,E*%
%TO.N,GND*%
X125600000Y-119600000D03*
%TO.P,Q1,3,C*%
%TO.N,Net-(Q1-C)*%
X125600000Y-117060001D03*
%TD*%
D11*
%TO.P,R15,1*%
%TO.N,AMP B*%
X106500000Y-111920000D03*
D12*
%TO.P,R15,2*%
%TO.N,GND*%
X106500000Y-104300000D03*
%TD*%
D11*
%TO.P,R12,1*%
%TO.N,AMP B*%
X108900000Y-111920000D03*
D12*
%TO.P,R12,2*%
%TO.N,Net-(U2-CH1_OUT)*%
X108900000Y-104300000D03*
%TD*%
D10*
%TO.P,C12,1*%
%TO.N,AMP B*%
X103700000Y-111820000D03*
%TO.P,C12,2*%
%TO.N,Net-(C12-Pad2)*%
X103700000Y-106820000D03*
%TD*%
D11*
%TO.P,R7,1*%
%TO.N,Net-(R6-Pad2)*%
X121600000Y-124580001D03*
D12*
%TO.P,R7,2*%
%TO.N,GND*%
X121600000Y-116960001D03*
%TD*%
D11*
%TO.P,R13,1*%
%TO.N,AMP G*%
X100900000Y-111920000D03*
D12*
%TO.P,R13,2*%
%TO.N,Net-(U2-CH2_OUT)*%
X100900000Y-104300000D03*
%TD*%
D11*
%TO.P,R1,1*%
%TO.N,Net-(J1-Pin_13)*%
X125830000Y-93390000D03*
D12*
%TO.P,R1,2*%
%TO.N,Net-(C1-Pad1)*%
X125830000Y-101010000D03*
%TD*%
D11*
%TO.P,R6,1*%
%TO.N,Net-(Q2-E)*%
X131600000Y-124580001D03*
D12*
%TO.P,R6,2*%
%TO.N,Net-(R6-Pad2)*%
X123980000Y-124580001D03*
%TD*%
D11*
%TO.P,R14,1*%
%TO.N,Net-(U2-CH3_OUT)*%
X93000000Y-104280000D03*
D12*
%TO.P,R14,2*%
%TO.N,AMP R*%
X93000000Y-111900000D03*
%TD*%
D11*
%TO.P,R25,1*%
%TO.N,Net-(C11-Pad2)*%
X94790000Y-114200000D03*
D12*
%TO.P,R25,2*%
%TO.N,/rgb mod/OUT G*%
X102410000Y-114200000D03*
%TD*%
D16*
%TO.P,J1,0*%
%TO.N,N/C*%
X111855000Y-88750001D03*
X86855000Y-88750000D03*
D15*
%TO.P,J1,1,Pin_1*%
%TO.N,IN R*%
X95040000Y-90800000D03*
D10*
%TO.P,J1,2,Pin_2*%
%TO.N,unconnected-(J1-Pin_2-Pad2)*%
X97330001Y-90800000D03*
%TO.P,J1,3,Pin_3*%
%TO.N,IN G*%
X99620000Y-90800000D03*
%TO.P,J1,4,Pin_4*%
%TO.N,unconnected-(J1-Pin_4-Pad4)*%
X101910001Y-90800000D03*
%TO.P,J1,5,Pin_5*%
%TO.N,IN B*%
X104200000Y-90800000D03*
%TO.P,J1,6,Pin_6*%
%TO.N,unconnected-(J1-Pin_6-Pad6)*%
X93895000Y-88820000D03*
%TO.P,J1,7,Pin_7*%
%TO.N,unconnected-(J1-Pin_7-Pad7)*%
X96185000Y-88820000D03*
%TO.P,J1,8,Pin_8*%
%TO.N,unconnected-(J1-Pin_8-Pad8)*%
X98475000Y-88820000D03*
%TO.P,J1,9,Pin_9*%
%TO.N,unconnected-(J1-Pin_9-Pad9)*%
X100765000Y-88820000D03*
%TO.P,J1,10,Pin_10*%
%TO.N,GND*%
X103055000Y-88820000D03*
%TO.P,J1,11,Pin_11*%
%TO.N,unconnected-(J1-Pin_11-Pad11)*%
X95040000Y-86840000D03*
%TO.P,J1,12,Pin_12*%
%TO.N,unconnected-(J1-Pin_12-Pad12)*%
X97330000Y-86840000D03*
%TO.P,J1,13,Pin_13*%
%TO.N,Net-(J1-Pin_13)*%
X99620000Y-86840000D03*
%TO.P,J1,14,Pin_14*%
%TO.N,Net-(J1-Pin_14)*%
X101910000Y-86840000D03*
%TO.P,J1,15,Pin_15*%
%TO.N,unconnected-(J1-Pin_15-Pad15)*%
X104200000Y-86840000D03*
%TD*%
D11*
%TO.P,R22,1*%
%TO.N,Net-(C10-Pad2)*%
X92590000Y-114200000D03*
D12*
%TO.P,R22,2*%
%TO.N,/rgb mod/OUT R*%
X84970000Y-114200000D03*
%TD*%
D11*
%TO.P,R8,1*%
%TO.N,IN S*%
X118850000Y-116960001D03*
D12*
%TO.P,R8,2*%
%TO.N,Net-(R6-Pad2)*%
X118850000Y-124580001D03*
%TD*%
D10*
%TO.P,C5,1*%
%TO.N,IN R*%
X95000000Y-96700000D03*
%TO.P,C5,2*%
%TO.N,Net-(U2-CH3_IN)*%
X95000000Y-101700000D03*
%TD*%
D11*
%TO.P,R29,1*%
%TO.N,5V*%
X85000000Y-104280000D03*
D12*
%TO.P,R29,2*%
%TO.N,/rgb mod/OUT BLK*%
X85000000Y-111900000D03*
%TD*%
D15*
%TO.P,U1,1*%
%TO.N,Net-(J1-Pin_13)*%
X133450000Y-103640000D03*
D17*
%TO.P,U1,2*%
%TO.N,Net-(C1-Pad1)*%
X130910000Y-103640000D03*
%TO.P,U1,3*%
%TO.N,Net-(U1-Pad3)*%
X128370001Y-103640000D03*
%TO.P,U1,4*%
%TO.N,Net-(J1-Pin_14)*%
X125830000Y-103640000D03*
%TO.P,U1,5*%
%TO.N,Net-(C2-Pad1)*%
X123290000Y-103640000D03*
%TO.P,U1,6*%
%TO.N,Net-(U1-Pad10)*%
X120750000Y-103640000D03*
%TO.P,U1,7,GND*%
%TO.N,GND*%
X118210000Y-103640000D03*
%TO.P,U1,8*%
%TO.N,Net-(U1-Pad12)*%
X118210000Y-111260000D03*
%TO.P,U1,9*%
%TO.N,Net-(U1-Pad3)*%
X120750000Y-111260000D03*
%TO.P,U1,10*%
%TO.N,Net-(U1-Pad10)*%
X123290000Y-111260000D03*
%TO.P,U1,11*%
%TO.N,Net-(R3-Pad1)*%
X125830000Y-111260000D03*
%TO.P,U1,12*%
%TO.N,Net-(U1-Pad12)*%
X128370000Y-111260000D03*
%TO.P,U1,13*%
%TO.N,GND*%
X130910000Y-111260000D03*
%TO.P,U1,14,VCC*%
%TO.N,5V*%
X133450000Y-111260000D03*
%TD*%
D18*
%TO.P,J6,1,Pin_1*%
%TO.N,/rgb mod/OUT R*%
X84500000Y-121400000D03*
D19*
%TO.P,J6,2,Pin_2*%
%TO.N,/rgb mod/OUT G*%
X89500000Y-121400000D03*
%TO.P,J6,3,Pin_3*%
%TO.N,/rgb mod/OUT B*%
X94500000Y-121400000D03*
%TO.P,J6,4,Pin_4*%
%TO.N,IN S*%
X99500000Y-121400000D03*
%TO.P,J6,5,Pin_5*%
%TO.N,/rgb mod/OUT BLK*%
X104500000Y-121400000D03*
%TO.P,J6,6,Pin_6*%
%TO.N,GND*%
X109500000Y-121400000D03*
%TO.P,J6,7,Pin_7*%
%TO.N,5V*%
X114500000Y-121400000D03*
%TD*%
D10*
%TO.P,C11,1*%
%TO.N,AMP G*%
X95800000Y-111800000D03*
%TO.P,C11,2*%
%TO.N,Net-(C11-Pad2)*%
X95800000Y-106800000D03*
%TD*%
D11*
%TO.P,R16,1*%
%TO.N,AMP G*%
X98562500Y-111900000D03*
D12*
%TO.P,R16,2*%
%TO.N,GND*%
X98562500Y-104280000D03*
%TD*%
D15*
%TO.P,C1,1*%
%TO.N,Net-(C1-Pad1)*%
X129374887Y-98140000D03*
D10*
%TO.P,C1,2*%
%TO.N,GND*%
X131874887Y-98140000D03*
%TD*%
%TO.P,C4,1*%
%TO.N,IN G*%
X100500000Y-96700000D03*
%TO.P,C4,2*%
%TO.N,Net-(U2-CH2_IN)*%
X100500000Y-101700000D03*
%TD*%
D20*
%TO.N,GND*%
X115600000Y-124500000D03*
X89000000Y-97800000D03*
X88900000Y-117500000D03*
X127400000Y-115700000D03*
X133900000Y-122200000D03*
X127600000Y-101900000D03*
X83200000Y-117900000D03*
X121300000Y-107800000D03*
X128800000Y-113700000D03*
X88300000Y-97800000D03*
X99500000Y-118600000D03*
%TD*%
D21*
%TO.N,GND*%
X116530001Y-97340001D02*
X117330000Y-98140000D01*
X132179999Y-108290001D02*
X132179999Y-98445112D01*
X130910000Y-109560000D02*
X132179999Y-108290001D01*
X132179999Y-98445112D02*
X131874887Y-98140000D01*
X130910000Y-111260000D02*
X130910000Y-109560000D01*
%TO.N,Net-(C1-Pad1)*%
X129374887Y-99915113D02*
X128280000Y-101010000D01*
X128280000Y-101010000D02*
X130910000Y-103640000D01*
X129374887Y-98140000D02*
X129374887Y-99915113D01*
X125830000Y-101010000D02*
X128280000Y-101010000D01*
%TO.N,Net-(C2-Pad1)*%
X123330000Y-101010000D02*
X123290000Y-101050000D01*
X123290000Y-101050000D02*
X123290000Y-103640000D01*
X119830000Y-98140000D02*
X120460000Y-98140000D01*
X120460000Y-98140000D02*
X123330000Y-101010000D01*
%TO.N,Net-(C10-Pad2)*%
X88644365Y-114200000D02*
X86700000Y-112255635D01*
X86700000Y-112255635D02*
X86700000Y-107900000D01*
X86700000Y-107900000D02*
X87800000Y-106800000D01*
X92590000Y-114200000D02*
X88644365Y-114200000D01*
%TO.N,IN R*%
X97700000Y-94180000D02*
X95040000Y-91520000D01*
X95000000Y-96700000D02*
X97520000Y-94180000D01*
X97520000Y-94180000D02*
X97700000Y-94180000D01*
X95040000Y-91520000D02*
X95040000Y-90800000D01*
%TO.N,IN G*%
X103020000Y-94180000D02*
X103300000Y-94180000D01*
X103300000Y-94180000D02*
X99920000Y-90800000D01*
X99920000Y-90800000D02*
X99620000Y-90800000D01*
X100500000Y-96700000D02*
X103020000Y-94180000D01*
%TO.N,AMP R*%
X92900000Y-111800000D02*
X93000000Y-111900000D01*
X87800000Y-111800000D02*
X92900000Y-111800000D01*
%TO.N,IN B*%
X108900000Y-94180000D02*
X107580000Y-94180000D01*
X108620000Y-94180000D02*
X108900000Y-94180000D01*
X107580000Y-94180000D02*
X104200000Y-90800000D01*
X106100000Y-96700000D02*
X108620000Y-94180000D01*
%TO.N,AMP G*%
X100780000Y-111800000D02*
X100900000Y-111920000D01*
X95800000Y-111800000D02*
X100780000Y-111800000D01*
%TO.N,5V*%
X81800000Y-107480000D02*
X85000000Y-104280000D01*
X122350000Y-113580001D02*
X122350000Y-114830001D01*
X123100000Y-112830001D02*
X122350000Y-113580001D01*
X119520306Y-121400000D02*
X114500000Y-121400000D01*
X114500000Y-121400000D02*
X111200000Y-124700000D01*
X130600000Y-117060001D02*
X130600000Y-116575001D01*
X111200000Y-124700000D02*
X83034315Y-124700000D01*
X81800000Y-123465685D02*
X81800000Y-107480000D01*
X130600000Y-116575001D02*
X126855000Y-112830001D01*
X130830000Y-117060001D02*
X130870001Y-117020000D01*
X126855000Y-112830001D02*
X123100000Y-112830001D01*
X135100000Y-115750000D02*
X135100000Y-112910000D01*
X130870001Y-117020000D02*
X133830000Y-117020000D01*
X122350000Y-114830001D02*
X122850000Y-115330001D01*
X133830000Y-117020000D02*
X135100000Y-115750000D01*
X135100000Y-112910000D02*
X133450000Y-111260000D01*
X130600000Y-117060001D02*
X130830000Y-117060001D01*
X122850000Y-115330001D02*
X122850000Y-118070306D01*
X122850000Y-118070306D02*
X119520306Y-121400000D01*
X83034315Y-124700000D02*
X81800000Y-123465685D01*
%TO.N,Net-(J1-Pin_14)*%
X111824314Y-92790000D02*
X122730000Y-92790000D01*
X101910000Y-86840000D02*
X103010000Y-85740000D01*
X122730000Y-92790000D02*
X123330000Y-93390000D01*
X124600000Y-102410000D02*
X125830000Y-103640000D01*
X104774314Y-85740000D02*
X111824314Y-92790000D01*
X124600000Y-94660000D02*
X124600000Y-102410000D01*
X123330000Y-93390000D02*
X124600000Y-94660000D01*
X103010000Y-85740000D02*
X104774314Y-85740000D01*
%TO.N,Net-(J1-Pin_13)*%
X128680522Y-93390000D02*
X134080000Y-98789478D01*
X134080000Y-103010000D02*
X133450000Y-103640000D01*
X111990000Y-92390000D02*
X124830000Y-92390000D01*
X134080000Y-98789478D02*
X134080000Y-103010000D01*
X101120000Y-85340000D02*
X104940000Y-85340000D01*
X99620000Y-86840000D02*
X101120000Y-85340000D01*
X124830000Y-92390000D02*
X125830000Y-93390000D01*
X104940000Y-85340000D02*
X111990000Y-92390000D01*
X125830000Y-93390000D02*
X128680522Y-93390000D01*
%TO.N,Net-(Q1-C)*%
X131100000Y-118330001D02*
X126870000Y-118330001D01*
X131850000Y-119080001D02*
X131100000Y-118330001D01*
X130600000Y-122140000D02*
X131850000Y-120890000D01*
X133830000Y-124640000D02*
X131330000Y-122140000D01*
X126870000Y-118330001D02*
X125600000Y-117060001D01*
X131850000Y-120890000D02*
X131850000Y-119080001D01*
X131330000Y-122140000D02*
X130600000Y-122140000D01*
%TO.N,Net-(Q1-B)*%
X123850000Y-114140000D02*
X123850000Y-120390000D01*
X123850000Y-114140000D02*
X126230000Y-114140000D01*
X123850000Y-120390000D02*
X125600000Y-122140000D01*
%TO.N,Net-(Q2-E)*%
X130600000Y-119600000D02*
X129100000Y-121100000D01*
X130600000Y-124580001D02*
X131600000Y-124580001D01*
X129100000Y-121100000D02*
X129100000Y-123080001D01*
X129100000Y-123080001D02*
X130600000Y-124580001D01*
%TO.N,Net-(R3-Pad1)*%
X129600000Y-110580001D02*
X128850000Y-109830001D01*
X128850000Y-109830001D02*
X127259999Y-109830001D01*
X131240000Y-114140000D02*
X129600000Y-112500000D01*
X127259999Y-109830001D02*
X125830000Y-111260000D01*
X133850000Y-114140000D02*
X131240000Y-114140000D01*
X129600000Y-112500000D02*
X129600000Y-110580001D01*
%TO.N,Net-(R6-Pad2)*%
X123980000Y-124580001D02*
X118850000Y-124580001D01*
%TO.N,IN S*%
X102600000Y-118300000D02*
X117510001Y-118300000D01*
X117510001Y-118300000D02*
X118850000Y-116960001D01*
X99500000Y-121400000D02*
X102600000Y-118300000D01*
%TO.N,Net-(U1-Pad10)*%
X120750000Y-103640000D02*
X123290000Y-106180000D01*
X123290000Y-106180000D02*
X123290000Y-111260000D01*
%TO.N,Net-(U1-Pad12)*%
X119310000Y-112360000D02*
X127270000Y-112360000D01*
X127270000Y-112360000D02*
X128370000Y-111260000D01*
X118210000Y-111260000D02*
X119310000Y-112360000D01*
%TO.N,Net-(U1-Pad3)*%
X119350000Y-109860000D02*
X120750000Y-111260000D01*
X123350000Y-105080001D02*
X122762183Y-105080001D01*
X128370001Y-103640000D02*
X126930000Y-105080001D01*
X122100000Y-104417818D02*
X122100000Y-103080001D01*
X119350000Y-103080001D02*
X119350000Y-109860000D01*
X126930000Y-105080001D02*
X123350000Y-105080001D01*
X122100000Y-103080001D02*
X121350000Y-102330001D01*
X121350000Y-102330001D02*
X120100000Y-102330001D01*
X120100000Y-102330001D02*
X119350000Y-103080001D01*
X122762183Y-105080001D02*
X122100000Y-104417818D01*
%TO.N,/rgb mod/OUT B*%
X108810000Y-117600000D02*
X112210000Y-114200000D01*
X94500000Y-121400000D02*
X98300000Y-117600000D01*
X98300000Y-117600000D02*
X108810000Y-117600000D01*
%TO.N,/rgb mod/OUT G*%
X96700000Y-114200000D02*
X102410000Y-114200000D01*
X89500000Y-121400000D02*
X96700000Y-114200000D01*
%TO.N,/rgb mod/OUT R*%
X84970000Y-114200000D02*
X84970000Y-120930000D01*
X84970000Y-120930000D02*
X84500000Y-121400000D01*
%TO.N,Net-(C11-Pad2)*%
X94090000Y-113500000D02*
X94090000Y-108510000D01*
X94790000Y-114200000D02*
X94090000Y-113500000D01*
X94090000Y-108510000D02*
X95800000Y-106800000D01*
%TO.N,AMP B*%
X108800000Y-111820000D02*
X108900000Y-111920000D01*
X103700000Y-111820000D02*
X108800000Y-111820000D01*
%TO.N,Net-(C12-Pad2)*%
X102600000Y-112275635D02*
X102600000Y-107920000D01*
X102600000Y-107920000D02*
X103700000Y-106820000D01*
X104590000Y-114200000D02*
X104524365Y-114200000D01*
X104524365Y-114200000D02*
X102600000Y-112275635D01*
%TO.N,/rgb mod/OUT BLK*%
X85000000Y-111900000D02*
X82200000Y-114700000D01*
X83100000Y-124200000D02*
X101700000Y-124200000D01*
X101700000Y-124200000D02*
X104500000Y-121400000D01*
X82200000Y-114700000D02*
X82200000Y-123300000D01*
X82200000Y-123300000D02*
X83100000Y-124200000D01*
%TD*%
%TA.AperFunction,Conductor*%
%TO.N,GND*%
G36*
X135142539Y-83820185D02*
G01*
X135188294Y-83872989D01*
X135199500Y-83924500D01*
X135199500Y-111860903D01*
X135179815Y-111927942D01*
X135127011Y-111973697D01*
X135057853Y-111983641D01*
X134994297Y-111954616D01*
X134987819Y-111948584D01*
X134741941Y-111702706D01*
X134708456Y-111641383D01*
X134709847Y-111582931D01*
X134710611Y-111580080D01*
X134735635Y-111486692D01*
X134755468Y-111260000D01*
X134750202Y-111199815D01*
X134747355Y-111167266D01*
X134735635Y-111033308D01*
X134676739Y-110813504D01*
X134580568Y-110607266D01*
X134450047Y-110420861D01*
X134450045Y-110420858D01*
X134289141Y-110259954D01*
X134102734Y-110129432D01*
X134102732Y-110129431D01*
X133896497Y-110033261D01*
X133896488Y-110033258D01*
X133676697Y-109974366D01*
X133676693Y-109974365D01*
X133676692Y-109974365D01*
X133676691Y-109974364D01*
X133676686Y-109974364D01*
X133450002Y-109954532D01*
X133449998Y-109954532D01*
X133223313Y-109974364D01*
X133223302Y-109974366D01*
X133003511Y-110033258D01*
X133003502Y-110033261D01*
X132797267Y-110129431D01*
X132797265Y-110129432D01*
X132610858Y-110259954D01*
X132449954Y-110420858D01*
X132343244Y-110573258D01*
X132319432Y-110607266D01*
X132319315Y-110607518D01*
X132292106Y-110665867D01*
X132245933Y-110718306D01*
X132178739Y-110737457D01*
X132111858Y-110717241D01*
X132067342Y-110665865D01*
X132040135Y-110607520D01*
X132040134Y-110607518D01*
X131909657Y-110421179D01*
X131748820Y-110260342D01*
X131562482Y-110129865D01*
X131356328Y-110033734D01*
X131160000Y-109981127D01*
X131160000Y-110944314D01*
X131155606Y-110939920D01*
X131064394Y-110887259D01*
X130962661Y-110860000D01*
X130857339Y-110860000D01*
X130755606Y-110887259D01*
X130664394Y-110939920D01*
X130660000Y-110944314D01*
X130660000Y-109981127D01*
X130463671Y-110033734D01*
X130257518Y-110129865D01*
X130190756Y-110176612D01*
X130124550Y-110198939D01*
X130056783Y-110181927D01*
X130031953Y-110162717D01*
X129964397Y-110095161D01*
X129964374Y-110095140D01*
X129337590Y-109468356D01*
X129337588Y-109468353D01*
X129218717Y-109349482D01*
X129218716Y-109349481D01*
X129131904Y-109299361D01*
X129131904Y-109299360D01*
X129131900Y-109299359D01*
X129081785Y-109270424D01*
X128929057Y-109229500D01*
X128770943Y-109229500D01*
X128763347Y-109229500D01*
X128763331Y-109229501D01*
X127346668Y-109229501D01*
X127346652Y-109229500D01*
X127339056Y-109229500D01*
X127180942Y-109229500D01*
X127073586Y-109258266D01*
X127028209Y-109270425D01*
X127028208Y-109270426D01*
X126978095Y-109299360D01*
X126978094Y-109299361D01*
X126934688Y-109324421D01*
X126891284Y-109349480D01*
X126891281Y-109349482D01*
X126779477Y-109461287D01*
X126272705Y-109968058D01*
X126211382Y-110001543D01*
X126152931Y-110000152D01*
X126056697Y-109974366D01*
X126056693Y-109974365D01*
X126056692Y-109974365D01*
X126056691Y-109974364D01*
X126056686Y-109974364D01*
X125830002Y-109954532D01*
X125829998Y-109954532D01*
X125603313Y-109974364D01*
X125603302Y-109974366D01*
X125383511Y-110033258D01*
X125383502Y-110033261D01*
X125177267Y-110129431D01*
X125177265Y-110129432D01*
X124990858Y-110259954D01*
X124829954Y-110420858D01*
X124699432Y-110607265D01*
X124699431Y-110607267D01*
X124672382Y-110665275D01*
X124626209Y-110717714D01*
X124559016Y-110736866D01*
X124492135Y-110716650D01*
X124447618Y-110665275D01*
X124420568Y-110607266D01*
X124290047Y-110420861D01*
X124290045Y-110420858D01*
X124129140Y-110259953D01*
X123943377Y-110129881D01*
X123899752Y-110075304D01*
X123890500Y-110028306D01*
X123890500Y-106100945D01*
X123890500Y-106100943D01*
X123849577Y-105948216D01*
X123802398Y-105866500D01*
X123785926Y-105798601D01*
X123808779Y-105732574D01*
X123863700Y-105689383D01*
X123909786Y-105680501D01*
X126843331Y-105680501D01*
X126843347Y-105680502D01*
X126850943Y-105680502D01*
X127009054Y-105680502D01*
X127009057Y-105680502D01*
X127161785Y-105639578D01*
X127242008Y-105593261D01*
X127298716Y-105560521D01*
X127410520Y-105448717D01*
X127410520Y-105448715D01*
X127420724Y-105438512D01*
X127420728Y-105438507D01*
X127927295Y-104931939D01*
X127988616Y-104898456D01*
X128047067Y-104899847D01*
X128053274Y-104901510D01*
X128143309Y-104925635D01*
X128305231Y-104939801D01*
X128369999Y-104945468D01*
X128370001Y-104945468D01*
X128370003Y-104945468D01*
X128426808Y-104940498D01*
X128596693Y-104925635D01*
X128816497Y-104866739D01*
X129022735Y-104770568D01*
X129209140Y-104640047D01*
X129370048Y-104479139D01*
X129500569Y-104292734D01*
X129527618Y-104234726D01*
X129573790Y-104182287D01*
X129640983Y-104163135D01*
X129707865Y-104183350D01*
X129752381Y-104234724D01*
X129779432Y-104292734D01*
X129779433Y-104292735D01*
X129909954Y-104479141D01*
X130070858Y-104640045D01*
X130085075Y-104650000D01*
X130257266Y-104770568D01*
X130463504Y-104866739D01*
X130683308Y-104925635D01*
X130845230Y-104939801D01*
X130909998Y-104945468D01*
X130910000Y-104945468D01*
X130910002Y-104945468D01*
X130966807Y-104940498D01*
X131136692Y-104925635D01*
X131356496Y-104866739D01*
X131562734Y-104770568D01*
X131749139Y-104640047D01*
X131910047Y-104479139D01*
X131927272Y-104454539D01*
X131981848Y-104410913D01*
X132051346Y-104403718D01*
X132113701Y-104435239D01*
X132149116Y-104495468D01*
X132152138Y-104512406D01*
X132155908Y-104547483D01*
X132206202Y-104682328D01*
X132206206Y-104682335D01*
X132292452Y-104797544D01*
X132292455Y-104797547D01*
X132407664Y-104883793D01*
X132407671Y-104883797D01*
X132542517Y-104934091D01*
X132542516Y-104934091D01*
X132549444Y-104934835D01*
X132602127Y-104940500D01*
X134297872Y-104940499D01*
X134357483Y-104934091D01*
X134492331Y-104883796D01*
X134607546Y-104797546D01*
X134693796Y-104682331D01*
X134744091Y-104547483D01*
X134750500Y-104487873D01*
X134750499Y-102792128D01*
X134744091Y-102732517D01*
X134731980Y-102700047D01*
X134690697Y-102589360D01*
X134692500Y-102588687D01*
X134680500Y-102541670D01*
X134680500Y-98878537D01*
X134680501Y-98878524D01*
X134680501Y-98710423D01*
X134680501Y-98710421D01*
X134639577Y-98557693D01*
X134610639Y-98507573D01*
X134560520Y-98420762D01*
X134448716Y-98308958D01*
X134448715Y-98308957D01*
X134444385Y-98304627D01*
X134444374Y-98304617D01*
X129168112Y-93028355D01*
X129168110Y-93028352D01*
X129049239Y-92909481D01*
X129049238Y-92909480D01*
X128942470Y-92847838D01*
X128942469Y-92847837D01*
X128912305Y-92830422D01*
X128856403Y-92815443D01*
X128759579Y-92789499D01*
X128601465Y-92789499D01*
X128593869Y-92789499D01*
X128593853Y-92789500D01*
X126942621Y-92789500D01*
X126875582Y-92769815D01*
X126843667Y-92740227D01*
X126720979Y-92577761D01*
X126556562Y-92427876D01*
X126556560Y-92427874D01*
X126367404Y-92310754D01*
X126367398Y-92310752D01*
X126159940Y-92230382D01*
X125941243Y-92189500D01*
X125718757Y-92189500D01*
X125642593Y-92203737D01*
X125580784Y-92215291D01*
X125511269Y-92208259D01*
X125470321Y-92181085D01*
X125317584Y-92028349D01*
X125317580Y-92028344D01*
X125198717Y-91909481D01*
X125198716Y-91909480D01*
X125111904Y-91859360D01*
X125111904Y-91859359D01*
X125111900Y-91859358D01*
X125061785Y-91830423D01*
X124909057Y-91789499D01*
X124750943Y-91789499D01*
X124743347Y-91789499D01*
X124743331Y-91789500D01*
X112290098Y-91789500D01*
X112223059Y-91769815D01*
X112202417Y-91753181D01*
X111911418Y-91462182D01*
X111877933Y-91400859D01*
X111882917Y-91331167D01*
X111924789Y-91275234D01*
X111990253Y-91250817D01*
X111999099Y-91250501D01*
X112012316Y-91250501D01*
X112012318Y-91250501D01*
X112012321Y-91250500D01*
X112012329Y-91250500D01*
X112198593Y-91226969D01*
X112324473Y-91211067D01*
X112629225Y-91132820D01*
X112629228Y-91132819D01*
X112921757Y-91016999D01*
X112921758Y-91016998D01*
X112921756Y-91016998D01*
X112921766Y-91016995D01*
X113197484Y-90865417D01*
X113452030Y-90680479D01*
X113681390Y-90465095D01*
X113881947Y-90222664D01*
X114050537Y-89957008D01*
X114184503Y-89672316D01*
X114281731Y-89373080D01*
X114340688Y-89064016D01*
X114341778Y-89046692D01*
X114360444Y-88750006D01*
X114360444Y-88749995D01*
X114340689Y-88435996D01*
X114340688Y-88435989D01*
X114340688Y-88435988D01*
X114340688Y-88435986D01*
X114281731Y-88126922D01*
X114184503Y-87827686D01*
X114184499Y-87827678D01*
X114050538Y-87542997D01*
X114050538Y-87542996D01*
X114050537Y-87542994D01*
X113929307Y-87351965D01*
X113881948Y-87277339D01*
X113881945Y-87277335D01*
X113681393Y-87034910D01*
X113681391Y-87034908D01*
X113452031Y-86819524D01*
X113452021Y-86819516D01*
X113197495Y-86634592D01*
X113197488Y-86634587D01*
X113197484Y-86634585D01*
X112921766Y-86483007D01*
X112921763Y-86483005D01*
X112921758Y-86483003D01*
X112921757Y-86483002D01*
X112629228Y-86367182D01*
X112629225Y-86367181D01*
X112324476Y-86288935D01*
X112324463Y-86288933D01*
X112012329Y-86249501D01*
X112012318Y-86249501D01*
X111697682Y-86249501D01*
X111697670Y-86249501D01*
X111385536Y-86288933D01*
X111385523Y-86288935D01*
X111080774Y-86367181D01*
X111080771Y-86367182D01*
X110788242Y-86483002D01*
X110788241Y-86483003D01*
X110512516Y-86634585D01*
X110512504Y-86634592D01*
X110257978Y-86819516D01*
X110257968Y-86819524D01*
X110028608Y-87034908D01*
X110028606Y-87034910D01*
X109828054Y-87277335D01*
X109828051Y-87277339D01*
X109659464Y-87542991D01*
X109659461Y-87542997D01*
X109525499Y-87827679D01*
X109525497Y-87827684D01*
X109428270Y-88126917D01*
X109369311Y-88435989D01*
X109369310Y-88435996D01*
X109357902Y-88617335D01*
X109334047Y-88683006D01*
X109278475Y-88725355D01*
X109208828Y-88730937D01*
X109147220Y-88697978D01*
X109146466Y-88697230D01*
X105427590Y-84978355D01*
X105427588Y-84978352D01*
X105308717Y-84859481D01*
X105308716Y-84859480D01*
X105221904Y-84809360D01*
X105221904Y-84809359D01*
X105221900Y-84809358D01*
X105171785Y-84780423D01*
X105019057Y-84739499D01*
X104860943Y-84739499D01*
X104853347Y-84739499D01*
X104853331Y-84739500D01*
X101040940Y-84739500D01*
X101000019Y-84750464D01*
X101000019Y-84750465D01*
X100962751Y-84760451D01*
X100888214Y-84780423D01*
X100888209Y-84780426D01*
X100751290Y-84859475D01*
X100751282Y-84859481D01*
X100639478Y-84971286D01*
X100062705Y-85548058D01*
X100001382Y-85581543D01*
X99942931Y-85580152D01*
X99846697Y-85554366D01*
X99846693Y-85554365D01*
X99846692Y-85554365D01*
X99846691Y-85554364D01*
X99846686Y-85554364D01*
X99620002Y-85534532D01*
X99619998Y-85534532D01*
X99393313Y-85554364D01*
X99393302Y-85554366D01*
X99173511Y-85613258D01*
X99173502Y-85613261D01*
X98967267Y-85709431D01*
X98967265Y-85709432D01*
X98780858Y-85839954D01*
X98619953Y-86000859D01*
X98576575Y-86062811D01*
X98521998Y-86106436D01*
X98452500Y-86113630D01*
X98390145Y-86082107D01*
X98373425Y-86062811D01*
X98330046Y-86000859D01*
X98169141Y-85839954D01*
X97982734Y-85709432D01*
X97982732Y-85709431D01*
X97776497Y-85613261D01*
X97776488Y-85613258D01*
X97556697Y-85554366D01*
X97556693Y-85554365D01*
X97556692Y-85554365D01*
X97556691Y-85554364D01*
X97556686Y-85554364D01*
X97330002Y-85534532D01*
X97329998Y-85534532D01*
X97103313Y-85554364D01*
X97103302Y-85554366D01*
X96883511Y-85613258D01*
X96883502Y-85613261D01*
X96677267Y-85709431D01*
X96677265Y-85709432D01*
X96490858Y-85839954D01*
X96329953Y-86000859D01*
X96286575Y-86062811D01*
X96231998Y-86106436D01*
X96162500Y-86113630D01*
X96100145Y-86082107D01*
X96083425Y-86062811D01*
X96040046Y-86000859D01*
X95879141Y-85839954D01*
X95692734Y-85709432D01*
X95692732Y-85709431D01*
X95486497Y-85613261D01*
X95486488Y-85613258D01*
X95266697Y-85554366D01*
X95266693Y-85554365D01*
X95266692Y-85554365D01*
X95266691Y-85554364D01*
X95266686Y-85554364D01*
X95040002Y-85534532D01*
X95039998Y-85534532D01*
X94813313Y-85554364D01*
X94813302Y-85554366D01*
X94593511Y-85613258D01*
X94593502Y-85613261D01*
X94387267Y-85709431D01*
X94387265Y-85709432D01*
X94200858Y-85839954D01*
X94039954Y-86000858D01*
X93909432Y-86187265D01*
X93909431Y-86187267D01*
X93813261Y-86393502D01*
X93813258Y-86393511D01*
X93754366Y-86613302D01*
X93754364Y-86613313D01*
X93734532Y-86839998D01*
X93734532Y-86840001D01*
X93754364Y-87066686D01*
X93754366Y-87066697D01*
X93813258Y-87286488D01*
X93813260Y-87286492D01*
X93813261Y-87286496D01*
X93843790Y-87351965D01*
X93854282Y-87421043D01*
X93825762Y-87484827D01*
X93767286Y-87523066D01*
X93742217Y-87527898D01*
X93668312Y-87534364D01*
X93668302Y-87534366D01*
X93448511Y-87593258D01*
X93448502Y-87593261D01*
X93242267Y-87689431D01*
X93242265Y-87689432D01*
X93055858Y-87819954D01*
X92894954Y-87980858D01*
X92764432Y-88167265D01*
X92764431Y-88167267D01*
X92668261Y-88373502D01*
X92668258Y-88373511D01*
X92609366Y-88593302D01*
X92609364Y-88593313D01*
X92589532Y-88819998D01*
X92589532Y-88820001D01*
X92609364Y-89046686D01*
X92609366Y-89046697D01*
X92668258Y-89266488D01*
X92668261Y-89266497D01*
X92764431Y-89472732D01*
X92764432Y-89472734D01*
X92894954Y-89659141D01*
X93055858Y-89820045D01*
X93055861Y-89820047D01*
X93242266Y-89950568D01*
X93448504Y-90046739D01*
X93647594Y-90100084D01*
X93707254Y-90136449D01*
X93737783Y-90199295D01*
X93739500Y-90219859D01*
X93739500Y-91647870D01*
X93739501Y-91647876D01*
X93745908Y-91707483D01*
X93796202Y-91842328D01*
X93796206Y-91842335D01*
X93882452Y-91957544D01*
X93882455Y-91957547D01*
X93997664Y-92043793D01*
X93997671Y-92043797D01*
X94040704Y-92059847D01*
X94132517Y-92094091D01*
X94192127Y-92100500D01*
X94719902Y-92100499D01*
X94786941Y-92120183D01*
X94807583Y-92136818D01*
X96488685Y-93817920D01*
X96522170Y-93879243D01*
X96520271Y-93939532D01*
X96514885Y-93958462D01*
X96494357Y-94179999D01*
X96494357Y-94180000D01*
X96503946Y-94283485D01*
X96490531Y-94352055D01*
X96468156Y-94382607D01*
X95442705Y-95408058D01*
X95381382Y-95441543D01*
X95322931Y-95440152D01*
X95226697Y-95414366D01*
X95226693Y-95414365D01*
X95226692Y-95414365D01*
X95226691Y-95414364D01*
X95226686Y-95414364D01*
X95000002Y-95394532D01*
X94999998Y-95394532D01*
X94773313Y-95414364D01*
X94773302Y-95414366D01*
X94553511Y-95473258D01*
X94553502Y-95473261D01*
X94347267Y-95569431D01*
X94347265Y-95569432D01*
X94160858Y-95699954D01*
X93999954Y-95860858D01*
X93869432Y-96047265D01*
X93869431Y-96047267D01*
X93773261Y-96253502D01*
X93773258Y-96253511D01*
X93714366Y-96473302D01*
X93714364Y-96473313D01*
X93694532Y-96699998D01*
X93694532Y-96700001D01*
X93714364Y-96926686D01*
X93714366Y-96926697D01*
X93773258Y-97146488D01*
X93773261Y-97146497D01*
X93869431Y-97352732D01*
X93869432Y-97352734D01*
X93999954Y-97539141D01*
X94160858Y-97700045D01*
X94160861Y-97700047D01*
X94347266Y-97830568D01*
X94553504Y-97926739D01*
X94773308Y-97985635D01*
X94935230Y-97999801D01*
X94999998Y-98005468D01*
X95000000Y-98005468D01*
X95000002Y-98005468D01*
X95056673Y-98000509D01*
X95226692Y-97985635D01*
X95446496Y-97926739D01*
X95652734Y-97830568D01*
X95839139Y-97700047D01*
X96000047Y-97539139D01*
X96130568Y-97352734D01*
X96226739Y-97146496D01*
X96285635Y-96926692D01*
X96305468Y-96700000D01*
X96285635Y-96473308D01*
X96259847Y-96377066D01*
X96261510Y-96307217D01*
X96291939Y-96257294D01*
X97197285Y-95351948D01*
X97258606Y-95318465D01*
X97328298Y-95323449D01*
X97329747Y-95324000D01*
X97370060Y-95339618D01*
X97588757Y-95380500D01*
X97588759Y-95380500D01*
X97811241Y-95380500D01*
X97811243Y-95380500D01*
X98029940Y-95339618D01*
X98237401Y-95259247D01*
X98426562Y-95142124D01*
X98590981Y-94992236D01*
X98725058Y-94814689D01*
X98824229Y-94615528D01*
X98885115Y-94401536D01*
X98905643Y-94180000D01*
X98885115Y-93958464D01*
X98824229Y-93744472D01*
X98824224Y-93744461D01*
X98725061Y-93545316D01*
X98725056Y-93545308D01*
X98590979Y-93367761D01*
X98426562Y-93217876D01*
X98426560Y-93217874D01*
X98237404Y-93100754D01*
X98237398Y-93100752D01*
X98029940Y-93020382D01*
X97811243Y-92979500D01*
X97588757Y-92979500D01*
X97529911Y-92990500D01*
X97450783Y-93005291D01*
X97381268Y-92998259D01*
X97340318Y-92971083D01*
X96420383Y-92051148D01*
X96386898Y-91989825D01*
X96391882Y-91920133D01*
X96433754Y-91864200D01*
X96499218Y-91839783D01*
X96567491Y-91854635D01*
X96579183Y-91861889D01*
X96677267Y-91930568D01*
X96883505Y-92026739D01*
X96883510Y-92026740D01*
X96883512Y-92026741D01*
X96936416Y-92040916D01*
X97103309Y-92085635D01*
X97265231Y-92099801D01*
X97329999Y-92105468D01*
X97330001Y-92105468D01*
X97330003Y-92105468D01*
X97386797Y-92100499D01*
X97556693Y-92085635D01*
X97776497Y-92026739D01*
X97982735Y-91930568D01*
X98169140Y-91800047D01*
X98330048Y-91639139D01*
X98373425Y-91577188D01*
X98428001Y-91533564D01*
X98497499Y-91526370D01*
X98559854Y-91557892D01*
X98576575Y-91577189D01*
X98619953Y-91639140D01*
X98780858Y-91800045D01*
X98780861Y-91800047D01*
X98967266Y-91930568D01*
X99173504Y-92026739D01*
X99173509Y-92026740D01*
X99173511Y-92026741D01*
X99226415Y-92040916D01*
X99393308Y-92085635D01*
X99555230Y-92099801D01*
X99619998Y-92105468D01*
X99620000Y-92105468D01*
X99620002Y-92105468D01*
X99676796Y-92100499D01*
X99846692Y-92085635D01*
X100066496Y-92026739D01*
X100145348Y-91989968D01*
X100214423Y-91979476D01*
X100278208Y-92007994D01*
X100285434Y-92014669D01*
X102088685Y-93817920D01*
X102122170Y-93879243D01*
X102120271Y-93939532D01*
X102114885Y-93958462D01*
X102094357Y-94179998D01*
X102095466Y-94191971D01*
X102082047Y-94260541D01*
X102059675Y-94291088D01*
X100942705Y-95408058D01*
X100881382Y-95441543D01*
X100822931Y-95440152D01*
X100726697Y-95414366D01*
X100726693Y-95414365D01*
X100726692Y-95414365D01*
X100726691Y-95414364D01*
X100726686Y-95414364D01*
X100500002Y-95394532D01*
X100499998Y-95394532D01*
X100273313Y-95414364D01*
X100273302Y-95414366D01*
X100053511Y-95473258D01*
X100053502Y-95473261D01*
X99847267Y-95569431D01*
X99847265Y-95569432D01*
X99660858Y-95699954D01*
X99499954Y-95860858D01*
X99369432Y-96047265D01*
X99369431Y-96047267D01*
X99273261Y-96253502D01*
X99273258Y-96253511D01*
X99214366Y-96473302D01*
X99214364Y-96473313D01*
X99194532Y-96699998D01*
X99194532Y-96700001D01*
X99214364Y-96926686D01*
X99214366Y-96926697D01*
X99273258Y-97146488D01*
X99273261Y-97146497D01*
X99369431Y-97352732D01*
X99369432Y-97352734D01*
X99499954Y-97539141D01*
X99660858Y-97700045D01*
X99660861Y-97700047D01*
X99847266Y-97830568D01*
X100053504Y-97926739D01*
X100273308Y-97985635D01*
X100435230Y-97999801D01*
X100499998Y-98005468D01*
X100500000Y-98005468D01*
X100500002Y-98005468D01*
X100556673Y-98000509D01*
X100726692Y-97985635D01*
X100946496Y-97926739D01*
X101152734Y-97830568D01*
X101339139Y-97700047D01*
X101500047Y-97539139D01*
X101630568Y-97352734D01*
X101726739Y-97146496D01*
X101785635Y-96926692D01*
X101805468Y-96700000D01*
X101785635Y-96473308D01*
X101759847Y-96377066D01*
X101761510Y-96307217D01*
X101791939Y-96257294D01*
X102725208Y-95324025D01*
X102786529Y-95290542D01*
X102856221Y-95295526D01*
X102857681Y-95296082D01*
X102929815Y-95324027D01*
X102970060Y-95339618D01*
X103188757Y-95380500D01*
X103188759Y-95380500D01*
X103411241Y-95380500D01*
X103411243Y-95380500D01*
X103629940Y-95339618D01*
X103837401Y-95259247D01*
X104026562Y-95142124D01*
X104190981Y-94992236D01*
X104325058Y-94814689D01*
X104424229Y-94615528D01*
X104485115Y-94401536D01*
X104505643Y-94180000D01*
X104485115Y-93958464D01*
X104424229Y-93744472D01*
X104424224Y-93744461D01*
X104325061Y-93545316D01*
X104325056Y-93545308D01*
X104190979Y-93367761D01*
X104026562Y-93217876D01*
X104026560Y-93217874D01*
X103837404Y-93100754D01*
X103837398Y-93100752D01*
X103629940Y-93020382D01*
X103411243Y-92979500D01*
X103188757Y-92979500D01*
X103129911Y-92990500D01*
X103050783Y-93005291D01*
X102981268Y-92998259D01*
X102940318Y-92971083D01*
X102224029Y-92254794D01*
X102190544Y-92193471D01*
X102195528Y-92123779D01*
X102237400Y-92067846D01*
X102279615Y-92047339D01*
X102328490Y-92034243D01*
X102356487Y-92026742D01*
X102356490Y-92026740D01*
X102356497Y-92026739D01*
X102562735Y-91930568D01*
X102749140Y-91800047D01*
X102910048Y-91639139D01*
X102953425Y-91577188D01*
X103008001Y-91533564D01*
X103077499Y-91526370D01*
X103139854Y-91557892D01*
X103156575Y-91577189D01*
X103199953Y-91639140D01*
X103360858Y-91800045D01*
X103360861Y-91800047D01*
X103547266Y-91930568D01*
X103753504Y-92026739D01*
X103753509Y-92026740D01*
X103753511Y-92026741D01*
X103806415Y-92040916D01*
X103973308Y-92085635D01*
X104135230Y-92099801D01*
X104199998Y-92105468D01*
X104200000Y-92105468D01*
X104200002Y-92105468D01*
X104256796Y-92100499D01*
X104426692Y-92085635D01*
X104522932Y-92059847D01*
X104592781Y-92061510D01*
X104642706Y-92091941D01*
X107095139Y-94544374D01*
X107095160Y-94544397D01*
X107163082Y-94612319D01*
X107196567Y-94673642D01*
X107191583Y-94743334D01*
X107163082Y-94787681D01*
X106542705Y-95408058D01*
X106481382Y-95441543D01*
X106422931Y-95440152D01*
X106326697Y-95414366D01*
X106326693Y-95414365D01*
X106326692Y-95414365D01*
X106326691Y-95414364D01*
X106326686Y-95414364D01*
X106100002Y-95394532D01*
X106099998Y-95394532D01*
X105873313Y-95414364D01*
X105873302Y-95414366D01*
X105653511Y-95473258D01*
X105653502Y-95473261D01*
X105447267Y-95569431D01*
X105447265Y-95569432D01*
X105260858Y-95699954D01*
X105099954Y-95860858D01*
X104969432Y-96047265D01*
X104969431Y-96047267D01*
X104873261Y-96253502D01*
X104873258Y-96253511D01*
X104814366Y-96473302D01*
X104814364Y-96473313D01*
X104794532Y-96699998D01*
X104794532Y-96700001D01*
X104814364Y-96926686D01*
X104814366Y-96926697D01*
X104873258Y-97146488D01*
X104873261Y-97146497D01*
X104969431Y-97352732D01*
X104969432Y-97352734D01*
X105099954Y-97539141D01*
X105260858Y-97700045D01*
X105260861Y-97700047D01*
X105447266Y-97830568D01*
X105653504Y-97926739D01*
X105873308Y-97985635D01*
X106035230Y-97999801D01*
X106099998Y-98005468D01*
X106100000Y-98005468D01*
X106100002Y-98005468D01*
X106156673Y-98000509D01*
X106326692Y-97985635D01*
X106546496Y-97926739D01*
X106752734Y-97830568D01*
X106939139Y-97700047D01*
X107100047Y-97539139D01*
X107230568Y-97352734D01*
X107326739Y-97146496D01*
X107385635Y-96926692D01*
X107405468Y-96700000D01*
X107385635Y-96473308D01*
X107359847Y-96377066D01*
X107361510Y-96307217D01*
X107391939Y-96257294D01*
X108325208Y-95324025D01*
X108386529Y-95290542D01*
X108456221Y-95295526D01*
X108457681Y-95296082D01*
X108529815Y-95324027D01*
X108570060Y-95339618D01*
X108788757Y-95380500D01*
X108788759Y-95380500D01*
X109011241Y-95380500D01*
X109011243Y-95380500D01*
X109229940Y-95339618D01*
X109437401Y-95259247D01*
X109626562Y-95142124D01*
X109790981Y-94992236D01*
X109925058Y-94814689D01*
X110024229Y-94615528D01*
X110085115Y-94401536D01*
X110105643Y-94180000D01*
X110085115Y-93958464D01*
X110024229Y-93744472D01*
X110024224Y-93744461D01*
X109925061Y-93545316D01*
X109925056Y-93545308D01*
X109790979Y-93367761D01*
X109626562Y-93217876D01*
X109626560Y-93217874D01*
X109437404Y-93100754D01*
X109437398Y-93100752D01*
X109229940Y-93020382D01*
X109011243Y-92979500D01*
X108788757Y-92979500D01*
X108570060Y-93020382D01*
X108438864Y-93071207D01*
X108362601Y-93100752D01*
X108362595Y-93100754D01*
X108173439Y-93217874D01*
X108173437Y-93217876D01*
X108009020Y-93367761D01*
X107926225Y-93477401D01*
X107870116Y-93519037D01*
X107800404Y-93523728D01*
X107739590Y-93490355D01*
X105491941Y-91242706D01*
X105458456Y-91181383D01*
X105459847Y-91122931D01*
X105485635Y-91026692D01*
X105505468Y-90800000D01*
X105485635Y-90573308D01*
X105426739Y-90353504D01*
X105330568Y-90147266D01*
X105200047Y-89960861D01*
X105200045Y-89960858D01*
X105039141Y-89799954D01*
X104852734Y-89669432D01*
X104852732Y-89669431D01*
X104646497Y-89573261D01*
X104646488Y-89573258D01*
X104426697Y-89514366D01*
X104426687Y-89514364D01*
X104352253Y-89507852D01*
X104287184Y-89482399D01*
X104246206Y-89425808D01*
X104242328Y-89356046D01*
X104250679Y-89331918D01*
X104281267Y-89266321D01*
X104281269Y-89266317D01*
X104340139Y-89046610D01*
X104340141Y-89046599D01*
X104359966Y-88820002D01*
X104359966Y-88819997D01*
X104340141Y-88593400D01*
X104340139Y-88593389D01*
X104281269Y-88373682D01*
X104281266Y-88373673D01*
X104250679Y-88308080D01*
X104240187Y-88239003D01*
X104268706Y-88175219D01*
X104327183Y-88136979D01*
X104352249Y-88132147D01*
X104426692Y-88125635D01*
X104646496Y-88066739D01*
X104852734Y-87970568D01*
X105039139Y-87840047D01*
X105200047Y-87679139D01*
X105330568Y-87492734D01*
X105366155Y-87416415D01*
X105412327Y-87363977D01*
X105479520Y-87344825D01*
X105546402Y-87365040D01*
X105566218Y-87381140D01*
X111455598Y-93270520D01*
X111455600Y-93270521D01*
X111455604Y-93270524D01*
X111592523Y-93349573D01*
X111592530Y-93349577D01*
X111745257Y-93390501D01*
X111745259Y-93390501D01*
X111910968Y-93390501D01*
X111910984Y-93390500D01*
X122011362Y-93390500D01*
X122078401Y-93410185D01*
X122124156Y-93462989D01*
X122134833Y-93503059D01*
X122144884Y-93611535D01*
X122144885Y-93611537D01*
X122205769Y-93825523D01*
X122205775Y-93825538D01*
X122304938Y-94024683D01*
X122304943Y-94024691D01*
X122439020Y-94202238D01*
X122603437Y-94352123D01*
X122603439Y-94352125D01*
X122792595Y-94469245D01*
X122792596Y-94469245D01*
X122792599Y-94469247D01*
X123000060Y-94549618D01*
X123218757Y-94590500D01*
X123218759Y-94590500D01*
X123441241Y-94590500D01*
X123441243Y-94590500D01*
X123579215Y-94564708D01*
X123648730Y-94571739D01*
X123689681Y-94598916D01*
X123963181Y-94872416D01*
X123996666Y-94933739D01*
X123999500Y-94960097D01*
X123999500Y-99800910D01*
X123979815Y-99867949D01*
X123927011Y-99913704D01*
X123857853Y-99923648D01*
X123830707Y-99916537D01*
X123704556Y-99867666D01*
X123659940Y-99850382D01*
X123441243Y-99809500D01*
X123218757Y-99809500D01*
X123148734Y-99822589D01*
X123080783Y-99835291D01*
X123011268Y-99828259D01*
X122970318Y-99801083D01*
X121166818Y-97997583D01*
X121133333Y-97936260D01*
X121130499Y-97909902D01*
X121130499Y-97292129D01*
X121130498Y-97292123D01*
X121130497Y-97292116D01*
X121124091Y-97232517D01*
X121121463Y-97225472D01*
X121073797Y-97097671D01*
X121073793Y-97097664D01*
X120987547Y-96982455D01*
X120987544Y-96982452D01*
X120872335Y-96896206D01*
X120872328Y-96896202D01*
X120737482Y-96845908D01*
X120737483Y-96845908D01*
X120677883Y-96839501D01*
X120677881Y-96839500D01*
X120677873Y-96839500D01*
X120677864Y-96839500D01*
X118982129Y-96839500D01*
X118982123Y-96839501D01*
X118922516Y-96845908D01*
X118787671Y-96896202D01*
X118787664Y-96896206D01*
X118672455Y-96982452D01*
X118672452Y-96982455D01*
X118586206Y-97097664D01*
X118586202Y-97097671D01*
X118535908Y-97232517D01*
X118529501Y-97292116D01*
X118529501Y-97292123D01*
X118529322Y-97295452D01*
X118527847Y-97295372D01*
X118509815Y-97356784D01*
X118457011Y-97402539D01*
X118413522Y-97410029D01*
X117730000Y-98093551D01*
X117730000Y-98087339D01*
X117702741Y-97985606D01*
X117650080Y-97894394D01*
X117575606Y-97819920D01*
X117484394Y-97767259D01*
X117382661Y-97740000D01*
X117376448Y-97740000D01*
X118055472Y-97060974D01*
X117982478Y-97009863D01*
X117776331Y-96913735D01*
X117776317Y-96913730D01*
X117556610Y-96854860D01*
X117556599Y-96854858D01*
X117330002Y-96835034D01*
X117329998Y-96835034D01*
X117103400Y-96854858D01*
X117103389Y-96854860D01*
X116883682Y-96913730D01*
X116883673Y-96913734D01*
X116677516Y-97009866D01*
X116677512Y-97009868D01*
X116604526Y-97060973D01*
X116604526Y-97060974D01*
X117283553Y-97740000D01*
X117277339Y-97740000D01*
X117175606Y-97767259D01*
X117084394Y-97819920D01*
X117009920Y-97894394D01*
X116957259Y-97985606D01*
X116930000Y-98087339D01*
X116930000Y-98093552D01*
X116250974Y-97414526D01*
X116250973Y-97414526D01*
X116199868Y-97487512D01*
X116199866Y-97487516D01*
X116103734Y-97693673D01*
X116103730Y-97693682D01*
X116044860Y-97913389D01*
X116044858Y-97913400D01*
X116025034Y-98139997D01*
X116025034Y-98140002D01*
X116044858Y-98366599D01*
X116044860Y-98366610D01*
X116103730Y-98586317D01*
X116103735Y-98586331D01*
X116199863Y-98792478D01*
X116250974Y-98865472D01*
X116930000Y-98186446D01*
X116930000Y-98192661D01*
X116957259Y-98294394D01*
X117009920Y-98385606D01*
X117084394Y-98460080D01*
X117175606Y-98512741D01*
X117277339Y-98540000D01*
X117283553Y-98540000D01*
X116604526Y-99219025D01*
X116677513Y-99270132D01*
X116677521Y-99270136D01*
X116883668Y-99366264D01*
X116883682Y-99366269D01*
X117103389Y-99425139D01*
X117103400Y-99425141D01*
X117329998Y-99444966D01*
X117330002Y-99444966D01*
X117556599Y-99425141D01*
X117556610Y-99425139D01*
X117776317Y-99366269D01*
X117776331Y-99366264D01*
X117982478Y-99270136D01*
X118055471Y-99219024D01*
X117376447Y-98540000D01*
X117382661Y-98540000D01*
X117484394Y-98512741D01*
X117575606Y-98460080D01*
X117650080Y-98385606D01*
X117702741Y-98294394D01*
X117730000Y-98192661D01*
X117730000Y-98186447D01*
X118414197Y-98870644D01*
X118463192Y-98880491D01*
X118513375Y-98929106D01*
X118528049Y-98984632D01*
X118529099Y-98984576D01*
X118529146Y-98984571D01*
X118529146Y-98984573D01*
X118529324Y-98984564D01*
X118529501Y-98987876D01*
X118535908Y-99047483D01*
X118586202Y-99182328D01*
X118586206Y-99182335D01*
X118672452Y-99297544D01*
X118672455Y-99297547D01*
X118787664Y-99383793D01*
X118787671Y-99383797D01*
X118922517Y-99434091D01*
X118922516Y-99434091D01*
X118929444Y-99434835D01*
X118982127Y-99440500D01*
X120677872Y-99440499D01*
X120737483Y-99434091D01*
X120784721Y-99416471D01*
X120854413Y-99411487D01*
X120915736Y-99444971D01*
X122118685Y-100647920D01*
X122152170Y-100709243D01*
X122150271Y-100769532D01*
X122144885Y-100788462D01*
X122124357Y-101009999D01*
X122124357Y-101010000D01*
X122144884Y-101231535D01*
X122144885Y-101231537D01*
X122205769Y-101445523D01*
X122205775Y-101445538D01*
X122304938Y-101644683D01*
X122304943Y-101644691D01*
X122439020Y-101822238D01*
X122603437Y-101972123D01*
X122603440Y-101972125D01*
X122630775Y-101989050D01*
X122677412Y-102041076D01*
X122689500Y-102094478D01*
X122689500Y-102408307D01*
X122669815Y-102475346D01*
X122636625Y-102509880D01*
X122570394Y-102556254D01*
X122504190Y-102578581D01*
X122436423Y-102561569D01*
X122411593Y-102542359D01*
X121837590Y-101968356D01*
X121837588Y-101968353D01*
X121718717Y-101849482D01*
X121718709Y-101849476D01*
X121613425Y-101788691D01*
X121613424Y-101788690D01*
X121613424Y-101788691D01*
X121581785Y-101770424D01*
X121429057Y-101729500D01*
X121270943Y-101729500D01*
X121263347Y-101729500D01*
X121263331Y-101729501D01*
X120020943Y-101729501D01*
X119868213Y-101770424D01*
X119836576Y-101788691D01*
X119836575Y-101788691D01*
X119731287Y-101849478D01*
X119731282Y-101849482D01*
X119619478Y-101961287D01*
X119058638Y-102522125D01*
X118997315Y-102555610D01*
X118927623Y-102550626D01*
X118899834Y-102536019D01*
X118862487Y-102509868D01*
X118862483Y-102509866D01*
X118656328Y-102413734D01*
X118460000Y-102361127D01*
X118460000Y-103324314D01*
X118455606Y-103319920D01*
X118364394Y-103267259D01*
X118262661Y-103240000D01*
X118157339Y-103240000D01*
X118055606Y-103267259D01*
X117964394Y-103319920D01*
X117960000Y-103324314D01*
X117960000Y-102361127D01*
X117763671Y-102413734D01*
X117557517Y-102509865D01*
X117371179Y-102640342D01*
X117210342Y-102801179D01*
X117079865Y-102987517D01*
X116983734Y-103193673D01*
X116983730Y-103193682D01*
X116931127Y-103389999D01*
X116931128Y-103390000D01*
X117894314Y-103390000D01*
X117889920Y-103394394D01*
X117837259Y-103485606D01*
X117810000Y-103587339D01*
X117810000Y-103692661D01*
X117837259Y-103794394D01*
X117889920Y-103885606D01*
X117894314Y-103890000D01*
X116931128Y-103890000D01*
X116983730Y-104086317D01*
X116983734Y-104086326D01*
X117079865Y-104292482D01*
X117210342Y-104478820D01*
X117371179Y-104639657D01*
X117557517Y-104770134D01*
X117763673Y-104866265D01*
X117763682Y-104866269D01*
X117959999Y-104918872D01*
X117960000Y-104918871D01*
X117960000Y-103955686D01*
X117964394Y-103960080D01*
X118055606Y-104012741D01*
X118157339Y-104040000D01*
X118262661Y-104040000D01*
X118364394Y-104012741D01*
X118455606Y-103960080D01*
X118460000Y-103955686D01*
X118460000Y-104918871D01*
X118593406Y-104883126D01*
X118663256Y-104884789D01*
X118721119Y-104923951D01*
X118748623Y-104988180D01*
X118749500Y-105002901D01*
X118749500Y-109773330D01*
X118749499Y-109773348D01*
X118749499Y-109896580D01*
X118729814Y-109963619D01*
X118677010Y-110009374D01*
X118607852Y-110019318D01*
X118593406Y-110016355D01*
X118436697Y-109974366D01*
X118436693Y-109974365D01*
X118436692Y-109974365D01*
X118436691Y-109974364D01*
X118436686Y-109974364D01*
X118210002Y-109954532D01*
X118209998Y-109954532D01*
X117983313Y-109974364D01*
X117983302Y-109974366D01*
X117763511Y-110033258D01*
X117763502Y-110033261D01*
X117557267Y-110129431D01*
X117557265Y-110129432D01*
X117370858Y-110259954D01*
X117209954Y-110420858D01*
X117079432Y-110607265D01*
X117079431Y-110607267D01*
X116983261Y-110813502D01*
X116983258Y-110813511D01*
X116924366Y-111033302D01*
X116924364Y-111033313D01*
X116904532Y-111259998D01*
X116904532Y-111260001D01*
X116924364Y-111486686D01*
X116924366Y-111486697D01*
X116983258Y-111706488D01*
X116983261Y-111706497D01*
X117079431Y-111912732D01*
X117079432Y-111912734D01*
X117209954Y-112099141D01*
X117370858Y-112260045D01*
X117417693Y-112292839D01*
X117557266Y-112390568D01*
X117763504Y-112486739D01*
X117763509Y-112486740D01*
X117763511Y-112486741D01*
X117810995Y-112499464D01*
X117983308Y-112545635D01*
X118143477Y-112559648D01*
X118209998Y-112565468D01*
X118210000Y-112565468D01*
X118210002Y-112565468D01*
X118266673Y-112560509D01*
X118436692Y-112545635D01*
X118532932Y-112519847D01*
X118602781Y-112521510D01*
X118652706Y-112551941D01*
X118825139Y-112724374D01*
X118825149Y-112724385D01*
X118829479Y-112728715D01*
X118829480Y-112728716D01*
X118941284Y-112840520D01*
X119002972Y-112876135D01*
X119078215Y-112919577D01*
X119230943Y-112960501D01*
X119230946Y-112960501D01*
X119396653Y-112960501D01*
X119396669Y-112960500D01*
X121820903Y-112960500D01*
X121887942Y-112980185D01*
X121933697Y-113032989D01*
X121943641Y-113102147D01*
X121914616Y-113165703D01*
X121908584Y-113172181D01*
X121869481Y-113211283D01*
X121869479Y-113211285D01*
X121854129Y-113237874D01*
X121836612Y-113268215D01*
X121790423Y-113348216D01*
X121749499Y-113500944D01*
X121749499Y-113500946D01*
X121749499Y-113669047D01*
X121749500Y-113669060D01*
X121749500Y-114743331D01*
X121749499Y-114743349D01*
X121749499Y-114909055D01*
X121749498Y-114909055D01*
X121760979Y-114951900D01*
X121790423Y-115061786D01*
X121813713Y-115102125D01*
X121819358Y-115111901D01*
X121819359Y-115111905D01*
X121819360Y-115111905D01*
X121848353Y-115162124D01*
X121869479Y-115198715D01*
X121869481Y-115198718D01*
X121981285Y-115310522D01*
X122213181Y-115542417D01*
X122246666Y-115603740D01*
X122249500Y-115630098D01*
X122249500Y-115743698D01*
X122229815Y-115810737D01*
X122177011Y-115856492D01*
X122107853Y-115866436D01*
X122080707Y-115859325D01*
X121929801Y-115800865D01*
X121929802Y-115800865D01*
X121850000Y-115785947D01*
X121850000Y-116715026D01*
X121814905Y-116679931D01*
X121735095Y-116633853D01*
X121646078Y-116610001D01*
X121553922Y-116610001D01*
X121464905Y-116633853D01*
X121385095Y-116679931D01*
X121319930Y-116745096D01*
X121273852Y-116824906D01*
X121250000Y-116913923D01*
X121250000Y-117006079D01*
X121273852Y-117095096D01*
X121319930Y-117174906D01*
X121385095Y-117240071D01*
X121464905Y-117286149D01*
X121553922Y-117310001D01*
X121646078Y-117310001D01*
X121735095Y-117286149D01*
X121814905Y-117240071D01*
X121850000Y-117204976D01*
X121850000Y-118169708D01*
X121830315Y-118236747D01*
X121813681Y-118257389D01*
X119307890Y-120763181D01*
X119246567Y-120796666D01*
X119220209Y-120799500D01*
X116497240Y-120799500D01*
X116430201Y-120779815D01*
X116384446Y-120727011D01*
X116381058Y-120718834D01*
X116377036Y-120708050D01*
X116324367Y-120566839D01*
X116274224Y-120475010D01*
X116187229Y-120315690D01*
X116187224Y-120315682D01*
X116015745Y-120086612D01*
X116015729Y-120086594D01*
X115813405Y-119884270D01*
X115813387Y-119884254D01*
X115584317Y-119712775D01*
X115584309Y-119712770D01*
X115333166Y-119575635D01*
X115333167Y-119575635D01*
X115225915Y-119535632D01*
X115065046Y-119475631D01*
X115065043Y-119475630D01*
X115065037Y-119475628D01*
X114785433Y-119414804D01*
X114500001Y-119394390D01*
X114499999Y-119394390D01*
X114214566Y-119414804D01*
X113934962Y-119475628D01*
X113666833Y-119575635D01*
X113415690Y-119712770D01*
X113415682Y-119712775D01*
X113186612Y-119884254D01*
X113186594Y-119884270D01*
X112984270Y-120086594D01*
X112984254Y-120086612D01*
X112812775Y-120315682D01*
X112812770Y-120315690D01*
X112675635Y-120566833D01*
X112575628Y-120834962D01*
X112514804Y-121114566D01*
X112494390Y-121399998D01*
X112494390Y-121400001D01*
X112514804Y-121685433D01*
X112575628Y-121965037D01*
X112575630Y-121965043D01*
X112575631Y-121965046D01*
X112675633Y-122233161D01*
X112675634Y-122233163D01*
X112681288Y-122243517D01*
X112696140Y-122311790D01*
X112671724Y-122377254D01*
X112660137Y-122390626D01*
X110987584Y-124063181D01*
X110926261Y-124096666D01*
X110899903Y-124099500D01*
X102949097Y-124099500D01*
X102882058Y-124079815D01*
X102836303Y-124027011D01*
X102826359Y-123957853D01*
X102855384Y-123894297D01*
X102861416Y-123887819D01*
X103001650Y-123747585D01*
X103509374Y-123239859D01*
X103570695Y-123206376D01*
X103640386Y-123211360D01*
X103656474Y-123218707D01*
X103666839Y-123224367D01*
X103934954Y-123324369D01*
X103934960Y-123324370D01*
X103934962Y-123324371D01*
X104214566Y-123385195D01*
X104214568Y-123385195D01*
X104214572Y-123385196D01*
X104468220Y-123403337D01*
X104499999Y-123405610D01*
X104500000Y-123405610D01*
X104500001Y-123405610D01*
X104528595Y-123403564D01*
X104785428Y-123385196D01*
X104975742Y-123343796D01*
X105065037Y-123324371D01*
X105065037Y-123324370D01*
X105065046Y-123324369D01*
X105333161Y-123224367D01*
X105584315Y-123087226D01*
X105813395Y-122915739D01*
X106015739Y-122713395D01*
X106187226Y-122484315D01*
X106324367Y-122233161D01*
X106424369Y-121965046D01*
X106437456Y-121904888D01*
X106485195Y-121685433D01*
X106485195Y-121685432D01*
X106485196Y-121685428D01*
X106505610Y-121400001D01*
X107494891Y-121400001D01*
X107515300Y-121685362D01*
X107576109Y-121964895D01*
X107676091Y-122232958D01*
X107813191Y-122484038D01*
X107813196Y-122484046D01*
X107919882Y-122626561D01*
X107919883Y-122626562D01*
X108898958Y-121647487D01*
X108923978Y-121707890D01*
X108995112Y-121814351D01*
X109085649Y-121904888D01*
X109192110Y-121976022D01*
X109252511Y-122001041D01*
X108273436Y-122980115D01*
X108415960Y-123086807D01*
X108415961Y-123086808D01*
X108667042Y-123223908D01*
X108667041Y-123223908D01*
X108935104Y-123323890D01*
X109214637Y-123384699D01*
X109499999Y-123405109D01*
X109500001Y-123405109D01*
X109785362Y-123384699D01*
X110064895Y-123323890D01*
X110332958Y-123223908D01*
X110584047Y-123086803D01*
X110726561Y-122980116D01*
X110726562Y-122980115D01*
X109747489Y-122001041D01*
X109807890Y-121976022D01*
X109914351Y-121904888D01*
X110004888Y-121814351D01*
X110076022Y-121707890D01*
X110101041Y-121647488D01*
X111080115Y-122626562D01*
X111080116Y-122626561D01*
X111186803Y-122484047D01*
X111323908Y-122232958D01*
X111423890Y-121964895D01*
X111484699Y-121685362D01*
X111505109Y-121400001D01*
X111505109Y-121399998D01*
X111484699Y-121114637D01*
X111423890Y-120835104D01*
X111323908Y-120567041D01*
X111186808Y-120315961D01*
X111186807Y-120315960D01*
X111080115Y-120173436D01*
X110101041Y-121152510D01*
X110076022Y-121092110D01*
X110004888Y-120985649D01*
X109914351Y-120895112D01*
X109807890Y-120823978D01*
X109747488Y-120798958D01*
X110726562Y-119819883D01*
X110726561Y-119819882D01*
X110584046Y-119713196D01*
X110584038Y-119713191D01*
X110332957Y-119576091D01*
X110332958Y-119576091D01*
X110064895Y-119476109D01*
X109785362Y-119415300D01*
X109500001Y-119394891D01*
X109499999Y-119394891D01*
X109214637Y-119415300D01*
X108935104Y-119476109D01*
X108667041Y-119576091D01*
X108415961Y-119713191D01*
X108415953Y-119713196D01*
X108273437Y-119819882D01*
X108273436Y-119819883D01*
X109252512Y-120798958D01*
X109192110Y-120823978D01*
X109085649Y-120895112D01*
X108995112Y-120985649D01*
X108923978Y-121092110D01*
X108898958Y-121152511D01*
X107919883Y-120173436D01*
X107919882Y-120173437D01*
X107813196Y-120315953D01*
X107813191Y-120315961D01*
X107676091Y-120567041D01*
X107576109Y-120835104D01*
X107515300Y-121114637D01*
X107494891Y-121399998D01*
X107494891Y-121400001D01*
X106505610Y-121400001D01*
X106505610Y-121400000D01*
X106485196Y-121114572D01*
X106467332Y-121032454D01*
X106424371Y-120834962D01*
X106424370Y-120834960D01*
X106424369Y-120834954D01*
X106324367Y-120566839D01*
X106274224Y-120475010D01*
X106187229Y-120315690D01*
X106187224Y-120315682D01*
X106015745Y-120086612D01*
X106015729Y-120086594D01*
X105813405Y-119884270D01*
X105813387Y-119884254D01*
X105584317Y-119712775D01*
X105584309Y-119712770D01*
X105333166Y-119575635D01*
X105333167Y-119575635D01*
X105225915Y-119535632D01*
X105065046Y-119475631D01*
X105065043Y-119475630D01*
X105065037Y-119475628D01*
X104785433Y-119414804D01*
X104500001Y-119394390D01*
X104499999Y-119394390D01*
X104214566Y-119414804D01*
X103934962Y-119475628D01*
X103666833Y-119575635D01*
X103415690Y-119712770D01*
X103415682Y-119712775D01*
X103186612Y-119884254D01*
X103186594Y-119884270D01*
X102984270Y-120086594D01*
X102984254Y-120086612D01*
X102812775Y-120315682D01*
X102812770Y-120315690D01*
X102675635Y-120566833D01*
X102575628Y-120834962D01*
X102514804Y-121114566D01*
X102494390Y-121399998D01*
X102494390Y-121400001D01*
X102514804Y-121685433D01*
X102575628Y-121965037D01*
X102575630Y-121965043D01*
X102575631Y-121965046D01*
X102675633Y-122233161D01*
X102675634Y-122233163D01*
X102681288Y-122243517D01*
X102696140Y-122311790D01*
X102671724Y-122377254D01*
X102660137Y-122390626D01*
X101487584Y-123563181D01*
X101426261Y-123596666D01*
X101399903Y-123599500D01*
X99953660Y-123599500D01*
X99886621Y-123579815D01*
X99840866Y-123527011D01*
X99830922Y-123457853D01*
X99859947Y-123394297D01*
X99918725Y-123356523D01*
X99927302Y-123354334D01*
X100065037Y-123324371D01*
X100065037Y-123324370D01*
X100065046Y-123324369D01*
X100333161Y-123224367D01*
X100584315Y-123087226D01*
X100813395Y-122915739D01*
X101015739Y-122713395D01*
X101187226Y-122484315D01*
X101324367Y-122233161D01*
X101424369Y-121965046D01*
X101437456Y-121904888D01*
X101485195Y-121685433D01*
X101485195Y-121685432D01*
X101485196Y-121685428D01*
X101505610Y-121400000D01*
X101485196Y-121114572D01*
X101467332Y-121032454D01*
X101424371Y-120834962D01*
X101424370Y-120834960D01*
X101424369Y-120834954D01*
X101324367Y-120566839D01*
X101318709Y-120556478D01*
X101303858Y-120488208D01*
X101328275Y-120422743D01*
X101339854Y-120409379D01*
X102812416Y-118936819D01*
X102873739Y-118903334D01*
X102900097Y-118900500D01*
X117423332Y-118900500D01*
X117423348Y-118900501D01*
X117430944Y-118900501D01*
X117589055Y-118900501D01*
X117589058Y-118900501D01*
X117741786Y-118859577D01*
X117826753Y-118810521D01*
X117878717Y-118780520D01*
X117990521Y-118668716D01*
X117990521Y-118668714D01*
X118000725Y-118658511D01*
X118000728Y-118658506D01*
X118490320Y-118168915D01*
X118551641Y-118135432D01*
X118600784Y-118134709D01*
X118738757Y-118160501D01*
X118738759Y-118160501D01*
X118961241Y-118160501D01*
X118961243Y-118160501D01*
X119179940Y-118119619D01*
X119387401Y-118039248D01*
X119576562Y-117922125D01*
X119740981Y-117772237D01*
X119875058Y-117594690D01*
X119974229Y-117395529D01*
X120027016Y-117210001D01*
X120423505Y-117210001D01*
X120476239Y-117395350D01*
X120575368Y-117594426D01*
X120709391Y-117771901D01*
X120873738Y-117921722D01*
X121062820Y-118038798D01*
X121062822Y-118038799D01*
X121270195Y-118119136D01*
X121350000Y-118134053D01*
X121350000Y-117210001D01*
X120423505Y-117210001D01*
X120027016Y-117210001D01*
X120035115Y-117181537D01*
X120055643Y-116960001D01*
X120035115Y-116738465D01*
X120027016Y-116710001D01*
X120423505Y-116710001D01*
X121350000Y-116710001D01*
X121350000Y-115785947D01*
X121270200Y-115800865D01*
X121062822Y-115881202D01*
X121062820Y-115881203D01*
X120873738Y-115998279D01*
X120709391Y-116148100D01*
X120575368Y-116325575D01*
X120476239Y-116524651D01*
X120423505Y-116710001D01*
X120027016Y-116710001D01*
X119974229Y-116524473D01*
X119935208Y-116446108D01*
X119875061Y-116325317D01*
X119875056Y-116325309D01*
X119740979Y-116147762D01*
X119576562Y-115997877D01*
X119576560Y-115997875D01*
X119387404Y-115880755D01*
X119387398Y-115880753D01*
X119179940Y-115800383D01*
X118961243Y-115759501D01*
X118738757Y-115759501D01*
X118520060Y-115800383D01*
X118406006Y-115844568D01*
X118312601Y-115880753D01*
X118312595Y-115880755D01*
X118123439Y-115997875D01*
X118123437Y-115997877D01*
X117959020Y-116147762D01*
X117824943Y-116325309D01*
X117824938Y-116325317D01*
X117725775Y-116524462D01*
X117725769Y-116524477D01*
X117664885Y-116738463D01*
X117664884Y-116738465D01*
X117644357Y-116960000D01*
X117644357Y-116960001D01*
X117664885Y-117181538D01*
X117670270Y-117200464D01*
X117669683Y-117270331D01*
X117638685Y-117322079D01*
X117297585Y-117663181D01*
X117236262Y-117696666D01*
X117209904Y-117699500D01*
X109859097Y-117699500D01*
X109792058Y-117679815D01*
X109746303Y-117627011D01*
X109736359Y-117557853D01*
X109765384Y-117494297D01*
X109771416Y-117487819D01*
X110262569Y-116996666D01*
X111850319Y-115408914D01*
X111911640Y-115375431D01*
X111960783Y-115374708D01*
X112098757Y-115400500D01*
X112098759Y-115400500D01*
X112321241Y-115400500D01*
X112321243Y-115400500D01*
X112539940Y-115359618D01*
X112747401Y-115279247D01*
X112936562Y-115162124D01*
X113100981Y-115012236D01*
X113235058Y-114834689D01*
X113334229Y-114635528D01*
X113395115Y-114421536D01*
X113398037Y-114390000D01*
X115053505Y-114390000D01*
X115106239Y-114575349D01*
X115205368Y-114774425D01*
X115339391Y-114951900D01*
X115503738Y-115101721D01*
X115692820Y-115218797D01*
X115692822Y-115218798D01*
X115900195Y-115299135D01*
X115980000Y-115314052D01*
X115980000Y-114390000D01*
X115053505Y-114390000D01*
X113398037Y-114390000D01*
X113415643Y-114200000D01*
X113414353Y-114186078D01*
X115880000Y-114186078D01*
X115903852Y-114275095D01*
X115949930Y-114354905D01*
X116015095Y-114420070D01*
X116094905Y-114466148D01*
X116183922Y-114490000D01*
X116276078Y-114490000D01*
X116365095Y-114466148D01*
X116444905Y-114420070D01*
X116474975Y-114390000D01*
X116480000Y-114390000D01*
X116480000Y-115314052D01*
X116559804Y-115299135D01*
X116767177Y-115218798D01*
X116767179Y-115218797D01*
X116956261Y-115101721D01*
X117120608Y-114951900D01*
X117254631Y-114774425D01*
X117353760Y-114575349D01*
X117406495Y-114390000D01*
X116480000Y-114390000D01*
X116474975Y-114390000D01*
X116510070Y-114354905D01*
X116556148Y-114275095D01*
X116580000Y-114186078D01*
X116580000Y-114093922D01*
X116556148Y-114004905D01*
X116510070Y-113925095D01*
X116444905Y-113859930D01*
X116365095Y-113813852D01*
X116276078Y-113790000D01*
X116183922Y-113790000D01*
X116094905Y-113813852D01*
X116015095Y-113859930D01*
X115949930Y-113925095D01*
X115903852Y-114004905D01*
X115880000Y-114093922D01*
X115880000Y-114186078D01*
X113414353Y-114186078D01*
X113395115Y-113978464D01*
X113369945Y-113890000D01*
X115053505Y-113890000D01*
X115980000Y-113890000D01*
X115980000Y-112965946D01*
X116480000Y-112965946D01*
X116480000Y-113890000D01*
X117406495Y-113890000D01*
X117353760Y-113704650D01*
X117254631Y-113505574D01*
X117120608Y-113328099D01*
X116956261Y-113178278D01*
X116767179Y-113061202D01*
X116767177Y-113061201D01*
X116559799Y-112980864D01*
X116480000Y-112965946D01*
X115980000Y-112965946D01*
X115900200Y-112980864D01*
X115692822Y-113061201D01*
X115692820Y-113061202D01*
X115503738Y-113178278D01*
X115339391Y-113328099D01*
X115205368Y-113505574D01*
X115106239Y-113704650D01*
X115053505Y-113890000D01*
X113369945Y-113890000D01*
X113334229Y-113764472D01*
X113311826Y-113719480D01*
X113235061Y-113565316D01*
X113235056Y-113565308D01*
X113100979Y-113387761D01*
X112936562Y-113237876D01*
X112936560Y-113237874D01*
X112747404Y-113120754D01*
X112747398Y-113120752D01*
X112539940Y-113040382D01*
X112321243Y-112999500D01*
X112098757Y-112999500D01*
X111880060Y-113040382D01*
X111768231Y-113083705D01*
X111672601Y-113120752D01*
X111672595Y-113120754D01*
X111483439Y-113237874D01*
X111483437Y-113237876D01*
X111319020Y-113387761D01*
X111184943Y-113565308D01*
X111184938Y-113565316D01*
X111085775Y-113764461D01*
X111085769Y-113764476D01*
X111024885Y-113978462D01*
X111024884Y-113978464D01*
X111004357Y-114199999D01*
X111004357Y-114200000D01*
X111024885Y-114421537D01*
X111030270Y-114440463D01*
X111029683Y-114510330D01*
X110998685Y-114562078D01*
X108597584Y-116963181D01*
X108536261Y-116996666D01*
X108509903Y-116999500D01*
X98386670Y-116999500D01*
X98386654Y-116999499D01*
X98379058Y-116999499D01*
X98220943Y-116999499D01*
X98144579Y-117019961D01*
X98068214Y-117040423D01*
X98068209Y-117040426D01*
X97931290Y-117119475D01*
X97931282Y-117119481D01*
X95490626Y-119560137D01*
X95429303Y-119593622D01*
X95359611Y-119588638D01*
X95343517Y-119581288D01*
X95333163Y-119575634D01*
X95333162Y-119575633D01*
X95333161Y-119575633D01*
X95065046Y-119475631D01*
X95065043Y-119475630D01*
X95065037Y-119475628D01*
X94785433Y-119414804D01*
X94500001Y-119394390D01*
X94499999Y-119394390D01*
X94214566Y-119414804D01*
X93934962Y-119475628D01*
X93666833Y-119575635D01*
X93415690Y-119712770D01*
X93415682Y-119712775D01*
X93186612Y-119884254D01*
X93186594Y-119884270D01*
X92984270Y-120086594D01*
X92984254Y-120086612D01*
X92812775Y-120315682D01*
X92812770Y-120315690D01*
X92675635Y-120566833D01*
X92575628Y-120834962D01*
X92514804Y-121114566D01*
X92494390Y-121399998D01*
X92494390Y-121400001D01*
X92514804Y-121685433D01*
X92575628Y-121965037D01*
X92575630Y-121965043D01*
X92575631Y-121965046D01*
X92618942Y-122081166D01*
X92675635Y-122233166D01*
X92812770Y-122484309D01*
X92812775Y-122484317D01*
X92984254Y-122713387D01*
X92984270Y-122713405D01*
X93186594Y-122915729D01*
X93186612Y-122915745D01*
X93415682Y-123087224D01*
X93415690Y-123087229D01*
X93666833Y-123224364D01*
X93666832Y-123224364D01*
X93666836Y-123224365D01*
X93666839Y-123224367D01*
X93934954Y-123324369D01*
X93934960Y-123324370D01*
X93934962Y-123324371D01*
X94072698Y-123354334D01*
X94134021Y-123387819D01*
X94167506Y-123449142D01*
X94162522Y-123518834D01*
X94120650Y-123574767D01*
X94055186Y-123599184D01*
X94046340Y-123599500D01*
X89953660Y-123599500D01*
X89886621Y-123579815D01*
X89840866Y-123527011D01*
X89830922Y-123457853D01*
X89859947Y-123394297D01*
X89918725Y-123356523D01*
X89927302Y-123354334D01*
X90065037Y-123324371D01*
X90065037Y-123324370D01*
X90065046Y-123324369D01*
X90333161Y-123224367D01*
X90584315Y-123087226D01*
X90813395Y-122915739D01*
X91015739Y-122713395D01*
X91187226Y-122484315D01*
X91324367Y-122233161D01*
X91424369Y-121965046D01*
X91437456Y-121904888D01*
X91485195Y-121685433D01*
X91485195Y-121685432D01*
X91485196Y-121685428D01*
X91505610Y-121400000D01*
X91485196Y-121114572D01*
X91467332Y-121032454D01*
X91424371Y-120834962D01*
X91424370Y-120834960D01*
X91424369Y-120834954D01*
X91324367Y-120566839D01*
X91318709Y-120556478D01*
X91303858Y-120488208D01*
X91328275Y-120422743D01*
X91339854Y-120409379D01*
X96912417Y-114836819D01*
X96973740Y-114803334D01*
X97000098Y-114800500D01*
X101297379Y-114800500D01*
X101364418Y-114820185D01*
X101396333Y-114849773D01*
X101519020Y-115012238D01*
X101683437Y-115162123D01*
X101683439Y-115162125D01*
X101872595Y-115279245D01*
X101872596Y-115279245D01*
X101872599Y-115279247D01*
X102080060Y-115359618D01*
X102298757Y-115400500D01*
X102298759Y-115400500D01*
X102521241Y-115400500D01*
X102521243Y-115400500D01*
X102739940Y-115359618D01*
X102947401Y-115279247D01*
X103136562Y-115162124D01*
X103300981Y-115012236D01*
X103401046Y-114879727D01*
X103457155Y-114838092D01*
X103526867Y-114833401D01*
X103588049Y-114867143D01*
X103598952Y-114879726D01*
X103621103Y-114909058D01*
X103699020Y-115012238D01*
X103863437Y-115162123D01*
X103863439Y-115162125D01*
X104052595Y-115279245D01*
X104052596Y-115279245D01*
X104052599Y-115279247D01*
X104260060Y-115359618D01*
X104478757Y-115400500D01*
X104478759Y-115400500D01*
X104701241Y-115400500D01*
X104701243Y-115400500D01*
X104919940Y-115359618D01*
X105127401Y-115279247D01*
X105316562Y-115162124D01*
X105480981Y-115012236D01*
X105615058Y-114834689D01*
X105714229Y-114635528D01*
X105775115Y-114421536D01*
X105795643Y-114200000D01*
X105775115Y-113978464D01*
X105714229Y-113764472D01*
X105691826Y-113719480D01*
X105615061Y-113565316D01*
X105615056Y-113565308D01*
X105480979Y-113387761D01*
X105316562Y-113237876D01*
X105316560Y-113237874D01*
X105127404Y-113120754D01*
X105127398Y-113120752D01*
X104919940Y-113040382D01*
X104701243Y-112999500D01*
X104659049Y-112999500D01*
X104592010Y-112979815D01*
X104546255Y-112927011D01*
X104536311Y-112857853D01*
X104565336Y-112794297D01*
X104571368Y-112787819D01*
X104700045Y-112659141D01*
X104700047Y-112659139D01*
X104830118Y-112473375D01*
X104884693Y-112429752D01*
X104931692Y-112420500D01*
X105331346Y-112420500D01*
X105398385Y-112440185D01*
X105442346Y-112489229D01*
X105474936Y-112554679D01*
X105474943Y-112554691D01*
X105609020Y-112732238D01*
X105727802Y-112840521D01*
X105766869Y-112876136D01*
X105773437Y-112882123D01*
X105773439Y-112882125D01*
X105962595Y-112999245D01*
X105962596Y-112999245D01*
X105962599Y-112999247D01*
X106170060Y-113079618D01*
X106388757Y-113120500D01*
X106388759Y-113120500D01*
X106611241Y-113120500D01*
X106611243Y-113120500D01*
X106829940Y-113079618D01*
X107037401Y-112999247D01*
X107226562Y-112882124D01*
X107390981Y-112732236D01*
X107525058Y-112554689D01*
X107527074Y-112550640D01*
X107557654Y-112489229D01*
X107605157Y-112437991D01*
X107668654Y-112420500D01*
X107731346Y-112420500D01*
X107798385Y-112440185D01*
X107842346Y-112489229D01*
X107874936Y-112554679D01*
X107874943Y-112554691D01*
X108009020Y-112732238D01*
X108127802Y-112840521D01*
X108166869Y-112876136D01*
X108173437Y-112882123D01*
X108173439Y-112882125D01*
X108362595Y-112999245D01*
X108362596Y-112999245D01*
X108362599Y-112999247D01*
X108570060Y-113079618D01*
X108788757Y-113120500D01*
X108788759Y-113120500D01*
X109011241Y-113120500D01*
X109011243Y-113120500D01*
X109229940Y-113079618D01*
X109437401Y-112999247D01*
X109626562Y-112882124D01*
X109790981Y-112732236D01*
X109925058Y-112554689D01*
X110024229Y-112355528D01*
X110085115Y-112141536D01*
X110105643Y-111920000D01*
X110085115Y-111698464D01*
X110024229Y-111484472D01*
X110024224Y-111484461D01*
X109925061Y-111285316D01*
X109925056Y-111285308D01*
X109790979Y-111107761D01*
X109626562Y-110957876D01*
X109626560Y-110957874D01*
X109437404Y-110840754D01*
X109437398Y-110840752D01*
X109229940Y-110760382D01*
X109011243Y-110719500D01*
X108788757Y-110719500D01*
X108570060Y-110760382D01*
X108467916Y-110799953D01*
X108362601Y-110840752D01*
X108362595Y-110840754D01*
X108173439Y-110957874D01*
X108173437Y-110957876D01*
X108009020Y-111107761D01*
X107961849Y-111170227D01*
X107905740Y-111211863D01*
X107862895Y-111219500D01*
X107537105Y-111219500D01*
X107470066Y-111199815D01*
X107438151Y-111170227D01*
X107390979Y-111107761D01*
X107226562Y-110957876D01*
X107226560Y-110957874D01*
X107037404Y-110840754D01*
X107037398Y-110840752D01*
X106829940Y-110760382D01*
X106611243Y-110719500D01*
X106388757Y-110719500D01*
X106170060Y-110760382D01*
X106067916Y-110799953D01*
X105962601Y-110840752D01*
X105962595Y-110840754D01*
X105773439Y-110957874D01*
X105773437Y-110957876D01*
X105609020Y-111107761D01*
X105561849Y-111170227D01*
X105505740Y-111211863D01*
X105462895Y-111219500D01*
X104931692Y-111219500D01*
X104864653Y-111199815D01*
X104830119Y-111166625D01*
X104700047Y-110980861D01*
X104700045Y-110980858D01*
X104539141Y-110819954D01*
X104352734Y-110689432D01*
X104352732Y-110689431D01*
X104146497Y-110593261D01*
X104146488Y-110593258D01*
X103926697Y-110534366D01*
X103926693Y-110534365D01*
X103926692Y-110534365D01*
X103926691Y-110534364D01*
X103926686Y-110534364D01*
X103700002Y-110514532D01*
X103699998Y-110514532D01*
X103473313Y-110534364D01*
X103473302Y-110534366D01*
X103356593Y-110565638D01*
X103286743Y-110563975D01*
X103228881Y-110524812D01*
X103201377Y-110460583D01*
X103200500Y-110445863D01*
X103200500Y-108220097D01*
X103220185Y-108153058D01*
X103236817Y-108132418D01*
X103257291Y-108111943D01*
X103318613Y-108078456D01*
X103377066Y-108079846D01*
X103473308Y-108105635D01*
X103635230Y-108119801D01*
X103699998Y-108125468D01*
X103700000Y-108125468D01*
X103700002Y-108125468D01*
X103756673Y-108120509D01*
X103926692Y-108105635D01*
X104146496Y-108046739D01*
X104352734Y-107950568D01*
X104539139Y-107820047D01*
X104700047Y-107659139D01*
X104830568Y-107472734D01*
X104926739Y-107266496D01*
X104985635Y-107046692D01*
X105005468Y-106820000D01*
X104985635Y-106593308D01*
X104940916Y-106426415D01*
X104926741Y-106373511D01*
X104926738Y-106373502D01*
X104830568Y-106167267D01*
X104830567Y-106167265D01*
X104816564Y-106147267D01*
X104700047Y-105980861D01*
X104700045Y-105980858D01*
X104539141Y-105819954D01*
X104352734Y-105689432D01*
X104352732Y-105689431D01*
X104146497Y-105593261D01*
X104146488Y-105593258D01*
X103926697Y-105534366D01*
X103926693Y-105534365D01*
X103926692Y-105534365D01*
X103926691Y-105534364D01*
X103926686Y-105534364D01*
X103700002Y-105514532D01*
X103699998Y-105514532D01*
X103473313Y-105534364D01*
X103473302Y-105534366D01*
X103253511Y-105593258D01*
X103253502Y-105593261D01*
X103047267Y-105689431D01*
X103047265Y-105689432D01*
X102860858Y-105819954D01*
X102699954Y-105980858D01*
X102569432Y-106167265D01*
X102569431Y-106167267D01*
X102473261Y-106373502D01*
X102473258Y-106373511D01*
X102414366Y-106593302D01*
X102414364Y-106593313D01*
X102394532Y-106819998D01*
X102394532Y-106820001D01*
X102414364Y-107046686D01*
X102414366Y-107046697D01*
X102440152Y-107142931D01*
X102438489Y-107212781D01*
X102408058Y-107262705D01*
X102231286Y-107439478D01*
X102119481Y-107551282D01*
X102119479Y-107551285D01*
X102069361Y-107638094D01*
X102069359Y-107638096D01*
X102040425Y-107688209D01*
X102040424Y-107688210D01*
X102024544Y-107747472D01*
X101999499Y-107840943D01*
X101999499Y-107840945D01*
X101999499Y-108009046D01*
X101999500Y-108009059D01*
X101999500Y-111017020D01*
X101979815Y-111084059D01*
X101927011Y-111129814D01*
X101857853Y-111139758D01*
X101794297Y-111110733D01*
X101791962Y-111108657D01*
X101626562Y-110957876D01*
X101626560Y-110957874D01*
X101437404Y-110840754D01*
X101437398Y-110840752D01*
X101229940Y-110760382D01*
X101011243Y-110719500D01*
X100788757Y-110719500D01*
X100570060Y-110760382D01*
X100467916Y-110799953D01*
X100362601Y-110840752D01*
X100362595Y-110840754D01*
X100173439Y-110957874D01*
X100173437Y-110957876D01*
X100009020Y-111107762D01*
X99976952Y-111150227D01*
X99920842Y-111191863D01*
X99877998Y-111199500D01*
X99599605Y-111199500D01*
X99532566Y-111179815D01*
X99500651Y-111150227D01*
X99453479Y-111087761D01*
X99289062Y-110937876D01*
X99289060Y-110937874D01*
X99099904Y-110820754D01*
X99099898Y-110820752D01*
X98892440Y-110740382D01*
X98673743Y-110699500D01*
X98451257Y-110699500D01*
X98232560Y-110740382D01*
X98101364Y-110791207D01*
X98025101Y-110820752D01*
X98025095Y-110820754D01*
X97835939Y-110937874D01*
X97835937Y-110937876D01*
X97671520Y-111087761D01*
X97624349Y-111150227D01*
X97568240Y-111191863D01*
X97525395Y-111199500D01*
X97031692Y-111199500D01*
X96964653Y-111179815D01*
X96930119Y-111146625D01*
X96800047Y-110960861D01*
X96800045Y-110960858D01*
X96639141Y-110799954D01*
X96452734Y-110669432D01*
X96452732Y-110669431D01*
X96246497Y-110573261D01*
X96246488Y-110573258D01*
X96026697Y-110514366D01*
X96026693Y-110514365D01*
X96026692Y-110514365D01*
X96026691Y-110514364D01*
X96026686Y-110514364D01*
X95800002Y-110494532D01*
X95799998Y-110494532D01*
X95573313Y-110514364D01*
X95573302Y-110514366D01*
X95353511Y-110573258D01*
X95353502Y-110573261D01*
X95147267Y-110669431D01*
X95147265Y-110669432D01*
X94960858Y-110799954D01*
X94902181Y-110858632D01*
X94840858Y-110892117D01*
X94771166Y-110887133D01*
X94715233Y-110845261D01*
X94690816Y-110779797D01*
X94690500Y-110770951D01*
X94690500Y-108810096D01*
X94710185Y-108743057D01*
X94726815Y-108722419D01*
X95357294Y-108091939D01*
X95418615Y-108058456D01*
X95477066Y-108059847D01*
X95482556Y-108061318D01*
X95573308Y-108085635D01*
X95735230Y-108099801D01*
X95799998Y-108105468D01*
X95800000Y-108105468D01*
X95800002Y-108105468D01*
X95856673Y-108100509D01*
X96026692Y-108085635D01*
X96246496Y-108026739D01*
X96452734Y-107930568D01*
X96639139Y-107800047D01*
X96800047Y-107639139D01*
X96930568Y-107452734D01*
X97026739Y-107246496D01*
X97085635Y-107026692D01*
X97105468Y-106800000D01*
X97085635Y-106573308D01*
X97026739Y-106353504D01*
X96930568Y-106147266D01*
X96800047Y-105960861D01*
X96800045Y-105960858D01*
X96639141Y-105799954D01*
X96452734Y-105669432D01*
X96452732Y-105669431D01*
X96246497Y-105573261D01*
X96246488Y-105573258D01*
X96026697Y-105514366D01*
X96026693Y-105514365D01*
X96026692Y-105514365D01*
X96026691Y-105514364D01*
X96026686Y-105514364D01*
X95800002Y-105494532D01*
X95799998Y-105494532D01*
X95573313Y-105514364D01*
X95573302Y-105514366D01*
X95353511Y-105573258D01*
X95353502Y-105573261D01*
X95147267Y-105669431D01*
X95147265Y-105669432D01*
X94960858Y-105799954D01*
X94799954Y-105960858D01*
X94669432Y-106147265D01*
X94669431Y-106147267D01*
X94573261Y-106353502D01*
X94573258Y-106353511D01*
X94514366Y-106573302D01*
X94514364Y-106573313D01*
X94494532Y-106799998D01*
X94494532Y-106800001D01*
X94514364Y-107026686D01*
X94514366Y-107026697D01*
X94540152Y-107122931D01*
X94538489Y-107192781D01*
X94508058Y-107242705D01*
X93721286Y-108029478D01*
X93609481Y-108141282D01*
X93609479Y-108141285D01*
X93559361Y-108228094D01*
X93559359Y-108228096D01*
X93530425Y-108278209D01*
X93530424Y-108278210D01*
X93530423Y-108278215D01*
X93489499Y-108430943D01*
X93489499Y-108430945D01*
X93489499Y-108599046D01*
X93489500Y-108599059D01*
X93489500Y-110621578D01*
X93469815Y-110688617D01*
X93417011Y-110734372D01*
X93347853Y-110744316D01*
X93331574Y-110740847D01*
X93329944Y-110740383D01*
X93329941Y-110740382D01*
X93329940Y-110740382D01*
X93111243Y-110699500D01*
X92888757Y-110699500D01*
X92670060Y-110740382D01*
X92538864Y-110791207D01*
X92462601Y-110820752D01*
X92462595Y-110820754D01*
X92273439Y-110937874D01*
X92273437Y-110937876D01*
X92109020Y-111087761D01*
X92061849Y-111150227D01*
X92005740Y-111191863D01*
X91962895Y-111199500D01*
X91637105Y-111199500D01*
X91570066Y-111179815D01*
X91538151Y-111150227D01*
X91490979Y-111087761D01*
X91326562Y-110937876D01*
X91326560Y-110937874D01*
X91137404Y-110820754D01*
X91137398Y-110820752D01*
X90929940Y-110740382D01*
X90711243Y-110699500D01*
X90488757Y-110699500D01*
X90270060Y-110740382D01*
X90138864Y-110791207D01*
X90062601Y-110820752D01*
X90062595Y-110820754D01*
X89873439Y-110937874D01*
X89873437Y-110937876D01*
X89709020Y-111087761D01*
X89661849Y-111150227D01*
X89605740Y-111191863D01*
X89562895Y-111199500D01*
X89031692Y-111199500D01*
X88964653Y-111179815D01*
X88930119Y-111146625D01*
X88800047Y-110960861D01*
X88800045Y-110960858D01*
X88639141Y-110799954D01*
X88452734Y-110669432D01*
X88452732Y-110669431D01*
X88246497Y-110573261D01*
X88246488Y-110573258D01*
X88026697Y-110514366D01*
X88026693Y-110514365D01*
X88026692Y-110514365D01*
X88026691Y-110514364D01*
X88026686Y-110514364D01*
X87800002Y-110494532D01*
X87799998Y-110494532D01*
X87573313Y-110514364D01*
X87573302Y-110514366D01*
X87456593Y-110545638D01*
X87386743Y-110543975D01*
X87328881Y-110504812D01*
X87301377Y-110440583D01*
X87300500Y-110425863D01*
X87300500Y-108200097D01*
X87320185Y-108133058D01*
X87336817Y-108112418D01*
X87357291Y-108091943D01*
X87418613Y-108058456D01*
X87477066Y-108059846D01*
X87573308Y-108085635D01*
X87735230Y-108099801D01*
X87799998Y-108105468D01*
X87800000Y-108105468D01*
X87800002Y-108105468D01*
X87856673Y-108100509D01*
X88026692Y-108085635D01*
X88246496Y-108026739D01*
X88452734Y-107930568D01*
X88639139Y-107800047D01*
X88800047Y-107639139D01*
X88930568Y-107452734D01*
X89026739Y-107246496D01*
X89085635Y-107026692D01*
X89105468Y-106800000D01*
X89085635Y-106573308D01*
X89026739Y-106353504D01*
X88930568Y-106147266D01*
X88800047Y-105960861D01*
X88800045Y-105960858D01*
X88639141Y-105799954D01*
X88452734Y-105669432D01*
X88452732Y-105669431D01*
X88246497Y-105573261D01*
X88246488Y-105573258D01*
X88026697Y-105514366D01*
X88026693Y-105514365D01*
X88026692Y-105514365D01*
X88026691Y-105514364D01*
X88026686Y-105514364D01*
X87800002Y-105494532D01*
X87799998Y-105494532D01*
X87573313Y-105514364D01*
X87573302Y-105514366D01*
X87353511Y-105573258D01*
X87353502Y-105573261D01*
X87147267Y-105669431D01*
X87147265Y-105669432D01*
X86960858Y-105799954D01*
X86799954Y-105960858D01*
X86669432Y-106147265D01*
X86669431Y-106147267D01*
X86573261Y-106353502D01*
X86573258Y-106353511D01*
X86514366Y-106573302D01*
X86514364Y-106573313D01*
X86494532Y-106799998D01*
X86494532Y-106800001D01*
X86514364Y-107026686D01*
X86514366Y-107026697D01*
X86540152Y-107122931D01*
X86538489Y-107192781D01*
X86508058Y-107242705D01*
X86331286Y-107419478D01*
X86219482Y-107531281D01*
X86219478Y-107531287D01*
X86169407Y-107618013D01*
X86140424Y-107668212D01*
X86140423Y-107668213D01*
X86128407Y-107713057D01*
X86099499Y-107820943D01*
X86099499Y-107820945D01*
X86099499Y-107989046D01*
X86099500Y-107989059D01*
X86099500Y-110997020D01*
X86079815Y-111064059D01*
X86027011Y-111109814D01*
X85957853Y-111119758D01*
X85894297Y-111090733D01*
X85891962Y-111088657D01*
X85726562Y-110937876D01*
X85726560Y-110937874D01*
X85537404Y-110820754D01*
X85537398Y-110820752D01*
X85329940Y-110740382D01*
X85111243Y-110699500D01*
X84888757Y-110699500D01*
X84670060Y-110740382D01*
X84538864Y-110791207D01*
X84462601Y-110820752D01*
X84462595Y-110820754D01*
X84273439Y-110937874D01*
X84273437Y-110937876D01*
X84109020Y-111087761D01*
X83974943Y-111265308D01*
X83974938Y-111265316D01*
X83875775Y-111464461D01*
X83875769Y-111464476D01*
X83814885Y-111678462D01*
X83814884Y-111678464D01*
X83794357Y-111899999D01*
X83794357Y-111900000D01*
X83814885Y-112121537D01*
X83820270Y-112140463D01*
X83819683Y-112210330D01*
X83788685Y-112262078D01*
X82612181Y-113438583D01*
X82550858Y-113472068D01*
X82481166Y-113467084D01*
X82425233Y-113425212D01*
X82400816Y-113359748D01*
X82400500Y-113350902D01*
X82400500Y-107780096D01*
X82420185Y-107713057D01*
X82436814Y-107692420D01*
X84640319Y-105488914D01*
X84701640Y-105455431D01*
X84750783Y-105454708D01*
X84888757Y-105480500D01*
X84888759Y-105480500D01*
X85111241Y-105480500D01*
X85111243Y-105480500D01*
X85329940Y-105439618D01*
X85537401Y-105359247D01*
X85726562Y-105242124D01*
X85890981Y-105092236D01*
X86025058Y-104914689D01*
X86124229Y-104715528D01*
X86177016Y-104530000D01*
X89423505Y-104530000D01*
X89476239Y-104715349D01*
X89575368Y-104914425D01*
X89709391Y-105091900D01*
X89873738Y-105241721D01*
X90062820Y-105358797D01*
X90062822Y-105358798D01*
X90270195Y-105439135D01*
X90350000Y-105454052D01*
X90350000Y-104530000D01*
X89423505Y-104530000D01*
X86177016Y-104530000D01*
X86185115Y-104501536D01*
X86201373Y-104326078D01*
X90250000Y-104326078D01*
X90273852Y-104415095D01*
X90319930Y-104494905D01*
X90385095Y-104560070D01*
X90464905Y-104606148D01*
X90553922Y-104630000D01*
X90646078Y-104630000D01*
X90735095Y-104606148D01*
X90814905Y-104560070D01*
X90850000Y-104524975D01*
X90850000Y-105454052D01*
X90929804Y-105439135D01*
X91137177Y-105358798D01*
X91137179Y-105358797D01*
X91326261Y-105241721D01*
X91490608Y-105091900D01*
X91624630Y-104914427D01*
X91688719Y-104785718D01*
X91736222Y-104734481D01*
X91803885Y-104717059D01*
X91870225Y-104738984D01*
X91910720Y-104785717D01*
X91974938Y-104914683D01*
X91974943Y-104914691D01*
X92109020Y-105092238D01*
X92273437Y-105242123D01*
X92273439Y-105242125D01*
X92462595Y-105359245D01*
X92462596Y-105359245D01*
X92462599Y-105359247D01*
X92670060Y-105439618D01*
X92888757Y-105480500D01*
X92888759Y-105480500D01*
X93111241Y-105480500D01*
X93111243Y-105480500D01*
X93329940Y-105439618D01*
X93537401Y-105359247D01*
X93726562Y-105242124D01*
X93890981Y-105092236D01*
X94025058Y-104914689D01*
X94124229Y-104715528D01*
X94177016Y-104530000D01*
X97386005Y-104530000D01*
X97438739Y-104715349D01*
X97537868Y-104914425D01*
X97671891Y-105091900D01*
X97836238Y-105241721D01*
X98025320Y-105358797D01*
X98025322Y-105358798D01*
X98232695Y-105439135D01*
X98312500Y-105454052D01*
X98312500Y-104530000D01*
X97386005Y-104530000D01*
X94177016Y-104530000D01*
X94185115Y-104501536D01*
X94201373Y-104326078D01*
X98212500Y-104326078D01*
X98236352Y-104415095D01*
X98282430Y-104494905D01*
X98347595Y-104560070D01*
X98427405Y-104606148D01*
X98516422Y-104630000D01*
X98608578Y-104630000D01*
X98697595Y-104606148D01*
X98777405Y-104560070D01*
X98812500Y-104524975D01*
X98812500Y-105454052D01*
X98892304Y-105439135D01*
X99099677Y-105358798D01*
X99099679Y-105358797D01*
X99288761Y-105241721D01*
X99453108Y-105091900D01*
X99587129Y-104914427D01*
X99614990Y-104858476D01*
X99662493Y-104807239D01*
X99730155Y-104789817D01*
X99796496Y-104811742D01*
X99836991Y-104858475D01*
X99874938Y-104934683D01*
X99874943Y-104934691D01*
X100009020Y-105112238D01*
X100173437Y-105262123D01*
X100173439Y-105262125D01*
X100362595Y-105379245D01*
X100362596Y-105379245D01*
X100362599Y-105379247D01*
X100570060Y-105459618D01*
X100788757Y-105500500D01*
X100788759Y-105500500D01*
X101011241Y-105500500D01*
X101011243Y-105500500D01*
X101229940Y-105459618D01*
X101437401Y-105379247D01*
X101626562Y-105262124D01*
X101790981Y-105112236D01*
X101925058Y-104934689D01*
X102024229Y-104735528D01*
X102077016Y-104550000D01*
X105323505Y-104550000D01*
X105376239Y-104735349D01*
X105475368Y-104934425D01*
X105609391Y-105111900D01*
X105773738Y-105261721D01*
X105962820Y-105378797D01*
X105962822Y-105378798D01*
X106170195Y-105459135D01*
X106250000Y-105474052D01*
X106250000Y-104550000D01*
X105323505Y-104550000D01*
X102077016Y-104550000D01*
X102085115Y-104521536D01*
X102105643Y-104300000D01*
X102099594Y-104234725D01*
X102085115Y-104078464D01*
X102085114Y-104078462D01*
X102079424Y-104058464D01*
X102024229Y-103864472D01*
X102024224Y-103864461D01*
X101925061Y-103665316D01*
X101925056Y-103665308D01*
X101790979Y-103487761D01*
X101626562Y-103337876D01*
X101626560Y-103337874D01*
X101437404Y-103220754D01*
X101437398Y-103220752D01*
X101229940Y-103140382D01*
X101080325Y-103112413D01*
X101018045Y-103080745D01*
X100982773Y-103020433D01*
X100985707Y-102950625D01*
X101025916Y-102893485D01*
X101050702Y-102878146D01*
X101152734Y-102830568D01*
X101339139Y-102700047D01*
X101500047Y-102539139D01*
X101630568Y-102352734D01*
X101726739Y-102146496D01*
X101752595Y-102050000D01*
X102123505Y-102050000D01*
X102176239Y-102235349D01*
X102275368Y-102434425D01*
X102409391Y-102611900D01*
X102573738Y-102761721D01*
X102762820Y-102878797D01*
X102762822Y-102878798D01*
X102970195Y-102959135D01*
X103050000Y-102974052D01*
X103050000Y-102050000D01*
X102123505Y-102050000D01*
X101752595Y-102050000D01*
X101785635Y-101926692D01*
X101792688Y-101846078D01*
X102950000Y-101846078D01*
X102973852Y-101935095D01*
X103019930Y-102014905D01*
X103085095Y-102080070D01*
X103164905Y-102126148D01*
X103253922Y-102150000D01*
X103346078Y-102150000D01*
X103435095Y-102126148D01*
X103514905Y-102080070D01*
X103544975Y-102050000D01*
X103550000Y-102050000D01*
X103550000Y-102974052D01*
X103629804Y-102959135D01*
X103837177Y-102878798D01*
X103837179Y-102878797D01*
X104026261Y-102761721D01*
X104190608Y-102611900D01*
X104324631Y-102434425D01*
X104423760Y-102235349D01*
X104476495Y-102050000D01*
X103550000Y-102050000D01*
X103544975Y-102050000D01*
X103580070Y-102014905D01*
X103626148Y-101935095D01*
X103650000Y-101846078D01*
X103650000Y-101753922D01*
X103635552Y-101700001D01*
X104794532Y-101700001D01*
X104814364Y-101926686D01*
X104814366Y-101926697D01*
X104873258Y-102146488D01*
X104873261Y-102146497D01*
X104969431Y-102352732D01*
X104969432Y-102352734D01*
X105099954Y-102539141D01*
X105260858Y-102700045D01*
X105260861Y-102700047D01*
X105447266Y-102830568D01*
X105653504Y-102926739D01*
X105873308Y-102985635D01*
X105913398Y-102989142D01*
X105978466Y-103014594D01*
X106019445Y-103071184D01*
X106023324Y-103140946D01*
X105988871Y-103201731D01*
X105967090Y-103217206D01*
X105967696Y-103218184D01*
X105773738Y-103338278D01*
X105609391Y-103488099D01*
X105475368Y-103665574D01*
X105376239Y-103864650D01*
X105323505Y-104050000D01*
X106255025Y-104050000D01*
X106219930Y-104085095D01*
X106173852Y-104164905D01*
X106150000Y-104253922D01*
X106150000Y-104346078D01*
X106173852Y-104435095D01*
X106219930Y-104514905D01*
X106285095Y-104580070D01*
X106364905Y-104626148D01*
X106453922Y-104650000D01*
X106546078Y-104650000D01*
X106635095Y-104626148D01*
X106714905Y-104580070D01*
X106750000Y-104544975D01*
X106750000Y-105474052D01*
X106829804Y-105459135D01*
X107037177Y-105378798D01*
X107037179Y-105378797D01*
X107226261Y-105261721D01*
X107390608Y-105111900D01*
X107524630Y-104934427D01*
X107588719Y-104805718D01*
X107636222Y-104754481D01*
X107703885Y-104737059D01*
X107770225Y-104758984D01*
X107810720Y-104805717D01*
X107874938Y-104934683D01*
X107874943Y-104934691D01*
X108009020Y-105112238D01*
X108173437Y-105262123D01*
X108173439Y-105262125D01*
X108362595Y-105379245D01*
X108362596Y-105379245D01*
X108362599Y-105379247D01*
X108570060Y-105459618D01*
X108788757Y-105500500D01*
X108788759Y-105500500D01*
X109011241Y-105500500D01*
X109011243Y-105500500D01*
X109229940Y-105459618D01*
X109437401Y-105379247D01*
X109626562Y-105262124D01*
X109790981Y-105112236D01*
X109925058Y-104934689D01*
X110024229Y-104735528D01*
X110085115Y-104521536D01*
X110105643Y-104300000D01*
X110099594Y-104234725D01*
X110085115Y-104078464D01*
X110085114Y-104078462D01*
X110079424Y-104058464D01*
X110024229Y-103864472D01*
X110024224Y-103864461D01*
X109925061Y-103665316D01*
X109925056Y-103665308D01*
X109790979Y-103487761D01*
X109626562Y-103337876D01*
X109626560Y-103337874D01*
X109437404Y-103220754D01*
X109437398Y-103220751D01*
X109337225Y-103181944D01*
X109294411Y-103165358D01*
X109239011Y-103122786D01*
X109215420Y-103057019D01*
X109231131Y-102988939D01*
X109281155Y-102940160D01*
X109294413Y-102934105D01*
X109437174Y-102878799D01*
X109437179Y-102878797D01*
X109626261Y-102761721D01*
X109790608Y-102611900D01*
X109924631Y-102434425D01*
X110023760Y-102235349D01*
X110076495Y-102050000D01*
X109144975Y-102050000D01*
X109180070Y-102014905D01*
X109226148Y-101935095D01*
X109250000Y-101846078D01*
X109250000Y-101753922D01*
X109226148Y-101664905D01*
X109180070Y-101585095D01*
X109114905Y-101519930D01*
X109035095Y-101473852D01*
X108946078Y-101450000D01*
X108853922Y-101450000D01*
X108764905Y-101473852D01*
X108685095Y-101519930D01*
X108619930Y-101585095D01*
X108573852Y-101664905D01*
X108550000Y-101753922D01*
X108550000Y-101846078D01*
X108573852Y-101935095D01*
X108619930Y-102014905D01*
X108655025Y-102050000D01*
X107723505Y-102050000D01*
X107776239Y-102235349D01*
X107875368Y-102434425D01*
X108009391Y-102611900D01*
X108173738Y-102761721D01*
X108362820Y-102878797D01*
X108362822Y-102878798D01*
X108505587Y-102934105D01*
X108560988Y-102976678D01*
X108584579Y-103042445D01*
X108568868Y-103110525D01*
X108518844Y-103159304D01*
X108505587Y-103165359D01*
X108362601Y-103220751D01*
X108362595Y-103220754D01*
X108173439Y-103337874D01*
X108173437Y-103337876D01*
X108009020Y-103487761D01*
X107874943Y-103665308D01*
X107874941Y-103665312D01*
X107810720Y-103794283D01*
X107763216Y-103845519D01*
X107695553Y-103862940D01*
X107629213Y-103841014D01*
X107588720Y-103794281D01*
X107524633Y-103665576D01*
X107390608Y-103488099D01*
X107226261Y-103338278D01*
X107037179Y-103221202D01*
X107037177Y-103221201D01*
X106829804Y-103140865D01*
X106679549Y-103112777D01*
X106617268Y-103081109D01*
X106581995Y-103020796D01*
X106584929Y-102950988D01*
X106625138Y-102893848D01*
X106649925Y-102878508D01*
X106752734Y-102830568D01*
X106939139Y-102700047D01*
X107100047Y-102539139D01*
X107230568Y-102352734D01*
X107326739Y-102146496D01*
X107385635Y-101926692D01*
X107405468Y-101700000D01*
X107392345Y-101550000D01*
X107723505Y-101550000D01*
X108650000Y-101550000D01*
X108650000Y-100625946D01*
X109150000Y-100625946D01*
X109150000Y-101550000D01*
X110076495Y-101550000D01*
X110023760Y-101364650D01*
X109924631Y-101165574D01*
X109790608Y-100988099D01*
X109626261Y-100838278D01*
X109437179Y-100721202D01*
X109437177Y-100721201D01*
X109229799Y-100640864D01*
X109150000Y-100625946D01*
X108650000Y-100625946D01*
X108570200Y-100640864D01*
X108362822Y-100721201D01*
X108362820Y-100721202D01*
X108173738Y-100838278D01*
X108009391Y-100988099D01*
X107875368Y-101165574D01*
X107776239Y-101364650D01*
X107723505Y-101550000D01*
X107392345Y-101550000D01*
X107385635Y-101473308D01*
X107332047Y-101273313D01*
X107326741Y-101253511D01*
X107326738Y-101253502D01*
X107230568Y-101047266D01*
X107100047Y-100860861D01*
X107100045Y-100860858D01*
X106939141Y-100699954D01*
X106752734Y-100569432D01*
X106752732Y-100569431D01*
X106546497Y-100473261D01*
X106546488Y-100473258D01*
X106326697Y-100414366D01*
X106326693Y-100414365D01*
X106326692Y-100414365D01*
X106326691Y-100414364D01*
X106326686Y-100414364D01*
X106100002Y-100394532D01*
X106099998Y-100394532D01*
X105873313Y-100414364D01*
X105873302Y-100414366D01*
X105653511Y-100473258D01*
X105653502Y-100473261D01*
X105447267Y-100569431D01*
X105447265Y-100569432D01*
X105260858Y-100699954D01*
X105099954Y-100860858D01*
X104969432Y-101047265D01*
X104969431Y-101047267D01*
X104873261Y-101253502D01*
X104873258Y-101253511D01*
X104814366Y-101473302D01*
X104814364Y-101473313D01*
X104794532Y-101699998D01*
X104794532Y-101700001D01*
X103635552Y-101700001D01*
X103626148Y-101664905D01*
X103580070Y-101585095D01*
X103514905Y-101519930D01*
X103435095Y-101473852D01*
X103346078Y-101450000D01*
X103253922Y-101450000D01*
X103164905Y-101473852D01*
X103085095Y-101519930D01*
X103019930Y-101585095D01*
X102973852Y-101664905D01*
X102950000Y-101753922D01*
X102950000Y-101846078D01*
X101792688Y-101846078D01*
X101805468Y-101700000D01*
X101792345Y-101550000D01*
X102123505Y-101550000D01*
X103050000Y-101550000D01*
X103050000Y-100625946D01*
X103550000Y-100625946D01*
X103550000Y-101550000D01*
X104476495Y-101550000D01*
X104423760Y-101364650D01*
X104324631Y-101165574D01*
X104190608Y-100988099D01*
X104026261Y-100838278D01*
X103837179Y-100721202D01*
X103837177Y-100721201D01*
X103629799Y-100640864D01*
X103550000Y-100625946D01*
X103050000Y-100625946D01*
X102970200Y-100640864D01*
X102762822Y-100721201D01*
X102762820Y-100721202D01*
X102573738Y-100838278D01*
X102409391Y-100988099D01*
X102275368Y-101165574D01*
X102176239Y-101364650D01*
X102123505Y-101550000D01*
X101792345Y-101550000D01*
X101785635Y-101473308D01*
X101732047Y-101273313D01*
X101726741Y-101253511D01*
X101726738Y-101253502D01*
X101630568Y-101047266D01*
X101500047Y-100860861D01*
X101500045Y-100860858D01*
X101339141Y-100699954D01*
X101152734Y-100569432D01*
X101152732Y-100569431D01*
X100946497Y-100473261D01*
X100946488Y-100473258D01*
X100726697Y-100414366D01*
X100726693Y-100414365D01*
X100726692Y-100414365D01*
X100726691Y-100414364D01*
X100726686Y-100414364D01*
X100500002Y-100394532D01*
X100499998Y-100394532D01*
X100273313Y-100414364D01*
X100273302Y-100414366D01*
X100053511Y-100473258D01*
X100053502Y-100473261D01*
X99847267Y-100569431D01*
X99847265Y-100569432D01*
X99660858Y-100699954D01*
X99499954Y-100860858D01*
X99369432Y-101047265D01*
X99369431Y-101047267D01*
X99273261Y-101253502D01*
X99273258Y-101253511D01*
X99214366Y-101473302D01*
X99214364Y-101473313D01*
X99194532Y-101699998D01*
X99194532Y-101700001D01*
X99214364Y-101926686D01*
X99214366Y-101926697D01*
X99273258Y-102146488D01*
X99273261Y-102146497D01*
X99369431Y-102352732D01*
X99369432Y-102352734D01*
X99499954Y-102539141D01*
X99660858Y-102700045D01*
X99660861Y-102700047D01*
X99847266Y-102830568D01*
X100053504Y-102926739D01*
X100273308Y-102985635D01*
X100312539Y-102989067D01*
X100377608Y-103014519D01*
X100418587Y-103071110D01*
X100422465Y-103140872D01*
X100388011Y-103201656D01*
X100367009Y-103218022D01*
X100173439Y-103337874D01*
X100173437Y-103337876D01*
X100009020Y-103487761D01*
X99874943Y-103665308D01*
X99874941Y-103665312D01*
X99846950Y-103721525D01*
X99799446Y-103772761D01*
X99731783Y-103790182D01*
X99665443Y-103768256D01*
X99624950Y-103721524D01*
X99587131Y-103645574D01*
X99453108Y-103468099D01*
X99288761Y-103318278D01*
X99099679Y-103201202D01*
X99099677Y-103201201D01*
X98892299Y-103120864D01*
X98812500Y-103105946D01*
X98812500Y-104035025D01*
X98777405Y-103999930D01*
X98697595Y-103953852D01*
X98608578Y-103930000D01*
X98516422Y-103930000D01*
X98427405Y-103953852D01*
X98347595Y-103999930D01*
X98282430Y-104065095D01*
X98236352Y-104144905D01*
X98212500Y-104233922D01*
X98212500Y-104326078D01*
X94201373Y-104326078D01*
X94205643Y-104280000D01*
X94185115Y-104058464D01*
X94177016Y-104030000D01*
X97386005Y-104030000D01*
X98312500Y-104030000D01*
X98312500Y-103105945D01*
X98305136Y-103099830D01*
X98261621Y-103095429D01*
X98206944Y-103051930D01*
X98184463Y-102985776D01*
X98201317Y-102917969D01*
X98243077Y-102875145D01*
X98426258Y-102761724D01*
X98426260Y-102761722D01*
X98590608Y-102611900D01*
X98724631Y-102434425D01*
X98823760Y-102235349D01*
X98876495Y-102050000D01*
X97950000Y-102050000D01*
X97950000Y-102974053D01*
X97957359Y-102980165D01*
X98000878Y-102984566D01*
X98055557Y-103028063D01*
X98078040Y-103094216D01*
X98061188Y-103162023D01*
X98019427Y-103204851D01*
X97836238Y-103318278D01*
X97671891Y-103468099D01*
X97537868Y-103645574D01*
X97438739Y-103844650D01*
X97386005Y-104030000D01*
X94177016Y-104030000D01*
X94124229Y-103844472D01*
X94124224Y-103844461D01*
X94025061Y-103645316D01*
X94025056Y-103645308D01*
X93890979Y-103467761D01*
X93726562Y-103317876D01*
X93726560Y-103317874D01*
X93537404Y-103200754D01*
X93537398Y-103200752D01*
X93329940Y-103120382D01*
X93111243Y-103079500D01*
X92888757Y-103079500D01*
X92670060Y-103120382D01*
X92553961Y-103165359D01*
X92462601Y-103200752D01*
X92462595Y-103200754D01*
X92273439Y-103317874D01*
X92273437Y-103317876D01*
X92109020Y-103467761D01*
X91974943Y-103645308D01*
X91974941Y-103645312D01*
X91910720Y-103774283D01*
X91863216Y-103825519D01*
X91795553Y-103842940D01*
X91729213Y-103821014D01*
X91688720Y-103774281D01*
X91624633Y-103645576D01*
X91490608Y-103468099D01*
X91326261Y-103318278D01*
X91137179Y-103201202D01*
X91137177Y-103201201D01*
X90929799Y-103120864D01*
X90850000Y-103105946D01*
X90850000Y-104035025D01*
X90814905Y-103999930D01*
X90735095Y-103953852D01*
X90646078Y-103930000D01*
X90553922Y-103930000D01*
X90464905Y-103953852D01*
X90385095Y-103999930D01*
X90319930Y-104065095D01*
X90273852Y-104144905D01*
X90250000Y-104233922D01*
X90250000Y-104326078D01*
X86201373Y-104326078D01*
X86205643Y-104280000D01*
X86185115Y-104058464D01*
X86177016Y-104030000D01*
X89423505Y-104030000D01*
X90350000Y-104030000D01*
X90350000Y-103105946D01*
X90270200Y-103120864D01*
X90062822Y-103201201D01*
X90062820Y-103201202D01*
X89873738Y-103318278D01*
X89709391Y-103468099D01*
X89575368Y-103645574D01*
X89476239Y-103844650D01*
X89423505Y-104030000D01*
X86177016Y-104030000D01*
X86124229Y-103844472D01*
X86124224Y-103844461D01*
X86025061Y-103645316D01*
X86025056Y-103645308D01*
X85890979Y-103467761D01*
X85726562Y-103317876D01*
X85726560Y-103317874D01*
X85537404Y-103200754D01*
X85537398Y-103200752D01*
X85329940Y-103120382D01*
X85111243Y-103079500D01*
X84888757Y-103079500D01*
X84670060Y-103120382D01*
X84553961Y-103165359D01*
X84462601Y-103200752D01*
X84462595Y-103200754D01*
X84273439Y-103317874D01*
X84273437Y-103317876D01*
X84109020Y-103467761D01*
X83974943Y-103645308D01*
X83974938Y-103645316D01*
X83875775Y-103844461D01*
X83875769Y-103844476D01*
X83814885Y-104058462D01*
X83814884Y-104058464D01*
X83794357Y-104279999D01*
X83794357Y-104280000D01*
X83814885Y-104501537D01*
X83820270Y-104520463D01*
X83819683Y-104590330D01*
X83788685Y-104642078D01*
X81431286Y-106999478D01*
X81319481Y-107111282D01*
X81319479Y-107111284D01*
X81301209Y-107142931D01*
X81286322Y-107168716D01*
X81240423Y-107248215D01*
X81199499Y-107400943D01*
X81199499Y-107400945D01*
X81199499Y-107569046D01*
X81199500Y-107569059D01*
X81199500Y-123379015D01*
X81199499Y-123379033D01*
X81199499Y-123544739D01*
X81199498Y-123544739D01*
X81240423Y-123697470D01*
X81269358Y-123747585D01*
X81269359Y-123747589D01*
X81269360Y-123747589D01*
X81315646Y-123827761D01*
X81319479Y-123834399D01*
X81319481Y-123834402D01*
X81438349Y-123953270D01*
X81438355Y-123953275D01*
X82549454Y-125064374D01*
X82549464Y-125064385D01*
X82553794Y-125068715D01*
X82553795Y-125068716D01*
X82665599Y-125180520D01*
X82665601Y-125180521D01*
X82665605Y-125180524D01*
X82724781Y-125214689D01*
X82724784Y-125214690D01*
X82737741Y-125222171D01*
X82802520Y-125259572D01*
X82802524Y-125259573D01*
X82802530Y-125259577D01*
X82802535Y-125259578D01*
X82805813Y-125260936D01*
X82808165Y-125262831D01*
X82809569Y-125263642D01*
X82809442Y-125263860D01*
X82860218Y-125304775D01*
X82882287Y-125371068D01*
X82865011Y-125438768D01*
X82813876Y-125486381D01*
X82758366Y-125499500D01*
X81024500Y-125499500D01*
X80957461Y-125479815D01*
X80911706Y-125427011D01*
X80900500Y-125375500D01*
X80900500Y-101500001D01*
X83694532Y-101500001D01*
X83714364Y-101726686D01*
X83714366Y-101726697D01*
X83773258Y-101946488D01*
X83773261Y-101946497D01*
X83869431Y-102152732D01*
X83869432Y-102152734D01*
X83999954Y-102339141D01*
X84160858Y-102500045D01*
X84160861Y-102500047D01*
X84347266Y-102630568D01*
X84553504Y-102726739D01*
X84773308Y-102785635D01*
X84935230Y-102799801D01*
X84999998Y-102805468D01*
X85000000Y-102805468D01*
X85000002Y-102805468D01*
X85056673Y-102800509D01*
X85226692Y-102785635D01*
X85446496Y-102726739D01*
X85652734Y-102630568D01*
X85839139Y-102500047D01*
X86000047Y-102339139D01*
X86130568Y-102152734D01*
X86226739Y-101946496D01*
X86285635Y-101726692D01*
X86287970Y-101700001D01*
X93694532Y-101700001D01*
X93714364Y-101926686D01*
X93714366Y-101926697D01*
X93773258Y-102146488D01*
X93773261Y-102146497D01*
X93869431Y-102352732D01*
X93869432Y-102352734D01*
X93999954Y-102539141D01*
X94160858Y-102700045D01*
X94160861Y-102700047D01*
X94347266Y-102830568D01*
X94553504Y-102926739D01*
X94773308Y-102985635D01*
X94935230Y-102999801D01*
X94999998Y-103005468D01*
X95000000Y-103005468D01*
X95000002Y-103005468D01*
X95056673Y-103000509D01*
X95226692Y-102985635D01*
X95446496Y-102926739D01*
X95652734Y-102830568D01*
X95839139Y-102700047D01*
X96000047Y-102539139D01*
X96130568Y-102352734D01*
X96226739Y-102146496D01*
X96270500Y-101983173D01*
X96306865Y-101923515D01*
X96369711Y-101892985D01*
X96439087Y-101901279D01*
X96492965Y-101945764D01*
X96513746Y-102003824D01*
X96515378Y-102021440D01*
X96576240Y-102235350D01*
X96675368Y-102434425D01*
X96809391Y-102611900D01*
X96973738Y-102761721D01*
X97162820Y-102878797D01*
X97162822Y-102878798D01*
X97370195Y-102959135D01*
X97450000Y-102974052D01*
X97450000Y-102044975D01*
X97485095Y-102080070D01*
X97564905Y-102126148D01*
X97653922Y-102150000D01*
X97746078Y-102150000D01*
X97835095Y-102126148D01*
X97914905Y-102080070D01*
X97980070Y-102014905D01*
X98026148Y-101935095D01*
X98050000Y-101846078D01*
X98050000Y-101753922D01*
X98026148Y-101664905D01*
X97980070Y-101585095D01*
X97914905Y-101519930D01*
X97835095Y-101473852D01*
X97746078Y-101450000D01*
X97653922Y-101450000D01*
X97564905Y-101473852D01*
X97485095Y-101519930D01*
X97450000Y-101555025D01*
X97450000Y-100625946D01*
X97950000Y-100625946D01*
X97950000Y-101550000D01*
X98876495Y-101550000D01*
X98823760Y-101364650D01*
X98724631Y-101165574D01*
X98590608Y-100988099D01*
X98426261Y-100838278D01*
X98237179Y-100721202D01*
X98237177Y-100721201D01*
X98029799Y-100640864D01*
X97950000Y-100625946D01*
X97450000Y-100625946D01*
X97370200Y-100640864D01*
X97162822Y-100721201D01*
X97162820Y-100721202D01*
X96973738Y-100838278D01*
X96809391Y-100988099D01*
X96675368Y-101165574D01*
X96576239Y-101364651D01*
X96576236Y-101364657D01*
X96530854Y-101524162D01*
X96493575Y-101583256D01*
X96430265Y-101612813D01*
X96361026Y-101603451D01*
X96307839Y-101558141D01*
X96288060Y-101501035D01*
X96285635Y-101473308D01*
X96232047Y-101273313D01*
X96226741Y-101253511D01*
X96226738Y-101253502D01*
X96130568Y-101047266D01*
X96000047Y-100860861D01*
X96000045Y-100860858D01*
X95839141Y-100699954D01*
X95652734Y-100569432D01*
X95652732Y-100569431D01*
X95446497Y-100473261D01*
X95446488Y-100473258D01*
X95226697Y-100414366D01*
X95226693Y-100414365D01*
X95226692Y-100414365D01*
X95226691Y-100414364D01*
X95226686Y-100414364D01*
X95000002Y-100394532D01*
X94999998Y-100394532D01*
X94773313Y-100414364D01*
X94773302Y-100414366D01*
X94553511Y-100473258D01*
X94553502Y-100473261D01*
X94347267Y-100569431D01*
X94347265Y-100569432D01*
X94160858Y-100699954D01*
X93999954Y-100860858D01*
X93869432Y-101047265D01*
X93869431Y-101047267D01*
X93773261Y-101253502D01*
X93773258Y-101253511D01*
X93714366Y-101473302D01*
X93714364Y-101473313D01*
X93694532Y-101699998D01*
X93694532Y-101700001D01*
X86287970Y-101700001D01*
X86305468Y-101500000D01*
X86285635Y-101273308D01*
X86226739Y-101053504D01*
X86130568Y-100847266D01*
X86000047Y-100660861D01*
X86000045Y-100660858D01*
X85839141Y-100499954D01*
X85652734Y-100369432D01*
X85652732Y-100369431D01*
X85446497Y-100273261D01*
X85446488Y-100273258D01*
X85226697Y-100214366D01*
X85226693Y-100214365D01*
X85226692Y-100214365D01*
X85226691Y-100214364D01*
X85226686Y-100214364D01*
X85000002Y-100194532D01*
X84999998Y-100194532D01*
X84773313Y-100214364D01*
X84773302Y-100214366D01*
X84553511Y-100273258D01*
X84553502Y-100273261D01*
X84347267Y-100369431D01*
X84347265Y-100369432D01*
X84160858Y-100499954D01*
X83999954Y-100660858D01*
X83869432Y-100847265D01*
X83869431Y-100847267D01*
X83773261Y-101053502D01*
X83773258Y-101053511D01*
X83714366Y-101273302D01*
X83714364Y-101273313D01*
X83694532Y-101499998D01*
X83694532Y-101500001D01*
X80900500Y-101500001D01*
X80900500Y-96500002D01*
X83695034Y-96500002D01*
X83714858Y-96726599D01*
X83714860Y-96726610D01*
X83773730Y-96946317D01*
X83773735Y-96946331D01*
X83869863Y-97152478D01*
X83920974Y-97225472D01*
X84600000Y-96546446D01*
X84600000Y-96552661D01*
X84627259Y-96654394D01*
X84679920Y-96745606D01*
X84754394Y-96820080D01*
X84845606Y-96872741D01*
X84947339Y-96900000D01*
X84953553Y-96900000D01*
X84274526Y-97579025D01*
X84347513Y-97630132D01*
X84347521Y-97630136D01*
X84553668Y-97726264D01*
X84553682Y-97726269D01*
X84773389Y-97785139D01*
X84773400Y-97785141D01*
X84999998Y-97804966D01*
X85000002Y-97804966D01*
X85226599Y-97785141D01*
X85226610Y-97785139D01*
X85446317Y-97726269D01*
X85446331Y-97726264D01*
X85652478Y-97630136D01*
X85725471Y-97579024D01*
X85046447Y-96900000D01*
X85052661Y-96900000D01*
X85154394Y-96872741D01*
X85245606Y-96820080D01*
X85320080Y-96745606D01*
X85372741Y-96654394D01*
X85400000Y-96552661D01*
X85400000Y-96546447D01*
X86079024Y-97225471D01*
X86130136Y-97152478D01*
X86226264Y-96946331D01*
X86226269Y-96946317D01*
X86285139Y-96726610D01*
X86285141Y-96726599D01*
X86304966Y-96500002D01*
X86304966Y-96499997D01*
X86285141Y-96273400D01*
X86285139Y-96273389D01*
X86226269Y-96053682D01*
X86226264Y-96053668D01*
X86130136Y-95847521D01*
X86130132Y-95847513D01*
X86079025Y-95774526D01*
X85400000Y-96453551D01*
X85400000Y-96447339D01*
X85372741Y-96345606D01*
X85320080Y-96254394D01*
X85245606Y-96179920D01*
X85154394Y-96127259D01*
X85052661Y-96100000D01*
X85046448Y-96100000D01*
X85725472Y-95420974D01*
X85652478Y-95369863D01*
X85446331Y-95273735D01*
X85446317Y-95273730D01*
X85226610Y-95214860D01*
X85226599Y-95214858D01*
X85000002Y-95195034D01*
X84999998Y-95195034D01*
X84773400Y-95214858D01*
X84773389Y-95214860D01*
X84553682Y-95273730D01*
X84553673Y-95273734D01*
X84347516Y-95369866D01*
X84347512Y-95369868D01*
X84274526Y-95420973D01*
X84274526Y-95420974D01*
X84953553Y-96100000D01*
X84947339Y-96100000D01*
X84845606Y-96127259D01*
X84754394Y-96179920D01*
X84679920Y-96254394D01*
X84627259Y-96345606D01*
X84600000Y-96447339D01*
X84600000Y-96453552D01*
X83920974Y-95774526D01*
X83920973Y-95774526D01*
X83869868Y-95847512D01*
X83869866Y-95847516D01*
X83773734Y-96053673D01*
X83773730Y-96053682D01*
X83714860Y-96273389D01*
X83714858Y-96273400D01*
X83695034Y-96499997D01*
X83695034Y-96500002D01*
X80900500Y-96500002D01*
X80900500Y-88750005D01*
X84349556Y-88750005D01*
X84369310Y-89064004D01*
X84369311Y-89064011D01*
X84369312Y-89064015D01*
X84407937Y-89266497D01*
X84428270Y-89373083D01*
X84525497Y-89672316D01*
X84525499Y-89672321D01*
X84659461Y-89957003D01*
X84659464Y-89957009D01*
X84828051Y-90222661D01*
X84828054Y-90222665D01*
X85028606Y-90465090D01*
X85028608Y-90465092D01*
X85028610Y-90465094D01*
X85257970Y-90680478D01*
X85257975Y-90680481D01*
X85257978Y-90680484D01*
X85512504Y-90865408D01*
X85512506Y-90865409D01*
X85512516Y-90865416D01*
X85788234Y-91016994D01*
X85788237Y-91016995D01*
X85788241Y-91016997D01*
X85788242Y-91016998D01*
X86080771Y-91132818D01*
X86080774Y-91132819D01*
X86269919Y-91181383D01*
X86385527Y-91211066D01*
X86451010Y-91219338D01*
X86697670Y-91250499D01*
X86697679Y-91250499D01*
X86697682Y-91250500D01*
X86697684Y-91250500D01*
X87012316Y-91250500D01*
X87012318Y-91250500D01*
X87012321Y-91250499D01*
X87012329Y-91250499D01*
X87198593Y-91226968D01*
X87324473Y-91211066D01*
X87629225Y-91132819D01*
X87629228Y-91132818D01*
X87921757Y-91016998D01*
X87921758Y-91016997D01*
X87921756Y-91016997D01*
X87921766Y-91016994D01*
X88197484Y-90865416D01*
X88452030Y-90680478D01*
X88681390Y-90465094D01*
X88881947Y-90222663D01*
X89050537Y-89957007D01*
X89184503Y-89672315D01*
X89281731Y-89373079D01*
X89340688Y-89064015D01*
X89341778Y-89046692D01*
X89360444Y-88750005D01*
X89360444Y-88749994D01*
X89340689Y-88435995D01*
X89340688Y-88435988D01*
X89340688Y-88435986D01*
X89340688Y-88435985D01*
X89281731Y-88126921D01*
X89184503Y-87827685D01*
X89050537Y-87542993D01*
X88887760Y-87286497D01*
X88881948Y-87277338D01*
X88881945Y-87277334D01*
X88681393Y-87034909D01*
X88681391Y-87034907D01*
X88452031Y-86819523D01*
X88452021Y-86819515D01*
X88197495Y-86634591D01*
X88197485Y-86634585D01*
X88197484Y-86634584D01*
X87921766Y-86483006D01*
X87921763Y-86483004D01*
X87921758Y-86483002D01*
X87921757Y-86483001D01*
X87629228Y-86367181D01*
X87629225Y-86367180D01*
X87324476Y-86288934D01*
X87324463Y-86288932D01*
X87012329Y-86249500D01*
X87012318Y-86249500D01*
X86697682Y-86249500D01*
X86697670Y-86249500D01*
X86385536Y-86288932D01*
X86385523Y-86288934D01*
X86080774Y-86367180D01*
X86080771Y-86367181D01*
X85788242Y-86483001D01*
X85788241Y-86483002D01*
X85512516Y-86634584D01*
X85512504Y-86634591D01*
X85257978Y-86819515D01*
X85257968Y-86819523D01*
X85028608Y-87034907D01*
X85028606Y-87034909D01*
X84828054Y-87277334D01*
X84828051Y-87277338D01*
X84659464Y-87542990D01*
X84659461Y-87542996D01*
X84525499Y-87827678D01*
X84525497Y-87827683D01*
X84428270Y-88126916D01*
X84369311Y-88435988D01*
X84369310Y-88435995D01*
X84349556Y-88749994D01*
X84349556Y-88750005D01*
X80900500Y-88750005D01*
X80900500Y-83924500D01*
X80920185Y-83857461D01*
X80972989Y-83811706D01*
X81024500Y-83800500D01*
X135075500Y-83800500D01*
X135142539Y-83820185D01*
G37*
%TD.AperFunction*%
%TA.AperFunction,Conductor*%
G36*
X123168834Y-118703220D02*
G01*
X123224767Y-118745092D01*
X123249184Y-118810556D01*
X123249500Y-118819402D01*
X123249500Y-120303330D01*
X123249499Y-120303348D01*
X123249499Y-120469054D01*
X123249498Y-120469054D01*
X123290424Y-120621789D01*
X123290425Y-120621790D01*
X123302743Y-120643124D01*
X123307001Y-120650499D01*
X123363208Y-120747853D01*
X123369481Y-120758717D01*
X123488349Y-120877585D01*
X123488355Y-120877590D01*
X124313181Y-121702416D01*
X124346666Y-121763739D01*
X124349500Y-121790097D01*
X124349500Y-122937870D01*
X124349501Y-122937876D01*
X124355908Y-122997483D01*
X124406202Y-123132328D01*
X124406206Y-123132335D01*
X124490130Y-123244442D01*
X124514548Y-123309906D01*
X124499697Y-123378179D01*
X124450292Y-123427585D01*
X124382019Y-123442437D01*
X124346072Y-123434380D01*
X124309946Y-123420385D01*
X124309944Y-123420384D01*
X124309940Y-123420383D01*
X124091243Y-123379501D01*
X123868757Y-123379501D01*
X123650060Y-123420383D01*
X123575825Y-123449142D01*
X123442601Y-123500753D01*
X123442595Y-123500755D01*
X123253439Y-123617875D01*
X123253437Y-123617877D01*
X123089020Y-123767762D01*
X122966333Y-123930228D01*
X122910224Y-123971864D01*
X122867379Y-123979501D01*
X122712621Y-123979501D01*
X122645582Y-123959816D01*
X122613667Y-123930228D01*
X122490979Y-123767762D01*
X122326562Y-123617877D01*
X122326560Y-123617875D01*
X122137404Y-123500755D01*
X122137398Y-123500753D01*
X122125834Y-123496273D01*
X121929940Y-123420383D01*
X121711243Y-123379501D01*
X121488757Y-123379501D01*
X121270060Y-123420383D01*
X121195825Y-123449142D01*
X121062601Y-123500753D01*
X121062595Y-123500755D01*
X120873439Y-123617875D01*
X120873437Y-123617877D01*
X120709020Y-123767762D01*
X120586333Y-123930228D01*
X120530224Y-123971864D01*
X120487379Y-123979501D01*
X119962621Y-123979501D01*
X119895582Y-123959816D01*
X119863667Y-123930228D01*
X119740979Y-123767762D01*
X119576562Y-123617877D01*
X119576560Y-123617875D01*
X119387404Y-123500755D01*
X119387398Y-123500753D01*
X119375834Y-123496273D01*
X119179940Y-123420383D01*
X118961243Y-123379501D01*
X118738757Y-123379501D01*
X118520060Y-123420383D01*
X118445825Y-123449142D01*
X118312601Y-123500753D01*
X118312595Y-123500755D01*
X118123439Y-123617875D01*
X118123437Y-123617877D01*
X117959020Y-123767762D01*
X117824943Y-123945309D01*
X117824938Y-123945317D01*
X117725775Y-124144462D01*
X117725769Y-124144477D01*
X117664885Y-124358463D01*
X117664884Y-124358465D01*
X117644357Y-124580000D01*
X117644357Y-124580001D01*
X117664884Y-124801536D01*
X117664885Y-124801538D01*
X117725769Y-125015524D01*
X117725775Y-125015539D01*
X117824938Y-125214684D01*
X117824941Y-125214688D01*
X117824942Y-125214690D01*
X117889743Y-125300501D01*
X117889949Y-125300773D01*
X117914641Y-125366134D01*
X117900076Y-125434469D01*
X117850879Y-125484082D01*
X117790995Y-125499500D01*
X111475949Y-125499500D01*
X111408910Y-125479815D01*
X111363155Y-125427011D01*
X111353211Y-125357853D01*
X111382236Y-125294297D01*
X111424746Y-125263644D01*
X111424745Y-125263642D01*
X111424766Y-125263629D01*
X111428502Y-125260936D01*
X111431771Y-125259580D01*
X111431785Y-125259577D01*
X111509531Y-125214690D01*
X111509542Y-125214684D01*
X111568709Y-125180524D01*
X111568708Y-125180524D01*
X111568716Y-125180520D01*
X111680520Y-125068716D01*
X111680520Y-125068714D01*
X111690724Y-125058511D01*
X111690728Y-125058506D01*
X113509374Y-123239859D01*
X113570695Y-123206376D01*
X113640387Y-123211360D01*
X113656474Y-123218707D01*
X113666839Y-123224367D01*
X113934954Y-123324369D01*
X113934960Y-123324370D01*
X113934962Y-123324371D01*
X114214566Y-123385195D01*
X114214568Y-123385195D01*
X114214572Y-123385196D01*
X114468220Y-123403337D01*
X114499999Y-123405610D01*
X114500000Y-123405610D01*
X114500001Y-123405610D01*
X114528595Y-123403564D01*
X114785428Y-123385196D01*
X114975742Y-123343796D01*
X115065037Y-123324371D01*
X115065037Y-123324370D01*
X115065046Y-123324369D01*
X115333161Y-123224367D01*
X115584315Y-123087226D01*
X115813395Y-122915739D01*
X116015739Y-122713395D01*
X116187226Y-122484315D01*
X116324367Y-122233161D01*
X116381058Y-122081165D01*
X116422930Y-122025233D01*
X116488394Y-122000816D01*
X116497240Y-122000500D01*
X119433637Y-122000500D01*
X119433653Y-122000501D01*
X119441249Y-122000501D01*
X119599360Y-122000501D01*
X119599363Y-122000501D01*
X119752091Y-121959577D01*
X119802210Y-121930639D01*
X119889022Y-121880520D01*
X120000826Y-121768716D01*
X120000826Y-121768714D01*
X120011034Y-121758507D01*
X120011036Y-121758504D01*
X123037819Y-118731721D01*
X123099142Y-118698236D01*
X123168834Y-118703220D01*
G37*
%TD.AperFunction*%
%TA.AperFunction,Conductor*%
G36*
X129404816Y-118950186D02*
G01*
X129450571Y-119002990D01*
X129460515Y-119072148D01*
X129450159Y-119106906D01*
X129420426Y-119170668D01*
X129420422Y-119170677D01*
X129363793Y-119382020D01*
X129363793Y-119382024D01*
X129344723Y-119599997D01*
X129344723Y-119600002D01*
X129363785Y-119817894D01*
X129363793Y-119817977D01*
X129364304Y-119819883D01*
X129380976Y-119882108D01*
X129379313Y-119951958D01*
X129348882Y-120001881D01*
X128731286Y-120619478D01*
X128619481Y-120731282D01*
X128619479Y-120731284D01*
X128594253Y-120774979D01*
X128580096Y-120799500D01*
X128540423Y-120868215D01*
X128499499Y-121020943D01*
X128499499Y-121020945D01*
X128499499Y-121189046D01*
X128499500Y-121189059D01*
X128499500Y-122993331D01*
X128499499Y-122993349D01*
X128499499Y-123159055D01*
X128499498Y-123159055D01*
X128515483Y-123218710D01*
X128540423Y-123311786D01*
X128547686Y-123324366D01*
X128547687Y-123324369D01*
X128547688Y-123324369D01*
X128619477Y-123448713D01*
X128619481Y-123448718D01*
X128738349Y-123567586D01*
X128738355Y-123567591D01*
X130115139Y-124944375D01*
X130115149Y-124944386D01*
X130119479Y-124948716D01*
X130119480Y-124948717D01*
X130231284Y-125060521D01*
X130231286Y-125060522D01*
X130231290Y-125060525D01*
X130303845Y-125102414D01*
X130368216Y-125139578D01*
X130480019Y-125169535D01*
X130501405Y-125175265D01*
X130515104Y-125178937D01*
X130574763Y-125215304D01*
X130581959Y-125223983D01*
X130620248Y-125274685D01*
X130639743Y-125300501D01*
X130639949Y-125300773D01*
X130664641Y-125366134D01*
X130650076Y-125434468D01*
X130600879Y-125484081D01*
X130540995Y-125499500D01*
X125039005Y-125499500D01*
X124971966Y-125479815D01*
X124926211Y-125427011D01*
X124916267Y-125357853D01*
X124940051Y-125300773D01*
X124940257Y-125300501D01*
X125005058Y-125214690D01*
X125104229Y-125015529D01*
X125165115Y-124801537D01*
X125185643Y-124580001D01*
X125165115Y-124358465D01*
X125104229Y-124144473D01*
X125072033Y-124079815D01*
X125005061Y-123945317D01*
X125005056Y-123945309D01*
X124870979Y-123767762D01*
X124706563Y-123617877D01*
X124705601Y-123617282D01*
X124705237Y-123616876D01*
X124701986Y-123614421D01*
X124702466Y-123613784D01*
X124658965Y-123565255D01*
X124647860Y-123496273D01*
X124675812Y-123432238D01*
X124733947Y-123393481D01*
X124784132Y-123388565D01*
X124802127Y-123390500D01*
X126397872Y-123390499D01*
X126457483Y-123384091D01*
X126592331Y-123333796D01*
X126707546Y-123247546D01*
X126793796Y-123132331D01*
X126844091Y-122997483D01*
X126850500Y-122937873D01*
X126850499Y-121342128D01*
X126844091Y-121282517D01*
X126835213Y-121258715D01*
X126793797Y-121147671D01*
X126793793Y-121147664D01*
X126707547Y-121032455D01*
X126707544Y-121032452D01*
X126592335Y-120946206D01*
X126592328Y-120946202D01*
X126457482Y-120895908D01*
X126457483Y-120895908D01*
X126397883Y-120889501D01*
X126397881Y-120889500D01*
X126397873Y-120889500D01*
X126397865Y-120889500D01*
X126330989Y-120889500D01*
X126263950Y-120869815D01*
X126218195Y-120817011D01*
X126208251Y-120747853D01*
X126237276Y-120684297D01*
X126259864Y-120663926D01*
X126289571Y-120643124D01*
X125646447Y-120000000D01*
X125652661Y-120000000D01*
X125754394Y-119972741D01*
X125845606Y-119920080D01*
X125920080Y-119845606D01*
X125972741Y-119754394D01*
X126000000Y-119652661D01*
X126000000Y-119646446D01*
X126643124Y-120289570D01*
X126686668Y-120227385D01*
X126686669Y-120227383D01*
X126779100Y-120029164D01*
X126779105Y-120029150D01*
X126835710Y-119817894D01*
X126835712Y-119817884D01*
X126854775Y-119600000D01*
X126854775Y-119599999D01*
X126835712Y-119382115D01*
X126835710Y-119382105D01*
X126779105Y-119170849D01*
X126779101Y-119170840D01*
X126749289Y-119106906D01*
X126738797Y-119037828D01*
X126767317Y-118974044D01*
X126825793Y-118935805D01*
X126861671Y-118930501D01*
X129337777Y-118930501D01*
X129404816Y-118950186D01*
G37*
%TD.AperFunction*%
%TA.AperFunction,Conductor*%
G36*
X135126061Y-117369190D02*
G01*
X135179248Y-117414499D01*
X135199496Y-117481371D01*
X135199500Y-117482414D01*
X135199500Y-124177585D01*
X135179815Y-124244624D01*
X135127011Y-124290379D01*
X135057853Y-124300323D01*
X134994297Y-124271298D01*
X134956523Y-124212520D01*
X134956234Y-124211520D01*
X134954229Y-124204472D01*
X134924353Y-124144473D01*
X134855061Y-124005316D01*
X134855056Y-124005308D01*
X134720979Y-123827761D01*
X134556562Y-123677876D01*
X134556560Y-123677874D01*
X134367404Y-123560754D01*
X134367398Y-123560752D01*
X134159940Y-123480382D01*
X133941243Y-123439500D01*
X133718757Y-123439500D01*
X133667176Y-123449142D01*
X133580783Y-123465291D01*
X133511268Y-123458259D01*
X133470318Y-123431083D01*
X131901915Y-121862680D01*
X131868430Y-121801357D01*
X131873414Y-121731665D01*
X131901913Y-121687320D01*
X132208506Y-121380728D01*
X132208511Y-121380724D01*
X132218714Y-121370520D01*
X132218716Y-121370520D01*
X132330520Y-121258716D01*
X132386483Y-121161784D01*
X132409577Y-121121785D01*
X132450501Y-120969057D01*
X132450501Y-120810943D01*
X132450501Y-120803348D01*
X132450500Y-120803330D01*
X132450500Y-119000943D01*
X132450499Y-119000942D01*
X132450112Y-118999495D01*
X132450111Y-118999493D01*
X132436899Y-118950186D01*
X132409577Y-118848216D01*
X132370492Y-118780519D01*
X132330520Y-118711285D01*
X132218716Y-118599481D01*
X132218715Y-118599480D01*
X132214385Y-118595150D01*
X132214374Y-118595140D01*
X131604083Y-117984849D01*
X131570598Y-117923526D01*
X131575582Y-117853834D01*
X131590185Y-117826051D01*
X131687102Y-117687640D01*
X131687105Y-117687632D01*
X131689810Y-117682950D01*
X131691967Y-117684195D01*
X131731241Y-117639628D01*
X131797407Y-117620500D01*
X132717379Y-117620500D01*
X132784418Y-117640185D01*
X132816332Y-117669772D01*
X132838782Y-117699500D01*
X132939020Y-117832238D01*
X133103437Y-117982123D01*
X133103439Y-117982125D01*
X133292595Y-118099245D01*
X133292596Y-118099245D01*
X133292599Y-118099247D01*
X133500060Y-118179618D01*
X133718757Y-118220500D01*
X133718759Y-118220500D01*
X133941241Y-118220500D01*
X133941243Y-118220500D01*
X134159940Y-118179618D01*
X134367401Y-118099247D01*
X134556562Y-117982124D01*
X134720981Y-117832236D01*
X134855058Y-117654689D01*
X134954229Y-117455528D01*
X134956234Y-117448479D01*
X134993512Y-117389388D01*
X135056821Y-117359829D01*
X135126061Y-117369190D01*
G37*
%TD.AperFunction*%
%TA.AperFunction,Conductor*%
G36*
X86180133Y-112564383D02*
G01*
X86199471Y-112589695D01*
X86219477Y-112624347D01*
X86219481Y-112624352D01*
X86338349Y-112743220D01*
X86338355Y-112743225D01*
X88159504Y-114564374D01*
X88159514Y-114564385D01*
X88163844Y-114568715D01*
X88163845Y-114568716D01*
X88275649Y-114680520D01*
X88275651Y-114680521D01*
X88275655Y-114680524D01*
X88379538Y-114740500D01*
X88412581Y-114759577D01*
X88524384Y-114789534D01*
X88565307Y-114800500D01*
X88565308Y-114800500D01*
X91477379Y-114800500D01*
X91544418Y-114820185D01*
X91576333Y-114849773D01*
X91699020Y-115012238D01*
X91863437Y-115162123D01*
X91863439Y-115162125D01*
X92052595Y-115279245D01*
X92052596Y-115279245D01*
X92052599Y-115279247D01*
X92260060Y-115359618D01*
X92478757Y-115400500D01*
X92478759Y-115400500D01*
X92701241Y-115400500D01*
X92701243Y-115400500D01*
X92919940Y-115359618D01*
X93127401Y-115279247D01*
X93316562Y-115162124D01*
X93480981Y-115012236D01*
X93591046Y-114866485D01*
X93647155Y-114824850D01*
X93716867Y-114820159D01*
X93778049Y-114853901D01*
X93788954Y-114866486D01*
X93899020Y-115012238D01*
X94063437Y-115162123D01*
X94063439Y-115162125D01*
X94252595Y-115279245D01*
X94252596Y-115279245D01*
X94252599Y-115279247D01*
X94449171Y-115355399D01*
X94504570Y-115397971D01*
X94528161Y-115463738D01*
X94512450Y-115531818D01*
X94492056Y-115558706D01*
X90490626Y-119560137D01*
X90429303Y-119593622D01*
X90359611Y-119588638D01*
X90343517Y-119581288D01*
X90333163Y-119575634D01*
X90333162Y-119575633D01*
X90333161Y-119575633D01*
X90065046Y-119475631D01*
X90065043Y-119475630D01*
X90065037Y-119475628D01*
X89785433Y-119414804D01*
X89500001Y-119394390D01*
X89499999Y-119394390D01*
X89214566Y-119414804D01*
X88934962Y-119475628D01*
X88666833Y-119575635D01*
X88415690Y-119712770D01*
X88415682Y-119712775D01*
X88186612Y-119884254D01*
X88186594Y-119884270D01*
X87984270Y-120086594D01*
X87984254Y-120086612D01*
X87812775Y-120315682D01*
X87812770Y-120315690D01*
X87675635Y-120566833D01*
X87575628Y-120834962D01*
X87514804Y-121114566D01*
X87494390Y-121399998D01*
X87494390Y-121400001D01*
X87514804Y-121685433D01*
X87575628Y-121965037D01*
X87575630Y-121965043D01*
X87575631Y-121965046D01*
X87618942Y-122081166D01*
X87675635Y-122233166D01*
X87812770Y-122484309D01*
X87812775Y-122484317D01*
X87984254Y-122713387D01*
X87984270Y-122713405D01*
X88186594Y-122915729D01*
X88186612Y-122915745D01*
X88415682Y-123087224D01*
X88415690Y-123087229D01*
X88666833Y-123224364D01*
X88666832Y-123224364D01*
X88666836Y-123224365D01*
X88666839Y-123224367D01*
X88934954Y-123324369D01*
X88934960Y-123324370D01*
X88934962Y-123324371D01*
X89072698Y-123354334D01*
X89134021Y-123387819D01*
X89167506Y-123449142D01*
X89162522Y-123518834D01*
X89120650Y-123574767D01*
X89055186Y-123599184D01*
X89046340Y-123599500D01*
X86244048Y-123599500D01*
X86177009Y-123579815D01*
X86131254Y-123527011D01*
X86121310Y-123457853D01*
X86150335Y-123394297D01*
X86200715Y-123359318D01*
X86242328Y-123343797D01*
X86242327Y-123343797D01*
X86242331Y-123343796D01*
X86357546Y-123257546D01*
X86443796Y-123142331D01*
X86494091Y-123007483D01*
X86500500Y-122947873D01*
X86500499Y-119852128D01*
X86494091Y-119792517D01*
X86464506Y-119713196D01*
X86443797Y-119657671D01*
X86443793Y-119657664D01*
X86357547Y-119542455D01*
X86357544Y-119542452D01*
X86242335Y-119456206D01*
X86242328Y-119456202D01*
X86107482Y-119405908D01*
X86107483Y-119405908D01*
X86047883Y-119399501D01*
X86047881Y-119399500D01*
X86047873Y-119399500D01*
X86047865Y-119399500D01*
X85694500Y-119399500D01*
X85627461Y-119379815D01*
X85581706Y-119327011D01*
X85570500Y-119275500D01*
X85570500Y-115309244D01*
X85590185Y-115242205D01*
X85629220Y-115203819D01*
X85696562Y-115162124D01*
X85860981Y-115012236D01*
X85995058Y-114834689D01*
X86094229Y-114635528D01*
X86155115Y-114421536D01*
X86175643Y-114200000D01*
X86155115Y-113978464D01*
X86094229Y-113764472D01*
X86071826Y-113719480D01*
X85995061Y-113565316D01*
X85995056Y-113565308D01*
X85860979Y-113387761D01*
X85696563Y-113237877D01*
X85696562Y-113237876D01*
X85605607Y-113181559D01*
X85578401Y-113164714D01*
X85531766Y-113112686D01*
X85520662Y-113043704D01*
X85548615Y-112979670D01*
X85578400Y-112953861D01*
X85726562Y-112862124D01*
X85890981Y-112712236D01*
X85968416Y-112609695D01*
X85993130Y-112576969D01*
X86049239Y-112535332D01*
X86118950Y-112530640D01*
X86180133Y-112564383D01*
G37*
%TD.AperFunction*%
%TA.AperFunction,Conductor*%
G36*
X101617942Y-118220185D02*
G01*
X101663697Y-118272989D01*
X101673641Y-118342147D01*
X101644616Y-118405703D01*
X101638584Y-118412181D01*
X100490626Y-119560137D01*
X100429303Y-119593622D01*
X100359611Y-119588638D01*
X100343517Y-119581288D01*
X100333163Y-119575634D01*
X100333162Y-119575633D01*
X100333161Y-119575633D01*
X100065046Y-119475631D01*
X100065043Y-119475630D01*
X100065037Y-119475628D01*
X99785433Y-119414804D01*
X99500001Y-119394390D01*
X99499999Y-119394390D01*
X99214566Y-119414804D01*
X98934962Y-119475628D01*
X98666833Y-119575635D01*
X98415690Y-119712770D01*
X98415682Y-119712775D01*
X98186612Y-119884254D01*
X98186594Y-119884270D01*
X97984270Y-120086594D01*
X97984254Y-120086612D01*
X97812775Y-120315682D01*
X97812770Y-120315690D01*
X97675635Y-120566833D01*
X97575628Y-120834962D01*
X97514804Y-121114566D01*
X97494390Y-121399998D01*
X97494390Y-121400001D01*
X97514804Y-121685433D01*
X97575628Y-121965037D01*
X97575630Y-121965043D01*
X97575631Y-121965046D01*
X97618942Y-122081166D01*
X97675635Y-122233166D01*
X97812770Y-122484309D01*
X97812775Y-122484317D01*
X97984254Y-122713387D01*
X97984270Y-122713405D01*
X98186594Y-122915729D01*
X98186612Y-122915745D01*
X98415682Y-123087224D01*
X98415690Y-123087229D01*
X98666833Y-123224364D01*
X98666832Y-123224364D01*
X98666836Y-123224365D01*
X98666839Y-123224367D01*
X98934954Y-123324369D01*
X98934960Y-123324370D01*
X98934962Y-123324371D01*
X99072698Y-123354334D01*
X99134021Y-123387819D01*
X99167506Y-123449142D01*
X99162522Y-123518834D01*
X99120650Y-123574767D01*
X99055186Y-123599184D01*
X99046340Y-123599500D01*
X94953660Y-123599500D01*
X94886621Y-123579815D01*
X94840866Y-123527011D01*
X94830922Y-123457853D01*
X94859947Y-123394297D01*
X94918725Y-123356523D01*
X94927302Y-123354334D01*
X95065037Y-123324371D01*
X95065037Y-123324370D01*
X95065046Y-123324369D01*
X95333161Y-123224367D01*
X95584315Y-123087226D01*
X95813395Y-122915739D01*
X96015739Y-122713395D01*
X96187226Y-122484315D01*
X96324367Y-122233161D01*
X96424369Y-121965046D01*
X96437456Y-121904888D01*
X96485195Y-121685433D01*
X96485195Y-121685432D01*
X96485196Y-121685428D01*
X96505610Y-121400000D01*
X96485196Y-121114572D01*
X96467332Y-121032454D01*
X96424371Y-120834962D01*
X96424370Y-120834960D01*
X96424369Y-120834954D01*
X96324367Y-120566839D01*
X96318709Y-120556478D01*
X96303858Y-120488208D01*
X96328275Y-120422743D01*
X96339854Y-120409379D01*
X98512417Y-118236819D01*
X98573740Y-118203334D01*
X98600098Y-118200500D01*
X101550903Y-118200500D01*
X101617942Y-118220185D01*
G37*
%TD.AperFunction*%
%TA.AperFunction,Conductor*%
G36*
X124655703Y-117884625D02*
G01*
X124662181Y-117890657D01*
X124793123Y-118021599D01*
X124972361Y-118147103D01*
X125124175Y-118217895D01*
X125176613Y-118264066D01*
X125195765Y-118331260D01*
X125175549Y-118398141D01*
X125124174Y-118442658D01*
X124972613Y-118513333D01*
X124910427Y-118556874D01*
X125553553Y-119200000D01*
X125547339Y-119200000D01*
X125445606Y-119227259D01*
X125354394Y-119279920D01*
X125279920Y-119354394D01*
X125227259Y-119445606D01*
X125200000Y-119547339D01*
X125200000Y-119553553D01*
X124546608Y-118900162D01*
X124516808Y-118894174D01*
X124466625Y-118845559D01*
X124450500Y-118784412D01*
X124450500Y-117978338D01*
X124470185Y-117911299D01*
X124522989Y-117865544D01*
X124592147Y-117855600D01*
X124655703Y-117884625D01*
G37*
%TD.AperFunction*%
%TA.AperFunction,Conductor*%
G36*
X83690347Y-114161399D02*
G01*
X83746281Y-114203271D01*
X83770485Y-114266139D01*
X83784885Y-114421536D01*
X83784885Y-114421537D01*
X83845769Y-114635523D01*
X83845775Y-114635538D01*
X83944938Y-114834683D01*
X83944943Y-114834691D01*
X84079020Y-115012238D01*
X84243433Y-115162120D01*
X84243435Y-115162121D01*
X84243438Y-115162124D01*
X84310778Y-115203818D01*
X84357412Y-115255843D01*
X84369500Y-115309244D01*
X84369500Y-119275500D01*
X84349815Y-119342539D01*
X84297011Y-119388294D01*
X84245500Y-119399500D01*
X82952129Y-119399500D01*
X82952120Y-119399501D01*
X82937752Y-119401046D01*
X82868993Y-119388639D01*
X82817857Y-119341027D01*
X82800500Y-119277756D01*
X82800500Y-115000096D01*
X82820185Y-114933057D01*
X82836815Y-114912419D01*
X83559335Y-114189898D01*
X83620656Y-114156415D01*
X83690347Y-114161399D01*
G37*
%TD.AperFunction*%
%TA.AperFunction,Conductor*%
G36*
X127554261Y-114390076D02*
G01*
X127591381Y-114415618D01*
X129481786Y-116306023D01*
X129515271Y-116367346D01*
X129510287Y-116437038D01*
X129506487Y-116446108D01*
X129420427Y-116630664D01*
X129420422Y-116630678D01*
X129363793Y-116842021D01*
X129363793Y-116842025D01*
X129346436Y-117040426D01*
X129344723Y-117060001D01*
X129363143Y-117270553D01*
X129363793Y-117277976D01*
X129363793Y-117277980D01*
X129420422Y-117489323D01*
X129420427Y-117489337D01*
X129450159Y-117553097D01*
X129460651Y-117622174D01*
X129432131Y-117685958D01*
X129373654Y-117724197D01*
X129337777Y-117729501D01*
X127170097Y-117729501D01*
X127103058Y-117709816D01*
X127082416Y-117693182D01*
X126851117Y-117461883D01*
X126817632Y-117400560D01*
X126819023Y-117342108D01*
X126836207Y-117277978D01*
X126855277Y-117060001D01*
X126853564Y-117040426D01*
X126851569Y-117017619D01*
X126836207Y-116842024D01*
X126779575Y-116630671D01*
X126687102Y-116432363D01*
X126687100Y-116432360D01*
X126687099Y-116432358D01*
X126561599Y-116253125D01*
X126516235Y-116207761D01*
X126406877Y-116098403D01*
X126227639Y-115972899D01*
X126227640Y-115972899D01*
X126227638Y-115972898D01*
X126128484Y-115926662D01*
X126029330Y-115880426D01*
X126029326Y-115880425D01*
X126029322Y-115880423D01*
X125817977Y-115823794D01*
X125600002Y-115804724D01*
X125599998Y-115804724D01*
X125454682Y-115817437D01*
X125382023Y-115823794D01*
X125382020Y-115823794D01*
X125170677Y-115880423D01*
X125170670Y-115880425D01*
X125170670Y-115880426D01*
X125169006Y-115881202D01*
X124972361Y-115972899D01*
X124972357Y-115972901D01*
X124793121Y-116098403D01*
X124662181Y-116229344D01*
X124600858Y-116262829D01*
X124531166Y-116257845D01*
X124475233Y-116215973D01*
X124450816Y-116150509D01*
X124450500Y-116141663D01*
X124450500Y-115249244D01*
X124470185Y-115182205D01*
X124509220Y-115143819D01*
X124576562Y-115102124D01*
X124740981Y-114952236D01*
X124863667Y-114789772D01*
X124919776Y-114748137D01*
X124962621Y-114740500D01*
X125117379Y-114740500D01*
X125184418Y-114760185D01*
X125216333Y-114789773D01*
X125339020Y-114952238D01*
X125503437Y-115102123D01*
X125503439Y-115102125D01*
X125692595Y-115219245D01*
X125692596Y-115219245D01*
X125692599Y-115219247D01*
X125900060Y-115299618D01*
X126118757Y-115340500D01*
X126118759Y-115340500D01*
X126341241Y-115340500D01*
X126341243Y-115340500D01*
X126559940Y-115299618D01*
X126767401Y-115219247D01*
X126956562Y-115102124D01*
X127120981Y-114952236D01*
X127255058Y-114774689D01*
X127354229Y-114575528D01*
X127384436Y-114469361D01*
X127421712Y-114410272D01*
X127485022Y-114380714D01*
X127554261Y-114390076D01*
G37*
%TD.AperFunction*%
%TA.AperFunction,Conductor*%
G36*
X128957051Y-112501173D02*
G01*
X128995293Y-112559648D01*
X128999375Y-112578593D01*
X128999499Y-112579055D01*
X128999499Y-112579057D01*
X129020957Y-112659139D01*
X129040423Y-112731785D01*
X129051485Y-112750944D01*
X129051486Y-112750947D01*
X129119475Y-112868709D01*
X129119481Y-112868717D01*
X129238349Y-112987585D01*
X129238355Y-112987590D01*
X130755139Y-114504374D01*
X130755149Y-114504385D01*
X130759479Y-114508715D01*
X130759480Y-114508716D01*
X130871284Y-114620520D01*
X130897297Y-114635538D01*
X130958095Y-114670639D01*
X130958097Y-114670641D01*
X131008213Y-114699576D01*
X131008215Y-114699577D01*
X131160942Y-114740500D01*
X131160943Y-114740500D01*
X132737379Y-114740500D01*
X132804418Y-114760185D01*
X132836333Y-114789773D01*
X132959020Y-114952238D01*
X133123437Y-115102123D01*
X133123439Y-115102125D01*
X133312595Y-115219245D01*
X133312596Y-115219245D01*
X133312599Y-115219247D01*
X133520060Y-115299618D01*
X133738757Y-115340500D01*
X133738759Y-115340500D01*
X133961241Y-115340500D01*
X133961243Y-115340500D01*
X134179940Y-115299618D01*
X134330708Y-115241209D01*
X134400329Y-115235348D01*
X134462070Y-115268058D01*
X134496325Y-115328954D01*
X134499500Y-115356837D01*
X134499500Y-115449902D01*
X134479815Y-115516941D01*
X134463181Y-115537583D01*
X134189680Y-115811083D01*
X134128357Y-115844568D01*
X134079215Y-115845291D01*
X134046442Y-115839164D01*
X133941243Y-115819500D01*
X133718757Y-115819500D01*
X133500060Y-115860382D01*
X133368864Y-115911207D01*
X133292601Y-115940752D01*
X133292595Y-115940754D01*
X133103439Y-116057874D01*
X133103437Y-116057876D01*
X132939020Y-116207761D01*
X132864817Y-116306023D01*
X132819055Y-116366623D01*
X132816333Y-116370227D01*
X132760224Y-116411863D01*
X132717379Y-116419500D01*
X131742645Y-116419500D01*
X131675606Y-116399815D01*
X131641070Y-116366623D01*
X131561599Y-116253125D01*
X131516235Y-116207761D01*
X131406877Y-116098403D01*
X131227639Y-115972899D01*
X131227640Y-115972899D01*
X131227638Y-115972898D01*
X131128484Y-115926662D01*
X131029330Y-115880426D01*
X131029326Y-115880425D01*
X131029322Y-115880423D01*
X130817977Y-115823794D01*
X130731487Y-115816227D01*
X130666419Y-115790774D01*
X130654614Y-115780380D01*
X127764415Y-112890180D01*
X127730930Y-112828857D01*
X127735914Y-112759165D01*
X127764413Y-112714820D01*
X127927294Y-112551939D01*
X127988615Y-112518456D01*
X128047066Y-112519847D01*
X128053273Y-112521510D01*
X128143308Y-112545635D01*
X128303477Y-112559648D01*
X128369998Y-112565468D01*
X128370000Y-112565468D01*
X128370002Y-112565468D01*
X128426673Y-112560509D01*
X128596692Y-112545635D01*
X128816496Y-112486739D01*
X128824191Y-112483150D01*
X128893266Y-112472656D01*
X128957051Y-112501173D01*
G37*
%TD.AperFunction*%
%TA.AperFunction,Conductor*%
G36*
X131160000Y-112538872D02*
G01*
X131356317Y-112486269D01*
X131356326Y-112486265D01*
X131562482Y-112390134D01*
X131748820Y-112259657D01*
X131909657Y-112098820D01*
X132040132Y-111912484D01*
X132067341Y-111854134D01*
X132113513Y-111801695D01*
X132180707Y-111782542D01*
X132247588Y-111802757D01*
X132292106Y-111854133D01*
X132319431Y-111912732D01*
X132319432Y-111912734D01*
X132449954Y-112099141D01*
X132610858Y-112260045D01*
X132657693Y-112292839D01*
X132797266Y-112390568D01*
X133003504Y-112486739D01*
X133003509Y-112486740D01*
X133003511Y-112486741D01*
X133050995Y-112499464D01*
X133223308Y-112545635D01*
X133383477Y-112559648D01*
X133449998Y-112565468D01*
X133450000Y-112565468D01*
X133450002Y-112565468D01*
X133506673Y-112560509D01*
X133676692Y-112545635D01*
X133772932Y-112519847D01*
X133842781Y-112521510D01*
X133892706Y-112551941D01*
X134070462Y-112729697D01*
X134103947Y-112791020D01*
X134098963Y-112860712D01*
X134057091Y-112916645D01*
X133991627Y-112941062D01*
X133966984Y-112939664D01*
X133966951Y-112940029D01*
X133961243Y-112939500D01*
X133738757Y-112939500D01*
X133520060Y-112980382D01*
X133430629Y-113015028D01*
X133312601Y-113060752D01*
X133312595Y-113060754D01*
X133123439Y-113177874D01*
X133123437Y-113177876D01*
X132959020Y-113327761D01*
X132836333Y-113490227D01*
X132780224Y-113531863D01*
X132737379Y-113539500D01*
X131540097Y-113539500D01*
X131473058Y-113519815D01*
X131452416Y-113503181D01*
X130662719Y-112713484D01*
X130629234Y-112652161D01*
X130634218Y-112582469D01*
X130660000Y-112547599D01*
X130660000Y-111575686D01*
X130664394Y-111580080D01*
X130755606Y-111632741D01*
X130857339Y-111660000D01*
X130962661Y-111660000D01*
X131064394Y-111632741D01*
X131155606Y-111580080D01*
X131160000Y-111575686D01*
X131160000Y-112538872D01*
G37*
%TD.AperFunction*%
%TA.AperFunction,Conductor*%
G36*
X120126905Y-104784389D02*
G01*
X120303504Y-104866739D01*
X120523308Y-104925635D01*
X120685230Y-104939801D01*
X120749998Y-104945468D01*
X120750000Y-104945468D01*
X120750002Y-104945468D01*
X120806807Y-104940498D01*
X120976692Y-104925635D01*
X121072932Y-104899847D01*
X121142781Y-104901510D01*
X121192706Y-104931941D01*
X122653181Y-106392416D01*
X122686666Y-106453739D01*
X122689500Y-106480097D01*
X122689500Y-110028306D01*
X122669815Y-110095345D01*
X122636623Y-110129881D01*
X122450859Y-110259953D01*
X122289954Y-110420858D01*
X122159432Y-110607265D01*
X122159431Y-110607267D01*
X122132382Y-110665275D01*
X122086209Y-110717714D01*
X122019016Y-110736866D01*
X121952135Y-110716650D01*
X121907618Y-110665275D01*
X121880568Y-110607266D01*
X121750047Y-110420861D01*
X121750045Y-110420858D01*
X121589141Y-110259954D01*
X121402734Y-110129432D01*
X121402732Y-110129431D01*
X121196497Y-110033261D01*
X121196488Y-110033258D01*
X120976697Y-109974366D01*
X120976693Y-109974365D01*
X120976692Y-109974365D01*
X120976691Y-109974364D01*
X120976686Y-109974364D01*
X120750002Y-109954532D01*
X120749998Y-109954532D01*
X120523313Y-109974364D01*
X120523302Y-109974366D01*
X120427067Y-110000152D01*
X120357217Y-109998489D01*
X120307293Y-109968058D01*
X119986819Y-109647584D01*
X119953334Y-109586261D01*
X119950500Y-109559903D01*
X119950500Y-104896771D01*
X119970185Y-104829732D01*
X120022989Y-104783977D01*
X120092147Y-104774033D01*
X120126905Y-104784389D01*
G37*
%TD.AperFunction*%
%TA.AperFunction,Conductor*%
G36*
X128046942Y-101630185D02*
G01*
X128067584Y-101646819D01*
X128551336Y-102130571D01*
X128584821Y-102191894D01*
X128579837Y-102261586D01*
X128537965Y-102317519D01*
X128472501Y-102341936D01*
X128452848Y-102341780D01*
X128370003Y-102334532D01*
X128369999Y-102334532D01*
X128143314Y-102354364D01*
X128143303Y-102354366D01*
X127923512Y-102413258D01*
X127923503Y-102413261D01*
X127717268Y-102509431D01*
X127717266Y-102509432D01*
X127530859Y-102639954D01*
X127369955Y-102800858D01*
X127240576Y-102985633D01*
X127239433Y-102987266D01*
X127213703Y-103042445D01*
X127212382Y-103045277D01*
X127166209Y-103097716D01*
X127099015Y-103116867D01*
X127032134Y-103096651D01*
X126987618Y-103045275D01*
X126960568Y-102987266D01*
X126830047Y-102800861D01*
X126830045Y-102800858D01*
X126669141Y-102639954D01*
X126482734Y-102509432D01*
X126482732Y-102509431D01*
X126276497Y-102413261D01*
X126276488Y-102413258D01*
X126202527Y-102393441D01*
X126142866Y-102357076D01*
X126112337Y-102294229D01*
X126120632Y-102224854D01*
X126165117Y-102170976D01*
X126189821Y-102158041D01*
X126367401Y-102089247D01*
X126556562Y-101972124D01*
X126720981Y-101822236D01*
X126843667Y-101659772D01*
X126899776Y-101618137D01*
X126942621Y-101610500D01*
X127979903Y-101610500D01*
X128046942Y-101630185D01*
G37*
%TD.AperFunction*%
%TA.AperFunction,Conductor*%
G36*
X131474887Y-98192661D02*
G01*
X131502146Y-98294394D01*
X131554807Y-98385606D01*
X131629281Y-98460080D01*
X131720493Y-98512741D01*
X131822226Y-98540000D01*
X131828440Y-98540000D01*
X131149413Y-99219025D01*
X131222400Y-99270132D01*
X131222408Y-99270136D01*
X131428555Y-99366264D01*
X131428569Y-99366269D01*
X131648276Y-99425139D01*
X131648287Y-99425141D01*
X131874885Y-99444966D01*
X131874889Y-99444966D01*
X132101486Y-99425141D01*
X132101497Y-99425139D01*
X132321204Y-99366269D01*
X132321218Y-99366264D01*
X132527365Y-99270136D01*
X132600358Y-99219024D01*
X131921334Y-98540000D01*
X131927548Y-98540000D01*
X132029281Y-98512741D01*
X132120493Y-98460080D01*
X132194967Y-98385606D01*
X132247628Y-98294394D01*
X132274887Y-98192661D01*
X132274887Y-98186447D01*
X132953911Y-98865471D01*
X133005018Y-98792487D01*
X133007723Y-98787802D01*
X133009902Y-98789060D01*
X133049072Y-98744554D01*
X133116261Y-98725386D01*
X133183147Y-98745586D01*
X133202988Y-98761701D01*
X133443181Y-99001894D01*
X133476666Y-99063217D01*
X133479500Y-99089575D01*
X133479500Y-102215500D01*
X133459815Y-102282539D01*
X133407011Y-102328294D01*
X133355500Y-102339500D01*
X132602129Y-102339500D01*
X132602123Y-102339501D01*
X132542516Y-102345908D01*
X132407671Y-102396202D01*
X132407664Y-102396206D01*
X132292455Y-102482452D01*
X132292452Y-102482455D01*
X132206206Y-102597664D01*
X132206202Y-102597671D01*
X132155908Y-102732516D01*
X132152137Y-102767596D01*
X132125398Y-102832146D01*
X132068006Y-102871994D01*
X131998180Y-102874487D01*
X131938092Y-102838834D01*
X131927273Y-102825462D01*
X131910045Y-102800858D01*
X131749141Y-102639954D01*
X131562734Y-102509432D01*
X131562732Y-102509431D01*
X131356497Y-102413261D01*
X131356488Y-102413258D01*
X131136697Y-102354366D01*
X131136693Y-102354365D01*
X131136692Y-102354365D01*
X131136691Y-102354364D01*
X131136686Y-102354364D01*
X130910002Y-102334532D01*
X130909998Y-102334532D01*
X130683313Y-102354364D01*
X130683302Y-102354366D01*
X130587067Y-102380152D01*
X130517217Y-102378489D01*
X130467293Y-102348058D01*
X129845921Y-101726686D01*
X129216913Y-101097677D01*
X129183430Y-101036357D01*
X129188414Y-100966665D01*
X129216913Y-100922320D01*
X129733393Y-100405841D01*
X129733398Y-100405837D01*
X129743601Y-100395633D01*
X129743603Y-100395633D01*
X129855407Y-100283829D01*
X129927188Y-100159500D01*
X129934464Y-100146898D01*
X129975388Y-99994170D01*
X129975388Y-99836056D01*
X129975388Y-99828461D01*
X129975387Y-99828443D01*
X129975387Y-99564499D01*
X129995072Y-99497460D01*
X130047876Y-99451705D01*
X130099387Y-99440499D01*
X130222758Y-99440499D01*
X130222759Y-99440499D01*
X130282370Y-99434091D01*
X130417218Y-99383796D01*
X130532433Y-99297546D01*
X130618683Y-99182331D01*
X130668978Y-99047483D01*
X130675387Y-98987873D01*
X130675386Y-98987845D01*
X130675565Y-98984547D01*
X130677070Y-98984627D01*
X130694999Y-98923326D01*
X130747755Y-98877514D01*
X130791352Y-98869981D01*
X131474887Y-98186446D01*
X131474887Y-98192661D01*
G37*
%TD.AperFunction*%
%TA.AperFunction,Conductor*%
G36*
X128447464Y-94010185D02*
G01*
X128468106Y-94026819D01*
X131253185Y-96811898D01*
X131286670Y-96873221D01*
X131281686Y-96942913D01*
X131239814Y-96998846D01*
X131226801Y-97006652D01*
X131227094Y-97007158D01*
X131222402Y-97009866D01*
X131149413Y-97060973D01*
X131149413Y-97060974D01*
X131828440Y-97740000D01*
X131822226Y-97740000D01*
X131720493Y-97767259D01*
X131629281Y-97819920D01*
X131554807Y-97894394D01*
X131502146Y-97985606D01*
X131474887Y-98087339D01*
X131474887Y-98093552D01*
X130790686Y-97409351D01*
X130741692Y-97399505D01*
X130691509Y-97350889D01*
X130676868Y-97295366D01*
X130675787Y-97295423D01*
X130675741Y-97295429D01*
X130675740Y-97295426D01*
X130675563Y-97295436D01*
X130675386Y-97292135D01*
X130675386Y-97292128D01*
X130668978Y-97232517D01*
X130666350Y-97225472D01*
X130618684Y-97097671D01*
X130618680Y-97097664D01*
X130532434Y-96982455D01*
X130532431Y-96982452D01*
X130417222Y-96896206D01*
X130417215Y-96896202D01*
X130282369Y-96845908D01*
X130282370Y-96845908D01*
X130222770Y-96839501D01*
X130222768Y-96839500D01*
X130222760Y-96839500D01*
X130222751Y-96839500D01*
X128527016Y-96839500D01*
X128527010Y-96839501D01*
X128467403Y-96845908D01*
X128332558Y-96896202D01*
X128332551Y-96896206D01*
X128217342Y-96982452D01*
X128217339Y-96982455D01*
X128131093Y-97097664D01*
X128131089Y-97097671D01*
X128080795Y-97232517D01*
X128074388Y-97292116D01*
X128074388Y-97292123D01*
X128074387Y-97292135D01*
X128074387Y-98987870D01*
X128074388Y-98987876D01*
X128080795Y-99047483D01*
X128131089Y-99182328D01*
X128131093Y-99182335D01*
X128217339Y-99297544D01*
X128217342Y-99297547D01*
X128332551Y-99383793D01*
X128332558Y-99383797D01*
X128377505Y-99400561D01*
X128467404Y-99434091D01*
X128527014Y-99440500D01*
X128650387Y-99440499D01*
X128717426Y-99460183D01*
X128763181Y-99512987D01*
X128774387Y-99564499D01*
X128774387Y-99615016D01*
X128754702Y-99682055D01*
X128738068Y-99702697D01*
X128067584Y-100373181D01*
X128006261Y-100406666D01*
X127979903Y-100409500D01*
X126942621Y-100409500D01*
X126875582Y-100389815D01*
X126843667Y-100360227D01*
X126720979Y-100197761D01*
X126556562Y-100047876D01*
X126556560Y-100047874D01*
X126367404Y-99930754D01*
X126367398Y-99930752D01*
X126159940Y-99850382D01*
X125941243Y-99809500D01*
X125718757Y-99809500D01*
X125500060Y-99850382D01*
X125500057Y-99850382D01*
X125500057Y-99850383D01*
X125369293Y-99901041D01*
X125299670Y-99906903D01*
X125237930Y-99874192D01*
X125203675Y-99813296D01*
X125200500Y-99785414D01*
X125200500Y-94614585D01*
X125220185Y-94547546D01*
X125272989Y-94501791D01*
X125342147Y-94491847D01*
X125369287Y-94498956D01*
X125500060Y-94549618D01*
X125718757Y-94590500D01*
X125718759Y-94590500D01*
X125941241Y-94590500D01*
X125941243Y-94590500D01*
X126159940Y-94549618D01*
X126367401Y-94469247D01*
X126556562Y-94352124D01*
X126720981Y-94202236D01*
X126843667Y-94039772D01*
X126899776Y-93998137D01*
X126942621Y-93990500D01*
X128380425Y-93990500D01*
X128447464Y-94010185D01*
G37*
%TD.AperFunction*%
%TD*%
M02*
