M48
; DRILL file {KiCad 8.0.1} date 2024-06-07T20:59:52+1000
; FORMAT={-:-/ absolute / inch / decimal}
; #@! TF.CreationDate,2024-06-07T20:59:52+10:00
; #@! TF.GenerationSoftware,Kicad,Pcbnew,8.0.1
; #@! TF.FileFunction,Plated,1,2,PTH
FMAT,2
INCH
; #@! TA.AperFunction,Plated,PTH,ViaDrill
T1C0.0118
; #@! TA.AperFunction,Plated,PTH,ComponentDrill
T2C0.0276
; #@! TA.AperFunction,Plated,PTH,ComponentDrill
T3C0.0315
; #@! TA.AperFunction,Plated,PTH,ComponentDrill
T4C0.0394
; #@! TA.AperFunction,Plated,PTH,ComponentDrill
T5C0.0512
; #@! TA.AperFunction,Plated,PTH,ComponentDrill
T6C0.1260
%
G90
G05
T1
X3.2756Y-4.6417
X3.4764Y-3.8504
X3.5Y-4.626
X3.5039Y-3.8504
X3.9173Y-4.6693
X4.5512Y-4.9016
X4.7756Y-4.2441
X5.0157Y-4.5551
X5.0236Y-4.0118
X5.0709Y-4.4764
X5.2717Y-4.811
T2
X3.3453Y-4.4961
X3.3465Y-4.1055
X3.3465Y-4.4055
X3.5669Y-4.1055
X3.5669Y-4.4055
X3.6453Y-4.4961
X3.6614Y-4.1055
X3.6614Y-4.4055
X3.7319Y-4.4961
X3.8465Y-3.7079
X3.8465Y-4.0079
X3.8804Y-4.1055
X3.8804Y-4.4055
X3.9724Y-4.1063
X3.9724Y-4.4063
X4.0319Y-4.4961
X4.0669Y-3.7079
X4.0669Y-4.0079
X4.1177Y-4.4961
X4.1929Y-4.1063
X4.1929Y-4.4063
X4.2874Y-3.7079
X4.2874Y-4.0079
X4.2874Y-4.1063
X4.2874Y-4.4063
X4.4177Y-4.4961
X4.576Y-4.4937
X4.6791Y-4.6047
X4.6791Y-4.9047
X4.7874Y-4.6047
X4.7874Y-4.9047
X4.8555Y-3.6768
X4.8555Y-3.9768
X4.876Y-4.4937
X4.8811Y-4.9047
X4.9539Y-3.6768
X4.9539Y-3.9768
X4.9697Y-4.4937
X5.1811Y-4.9047
X5.2689Y-4.6071
X5.2689Y-4.9071
X5.2697Y-4.4937
T3
X3.3465Y-3.7992
X3.3465Y-3.9961
X3.4567Y-4.2047
X3.4567Y-4.4016
X3.7402Y-3.8071
X3.7402Y-4.0039
X3.7717Y-4.2047
X3.7717Y-4.4016
X3.9567Y-3.8071
X3.9567Y-4.0039
X4.0827Y-4.2055
X4.0827Y-4.4024
X4.1772Y-3.8071
X4.1772Y-4.0039
X4.6193Y-3.8638
X4.6539Y-4.0803
X4.6539Y-4.3803
X4.7177Y-3.8638
X4.7539Y-4.0803
X4.7539Y-4.3803
X4.8539Y-4.0803
X4.8539Y-4.3803
X4.9449Y-4.6087
X4.9449Y-4.7087
X4.9449Y-4.8087
X4.9539Y-4.0803
X4.9539Y-4.3803
X5.0539Y-4.3803
X5.0539Y-4.0803
X5.0935Y-3.8638
X5.1417Y-4.6087
X5.1417Y-4.7087
X5.1417Y-4.8087
X5.1539Y-4.0803
X5.1539Y-4.3803
X5.1919Y-3.8638
X5.2539Y-4.0803
X5.2539Y-4.3803
T4
X3.6967Y-3.4969
X3.7417Y-3.4189
X3.7417Y-3.5748
X3.7868Y-3.4969
X3.8319Y-3.4189
X3.8319Y-3.5748
X3.877Y-3.4969
X3.922Y-3.4189
X3.922Y-3.5748
X3.9671Y-3.4969
X4.0122Y-3.4189
X4.0122Y-3.5748
X4.0573Y-3.4969
X4.1024Y-3.4189
X4.1024Y-3.5748
T5
X3.3268Y-4.7795
X3.5236Y-4.7795
X3.7205Y-4.7795
X3.9173Y-4.7795
X4.1142Y-4.7795
X4.311Y-4.7795
X4.5079Y-4.7795
T6
X3.4195Y-3.4941
X4.4037Y-3.4941
M30
