%TF.GenerationSoftware,KiCad,Pcbnew,8.0.1*%
%TF.CreationDate,2024-06-23T19:42:57+10:00*%
%TF.ProjectId,arcade,61726361-6465-42e6-9b69-6361645f7063,rev?*%
%TF.SameCoordinates,Original*%
%TF.FileFunction,Soldermask,Top*%
%TF.FilePolarity,Negative*%
%FSLAX46Y46*%
G04 Gerber Fmt 4.6, Leading zero omitted, Abs format (unit mm)*
G04 Created by KiCad (PCBNEW 8.0.1) date 2024-06-23 19:42:57*
%MOMM*%
%LPD*%
G01*
G04 APERTURE LIST*
%ADD10R,1.600000X1.600000*%
%ADD11C,1.600000*%
%ADD12C,1.400000*%
%ADD13O,1.400000X1.400000*%
%ADD14O,2.604000X5.004000*%
%ADD15O,3.604000X1.904000*%
%ADD16R,3.000000X3.000000*%
%ADD17C,3.000000*%
%ADD18R,1.700000X1.700000*%
%ADD19O,1.700000X1.700000*%
%ADD20O,1.800000X1.800000*%
%ADD21O,1.500000X1.500000*%
%ADD22R,1.700000X3.500000*%
%ADD23R,3.500000X1.700000*%
%ADD24R,1.050000X1.500000*%
%ADD25O,1.050000X1.500000*%
%ADD26C,6.400000*%
%ADD27C,4.000000*%
%ADD28O,1.600000X1.600000*%
G04 APERTURE END LIST*
D10*
%TO.C,C2*%
X127040001Y-60075000D03*
D11*
X127040001Y-57575000D03*
%TD*%
D12*
%TO.C,R3*%
X111040001Y-74095000D03*
D13*
X111040001Y-66475000D03*
%TD*%
D11*
%TO.C,C3*%
X95550000Y-67200000D03*
X90550000Y-67200000D03*
%TD*%
D12*
%TO.C,R10*%
X93050000Y-64500000D03*
D13*
X93050000Y-56880000D03*
%TD*%
D14*
%TO.C,J9*%
X209520000Y-75681000D03*
D15*
X205020000Y-75681000D03*
%TD*%
D12*
%TO.C,R5*%
X108160001Y-74075000D03*
D13*
X100540001Y-74075000D03*
%TD*%
D12*
%TO.C,R4*%
X111040001Y-64095000D03*
D13*
X111040001Y-56475000D03*
%TD*%
D16*
%TO.C,J6*%
X144350000Y-104750000D03*
D17*
X149350000Y-104750000D03*
X154350000Y-104750000D03*
X159350000Y-104750000D03*
X164350000Y-104750000D03*
X169350000Y-104750000D03*
X174350000Y-104750000D03*
X179350000Y-104750000D03*
%TD*%
D18*
%TO.C,J7*%
X192170000Y-120225000D03*
D19*
X192170000Y-116225000D03*
X192170000Y-112225000D03*
X192170000Y-108225000D03*
X192170000Y-104225000D03*
X192170000Y-100225000D03*
X192170000Y-96225000D03*
X192170000Y-92225000D03*
X192170000Y-88225000D03*
%TD*%
D12*
%TO.C,R2*%
X131790001Y-63575000D03*
D13*
X124170001Y-63575000D03*
%TD*%
D16*
%TO.C,J4*%
X144670000Y-133025000D03*
D17*
X149670000Y-133025000D03*
X154670000Y-133025000D03*
X159670000Y-133025000D03*
X164670001Y-133025000D03*
X169670001Y-133025000D03*
X174669999Y-133025000D03*
X179670000Y-133025000D03*
X184670000Y-133025000D03*
X189670000Y-133025000D03*
X194670000Y-133025000D03*
X199670000Y-133025000D03*
X204670000Y-133025000D03*
%TD*%
D16*
%TO.C,J2*%
X80350000Y-58600000D03*
D17*
X80350000Y-63600000D03*
X80350000Y-68600000D03*
X80350000Y-73600000D03*
X80350000Y-78600001D03*
X80350000Y-83600001D03*
X80350000Y-88599999D03*
X80350000Y-93600000D03*
%TD*%
D12*
%TO.C,R9*%
X95550000Y-64500000D03*
D13*
X95550000Y-56880000D03*
%TD*%
D12*
%TO.C,R11*%
X90550000Y-64500000D03*
D13*
X90550000Y-56880000D03*
%TD*%
D12*
%TO.C,R7*%
X100600000Y-61845000D03*
D13*
X108220000Y-61845000D03*
%TD*%
D20*
%TO.C,U2*%
X76630000Y-117035000D03*
D21*
X79660000Y-116735000D03*
X79660000Y-111885000D03*
D20*
X76630000Y-111585000D03*
D19*
X76500000Y-123200000D03*
D22*
X76500000Y-124100000D03*
D19*
X79040000Y-123200000D03*
D22*
X79040000Y-124100000D03*
D18*
X81580000Y-123200000D03*
D22*
X81580000Y-124100000D03*
D19*
X84120000Y-123200000D03*
D22*
X84120000Y-124100000D03*
D19*
X86660000Y-123200000D03*
D22*
X86660000Y-124100000D03*
D19*
X89200000Y-123200000D03*
D22*
X89200000Y-124100000D03*
D19*
X91740000Y-123200000D03*
D22*
X91740000Y-124100000D03*
D18*
X94280000Y-123200000D03*
D22*
X94280000Y-124100000D03*
D19*
X96820000Y-123200000D03*
D22*
X96820000Y-124100000D03*
D19*
X99360000Y-123200000D03*
D22*
X99360000Y-124100000D03*
D19*
X101900000Y-123200000D03*
D22*
X101900000Y-124100000D03*
D19*
X104440000Y-123200000D03*
D22*
X104440000Y-124100000D03*
D18*
X106980000Y-123200000D03*
D22*
X106980000Y-124100000D03*
D19*
X109520000Y-123200000D03*
D22*
X109520000Y-124100000D03*
D19*
X112060000Y-123200000D03*
D22*
X112060000Y-124100000D03*
D19*
X114600000Y-123200000D03*
D22*
X114600000Y-124100000D03*
D19*
X117140000Y-123200000D03*
D22*
X117140000Y-124100000D03*
D18*
X119680000Y-123200000D03*
D22*
X119680000Y-124100000D03*
D19*
X122220000Y-123200000D03*
D22*
X122220000Y-124100000D03*
D19*
X124760000Y-123200000D03*
D22*
X124760000Y-124100000D03*
D19*
X124760000Y-105420000D03*
D22*
X124760000Y-104520000D03*
D19*
X122220000Y-105420000D03*
D22*
X122220000Y-104520000D03*
D18*
X119680000Y-105420000D03*
D22*
X119680000Y-104520000D03*
D19*
X117140000Y-105420000D03*
D22*
X117140000Y-104520000D03*
D19*
X114600000Y-105420000D03*
D22*
X114600000Y-104520000D03*
D19*
X112060000Y-105420000D03*
D22*
X112060000Y-104520000D03*
D19*
X109520000Y-105420000D03*
D22*
X109520000Y-104520000D03*
D18*
X106980000Y-105420000D03*
D22*
X106980000Y-104520000D03*
D19*
X104440000Y-105420000D03*
D22*
X104440000Y-104520000D03*
D19*
X101900000Y-105420000D03*
D22*
X101900000Y-104520000D03*
D19*
X99360000Y-105420000D03*
D22*
X99360000Y-104520000D03*
D19*
X96820000Y-105420000D03*
D22*
X96820000Y-104520000D03*
D18*
X94280000Y-105420000D03*
D22*
X94280000Y-104520000D03*
D19*
X91740000Y-105420000D03*
D22*
X91740000Y-104520000D03*
D19*
X89200000Y-105420000D03*
D22*
X89200000Y-104520000D03*
D19*
X86660000Y-105420000D03*
D22*
X86660000Y-104520000D03*
D19*
X84120000Y-105420000D03*
D22*
X84120000Y-104520000D03*
D18*
X81580000Y-105420000D03*
D22*
X81580000Y-104520000D03*
D19*
X79040000Y-105420000D03*
D22*
X79040000Y-104520000D03*
D19*
X76500000Y-105420000D03*
D22*
X76500000Y-104520000D03*
D19*
X124530000Y-116850000D03*
D23*
X125430000Y-116850000D03*
D18*
X124530000Y-114310000D03*
D23*
X125430000Y-114310000D03*
D19*
X124530000Y-111770000D03*
D23*
X125430000Y-111770000D03*
%TD*%
D11*
%TO.C,C5*%
X95550000Y-70500000D03*
X90550000Y-70500000D03*
%TD*%
D24*
%TO.C,Q2*%
X104310000Y-70600000D03*
D25*
X105580000Y-70600000D03*
X106850000Y-70600000D03*
%TD*%
D26*
%TO.C,H2*%
X210870000Y-132975000D03*
%TD*%
D12*
%TO.C,R1*%
X131790001Y-66075000D03*
D13*
X124170001Y-66075000D03*
%TD*%
D12*
%TO.C,R6*%
X100600000Y-71845000D03*
D13*
X100600000Y-64225000D03*
%TD*%
D26*
%TO.C,H1*%
X79270000Y-49475000D03*
%TD*%
D12*
%TO.C,R13*%
X98250000Y-64500000D03*
D13*
X98250000Y-56880000D03*
%TD*%
D18*
%TO.C,J8*%
X208495000Y-68207500D03*
D19*
X204495000Y-68207500D03*
X200495000Y-68207500D03*
X196495000Y-68207500D03*
X192495000Y-68207500D03*
X188495000Y-68207500D03*
X184495000Y-68207500D03*
X180495000Y-68207500D03*
X176495000Y-68207500D03*
%TD*%
D27*
%TO.C,J1*%
X123565000Y-50950001D03*
X98565000Y-50950000D03*
D10*
X106750000Y-53000000D03*
D11*
X109040001Y-53000000D03*
X111330000Y-53000000D03*
X113620001Y-53000000D03*
X115910000Y-53000000D03*
X105605000Y-51020000D03*
X107895000Y-51020000D03*
X110185000Y-51020000D03*
X112475000Y-51020000D03*
X114765000Y-51020000D03*
X106750000Y-49040000D03*
X109040000Y-49040000D03*
X111330000Y-49040000D03*
X113620000Y-49040000D03*
X115910000Y-49040000D03*
%TD*%
D20*
%TO.C,U3*%
X151515000Y-46880000D03*
D21*
X151815000Y-49910000D03*
X156665000Y-49910000D03*
D20*
X156965000Y-46880000D03*
D19*
X145350000Y-46750000D03*
D23*
X144450000Y-46750000D03*
D19*
X145350000Y-49290000D03*
D23*
X144450000Y-49290000D03*
D18*
X145350000Y-51830000D03*
D23*
X144450000Y-51830000D03*
D19*
X145350000Y-54370000D03*
D23*
X144450000Y-54370000D03*
D19*
X145350000Y-56910000D03*
D23*
X144450000Y-56910000D03*
D19*
X145350000Y-59450000D03*
D23*
X144450000Y-59450000D03*
D19*
X145350000Y-61990000D03*
D23*
X144450000Y-61990000D03*
D18*
X145350000Y-64530000D03*
D23*
X144450000Y-64530000D03*
D19*
X145350000Y-67070000D03*
D23*
X144450000Y-67070000D03*
D19*
X145350000Y-69610000D03*
D23*
X144450000Y-69610000D03*
D19*
X145350000Y-72150000D03*
D23*
X144450000Y-72150000D03*
D19*
X145350000Y-74690000D03*
D23*
X144450000Y-74690000D03*
D18*
X145350000Y-77230000D03*
D23*
X144450000Y-77230000D03*
D19*
X145350000Y-79770000D03*
D23*
X144450000Y-79770000D03*
D19*
X145350000Y-82310000D03*
D23*
X144450000Y-82310000D03*
D19*
X145350000Y-84850000D03*
D23*
X144450000Y-84850000D03*
D19*
X145350000Y-87390000D03*
D23*
X144450000Y-87390000D03*
D18*
X145350000Y-89930000D03*
D23*
X144450000Y-89930000D03*
D19*
X145350000Y-92470000D03*
D23*
X144450000Y-92470000D03*
D19*
X145350000Y-95010000D03*
D23*
X144450000Y-95010000D03*
D19*
X163130000Y-95010000D03*
D23*
X164030000Y-95010000D03*
D19*
X163130000Y-92470000D03*
D23*
X164030000Y-92470000D03*
D18*
X163130000Y-89930000D03*
D23*
X164030000Y-89930000D03*
D19*
X163130000Y-87390000D03*
D23*
X164030000Y-87390000D03*
D19*
X163130000Y-84850000D03*
D23*
X164030000Y-84850000D03*
D19*
X163130000Y-82310000D03*
D23*
X164030000Y-82310000D03*
D19*
X163130000Y-79770000D03*
D23*
X164030000Y-79770000D03*
D18*
X163130000Y-77230000D03*
D23*
X164030000Y-77230000D03*
D19*
X163130000Y-74690000D03*
D23*
X164030000Y-74690000D03*
D19*
X163130000Y-72150000D03*
D23*
X164030000Y-72150000D03*
D19*
X163130000Y-69610000D03*
D23*
X164030000Y-69610000D03*
D19*
X163130000Y-67070000D03*
D23*
X164030000Y-67070000D03*
D18*
X163130000Y-64530000D03*
D23*
X164030000Y-64530000D03*
D19*
X163130000Y-61990000D03*
D23*
X164030000Y-61990000D03*
D19*
X163130000Y-59450000D03*
D23*
X164030000Y-59450000D03*
D19*
X163130000Y-56910000D03*
D23*
X164030000Y-56910000D03*
D19*
X163130000Y-54370000D03*
D23*
X164030000Y-54370000D03*
D18*
X163130000Y-51830000D03*
D23*
X164030000Y-51830000D03*
D19*
X163130000Y-49290000D03*
D23*
X164030000Y-49290000D03*
D19*
X163130000Y-46750000D03*
D23*
X164030000Y-46750000D03*
D19*
X151700000Y-94780000D03*
D22*
X151700000Y-95680000D03*
D18*
X154240000Y-94780000D03*
D22*
X154240000Y-95680000D03*
D19*
X156780000Y-94780000D03*
D22*
X156780000Y-95680000D03*
%TD*%
D24*
%TO.C,Q1*%
X104310000Y-65745000D03*
D25*
X105580001Y-65745000D03*
X106850000Y-65745000D03*
%TD*%
D12*
%TO.C,R8*%
X108220000Y-59095000D03*
D13*
X100600000Y-59095000D03*
%TD*%
D16*
%TO.C,J3*%
X78069999Y-132925000D03*
D17*
X83069999Y-132925000D03*
X88069999Y-132925000D03*
X93069999Y-132925000D03*
X98070000Y-132925000D03*
X103070000Y-132925000D03*
X108069998Y-132925000D03*
X113069999Y-132925000D03*
X118069999Y-132925000D03*
X123069999Y-132925000D03*
X128069999Y-132925000D03*
X133069999Y-132925000D03*
X138069999Y-132925000D03*
%TD*%
D10*
%TO.C,U1*%
X121540001Y-73695000D03*
D28*
X121540001Y-71155000D03*
X121540001Y-68615001D03*
X121540001Y-66075000D03*
X121540001Y-63535000D03*
X121540001Y-60995000D03*
X121540001Y-58455000D03*
X113920001Y-58455000D03*
X113920001Y-60995000D03*
X113920001Y-63535000D03*
X113920001Y-66075000D03*
X113920001Y-68615000D03*
X113920001Y-71155000D03*
X113920001Y-73695000D03*
%TD*%
D11*
%TO.C,C7*%
X95550000Y-73800000D03*
X90550000Y-73800000D03*
%TD*%
D10*
%TO.C,C1*%
X127040001Y-69619887D03*
D11*
X127040001Y-72119887D03*
%TD*%
D12*
%TO.C,R12*%
X98250000Y-74270000D03*
D13*
X98250000Y-66650000D03*
%TD*%
D16*
%TO.C,J5*%
X100300000Y-86350000D03*
D17*
X105300000Y-86350000D03*
X110300000Y-86350000D03*
X115300000Y-86350000D03*
X120300000Y-86350000D03*
X125300000Y-86350000D03*
X130300000Y-86350000D03*
X135300000Y-86350000D03*
%TD*%
D26*
%TO.C,H2*%
X134300000Y-49475000D03*
%TD*%
M02*
