%TF.GenerationSoftware,KiCad,Pcbnew,8.0.1*%
%TF.CreationDate,2024-06-23T19:42:57+10:00*%
%TF.ProjectId,arcade,61726361-6465-42e6-9b69-6361645f7063,rev?*%
%TF.SameCoordinates,Original*%
%TF.FileFunction,Copper,L2,Bot*%
%TF.FilePolarity,Positive*%
%FSLAX46Y46*%
G04 Gerber Fmt 4.6, Leading zero omitted, Abs format (unit mm)*
G04 Created by KiCad (PCBNEW 8.0.1) date 2024-06-23 19:42:57*
%MOMM*%
%LPD*%
G01*
G04 APERTURE LIST*
%TA.AperFunction,ComponentPad*%
%ADD10R,1.600000X1.600000*%
%TD*%
%TA.AperFunction,ComponentPad*%
%ADD11C,1.600000*%
%TD*%
%TA.AperFunction,ComponentPad*%
%ADD12C,1.400000*%
%TD*%
%TA.AperFunction,ComponentPad*%
%ADD13O,1.400000X1.400000*%
%TD*%
%TA.AperFunction,ComponentPad*%
%ADD14O,2.400000X4.800000*%
%TD*%
%TA.AperFunction,ComponentPad*%
%ADD15O,3.400000X1.700000*%
%TD*%
%TA.AperFunction,ComponentPad*%
%ADD16R,3.000000X3.000000*%
%TD*%
%TA.AperFunction,ComponentPad*%
%ADD17C,3.000000*%
%TD*%
%TA.AperFunction,ComponentPad*%
%ADD18R,1.700000X1.700000*%
%TD*%
%TA.AperFunction,ComponentPad*%
%ADD19O,1.700000X1.700000*%
%TD*%
%TA.AperFunction,ComponentPad*%
%ADD20R,1.050000X1.500000*%
%TD*%
%TA.AperFunction,ComponentPad*%
%ADD21O,1.050000X1.500000*%
%TD*%
%TA.AperFunction,ComponentPad*%
%ADD22C,6.400000*%
%TD*%
%TA.AperFunction,ComponentPad*%
%ADD23C,4.000000*%
%TD*%
%TA.AperFunction,ComponentPad*%
%ADD24O,1.600000X1.600000*%
%TD*%
%TA.AperFunction,ViaPad*%
%ADD25C,0.600000*%
%TD*%
%TA.AperFunction,Conductor*%
%ADD26C,0.200000*%
%TD*%
G04 APERTURE END LIST*
D10*
%TO.P,C2,1*%
%TO.N,Net-(C2-Pad1)*%
X127040001Y-60075000D03*
D11*
%TO.P,C2,2*%
%TO.N,GND*%
X127040001Y-57575000D03*
%TD*%
D12*
%TO.P,R3,1*%
%TO.N,Net-(R3-Pad1)*%
X111040001Y-74095000D03*
D13*
%TO.P,R3,2*%
%TO.N,Net-(Q1-B)*%
X111040001Y-66475000D03*
%TD*%
D11*
%TO.P,C3,1*%
%TO.N,/Video Processing/IN R*%
X95550000Y-67200000D03*
%TO.P,C3,2*%
%TO.N,/Video Processing/RIN2*%
X90550000Y-67200000D03*
%TD*%
D12*
%TO.P,R10,1*%
%TO.N,/Video Processing/IN G*%
X93050000Y-64500000D03*
D13*
%TO.P,R10,2*%
%TO.N,GND*%
X93050000Y-56880000D03*
%TD*%
D14*
%TO.P,J9,1,In*%
%TO.N,/Video Processing/AV1-1*%
X209520000Y-75681000D03*
D15*
%TO.P,J9,2,Ext*%
%TO.N,GND*%
X205020000Y-75681000D03*
%TD*%
D12*
%TO.P,R5,1*%
%TO.N,+5V*%
X108160001Y-74075000D03*
D13*
%TO.P,R5,2*%
%TO.N,Net-(Q1-C)*%
X100540001Y-74075000D03*
%TD*%
D12*
%TO.P,R4,1*%
%TO.N,Net-(Q1-B)*%
X111040001Y-64095000D03*
D13*
%TO.P,R4,2*%
%TO.N,GND*%
X111040001Y-56475000D03*
%TD*%
D16*
%TO.P,J6,1,Pin_1*%
%TO.N,/IO/GPIO34*%
X144350000Y-104750000D03*
D17*
%TO.P,J6,2,Pin_2*%
%TO.N,/IO/GPIO35*%
X149350000Y-104750000D03*
%TO.P,J6,3,Pin_3*%
%TO.N,/IO/GPIO36*%
X154350000Y-104750000D03*
%TO.P,J6,4,Pin_4*%
%TO.N,/IO/GPIO37*%
X159350000Y-104750000D03*
%TO.P,J6,5,Pin_5*%
%TO.N,/IO/GPIO38*%
X164350000Y-104750000D03*
%TO.P,J6,6,Pin_6*%
%TO.N,/IO/GPIO39*%
X169350000Y-104750000D03*
%TO.P,J6,7,Pin_7*%
%TO.N,/IO/GPIO40*%
X174350000Y-104750000D03*
%TO.P,J6,8,Pin_8*%
%TO.N,/IO/GPIO41*%
X179350000Y-104750000D03*
%TD*%
D18*
%TO.P,J7,1,Pin_1*%
%TO.N,/IO/PS_DAT_1*%
X192170000Y-120225000D03*
D19*
%TO.P,J7,2,Pin_2*%
%TO.N,/IO/PS_CMD_1*%
X192170000Y-116225000D03*
%TO.P,J7,3,Pin_3*%
%TO.N,unconnected-(J7-Pin_3-Pad3)*%
X192170000Y-112225000D03*
%TO.P,J7,4,Pin_4*%
%TO.N,GND*%
X192170000Y-108225000D03*
%TO.P,J7,5,Pin_5*%
%TO.N,+3.3VP*%
X192170000Y-104225000D03*
%TO.P,J7,6,Pin_6*%
%TO.N,/IO/~{PS_ATT_1}*%
X192170000Y-100225000D03*
%TO.P,J7,7,Pin_7*%
%TO.N,/IO/PS_CLK_1*%
X192170000Y-96225000D03*
%TO.P,J7,8,Pin_8*%
%TO.N,unconnected-(J7-Pin_8-Pad8)*%
X192170000Y-92225000D03*
%TO.P,J7,9,Pin_9*%
%TO.N,/IO/PS_ACK_1*%
X192170000Y-88225000D03*
%TD*%
D12*
%TO.P,R2,1*%
%TO.N,Net-(J1-Pin_14)*%
X131790001Y-63575000D03*
D13*
%TO.P,R2,2*%
%TO.N,Net-(C2-Pad1)*%
X124170001Y-63575000D03*
%TD*%
D16*
%TO.P,J4,1,Pin_1*%
%TO.N,/IO/GPIO13*%
X144670000Y-133025000D03*
D17*
%TO.P,J4,2,Pin_2*%
%TO.N,/IO/GPIO14*%
X149670000Y-133025000D03*
%TO.P,J4,3,Pin_3*%
%TO.N,/IO/GPIO15*%
X154670000Y-133025000D03*
%TO.P,J4,4,Pin_4*%
%TO.N,/IO/GPIO16*%
X159670000Y-133025000D03*
%TO.P,J4,5,Pin_5*%
%TO.N,/IO/GPIO17*%
X164670001Y-133025000D03*
%TO.P,J4,6,Pin_6*%
%TO.N,/IO/GPIO18*%
X169670001Y-133025000D03*
%TO.P,J4,7,Pin_7*%
%TO.N,/IO/GPIO19*%
X174669999Y-133025000D03*
%TO.P,J4,8,Pin_8*%
%TO.N,/IO/GPIO20*%
X179670000Y-133025000D03*
%TO.P,J4,9,Pin_9*%
%TO.N,/IO/GPIO21*%
X184670000Y-133025000D03*
%TO.P,J4,10,Pin_10*%
%TO.N,/IO/GPIO22*%
X189670000Y-133025000D03*
%TO.P,J4,11,Pin_11*%
%TO.N,/IO/GPIO23*%
X194670000Y-133025000D03*
%TO.P,J4,12,Pin_12*%
%TO.N,/IO/GPIO24*%
X199670000Y-133025000D03*
%TO.P,J4,13,Pin_13*%
%TO.N,/IO/GPIO25*%
X204670000Y-133025000D03*
%TD*%
D16*
%TO.P,J2,1,Pin_1*%
%TO.N,/Video Processing/RIN2*%
X80350000Y-58600000D03*
D17*
%TO.P,J2,2,Pin_2*%
%TO.N,/Video Processing/GIN2*%
X80350000Y-63600000D03*
%TO.P,J2,3,Pin_3*%
%TO.N,/Video Processing/BIN2*%
X80350000Y-68600000D03*
%TO.P,J2,4,Pin_4*%
%TO.N,/Video Processing/AV1-1*%
X80350000Y-73600000D03*
%TO.P,J2,5,Pin_5*%
%TO.N,/Video Processing/FBLIN2*%
X80350000Y-78600001D03*
%TO.P,J2,6,Pin_6*%
%TO.N,GND*%
X80350000Y-83600001D03*
%TO.P,J2,7,Pin_7*%
%TO.N,/IO/SDA*%
X80350000Y-88599999D03*
%TO.P,J2,8,Pin_8*%
%TO.N,/IO/SCL*%
X80350000Y-93600000D03*
%TD*%
D12*
%TO.P,R9,1*%
%TO.N,/Video Processing/IN R*%
X95550000Y-64500000D03*
D13*
%TO.P,R9,2*%
%TO.N,GND*%
X95550000Y-56880000D03*
%TD*%
D12*
%TO.P,R11,1*%
%TO.N,/Video Processing/IN B*%
X90550000Y-64500000D03*
D13*
%TO.P,R11,2*%
%TO.N,GND*%
X90550000Y-56880000D03*
%TD*%
D12*
%TO.P,R7,1*%
%TO.N,Net-(R6-Pad2)*%
X100600000Y-61845000D03*
D13*
%TO.P,R7,2*%
%TO.N,GND*%
X108220000Y-61845000D03*
%TD*%
D19*
%TO.P,U2,1,GPIO0*%
%TO.N,/IO/GPIO0*%
X76500000Y-123200000D03*
%TO.P,U2,2,GPIO1*%
%TO.N,/IO/GPIO1*%
X79040000Y-123200000D03*
D18*
%TO.P,U2,3,GND*%
%TO.N,GND*%
X81580000Y-123200000D03*
D19*
%TO.P,U2,4,GPIO2*%
%TO.N,/IO/GPIO2*%
X84120000Y-123200000D03*
%TO.P,U2,5,GPIO3*%
%TO.N,/IO/GPIO3*%
X86660000Y-123200000D03*
%TO.P,U2,6,GPIO4*%
%TO.N,/IO/GPIO4*%
X89200000Y-123200000D03*
%TO.P,U2,7,GPIO5*%
%TO.N,/IO/GPIO5*%
X91740000Y-123200000D03*
D18*
%TO.P,U2,8,GND*%
%TO.N,GND*%
X94280000Y-123200000D03*
D19*
%TO.P,U2,9,GPIO6*%
%TO.N,/IO/GPIO6*%
X96820000Y-123200000D03*
%TO.P,U2,10,GPIO7*%
%TO.N,/IO/GPIO7*%
X99360000Y-123200000D03*
%TO.P,U2,11,GPIO8*%
%TO.N,/IO/GPIO8*%
X101900000Y-123200000D03*
%TO.P,U2,12,GPIO9*%
%TO.N,/IO/GPIO9*%
X104440000Y-123200000D03*
D18*
%TO.P,U2,13,GND*%
%TO.N,GND*%
X106980000Y-123200000D03*
D19*
%TO.P,U2,14,GPIO10*%
%TO.N,/IO/GPIO10*%
X109520000Y-123200000D03*
%TO.P,U2,15,GPIO11*%
%TO.N,/IO/GPIO11*%
X112060000Y-123200000D03*
%TO.P,U2,16,GPIO12*%
%TO.N,/IO/GPIO12*%
X114600000Y-123200000D03*
%TO.P,U2,17,GPIO13*%
%TO.N,/IO/GPIO13*%
X117140000Y-123200000D03*
D18*
%TO.P,U2,18,GND*%
%TO.N,GND*%
X119680000Y-123200000D03*
D19*
%TO.P,U2,19,GPIO14*%
%TO.N,/IO/GPIO14*%
X122220000Y-123200000D03*
%TO.P,U2,20,GPIO15*%
%TO.N,/IO/GPIO15*%
X124760000Y-123200000D03*
%TO.P,U2,21,GPIO16*%
%TO.N,/IO/GPIO16*%
X124760000Y-105420000D03*
%TO.P,U2,22,GPIO17*%
%TO.N,/IO/GPIO17*%
X122220000Y-105420000D03*
D18*
%TO.P,U2,23,GND*%
%TO.N,GND*%
X119680000Y-105420000D03*
D19*
%TO.P,U2,24,GPIO18*%
%TO.N,/IO/GPIO18*%
X117140000Y-105420000D03*
%TO.P,U2,25,GPIO19*%
%TO.N,/IO/GPIO19*%
X114600000Y-105420000D03*
%TO.P,U2,26,GPIO20*%
%TO.N,/IO/GPIO20*%
X112060000Y-105420000D03*
%TO.P,U2,27,GPIO21*%
%TO.N,/IO/GPIO21*%
X109520000Y-105420000D03*
D18*
%TO.P,U2,28,GND*%
%TO.N,GND*%
X106980000Y-105420000D03*
D19*
%TO.P,U2,29,GPIO22*%
%TO.N,/IO/GPIO22*%
X104440000Y-105420000D03*
%TO.P,U2,30,RUN*%
%TO.N,unconnected-(U2-RUN-Pad30)*%
X101900000Y-105420000D03*
%TO.P,U2,31,GPIO26_ADC0*%
%TO.N,/IO/GPIO23*%
X99360000Y-105420000D03*
%TO.P,U2,32,GPIO27_ADC1*%
%TO.N,/IO/GPIO24*%
X96820000Y-105420000D03*
D18*
%TO.P,U2,33,AGND*%
%TO.N,GND*%
X94280000Y-105420000D03*
D19*
%TO.P,U2,34,GPIO28_ADC2*%
%TO.N,/IO/GPIO25*%
X91740000Y-105420000D03*
%TO.P,U2,35,ADC_VREF*%
%TO.N,unconnected-(U2-ADC_VREF-Pad35)*%
X89200000Y-105420000D03*
%TO.P,U2,36,3V3*%
%TO.N,+3.3VP*%
X86660000Y-105420000D03*
%TO.P,U2,37,3V3_EN*%
%TO.N,unconnected-(U2-3V3_EN-Pad37)*%
X84120000Y-105420000D03*
D18*
%TO.P,U2,38,GND*%
%TO.N,GND*%
X81580000Y-105420000D03*
D19*
%TO.P,U2,39,VSYS*%
%TO.N,unconnected-(U2-VSYS-Pad39)*%
X79040000Y-105420000D03*
%TO.P,U2,40,VBUS*%
%TO.N,+5V*%
X76500000Y-105420000D03*
%TO.P,U2,41,SWCLK*%
%TO.N,unconnected-(U2-SWCLK-Pad41)*%
X124530000Y-116850000D03*
D18*
%TO.P,U2,42,GND*%
%TO.N,GND*%
X124530000Y-114310000D03*
D19*
%TO.P,U2,43,SWDIO*%
%TO.N,unconnected-(U2-SWDIO-Pad43)*%
X124530000Y-111770000D03*
%TD*%
D11*
%TO.P,C5,1*%
%TO.N,/Video Processing/IN G*%
X95550000Y-70500000D03*
%TO.P,C5,2*%
%TO.N,/Video Processing/GIN2*%
X90550000Y-70500000D03*
%TD*%
D20*
%TO.P,Q2,1,C*%
%TO.N,+5V*%
X104310000Y-70600000D03*
D21*
%TO.P,Q2,2,B*%
%TO.N,Net-(Q1-C)*%
X105580000Y-70600000D03*
%TO.P,Q2,3,E*%
%TO.N,Net-(Q2-E)*%
X106850000Y-70600000D03*
%TD*%
D22*
%TO.P,H2,1,1*%
%TO.N,GND*%
X210870000Y-132975000D03*
%TD*%
D12*
%TO.P,R1,1*%
%TO.N,Net-(J1-Pin_13)*%
X131790001Y-66075000D03*
D13*
%TO.P,R1,2*%
%TO.N,Net-(C1-Pad1)*%
X124170001Y-66075000D03*
%TD*%
D12*
%TO.P,R6,1*%
%TO.N,Net-(Q2-E)*%
X100600000Y-71845000D03*
D13*
%TO.P,R6,2*%
%TO.N,Net-(R6-Pad2)*%
X100600000Y-64225000D03*
%TD*%
D22*
%TO.P,H1,1,1*%
%TO.N,GND*%
X79270000Y-49475000D03*
%TD*%
D12*
%TO.P,R13,1*%
%TO.N,/Video Processing/FBLIN2*%
X98250000Y-64500000D03*
D13*
%TO.P,R13,2*%
%TO.N,GND*%
X98250000Y-56880000D03*
%TD*%
D18*
%TO.P,J8,1,Pin_1*%
%TO.N,/IO/PS_DAT_2*%
X208495000Y-68207500D03*
D19*
%TO.P,J8,2,Pin_2*%
%TO.N,/IO/PS_CMD_2*%
X204495000Y-68207500D03*
%TO.P,J8,3,Pin_3*%
%TO.N,unconnected-(J8-Pin_3-Pad3)*%
X200495000Y-68207500D03*
%TO.P,J8,4,Pin_4*%
%TO.N,GND*%
X196495000Y-68207500D03*
%TO.P,J8,5,Pin_5*%
%TO.N,+3.3V*%
X192495000Y-68207500D03*
%TO.P,J8,6,Pin_6*%
%TO.N,/IO/~{PS_ATT_2}*%
X188495000Y-68207500D03*
%TO.P,J8,7,Pin_7*%
%TO.N,/IO/PS_CLK_2*%
X184495000Y-68207500D03*
%TO.P,J8,8,Pin_8*%
%TO.N,unconnected-(J8-Pin_8-Pad8)*%
X180495000Y-68207500D03*
%TO.P,J8,9,Pin_9*%
%TO.N,/IO/PS_ACK_2*%
X176495000Y-68207500D03*
%TD*%
D23*
%TO.P,J1,0*%
%TO.N,N/C*%
X123565000Y-50950001D03*
X98565000Y-50950000D03*
D10*
%TO.P,J1,1,Pin_1*%
%TO.N,/Video Processing/IN R*%
X106750000Y-53000000D03*
D11*
%TO.P,J1,2,Pin_2*%
%TO.N,unconnected-(J1-Pin_2-Pad2)*%
X109040001Y-53000000D03*
%TO.P,J1,3,Pin_3*%
%TO.N,/Video Processing/IN G*%
X111330000Y-53000000D03*
%TO.P,J1,4,Pin_4*%
%TO.N,unconnected-(J1-Pin_4-Pad4)*%
X113620001Y-53000000D03*
%TO.P,J1,5,Pin_5*%
%TO.N,/Video Processing/IN B*%
X115910000Y-53000000D03*
%TO.P,J1,6,Pin_6*%
%TO.N,unconnected-(J1-Pin_6-Pad6)*%
X105605000Y-51020000D03*
%TO.P,J1,7,Pin_7*%
%TO.N,unconnected-(J1-Pin_7-Pad7)*%
X107895000Y-51020000D03*
%TO.P,J1,8,Pin_8*%
%TO.N,unconnected-(J1-Pin_8-Pad8)*%
X110185000Y-51020000D03*
%TO.P,J1,9,Pin_9*%
%TO.N,unconnected-(J1-Pin_9-Pad9)*%
X112475000Y-51020000D03*
%TO.P,J1,10,Pin_10*%
%TO.N,GND*%
X114765000Y-51020000D03*
%TO.P,J1,11,Pin_11*%
%TO.N,unconnected-(J1-Pin_11-Pad11)*%
X106750000Y-49040000D03*
%TO.P,J1,12,Pin_12*%
%TO.N,unconnected-(J1-Pin_12-Pad12)*%
X109040000Y-49040000D03*
%TO.P,J1,13,Pin_13*%
%TO.N,Net-(J1-Pin_13)*%
X111330000Y-49040000D03*
%TO.P,J1,14,Pin_14*%
%TO.N,Net-(J1-Pin_14)*%
X113620000Y-49040000D03*
%TO.P,J1,15,Pin_15*%
%TO.N,unconnected-(J1-Pin_15-Pad15)*%
X115910000Y-49040000D03*
%TD*%
D19*
%TO.P,U3,1,GPIO0*%
%TO.N,/IO/SDA*%
X145350000Y-46750000D03*
%TO.P,U3,2,GPIO1*%
%TO.N,/IO/SCL*%
X145350000Y-49290000D03*
D18*
%TO.P,U3,3,GND*%
%TO.N,GND*%
X145350000Y-51830000D03*
D19*
%TO.P,U3,4,GPIO2*%
%TO.N,/IO/GPIO26*%
X145350000Y-54370000D03*
%TO.P,U3,5,GPIO3*%
%TO.N,/IO/GPIO27*%
X145350000Y-56910000D03*
%TO.P,U3,6,GPIO4*%
%TO.N,/IO/GPIO28*%
X145350000Y-59450000D03*
%TO.P,U3,7,GPIO5*%
%TO.N,/IO/GPIO29*%
X145350000Y-61990000D03*
D18*
%TO.P,U3,8,GND*%
%TO.N,GND*%
X145350000Y-64530000D03*
D19*
%TO.P,U3,9,GPIO6*%
%TO.N,/IO/GPIO30*%
X145350000Y-67070000D03*
%TO.P,U3,10,GPIO7*%
%TO.N,/IO/GPIO31*%
X145350000Y-69610000D03*
%TO.P,U3,11,GPIO8*%
%TO.N,/IO/GPIO32*%
X145350000Y-72150000D03*
%TO.P,U3,12,GPIO9*%
%TO.N,/IO/GPIO33*%
X145350000Y-74690000D03*
D18*
%TO.P,U3,13,GND*%
%TO.N,GND*%
X145350000Y-77230000D03*
D19*
%TO.P,U3,14,GPIO10*%
%TO.N,/IO/GPIO34*%
X145350000Y-79770000D03*
%TO.P,U3,15,GPIO11*%
%TO.N,/IO/GPIO35*%
X145350000Y-82310000D03*
%TO.P,U3,16,GPIO12*%
%TO.N,/IO/GPIO36*%
X145350000Y-84850000D03*
%TO.P,U3,17,GPIO13*%
%TO.N,/IO/GPIO37*%
X145350000Y-87390000D03*
D18*
%TO.P,U3,18,GND*%
%TO.N,GND*%
X145350000Y-89930000D03*
D19*
%TO.P,U3,19,GPIO14*%
%TO.N,/IO/GPIO38*%
X145350000Y-92470000D03*
%TO.P,U3,20,GPIO15*%
%TO.N,/IO/GPIO39*%
X145350000Y-95010000D03*
%TO.P,U3,21,GPIO16*%
%TO.N,/IO/GPIO40*%
X163130000Y-95010000D03*
%TO.P,U3,22,GPIO17*%
%TO.N,/IO/GPIO41*%
X163130000Y-92470000D03*
D18*
%TO.P,U3,23,GND*%
%TO.N,GND*%
X163130000Y-89930000D03*
D19*
%TO.P,U3,24,GPIO18*%
%TO.N,/IO/PS_CLK_1*%
X163130000Y-87390000D03*
%TO.P,U3,25,GPIO19*%
%TO.N,/IO/PS_CMD_1*%
X163130000Y-84850000D03*
%TO.P,U3,26,GPIO20*%
%TO.N,/IO/PS_DAT_1*%
X163130000Y-82310000D03*
%TO.P,U3,27,GPIO21*%
%TO.N,/IO/~{PS_ATT_1}*%
X163130000Y-79770000D03*
D18*
%TO.P,U3,28,GND*%
%TO.N,GND*%
X163130000Y-77230000D03*
D19*
%TO.P,U3,29,GPIO22*%
%TO.N,/IO/PS_CLK_2*%
X163130000Y-74690000D03*
%TO.P,U3,30,RUN*%
%TO.N,unconnected-(U3-RUN-Pad30)*%
X163130000Y-72150000D03*
%TO.P,U3,31,GPIO26_ADC0*%
%TO.N,/IO/PS_CMD_2*%
X163130000Y-69610000D03*
%TO.P,U3,32,GPIO27_ADC1*%
%TO.N,/IO/PS_DAT_2*%
X163130000Y-67070000D03*
D18*
%TO.P,U3,33,AGND*%
%TO.N,unconnected-(U3-AGND-Pad33)*%
X163130000Y-64530000D03*
D19*
%TO.P,U3,34,GPIO28_ADC2*%
%TO.N,/IO/~{PS_ATT_2}*%
X163130000Y-61990000D03*
%TO.P,U3,35,ADC_VREF*%
%TO.N,unconnected-(U3-ADC_VREF-Pad35)*%
X163130000Y-59450000D03*
%TO.P,U3,36,3V3*%
%TO.N,+3.3V*%
X163130000Y-56910000D03*
%TO.P,U3,37,3V3_EN*%
%TO.N,unconnected-(U3-3V3_EN-Pad37)*%
X163130000Y-54370000D03*
D18*
%TO.P,U3,38,GND*%
%TO.N,GND*%
X163130000Y-51830000D03*
D19*
%TO.P,U3,39,VSYS*%
%TO.N,unconnected-(U3-VSYS-Pad39)*%
X163130000Y-49290000D03*
%TO.P,U3,40,VBUS*%
%TO.N,+5V*%
X163130000Y-46750000D03*
%TO.P,U3,41,SWCLK*%
%TO.N,unconnected-(U3-SWCLK-Pad41)*%
X151700000Y-94780000D03*
D18*
%TO.P,U3,42,GND*%
%TO.N,GND*%
X154240000Y-94780000D03*
D19*
%TO.P,U3,43,SWDIO*%
%TO.N,unconnected-(U3-SWDIO-Pad43)*%
X156780000Y-94780000D03*
%TD*%
D20*
%TO.P,Q1,1,C*%
%TO.N,Net-(Q1-C)*%
X104310000Y-65745000D03*
D21*
%TO.P,Q1,2,B*%
%TO.N,Net-(Q1-B)*%
X105580001Y-65745000D03*
%TO.P,Q1,3,E*%
%TO.N,GND*%
X106850000Y-65745000D03*
%TD*%
D12*
%TO.P,R8,1*%
%TO.N,/Video Processing/AV1-1*%
X108220000Y-59095000D03*
D13*
%TO.P,R8,2*%
%TO.N,Net-(R6-Pad2)*%
X100600000Y-59095000D03*
%TD*%
D16*
%TO.P,J3,1,Pin_1*%
%TO.N,/IO/GPIO0*%
X78069999Y-132925000D03*
D17*
%TO.P,J3,2,Pin_2*%
%TO.N,/IO/GPIO1*%
X83069999Y-132925000D03*
%TO.P,J3,3,Pin_3*%
%TO.N,/IO/GPIO2*%
X88069999Y-132925000D03*
%TO.P,J3,4,Pin_4*%
%TO.N,/IO/GPIO3*%
X93069999Y-132925000D03*
%TO.P,J3,5,Pin_5*%
%TO.N,/IO/GPIO4*%
X98070000Y-132925000D03*
%TO.P,J3,6,Pin_6*%
%TO.N,/IO/GPIO5*%
X103070000Y-132925000D03*
%TO.P,J3,7,Pin_7*%
%TO.N,/IO/GPIO6*%
X108069998Y-132925000D03*
%TO.P,J3,8,Pin_8*%
%TO.N,/IO/GPIO7*%
X113069999Y-132925000D03*
%TO.P,J3,9,Pin_9*%
%TO.N,/IO/GPIO8*%
X118069999Y-132925000D03*
%TO.P,J3,10,Pin_10*%
%TO.N,/IO/GPIO9*%
X123069999Y-132925000D03*
%TO.P,J3,11,Pin_11*%
%TO.N,/IO/GPIO10*%
X128069999Y-132925000D03*
%TO.P,J3,12,Pin_12*%
%TO.N,/IO/GPIO11*%
X133069999Y-132925000D03*
%TO.P,J3,13,Pin_13*%
%TO.N,/IO/GPIO12*%
X138069999Y-132925000D03*
%TD*%
D10*
%TO.P,U1,1*%
%TO.N,Net-(J1-Pin_13)*%
X121540001Y-73695000D03*
D24*
%TO.P,U1,2*%
%TO.N,Net-(C1-Pad1)*%
X121540001Y-71155000D03*
%TO.P,U1,3*%
%TO.N,Net-(U1-Pad3)*%
X121540001Y-68615001D03*
%TO.P,U1,4*%
%TO.N,Net-(J1-Pin_14)*%
X121540001Y-66075000D03*
%TO.P,U1,5*%
%TO.N,Net-(C2-Pad1)*%
X121540001Y-63535000D03*
%TO.P,U1,6*%
%TO.N,Net-(U1-Pad10)*%
X121540001Y-60995000D03*
%TO.P,U1,7,GND*%
%TO.N,GND*%
X121540001Y-58455000D03*
%TO.P,U1,8*%
%TO.N,Net-(U1-Pad12)*%
X113920001Y-58455000D03*
%TO.P,U1,9*%
%TO.N,Net-(U1-Pad3)*%
X113920001Y-60995000D03*
%TO.P,U1,10*%
%TO.N,Net-(U1-Pad10)*%
X113920001Y-63535000D03*
%TO.P,U1,11*%
%TO.N,Net-(R3-Pad1)*%
X113920001Y-66075000D03*
%TO.P,U1,12*%
%TO.N,Net-(U1-Pad12)*%
X113920001Y-68615000D03*
%TO.P,U1,13*%
%TO.N,GND*%
X113920001Y-71155000D03*
%TO.P,U1,14,VCC*%
%TO.N,+5V*%
X113920001Y-73695000D03*
%TD*%
D11*
%TO.P,C7,1*%
%TO.N,/Video Processing/IN B*%
X95550000Y-73800000D03*
%TO.P,C7,2*%
%TO.N,/Video Processing/BIN2*%
X90550000Y-73800000D03*
%TD*%
D10*
%TO.P,C1,1*%
%TO.N,Net-(C1-Pad1)*%
X127040001Y-69619887D03*
D11*
%TO.P,C1,2*%
%TO.N,GND*%
X127040001Y-72119887D03*
%TD*%
D12*
%TO.P,R12,1*%
%TO.N,+5V*%
X98250000Y-74270000D03*
D13*
%TO.P,R12,2*%
%TO.N,/Video Processing/FBLIN2*%
X98250000Y-66650000D03*
%TD*%
D16*
%TO.P,J5,1,Pin_1*%
%TO.N,/IO/GPIO26*%
X100300000Y-86350000D03*
D17*
%TO.P,J5,2,Pin_2*%
%TO.N,/IO/GPIO27*%
X105300000Y-86350000D03*
%TO.P,J5,3,Pin_3*%
%TO.N,/IO/GPIO28*%
X110300000Y-86350000D03*
%TO.P,J5,4,Pin_4*%
%TO.N,/IO/GPIO29*%
X115300000Y-86350000D03*
%TO.P,J5,5,Pin_5*%
%TO.N,/IO/GPIO30*%
X120300000Y-86350000D03*
%TO.P,J5,6,Pin_6*%
%TO.N,/IO/GPIO31*%
X125300000Y-86350000D03*
%TO.P,J5,7,Pin_7*%
%TO.N,/IO/GPIO32*%
X130300000Y-86350000D03*
%TO.P,J5,8,Pin_8*%
%TO.N,/IO/GPIO33*%
X135300000Y-86350000D03*
%TD*%
D22*
%TO.P,H2,1,1*%
%TO.N,GND*%
X134300000Y-49475000D03*
%TD*%
D25*
%TO.N,/Video Processing/AV1-1*%
X134955148Y-76755148D03*
X138349265Y-80149265D03*
%TD*%
D26*
%TO.N,+3.3VP*%
X191000000Y-122975000D02*
X191000000Y-110900000D01*
X191000000Y-110900000D02*
X191000000Y-105395000D01*
X191000000Y-105395000D02*
X192170000Y-104225000D01*
%TO.N,/IO/PS_CMD_1*%
X193350000Y-115045000D02*
X192170000Y-116225000D01*
X186609314Y-97025000D02*
X193350000Y-103765686D01*
X182709315Y-97025000D02*
X186609314Y-97025000D01*
X163130000Y-84850000D02*
X170534314Y-84850000D01*
X170534314Y-84850000D02*
X182709315Y-97025000D01*
X193350000Y-103765686D02*
X193350000Y-115045000D01*
%TO.N,/IO/PS_DAT_1*%
X193750000Y-118645000D02*
X192170000Y-120225000D01*
X193750000Y-103600000D02*
X193750000Y-118645000D01*
X168560000Y-82310000D02*
X182875000Y-96625000D01*
X182875000Y-96625000D02*
X186775000Y-96625000D01*
X186775000Y-96625000D02*
X193750000Y-103600000D01*
X163130000Y-82310000D02*
X168560000Y-82310000D01*
%TO.N,+3.3V*%
X192495000Y-68207500D02*
X189387500Y-65100000D01*
X189387500Y-65100000D02*
X184050000Y-65100000D01*
X184050000Y-65100000D02*
X166805686Y-65100000D01*
%TO.N,GND*%
X116890000Y-72424999D02*
X126734889Y-72424998D01*
X115620001Y-71155000D02*
X116890000Y-72424999D01*
X126734889Y-72424998D02*
X127040001Y-72119887D01*
X113920000Y-71155000D02*
X115620001Y-71155000D01*
%TO.N,Net-(C1-Pad1)*%
X125264888Y-69619887D02*
X124170001Y-68525000D01*
X124170001Y-68525000D02*
X121540001Y-71155000D01*
X127040001Y-69619887D02*
X125264888Y-69619887D01*
X124170000Y-66075000D02*
X124170001Y-68525000D01*
%TO.N,Net-(C2-Pad1)*%
X124170000Y-63575000D02*
X124130001Y-63535000D01*
X124130001Y-63535000D02*
X121540001Y-63535000D01*
X127040001Y-60075000D02*
X127040001Y-60705000D01*
X127040001Y-60705000D02*
X124170000Y-63575000D01*
%TO.N,Net-(J1-Pin_14)*%
X110230000Y-48584365D02*
X110874365Y-47940000D01*
X110230000Y-49419365D02*
X110230000Y-48584365D01*
X112520000Y-47940000D02*
X113620000Y-49040000D01*
X109085000Y-51399366D02*
X109085000Y-50564365D01*
X126907256Y-55654314D02*
X111862993Y-55654314D01*
X108584366Y-54100000D02*
X107940001Y-53455635D01*
X107940001Y-53455635D02*
X107940001Y-52544365D01*
X110874365Y-47940000D02*
X112520000Y-47940000D01*
X107940001Y-52544365D02*
X109085000Y-51399366D01*
X122770001Y-64845000D02*
X121540001Y-66075001D01*
X131790001Y-63575000D02*
X131790001Y-60537059D01*
X130520001Y-64845000D02*
X122770001Y-64845000D01*
X131790001Y-60537059D02*
X126907256Y-55654314D01*
X109085000Y-50564365D02*
X110230000Y-49419365D01*
X111862993Y-55654314D02*
X110308679Y-54100000D01*
X131790001Y-63575000D02*
X130520001Y-64845000D01*
X110308679Y-54100000D02*
X108584366Y-54100000D01*
%TO.N,Net-(J1-Pin_13)*%
X132850000Y-61031372D02*
X127072941Y-55254314D01*
X132850000Y-65015001D02*
X132850000Y-61031372D01*
X111330000Y-51444365D02*
X111330000Y-49040000D01*
X110230000Y-52544365D02*
X111330000Y-51444365D01*
X110230000Y-53455635D02*
X110230000Y-52544365D01*
X131790001Y-69659999D02*
X127755000Y-73695000D01*
X131790001Y-66075000D02*
X131790001Y-69659999D01*
X112028679Y-55254314D02*
X110230000Y-53455635D01*
X127755000Y-73695000D02*
X121540001Y-73695000D01*
X131790001Y-66075000D02*
X132850000Y-65015001D01*
X127072941Y-55254314D02*
X112028679Y-55254314D01*
%TO.N,Net-(Q1-C)*%
X100540001Y-74075000D02*
X103375000Y-74075000D01*
X105580000Y-71870000D02*
X105580000Y-70600000D01*
X105580000Y-68830000D02*
X104310000Y-67560000D01*
X104310000Y-67560000D02*
X104310000Y-65745000D01*
X105580000Y-70600000D02*
X105580000Y-68830000D01*
X103375000Y-74075000D02*
X105580000Y-71870000D01*
%TO.N,Net-(Q1-B)*%
X111040001Y-64095000D02*
X111040001Y-66475000D01*
X105580001Y-65745000D02*
X105580001Y-64369999D01*
X105580001Y-64369999D02*
X105855000Y-64095000D01*
X105855000Y-64095000D02*
X111040001Y-64095000D01*
%TO.N,Net-(Q2-E)*%
X106850000Y-72200000D02*
X103750000Y-75300000D01*
X106850000Y-70600000D02*
X106850000Y-72200000D01*
X99450000Y-72995000D02*
X100600000Y-71845000D01*
X103750000Y-75300000D02*
X100050000Y-75300000D01*
X100050000Y-75300000D02*
X99450000Y-74700000D01*
X99450000Y-74700000D02*
X99450000Y-72995000D01*
%TO.N,Net-(R3-Pad1)*%
X114600000Y-69845000D02*
X115350000Y-69095000D01*
X115350000Y-69095000D02*
X115350000Y-67504999D01*
X111040001Y-71485000D02*
X112680001Y-69845000D01*
X115350000Y-67504999D02*
X113920001Y-66075000D01*
X111040001Y-74095000D02*
X111040001Y-71485000D01*
X112680001Y-69845000D02*
X114600000Y-69845000D01*
%TO.N,Net-(R6-Pad2)*%
X100600000Y-64225000D02*
X100600000Y-59095000D01*
%TO.N,Net-(U1-Pad10)*%
X121540001Y-60995000D02*
X118855000Y-60995000D01*
X116315000Y-63535000D02*
X113920001Y-63535000D01*
X118855000Y-60995000D02*
X116315000Y-63535000D01*
%TO.N,Net-(U1-Pad12)*%
X112550000Y-67244999D02*
X113920001Y-68615000D01*
X113920000Y-58455000D02*
X112550000Y-59825000D01*
X112550000Y-59825000D02*
X112550000Y-67244999D01*
%TO.N,Net-(U1-Pad3)*%
X120100000Y-63007183D02*
X120807183Y-62300000D01*
X122205000Y-59700000D02*
X115215000Y-59700000D01*
X122145000Y-62300000D02*
X122850000Y-61595000D01*
X122850000Y-60345000D02*
X122205000Y-59700000D01*
X120100001Y-67175000D02*
X120100000Y-63007183D01*
X120807183Y-62300000D02*
X122145000Y-62300000D01*
X122850000Y-61595000D02*
X122850000Y-60345000D01*
X121540002Y-68615001D02*
X120100001Y-67175000D01*
X115215000Y-59700000D02*
X113920000Y-60995000D01*
%TO.N,+3.3V*%
X166805686Y-65100000D02*
X164280000Y-62574314D01*
X164280000Y-62574314D02*
X164280000Y-58060000D01*
X164280000Y-58060000D02*
X163130000Y-56910000D01*
%TO.N,+3.3VP*%
X91440000Y-100650000D02*
X128517546Y-100650000D01*
X186750000Y-127225000D02*
X191000000Y-122975000D01*
X155092546Y-127225000D02*
X186750000Y-127225000D01*
X128517546Y-100650000D02*
X155092546Y-127225000D01*
X86680000Y-105410000D02*
X91440000Y-100650000D01*
%TO.N,/Video Processing/GIN2*%
X87245000Y-70500000D02*
X85672500Y-68927500D01*
X80370001Y-63625001D02*
X85672500Y-68927500D01*
X90550000Y-70500000D02*
X87245000Y-70500000D01*
%TO.N,/Video Processing/BIN2*%
X85570000Y-73825000D02*
X90550000Y-73825000D01*
X80370001Y-68625001D02*
X85570000Y-73825000D01*
%TO.N,/IO/SDA*%
X100384314Y-77400000D02*
X89184315Y-88599999D01*
X89184315Y-88599999D02*
X80350000Y-88599999D01*
X141400000Y-50700000D02*
X141400000Y-71158826D01*
X141400000Y-71158826D02*
X135158826Y-77400000D01*
X135158826Y-77400000D02*
X100384314Y-77400000D01*
X145350000Y-46750000D02*
X141400000Y-50700000D01*
%TO.N,/IO/SCL*%
X145350000Y-49290000D02*
X141800000Y-52840000D01*
X141800000Y-71324512D02*
X135324512Y-77800000D01*
X135324512Y-77800000D02*
X100550000Y-77800000D01*
X100550000Y-77800000D02*
X84750000Y-93600000D01*
X84750000Y-93600000D02*
X80350000Y-93600000D01*
X141800000Y-52840000D02*
X141800000Y-71324512D01*
%TO.N,/IO/GPIO9*%
X104460000Y-123190000D02*
X104573629Y-123303629D01*
X104580000Y-123303629D02*
X110176371Y-128900000D01*
X119044999Y-128900000D02*
X123069999Y-132925000D01*
X104573629Y-123303629D02*
X104580000Y-123303629D01*
X110176371Y-128900000D02*
X119044999Y-128900000D01*
%TO.N,/IO/GPIO8*%
X118069999Y-132925000D02*
X114444999Y-129300000D01*
X114444999Y-129300000D02*
X108030000Y-129300000D01*
X108030000Y-129300000D02*
X101920000Y-123190000D01*
%TO.N,/IO/GPIO7*%
X109844999Y-129700000D02*
X113069999Y-132925000D01*
X99490000Y-123300000D02*
X99500000Y-123300000D01*
X99380000Y-123190000D02*
X99490000Y-123300000D01*
X105900000Y-129700000D02*
X109844999Y-129700000D01*
X99500000Y-123300000D02*
X105900000Y-129700000D01*
%TO.N,/IO/GPIO0*%
X76520000Y-123190000D02*
X78069999Y-124739999D01*
X78069999Y-124739999D02*
X78069999Y-132925000D01*
%TO.N,/IO/GPIO4*%
X98070000Y-132040000D02*
X98070000Y-132925000D01*
X89220000Y-123190000D02*
X98070000Y-132040000D01*
%TO.N,/IO/GPIO10*%
X114950000Y-128500000D02*
X109660000Y-123210000D01*
X109560000Y-123210000D02*
X109540000Y-123190000D01*
X128069999Y-132925000D02*
X123644999Y-128500000D01*
X109660000Y-123210000D02*
X109560000Y-123210000D01*
X123644999Y-128500000D02*
X114950000Y-128500000D01*
%TO.N,/IO/GPIO1*%
X79060000Y-123190000D02*
X83069999Y-127199999D01*
X83069999Y-127199999D02*
X83069999Y-132925000D01*
%TO.N,/IO/GPIO3*%
X86680000Y-123190000D02*
X93069999Y-129579999D01*
X93069999Y-129579999D02*
X93069999Y-132925000D01*
%TO.N,/IO/GPIO6*%
X108069998Y-132925000D02*
X105194998Y-130050000D01*
X105194998Y-130050000D02*
X103700000Y-130050000D01*
X103700000Y-130050000D02*
X96840000Y-123190000D01*
%TO.N,/IO/GPIO2*%
X84140000Y-123190000D02*
X88069999Y-127119999D01*
X88069999Y-127119999D02*
X88069999Y-132925000D01*
%TO.N,/IO/GPIO12*%
X138069999Y-132925000D02*
X132844999Y-127700000D01*
X119130000Y-127700000D02*
X114620000Y-123190000D01*
X132844999Y-127700000D02*
X119130000Y-127700000D01*
%TO.N,/IO/GPIO5*%
X91740000Y-123200000D02*
X98940000Y-130400000D01*
X98940000Y-130400000D02*
X100545000Y-130400000D01*
X100545000Y-130400000D02*
X103070000Y-132925000D01*
%TO.N,/IO/GPIO11*%
X133069999Y-132925000D02*
X128244999Y-128100000D01*
X112200000Y-123350000D02*
X112200000Y-123310000D01*
X116950000Y-128100000D02*
X112200000Y-123350000D01*
X112200000Y-123310000D02*
X112080000Y-123190000D01*
X128244999Y-128100000D02*
X116950000Y-128100000D01*
%TO.N,/IO/GPIO17*%
X127036372Y-104260000D02*
X153601372Y-130825000D01*
X153601372Y-130825000D02*
X162470001Y-130825000D01*
X162470001Y-130825000D02*
X164670001Y-133025000D01*
X123390000Y-104260000D02*
X127036372Y-104260000D01*
X122240000Y-105410000D02*
X123390000Y-104260000D01*
%TO.N,/IO/GPIO26*%
X145350000Y-54370000D02*
X142200000Y-57520000D01*
X142200000Y-71490198D02*
X135490198Y-78200000D01*
X100300000Y-82350000D02*
X100300000Y-86350000D01*
X135490198Y-78200000D02*
X104450000Y-78200000D01*
X104450000Y-78200000D02*
X100300000Y-82350000D01*
X142200000Y-57520000D02*
X142200000Y-71490198D01*
%TO.N,/IO/GPIO13*%
X117160000Y-123190000D02*
X117280000Y-123310000D01*
X117280000Y-123330000D02*
X121250000Y-127300000D01*
X117280000Y-123310000D02*
X117280000Y-123330000D01*
X121250000Y-127300000D02*
X138945000Y-127300000D01*
X138945000Y-127300000D02*
X144670000Y-133025000D01*
%TO.N,/IO/GPIO14*%
X126100000Y-126900000D02*
X122360000Y-123160000D01*
X122360000Y-123160000D02*
X122270000Y-123160000D01*
X122270000Y-123160000D02*
X122240000Y-123190000D01*
X143545000Y-126900000D02*
X126100000Y-126900000D01*
X149670000Y-133025000D02*
X143545000Y-126900000D01*
%TO.N,/IO/GPIO18*%
X167070001Y-130425000D02*
X169670001Y-133025000D01*
X118710000Y-103860000D02*
X127202058Y-103860000D01*
X153767058Y-130425000D02*
X167070001Y-130425000D01*
X127202058Y-103860000D02*
X153767058Y-130425000D01*
X117160000Y-105410000D02*
X118710000Y-103860000D01*
%TO.N,/IO/GPIO20*%
X127523432Y-103050000D02*
X154098430Y-129625000D01*
X114440000Y-103050000D02*
X127523432Y-103050000D01*
X176270000Y-129625000D02*
X179670000Y-133025000D01*
X112080000Y-105410000D02*
X114440000Y-103050000D01*
X154098430Y-129625000D02*
X176270000Y-129625000D01*
%TO.N,/IO/GPIO22*%
X185470000Y-128825000D02*
X189670000Y-133025000D01*
X104460000Y-105410000D02*
X107620000Y-102250000D01*
X127854802Y-102250000D02*
X154429802Y-128825000D01*
X107620000Y-102250000D02*
X127854802Y-102250000D01*
X154429802Y-128825000D02*
X185470000Y-128825000D01*
%TO.N,/IO/GPIO27*%
X145350000Y-56910000D02*
X142600000Y-59660000D01*
X135655884Y-78600000D02*
X109050000Y-78600000D01*
X105300000Y-82350000D02*
X105300000Y-86350000D01*
X142600000Y-59660000D02*
X142600000Y-71655884D01*
X109050000Y-78600000D02*
X105300000Y-82350000D01*
X142600000Y-71655884D02*
X135655884Y-78600000D01*
%TO.N,/IO/GPIO15*%
X124890000Y-123300000D02*
X124900000Y-123300000D01*
X124780000Y-123190000D02*
X124890000Y-123300000D01*
X148145000Y-126500000D02*
X154670000Y-133025000D01*
X124900000Y-123300000D02*
X128100000Y-126500000D01*
X128100000Y-126500000D02*
X148145000Y-126500000D01*
%TO.N,/IO/GPIO28*%
X110300000Y-82350000D02*
X110300000Y-86350000D01*
X143000000Y-61800000D02*
X143000000Y-71821570D01*
X143000000Y-71821570D02*
X135821570Y-79000000D01*
X145350000Y-59450000D02*
X143000000Y-61800000D01*
X135821570Y-79000000D02*
X113650000Y-79000000D01*
X113650000Y-79000000D02*
X110300000Y-82350000D01*
%TO.N,/IO/GPIO21*%
X112300000Y-102650000D02*
X127689118Y-102650000D01*
X109540000Y-105410000D02*
X112300000Y-102650000D01*
X180870000Y-129225000D02*
X184670000Y-133025000D01*
X127689118Y-102650000D02*
X154264116Y-129225000D01*
X154264116Y-129225000D02*
X180870000Y-129225000D01*
%TO.N,/IO/GPIO19*%
X153932744Y-130025000D02*
X171669999Y-130025000D01*
X114620000Y-105410000D02*
X116570000Y-103460000D01*
X171669999Y-130025000D02*
X174669999Y-133025000D01*
X116570000Y-103460000D02*
X127367746Y-103460000D01*
X127367746Y-103460000D02*
X153932744Y-130025000D01*
%TO.N,/IO/GPIO16*%
X124780000Y-105410000D02*
X127620686Y-105410000D01*
X157870000Y-131225000D02*
X159670000Y-133025000D01*
X127620686Y-105410000D02*
X153435686Y-131225000D01*
X153435686Y-131225000D02*
X157870000Y-131225000D01*
%TO.N,/IO/GPIO31*%
X145350000Y-69610000D02*
X144200000Y-70760000D01*
X144200000Y-70760000D02*
X144200000Y-72318628D01*
X127450000Y-80200000D02*
X125300000Y-82350000D01*
X136318628Y-80200000D02*
X127450000Y-80200000D01*
X125300000Y-82350000D02*
X125300000Y-86350000D01*
X144200000Y-72318628D02*
X136318628Y-80200000D01*
%TO.N,/IO/GPIO30*%
X120300000Y-82350000D02*
X120300000Y-86350000D01*
X143800000Y-68620000D02*
X143800000Y-72152942D01*
X143800000Y-72152942D02*
X136152942Y-79800000D01*
X145350000Y-67070000D02*
X143800000Y-68620000D01*
X122850000Y-79800000D02*
X120300000Y-82350000D01*
X136152942Y-79800000D02*
X122850000Y-79800000D01*
%TO.N,/IO/GPIO33*%
X145350000Y-74690000D02*
X142960000Y-74690000D01*
X142960000Y-74690000D02*
X135300000Y-82350000D01*
X135300000Y-82350000D02*
X135300000Y-86350000D01*
%TO.N,/IO/GPIO36*%
X143390000Y-95812718D02*
X147352284Y-99775000D01*
X147352284Y-99775000D02*
X149319999Y-99775000D01*
X145340000Y-84845000D02*
X143390000Y-86795000D01*
X149319999Y-99775000D02*
X154319999Y-104775000D01*
X143390000Y-86795000D02*
X143390000Y-95812718D01*
%TO.N,/IO/GPIO34*%
X144319999Y-104775000D02*
X142590000Y-103045001D01*
X142590000Y-82515000D02*
X145340000Y-79765000D01*
X142590000Y-103045001D02*
X142590000Y-82515000D01*
%TO.N,/IO/GPIO29*%
X115300000Y-82350000D02*
X115300000Y-86350000D01*
X143400000Y-71987256D02*
X135987256Y-79400000D01*
X143400000Y-63940000D02*
X143400000Y-71987256D01*
X118250000Y-79400000D02*
X115300000Y-82350000D01*
X135987256Y-79400000D02*
X118250000Y-79400000D01*
X145350000Y-61990000D02*
X143400000Y-63940000D01*
%TO.N,/IO/GPIO32*%
X144934314Y-72150000D02*
X136484314Y-80600000D01*
X136484314Y-80600000D02*
X136050000Y-80600000D01*
X136050000Y-80600000D02*
X130300000Y-86350000D01*
X145350000Y-72150000D02*
X144934314Y-72150000D01*
%TO.N,/IO/GPIO35*%
X149319999Y-104775000D02*
X142990000Y-98445001D01*
X142990000Y-98445001D02*
X142990000Y-84655000D01*
X142990000Y-84655000D02*
X145340000Y-82305000D01*
%TO.N,/IO/GPIO41*%
X167009999Y-92465000D02*
X179319999Y-104775000D01*
X163120000Y-92465000D02*
X167009999Y-92465000D01*
%TO.N,/IO/GPIO38*%
X158520000Y-98975000D02*
X164320000Y-104775000D01*
X144190000Y-95481346D02*
X147683654Y-98975000D01*
X145340000Y-92465000D02*
X144190000Y-93615000D01*
X144190000Y-93615000D02*
X144190000Y-95481346D01*
X147683654Y-98975000D02*
X158520000Y-98975000D01*
%TO.N,/IO/GPIO37*%
X153920000Y-99375000D02*
X159320000Y-104775000D01*
X145340000Y-87385000D02*
X143790000Y-88935000D01*
X143790000Y-95647032D02*
X147517969Y-99375000D01*
X147517969Y-99375000D02*
X153920000Y-99375000D01*
X143790000Y-88935000D02*
X143790000Y-95647032D01*
%TO.N,/IO/GPIO40*%
X163120000Y-95005000D02*
X164549999Y-95005000D01*
X164549999Y-95005000D02*
X174319999Y-104775000D01*
%TO.N,/IO/GPIO39*%
X145340000Y-95005000D02*
X148910000Y-98575000D01*
X163119998Y-98575000D02*
X169319998Y-104775000D01*
X148910000Y-98575000D02*
X163119998Y-98575000D01*
%TO.N,/IO/PS_CLK_1*%
X183040686Y-96225000D02*
X167735686Y-80920000D01*
X167735686Y-80920000D02*
X161730000Y-80920000D01*
X161100000Y-81550000D02*
X161100000Y-85360000D01*
X161730000Y-80920000D02*
X161100000Y-81550000D01*
X192170000Y-96225000D02*
X183040686Y-96225000D01*
X161100000Y-85360000D02*
X163130000Y-87390000D01*
%TO.N,/IO/~{PS_ATT_1}*%
X167151372Y-79770000D02*
X182456372Y-95075000D01*
X193350000Y-95778654D02*
X193350000Y-99045000D01*
X163130000Y-79770000D02*
X167151372Y-79770000D01*
X192646346Y-95075000D02*
X193350000Y-95778654D01*
X182456372Y-95075000D02*
X192646346Y-95075000D01*
X193350000Y-99045000D02*
X192170000Y-100225000D01*
%TO.N,/IO/PS_CLK_2*%
X161580000Y-66993654D02*
X162673654Y-65900000D01*
X162673654Y-65900000D02*
X182187500Y-65900000D01*
X161580000Y-73140000D02*
X161580000Y-66993654D01*
X182187500Y-65900000D02*
X184495000Y-68207500D01*
X163130000Y-74690000D02*
X161580000Y-73140000D01*
%TO.N,/IO/~{PS_ATT_2}*%
X163130000Y-61990000D02*
X166640000Y-65500000D01*
X166640000Y-65500000D02*
X185787500Y-65500000D01*
X185787500Y-65500000D02*
X188495000Y-68207500D01*
%TO.N,/IO/PS_CMD_2*%
X204495000Y-68207500D02*
X202945000Y-69757500D01*
X202945000Y-69757500D02*
X163277500Y-69757500D01*
X163277500Y-69757500D02*
X163130000Y-69610000D01*
%TO.N,/IO/PS_DAT_2*%
X207337500Y-67050000D02*
X208495000Y-68207500D01*
X165417500Y-69357500D02*
X201718654Y-69357500D01*
X204026154Y-67050000D02*
X207337500Y-67050000D01*
X201718654Y-69357500D02*
X204026154Y-67050000D01*
X163130000Y-67070000D02*
X165417500Y-69357500D01*
%TO.N,/Video Processing/FBLIN2*%
X97150000Y-73065686D02*
X97750000Y-72465686D01*
X97750000Y-72465686D02*
X97750000Y-67080000D01*
X80370001Y-78625002D02*
X93909312Y-78625002D01*
X93909312Y-78625002D02*
X97150000Y-75384314D01*
X98250000Y-66580000D02*
X98250000Y-64500000D01*
X97150000Y-75384314D02*
X97150000Y-73065686D01*
X97750000Y-67080000D02*
X98250000Y-66580000D01*
%TO.N,/Video Processing/RIN2*%
X88945000Y-67200000D02*
X87447500Y-65702500D01*
X90550000Y-67200000D02*
X88945000Y-67200000D01*
X80370001Y-58625001D02*
X87447500Y-65702500D01*
%TO.N,/Video Processing/IN R*%
X98847500Y-54202499D02*
X96750000Y-56300000D01*
X106750000Y-53000000D02*
X100050000Y-53000000D01*
X100050000Y-53000000D02*
X98847500Y-54202499D01*
X96770001Y-61650000D02*
X96770001Y-63279999D01*
X96770001Y-56279998D02*
X96770001Y-61650000D01*
X96770001Y-63279999D02*
X95550000Y-64500000D01*
X98847500Y-54202499D02*
X96770001Y-56279998D01*
X95550000Y-64500000D02*
X95550000Y-67200000D01*
%TO.N,/Video Processing/IN G*%
X114810000Y-53385001D02*
X114810000Y-52544365D01*
X117010000Y-48584365D02*
X115950635Y-47525000D01*
X112430000Y-54100000D02*
X114095001Y-54100000D01*
X93650000Y-68600000D02*
X93650000Y-65100000D01*
X111330000Y-53000000D02*
X112430000Y-54100000D01*
X93650000Y-65100000D02*
X93050000Y-64500000D01*
X95550000Y-70500000D02*
X93650000Y-68600000D01*
X117010000Y-50344365D02*
X117010000Y-48584365D01*
X94270001Y-63279999D02*
X93050000Y-64500000D01*
X94270001Y-50490686D02*
X94270001Y-61900000D01*
X114810000Y-52544365D02*
X117010000Y-50344365D01*
X115950635Y-47525000D02*
X97235687Y-47525000D01*
X97235687Y-47525000D02*
X94270001Y-50490686D01*
X114095001Y-54100000D02*
X114810000Y-53385001D01*
X94270001Y-61900000D02*
X94270001Y-63279999D01*
%TO.N,/Video Processing/IN B*%
X91770001Y-63279999D02*
X90550000Y-64500000D01*
X117410000Y-48418679D02*
X116116320Y-47125000D01*
X92450000Y-66400000D02*
X92450000Y-70700000D01*
X91770001Y-52425000D02*
X91770001Y-60850000D01*
X90550000Y-64500000D02*
X92450000Y-66400000D01*
X116116320Y-47125000D02*
X97070002Y-47125000D01*
X117410000Y-51500000D02*
X117410000Y-48418679D01*
X91770001Y-60850000D02*
X91770001Y-63279999D01*
X97070002Y-47125000D02*
X91770001Y-52425000D01*
X115910000Y-53000000D02*
X117410000Y-51500000D01*
X92450000Y-70700000D02*
X95550000Y-73800000D01*
%TO.N,/IO/GPIO23*%
X99380000Y-105410000D02*
X102940000Y-101850000D01*
X128020488Y-101850000D02*
X154595488Y-128425000D01*
X102940000Y-101850000D02*
X128020488Y-101850000D01*
X190070000Y-128425000D02*
X194670000Y-133025000D01*
X154595488Y-128425000D02*
X190070000Y-128425000D01*
%TO.N,/IO/GPIO24*%
X154761174Y-128025000D02*
X194670000Y-128025000D01*
X96840000Y-105410000D02*
X100800000Y-101450000D01*
X128186174Y-101450000D02*
X154761174Y-128025000D01*
X100800000Y-101450000D02*
X128186174Y-101450000D01*
X194670000Y-128025000D02*
X199670000Y-133025000D01*
%TO.N,/IO/GPIO25*%
X199270000Y-127625000D02*
X204670000Y-133025000D01*
X96120000Y-101050000D02*
X128351860Y-101050000D01*
X154926860Y-127625000D02*
X199270000Y-127625000D01*
X128351860Y-101050000D02*
X154926860Y-127625000D01*
X91760000Y-105410000D02*
X96120000Y-101050000D01*
%TO.N,+5V*%
X108160001Y-74075000D02*
X109785000Y-75700000D01*
X98250000Y-74200000D02*
X99750000Y-75700000D01*
X79350000Y-81050000D02*
X76500000Y-83900000D01*
X98250000Y-74850000D02*
X92050000Y-81050000D01*
X98250000Y-72000000D02*
X99650000Y-70600000D01*
X109785000Y-75700000D02*
X111915000Y-75700000D01*
X98250000Y-74270000D02*
X98250000Y-74850000D01*
X99750000Y-75700000D02*
X106535001Y-75700000D01*
X106535001Y-75700000D02*
X108160001Y-74075000D01*
X111915000Y-75700000D02*
X113920001Y-73695000D01*
X76500000Y-83900000D02*
X76500000Y-105420000D01*
X92050000Y-81050000D02*
X79350000Y-81050000D01*
X98250000Y-74200000D02*
X98250000Y-72000000D01*
X99650000Y-70600000D02*
X104310000Y-70600000D01*
%TO.N,/Video Processing/AV1-1*%
X202274654Y-75950000D02*
X203693654Y-74531000D01*
X99450000Y-58600000D02*
X100150000Y-57900000D01*
X109800000Y-74550000D02*
X110500000Y-75250000D01*
X109800000Y-69760685D02*
X109800000Y-74550000D01*
X107025000Y-57900000D02*
X107937157Y-58812157D01*
X80350000Y-73600000D02*
X83200000Y-76450000D01*
X96750000Y-64350000D02*
X99450000Y-61650000D01*
X134710296Y-77000000D02*
X134955148Y-76755148D01*
X99450000Y-61650000D02*
X99450000Y-58600000D01*
X112150000Y-63025000D02*
X112150000Y-67410685D01*
X110500000Y-75250000D02*
X111650000Y-75250000D01*
X100150000Y-57900000D02*
X107025000Y-57900000D01*
X119120636Y-77000000D02*
X134710296Y-77000000D01*
X95518628Y-76450000D02*
X96750000Y-75218628D01*
X108220000Y-59095000D02*
X112150000Y-63025000D01*
X112550000Y-74350000D02*
X112550000Y-73169366D01*
X112550000Y-73169366D02*
X113319366Y-72400000D01*
X203693654Y-74531000D02*
X208370000Y-74531000D01*
X142548530Y-75950000D02*
X202274654Y-75950000D01*
X138349265Y-80149265D02*
X142548530Y-75950000D01*
X96750000Y-75218628D02*
X96750000Y-64350000D01*
X208370000Y-74531000D02*
X209520000Y-75681000D01*
X113319366Y-72400000D02*
X114520636Y-72400000D01*
X83200000Y-76450000D02*
X95518628Y-76450000D01*
X112150000Y-67410685D02*
X109800000Y-69760685D01*
X114520636Y-72400000D02*
X119120636Y-77000000D01*
X111650000Y-75250000D02*
X112550000Y-74350000D01*
%TD*%
M02*
