%TF.GenerationSoftware,KiCad,Pcbnew,8.0.1*%
%TF.CreationDate,2024-06-07T20:59:54+10:00*%
%TF.ProjectId,arcade,61726361-6465-42e6-9b69-6361645f7063,rev?*%
%TF.SameCoordinates,Original*%
%TF.FileFunction,Copper,L1,Top*%
%TF.FilePolarity,Positive*%
%FSLAX46Y46*%
G04 Gerber Fmt 4.6, Leading zero omitted, Abs format (unit mm)*
G04 Created by KiCad (PCBNEW 8.0.1) date 2024-06-07 20:59:54*
%MOMM*%
%LPD*%
G01*
G04 APERTURE LIST*
G04 Aperture macros list*
%AMRoundRect*
0 Rectangle with rounded corners*
0 $1 Rounding radius*
0 $2 $3 $4 $5 $6 $7 $8 $9 X,Y pos of 4 corners*
0 Add a 4 corners polygon primitive as box body*
4,1,4,$2,$3,$4,$5,$6,$7,$8,$9,$2,$3,0*
0 Add four circle primitives for the rounded corners*
1,1,$1+$1,$2,$3*
1,1,$1+$1,$4,$5*
1,1,$1+$1,$6,$7*
1,1,$1+$1,$8,$9*
0 Add four rect primitives between the rounded corners*
20,1,$1+$1,$2,$3,$4,$5,0*
20,1,$1+$1,$4,$5,$6,$7,0*
20,1,$1+$1,$6,$7,$8,$9,0*
20,1,$1+$1,$8,$9,$2,$3,0*%
G04 Aperture macros list end*
%TA.AperFunction,ComponentPad*%
%ADD10C,1.600000*%
%TD*%
%TA.AperFunction,ComponentPad*%
%ADD11C,1.400000*%
%TD*%
%TA.AperFunction,ComponentPad*%
%ADD12O,1.400000X1.400000*%
%TD*%
%TA.AperFunction,ComponentPad*%
%ADD13R,1.500000X1.500000*%
%TD*%
%TA.AperFunction,ComponentPad*%
%ADD14C,1.500000*%
%TD*%
%TA.AperFunction,ComponentPad*%
%ADD15R,1.600000X1.600000*%
%TD*%
%TA.AperFunction,ComponentPad*%
%ADD16C,4.000000*%
%TD*%
%TA.AperFunction,ComponentPad*%
%ADD17O,1.600000X1.600000*%
%TD*%
%TA.AperFunction,SMDPad,CuDef*%
%ADD18RoundRect,0.100000X-0.100000X0.637500X-0.100000X-0.637500X0.100000X-0.637500X0.100000X0.637500X0*%
%TD*%
%TA.AperFunction,ComponentPad*%
%ADD19R,3.000000X3.000000*%
%TD*%
%TA.AperFunction,ComponentPad*%
%ADD20C,3.000000*%
%TD*%
%TA.AperFunction,ViaPad*%
%ADD21C,0.600000*%
%TD*%
%TA.AperFunction,Conductor*%
%ADD22C,0.200000*%
%TD*%
%TA.AperFunction,Conductor*%
%ADD23C,0.500000*%
%TD*%
G04 APERTURE END LIST*
D10*
%TO.P,C10,1*%
%TO.N,AMP R*%
X87800000Y-111800000D03*
%TO.P,C10,2*%
%TO.N,Net-(C10-Pad2)*%
X87800000Y-106800000D03*
%TD*%
D11*
%TO.P,R27,1*%
%TO.N,Net-(C12-Pad2)*%
X104590000Y-114200000D03*
D12*
%TO.P,R27,2*%
%TO.N,/rgb mod/OUT B*%
X112210000Y-114200000D03*
%TD*%
D11*
%TO.P,R9,1*%
%TO.N,IN R*%
X97700000Y-94180000D03*
D12*
%TO.P,R9,2*%
%TO.N,GND*%
X97700000Y-101800000D03*
%TD*%
D13*
%TO.P,Q2,1,B*%
%TO.N,Net-(Q1-C)*%
X130600000Y-122140000D03*
D14*
%TO.P,Q2,2,E*%
%TO.N,Net-(Q2-E)*%
X130600000Y-119600000D03*
%TO.P,Q2,3,C*%
%TO.N,5V*%
X130600000Y-117060001D03*
%TD*%
D15*
%TO.P,C2,1*%
%TO.N,Net-(C2-Pad1)*%
X119830000Y-98140000D03*
D10*
%TO.P,C2,2*%
%TO.N,GND*%
X117330000Y-98140000D03*
%TD*%
D11*
%TO.P,R3,1*%
%TO.N,Net-(R3-Pad1)*%
X133850000Y-114140000D03*
D12*
%TO.P,R3,2*%
%TO.N,Net-(Q1-B)*%
X126230000Y-114140000D03*
%TD*%
D11*
%TO.P,R11,1*%
%TO.N,IN B*%
X108900000Y-94180000D03*
D12*
%TO.P,R11,2*%
%TO.N,GND*%
X108900000Y-101800000D03*
%TD*%
D11*
%TO.P,R5,1*%
%TO.N,5V*%
X133830000Y-117020000D03*
D12*
%TO.P,R5,2*%
%TO.N,Net-(Q1-C)*%
X133830000Y-124640000D03*
%TD*%
D11*
%TO.P,R10,1*%
%TO.N,IN G*%
X103300000Y-94180000D03*
D12*
%TO.P,R10,2*%
%TO.N,GND*%
X103300000Y-101800000D03*
%TD*%
D11*
%TO.P,R4,1*%
%TO.N,Net-(Q1-B)*%
X123850000Y-114140000D03*
D12*
%TO.P,R4,2*%
%TO.N,GND*%
X116230000Y-114140000D03*
%TD*%
D11*
%TO.P,R17,1*%
%TO.N,AMP R*%
X90600000Y-111900000D03*
D12*
%TO.P,R17,2*%
%TO.N,GND*%
X90600000Y-104280000D03*
%TD*%
D10*
%TO.P,C6,1*%
%TO.N,GND*%
X85000000Y-96500000D03*
%TO.P,C6,2*%
%TO.N,5V*%
X85000000Y-101500000D03*
%TD*%
D11*
%TO.P,R2,1*%
%TO.N,Net-(J1-Pin_14)*%
X123330000Y-93390000D03*
D12*
%TO.P,R2,2*%
%TO.N,Net-(C2-Pad1)*%
X123330000Y-101010000D03*
%TD*%
D10*
%TO.P,C3,1*%
%TO.N,IN B*%
X106100000Y-96700000D03*
%TO.P,C3,2*%
%TO.N,Net-(U2-CH1_IN)*%
X106100000Y-101700000D03*
%TD*%
D13*
%TO.P,Q1,1,B*%
%TO.N,Net-(Q1-B)*%
X125600000Y-122140000D03*
D14*
%TO.P,Q1,2,E*%
%TO.N,GND*%
X125600000Y-119600000D03*
%TO.P,Q1,3,C*%
%TO.N,Net-(Q1-C)*%
X125600000Y-117060001D03*
%TD*%
D11*
%TO.P,R15,1*%
%TO.N,AMP B*%
X106500000Y-111920000D03*
D12*
%TO.P,R15,2*%
%TO.N,GND*%
X106500000Y-104300000D03*
%TD*%
D11*
%TO.P,R12,1*%
%TO.N,AMP B*%
X108900000Y-111920000D03*
D12*
%TO.P,R12,2*%
%TO.N,Net-(U2-CH1_OUT)*%
X108900000Y-104300000D03*
%TD*%
D10*
%TO.P,C12,1*%
%TO.N,AMP B*%
X103700000Y-111820000D03*
%TO.P,C12,2*%
%TO.N,Net-(C12-Pad2)*%
X103700000Y-106820000D03*
%TD*%
D11*
%TO.P,R7,1*%
%TO.N,Net-(R6-Pad2)*%
X121600000Y-124580001D03*
D12*
%TO.P,R7,2*%
%TO.N,GND*%
X121600000Y-116960001D03*
%TD*%
D11*
%TO.P,R13,1*%
%TO.N,AMP G*%
X100900000Y-111920000D03*
D12*
%TO.P,R13,2*%
%TO.N,Net-(U2-CH2_OUT)*%
X100900000Y-104300000D03*
%TD*%
D11*
%TO.P,R1,1*%
%TO.N,Net-(J1-Pin_13)*%
X125830000Y-93390000D03*
D12*
%TO.P,R1,2*%
%TO.N,Net-(C1-Pad1)*%
X125830000Y-101010000D03*
%TD*%
D11*
%TO.P,R6,1*%
%TO.N,Net-(Q2-E)*%
X131600000Y-124580001D03*
D12*
%TO.P,R6,2*%
%TO.N,Net-(R6-Pad2)*%
X123980000Y-124580001D03*
%TD*%
D11*
%TO.P,R14,1*%
%TO.N,Net-(U2-CH3_OUT)*%
X93000000Y-104280000D03*
D12*
%TO.P,R14,2*%
%TO.N,AMP R*%
X93000000Y-111900000D03*
%TD*%
D11*
%TO.P,R25,1*%
%TO.N,Net-(C11-Pad2)*%
X94790000Y-114200000D03*
D12*
%TO.P,R25,2*%
%TO.N,/rgb mod/OUT G*%
X102410000Y-114200000D03*
%TD*%
D16*
%TO.P,J1,0*%
%TO.N,N/C*%
X111855000Y-88750001D03*
X86855000Y-88750000D03*
D15*
%TO.P,J1,1,Pin_1*%
%TO.N,IN R*%
X95040000Y-90800000D03*
D10*
%TO.P,J1,2,Pin_2*%
%TO.N,unconnected-(J1-Pin_2-Pad2)*%
X97330001Y-90800000D03*
%TO.P,J1,3,Pin_3*%
%TO.N,IN G*%
X99620000Y-90800000D03*
%TO.P,J1,4,Pin_4*%
%TO.N,unconnected-(J1-Pin_4-Pad4)*%
X101910001Y-90800000D03*
%TO.P,J1,5,Pin_5*%
%TO.N,IN B*%
X104200000Y-90800000D03*
%TO.P,J1,6,Pin_6*%
%TO.N,unconnected-(J1-Pin_6-Pad6)*%
X93895000Y-88820000D03*
%TO.P,J1,7,Pin_7*%
%TO.N,unconnected-(J1-Pin_7-Pad7)*%
X96185000Y-88820000D03*
%TO.P,J1,8,Pin_8*%
%TO.N,unconnected-(J1-Pin_8-Pad8)*%
X98475000Y-88820000D03*
%TO.P,J1,9,Pin_9*%
%TO.N,unconnected-(J1-Pin_9-Pad9)*%
X100765000Y-88820000D03*
%TO.P,J1,10,Pin_10*%
%TO.N,GND*%
X103055000Y-88820000D03*
%TO.P,J1,11,Pin_11*%
%TO.N,unconnected-(J1-Pin_11-Pad11)*%
X95040000Y-86840000D03*
%TO.P,J1,12,Pin_12*%
%TO.N,unconnected-(J1-Pin_12-Pad12)*%
X97330000Y-86840000D03*
%TO.P,J1,13,Pin_13*%
%TO.N,Net-(J1-Pin_13)*%
X99620000Y-86840000D03*
%TO.P,J1,14,Pin_14*%
%TO.N,Net-(J1-Pin_14)*%
X101910000Y-86840000D03*
%TO.P,J1,15,Pin_15*%
%TO.N,unconnected-(J1-Pin_15-Pad15)*%
X104200000Y-86840000D03*
%TD*%
D11*
%TO.P,R22,1*%
%TO.N,Net-(C10-Pad2)*%
X92590000Y-114200000D03*
D12*
%TO.P,R22,2*%
%TO.N,/rgb mod/OUT R*%
X84970000Y-114200000D03*
%TD*%
D11*
%TO.P,R8,1*%
%TO.N,IN S*%
X118850000Y-116960001D03*
D12*
%TO.P,R8,2*%
%TO.N,Net-(R6-Pad2)*%
X118850000Y-124580001D03*
%TD*%
D10*
%TO.P,C5,1*%
%TO.N,IN R*%
X95000000Y-96700000D03*
%TO.P,C5,2*%
%TO.N,Net-(U2-CH3_IN)*%
X95000000Y-101700000D03*
%TD*%
D11*
%TO.P,R29,1*%
%TO.N,5V*%
X85000000Y-104280000D03*
D12*
%TO.P,R29,2*%
%TO.N,/rgb mod/OUT BLK*%
X85000000Y-111900000D03*
%TD*%
D15*
%TO.P,U1,1*%
%TO.N,Net-(J1-Pin_13)*%
X133450000Y-103640000D03*
D17*
%TO.P,U1,2*%
%TO.N,Net-(C1-Pad1)*%
X130910000Y-103640000D03*
%TO.P,U1,3*%
%TO.N,Net-(U1-Pad3)*%
X128370001Y-103640000D03*
%TO.P,U1,4*%
%TO.N,Net-(J1-Pin_14)*%
X125830000Y-103640000D03*
%TO.P,U1,5*%
%TO.N,Net-(C2-Pad1)*%
X123290000Y-103640000D03*
%TO.P,U1,6*%
%TO.N,Net-(U1-Pad10)*%
X120750000Y-103640000D03*
%TO.P,U1,7,GND*%
%TO.N,GND*%
X118210000Y-103640000D03*
%TO.P,U1,8*%
%TO.N,Net-(U1-Pad12)*%
X118210000Y-111260000D03*
%TO.P,U1,9*%
%TO.N,Net-(U1-Pad3)*%
X120750000Y-111260000D03*
%TO.P,U1,10*%
%TO.N,Net-(U1-Pad10)*%
X123290000Y-111260000D03*
%TO.P,U1,11*%
%TO.N,Net-(R3-Pad1)*%
X125830000Y-111260000D03*
%TO.P,U1,12*%
%TO.N,Net-(U1-Pad12)*%
X128370000Y-111260000D03*
%TO.P,U1,13*%
%TO.N,GND*%
X130910000Y-111260000D03*
%TO.P,U1,14,VCC*%
%TO.N,5V*%
X133450000Y-111260000D03*
%TD*%
D18*
%TO.P,U2,1,CH1_IN*%
%TO.N,Net-(U2-CH1_IN)*%
X91600000Y-96175000D03*
%TO.P,U2,2,CH2_IN*%
%TO.N,Net-(U2-CH2_IN)*%
X90950000Y-96175000D03*
%TO.P,U2,3,CH3_IN*%
%TO.N,Net-(U2-CH3_IN)*%
X90300000Y-96175000D03*
%TO.P,U2,4,CH4_IN*%
%TO.N,unconnected-(U2-CH4_IN-Pad4)*%
X89650000Y-96175000D03*
%TO.P,U2,5,GND*%
%TO.N,GND*%
X89000000Y-96175000D03*
%TO.P,U2,6,DISABLE*%
X88350000Y-96175000D03*
%TO.P,U2,7,NC*%
%TO.N,unconnected-(U2-NC-Pad7)*%
X87700000Y-96175000D03*
%TO.P,U2,8,NC*%
%TO.N,unconnected-(U2-NC-Pad8)*%
X87700000Y-101900000D03*
%TO.P,U2,9,BYPASS*%
%TO.N,5V*%
X88350000Y-101900000D03*
%TO.P,U2,10,V_{S+}*%
X89000000Y-101900000D03*
%TO.P,U2,11,CH4_OUT*%
%TO.N,unconnected-(U2-CH4_OUT-Pad11)*%
X89650000Y-101900000D03*
%TO.P,U2,12,CH3_OUT*%
%TO.N,Net-(U2-CH3_OUT)*%
X90300000Y-101900000D03*
%TO.P,U2,13,CH2_OUT*%
%TO.N,Net-(U2-CH2_OUT)*%
X90950000Y-101900000D03*
%TO.P,U2,14,CH1_OUT*%
%TO.N,Net-(U2-CH1_OUT)*%
X91600000Y-101900000D03*
%TD*%
D19*
%TO.P,J6,1,Pin_1*%
%TO.N,/rgb mod/OUT R*%
X84500000Y-121400000D03*
D20*
%TO.P,J6,2,Pin_2*%
%TO.N,/rgb mod/OUT G*%
X89500000Y-121400000D03*
%TO.P,J6,3,Pin_3*%
%TO.N,/rgb mod/OUT B*%
X94500000Y-121400000D03*
%TO.P,J6,4,Pin_4*%
%TO.N,IN S*%
X99500000Y-121400000D03*
%TO.P,J6,5,Pin_5*%
%TO.N,/rgb mod/OUT BLK*%
X104500000Y-121400000D03*
%TO.P,J6,6,Pin_6*%
%TO.N,GND*%
X109500000Y-121400000D03*
%TO.P,J6,7,Pin_7*%
%TO.N,5V*%
X114500000Y-121400000D03*
%TD*%
D10*
%TO.P,C11,1*%
%TO.N,AMP G*%
X95800000Y-111800000D03*
%TO.P,C11,2*%
%TO.N,Net-(C11-Pad2)*%
X95800000Y-106800000D03*
%TD*%
D11*
%TO.P,R16,1*%
%TO.N,AMP G*%
X98562500Y-111900000D03*
D12*
%TO.P,R16,2*%
%TO.N,GND*%
X98562500Y-104280000D03*
%TD*%
D15*
%TO.P,C1,1*%
%TO.N,Net-(C1-Pad1)*%
X129374887Y-98140000D03*
D10*
%TO.P,C1,2*%
%TO.N,GND*%
X131874887Y-98140000D03*
%TD*%
%TO.P,C4,1*%
%TO.N,IN G*%
X100500000Y-96700000D03*
%TO.P,C4,2*%
%TO.N,Net-(U2-CH2_IN)*%
X100500000Y-101700000D03*
%TD*%
D21*
%TO.N,GND*%
X115600000Y-124500000D03*
X89000000Y-97800000D03*
X88900000Y-117500000D03*
X127400000Y-115700000D03*
X133900000Y-122200000D03*
X127600000Y-101900000D03*
X83200000Y-117900000D03*
X121300000Y-107800000D03*
X128800000Y-113700000D03*
X88300000Y-97800000D03*
X99500000Y-118600000D03*
%TD*%
D22*
%TO.N,GND*%
X89000000Y-97800000D02*
X89000000Y-97400000D01*
D23*
X103055000Y-88820000D02*
X108010000Y-88820000D01*
D22*
X89000000Y-96175000D02*
X89000000Y-96500000D01*
X88300000Y-97800000D02*
X88350000Y-97850000D01*
X89000000Y-96500000D02*
X89000000Y-97800000D01*
X88350000Y-96175000D02*
X88300000Y-97800000D01*
X89000000Y-96175000D02*
X89000000Y-94800000D01*
D23*
X108010000Y-88820000D02*
X117330000Y-98140000D01*
D22*
X88350000Y-97850000D02*
X88100000Y-98100000D01*
X88350000Y-96175000D02*
X88350000Y-94650000D01*
X88350000Y-94650000D02*
X88300000Y-94600000D01*
%TO.N,5V*%
X88900000Y-100700000D02*
X89000000Y-100800000D01*
X89000000Y-100800000D02*
X89000000Y-101900000D01*
X85000000Y-101500000D02*
X85799999Y-100700001D01*
X88350000Y-101900000D02*
X88350000Y-100850000D01*
X88350000Y-101900000D02*
X88350000Y-100750000D01*
X88350000Y-100750000D02*
X88400000Y-100700000D01*
X85799999Y-100700001D02*
X88900000Y-100700000D01*
X85000000Y-104280000D02*
X85000000Y-101500000D01*
%TO.N,Net-(U2-CH1_OUT)*%
X100365686Y-105400000D02*
X107800000Y-105400000D01*
X107800000Y-105400000D02*
X108900000Y-104300000D01*
X92455635Y-101900000D02*
X96255635Y-105700000D01*
X91600000Y-101900000D02*
X92455635Y-101900000D01*
X96255635Y-105700000D02*
X100065685Y-105700000D01*
X100065685Y-105700000D02*
X100365686Y-105400000D01*
%TO.N,Net-(U2-CH2_OUT)*%
X91037500Y-100862500D02*
X90950000Y-100950000D01*
X90950000Y-100950000D02*
X90950000Y-101900000D01*
X96600000Y-105300000D02*
X92162500Y-100862500D01*
X100900000Y-104300000D02*
X99900000Y-105300000D01*
X92162500Y-100862500D02*
X91037500Y-100862500D01*
X99900000Y-105300000D02*
X96600000Y-105300000D01*
%TO.N,Net-(U2-CH1_IN)*%
X91600000Y-98568628D02*
X91600000Y-96175000D01*
X93031372Y-100000000D02*
X91600000Y-98568628D01*
X104400000Y-100000000D02*
X93031372Y-100000000D01*
X106100000Y-101700000D02*
X104400000Y-100000000D01*
%TO.N,Net-(U2-CH2_IN)*%
X99200000Y-100400000D02*
X92865686Y-100400000D01*
X100500000Y-101700000D02*
X99200000Y-100400000D01*
X90950000Y-98484314D02*
X90950000Y-96175000D01*
X92865686Y-100400000D02*
X90950000Y-98484314D01*
%TO.N,Net-(U2-CH3_OUT)*%
X90300000Y-103000000D02*
X90500000Y-103200000D01*
X90500000Y-103200000D02*
X91920000Y-103200000D01*
X91920000Y-103200000D02*
X93000000Y-104280000D01*
X90300000Y-101900000D02*
X90300000Y-103000000D01*
%TO.N,Net-(U2-CH3_IN)*%
X90300000Y-98400000D02*
X93600000Y-101700000D01*
X90300000Y-96175000D02*
X90300000Y-98400000D01*
X93600000Y-101700000D02*
X95000000Y-101700000D01*
%TD*%
%TA.AperFunction,Conductor*%
%TO.N,GND*%
G36*
X102588987Y-100620185D02*
G01*
X102634742Y-100672989D01*
X102644686Y-100742147D01*
X102615661Y-100805703D01*
X102587225Y-100829927D01*
X102573741Y-100838275D01*
X102573739Y-100838277D01*
X102409391Y-100988099D01*
X102275368Y-101165574D01*
X102176239Y-101364650D01*
X102123505Y-101550000D01*
X103055025Y-101550000D01*
X103019930Y-101585095D01*
X102973852Y-101664905D01*
X102950000Y-101753922D01*
X102950000Y-101846078D01*
X102973852Y-101935095D01*
X103019930Y-102014905D01*
X103085095Y-102080070D01*
X103164905Y-102126148D01*
X103253922Y-102150000D01*
X103346078Y-102150000D01*
X103435095Y-102126148D01*
X103514905Y-102080070D01*
X103544975Y-102050000D01*
X103550000Y-102050000D01*
X103550000Y-102974052D01*
X103629804Y-102959135D01*
X103837177Y-102878798D01*
X103837179Y-102878797D01*
X104026261Y-102761721D01*
X104190608Y-102611900D01*
X104324631Y-102434425D01*
X104423760Y-102235349D01*
X104476495Y-102050000D01*
X103550000Y-102050000D01*
X103544975Y-102050000D01*
X103580070Y-102014905D01*
X103626148Y-101935095D01*
X103650000Y-101846078D01*
X103650000Y-101753922D01*
X103626148Y-101664905D01*
X103580070Y-101585095D01*
X103544975Y-101550000D01*
X104476495Y-101550000D01*
X104423760Y-101364650D01*
X104324631Y-101165574D01*
X104193033Y-100991311D01*
X104168341Y-100925950D01*
X104182906Y-100857615D01*
X104232103Y-100808003D01*
X104300313Y-100792864D01*
X104365879Y-100817005D01*
X104379668Y-100828903D01*
X104808058Y-101257293D01*
X104841543Y-101318616D01*
X104840152Y-101377067D01*
X104814366Y-101473302D01*
X104814364Y-101473313D01*
X104794532Y-101699998D01*
X104794532Y-101700001D01*
X104814364Y-101926686D01*
X104814366Y-101926697D01*
X104873258Y-102146488D01*
X104873261Y-102146497D01*
X104969431Y-102352732D01*
X104969432Y-102352734D01*
X105099954Y-102539141D01*
X105260858Y-102700045D01*
X105260861Y-102700047D01*
X105447266Y-102830568D01*
X105653504Y-102926739D01*
X105873308Y-102985635D01*
X105913398Y-102989142D01*
X105978466Y-103014594D01*
X106019445Y-103071184D01*
X106023324Y-103140946D01*
X105988871Y-103201731D01*
X105967090Y-103217206D01*
X105967696Y-103218184D01*
X105773738Y-103338278D01*
X105609391Y-103488099D01*
X105475368Y-103665574D01*
X105376239Y-103864650D01*
X105323505Y-104050000D01*
X106255025Y-104050000D01*
X106219930Y-104085095D01*
X106173852Y-104164905D01*
X106150000Y-104253922D01*
X106150000Y-104346078D01*
X106173852Y-104435095D01*
X106219930Y-104514905D01*
X106255025Y-104550000D01*
X105323505Y-104550000D01*
X105349557Y-104641567D01*
X105348969Y-104711434D01*
X105310702Y-104769892D01*
X105246905Y-104798382D01*
X105230290Y-104799500D01*
X102170230Y-104799500D01*
X102103191Y-104779815D01*
X102057436Y-104727011D01*
X102047492Y-104657853D01*
X102050964Y-104641566D01*
X102077732Y-104547483D01*
X102085115Y-104521536D01*
X102105643Y-104300000D01*
X102099594Y-104234725D01*
X102085115Y-104078464D01*
X102085114Y-104078462D01*
X102079424Y-104058464D01*
X102024229Y-103864472D01*
X102024224Y-103864461D01*
X101925061Y-103665316D01*
X101925056Y-103665308D01*
X101790979Y-103487761D01*
X101626562Y-103337876D01*
X101626560Y-103337874D01*
X101437404Y-103220754D01*
X101437398Y-103220752D01*
X101229940Y-103140382D01*
X101080325Y-103112413D01*
X101018045Y-103080745D01*
X100982773Y-103020433D01*
X100985707Y-102950625D01*
X101025916Y-102893485D01*
X101050702Y-102878146D01*
X101152734Y-102830568D01*
X101339139Y-102700047D01*
X101500047Y-102539139D01*
X101630568Y-102352734D01*
X101726739Y-102146496D01*
X101752595Y-102050000D01*
X102123505Y-102050000D01*
X102176239Y-102235349D01*
X102275368Y-102434425D01*
X102409391Y-102611900D01*
X102573738Y-102761721D01*
X102762820Y-102878797D01*
X102762822Y-102878798D01*
X102970195Y-102959135D01*
X103050000Y-102974052D01*
X103050000Y-102050000D01*
X102123505Y-102050000D01*
X101752595Y-102050000D01*
X101785635Y-101926692D01*
X101805468Y-101700000D01*
X101785635Y-101473308D01*
X101732047Y-101273313D01*
X101726741Y-101253511D01*
X101726738Y-101253502D01*
X101630568Y-101047266D01*
X101500047Y-100860861D01*
X101500045Y-100860858D01*
X101451368Y-100812181D01*
X101417883Y-100750858D01*
X101422867Y-100681166D01*
X101464739Y-100625233D01*
X101530203Y-100600816D01*
X101539049Y-100600500D01*
X102521948Y-100600500D01*
X102588987Y-100620185D01*
G37*
%TD.AperFunction*%
%TA.AperFunction,Conductor*%
G36*
X98966942Y-101020185D02*
G01*
X98987584Y-101036819D01*
X99208058Y-101257293D01*
X99241543Y-101318616D01*
X99240152Y-101377067D01*
X99214366Y-101473302D01*
X99214364Y-101473313D01*
X99194532Y-101699998D01*
X99194532Y-101700001D01*
X99214364Y-101926686D01*
X99214366Y-101926697D01*
X99273258Y-102146488D01*
X99273261Y-102146497D01*
X99369431Y-102352732D01*
X99369432Y-102352734D01*
X99499954Y-102539141D01*
X99660858Y-102700045D01*
X99660861Y-102700047D01*
X99847266Y-102830568D01*
X100053504Y-102926739D01*
X100273308Y-102985635D01*
X100312539Y-102989067D01*
X100377608Y-103014519D01*
X100418587Y-103071110D01*
X100422465Y-103140872D01*
X100388011Y-103201656D01*
X100367009Y-103218022D01*
X100173439Y-103337874D01*
X100173437Y-103337876D01*
X100009020Y-103487761D01*
X99874943Y-103665308D01*
X99874941Y-103665312D01*
X99846950Y-103721525D01*
X99799446Y-103772761D01*
X99731783Y-103790182D01*
X99665443Y-103768256D01*
X99624950Y-103721524D01*
X99587131Y-103645574D01*
X99453108Y-103468099D01*
X99288761Y-103318278D01*
X99099679Y-103201202D01*
X99099677Y-103201201D01*
X98892299Y-103120864D01*
X98812500Y-103105946D01*
X98812500Y-104035025D01*
X98777405Y-103999930D01*
X98697595Y-103953852D01*
X98608578Y-103930000D01*
X98516422Y-103930000D01*
X98427405Y-103953852D01*
X98347595Y-103999930D01*
X98282430Y-104065095D01*
X98236352Y-104144905D01*
X98212500Y-104233922D01*
X98212500Y-104326078D01*
X98236352Y-104415095D01*
X98282430Y-104494905D01*
X98317525Y-104530000D01*
X97386003Y-104530000D01*
X97389295Y-104541568D01*
X97388707Y-104611435D01*
X97350439Y-104669893D01*
X97286642Y-104698382D01*
X97270028Y-104699500D01*
X96900098Y-104699500D01*
X96833059Y-104679815D01*
X96812417Y-104663181D01*
X96179236Y-104030000D01*
X97386005Y-104030000D01*
X98312500Y-104030000D01*
X98312500Y-103105945D01*
X98305136Y-103099830D01*
X98261621Y-103095429D01*
X98206944Y-103051930D01*
X98184463Y-102985776D01*
X98201317Y-102917969D01*
X98243077Y-102875145D01*
X98426258Y-102761724D01*
X98426260Y-102761722D01*
X98590608Y-102611900D01*
X98724631Y-102434425D01*
X98823760Y-102235349D01*
X98876495Y-102050000D01*
X97950000Y-102050000D01*
X97950000Y-102974053D01*
X97957359Y-102980165D01*
X98000878Y-102984566D01*
X98055557Y-103028063D01*
X98078040Y-103094216D01*
X98061188Y-103162023D01*
X98019427Y-103204851D01*
X97836238Y-103318278D01*
X97671891Y-103468099D01*
X97537868Y-103645574D01*
X97438739Y-103844650D01*
X97386005Y-104030000D01*
X96179236Y-104030000D01*
X96074277Y-103925041D01*
X95306141Y-103156906D01*
X95272657Y-103095584D01*
X95277641Y-103025892D01*
X95319513Y-102969959D01*
X95361728Y-102949452D01*
X95419006Y-102934105D01*
X95446486Y-102926742D01*
X95446489Y-102926740D01*
X95446496Y-102926739D01*
X95652734Y-102830568D01*
X95839139Y-102700047D01*
X96000047Y-102539139D01*
X96130568Y-102352734D01*
X96226739Y-102146496D01*
X96270500Y-101983173D01*
X96306865Y-101923515D01*
X96369711Y-101892985D01*
X96439087Y-101901279D01*
X96492965Y-101945764D01*
X96513746Y-102003824D01*
X96515378Y-102021440D01*
X96576240Y-102235350D01*
X96675368Y-102434425D01*
X96809391Y-102611900D01*
X96973738Y-102761721D01*
X97162820Y-102878797D01*
X97162822Y-102878798D01*
X97370195Y-102959135D01*
X97450000Y-102974052D01*
X97450000Y-102044975D01*
X97485095Y-102080070D01*
X97564905Y-102126148D01*
X97653922Y-102150000D01*
X97746078Y-102150000D01*
X97835095Y-102126148D01*
X97914905Y-102080070D01*
X97980070Y-102014905D01*
X98026148Y-101935095D01*
X98050000Y-101846078D01*
X98050000Y-101753922D01*
X98026148Y-101664905D01*
X97980070Y-101585095D01*
X97944975Y-101550000D01*
X98876495Y-101550000D01*
X98823760Y-101364650D01*
X98731701Y-101179772D01*
X98719440Y-101110987D01*
X98746313Y-101046492D01*
X98803789Y-101006764D01*
X98842701Y-101000500D01*
X98899903Y-101000500D01*
X98966942Y-101020185D01*
G37*
%TD.AperFunction*%
%TA.AperFunction,Conductor*%
G36*
X88892539Y-95994685D02*
G01*
X88938294Y-96047489D01*
X88949500Y-96098999D01*
X88949501Y-96250999D01*
X88929817Y-96318039D01*
X88877013Y-96363794D01*
X88825501Y-96375000D01*
X88524500Y-96375000D01*
X88457461Y-96355315D01*
X88411706Y-96302511D01*
X88400500Y-96251001D01*
X88400499Y-96099001D01*
X88420183Y-96031961D01*
X88472987Y-95986206D01*
X88524499Y-95975000D01*
X88825500Y-95975000D01*
X88892539Y-95994685D01*
G37*
%TD.AperFunction*%
%TA.AperFunction,Conductor*%
G36*
X135142539Y-83820185D02*
G01*
X135188294Y-83872989D01*
X135199500Y-83924500D01*
X135199500Y-113629660D01*
X135179815Y-113696699D01*
X135127011Y-113742454D01*
X135057853Y-113752398D01*
X134994297Y-113723373D01*
X134964500Y-113684932D01*
X134875061Y-113505316D01*
X134875056Y-113505308D01*
X134740979Y-113327761D01*
X134576562Y-113177876D01*
X134576560Y-113177874D01*
X134387404Y-113060754D01*
X134387398Y-113060752D01*
X134384471Y-113059618D01*
X134179940Y-112980382D01*
X133961243Y-112939500D01*
X133738757Y-112939500D01*
X133520060Y-112980382D01*
X133470711Y-112999500D01*
X133312601Y-113060752D01*
X133312595Y-113060754D01*
X133123439Y-113177874D01*
X133123437Y-113177876D01*
X132959020Y-113327761D01*
X132824943Y-113505308D01*
X132824938Y-113505316D01*
X132725775Y-113704461D01*
X132725769Y-113704476D01*
X132664885Y-113918462D01*
X132664884Y-113918464D01*
X132644357Y-114139999D01*
X132644357Y-114140000D01*
X132664884Y-114361535D01*
X132664885Y-114361537D01*
X132725769Y-114575523D01*
X132725775Y-114575538D01*
X132824938Y-114774683D01*
X132824943Y-114774691D01*
X132959020Y-114952238D01*
X133123437Y-115102123D01*
X133123439Y-115102125D01*
X133312595Y-115219245D01*
X133312596Y-115219245D01*
X133312599Y-115219247D01*
X133520060Y-115299618D01*
X133738757Y-115340500D01*
X133738759Y-115340500D01*
X133961241Y-115340500D01*
X133961243Y-115340500D01*
X134179940Y-115299618D01*
X134387401Y-115219247D01*
X134576562Y-115102124D01*
X134740981Y-114952236D01*
X134875058Y-114774689D01*
X134910124Y-114704268D01*
X134964500Y-114595067D01*
X135012003Y-114543830D01*
X135079666Y-114526409D01*
X135146006Y-114548335D01*
X135189961Y-114602646D01*
X135199500Y-114650339D01*
X135199500Y-116557585D01*
X135179815Y-116624624D01*
X135127011Y-116670379D01*
X135057853Y-116680323D01*
X134994297Y-116651298D01*
X134956523Y-116592520D01*
X134956234Y-116591520D01*
X134954230Y-116584476D01*
X134954229Y-116584472D01*
X134940841Y-116557585D01*
X134855061Y-116385316D01*
X134855056Y-116385308D01*
X134720979Y-116207761D01*
X134556562Y-116057876D01*
X134556560Y-116057874D01*
X134367404Y-115940754D01*
X134367398Y-115940752D01*
X134159940Y-115860382D01*
X133941243Y-115819500D01*
X133718757Y-115819500D01*
X133500060Y-115860382D01*
X133368864Y-115911207D01*
X133292601Y-115940752D01*
X133292595Y-115940754D01*
X133103439Y-116057874D01*
X133103437Y-116057876D01*
X132939020Y-116207761D01*
X132804943Y-116385308D01*
X132804938Y-116385316D01*
X132705775Y-116584461D01*
X132705769Y-116584476D01*
X132644885Y-116798462D01*
X132644884Y-116798464D01*
X132624357Y-117019999D01*
X132624357Y-117020000D01*
X132644884Y-117241535D01*
X132644885Y-117241537D01*
X132705769Y-117455523D01*
X132705775Y-117455538D01*
X132804938Y-117654683D01*
X132804943Y-117654691D01*
X132939020Y-117832238D01*
X133103437Y-117982123D01*
X133103439Y-117982125D01*
X133292595Y-118099245D01*
X133292596Y-118099245D01*
X133292599Y-118099247D01*
X133500060Y-118179618D01*
X133718757Y-118220500D01*
X133718759Y-118220500D01*
X133941241Y-118220500D01*
X133941243Y-118220500D01*
X134159940Y-118179618D01*
X134367401Y-118099247D01*
X134556562Y-117982124D01*
X134720981Y-117832236D01*
X134855058Y-117654689D01*
X134954229Y-117455528D01*
X134956234Y-117448479D01*
X134993512Y-117389388D01*
X135056821Y-117359829D01*
X135126061Y-117369190D01*
X135179248Y-117414499D01*
X135199496Y-117481371D01*
X135199500Y-117482414D01*
X135199500Y-124177585D01*
X135179815Y-124244624D01*
X135127011Y-124290379D01*
X135057853Y-124300323D01*
X134994297Y-124271298D01*
X134956523Y-124212520D01*
X134956234Y-124211520D01*
X134954229Y-124204472D01*
X134924353Y-124144473D01*
X134855061Y-124005316D01*
X134855056Y-124005308D01*
X134720979Y-123827761D01*
X134556562Y-123677876D01*
X134556560Y-123677874D01*
X134367404Y-123560754D01*
X134367398Y-123560752D01*
X134159940Y-123480382D01*
X133941243Y-123439500D01*
X133718757Y-123439500D01*
X133500060Y-123480382D01*
X133368864Y-123531207D01*
X133292601Y-123560752D01*
X133292595Y-123560754D01*
X133103439Y-123677874D01*
X133103437Y-123677876D01*
X132939020Y-123827762D01*
X132835229Y-123965203D01*
X132779120Y-124006839D01*
X132709408Y-124011530D01*
X132648226Y-123977788D01*
X132628340Y-123950025D01*
X132628077Y-123950188D01*
X132625654Y-123946276D01*
X132625272Y-123945741D01*
X132625058Y-123945312D01*
X132490981Y-123767765D01*
X132490979Y-123767762D01*
X132326562Y-123617877D01*
X132326560Y-123617875D01*
X132137404Y-123500755D01*
X132137398Y-123500753D01*
X132125834Y-123496273D01*
X131929940Y-123420383D01*
X131929934Y-123420382D01*
X131929928Y-123420380D01*
X131817281Y-123399322D01*
X131755000Y-123367654D01*
X131719728Y-123307341D01*
X131722662Y-123237533D01*
X131740799Y-123203125D01*
X131793796Y-123132331D01*
X131844091Y-122997483D01*
X131850500Y-122937873D01*
X131850499Y-121342128D01*
X131844091Y-121282517D01*
X131793796Y-121147669D01*
X131793795Y-121147668D01*
X131793793Y-121147664D01*
X131707547Y-121032455D01*
X131707544Y-121032452D01*
X131592335Y-120946206D01*
X131592328Y-120946202D01*
X131457482Y-120895908D01*
X131457483Y-120895908D01*
X131397883Y-120889501D01*
X131397881Y-120889500D01*
X131397873Y-120889500D01*
X131397865Y-120889500D01*
X131331862Y-120889500D01*
X131264823Y-120869815D01*
X131219068Y-120817011D01*
X131209124Y-120747853D01*
X131238149Y-120684297D01*
X131260734Y-120663928D01*
X131406877Y-120561598D01*
X131561598Y-120406877D01*
X131687102Y-120227639D01*
X131779575Y-120029330D01*
X131836207Y-119817977D01*
X131855277Y-119600000D01*
X131853145Y-119575635D01*
X131850243Y-119542455D01*
X131836207Y-119382023D01*
X131779575Y-119170670D01*
X131687102Y-118972362D01*
X131687100Y-118972359D01*
X131687099Y-118972357D01*
X131561599Y-118793124D01*
X131561596Y-118793121D01*
X131406877Y-118638402D01*
X131268978Y-118541844D01*
X131227638Y-118512897D01*
X131076417Y-118442382D01*
X131023978Y-118396210D01*
X131004826Y-118329016D01*
X131025042Y-118262135D01*
X131076416Y-118217619D01*
X131227639Y-118147103D01*
X131406877Y-118021599D01*
X131561598Y-117866878D01*
X131687102Y-117687640D01*
X131779575Y-117489331D01*
X131836207Y-117277978D01*
X131855277Y-117060001D01*
X131836207Y-116842024D01*
X131779575Y-116630671D01*
X131687102Y-116432363D01*
X131687100Y-116432360D01*
X131687099Y-116432358D01*
X131561599Y-116253125D01*
X131516235Y-116207761D01*
X131406877Y-116098403D01*
X131227639Y-115972899D01*
X131227640Y-115972899D01*
X131227638Y-115972898D01*
X131128484Y-115926662D01*
X131029330Y-115880426D01*
X131029326Y-115880425D01*
X131029322Y-115880423D01*
X130817977Y-115823794D01*
X130600002Y-115804724D01*
X130599998Y-115804724D01*
X130454682Y-115817437D01*
X130382023Y-115823794D01*
X130382020Y-115823794D01*
X130170677Y-115880423D01*
X130170670Y-115880425D01*
X130170670Y-115880426D01*
X130169006Y-115881202D01*
X129972361Y-115972899D01*
X129972357Y-115972901D01*
X129793121Y-116098403D01*
X129638402Y-116253122D01*
X129512900Y-116432358D01*
X129512898Y-116432362D01*
X129420426Y-116630669D01*
X129420422Y-116630678D01*
X129363793Y-116842021D01*
X129363793Y-116842025D01*
X129344723Y-117059998D01*
X129344723Y-117060003D01*
X129363793Y-117277976D01*
X129363793Y-117277980D01*
X129420422Y-117489323D01*
X129420424Y-117489327D01*
X129420425Y-117489331D01*
X129466661Y-117588485D01*
X129512897Y-117687639D01*
X129512898Y-117687640D01*
X129638402Y-117866878D01*
X129793123Y-118021599D01*
X129972361Y-118147103D01*
X130123583Y-118217619D01*
X130176021Y-118263790D01*
X130195173Y-118330984D01*
X130174957Y-118397865D01*
X130123582Y-118442382D01*
X129972362Y-118512898D01*
X129972357Y-118512900D01*
X129793121Y-118638402D01*
X129638402Y-118793121D01*
X129512900Y-118972357D01*
X129512898Y-118972361D01*
X129420426Y-119170668D01*
X129420422Y-119170677D01*
X129363793Y-119382020D01*
X129363793Y-119382024D01*
X129344723Y-119599997D01*
X129344723Y-119600002D01*
X129363793Y-119817975D01*
X129363793Y-119817979D01*
X129420422Y-120029322D01*
X129420424Y-120029326D01*
X129420425Y-120029330D01*
X129447128Y-120086594D01*
X129512897Y-120227638D01*
X129512898Y-120227639D01*
X129638402Y-120406877D01*
X129793123Y-120561598D01*
X129939263Y-120663926D01*
X129982887Y-120718502D01*
X129990081Y-120788000D01*
X129958558Y-120850355D01*
X129898328Y-120885769D01*
X129868141Y-120889500D01*
X129802130Y-120889500D01*
X129802123Y-120889501D01*
X129742516Y-120895908D01*
X129607671Y-120946202D01*
X129607664Y-120946206D01*
X129492455Y-121032452D01*
X129492452Y-121032455D01*
X129406206Y-121147664D01*
X129406202Y-121147671D01*
X129355908Y-121282517D01*
X129350161Y-121335981D01*
X129349501Y-121342123D01*
X129349500Y-121342135D01*
X129349500Y-122937870D01*
X129349501Y-122937876D01*
X129355908Y-122997483D01*
X129406202Y-123132328D01*
X129406206Y-123132335D01*
X129492452Y-123247544D01*
X129492455Y-123247547D01*
X129607664Y-123333793D01*
X129607671Y-123333797D01*
X129742517Y-123384091D01*
X129742516Y-123384091D01*
X129748172Y-123384699D01*
X129802127Y-123390500D01*
X130804851Y-123390499D01*
X130871889Y-123410183D01*
X130917644Y-123462987D01*
X130927588Y-123532146D01*
X130898563Y-123595702D01*
X130877458Y-123613685D01*
X130878014Y-123614421D01*
X130873437Y-123617877D01*
X130709020Y-123767762D01*
X130574943Y-123945309D01*
X130574938Y-123945317D01*
X130475775Y-124144462D01*
X130475769Y-124144477D01*
X130414885Y-124358463D01*
X130414884Y-124358465D01*
X130394357Y-124580000D01*
X130394357Y-124580001D01*
X130414884Y-124801536D01*
X130414885Y-124801538D01*
X130475769Y-125015524D01*
X130475775Y-125015539D01*
X130574938Y-125214684D01*
X130574943Y-125214692D01*
X130639949Y-125300773D01*
X130664641Y-125366134D01*
X130650076Y-125434469D01*
X130600879Y-125484082D01*
X130540995Y-125499500D01*
X125039005Y-125499500D01*
X124971966Y-125479815D01*
X124926211Y-125427011D01*
X124916267Y-125357853D01*
X124940051Y-125300773D01*
X125005056Y-125214692D01*
X125005058Y-125214690D01*
X125104229Y-125015529D01*
X125165115Y-124801537D01*
X125185643Y-124580001D01*
X125165115Y-124358465D01*
X125104229Y-124144473D01*
X125104224Y-124144462D01*
X125005061Y-123945317D01*
X125005056Y-123945309D01*
X124870979Y-123767762D01*
X124706563Y-123617877D01*
X124705601Y-123617282D01*
X124705237Y-123616876D01*
X124701986Y-123614421D01*
X124702466Y-123613784D01*
X124658965Y-123565255D01*
X124647860Y-123496273D01*
X124675812Y-123432238D01*
X124733947Y-123393481D01*
X124784132Y-123388565D01*
X124802127Y-123390500D01*
X126397872Y-123390499D01*
X126457483Y-123384091D01*
X126592331Y-123333796D01*
X126707546Y-123247546D01*
X126793796Y-123132331D01*
X126844091Y-122997483D01*
X126850500Y-122937873D01*
X126850499Y-121342128D01*
X126844091Y-121282517D01*
X126793796Y-121147669D01*
X126793795Y-121147668D01*
X126793793Y-121147664D01*
X126707547Y-121032455D01*
X126707544Y-121032452D01*
X126592335Y-120946206D01*
X126592328Y-120946202D01*
X126457482Y-120895908D01*
X126457483Y-120895908D01*
X126397883Y-120889501D01*
X126397881Y-120889500D01*
X126397873Y-120889500D01*
X126397865Y-120889500D01*
X126330989Y-120889500D01*
X126263950Y-120869815D01*
X126218195Y-120817011D01*
X126208251Y-120747853D01*
X126237276Y-120684297D01*
X126259864Y-120663926D01*
X126289571Y-120643124D01*
X125646448Y-120000000D01*
X125652661Y-120000000D01*
X125754394Y-119972741D01*
X125845606Y-119920080D01*
X125920080Y-119845606D01*
X125972741Y-119754394D01*
X126000000Y-119652661D01*
X126000000Y-119646446D01*
X126643124Y-120289570D01*
X126686668Y-120227385D01*
X126686669Y-120227383D01*
X126779100Y-120029164D01*
X126779105Y-120029150D01*
X126835710Y-119817894D01*
X126835712Y-119817884D01*
X126854775Y-119600000D01*
X126854775Y-119599999D01*
X126835712Y-119382115D01*
X126835710Y-119382105D01*
X126779105Y-119170849D01*
X126779101Y-119170840D01*
X126686667Y-118972614D01*
X126686666Y-118972612D01*
X126643124Y-118910428D01*
X126643124Y-118910427D01*
X126000000Y-119553551D01*
X126000000Y-119547339D01*
X125972741Y-119445606D01*
X125920080Y-119354394D01*
X125845606Y-119279920D01*
X125754394Y-119227259D01*
X125652661Y-119200000D01*
X125646447Y-119200000D01*
X126289571Y-118556874D01*
X126227387Y-118513332D01*
X126075825Y-118442658D01*
X126023386Y-118396486D01*
X126004234Y-118329292D01*
X126024450Y-118262411D01*
X126075824Y-118217895D01*
X126227639Y-118147103D01*
X126406877Y-118021599D01*
X126561598Y-117866878D01*
X126687102Y-117687640D01*
X126779575Y-117489331D01*
X126836207Y-117277978D01*
X126855277Y-117060001D01*
X126836207Y-116842024D01*
X126779575Y-116630671D01*
X126687102Y-116432363D01*
X126687100Y-116432360D01*
X126687099Y-116432358D01*
X126561599Y-116253125D01*
X126516235Y-116207761D01*
X126406877Y-116098403D01*
X126227639Y-115972899D01*
X126227640Y-115972899D01*
X126227638Y-115972898D01*
X126128484Y-115926662D01*
X126029330Y-115880426D01*
X126029326Y-115880425D01*
X126029322Y-115880423D01*
X125817977Y-115823794D01*
X125600002Y-115804724D01*
X125599998Y-115804724D01*
X125454682Y-115817437D01*
X125382023Y-115823794D01*
X125382020Y-115823794D01*
X125170677Y-115880423D01*
X125170670Y-115880425D01*
X125170670Y-115880426D01*
X125169006Y-115881202D01*
X124972361Y-115972899D01*
X124972357Y-115972901D01*
X124793121Y-116098403D01*
X124638402Y-116253122D01*
X124512900Y-116432358D01*
X124512898Y-116432362D01*
X124420426Y-116630669D01*
X124420422Y-116630678D01*
X124363793Y-116842021D01*
X124363793Y-116842025D01*
X124344723Y-117059998D01*
X124344723Y-117060003D01*
X124363793Y-117277976D01*
X124363793Y-117277980D01*
X124420422Y-117489323D01*
X124420424Y-117489327D01*
X124420425Y-117489331D01*
X124466661Y-117588485D01*
X124512897Y-117687639D01*
X124512898Y-117687640D01*
X124638402Y-117866878D01*
X124793123Y-118021599D01*
X124972361Y-118147103D01*
X125124175Y-118217895D01*
X125176613Y-118264066D01*
X125195765Y-118331260D01*
X125175549Y-118398141D01*
X125124174Y-118442658D01*
X124972613Y-118513333D01*
X124910428Y-118556874D01*
X125553554Y-119200000D01*
X125547339Y-119200000D01*
X125445606Y-119227259D01*
X125354394Y-119279920D01*
X125279920Y-119354394D01*
X125227259Y-119445606D01*
X125200000Y-119547339D01*
X125200000Y-119553554D01*
X124556874Y-118910428D01*
X124513333Y-118972613D01*
X124420898Y-119170840D01*
X124420894Y-119170849D01*
X124364289Y-119382105D01*
X124364287Y-119382115D01*
X124345225Y-119599999D01*
X124345225Y-119600000D01*
X124364287Y-119817884D01*
X124364289Y-119817894D01*
X124420894Y-120029150D01*
X124420898Y-120029159D01*
X124513333Y-120227387D01*
X124556874Y-120289571D01*
X125200000Y-119646445D01*
X125200000Y-119652661D01*
X125227259Y-119754394D01*
X125279920Y-119845606D01*
X125354394Y-119920080D01*
X125445606Y-119972741D01*
X125547339Y-120000000D01*
X125553553Y-120000000D01*
X124910427Y-120643124D01*
X124940134Y-120663925D01*
X124983759Y-120718502D01*
X124990953Y-120788000D01*
X124959430Y-120850355D01*
X124899201Y-120885769D01*
X124869013Y-120889500D01*
X124802130Y-120889500D01*
X124802123Y-120889501D01*
X124742516Y-120895908D01*
X124607671Y-120946202D01*
X124607664Y-120946206D01*
X124492455Y-121032452D01*
X124492452Y-121032455D01*
X124406206Y-121147664D01*
X124406202Y-121147671D01*
X124355908Y-121282517D01*
X124350161Y-121335981D01*
X124349501Y-121342123D01*
X124349500Y-121342135D01*
X124349500Y-122937870D01*
X124349501Y-122937876D01*
X124355908Y-122997483D01*
X124406202Y-123132328D01*
X124406206Y-123132335D01*
X124490130Y-123244442D01*
X124514548Y-123309906D01*
X124499697Y-123378179D01*
X124450292Y-123427585D01*
X124382019Y-123442437D01*
X124346072Y-123434380D01*
X124309946Y-123420385D01*
X124309944Y-123420384D01*
X124309940Y-123420383D01*
X124091243Y-123379501D01*
X123868757Y-123379501D01*
X123650060Y-123420383D01*
X123540087Y-123462987D01*
X123442601Y-123500753D01*
X123442595Y-123500755D01*
X123253439Y-123617875D01*
X123253437Y-123617877D01*
X123089020Y-123767762D01*
X122954943Y-123945309D01*
X122954938Y-123945317D01*
X122901000Y-124053640D01*
X122853497Y-124104877D01*
X122785834Y-124122298D01*
X122719494Y-124100372D01*
X122679000Y-124053640D01*
X122625061Y-123945317D01*
X122625056Y-123945309D01*
X122490979Y-123767762D01*
X122326562Y-123617877D01*
X122326560Y-123617875D01*
X122137404Y-123500755D01*
X122137398Y-123500753D01*
X122125834Y-123496273D01*
X121929940Y-123420383D01*
X121711243Y-123379501D01*
X121488757Y-123379501D01*
X121270060Y-123420383D01*
X121160087Y-123462987D01*
X121062601Y-123500753D01*
X121062595Y-123500755D01*
X120873439Y-123617875D01*
X120873437Y-123617877D01*
X120709020Y-123767762D01*
X120574943Y-123945309D01*
X120574938Y-123945317D01*
X120475775Y-124144462D01*
X120475769Y-124144477D01*
X120414885Y-124358463D01*
X120414884Y-124358465D01*
X120394357Y-124580000D01*
X120394357Y-124580001D01*
X120414884Y-124801536D01*
X120414885Y-124801538D01*
X120475769Y-125015524D01*
X120475775Y-125015539D01*
X120574938Y-125214684D01*
X120574943Y-125214692D01*
X120639949Y-125300773D01*
X120664641Y-125366134D01*
X120650076Y-125434469D01*
X120600879Y-125484082D01*
X120540995Y-125499500D01*
X119909005Y-125499500D01*
X119841966Y-125479815D01*
X119796211Y-125427011D01*
X119786267Y-125357853D01*
X119810051Y-125300773D01*
X119875056Y-125214692D01*
X119875058Y-125214690D01*
X119974229Y-125015529D01*
X120035115Y-124801537D01*
X120055643Y-124580001D01*
X120035115Y-124358465D01*
X119974229Y-124144473D01*
X119974224Y-124144462D01*
X119875061Y-123945317D01*
X119875056Y-123945309D01*
X119740979Y-123767762D01*
X119576562Y-123617877D01*
X119576560Y-123617875D01*
X119387404Y-123500755D01*
X119387398Y-123500753D01*
X119375834Y-123496273D01*
X119179940Y-123420383D01*
X118961243Y-123379501D01*
X118738757Y-123379501D01*
X118520060Y-123420383D01*
X118410087Y-123462987D01*
X118312601Y-123500753D01*
X118312595Y-123500755D01*
X118123439Y-123617875D01*
X118123437Y-123617877D01*
X117959020Y-123767762D01*
X117824943Y-123945309D01*
X117824938Y-123945317D01*
X117725775Y-124144462D01*
X117725769Y-124144477D01*
X117664885Y-124358463D01*
X117664884Y-124358465D01*
X117644357Y-124580000D01*
X117644357Y-124580001D01*
X117664884Y-124801536D01*
X117664885Y-124801538D01*
X117725769Y-125015524D01*
X117725775Y-125015539D01*
X117824938Y-125214684D01*
X117824943Y-125214692D01*
X117889949Y-125300773D01*
X117914641Y-125366134D01*
X117900076Y-125434469D01*
X117850879Y-125484082D01*
X117790995Y-125499500D01*
X81024500Y-125499500D01*
X80957461Y-125479815D01*
X80911706Y-125427011D01*
X80900500Y-125375500D01*
X80900500Y-122947870D01*
X82499500Y-122947870D01*
X82499501Y-122947876D01*
X82505908Y-123007483D01*
X82556202Y-123142328D01*
X82556206Y-123142335D01*
X82642452Y-123257544D01*
X82642455Y-123257547D01*
X82757664Y-123343793D01*
X82757671Y-123343797D01*
X82892517Y-123394091D01*
X82892516Y-123394091D01*
X82899444Y-123394835D01*
X82952127Y-123400500D01*
X86047872Y-123400499D01*
X86107483Y-123394091D01*
X86242331Y-123343796D01*
X86357546Y-123257546D01*
X86443796Y-123142331D01*
X86494091Y-123007483D01*
X86500500Y-122947873D01*
X86500500Y-121400001D01*
X87494390Y-121400001D01*
X87514804Y-121685433D01*
X87575628Y-121965037D01*
X87575630Y-121965043D01*
X87575631Y-121965046D01*
X87675557Y-122232958D01*
X87675635Y-122233166D01*
X87812770Y-122484309D01*
X87812775Y-122484317D01*
X87984254Y-122713387D01*
X87984270Y-122713405D01*
X88186594Y-122915729D01*
X88186612Y-122915745D01*
X88415682Y-123087224D01*
X88415690Y-123087229D01*
X88666833Y-123224364D01*
X88666832Y-123224364D01*
X88666836Y-123224365D01*
X88666839Y-123224367D01*
X88934954Y-123324369D01*
X88934960Y-123324370D01*
X88934962Y-123324371D01*
X89214566Y-123385195D01*
X89214568Y-123385195D01*
X89214572Y-123385196D01*
X89468220Y-123403337D01*
X89499999Y-123405610D01*
X89500000Y-123405610D01*
X89500001Y-123405610D01*
X89528595Y-123403564D01*
X89785428Y-123385196D01*
X89975742Y-123343796D01*
X90065037Y-123324371D01*
X90065037Y-123324370D01*
X90065046Y-123324369D01*
X90333161Y-123224367D01*
X90584315Y-123087226D01*
X90813395Y-122915739D01*
X91015739Y-122713395D01*
X91187226Y-122484315D01*
X91324367Y-122233161D01*
X91424369Y-121965046D01*
X91485196Y-121685428D01*
X91505610Y-121400001D01*
X92494390Y-121400001D01*
X92514804Y-121685433D01*
X92575628Y-121965037D01*
X92575630Y-121965043D01*
X92575631Y-121965046D01*
X92675557Y-122232958D01*
X92675635Y-122233166D01*
X92812770Y-122484309D01*
X92812775Y-122484317D01*
X92984254Y-122713387D01*
X92984270Y-122713405D01*
X93186594Y-122915729D01*
X93186612Y-122915745D01*
X93415682Y-123087224D01*
X93415690Y-123087229D01*
X93666833Y-123224364D01*
X93666832Y-123224364D01*
X93666836Y-123224365D01*
X93666839Y-123224367D01*
X93934954Y-123324369D01*
X93934960Y-123324370D01*
X93934962Y-123324371D01*
X94214566Y-123385195D01*
X94214568Y-123385195D01*
X94214572Y-123385196D01*
X94468220Y-123403337D01*
X94499999Y-123405610D01*
X94500000Y-123405610D01*
X94500001Y-123405610D01*
X94528595Y-123403564D01*
X94785428Y-123385196D01*
X94975742Y-123343796D01*
X95065037Y-123324371D01*
X95065037Y-123324370D01*
X95065046Y-123324369D01*
X95333161Y-123224367D01*
X95584315Y-123087226D01*
X95813395Y-122915739D01*
X96015739Y-122713395D01*
X96187226Y-122484315D01*
X96324367Y-122233161D01*
X96424369Y-121965046D01*
X96485196Y-121685428D01*
X96505610Y-121400001D01*
X97494390Y-121400001D01*
X97514804Y-121685433D01*
X97575628Y-121965037D01*
X97575630Y-121965043D01*
X97575631Y-121965046D01*
X97675557Y-122232958D01*
X97675635Y-122233166D01*
X97812770Y-122484309D01*
X97812775Y-122484317D01*
X97984254Y-122713387D01*
X97984270Y-122713405D01*
X98186594Y-122915729D01*
X98186612Y-122915745D01*
X98415682Y-123087224D01*
X98415690Y-123087229D01*
X98666833Y-123224364D01*
X98666832Y-123224364D01*
X98666836Y-123224365D01*
X98666839Y-123224367D01*
X98934954Y-123324369D01*
X98934960Y-123324370D01*
X98934962Y-123324371D01*
X99214566Y-123385195D01*
X99214568Y-123385195D01*
X99214572Y-123385196D01*
X99468220Y-123403337D01*
X99499999Y-123405610D01*
X99500000Y-123405610D01*
X99500001Y-123405610D01*
X99528595Y-123403564D01*
X99785428Y-123385196D01*
X99975742Y-123343796D01*
X100065037Y-123324371D01*
X100065037Y-123324370D01*
X100065046Y-123324369D01*
X100333161Y-123224367D01*
X100584315Y-123087226D01*
X100813395Y-122915739D01*
X101015739Y-122713395D01*
X101187226Y-122484315D01*
X101324367Y-122233161D01*
X101424369Y-121965046D01*
X101485196Y-121685428D01*
X101505610Y-121400001D01*
X102494390Y-121400001D01*
X102514804Y-121685433D01*
X102575628Y-121965037D01*
X102575630Y-121965043D01*
X102575631Y-121965046D01*
X102675557Y-122232958D01*
X102675635Y-122233166D01*
X102812770Y-122484309D01*
X102812775Y-122484317D01*
X102984254Y-122713387D01*
X102984270Y-122713405D01*
X103186594Y-122915729D01*
X103186612Y-122915745D01*
X103415682Y-123087224D01*
X103415690Y-123087229D01*
X103666833Y-123224364D01*
X103666832Y-123224364D01*
X103666836Y-123224365D01*
X103666839Y-123224367D01*
X103934954Y-123324369D01*
X103934960Y-123324370D01*
X103934962Y-123324371D01*
X104214566Y-123385195D01*
X104214568Y-123385195D01*
X104214572Y-123385196D01*
X104468220Y-123403337D01*
X104499999Y-123405610D01*
X104500000Y-123405610D01*
X104500001Y-123405610D01*
X104528595Y-123403564D01*
X104785428Y-123385196D01*
X104975742Y-123343796D01*
X105065037Y-123324371D01*
X105065037Y-123324370D01*
X105065046Y-123324369D01*
X105333161Y-123224367D01*
X105584315Y-123087226D01*
X105813395Y-122915739D01*
X106015739Y-122713395D01*
X106187226Y-122484315D01*
X106324367Y-122233161D01*
X106424369Y-121965046D01*
X106485196Y-121685428D01*
X106505610Y-121400001D01*
X107494891Y-121400001D01*
X107515300Y-121685362D01*
X107576109Y-121964895D01*
X107676091Y-122232958D01*
X107813191Y-122484038D01*
X107813196Y-122484046D01*
X107919882Y-122626561D01*
X107919883Y-122626562D01*
X108898958Y-121647487D01*
X108923978Y-121707890D01*
X108995112Y-121814351D01*
X109085649Y-121904888D01*
X109192110Y-121976022D01*
X109252511Y-122001041D01*
X108273436Y-122980115D01*
X108415960Y-123086807D01*
X108415961Y-123086808D01*
X108667042Y-123223908D01*
X108667041Y-123223908D01*
X108935104Y-123323890D01*
X109214637Y-123384699D01*
X109499999Y-123405109D01*
X109500001Y-123405109D01*
X109785362Y-123384699D01*
X110064895Y-123323890D01*
X110332958Y-123223908D01*
X110584047Y-123086803D01*
X110726561Y-122980116D01*
X110726562Y-122980115D01*
X109747489Y-122001041D01*
X109807890Y-121976022D01*
X109914351Y-121904888D01*
X110004888Y-121814351D01*
X110076022Y-121707890D01*
X110101041Y-121647488D01*
X111080115Y-122626562D01*
X111080116Y-122626561D01*
X111186803Y-122484047D01*
X111323908Y-122232958D01*
X111423890Y-121964895D01*
X111484699Y-121685362D01*
X111505109Y-121400001D01*
X112494390Y-121400001D01*
X112514804Y-121685433D01*
X112575628Y-121965037D01*
X112575630Y-121965043D01*
X112575631Y-121965046D01*
X112675557Y-122232958D01*
X112675635Y-122233166D01*
X112812770Y-122484309D01*
X112812775Y-122484317D01*
X112984254Y-122713387D01*
X112984270Y-122713405D01*
X113186594Y-122915729D01*
X113186612Y-122915745D01*
X113415682Y-123087224D01*
X113415690Y-123087229D01*
X113666833Y-123224364D01*
X113666832Y-123224364D01*
X113666836Y-123224365D01*
X113666839Y-123224367D01*
X113934954Y-123324369D01*
X113934960Y-123324370D01*
X113934962Y-123324371D01*
X114214566Y-123385195D01*
X114214568Y-123385195D01*
X114214572Y-123385196D01*
X114468220Y-123403337D01*
X114499999Y-123405610D01*
X114500000Y-123405610D01*
X114500001Y-123405610D01*
X114528595Y-123403564D01*
X114785428Y-123385196D01*
X114975742Y-123343796D01*
X115065037Y-123324371D01*
X115065037Y-123324370D01*
X115065046Y-123324369D01*
X115333161Y-123224367D01*
X115584315Y-123087226D01*
X115813395Y-122915739D01*
X116015739Y-122713395D01*
X116187226Y-122484315D01*
X116324367Y-122233161D01*
X116424369Y-121965046D01*
X116485196Y-121685428D01*
X116505610Y-121400000D01*
X116485196Y-121114572D01*
X116467332Y-121032454D01*
X116424371Y-120834962D01*
X116424370Y-120834960D01*
X116424369Y-120834954D01*
X116324367Y-120566839D01*
X116321502Y-120561593D01*
X116187229Y-120315690D01*
X116187224Y-120315682D01*
X116015745Y-120086612D01*
X116015729Y-120086594D01*
X115813405Y-119884270D01*
X115813387Y-119884254D01*
X115584317Y-119712775D01*
X115584309Y-119712770D01*
X115333166Y-119575635D01*
X115333167Y-119575635D01*
X115225915Y-119535632D01*
X115065046Y-119475631D01*
X115065043Y-119475630D01*
X115065037Y-119475628D01*
X114785433Y-119414804D01*
X114500001Y-119394390D01*
X114499999Y-119394390D01*
X114214566Y-119414804D01*
X113934962Y-119475628D01*
X113666833Y-119575635D01*
X113415690Y-119712770D01*
X113415682Y-119712775D01*
X113186612Y-119884254D01*
X113186594Y-119884270D01*
X112984270Y-120086594D01*
X112984254Y-120086612D01*
X112812775Y-120315682D01*
X112812770Y-120315690D01*
X112675635Y-120566833D01*
X112575628Y-120834962D01*
X112514804Y-121114566D01*
X112494390Y-121399998D01*
X112494390Y-121400001D01*
X111505109Y-121400001D01*
X111505109Y-121399998D01*
X111484699Y-121114637D01*
X111423890Y-120835104D01*
X111323908Y-120567041D01*
X111186808Y-120315961D01*
X111186807Y-120315960D01*
X111080115Y-120173436D01*
X110101041Y-121152510D01*
X110076022Y-121092110D01*
X110004888Y-120985649D01*
X109914351Y-120895112D01*
X109807890Y-120823978D01*
X109747488Y-120798958D01*
X110726562Y-119819883D01*
X110726561Y-119819882D01*
X110584046Y-119713196D01*
X110584038Y-119713191D01*
X110332957Y-119576091D01*
X110332958Y-119576091D01*
X110064895Y-119476109D01*
X109785362Y-119415300D01*
X109500001Y-119394891D01*
X109499999Y-119394891D01*
X109214637Y-119415300D01*
X108935104Y-119476109D01*
X108667041Y-119576091D01*
X108415961Y-119713191D01*
X108415953Y-119713196D01*
X108273437Y-119819882D01*
X108273436Y-119819883D01*
X109252512Y-120798958D01*
X109192110Y-120823978D01*
X109085649Y-120895112D01*
X108995112Y-120985649D01*
X108923978Y-121092110D01*
X108898958Y-121152511D01*
X107919883Y-120173436D01*
X107919882Y-120173437D01*
X107813196Y-120315953D01*
X107813191Y-120315961D01*
X107676091Y-120567041D01*
X107576109Y-120835104D01*
X107515300Y-121114637D01*
X107494891Y-121399998D01*
X107494891Y-121400001D01*
X106505610Y-121400001D01*
X106505610Y-121400000D01*
X106485196Y-121114572D01*
X106467332Y-121032454D01*
X106424371Y-120834962D01*
X106424370Y-120834960D01*
X106424369Y-120834954D01*
X106324367Y-120566839D01*
X106321502Y-120561593D01*
X106187229Y-120315690D01*
X106187224Y-120315682D01*
X106015745Y-120086612D01*
X106015729Y-120086594D01*
X105813405Y-119884270D01*
X105813387Y-119884254D01*
X105584317Y-119712775D01*
X105584309Y-119712770D01*
X105333166Y-119575635D01*
X105333167Y-119575635D01*
X105225915Y-119535632D01*
X105065046Y-119475631D01*
X105065043Y-119475630D01*
X105065037Y-119475628D01*
X104785433Y-119414804D01*
X104500001Y-119394390D01*
X104499999Y-119394390D01*
X104214566Y-119414804D01*
X103934962Y-119475628D01*
X103666833Y-119575635D01*
X103415690Y-119712770D01*
X103415682Y-119712775D01*
X103186612Y-119884254D01*
X103186594Y-119884270D01*
X102984270Y-120086594D01*
X102984254Y-120086612D01*
X102812775Y-120315682D01*
X102812770Y-120315690D01*
X102675635Y-120566833D01*
X102575628Y-120834962D01*
X102514804Y-121114566D01*
X102494390Y-121399998D01*
X102494390Y-121400001D01*
X101505610Y-121400001D01*
X101505610Y-121400000D01*
X101485196Y-121114572D01*
X101467332Y-121032454D01*
X101424371Y-120834962D01*
X101424370Y-120834960D01*
X101424369Y-120834954D01*
X101324367Y-120566839D01*
X101321502Y-120561593D01*
X101187229Y-120315690D01*
X101187224Y-120315682D01*
X101015745Y-120086612D01*
X101015729Y-120086594D01*
X100813405Y-119884270D01*
X100813387Y-119884254D01*
X100584317Y-119712775D01*
X100584309Y-119712770D01*
X100333166Y-119575635D01*
X100333167Y-119575635D01*
X100225915Y-119535632D01*
X100065046Y-119475631D01*
X100065043Y-119475630D01*
X100065037Y-119475628D01*
X99785433Y-119414804D01*
X99500001Y-119394390D01*
X99499999Y-119394390D01*
X99214566Y-119414804D01*
X98934962Y-119475628D01*
X98666833Y-119575635D01*
X98415690Y-119712770D01*
X98415682Y-119712775D01*
X98186612Y-119884254D01*
X98186594Y-119884270D01*
X97984270Y-120086594D01*
X97984254Y-120086612D01*
X97812775Y-120315682D01*
X97812770Y-120315690D01*
X97675635Y-120566833D01*
X97575628Y-120834962D01*
X97514804Y-121114566D01*
X97494390Y-121399998D01*
X97494390Y-121400001D01*
X96505610Y-121400001D01*
X96505610Y-121400000D01*
X96485196Y-121114572D01*
X96467332Y-121032454D01*
X96424371Y-120834962D01*
X96424370Y-120834960D01*
X96424369Y-120834954D01*
X96324367Y-120566839D01*
X96321502Y-120561593D01*
X96187229Y-120315690D01*
X96187224Y-120315682D01*
X96015745Y-120086612D01*
X96015729Y-120086594D01*
X95813405Y-119884270D01*
X95813387Y-119884254D01*
X95584317Y-119712775D01*
X95584309Y-119712770D01*
X95333166Y-119575635D01*
X95333167Y-119575635D01*
X95225915Y-119535632D01*
X95065046Y-119475631D01*
X95065043Y-119475630D01*
X95065037Y-119475628D01*
X94785433Y-119414804D01*
X94500001Y-119394390D01*
X94499999Y-119394390D01*
X94214566Y-119414804D01*
X93934962Y-119475628D01*
X93666833Y-119575635D01*
X93415690Y-119712770D01*
X93415682Y-119712775D01*
X93186612Y-119884254D01*
X93186594Y-119884270D01*
X92984270Y-120086594D01*
X92984254Y-120086612D01*
X92812775Y-120315682D01*
X92812770Y-120315690D01*
X92675635Y-120566833D01*
X92575628Y-120834962D01*
X92514804Y-121114566D01*
X92494390Y-121399998D01*
X92494390Y-121400001D01*
X91505610Y-121400001D01*
X91505610Y-121400000D01*
X91485196Y-121114572D01*
X91467332Y-121032454D01*
X91424371Y-120834962D01*
X91424370Y-120834960D01*
X91424369Y-120834954D01*
X91324367Y-120566839D01*
X91321502Y-120561593D01*
X91187229Y-120315690D01*
X91187224Y-120315682D01*
X91015745Y-120086612D01*
X91015729Y-120086594D01*
X90813405Y-119884270D01*
X90813387Y-119884254D01*
X90584317Y-119712775D01*
X90584309Y-119712770D01*
X90333166Y-119575635D01*
X90333167Y-119575635D01*
X90225915Y-119535632D01*
X90065046Y-119475631D01*
X90065043Y-119475630D01*
X90065037Y-119475628D01*
X89785433Y-119414804D01*
X89500001Y-119394390D01*
X89499999Y-119394390D01*
X89214566Y-119414804D01*
X88934962Y-119475628D01*
X88666833Y-119575635D01*
X88415690Y-119712770D01*
X88415682Y-119712775D01*
X88186612Y-119884254D01*
X88186594Y-119884270D01*
X87984270Y-120086594D01*
X87984254Y-120086612D01*
X87812775Y-120315682D01*
X87812770Y-120315690D01*
X87675635Y-120566833D01*
X87575628Y-120834962D01*
X87514804Y-121114566D01*
X87494390Y-121399998D01*
X87494390Y-121400001D01*
X86500500Y-121400001D01*
X86500499Y-119852128D01*
X86494091Y-119792517D01*
X86464506Y-119713196D01*
X86443797Y-119657671D01*
X86443793Y-119657664D01*
X86357547Y-119542455D01*
X86357544Y-119542452D01*
X86242335Y-119456206D01*
X86242328Y-119456202D01*
X86107482Y-119405908D01*
X86107483Y-119405908D01*
X86047883Y-119399501D01*
X86047881Y-119399500D01*
X86047873Y-119399500D01*
X86047864Y-119399500D01*
X82952129Y-119399500D01*
X82952123Y-119399501D01*
X82892516Y-119405908D01*
X82757671Y-119456202D01*
X82757664Y-119456206D01*
X82642455Y-119542452D01*
X82642452Y-119542455D01*
X82556206Y-119657664D01*
X82556202Y-119657671D01*
X82505908Y-119792517D01*
X82500201Y-119845606D01*
X82499501Y-119852123D01*
X82499500Y-119852135D01*
X82499500Y-122947870D01*
X80900500Y-122947870D01*
X80900500Y-116960001D01*
X117644357Y-116960001D01*
X117664884Y-117181536D01*
X117664885Y-117181538D01*
X117725769Y-117395524D01*
X117725775Y-117395539D01*
X117824938Y-117594684D01*
X117824943Y-117594692D01*
X117959020Y-117772239D01*
X118123437Y-117922124D01*
X118123439Y-117922126D01*
X118312595Y-118039246D01*
X118312596Y-118039246D01*
X118312599Y-118039248D01*
X118520060Y-118119619D01*
X118738757Y-118160501D01*
X118738759Y-118160501D01*
X118961241Y-118160501D01*
X118961243Y-118160501D01*
X119179940Y-118119619D01*
X119387401Y-118039248D01*
X119576562Y-117922125D01*
X119740981Y-117772237D01*
X119875058Y-117594690D01*
X119974229Y-117395529D01*
X120027016Y-117210001D01*
X120423505Y-117210001D01*
X120476239Y-117395350D01*
X120575368Y-117594426D01*
X120709391Y-117771901D01*
X120873738Y-117921722D01*
X121062820Y-118038798D01*
X121062822Y-118038799D01*
X121270195Y-118119136D01*
X121350000Y-118134053D01*
X121350000Y-117210001D01*
X120423505Y-117210001D01*
X120027016Y-117210001D01*
X120035115Y-117181537D01*
X120051373Y-117006079D01*
X121250000Y-117006079D01*
X121273852Y-117095096D01*
X121319930Y-117174906D01*
X121385095Y-117240071D01*
X121464905Y-117286149D01*
X121553922Y-117310001D01*
X121646078Y-117310001D01*
X121735095Y-117286149D01*
X121814905Y-117240071D01*
X121844975Y-117210001D01*
X121850000Y-117210001D01*
X121850000Y-118134053D01*
X121929804Y-118119136D01*
X122137177Y-118038799D01*
X122137179Y-118038798D01*
X122326261Y-117921722D01*
X122490608Y-117771901D01*
X122624631Y-117594426D01*
X122723760Y-117395350D01*
X122776495Y-117210001D01*
X121850000Y-117210001D01*
X121844975Y-117210001D01*
X121880070Y-117174906D01*
X121926148Y-117095096D01*
X121950000Y-117006079D01*
X121950000Y-116913923D01*
X121926148Y-116824906D01*
X121880070Y-116745096D01*
X121814905Y-116679931D01*
X121735095Y-116633853D01*
X121646078Y-116610001D01*
X121553922Y-116610001D01*
X121464905Y-116633853D01*
X121385095Y-116679931D01*
X121319930Y-116745096D01*
X121273852Y-116824906D01*
X121250000Y-116913923D01*
X121250000Y-117006079D01*
X120051373Y-117006079D01*
X120055643Y-116960001D01*
X120035115Y-116738465D01*
X120027016Y-116710001D01*
X120423505Y-116710001D01*
X121350000Y-116710001D01*
X121350000Y-115785947D01*
X121850000Y-115785947D01*
X121850000Y-116710001D01*
X122776495Y-116710001D01*
X122723760Y-116524651D01*
X122624631Y-116325575D01*
X122490608Y-116148100D01*
X122326261Y-115998279D01*
X122137179Y-115881203D01*
X122137177Y-115881202D01*
X121929799Y-115800865D01*
X121850000Y-115785947D01*
X121350000Y-115785947D01*
X121270200Y-115800865D01*
X121062822Y-115881202D01*
X121062820Y-115881203D01*
X120873738Y-115998279D01*
X120709391Y-116148100D01*
X120575368Y-116325575D01*
X120476239Y-116524651D01*
X120423505Y-116710001D01*
X120027016Y-116710001D01*
X119974229Y-116524473D01*
X119974224Y-116524462D01*
X119875061Y-116325317D01*
X119875056Y-116325309D01*
X119740979Y-116147762D01*
X119576562Y-115997877D01*
X119576560Y-115997875D01*
X119387404Y-115880755D01*
X119387398Y-115880753D01*
X119179940Y-115800383D01*
X118961243Y-115759501D01*
X118738757Y-115759501D01*
X118520060Y-115800383D01*
X118388864Y-115851208D01*
X118312601Y-115880753D01*
X118312595Y-115880755D01*
X118123439Y-115997875D01*
X118123437Y-115997877D01*
X117959020Y-116147762D01*
X117824943Y-116325309D01*
X117824938Y-116325317D01*
X117725775Y-116524462D01*
X117725769Y-116524477D01*
X117664885Y-116738463D01*
X117664884Y-116738465D01*
X117644357Y-116960000D01*
X117644357Y-116960001D01*
X80900500Y-116960001D01*
X80900500Y-114200000D01*
X83764357Y-114200000D01*
X83784884Y-114421535D01*
X83784885Y-114421537D01*
X83845769Y-114635523D01*
X83845775Y-114635538D01*
X83944938Y-114834683D01*
X83944943Y-114834691D01*
X84079020Y-115012238D01*
X84243437Y-115162123D01*
X84243439Y-115162125D01*
X84432595Y-115279245D01*
X84432596Y-115279245D01*
X84432599Y-115279247D01*
X84640060Y-115359618D01*
X84858757Y-115400500D01*
X84858759Y-115400500D01*
X85081241Y-115400500D01*
X85081243Y-115400500D01*
X85299940Y-115359618D01*
X85507401Y-115279247D01*
X85696562Y-115162124D01*
X85860981Y-115012236D01*
X85995058Y-114834689D01*
X86094229Y-114635528D01*
X86155115Y-114421536D01*
X86175643Y-114200000D01*
X86155115Y-113978464D01*
X86094229Y-113764472D01*
X86088217Y-113752398D01*
X85995061Y-113565316D01*
X85995056Y-113565308D01*
X85860979Y-113387761D01*
X85696563Y-113237877D01*
X85696562Y-113237876D01*
X85605607Y-113181559D01*
X85578401Y-113164714D01*
X85531766Y-113112686D01*
X85520662Y-113043704D01*
X85548615Y-112979670D01*
X85578400Y-112953861D01*
X85726562Y-112862124D01*
X85890981Y-112712236D01*
X86025058Y-112534689D01*
X86124229Y-112335528D01*
X86185115Y-112121536D01*
X86205643Y-111900000D01*
X86196377Y-111800001D01*
X86494532Y-111800001D01*
X86514364Y-112026686D01*
X86514366Y-112026697D01*
X86573258Y-112246488D01*
X86573261Y-112246497D01*
X86669431Y-112452732D01*
X86669432Y-112452734D01*
X86799954Y-112639141D01*
X86960858Y-112800045D01*
X86960861Y-112800047D01*
X87147266Y-112930568D01*
X87353504Y-113026739D01*
X87573308Y-113085635D01*
X87735230Y-113099801D01*
X87799998Y-113105468D01*
X87800000Y-113105468D01*
X87800002Y-113105468D01*
X87856784Y-113100500D01*
X88026692Y-113085635D01*
X88246496Y-113026739D01*
X88452734Y-112930568D01*
X88639139Y-112800047D01*
X88800047Y-112639139D01*
X88930568Y-112452734D01*
X89026739Y-112246496D01*
X89085635Y-112026692D01*
X89096719Y-111900000D01*
X89394357Y-111900000D01*
X89414884Y-112121535D01*
X89414885Y-112121537D01*
X89475769Y-112335523D01*
X89475775Y-112335538D01*
X89574938Y-112534683D01*
X89574943Y-112534691D01*
X89709020Y-112712238D01*
X89873437Y-112862123D01*
X89873439Y-112862125D01*
X90062595Y-112979245D01*
X90062596Y-112979245D01*
X90062599Y-112979247D01*
X90270060Y-113059618D01*
X90488757Y-113100500D01*
X90488759Y-113100500D01*
X90711241Y-113100500D01*
X90711243Y-113100500D01*
X90929940Y-113059618D01*
X91137401Y-112979247D01*
X91326562Y-112862124D01*
X91490981Y-112712236D01*
X91625058Y-112534689D01*
X91689000Y-112406277D01*
X91736503Y-112355040D01*
X91804166Y-112337619D01*
X91870506Y-112359545D01*
X91911000Y-112406277D01*
X91974938Y-112534683D01*
X91974943Y-112534691D01*
X92109020Y-112712238D01*
X92258674Y-112848665D01*
X92294956Y-112908376D01*
X92293195Y-112978224D01*
X92253952Y-113036031D01*
X92219932Y-113055927D01*
X92206318Y-113061202D01*
X92052601Y-113120751D01*
X92052595Y-113120754D01*
X91863439Y-113237874D01*
X91863437Y-113237876D01*
X91699020Y-113387761D01*
X91564943Y-113565308D01*
X91564938Y-113565316D01*
X91465775Y-113764461D01*
X91465769Y-113764476D01*
X91404885Y-113978462D01*
X91404884Y-113978464D01*
X91384357Y-114199999D01*
X91384357Y-114200000D01*
X91404884Y-114421535D01*
X91404885Y-114421537D01*
X91465769Y-114635523D01*
X91465775Y-114635538D01*
X91564938Y-114834683D01*
X91564943Y-114834691D01*
X91699020Y-115012238D01*
X91863437Y-115162123D01*
X91863439Y-115162125D01*
X92052595Y-115279245D01*
X92052596Y-115279245D01*
X92052599Y-115279247D01*
X92260060Y-115359618D01*
X92478757Y-115400500D01*
X92478759Y-115400500D01*
X92701241Y-115400500D01*
X92701243Y-115400500D01*
X92919940Y-115359618D01*
X93127401Y-115279247D01*
X93316562Y-115162124D01*
X93480981Y-115012236D01*
X93591046Y-114866485D01*
X93647155Y-114824850D01*
X93716867Y-114820159D01*
X93778049Y-114853901D01*
X93788954Y-114866486D01*
X93899020Y-115012238D01*
X94063437Y-115162123D01*
X94063439Y-115162125D01*
X94252595Y-115279245D01*
X94252596Y-115279245D01*
X94252599Y-115279247D01*
X94460060Y-115359618D01*
X94678757Y-115400500D01*
X94678759Y-115400500D01*
X94901241Y-115400500D01*
X94901243Y-115400500D01*
X95119940Y-115359618D01*
X95327401Y-115279247D01*
X95516562Y-115162124D01*
X95680981Y-115012236D01*
X95815058Y-114834689D01*
X95914229Y-114635528D01*
X95975115Y-114421536D01*
X95995643Y-114200000D01*
X101204357Y-114200000D01*
X101224884Y-114421535D01*
X101224885Y-114421537D01*
X101285769Y-114635523D01*
X101285775Y-114635538D01*
X101384938Y-114834683D01*
X101384943Y-114834691D01*
X101519020Y-115012238D01*
X101683437Y-115162123D01*
X101683439Y-115162125D01*
X101872595Y-115279245D01*
X101872596Y-115279245D01*
X101872599Y-115279247D01*
X102080060Y-115359618D01*
X102298757Y-115400500D01*
X102298759Y-115400500D01*
X102521241Y-115400500D01*
X102521243Y-115400500D01*
X102739940Y-115359618D01*
X102947401Y-115279247D01*
X103136562Y-115162124D01*
X103300981Y-115012236D01*
X103401046Y-114879727D01*
X103457155Y-114838092D01*
X103526867Y-114833401D01*
X103588049Y-114867143D01*
X103598954Y-114879728D01*
X103699020Y-115012238D01*
X103863437Y-115162123D01*
X103863439Y-115162125D01*
X104052595Y-115279245D01*
X104052596Y-115279245D01*
X104052599Y-115279247D01*
X104260060Y-115359618D01*
X104478757Y-115400500D01*
X104478759Y-115400500D01*
X104701241Y-115400500D01*
X104701243Y-115400500D01*
X104919940Y-115359618D01*
X105127401Y-115279247D01*
X105316562Y-115162124D01*
X105480981Y-115012236D01*
X105615058Y-114834689D01*
X105714229Y-114635528D01*
X105775115Y-114421536D01*
X105795643Y-114200000D01*
X111004357Y-114200000D01*
X111024884Y-114421535D01*
X111024885Y-114421537D01*
X111085769Y-114635523D01*
X111085775Y-114635538D01*
X111184938Y-114834683D01*
X111184943Y-114834691D01*
X111319020Y-115012238D01*
X111483437Y-115162123D01*
X111483439Y-115162125D01*
X111672595Y-115279245D01*
X111672596Y-115279245D01*
X111672599Y-115279247D01*
X111880060Y-115359618D01*
X112098757Y-115400500D01*
X112098759Y-115400500D01*
X112321241Y-115400500D01*
X112321243Y-115400500D01*
X112539940Y-115359618D01*
X112747401Y-115279247D01*
X112936562Y-115162124D01*
X113100981Y-115012236D01*
X113235058Y-114834689D01*
X113334229Y-114635528D01*
X113395115Y-114421536D01*
X113398037Y-114390000D01*
X115053505Y-114390000D01*
X115106239Y-114575349D01*
X115205368Y-114774425D01*
X115339391Y-114951900D01*
X115503738Y-115101721D01*
X115692820Y-115218797D01*
X115692822Y-115218798D01*
X115900195Y-115299135D01*
X115980000Y-115314052D01*
X115980000Y-114390000D01*
X115053505Y-114390000D01*
X113398037Y-114390000D01*
X113415643Y-114200000D01*
X113414353Y-114186078D01*
X115880000Y-114186078D01*
X115903852Y-114275095D01*
X115949930Y-114354905D01*
X116015095Y-114420070D01*
X116094905Y-114466148D01*
X116183922Y-114490000D01*
X116276078Y-114490000D01*
X116365095Y-114466148D01*
X116444905Y-114420070D01*
X116474975Y-114390000D01*
X116480000Y-114390000D01*
X116480000Y-115314052D01*
X116559804Y-115299135D01*
X116767177Y-115218798D01*
X116767179Y-115218797D01*
X116956261Y-115101721D01*
X117120608Y-114951900D01*
X117254631Y-114774425D01*
X117353760Y-114575349D01*
X117406495Y-114390000D01*
X116480000Y-114390000D01*
X116474975Y-114390000D01*
X116510070Y-114354905D01*
X116556148Y-114275095D01*
X116580000Y-114186078D01*
X116580000Y-114140000D01*
X122644357Y-114140000D01*
X122664884Y-114361535D01*
X122664885Y-114361537D01*
X122725769Y-114575523D01*
X122725775Y-114575538D01*
X122824938Y-114774683D01*
X122824943Y-114774691D01*
X122959020Y-114952238D01*
X123123437Y-115102123D01*
X123123439Y-115102125D01*
X123312595Y-115219245D01*
X123312596Y-115219245D01*
X123312599Y-115219247D01*
X123520060Y-115299618D01*
X123738757Y-115340500D01*
X123738759Y-115340500D01*
X123961241Y-115340500D01*
X123961243Y-115340500D01*
X124179940Y-115299618D01*
X124387401Y-115219247D01*
X124576562Y-115102124D01*
X124740981Y-114952236D01*
X124875058Y-114774689D01*
X124910124Y-114704268D01*
X124929000Y-114666360D01*
X124976503Y-114615123D01*
X125044166Y-114597702D01*
X125110506Y-114619628D01*
X125151000Y-114666360D01*
X125204938Y-114774683D01*
X125204943Y-114774691D01*
X125339020Y-114952238D01*
X125503437Y-115102123D01*
X125503439Y-115102125D01*
X125692595Y-115219245D01*
X125692596Y-115219245D01*
X125692599Y-115219247D01*
X125900060Y-115299618D01*
X126118757Y-115340500D01*
X126118759Y-115340500D01*
X126341241Y-115340500D01*
X126341243Y-115340500D01*
X126559940Y-115299618D01*
X126767401Y-115219247D01*
X126956562Y-115102124D01*
X127120981Y-114952236D01*
X127255058Y-114774689D01*
X127354229Y-114575528D01*
X127415115Y-114361536D01*
X127435643Y-114140000D01*
X127415115Y-113918464D01*
X127354229Y-113704472D01*
X127354224Y-113704461D01*
X127255061Y-113505316D01*
X127255056Y-113505308D01*
X127120979Y-113327761D01*
X126956562Y-113177876D01*
X126956560Y-113177874D01*
X126767404Y-113060754D01*
X126767398Y-113060752D01*
X126764471Y-113059618D01*
X126559940Y-112980382D01*
X126341243Y-112939500D01*
X126118757Y-112939500D01*
X125900060Y-112980382D01*
X125850711Y-112999500D01*
X125692601Y-113060752D01*
X125692595Y-113060754D01*
X125503439Y-113177874D01*
X125503437Y-113177876D01*
X125339020Y-113327761D01*
X125204943Y-113505308D01*
X125204938Y-113505316D01*
X125151000Y-113613639D01*
X125103497Y-113664876D01*
X125035834Y-113682297D01*
X124969494Y-113660371D01*
X124929000Y-113613639D01*
X124875061Y-113505316D01*
X124875056Y-113505308D01*
X124740979Y-113327761D01*
X124576562Y-113177876D01*
X124576560Y-113177874D01*
X124387404Y-113060754D01*
X124387398Y-113060752D01*
X124384471Y-113059618D01*
X124179940Y-112980382D01*
X123961243Y-112939500D01*
X123738757Y-112939500D01*
X123520060Y-112980382D01*
X123470711Y-112999500D01*
X123312601Y-113060752D01*
X123312595Y-113060754D01*
X123123439Y-113177874D01*
X123123437Y-113177876D01*
X122959020Y-113327761D01*
X122824943Y-113505308D01*
X122824938Y-113505316D01*
X122725775Y-113704461D01*
X122725769Y-113704476D01*
X122664885Y-113918462D01*
X122664884Y-113918464D01*
X122644357Y-114139999D01*
X122644357Y-114140000D01*
X116580000Y-114140000D01*
X116580000Y-114093922D01*
X116556148Y-114004905D01*
X116510070Y-113925095D01*
X116444905Y-113859930D01*
X116365095Y-113813852D01*
X116276078Y-113790000D01*
X116183922Y-113790000D01*
X116094905Y-113813852D01*
X116015095Y-113859930D01*
X115949930Y-113925095D01*
X115903852Y-114004905D01*
X115880000Y-114093922D01*
X115880000Y-114186078D01*
X113414353Y-114186078D01*
X113395115Y-113978464D01*
X113369945Y-113890000D01*
X115053505Y-113890000D01*
X115980000Y-113890000D01*
X115980000Y-112965946D01*
X116480000Y-112965946D01*
X116480000Y-113890000D01*
X117406495Y-113890000D01*
X117353760Y-113704650D01*
X117254631Y-113505574D01*
X117120608Y-113328099D01*
X116956261Y-113178278D01*
X116767179Y-113061202D01*
X116767177Y-113061201D01*
X116559799Y-112980864D01*
X116480000Y-112965946D01*
X115980000Y-112965946D01*
X115900200Y-112980864D01*
X115692822Y-113061201D01*
X115692820Y-113061202D01*
X115503738Y-113178278D01*
X115339391Y-113328099D01*
X115205368Y-113505574D01*
X115106239Y-113704650D01*
X115053505Y-113890000D01*
X113369945Y-113890000D01*
X113334229Y-113764472D01*
X113328217Y-113752398D01*
X113235061Y-113565316D01*
X113235056Y-113565308D01*
X113100979Y-113387761D01*
X112936562Y-113237876D01*
X112936560Y-113237874D01*
X112747404Y-113120754D01*
X112747398Y-113120752D01*
X112539940Y-113040382D01*
X112321243Y-112999500D01*
X112098757Y-112999500D01*
X111880060Y-113040382D01*
X111763254Y-113085633D01*
X111672601Y-113120752D01*
X111672595Y-113120754D01*
X111483439Y-113237874D01*
X111483437Y-113237876D01*
X111319020Y-113387761D01*
X111184943Y-113565308D01*
X111184938Y-113565316D01*
X111085775Y-113764461D01*
X111085769Y-113764476D01*
X111024885Y-113978462D01*
X111024884Y-113978464D01*
X111004357Y-114199999D01*
X111004357Y-114200000D01*
X105795643Y-114200000D01*
X105775115Y-113978464D01*
X105714229Y-113764472D01*
X105708217Y-113752398D01*
X105615061Y-113565316D01*
X105615056Y-113565308D01*
X105480979Y-113387761D01*
X105316562Y-113237876D01*
X105316560Y-113237874D01*
X105127404Y-113120754D01*
X105127398Y-113120752D01*
X104919940Y-113040382D01*
X104701243Y-112999500D01*
X104659049Y-112999500D01*
X104592010Y-112979815D01*
X104546255Y-112927011D01*
X104536311Y-112857853D01*
X104565336Y-112794297D01*
X104571368Y-112787819D01*
X104700045Y-112659141D01*
X104700047Y-112659139D01*
X104830568Y-112472734D01*
X104926739Y-112266496D01*
X104985635Y-112046692D01*
X104996719Y-111920000D01*
X105294357Y-111920000D01*
X105314884Y-112141535D01*
X105314885Y-112141537D01*
X105375769Y-112355523D01*
X105375775Y-112355538D01*
X105474938Y-112554683D01*
X105474943Y-112554691D01*
X105609020Y-112732238D01*
X105773437Y-112882123D01*
X105773439Y-112882125D01*
X105962595Y-112999245D01*
X105962596Y-112999245D01*
X105962599Y-112999247D01*
X106170060Y-113079618D01*
X106388757Y-113120500D01*
X106388759Y-113120500D01*
X106611241Y-113120500D01*
X106611243Y-113120500D01*
X106829940Y-113079618D01*
X107037401Y-112999247D01*
X107226562Y-112882124D01*
X107390981Y-112732236D01*
X107525058Y-112554689D01*
X107589000Y-112426277D01*
X107636503Y-112375040D01*
X107704166Y-112357619D01*
X107770506Y-112379545D01*
X107811000Y-112426277D01*
X107874938Y-112554683D01*
X107874943Y-112554691D01*
X108009020Y-112732238D01*
X108173437Y-112882123D01*
X108173439Y-112882125D01*
X108362595Y-112999245D01*
X108362596Y-112999245D01*
X108362599Y-112999247D01*
X108570060Y-113079618D01*
X108788757Y-113120500D01*
X108788759Y-113120500D01*
X109011241Y-113120500D01*
X109011243Y-113120500D01*
X109229940Y-113079618D01*
X109437401Y-112999247D01*
X109626562Y-112882124D01*
X109790981Y-112732236D01*
X109925058Y-112554689D01*
X110024229Y-112355528D01*
X110085115Y-112141536D01*
X110105643Y-111920000D01*
X110099594Y-111854725D01*
X110085115Y-111698464D01*
X110085114Y-111698462D01*
X110079424Y-111678464D01*
X110024229Y-111484472D01*
X110024224Y-111484461D01*
X109925061Y-111285316D01*
X109925056Y-111285308D01*
X109905945Y-111260001D01*
X116904532Y-111260001D01*
X116924364Y-111486686D01*
X116924366Y-111486697D01*
X116983258Y-111706488D01*
X116983261Y-111706497D01*
X117079431Y-111912732D01*
X117079432Y-111912734D01*
X117209954Y-112099141D01*
X117370858Y-112260045D01*
X117370861Y-112260047D01*
X117557266Y-112390568D01*
X117763504Y-112486739D01*
X117983308Y-112545635D01*
X118145230Y-112559801D01*
X118209998Y-112565468D01*
X118210000Y-112565468D01*
X118210002Y-112565468D01*
X118266673Y-112560509D01*
X118436692Y-112545635D01*
X118656496Y-112486739D01*
X118862734Y-112390568D01*
X119049139Y-112260047D01*
X119210047Y-112099139D01*
X119340568Y-111912734D01*
X119367618Y-111854724D01*
X119413790Y-111802285D01*
X119480983Y-111783133D01*
X119547865Y-111803348D01*
X119592381Y-111854724D01*
X119606517Y-111885038D01*
X119619429Y-111912728D01*
X119619432Y-111912734D01*
X119749954Y-112099141D01*
X119910858Y-112260045D01*
X119910861Y-112260047D01*
X120097266Y-112390568D01*
X120303504Y-112486739D01*
X120523308Y-112545635D01*
X120685230Y-112559801D01*
X120749998Y-112565468D01*
X120750000Y-112565468D01*
X120750002Y-112565468D01*
X120806673Y-112560509D01*
X120976692Y-112545635D01*
X121196496Y-112486739D01*
X121402734Y-112390568D01*
X121589139Y-112260047D01*
X121750047Y-112099139D01*
X121880568Y-111912734D01*
X121907618Y-111854724D01*
X121953790Y-111802285D01*
X122020983Y-111783133D01*
X122087865Y-111803348D01*
X122132381Y-111854724D01*
X122146517Y-111885038D01*
X122159429Y-111912728D01*
X122159432Y-111912734D01*
X122289954Y-112099141D01*
X122450858Y-112260045D01*
X122450861Y-112260047D01*
X122637266Y-112390568D01*
X122843504Y-112486739D01*
X123063308Y-112545635D01*
X123225230Y-112559801D01*
X123289998Y-112565468D01*
X123290000Y-112565468D01*
X123290002Y-112565468D01*
X123346673Y-112560509D01*
X123516692Y-112545635D01*
X123736496Y-112486739D01*
X123942734Y-112390568D01*
X124129139Y-112260047D01*
X124290047Y-112099139D01*
X124420568Y-111912734D01*
X124447618Y-111854724D01*
X124493790Y-111802285D01*
X124560983Y-111783133D01*
X124627865Y-111803348D01*
X124672381Y-111854724D01*
X124686517Y-111885038D01*
X124699429Y-111912728D01*
X124699432Y-111912734D01*
X124829954Y-112099141D01*
X124990858Y-112260045D01*
X124990861Y-112260047D01*
X125177266Y-112390568D01*
X125383504Y-112486739D01*
X125603308Y-112545635D01*
X125765230Y-112559801D01*
X125829998Y-112565468D01*
X125830000Y-112565468D01*
X125830002Y-112565468D01*
X125886673Y-112560509D01*
X126056692Y-112545635D01*
X126276496Y-112486739D01*
X126482734Y-112390568D01*
X126669139Y-112260047D01*
X126830047Y-112099139D01*
X126960568Y-111912734D01*
X126987618Y-111854724D01*
X127033790Y-111802285D01*
X127100983Y-111783133D01*
X127167865Y-111803348D01*
X127212381Y-111854724D01*
X127226517Y-111885038D01*
X127239429Y-111912728D01*
X127239432Y-111912734D01*
X127369954Y-112099141D01*
X127530858Y-112260045D01*
X127530861Y-112260047D01*
X127717266Y-112390568D01*
X127923504Y-112486739D01*
X128143308Y-112545635D01*
X128305230Y-112559801D01*
X128369998Y-112565468D01*
X128370000Y-112565468D01*
X128370002Y-112565468D01*
X128426673Y-112560509D01*
X128596692Y-112545635D01*
X128816496Y-112486739D01*
X129022734Y-112390568D01*
X129209139Y-112260047D01*
X129370047Y-112099139D01*
X129500568Y-111912734D01*
X129527895Y-111854129D01*
X129574064Y-111801695D01*
X129641257Y-111782542D01*
X129708139Y-111802757D01*
X129752657Y-111854133D01*
X129779865Y-111912482D01*
X129910342Y-112098820D01*
X130071179Y-112259657D01*
X130257517Y-112390134D01*
X130463673Y-112486265D01*
X130463682Y-112486269D01*
X130659999Y-112538872D01*
X130660000Y-112538871D01*
X130660000Y-111575686D01*
X130664394Y-111580080D01*
X130755606Y-111632741D01*
X130857339Y-111660000D01*
X130962661Y-111660000D01*
X131064394Y-111632741D01*
X131155606Y-111580080D01*
X131160000Y-111575686D01*
X131160000Y-112538872D01*
X131356317Y-112486269D01*
X131356326Y-112486265D01*
X131562482Y-112390134D01*
X131748820Y-112259657D01*
X131909657Y-112098820D01*
X132040132Y-111912484D01*
X132067341Y-111854134D01*
X132113513Y-111801695D01*
X132180707Y-111782542D01*
X132247588Y-111802757D01*
X132292105Y-111854132D01*
X132313494Y-111899999D01*
X132319431Y-111912732D01*
X132319432Y-111912734D01*
X132449954Y-112099141D01*
X132610858Y-112260045D01*
X132610861Y-112260047D01*
X132797266Y-112390568D01*
X133003504Y-112486739D01*
X133223308Y-112545635D01*
X133385230Y-112559801D01*
X133449998Y-112565468D01*
X133450000Y-112565468D01*
X133450002Y-112565468D01*
X133506673Y-112560509D01*
X133676692Y-112545635D01*
X133896496Y-112486739D01*
X134102734Y-112390568D01*
X134289139Y-112260047D01*
X134450047Y-112099139D01*
X134580568Y-111912734D01*
X134676739Y-111706496D01*
X134735635Y-111486692D01*
X134753253Y-111285316D01*
X134755468Y-111260001D01*
X134755468Y-111259998D01*
X134735635Y-111033313D01*
X134735635Y-111033308D01*
X134676739Y-110813504D01*
X134580568Y-110607266D01*
X134450047Y-110420861D01*
X134450045Y-110420858D01*
X134289141Y-110259954D01*
X134102734Y-110129432D01*
X134102732Y-110129431D01*
X133896497Y-110033261D01*
X133896488Y-110033258D01*
X133676697Y-109974366D01*
X133676693Y-109974365D01*
X133676692Y-109974365D01*
X133676691Y-109974364D01*
X133676686Y-109974364D01*
X133450002Y-109954532D01*
X133449998Y-109954532D01*
X133223313Y-109974364D01*
X133223302Y-109974366D01*
X133003511Y-110033258D01*
X133003502Y-110033261D01*
X132797267Y-110129431D01*
X132797265Y-110129432D01*
X132610858Y-110259954D01*
X132449954Y-110420858D01*
X132343244Y-110573258D01*
X132319432Y-110607266D01*
X132319315Y-110607518D01*
X132292106Y-110665867D01*
X132245933Y-110718306D01*
X132178739Y-110737457D01*
X132111858Y-110717241D01*
X132067342Y-110665865D01*
X132040135Y-110607520D01*
X132040134Y-110607518D01*
X131909657Y-110421179D01*
X131748820Y-110260342D01*
X131562482Y-110129865D01*
X131356328Y-110033734D01*
X131160000Y-109981127D01*
X131160000Y-110944314D01*
X131155606Y-110939920D01*
X131064394Y-110887259D01*
X130962661Y-110860000D01*
X130857339Y-110860000D01*
X130755606Y-110887259D01*
X130664394Y-110939920D01*
X130660000Y-110944314D01*
X130660000Y-109981127D01*
X130463671Y-110033734D01*
X130257517Y-110129865D01*
X130071179Y-110260342D01*
X129910342Y-110421179D01*
X129779867Y-110607515D01*
X129752657Y-110665867D01*
X129706484Y-110718306D01*
X129639290Y-110737457D01*
X129572409Y-110717241D01*
X129527893Y-110665865D01*
X129500685Y-110607518D01*
X129500568Y-110607266D01*
X129370047Y-110420861D01*
X129370045Y-110420858D01*
X129209141Y-110259954D01*
X129022734Y-110129432D01*
X129022732Y-110129431D01*
X128816497Y-110033261D01*
X128816488Y-110033258D01*
X128596697Y-109974366D01*
X128596693Y-109974365D01*
X128596692Y-109974365D01*
X128596691Y-109974364D01*
X128596686Y-109974364D01*
X128370002Y-109954532D01*
X128369998Y-109954532D01*
X128143313Y-109974364D01*
X128143302Y-109974366D01*
X127923511Y-110033258D01*
X127923502Y-110033261D01*
X127717267Y-110129431D01*
X127717265Y-110129432D01*
X127530858Y-110259954D01*
X127369954Y-110420858D01*
X127239432Y-110607265D01*
X127239431Y-110607267D01*
X127212382Y-110665275D01*
X127166209Y-110717714D01*
X127099016Y-110736866D01*
X127032135Y-110716650D01*
X126987618Y-110665275D01*
X126960686Y-110607520D01*
X126960568Y-110607266D01*
X126830047Y-110420861D01*
X126830045Y-110420858D01*
X126669141Y-110259954D01*
X126482734Y-110129432D01*
X126482732Y-110129431D01*
X126276497Y-110033261D01*
X126276488Y-110033258D01*
X126056697Y-109974366D01*
X126056693Y-109974365D01*
X126056692Y-109974365D01*
X126056691Y-109974364D01*
X126056686Y-109974364D01*
X125830002Y-109954532D01*
X125829998Y-109954532D01*
X125603313Y-109974364D01*
X125603302Y-109974366D01*
X125383511Y-110033258D01*
X125383502Y-110033261D01*
X125177267Y-110129431D01*
X125177265Y-110129432D01*
X124990858Y-110259954D01*
X124829954Y-110420858D01*
X124699432Y-110607265D01*
X124699431Y-110607267D01*
X124672382Y-110665275D01*
X124626209Y-110717714D01*
X124559016Y-110736866D01*
X124492135Y-110716650D01*
X124447618Y-110665275D01*
X124420686Y-110607520D01*
X124420568Y-110607266D01*
X124290047Y-110420861D01*
X124290045Y-110420858D01*
X124129141Y-110259954D01*
X123942734Y-110129432D01*
X123942732Y-110129431D01*
X123736497Y-110033261D01*
X123736488Y-110033258D01*
X123516697Y-109974366D01*
X123516693Y-109974365D01*
X123516692Y-109974365D01*
X123516691Y-109974364D01*
X123516686Y-109974364D01*
X123290002Y-109954532D01*
X123289998Y-109954532D01*
X123063313Y-109974364D01*
X123063302Y-109974366D01*
X122843511Y-110033258D01*
X122843502Y-110033261D01*
X122637267Y-110129431D01*
X122637265Y-110129432D01*
X122450858Y-110259954D01*
X122289954Y-110420858D01*
X122159432Y-110607265D01*
X122159431Y-110607267D01*
X122132382Y-110665275D01*
X122086209Y-110717714D01*
X122019016Y-110736866D01*
X121952135Y-110716650D01*
X121907618Y-110665275D01*
X121880686Y-110607520D01*
X121880568Y-110607266D01*
X121750047Y-110420861D01*
X121750045Y-110420858D01*
X121589141Y-110259954D01*
X121402734Y-110129432D01*
X121402732Y-110129431D01*
X121196497Y-110033261D01*
X121196488Y-110033258D01*
X120976697Y-109974366D01*
X120976693Y-109974365D01*
X120976692Y-109974365D01*
X120976691Y-109974364D01*
X120976686Y-109974364D01*
X120750002Y-109954532D01*
X120749998Y-109954532D01*
X120523313Y-109974364D01*
X120523302Y-109974366D01*
X120303511Y-110033258D01*
X120303502Y-110033261D01*
X120097267Y-110129431D01*
X120097265Y-110129432D01*
X119910858Y-110259954D01*
X119749954Y-110420858D01*
X119619432Y-110607265D01*
X119619431Y-110607267D01*
X119592382Y-110665275D01*
X119546209Y-110717714D01*
X119479016Y-110736866D01*
X119412135Y-110716650D01*
X119367618Y-110665275D01*
X119340686Y-110607520D01*
X119340568Y-110607266D01*
X119210047Y-110420861D01*
X119210045Y-110420858D01*
X119049141Y-110259954D01*
X118862734Y-110129432D01*
X118862732Y-110129431D01*
X118656497Y-110033261D01*
X118656488Y-110033258D01*
X118436697Y-109974366D01*
X118436693Y-109974365D01*
X118436692Y-109974365D01*
X118436691Y-109974364D01*
X118436686Y-109974364D01*
X118210002Y-109954532D01*
X118209998Y-109954532D01*
X117983313Y-109974364D01*
X117983302Y-109974366D01*
X117763511Y-110033258D01*
X117763502Y-110033261D01*
X117557267Y-110129431D01*
X117557265Y-110129432D01*
X117370858Y-110259954D01*
X117209954Y-110420858D01*
X117079432Y-110607265D01*
X117079431Y-110607267D01*
X116983261Y-110813502D01*
X116983258Y-110813511D01*
X116924366Y-111033302D01*
X116924364Y-111033313D01*
X116904532Y-111259998D01*
X116904532Y-111260001D01*
X109905945Y-111260001D01*
X109790979Y-111107761D01*
X109626562Y-110957876D01*
X109626560Y-110957874D01*
X109437404Y-110840754D01*
X109437398Y-110840752D01*
X109229940Y-110760382D01*
X109011243Y-110719500D01*
X108788757Y-110719500D01*
X108570060Y-110760382D01*
X108467916Y-110799953D01*
X108362601Y-110840752D01*
X108362595Y-110840754D01*
X108173439Y-110957874D01*
X108173437Y-110957876D01*
X108009020Y-111107761D01*
X107874943Y-111285308D01*
X107874938Y-111285316D01*
X107811000Y-111413722D01*
X107763497Y-111464959D01*
X107695834Y-111482380D01*
X107629494Y-111460454D01*
X107589000Y-111413722D01*
X107525061Y-111285316D01*
X107525056Y-111285308D01*
X107390979Y-111107761D01*
X107226562Y-110957876D01*
X107226560Y-110957874D01*
X107037404Y-110840754D01*
X107037398Y-110840752D01*
X106829940Y-110760382D01*
X106611243Y-110719500D01*
X106388757Y-110719500D01*
X106170060Y-110760382D01*
X106067916Y-110799953D01*
X105962601Y-110840752D01*
X105962595Y-110840754D01*
X105773439Y-110957874D01*
X105773437Y-110957876D01*
X105609020Y-111107761D01*
X105474943Y-111285308D01*
X105474938Y-111285316D01*
X105375775Y-111484461D01*
X105375769Y-111484476D01*
X105314885Y-111698462D01*
X105314884Y-111698464D01*
X105294357Y-111919999D01*
X105294357Y-111920000D01*
X104996719Y-111920000D01*
X105005468Y-111820000D01*
X105003959Y-111802757D01*
X104985635Y-111593313D01*
X104985635Y-111593308D01*
X104926739Y-111373504D01*
X104830568Y-111167266D01*
X104700047Y-110980861D01*
X104700045Y-110980858D01*
X104539141Y-110819954D01*
X104352734Y-110689432D01*
X104352732Y-110689431D01*
X104146497Y-110593261D01*
X104146488Y-110593258D01*
X103926697Y-110534366D01*
X103926693Y-110534365D01*
X103926692Y-110534365D01*
X103926691Y-110534364D01*
X103926686Y-110534364D01*
X103700002Y-110514532D01*
X103699998Y-110514532D01*
X103473313Y-110534364D01*
X103473302Y-110534366D01*
X103253511Y-110593258D01*
X103253502Y-110593261D01*
X103047267Y-110689431D01*
X103047265Y-110689432D01*
X102860858Y-110819954D01*
X102699954Y-110980858D01*
X102569432Y-111167265D01*
X102569431Y-111167267D01*
X102473261Y-111373502D01*
X102473258Y-111373511D01*
X102414366Y-111593302D01*
X102414364Y-111593313D01*
X102394532Y-111819998D01*
X102394532Y-111820001D01*
X102414364Y-112046686D01*
X102414366Y-112046697D01*
X102473258Y-112266488D01*
X102473261Y-112266497D01*
X102569431Y-112472732D01*
X102569432Y-112472734D01*
X102699954Y-112659141D01*
X102860855Y-112820042D01*
X102860858Y-112820044D01*
X102860861Y-112820047D01*
X102877077Y-112831401D01*
X102920701Y-112885977D01*
X102927895Y-112955475D01*
X102896373Y-113017830D01*
X102836143Y-113053245D01*
X102766329Y-113050475D01*
X102761172Y-113048607D01*
X102739940Y-113040382D01*
X102521243Y-112999500D01*
X102298757Y-112999500D01*
X102080060Y-113040382D01*
X101963254Y-113085633D01*
X101872601Y-113120752D01*
X101872595Y-113120754D01*
X101683439Y-113237874D01*
X101683437Y-113237876D01*
X101519020Y-113387761D01*
X101384943Y-113565308D01*
X101384938Y-113565316D01*
X101285775Y-113764461D01*
X101285769Y-113764476D01*
X101224885Y-113978462D01*
X101224884Y-113978464D01*
X101204357Y-114199999D01*
X101204357Y-114200000D01*
X95995643Y-114200000D01*
X95975115Y-113978464D01*
X95914229Y-113764472D01*
X95908217Y-113752398D01*
X95815061Y-113565316D01*
X95815056Y-113565308D01*
X95680979Y-113387761D01*
X95596905Y-113311118D01*
X95560623Y-113251407D01*
X95562384Y-113181559D01*
X95601627Y-113123752D01*
X95665894Y-113096337D01*
X95691244Y-113095953D01*
X95787695Y-113104391D01*
X95799999Y-113105468D01*
X95800000Y-113105468D01*
X95800002Y-113105468D01*
X95856784Y-113100500D01*
X96026692Y-113085635D01*
X96246496Y-113026739D01*
X96452734Y-112930568D01*
X96639139Y-112800047D01*
X96800047Y-112639139D01*
X96930568Y-112452734D01*
X97026739Y-112246496D01*
X97085635Y-112026692D01*
X97096719Y-111900000D01*
X97356857Y-111900000D01*
X97377384Y-112121535D01*
X97377385Y-112121537D01*
X97438269Y-112335523D01*
X97438275Y-112335538D01*
X97537438Y-112534683D01*
X97537443Y-112534691D01*
X97671520Y-112712238D01*
X97835937Y-112862123D01*
X97835939Y-112862125D01*
X98025095Y-112979245D01*
X98025096Y-112979245D01*
X98025099Y-112979247D01*
X98232560Y-113059618D01*
X98451257Y-113100500D01*
X98451259Y-113100500D01*
X98673741Y-113100500D01*
X98673743Y-113100500D01*
X98892440Y-113059618D01*
X99099901Y-112979247D01*
X99289062Y-112862124D01*
X99453481Y-112712236D01*
X99587558Y-112534689D01*
X99615270Y-112479035D01*
X99662772Y-112427799D01*
X99730434Y-112410377D01*
X99796775Y-112432302D01*
X99837270Y-112479035D01*
X99874938Y-112554683D01*
X99874943Y-112554691D01*
X100009020Y-112732238D01*
X100173437Y-112882123D01*
X100173439Y-112882125D01*
X100362595Y-112999245D01*
X100362596Y-112999245D01*
X100362599Y-112999247D01*
X100570060Y-113079618D01*
X100788757Y-113120500D01*
X100788759Y-113120500D01*
X101011241Y-113120500D01*
X101011243Y-113120500D01*
X101229940Y-113079618D01*
X101437401Y-112999247D01*
X101626562Y-112882124D01*
X101790981Y-112732236D01*
X101925058Y-112554689D01*
X102024229Y-112355528D01*
X102085115Y-112141536D01*
X102105643Y-111920000D01*
X102099594Y-111854725D01*
X102085115Y-111698464D01*
X102085114Y-111698462D01*
X102079424Y-111678464D01*
X102024229Y-111484472D01*
X102024224Y-111484461D01*
X101925061Y-111285316D01*
X101925056Y-111285308D01*
X101790979Y-111107761D01*
X101626562Y-110957876D01*
X101626560Y-110957874D01*
X101437404Y-110840754D01*
X101437398Y-110840752D01*
X101229940Y-110760382D01*
X101011243Y-110719500D01*
X100788757Y-110719500D01*
X100570060Y-110760382D01*
X100467916Y-110799953D01*
X100362601Y-110840752D01*
X100362595Y-110840754D01*
X100173439Y-110957874D01*
X100173437Y-110957876D01*
X100009020Y-111107761D01*
X99874943Y-111285308D01*
X99874941Y-111285312D01*
X99847229Y-111340965D01*
X99799725Y-111392201D01*
X99732062Y-111409622D01*
X99665722Y-111387696D01*
X99625229Y-111340963D01*
X99587563Y-111265320D01*
X99587556Y-111265308D01*
X99453479Y-111087761D01*
X99289062Y-110937876D01*
X99289060Y-110937874D01*
X99099904Y-110820754D01*
X99099898Y-110820752D01*
X98892440Y-110740382D01*
X98673743Y-110699500D01*
X98451257Y-110699500D01*
X98232560Y-110740382D01*
X98101364Y-110791207D01*
X98025101Y-110820752D01*
X98025095Y-110820754D01*
X97835939Y-110937874D01*
X97835937Y-110937876D01*
X97671520Y-111087761D01*
X97537443Y-111265308D01*
X97537438Y-111265316D01*
X97438275Y-111464461D01*
X97438269Y-111464476D01*
X97377385Y-111678462D01*
X97377384Y-111678464D01*
X97356857Y-111899999D01*
X97356857Y-111900000D01*
X97096719Y-111900000D01*
X97105468Y-111800000D01*
X97085635Y-111573308D01*
X97026739Y-111353504D01*
X96930568Y-111147266D01*
X96800047Y-110960861D01*
X96800045Y-110960858D01*
X96639141Y-110799954D01*
X96452734Y-110669432D01*
X96452732Y-110669431D01*
X96246497Y-110573261D01*
X96246488Y-110573258D01*
X96026697Y-110514366D01*
X96026693Y-110514365D01*
X96026692Y-110514365D01*
X96026691Y-110514364D01*
X96026686Y-110514364D01*
X95800002Y-110494532D01*
X95799998Y-110494532D01*
X95573313Y-110514364D01*
X95573302Y-110514366D01*
X95353511Y-110573258D01*
X95353502Y-110573261D01*
X95147267Y-110669431D01*
X95147265Y-110669432D01*
X94960858Y-110799954D01*
X94799954Y-110960858D01*
X94669432Y-111147265D01*
X94669431Y-111147267D01*
X94573261Y-111353502D01*
X94573258Y-111353511D01*
X94514366Y-111573302D01*
X94514364Y-111573313D01*
X94494532Y-111799998D01*
X94494532Y-111800001D01*
X94514364Y-112026686D01*
X94514366Y-112026697D01*
X94573258Y-112246488D01*
X94573261Y-112246497D01*
X94669431Y-112452732D01*
X94669432Y-112452734D01*
X94799954Y-112639141D01*
X94948632Y-112787819D01*
X94982117Y-112849142D01*
X94977133Y-112918834D01*
X94935261Y-112974767D01*
X94869797Y-112999184D01*
X94860951Y-112999500D01*
X94678757Y-112999500D01*
X94460060Y-113040382D01*
X94343254Y-113085633D01*
X94252601Y-113120752D01*
X94252595Y-113120754D01*
X94063439Y-113237874D01*
X94063437Y-113237876D01*
X93899020Y-113387761D01*
X93788954Y-113533513D01*
X93732845Y-113575149D01*
X93663133Y-113579840D01*
X93601951Y-113546098D01*
X93591046Y-113533513D01*
X93480979Y-113387761D01*
X93331325Y-113251334D01*
X93295043Y-113191623D01*
X93296804Y-113121775D01*
X93336047Y-113063968D01*
X93370062Y-113044074D01*
X93537401Y-112979247D01*
X93726562Y-112862124D01*
X93890981Y-112712236D01*
X94025058Y-112534689D01*
X94124229Y-112335528D01*
X94185115Y-112121536D01*
X94205643Y-111900000D01*
X94185115Y-111678464D01*
X94124229Y-111464472D01*
X94124224Y-111464461D01*
X94025061Y-111265316D01*
X94025056Y-111265308D01*
X93890979Y-111087761D01*
X93726562Y-110937876D01*
X93726560Y-110937874D01*
X93537404Y-110820754D01*
X93537398Y-110820752D01*
X93329940Y-110740382D01*
X93111243Y-110699500D01*
X92888757Y-110699500D01*
X92670060Y-110740382D01*
X92538864Y-110791207D01*
X92462601Y-110820752D01*
X92462595Y-110820754D01*
X92273439Y-110937874D01*
X92273437Y-110937876D01*
X92109020Y-111087761D01*
X91974943Y-111265308D01*
X91974938Y-111265316D01*
X91911000Y-111393722D01*
X91863497Y-111444959D01*
X91795834Y-111462380D01*
X91729494Y-111440454D01*
X91689000Y-111393722D01*
X91625061Y-111265316D01*
X91625056Y-111265308D01*
X91490979Y-111087761D01*
X91326562Y-110937876D01*
X91326560Y-110937874D01*
X91137404Y-110820754D01*
X91137398Y-110820752D01*
X90929940Y-110740382D01*
X90711243Y-110699500D01*
X90488757Y-110699500D01*
X90270060Y-110740382D01*
X90138864Y-110791207D01*
X90062601Y-110820752D01*
X90062595Y-110820754D01*
X89873439Y-110937874D01*
X89873437Y-110937876D01*
X89709020Y-111087761D01*
X89574943Y-111265308D01*
X89574938Y-111265316D01*
X89475775Y-111464461D01*
X89475769Y-111464476D01*
X89414885Y-111678462D01*
X89414884Y-111678464D01*
X89394357Y-111899999D01*
X89394357Y-111900000D01*
X89096719Y-111900000D01*
X89105468Y-111800000D01*
X89085635Y-111573308D01*
X89026739Y-111353504D01*
X88930568Y-111147266D01*
X88800047Y-110960861D01*
X88800045Y-110960858D01*
X88639141Y-110799954D01*
X88452734Y-110669432D01*
X88452732Y-110669431D01*
X88246497Y-110573261D01*
X88246488Y-110573258D01*
X88026697Y-110514366D01*
X88026693Y-110514365D01*
X88026692Y-110514365D01*
X88026691Y-110514364D01*
X88026686Y-110514364D01*
X87800002Y-110494532D01*
X87799998Y-110494532D01*
X87573313Y-110514364D01*
X87573302Y-110514366D01*
X87353511Y-110573258D01*
X87353502Y-110573261D01*
X87147267Y-110669431D01*
X87147265Y-110669432D01*
X86960858Y-110799954D01*
X86799954Y-110960858D01*
X86669432Y-111147265D01*
X86669431Y-111147267D01*
X86573261Y-111353502D01*
X86573258Y-111353511D01*
X86514366Y-111573302D01*
X86514364Y-111573313D01*
X86494532Y-111799998D01*
X86494532Y-111800001D01*
X86196377Y-111800001D01*
X86185115Y-111678464D01*
X86124229Y-111464472D01*
X86124224Y-111464461D01*
X86025061Y-111265316D01*
X86025056Y-111265308D01*
X85890979Y-111087761D01*
X85726562Y-110937876D01*
X85726560Y-110937874D01*
X85537404Y-110820754D01*
X85537398Y-110820752D01*
X85329940Y-110740382D01*
X85111243Y-110699500D01*
X84888757Y-110699500D01*
X84670060Y-110740382D01*
X84538864Y-110791207D01*
X84462601Y-110820752D01*
X84462595Y-110820754D01*
X84273439Y-110937874D01*
X84273437Y-110937876D01*
X84109020Y-111087761D01*
X83974943Y-111265308D01*
X83974938Y-111265316D01*
X83875775Y-111464461D01*
X83875769Y-111464476D01*
X83814885Y-111678462D01*
X83814884Y-111678464D01*
X83794357Y-111899999D01*
X83794357Y-111900000D01*
X83814884Y-112121535D01*
X83814885Y-112121537D01*
X83875769Y-112335523D01*
X83875775Y-112335538D01*
X83974938Y-112534683D01*
X83974943Y-112534691D01*
X84109020Y-112712238D01*
X84273437Y-112862123D01*
X84273439Y-112862125D01*
X84391597Y-112935285D01*
X84438233Y-112987313D01*
X84449337Y-113056294D01*
X84421384Y-113120329D01*
X84391598Y-113146139D01*
X84243436Y-113237877D01*
X84079020Y-113387761D01*
X83944943Y-113565308D01*
X83944938Y-113565316D01*
X83845775Y-113764461D01*
X83845769Y-113764476D01*
X83784885Y-113978462D01*
X83784884Y-113978464D01*
X83764357Y-114199999D01*
X83764357Y-114200000D01*
X80900500Y-114200000D01*
X80900500Y-106800001D01*
X86494532Y-106800001D01*
X86514364Y-107026686D01*
X86514366Y-107026697D01*
X86573258Y-107246488D01*
X86573261Y-107246497D01*
X86669431Y-107452732D01*
X86669432Y-107452734D01*
X86799954Y-107639141D01*
X86960858Y-107800045D01*
X86960861Y-107800047D01*
X87147266Y-107930568D01*
X87353504Y-108026739D01*
X87573308Y-108085635D01*
X87735230Y-108099801D01*
X87799998Y-108105468D01*
X87800000Y-108105468D01*
X87800002Y-108105468D01*
X87856673Y-108100509D01*
X88026692Y-108085635D01*
X88246496Y-108026739D01*
X88452734Y-107930568D01*
X88639139Y-107800047D01*
X88800047Y-107639139D01*
X88930568Y-107452734D01*
X89026739Y-107246496D01*
X89085635Y-107026692D01*
X89105468Y-106800000D01*
X89085635Y-106573308D01*
X89026739Y-106353504D01*
X88930568Y-106147266D01*
X88800047Y-105960861D01*
X88800045Y-105960858D01*
X88639141Y-105799954D01*
X88452734Y-105669432D01*
X88452732Y-105669431D01*
X88246497Y-105573261D01*
X88246488Y-105573258D01*
X88026697Y-105514366D01*
X88026693Y-105514365D01*
X88026692Y-105514365D01*
X88026691Y-105514364D01*
X88026686Y-105514364D01*
X87800002Y-105494532D01*
X87799998Y-105494532D01*
X87573313Y-105514364D01*
X87573302Y-105514366D01*
X87353511Y-105573258D01*
X87353502Y-105573261D01*
X87147267Y-105669431D01*
X87147265Y-105669432D01*
X86960858Y-105799954D01*
X86799954Y-105960858D01*
X86669432Y-106147265D01*
X86669431Y-106147267D01*
X86573261Y-106353502D01*
X86573258Y-106353511D01*
X86514366Y-106573302D01*
X86514364Y-106573313D01*
X86494532Y-106799998D01*
X86494532Y-106800001D01*
X80900500Y-106800001D01*
X80900500Y-101500001D01*
X83694532Y-101500001D01*
X83714364Y-101726686D01*
X83714366Y-101726697D01*
X83773258Y-101946488D01*
X83773261Y-101946497D01*
X83869431Y-102152732D01*
X83869432Y-102152734D01*
X83999954Y-102339141D01*
X84160858Y-102500045D01*
X84160861Y-102500047D01*
X84346624Y-102630118D01*
X84390248Y-102684693D01*
X84399500Y-102731692D01*
X84399500Y-103170754D01*
X84379815Y-103237793D01*
X84340778Y-103276181D01*
X84273436Y-103317877D01*
X84109020Y-103467761D01*
X83974943Y-103645308D01*
X83974938Y-103645316D01*
X83875775Y-103844461D01*
X83875769Y-103844476D01*
X83814885Y-104058462D01*
X83814884Y-104058464D01*
X83794357Y-104279999D01*
X83794357Y-104280000D01*
X83814884Y-104501535D01*
X83814885Y-104501537D01*
X83875769Y-104715523D01*
X83875775Y-104715538D01*
X83974938Y-104914683D01*
X83974943Y-104914691D01*
X84109020Y-105092238D01*
X84273437Y-105242123D01*
X84273439Y-105242125D01*
X84462595Y-105359245D01*
X84462596Y-105359245D01*
X84462599Y-105359247D01*
X84670060Y-105439618D01*
X84888757Y-105480500D01*
X84888759Y-105480500D01*
X85111241Y-105480500D01*
X85111243Y-105480500D01*
X85329940Y-105439618D01*
X85537401Y-105359247D01*
X85726562Y-105242124D01*
X85890981Y-105092236D01*
X86025058Y-104914689D01*
X86124229Y-104715528D01*
X86177016Y-104530000D01*
X89423505Y-104530000D01*
X89476239Y-104715349D01*
X89575368Y-104914425D01*
X89709391Y-105091900D01*
X89873738Y-105241721D01*
X90062820Y-105358797D01*
X90062822Y-105358798D01*
X90270195Y-105439135D01*
X90350000Y-105454052D01*
X90350000Y-104530000D01*
X89423505Y-104530000D01*
X86177016Y-104530000D01*
X86185115Y-104501536D01*
X86205643Y-104280000D01*
X86185115Y-104058464D01*
X86124229Y-103844472D01*
X86124224Y-103844461D01*
X86025061Y-103645316D01*
X86025056Y-103645308D01*
X85890979Y-103467761D01*
X85726563Y-103317877D01*
X85726562Y-103317876D01*
X85659221Y-103276180D01*
X85612587Y-103224153D01*
X85600500Y-103170754D01*
X85600500Y-102731692D01*
X85620185Y-102664653D01*
X85653374Y-102630119D01*
X85839139Y-102500047D01*
X86000047Y-102339139D01*
X86130568Y-102152734D01*
X86226739Y-101946496D01*
X86285635Y-101726692D01*
X86305468Y-101500000D01*
X86299808Y-101435307D01*
X86313574Y-101366808D01*
X86362189Y-101316625D01*
X86423336Y-101300500D01*
X86875500Y-101300500D01*
X86942539Y-101320185D01*
X86988294Y-101372989D01*
X86999500Y-101424500D01*
X86999500Y-102576863D01*
X87014953Y-102694253D01*
X87014956Y-102694262D01*
X87072069Y-102832146D01*
X87075464Y-102840341D01*
X87171718Y-102965782D01*
X87297159Y-103062036D01*
X87443238Y-103122544D01*
X87560639Y-103138000D01*
X87839360Y-103137999D01*
X87839361Y-103137999D01*
X87851594Y-103136388D01*
X87956762Y-103122544D01*
X87977545Y-103113934D01*
X88047014Y-103106465D01*
X88072453Y-103113934D01*
X88093238Y-103122544D01*
X88210639Y-103138000D01*
X88489360Y-103137999D01*
X88489361Y-103137999D01*
X88501594Y-103136388D01*
X88606762Y-103122544D01*
X88627545Y-103113934D01*
X88697014Y-103106465D01*
X88722453Y-103113934D01*
X88743238Y-103122544D01*
X88860639Y-103138000D01*
X89139360Y-103137999D01*
X89139361Y-103137999D01*
X89151594Y-103136388D01*
X89256762Y-103122544D01*
X89277545Y-103113934D01*
X89347014Y-103106465D01*
X89372453Y-103113934D01*
X89393238Y-103122544D01*
X89510639Y-103138000D01*
X89620144Y-103137999D01*
X89687183Y-103157683D01*
X89732938Y-103210487D01*
X89739917Y-103229899D01*
X89740420Y-103231778D01*
X89740422Y-103231782D01*
X89740423Y-103231785D01*
X89745818Y-103241129D01*
X89767706Y-103279040D01*
X89769210Y-103281644D01*
X89785694Y-103349541D01*
X89762852Y-103415572D01*
X89745373Y-103435297D01*
X89709392Y-103468098D01*
X89709392Y-103468099D01*
X89575368Y-103645574D01*
X89476239Y-103844650D01*
X89423505Y-104030000D01*
X90355025Y-104030000D01*
X90319930Y-104065095D01*
X90273852Y-104144905D01*
X90250000Y-104233922D01*
X90250000Y-104326078D01*
X90273852Y-104415095D01*
X90319930Y-104494905D01*
X90385095Y-104560070D01*
X90464905Y-104606148D01*
X90553922Y-104630000D01*
X90646078Y-104630000D01*
X90735095Y-104606148D01*
X90814905Y-104560070D01*
X90850000Y-104524975D01*
X90850000Y-105454052D01*
X90929804Y-105439135D01*
X91137177Y-105358798D01*
X91137179Y-105358797D01*
X91326261Y-105241721D01*
X91490608Y-105091900D01*
X91624630Y-104914427D01*
X91688719Y-104785718D01*
X91736222Y-104734481D01*
X91803885Y-104717059D01*
X91870225Y-104738984D01*
X91910720Y-104785717D01*
X91974938Y-104914683D01*
X91974943Y-104914691D01*
X92109020Y-105092238D01*
X92273437Y-105242123D01*
X92273439Y-105242125D01*
X92462595Y-105359245D01*
X92462596Y-105359245D01*
X92462599Y-105359247D01*
X92670060Y-105439618D01*
X92888757Y-105480500D01*
X92888759Y-105480500D01*
X93111241Y-105480500D01*
X93111243Y-105480500D01*
X93329940Y-105439618D01*
X93537401Y-105359247D01*
X93726562Y-105242124D01*
X93890981Y-105092236D01*
X94025058Y-104914689D01*
X94124229Y-104715528D01*
X94132426Y-104686717D01*
X94169702Y-104627627D01*
X94233011Y-104598068D01*
X94302251Y-104607429D01*
X94339372Y-104632972D01*
X95177922Y-105471523D01*
X95211407Y-105532846D01*
X95206423Y-105602538D01*
X95164551Y-105658471D01*
X95151657Y-105666195D01*
X95151961Y-105666721D01*
X95147268Y-105669430D01*
X94960858Y-105799954D01*
X94799954Y-105960858D01*
X94669432Y-106147265D01*
X94669431Y-106147267D01*
X94573261Y-106353502D01*
X94573258Y-106353511D01*
X94514366Y-106573302D01*
X94514364Y-106573313D01*
X94494532Y-106799998D01*
X94494532Y-106800001D01*
X94514364Y-107026686D01*
X94514366Y-107026697D01*
X94573258Y-107246488D01*
X94573261Y-107246497D01*
X94669431Y-107452732D01*
X94669432Y-107452734D01*
X94799954Y-107639141D01*
X94960858Y-107800045D01*
X94960861Y-107800047D01*
X95147266Y-107930568D01*
X95353504Y-108026739D01*
X95573308Y-108085635D01*
X95735230Y-108099801D01*
X95799998Y-108105468D01*
X95800000Y-108105468D01*
X95800002Y-108105468D01*
X95856673Y-108100509D01*
X96026692Y-108085635D01*
X96246496Y-108026739D01*
X96452734Y-107930568D01*
X96639139Y-107800047D01*
X96800047Y-107639139D01*
X96930568Y-107452734D01*
X97026739Y-107246496D01*
X97085635Y-107026692D01*
X97105468Y-106800000D01*
X97085635Y-106573308D01*
X97072308Y-106523573D01*
X97054362Y-106456593D01*
X97056025Y-106386743D01*
X97095188Y-106328881D01*
X97159417Y-106301377D01*
X97174137Y-106300500D01*
X99986627Y-106300500D01*
X100144741Y-106300501D01*
X100297469Y-106259577D01*
X100355687Y-106225965D01*
X100434401Y-106180520D01*
X100546205Y-106068716D01*
X100546205Y-106068715D01*
X100563646Y-106051275D01*
X100563649Y-106051271D01*
X100578105Y-106036816D01*
X100639429Y-106003333D01*
X100665783Y-106000500D01*
X102452556Y-106000500D01*
X102519595Y-106020185D01*
X102565350Y-106072989D01*
X102575294Y-106142147D01*
X102564939Y-106176900D01*
X102542060Y-106225965D01*
X102473261Y-106373502D01*
X102473258Y-106373511D01*
X102414366Y-106593302D01*
X102414364Y-106593313D01*
X102394532Y-106819998D01*
X102394532Y-106820001D01*
X102414364Y-107046686D01*
X102414366Y-107046697D01*
X102473258Y-107266488D01*
X102473261Y-107266497D01*
X102569431Y-107472732D01*
X102569432Y-107472734D01*
X102699954Y-107659141D01*
X102860858Y-107820045D01*
X102860861Y-107820047D01*
X103047266Y-107950568D01*
X103253504Y-108046739D01*
X103473308Y-108105635D01*
X103635230Y-108119801D01*
X103699998Y-108125468D01*
X103700000Y-108125468D01*
X103700002Y-108125468D01*
X103756673Y-108120509D01*
X103926692Y-108105635D01*
X104146496Y-108046739D01*
X104352734Y-107950568D01*
X104539139Y-107820047D01*
X104700047Y-107659139D01*
X104830568Y-107472734D01*
X104926739Y-107266496D01*
X104985635Y-107046692D01*
X105005468Y-106820000D01*
X104985635Y-106593308D01*
X104926739Y-106373504D01*
X104835061Y-106176902D01*
X104824570Y-106107828D01*
X104853089Y-106044044D01*
X104911566Y-106005804D01*
X104947444Y-106000500D01*
X107713331Y-106000500D01*
X107713347Y-106000501D01*
X107720943Y-106000501D01*
X107879054Y-106000501D01*
X107879057Y-106000501D01*
X108031785Y-105959577D01*
X108101200Y-105919500D01*
X108168716Y-105880520D01*
X108280520Y-105768716D01*
X108280520Y-105768714D01*
X108290724Y-105758511D01*
X108290728Y-105758506D01*
X108540319Y-105508914D01*
X108601640Y-105475431D01*
X108650783Y-105474708D01*
X108788757Y-105500500D01*
X108788759Y-105500500D01*
X109011241Y-105500500D01*
X109011243Y-105500500D01*
X109229940Y-105459618D01*
X109437401Y-105379247D01*
X109626562Y-105262124D01*
X109790981Y-105112236D01*
X109925058Y-104934689D01*
X110024229Y-104735528D01*
X110085115Y-104521536D01*
X110105643Y-104300000D01*
X110099594Y-104234725D01*
X110085115Y-104078464D01*
X110085114Y-104078462D01*
X110079424Y-104058464D01*
X110024229Y-103864472D01*
X110024224Y-103864461D01*
X109925061Y-103665316D01*
X109925056Y-103665308D01*
X109790979Y-103487761D01*
X109683739Y-103389999D01*
X116931127Y-103389999D01*
X116931128Y-103390000D01*
X117894314Y-103390000D01*
X117889920Y-103394394D01*
X117837259Y-103485606D01*
X117810000Y-103587339D01*
X117810000Y-103692661D01*
X117837259Y-103794394D01*
X117889920Y-103885606D01*
X117894314Y-103890000D01*
X116931128Y-103890000D01*
X116983730Y-104086317D01*
X116983734Y-104086326D01*
X117079865Y-104292482D01*
X117210342Y-104478820D01*
X117371179Y-104639657D01*
X117557517Y-104770134D01*
X117763673Y-104866265D01*
X117763682Y-104866269D01*
X117959999Y-104918872D01*
X117960000Y-104918871D01*
X117960000Y-103955686D01*
X117964394Y-103960080D01*
X118055606Y-104012741D01*
X118157339Y-104040000D01*
X118262661Y-104040000D01*
X118364394Y-104012741D01*
X118455606Y-103960080D01*
X118460000Y-103955686D01*
X118460000Y-104918872D01*
X118656317Y-104866269D01*
X118656326Y-104866265D01*
X118862482Y-104770134D01*
X119048820Y-104639657D01*
X119209657Y-104478820D01*
X119340132Y-104292484D01*
X119367341Y-104234134D01*
X119413513Y-104181695D01*
X119480707Y-104162542D01*
X119547588Y-104182757D01*
X119592105Y-104234132D01*
X119592382Y-104234725D01*
X119619431Y-104292732D01*
X119619432Y-104292734D01*
X119749954Y-104479141D01*
X119910858Y-104640045D01*
X119910861Y-104640047D01*
X120097266Y-104770568D01*
X120303504Y-104866739D01*
X120523308Y-104925635D01*
X120685230Y-104939801D01*
X120749998Y-104945468D01*
X120750000Y-104945468D01*
X120750002Y-104945468D01*
X120806807Y-104940498D01*
X120976692Y-104925635D01*
X121196496Y-104866739D01*
X121402734Y-104770568D01*
X121589139Y-104640047D01*
X121750047Y-104479139D01*
X121880568Y-104292734D01*
X121907618Y-104234724D01*
X121953790Y-104182285D01*
X122020983Y-104163133D01*
X122087865Y-104183348D01*
X122132382Y-104234725D01*
X122159429Y-104292728D01*
X122159432Y-104292734D01*
X122289954Y-104479141D01*
X122450858Y-104640045D01*
X122450861Y-104640047D01*
X122637266Y-104770568D01*
X122843504Y-104866739D01*
X123063308Y-104925635D01*
X123225230Y-104939801D01*
X123289998Y-104945468D01*
X123290000Y-104945468D01*
X123290002Y-104945468D01*
X123346807Y-104940498D01*
X123516692Y-104925635D01*
X123736496Y-104866739D01*
X123942734Y-104770568D01*
X124129139Y-104640047D01*
X124290047Y-104479139D01*
X124420568Y-104292734D01*
X124447618Y-104234724D01*
X124493790Y-104182285D01*
X124560983Y-104163133D01*
X124627865Y-104183348D01*
X124672382Y-104234725D01*
X124699429Y-104292728D01*
X124699432Y-104292734D01*
X124829954Y-104479141D01*
X124990858Y-104640045D01*
X124990861Y-104640047D01*
X125177266Y-104770568D01*
X125383504Y-104866739D01*
X125603308Y-104925635D01*
X125765230Y-104939801D01*
X125829998Y-104945468D01*
X125830000Y-104945468D01*
X125830002Y-104945468D01*
X125886807Y-104940498D01*
X126056692Y-104925635D01*
X126276496Y-104866739D01*
X126482734Y-104770568D01*
X126669139Y-104640047D01*
X126830047Y-104479139D01*
X126960568Y-104292734D01*
X126987620Y-104234719D01*
X127033789Y-104182285D01*
X127100983Y-104163132D01*
X127167864Y-104183347D01*
X127212382Y-104234723D01*
X127239432Y-104292732D01*
X127239433Y-104292734D01*
X127369955Y-104479141D01*
X127530859Y-104640045D01*
X127530862Y-104640047D01*
X127717267Y-104770568D01*
X127923505Y-104866739D01*
X128143309Y-104925635D01*
X128305231Y-104939801D01*
X128369999Y-104945468D01*
X128370001Y-104945468D01*
X128370003Y-104945468D01*
X128426808Y-104940498D01*
X128596693Y-104925635D01*
X128816497Y-104866739D01*
X129022735Y-104770568D01*
X129209140Y-104640047D01*
X129370048Y-104479139D01*
X129500569Y-104292734D01*
X129527618Y-104234726D01*
X129573790Y-104182287D01*
X129640983Y-104163135D01*
X129707865Y-104183350D01*
X129752381Y-104234724D01*
X129779432Y-104292734D01*
X129784519Y-104299999D01*
X129909954Y-104479141D01*
X130070858Y-104640045D01*
X130070861Y-104640047D01*
X130257266Y-104770568D01*
X130463504Y-104866739D01*
X130683308Y-104925635D01*
X130845230Y-104939801D01*
X130909998Y-104945468D01*
X130910000Y-104945468D01*
X130910002Y-104945468D01*
X130966807Y-104940498D01*
X131136692Y-104925635D01*
X131356496Y-104866739D01*
X131562734Y-104770568D01*
X131749139Y-104640047D01*
X131910047Y-104479139D01*
X131927272Y-104454539D01*
X131981848Y-104410913D01*
X132051346Y-104403718D01*
X132113701Y-104435239D01*
X132149116Y-104495468D01*
X132152138Y-104512406D01*
X132155908Y-104547483D01*
X132206202Y-104682328D01*
X132206206Y-104682335D01*
X132292452Y-104797544D01*
X132292455Y-104797547D01*
X132407664Y-104883793D01*
X132407671Y-104883797D01*
X132542517Y-104934091D01*
X132542516Y-104934091D01*
X132549444Y-104934835D01*
X132602127Y-104940500D01*
X134297872Y-104940499D01*
X134357483Y-104934091D01*
X134492331Y-104883796D01*
X134607546Y-104797546D01*
X134693796Y-104682331D01*
X134744091Y-104547483D01*
X134750500Y-104487873D01*
X134750499Y-102792128D01*
X134744091Y-102732517D01*
X134743783Y-102731692D01*
X134693797Y-102597671D01*
X134693793Y-102597664D01*
X134607547Y-102482455D01*
X134607544Y-102482452D01*
X134492335Y-102396206D01*
X134492328Y-102396202D01*
X134357482Y-102345908D01*
X134357483Y-102345908D01*
X134297883Y-102339501D01*
X134297881Y-102339500D01*
X134297873Y-102339500D01*
X134297864Y-102339500D01*
X132602129Y-102339500D01*
X132602123Y-102339501D01*
X132542516Y-102345908D01*
X132407671Y-102396202D01*
X132407664Y-102396206D01*
X132292455Y-102482452D01*
X132292452Y-102482455D01*
X132206206Y-102597664D01*
X132206202Y-102597671D01*
X132155908Y-102732516D01*
X132152137Y-102767596D01*
X132125398Y-102832146D01*
X132068006Y-102871994D01*
X131998180Y-102874487D01*
X131938092Y-102838834D01*
X131927273Y-102825462D01*
X131910045Y-102800858D01*
X131749141Y-102639954D01*
X131562734Y-102509432D01*
X131562732Y-102509431D01*
X131356497Y-102413261D01*
X131356488Y-102413258D01*
X131136697Y-102354366D01*
X131136693Y-102354365D01*
X131136692Y-102354365D01*
X131136691Y-102354364D01*
X131136686Y-102354364D01*
X130910002Y-102334532D01*
X130909998Y-102334532D01*
X130683313Y-102354364D01*
X130683302Y-102354366D01*
X130463511Y-102413258D01*
X130463502Y-102413261D01*
X130257267Y-102509431D01*
X130257265Y-102509432D01*
X130070858Y-102639954D01*
X129909954Y-102800858D01*
X129779432Y-102987265D01*
X129779428Y-102987272D01*
X129752381Y-103045274D01*
X129706208Y-103097713D01*
X129639014Y-103116864D01*
X129572133Y-103096647D01*
X129527618Y-103045273D01*
X129500569Y-102987266D01*
X129370048Y-102800861D01*
X129370046Y-102800858D01*
X129209142Y-102639954D01*
X129022735Y-102509432D01*
X129022733Y-102509431D01*
X128816498Y-102413261D01*
X128816489Y-102413258D01*
X128596698Y-102354366D01*
X128596694Y-102354365D01*
X128596693Y-102354365D01*
X128596692Y-102354364D01*
X128596687Y-102354364D01*
X128370003Y-102334532D01*
X128369999Y-102334532D01*
X128143314Y-102354364D01*
X128143303Y-102354366D01*
X127923512Y-102413258D01*
X127923503Y-102413261D01*
X127717268Y-102509431D01*
X127717266Y-102509432D01*
X127530859Y-102639954D01*
X127369955Y-102800858D01*
X127240576Y-102985633D01*
X127239433Y-102987266D01*
X127213703Y-103042445D01*
X127212382Y-103045277D01*
X127166209Y-103097716D01*
X127099015Y-103116867D01*
X127032134Y-103096651D01*
X126987618Y-103045275D01*
X126987617Y-103045273D01*
X126960568Y-102987266D01*
X126830047Y-102800861D01*
X126830045Y-102800858D01*
X126669141Y-102639954D01*
X126482734Y-102509432D01*
X126482732Y-102509431D01*
X126276497Y-102413261D01*
X126276488Y-102413258D01*
X126202527Y-102393441D01*
X126142866Y-102357076D01*
X126112337Y-102294229D01*
X126120632Y-102224854D01*
X126165117Y-102170976D01*
X126189821Y-102158041D01*
X126367401Y-102089247D01*
X126556562Y-101972124D01*
X126720981Y-101822236D01*
X126855058Y-101644689D01*
X126954229Y-101445528D01*
X127015115Y-101231536D01*
X127035643Y-101010000D01*
X127015115Y-100788464D01*
X126954229Y-100574472D01*
X126952051Y-100570098D01*
X126855061Y-100375316D01*
X126855056Y-100375308D01*
X126720979Y-100197761D01*
X126556562Y-100047876D01*
X126556560Y-100047874D01*
X126367404Y-99930754D01*
X126367398Y-99930752D01*
X126159940Y-99850382D01*
X125941243Y-99809500D01*
X125718757Y-99809500D01*
X125500060Y-99850382D01*
X125368864Y-99901207D01*
X125292601Y-99930752D01*
X125292595Y-99930754D01*
X125103439Y-100047874D01*
X125103437Y-100047876D01*
X124939020Y-100197761D01*
X124804943Y-100375308D01*
X124804938Y-100375316D01*
X124705775Y-100574461D01*
X124705769Y-100574476D01*
X124699266Y-100597335D01*
X124661987Y-100656429D01*
X124598677Y-100685986D01*
X124529438Y-100676624D01*
X124476251Y-100631314D01*
X124460734Y-100597335D01*
X124454230Y-100574476D01*
X124454229Y-100574472D01*
X124452051Y-100570098D01*
X124355061Y-100375316D01*
X124355056Y-100375308D01*
X124220979Y-100197761D01*
X124056562Y-100047876D01*
X124056560Y-100047874D01*
X123867404Y-99930754D01*
X123867398Y-99930752D01*
X123659940Y-99850382D01*
X123441243Y-99809500D01*
X123218757Y-99809500D01*
X123000060Y-99850382D01*
X122868864Y-99901207D01*
X122792601Y-99930752D01*
X122792595Y-99930754D01*
X122603439Y-100047874D01*
X122603437Y-100047876D01*
X122439020Y-100197761D01*
X122304943Y-100375308D01*
X122304938Y-100375316D01*
X122205775Y-100574461D01*
X122205769Y-100574476D01*
X122144885Y-100788462D01*
X122144884Y-100788464D01*
X122124357Y-101009999D01*
X122124357Y-101010000D01*
X122144884Y-101231535D01*
X122144885Y-101231537D01*
X122205769Y-101445523D01*
X122205775Y-101445538D01*
X122304938Y-101644683D01*
X122304943Y-101644691D01*
X122439020Y-101822238D01*
X122603437Y-101972123D01*
X122603439Y-101972125D01*
X122792595Y-102089245D01*
X122792597Y-102089246D01*
X122792599Y-102089247D01*
X122953819Y-102151704D01*
X123009220Y-102194276D01*
X123032811Y-102260042D01*
X123017100Y-102328123D01*
X122967076Y-102376902D01*
X122941119Y-102387105D01*
X122843508Y-102413259D01*
X122843502Y-102413261D01*
X122637267Y-102509431D01*
X122637265Y-102509432D01*
X122450858Y-102639954D01*
X122289954Y-102800858D01*
X122159432Y-102987265D01*
X122159431Y-102987267D01*
X122143966Y-103020433D01*
X122133702Y-103042445D01*
X122132382Y-103045275D01*
X122086209Y-103097714D01*
X122019016Y-103116866D01*
X121952135Y-103096650D01*
X121907618Y-103045275D01*
X121907617Y-103045273D01*
X121880568Y-102987266D01*
X121750047Y-102800861D01*
X121750045Y-102800858D01*
X121589141Y-102639954D01*
X121402734Y-102509432D01*
X121402732Y-102509431D01*
X121196497Y-102413261D01*
X121196488Y-102413258D01*
X120976697Y-102354366D01*
X120976693Y-102354365D01*
X120976692Y-102354365D01*
X120976691Y-102354364D01*
X120976686Y-102354364D01*
X120750002Y-102334532D01*
X120749998Y-102334532D01*
X120523313Y-102354364D01*
X120523302Y-102354366D01*
X120303511Y-102413258D01*
X120303502Y-102413261D01*
X120097267Y-102509431D01*
X120097265Y-102509432D01*
X119910858Y-102639954D01*
X119749954Y-102800858D01*
X119620575Y-102985633D01*
X119619432Y-102987266D01*
X119592383Y-103045274D01*
X119592106Y-103045867D01*
X119545933Y-103098306D01*
X119478739Y-103117457D01*
X119411858Y-103097241D01*
X119367342Y-103045865D01*
X119340135Y-102987520D01*
X119340134Y-102987518D01*
X119209657Y-102801179D01*
X119048820Y-102640342D01*
X118862482Y-102509865D01*
X118656328Y-102413734D01*
X118460000Y-102361127D01*
X118460000Y-103324314D01*
X118455606Y-103319920D01*
X118364394Y-103267259D01*
X118262661Y-103240000D01*
X118157339Y-103240000D01*
X118055606Y-103267259D01*
X117964394Y-103319920D01*
X117960000Y-103324314D01*
X117960000Y-102361127D01*
X117763671Y-102413734D01*
X117557517Y-102509865D01*
X117371179Y-102640342D01*
X117210342Y-102801179D01*
X117079865Y-102987517D01*
X116983734Y-103193673D01*
X116983730Y-103193682D01*
X116931127Y-103389999D01*
X109683739Y-103389999D01*
X109626562Y-103337876D01*
X109626560Y-103337874D01*
X109437404Y-103220754D01*
X109437398Y-103220751D01*
X109337225Y-103181944D01*
X109294411Y-103165358D01*
X109239011Y-103122786D01*
X109215420Y-103057019D01*
X109231131Y-102988939D01*
X109281155Y-102940160D01*
X109294413Y-102934105D01*
X109437174Y-102878799D01*
X109437179Y-102878797D01*
X109626261Y-102761721D01*
X109790608Y-102611900D01*
X109924631Y-102434425D01*
X110023760Y-102235349D01*
X110076495Y-102050000D01*
X109144975Y-102050000D01*
X109180070Y-102014905D01*
X109226148Y-101935095D01*
X109250000Y-101846078D01*
X109250000Y-101753922D01*
X109226148Y-101664905D01*
X109180070Y-101585095D01*
X109114905Y-101519930D01*
X109035095Y-101473852D01*
X108946078Y-101450000D01*
X108853922Y-101450000D01*
X108764905Y-101473852D01*
X108685095Y-101519930D01*
X108619930Y-101585095D01*
X108573852Y-101664905D01*
X108550000Y-101753922D01*
X108550000Y-101846078D01*
X108573852Y-101935095D01*
X108619930Y-102014905D01*
X108655025Y-102050000D01*
X107723505Y-102050000D01*
X107776239Y-102235349D01*
X107875368Y-102434425D01*
X108009391Y-102611900D01*
X108173738Y-102761721D01*
X108362820Y-102878797D01*
X108362822Y-102878798D01*
X108505587Y-102934105D01*
X108560988Y-102976678D01*
X108584579Y-103042445D01*
X108568868Y-103110525D01*
X108518844Y-103159304D01*
X108505587Y-103165359D01*
X108362601Y-103220751D01*
X108362595Y-103220754D01*
X108173439Y-103337874D01*
X108173437Y-103337876D01*
X108009020Y-103487761D01*
X107874943Y-103665308D01*
X107874941Y-103665312D01*
X107810720Y-103794283D01*
X107763216Y-103845519D01*
X107695553Y-103862940D01*
X107629213Y-103841014D01*
X107588720Y-103794281D01*
X107524633Y-103665576D01*
X107390608Y-103488099D01*
X107226261Y-103338278D01*
X107037179Y-103221202D01*
X107037177Y-103221201D01*
X106829804Y-103140865D01*
X106679549Y-103112777D01*
X106617268Y-103081109D01*
X106581995Y-103020796D01*
X106584929Y-102950988D01*
X106625138Y-102893848D01*
X106649925Y-102878508D01*
X106752734Y-102830568D01*
X106939139Y-102700047D01*
X107100047Y-102539139D01*
X107230568Y-102352734D01*
X107326739Y-102146496D01*
X107385635Y-101926692D01*
X107405468Y-101700000D01*
X107392345Y-101550000D01*
X107723505Y-101550000D01*
X108650000Y-101550000D01*
X108650000Y-100625946D01*
X109150000Y-100625946D01*
X109150000Y-101550000D01*
X110076495Y-101550000D01*
X110023760Y-101364650D01*
X109924631Y-101165574D01*
X109790608Y-100988099D01*
X109626261Y-100838278D01*
X109437179Y-100721202D01*
X109437177Y-100721201D01*
X109229799Y-100640864D01*
X109150000Y-100625946D01*
X108650000Y-100625946D01*
X108570200Y-100640864D01*
X108362822Y-100721201D01*
X108362820Y-100721202D01*
X108173738Y-100838278D01*
X108009391Y-100988099D01*
X107875368Y-101165574D01*
X107776239Y-101364650D01*
X107723505Y-101550000D01*
X107392345Y-101550000D01*
X107385635Y-101473308D01*
X107332047Y-101273313D01*
X107326741Y-101253511D01*
X107326738Y-101253502D01*
X107230568Y-101047266D01*
X107100047Y-100860861D01*
X107100045Y-100860858D01*
X106939141Y-100699954D01*
X106752734Y-100569432D01*
X106752732Y-100569431D01*
X106546497Y-100473261D01*
X106546488Y-100473258D01*
X106326697Y-100414366D01*
X106326693Y-100414365D01*
X106326692Y-100414365D01*
X106326691Y-100414364D01*
X106326686Y-100414364D01*
X106100002Y-100394532D01*
X106099998Y-100394532D01*
X105873313Y-100414364D01*
X105873302Y-100414366D01*
X105777067Y-100440152D01*
X105707217Y-100438489D01*
X105657293Y-100408058D01*
X104887590Y-99638355D01*
X104887588Y-99638352D01*
X104768717Y-99519481D01*
X104768716Y-99519480D01*
X104681904Y-99469360D01*
X104681904Y-99469359D01*
X104681900Y-99469358D01*
X104631785Y-99440423D01*
X104479057Y-99399499D01*
X104320943Y-99399499D01*
X104313347Y-99399499D01*
X104313331Y-99399500D01*
X93331470Y-99399500D01*
X93264431Y-99379815D01*
X93243789Y-99363181D01*
X92236819Y-98356211D01*
X92203334Y-98294888D01*
X92200500Y-98268530D01*
X92200500Y-98140002D01*
X116025034Y-98140002D01*
X116044858Y-98366599D01*
X116044860Y-98366610D01*
X116103730Y-98586317D01*
X116103735Y-98586331D01*
X116199863Y-98792478D01*
X116250974Y-98865472D01*
X116930000Y-98186446D01*
X116930000Y-98192661D01*
X116957259Y-98294394D01*
X117009920Y-98385606D01*
X117084394Y-98460080D01*
X117175606Y-98512741D01*
X117277339Y-98540000D01*
X117283553Y-98540000D01*
X116604526Y-99219025D01*
X116677513Y-99270132D01*
X116677521Y-99270136D01*
X116883668Y-99366264D01*
X116883682Y-99366269D01*
X117103389Y-99425139D01*
X117103400Y-99425141D01*
X117329998Y-99444966D01*
X117330002Y-99444966D01*
X117556599Y-99425141D01*
X117556610Y-99425139D01*
X117776317Y-99366269D01*
X117776331Y-99366264D01*
X117982478Y-99270136D01*
X118055471Y-99219024D01*
X117376447Y-98540000D01*
X117382661Y-98540000D01*
X117484394Y-98512741D01*
X117575606Y-98460080D01*
X117650080Y-98385606D01*
X117702741Y-98294394D01*
X117730000Y-98192661D01*
X117730000Y-98186447D01*
X118414197Y-98870644D01*
X118463192Y-98880491D01*
X118513375Y-98929106D01*
X118528049Y-98984632D01*
X118529099Y-98984576D01*
X118529146Y-98984571D01*
X118529146Y-98984573D01*
X118529324Y-98984564D01*
X118529501Y-98987876D01*
X118535908Y-99047483D01*
X118586202Y-99182328D01*
X118586206Y-99182335D01*
X118672452Y-99297544D01*
X118672455Y-99297547D01*
X118787664Y-99383793D01*
X118787671Y-99383797D01*
X118922517Y-99434091D01*
X118922516Y-99434091D01*
X118929444Y-99434835D01*
X118982127Y-99440500D01*
X120677872Y-99440499D01*
X120737483Y-99434091D01*
X120872331Y-99383796D01*
X120987546Y-99297546D01*
X121073796Y-99182331D01*
X121124091Y-99047483D01*
X121130500Y-98987873D01*
X121130500Y-98987870D01*
X128074387Y-98987870D01*
X128074388Y-98987876D01*
X128080795Y-99047483D01*
X128131089Y-99182328D01*
X128131093Y-99182335D01*
X128217339Y-99297544D01*
X128217342Y-99297547D01*
X128332551Y-99383793D01*
X128332558Y-99383797D01*
X128467404Y-99434091D01*
X128467403Y-99434091D01*
X128474331Y-99434835D01*
X128527014Y-99440500D01*
X130222759Y-99440499D01*
X130282370Y-99434091D01*
X130417218Y-99383796D01*
X130532433Y-99297546D01*
X130618683Y-99182331D01*
X130668978Y-99047483D01*
X130675387Y-98987873D01*
X130675386Y-98987845D01*
X130675565Y-98984547D01*
X130677070Y-98984627D01*
X130694999Y-98923326D01*
X130747755Y-98877514D01*
X130791352Y-98869981D01*
X131474887Y-98186446D01*
X131474887Y-98192661D01*
X131502146Y-98294394D01*
X131554807Y-98385606D01*
X131629281Y-98460080D01*
X131720493Y-98512741D01*
X131822226Y-98540000D01*
X131828440Y-98540000D01*
X131149413Y-99219025D01*
X131222400Y-99270132D01*
X131222408Y-99270136D01*
X131428555Y-99366264D01*
X131428569Y-99366269D01*
X131648276Y-99425139D01*
X131648287Y-99425141D01*
X131874885Y-99444966D01*
X131874889Y-99444966D01*
X132101486Y-99425141D01*
X132101497Y-99425139D01*
X132321204Y-99366269D01*
X132321218Y-99366264D01*
X132527365Y-99270136D01*
X132600358Y-99219024D01*
X131921334Y-98540000D01*
X131927548Y-98540000D01*
X132029281Y-98512741D01*
X132120493Y-98460080D01*
X132194967Y-98385606D01*
X132247628Y-98294394D01*
X132274887Y-98192661D01*
X132274887Y-98186447D01*
X132953911Y-98865471D01*
X133005023Y-98792478D01*
X133101151Y-98586331D01*
X133101156Y-98586317D01*
X133160026Y-98366610D01*
X133160028Y-98366599D01*
X133179853Y-98140002D01*
X133179853Y-98139997D01*
X133160028Y-97913400D01*
X133160026Y-97913389D01*
X133101156Y-97693682D01*
X133101151Y-97693668D01*
X133005023Y-97487521D01*
X133005019Y-97487513D01*
X132953912Y-97414526D01*
X132274887Y-98093551D01*
X132274887Y-98087339D01*
X132247628Y-97985606D01*
X132194967Y-97894394D01*
X132120493Y-97819920D01*
X132029281Y-97767259D01*
X131927548Y-97740000D01*
X131921335Y-97740000D01*
X132600359Y-97060974D01*
X132527365Y-97009863D01*
X132321218Y-96913735D01*
X132321204Y-96913730D01*
X132101497Y-96854860D01*
X132101486Y-96854858D01*
X131874889Y-96835034D01*
X131874885Y-96835034D01*
X131648287Y-96854858D01*
X131648276Y-96854860D01*
X131428569Y-96913730D01*
X131428560Y-96913734D01*
X131222403Y-97009866D01*
X131222399Y-97009868D01*
X131149413Y-97060973D01*
X131149413Y-97060974D01*
X131828440Y-97740000D01*
X131822226Y-97740000D01*
X131720493Y-97767259D01*
X131629281Y-97819920D01*
X131554807Y-97894394D01*
X131502146Y-97985606D01*
X131474887Y-98087339D01*
X131474887Y-98093552D01*
X130790686Y-97409351D01*
X130741692Y-97399505D01*
X130691509Y-97350889D01*
X130676868Y-97295366D01*
X130675787Y-97295423D01*
X130675741Y-97295429D01*
X130675740Y-97295426D01*
X130675563Y-97295436D01*
X130675386Y-97292135D01*
X130675386Y-97292128D01*
X130668978Y-97232517D01*
X130666350Y-97225472D01*
X130618684Y-97097671D01*
X130618680Y-97097664D01*
X130532434Y-96982455D01*
X130532431Y-96982452D01*
X130417222Y-96896206D01*
X130417215Y-96896202D01*
X130282369Y-96845908D01*
X130282370Y-96845908D01*
X130222770Y-96839501D01*
X130222768Y-96839500D01*
X130222760Y-96839500D01*
X130222751Y-96839500D01*
X128527016Y-96839500D01*
X128527010Y-96839501D01*
X128467403Y-96845908D01*
X128332558Y-96896202D01*
X128332551Y-96896206D01*
X128217342Y-96982452D01*
X128217339Y-96982455D01*
X128131093Y-97097664D01*
X128131089Y-97097671D01*
X128080795Y-97232517D01*
X128074388Y-97292116D01*
X128074388Y-97292123D01*
X128074387Y-97292135D01*
X128074387Y-98987870D01*
X121130500Y-98987870D01*
X121130499Y-97292128D01*
X121124091Y-97232517D01*
X121121463Y-97225472D01*
X121073797Y-97097671D01*
X121073793Y-97097664D01*
X120987547Y-96982455D01*
X120987544Y-96982452D01*
X120872335Y-96896206D01*
X120872328Y-96896202D01*
X120737482Y-96845908D01*
X120737483Y-96845908D01*
X120677883Y-96839501D01*
X120677881Y-96839500D01*
X120677873Y-96839500D01*
X120677864Y-96839500D01*
X118982129Y-96839500D01*
X118982123Y-96839501D01*
X118922516Y-96845908D01*
X118787671Y-96896202D01*
X118787664Y-96896206D01*
X118672455Y-96982452D01*
X118672452Y-96982455D01*
X118586206Y-97097664D01*
X118586202Y-97097671D01*
X118535908Y-97232517D01*
X118529501Y-97292116D01*
X118529501Y-97292123D01*
X118529322Y-97295452D01*
X118527847Y-97295372D01*
X118509815Y-97356784D01*
X118457011Y-97402539D01*
X118413522Y-97410029D01*
X117730000Y-98093551D01*
X117730000Y-98087339D01*
X117702741Y-97985606D01*
X117650080Y-97894394D01*
X117575606Y-97819920D01*
X117484394Y-97767259D01*
X117382661Y-97740000D01*
X117376448Y-97740000D01*
X118055472Y-97060974D01*
X117982478Y-97009863D01*
X117776331Y-96913735D01*
X117776317Y-96913730D01*
X117556610Y-96854860D01*
X117556599Y-96854858D01*
X117330002Y-96835034D01*
X117329998Y-96835034D01*
X117103400Y-96854858D01*
X117103389Y-96854860D01*
X116883682Y-96913730D01*
X116883673Y-96913734D01*
X116677516Y-97009866D01*
X116677512Y-97009868D01*
X116604526Y-97060973D01*
X116604526Y-97060974D01*
X117283553Y-97740000D01*
X117277339Y-97740000D01*
X117175606Y-97767259D01*
X117084394Y-97819920D01*
X117009920Y-97894394D01*
X116957259Y-97985606D01*
X116930000Y-98087339D01*
X116930000Y-98093552D01*
X116250974Y-97414526D01*
X116250973Y-97414526D01*
X116199868Y-97487512D01*
X116199866Y-97487516D01*
X116103734Y-97693673D01*
X116103730Y-97693682D01*
X116044860Y-97913389D01*
X116044858Y-97913400D01*
X116025034Y-98139997D01*
X116025034Y-98140002D01*
X92200500Y-98140002D01*
X92200500Y-97188757D01*
X92220185Y-97121718D01*
X92223924Y-97116400D01*
X92224532Y-97115345D01*
X92224536Y-97115341D01*
X92285044Y-96969262D01*
X92300500Y-96851861D01*
X92300500Y-96700001D01*
X93694532Y-96700001D01*
X93714364Y-96926686D01*
X93714366Y-96926697D01*
X93773258Y-97146488D01*
X93773261Y-97146497D01*
X93869431Y-97352732D01*
X93869432Y-97352734D01*
X93999954Y-97539141D01*
X94160858Y-97700045D01*
X94160861Y-97700047D01*
X94347266Y-97830568D01*
X94553504Y-97926739D01*
X94773308Y-97985635D01*
X94935230Y-97999801D01*
X94999998Y-98005468D01*
X95000000Y-98005468D01*
X95000002Y-98005468D01*
X95056673Y-98000509D01*
X95226692Y-97985635D01*
X95446496Y-97926739D01*
X95652734Y-97830568D01*
X95839139Y-97700047D01*
X96000047Y-97539139D01*
X96130568Y-97352734D01*
X96226739Y-97146496D01*
X96285635Y-96926692D01*
X96305468Y-96700001D01*
X99194532Y-96700001D01*
X99214364Y-96926686D01*
X99214366Y-96926697D01*
X99273258Y-97146488D01*
X99273261Y-97146497D01*
X99369431Y-97352732D01*
X99369432Y-97352734D01*
X99499954Y-97539141D01*
X99660858Y-97700045D01*
X99660861Y-97700047D01*
X99847266Y-97830568D01*
X100053504Y-97926739D01*
X100273308Y-97985635D01*
X100435230Y-97999801D01*
X100499998Y-98005468D01*
X100500000Y-98005468D01*
X100500002Y-98005468D01*
X100556673Y-98000509D01*
X100726692Y-97985635D01*
X100946496Y-97926739D01*
X101152734Y-97830568D01*
X101339139Y-97700047D01*
X101500047Y-97539139D01*
X101630568Y-97352734D01*
X101726739Y-97146496D01*
X101785635Y-96926692D01*
X101805468Y-96700001D01*
X104794532Y-96700001D01*
X104814364Y-96926686D01*
X104814366Y-96926697D01*
X104873258Y-97146488D01*
X104873261Y-97146497D01*
X104969431Y-97352732D01*
X104969432Y-97352734D01*
X105099954Y-97539141D01*
X105260858Y-97700045D01*
X105260861Y-97700047D01*
X105447266Y-97830568D01*
X105653504Y-97926739D01*
X105873308Y-97985635D01*
X106035230Y-97999801D01*
X106099998Y-98005468D01*
X106100000Y-98005468D01*
X106100002Y-98005468D01*
X106156673Y-98000509D01*
X106326692Y-97985635D01*
X106546496Y-97926739D01*
X106752734Y-97830568D01*
X106939139Y-97700047D01*
X107100047Y-97539139D01*
X107230568Y-97352734D01*
X107326739Y-97146496D01*
X107385635Y-96926692D01*
X107405468Y-96700000D01*
X107385635Y-96473308D01*
X107332067Y-96273389D01*
X107326741Y-96253511D01*
X107326738Y-96253502D01*
X107276817Y-96146447D01*
X107230568Y-96047266D01*
X107100047Y-95860861D01*
X107100045Y-95860858D01*
X106939141Y-95699954D01*
X106752734Y-95569432D01*
X106752732Y-95569431D01*
X106546497Y-95473261D01*
X106546488Y-95473258D01*
X106326697Y-95414366D01*
X106326693Y-95414365D01*
X106326692Y-95414365D01*
X106326691Y-95414364D01*
X106326686Y-95414364D01*
X106100002Y-95394532D01*
X106099998Y-95394532D01*
X105873313Y-95414364D01*
X105873302Y-95414366D01*
X105653511Y-95473258D01*
X105653502Y-95473261D01*
X105447267Y-95569431D01*
X105447265Y-95569432D01*
X105260858Y-95699954D01*
X105099954Y-95860858D01*
X104969432Y-96047265D01*
X104969431Y-96047267D01*
X104873261Y-96253502D01*
X104873258Y-96253511D01*
X104814366Y-96473302D01*
X104814364Y-96473313D01*
X104794532Y-96699998D01*
X104794532Y-96700001D01*
X101805468Y-96700001D01*
X101805468Y-96700000D01*
X101785635Y-96473308D01*
X101732067Y-96273389D01*
X101726741Y-96253511D01*
X101726738Y-96253502D01*
X101676817Y-96146447D01*
X101630568Y-96047266D01*
X101500047Y-95860861D01*
X101500045Y-95860858D01*
X101339141Y-95699954D01*
X101152734Y-95569432D01*
X101152732Y-95569431D01*
X100946497Y-95473261D01*
X100946488Y-95473258D01*
X100726697Y-95414366D01*
X100726693Y-95414365D01*
X100726692Y-95414365D01*
X100726691Y-95414364D01*
X100726686Y-95414364D01*
X100500002Y-95394532D01*
X100499998Y-95394532D01*
X100273313Y-95414364D01*
X100273302Y-95414366D01*
X100053511Y-95473258D01*
X100053502Y-95473261D01*
X99847267Y-95569431D01*
X99847265Y-95569432D01*
X99660858Y-95699954D01*
X99499954Y-95860858D01*
X99369432Y-96047265D01*
X99369431Y-96047267D01*
X99273261Y-96253502D01*
X99273258Y-96253511D01*
X99214366Y-96473302D01*
X99214364Y-96473313D01*
X99194532Y-96699998D01*
X99194532Y-96700001D01*
X96305468Y-96700001D01*
X96305468Y-96700000D01*
X96285635Y-96473308D01*
X96232067Y-96273389D01*
X96226741Y-96253511D01*
X96226738Y-96253502D01*
X96176817Y-96146447D01*
X96130568Y-96047266D01*
X96000047Y-95860861D01*
X96000045Y-95860858D01*
X95839141Y-95699954D01*
X95652734Y-95569432D01*
X95652732Y-95569431D01*
X95446497Y-95473261D01*
X95446488Y-95473258D01*
X95226697Y-95414366D01*
X95226693Y-95414365D01*
X95226692Y-95414365D01*
X95226691Y-95414364D01*
X95226686Y-95414364D01*
X95000002Y-95394532D01*
X94999998Y-95394532D01*
X94773313Y-95414364D01*
X94773302Y-95414366D01*
X94553511Y-95473258D01*
X94553502Y-95473261D01*
X94347267Y-95569431D01*
X94347265Y-95569432D01*
X94160858Y-95699954D01*
X93999954Y-95860858D01*
X93869432Y-96047265D01*
X93869431Y-96047267D01*
X93773261Y-96253502D01*
X93773258Y-96253511D01*
X93714366Y-96473302D01*
X93714364Y-96473313D01*
X93694532Y-96699998D01*
X93694532Y-96700001D01*
X92300500Y-96700001D01*
X92300499Y-95498140D01*
X92300499Y-95498139D01*
X92300499Y-95498136D01*
X92285046Y-95380746D01*
X92285044Y-95380739D01*
X92285044Y-95380738D01*
X92224536Y-95234659D01*
X92128282Y-95109218D01*
X92002841Y-95012964D01*
X91952799Y-94992236D01*
X91856762Y-94952456D01*
X91856760Y-94952455D01*
X91739361Y-94937000D01*
X91460636Y-94937000D01*
X91343246Y-94952453D01*
X91343234Y-94952457D01*
X91322450Y-94961066D01*
X91252981Y-94968533D01*
X91227550Y-94961066D01*
X91206765Y-94952457D01*
X91206760Y-94952455D01*
X91089361Y-94937000D01*
X90810636Y-94937000D01*
X90693246Y-94952453D01*
X90693234Y-94952457D01*
X90672450Y-94961066D01*
X90602981Y-94968533D01*
X90577550Y-94961066D01*
X90556765Y-94952457D01*
X90556760Y-94952455D01*
X90439361Y-94937000D01*
X90160636Y-94937000D01*
X90043246Y-94952453D01*
X90043234Y-94952457D01*
X90022450Y-94961066D01*
X89952981Y-94968533D01*
X89927550Y-94961066D01*
X89906765Y-94952457D01*
X89906760Y-94952455D01*
X89789361Y-94937000D01*
X89510636Y-94937000D01*
X89393241Y-94952454D01*
X89393239Y-94952455D01*
X89371796Y-94961337D01*
X89302327Y-94968804D01*
X89276895Y-94961337D01*
X89256631Y-94952944D01*
X89200000Y-94945487D01*
X89200000Y-94987999D01*
X89180315Y-95055038D01*
X89151489Y-95086373D01*
X89121719Y-95109216D01*
X89069507Y-95177260D01*
X89040657Y-95214860D01*
X89022376Y-95238684D01*
X88965948Y-95279886D01*
X88896202Y-95284041D01*
X88835281Y-95249829D01*
X88802529Y-95188111D01*
X88800000Y-95163197D01*
X88800000Y-94945487D01*
X88743370Y-94952943D01*
X88722449Y-94961609D01*
X88652980Y-94969075D01*
X88627551Y-94961609D01*
X88606629Y-94952943D01*
X88550000Y-94945487D01*
X88550000Y-95163197D01*
X88530315Y-95230236D01*
X88477511Y-95275991D01*
X88408353Y-95285935D01*
X88344797Y-95256910D01*
X88327624Y-95238684D01*
X88309343Y-95214860D01*
X88228282Y-95109218D01*
X88228280Y-95109217D01*
X88228280Y-95109216D01*
X88198511Y-95086373D01*
X88157310Y-95029944D01*
X88150000Y-94987999D01*
X88150000Y-94945487D01*
X88093370Y-94952943D01*
X88073103Y-94961338D01*
X88003633Y-94968804D01*
X87978203Y-94961337D01*
X87956762Y-94952456D01*
X87956760Y-94952455D01*
X87839361Y-94937000D01*
X87560636Y-94937000D01*
X87443246Y-94952453D01*
X87443237Y-94952456D01*
X87297160Y-95012963D01*
X87171718Y-95109218D01*
X87075463Y-95234660D01*
X87014956Y-95380737D01*
X87014955Y-95380739D01*
X87002775Y-95473261D01*
X86999501Y-95498136D01*
X86999500Y-95498145D01*
X86999500Y-96851863D01*
X87014953Y-96969253D01*
X87014956Y-96969262D01*
X87031773Y-97009863D01*
X87075464Y-97115341D01*
X87171718Y-97240782D01*
X87297159Y-97337036D01*
X87443238Y-97397544D01*
X87560639Y-97413000D01*
X87839360Y-97412999D01*
X87839361Y-97412999D01*
X87861921Y-97410029D01*
X87956762Y-97397544D01*
X87978200Y-97388663D01*
X88047668Y-97381194D01*
X88073106Y-97388663D01*
X88093365Y-97397054D01*
X88093377Y-97397058D01*
X88149998Y-97404511D01*
X88150000Y-97404510D01*
X88150000Y-97361999D01*
X88169685Y-97294960D01*
X88198512Y-97263625D01*
X88228282Y-97240782D01*
X88324536Y-97115341D01*
X88324536Y-97115339D01*
X88327624Y-97111316D01*
X88384052Y-97070113D01*
X88453798Y-97065958D01*
X88514718Y-97100170D01*
X88547471Y-97161887D01*
X88550000Y-97186802D01*
X88550000Y-97404510D01*
X88550001Y-97404511D01*
X88606622Y-97397058D01*
X88606631Y-97397055D01*
X88627547Y-97388392D01*
X88697017Y-97380923D01*
X88722453Y-97388392D01*
X88743368Y-97397055D01*
X88743377Y-97397058D01*
X88799998Y-97404511D01*
X88800000Y-97404510D01*
X88800000Y-97186802D01*
X88819685Y-97119763D01*
X88872489Y-97074008D01*
X88941647Y-97064064D01*
X89005203Y-97093089D01*
X89022376Y-97111316D01*
X89025463Y-97115339D01*
X89025464Y-97115341D01*
X89121718Y-97240782D01*
X89151485Y-97263623D01*
X89192688Y-97320048D01*
X89200000Y-97361999D01*
X89200000Y-97404510D01*
X89256631Y-97397055D01*
X89276887Y-97388665D01*
X89346356Y-97381193D01*
X89371797Y-97388663D01*
X89371802Y-97388665D01*
X89393238Y-97397544D01*
X89510639Y-97413000D01*
X89575500Y-97412999D01*
X89642538Y-97432683D01*
X89688294Y-97485486D01*
X89699500Y-97536999D01*
X89699500Y-98313330D01*
X89699499Y-98313348D01*
X89699499Y-98479054D01*
X89699498Y-98479054D01*
X89740423Y-98631785D01*
X89749603Y-98647685D01*
X89819477Y-98768712D01*
X89819481Y-98768717D01*
X89938349Y-98887585D01*
X89938355Y-98887590D01*
X91101083Y-100050318D01*
X91134568Y-100111641D01*
X91129584Y-100181333D01*
X91087712Y-100237266D01*
X91022248Y-100261683D01*
X91013402Y-100261999D01*
X90958443Y-100261999D01*
X90916414Y-100273261D01*
X90805714Y-100302923D01*
X90805709Y-100302926D01*
X90668790Y-100381975D01*
X90668782Y-100381981D01*
X90469482Y-100581281D01*
X90469477Y-100581287D01*
X90458671Y-100600004D01*
X90408102Y-100648218D01*
X90351287Y-100662000D01*
X90160636Y-100662000D01*
X90043246Y-100677453D01*
X90043234Y-100677457D01*
X90022450Y-100686066D01*
X89952981Y-100693533D01*
X89927550Y-100686066D01*
X89906765Y-100677457D01*
X89906760Y-100677455D01*
X89789370Y-100662001D01*
X89789367Y-100662000D01*
X89789361Y-100662000D01*
X89789354Y-100662000D01*
X89679855Y-100662000D01*
X89612816Y-100642315D01*
X89567061Y-100589511D01*
X89560081Y-100570098D01*
X89559577Y-100568216D01*
X89559573Y-100568209D01*
X89480524Y-100431290D01*
X89480518Y-100431282D01*
X89268717Y-100219481D01*
X89268709Y-100219475D01*
X89164828Y-100159500D01*
X89164825Y-100159499D01*
X89131787Y-100140424D01*
X89131786Y-100140423D01*
X89131785Y-100140423D01*
X88979057Y-100099499D01*
X88820943Y-100099499D01*
X88813347Y-100099499D01*
X88813331Y-100099500D01*
X88486670Y-100099500D01*
X88486654Y-100099499D01*
X88479058Y-100099499D01*
X88320943Y-100099499D01*
X88314830Y-100099499D01*
X88314808Y-100099500D01*
X85720943Y-100099500D01*
X85720939Y-100099501D01*
X85680018Y-100110465D01*
X85680018Y-100110466D01*
X85642750Y-100120452D01*
X85568213Y-100140424D01*
X85568208Y-100140427D01*
X85424244Y-100223544D01*
X85423520Y-100222291D01*
X85366609Y-100244290D01*
X85324208Y-100240494D01*
X85256272Y-100222291D01*
X85226693Y-100214365D01*
X85226686Y-100214364D01*
X85000002Y-100194532D01*
X84999998Y-100194532D01*
X84773313Y-100214364D01*
X84773302Y-100214366D01*
X84553511Y-100273258D01*
X84553502Y-100273261D01*
X84347267Y-100369431D01*
X84347265Y-100369432D01*
X84160858Y-100499954D01*
X83999954Y-100660858D01*
X83869432Y-100847265D01*
X83869431Y-100847267D01*
X83773261Y-101053502D01*
X83773258Y-101053511D01*
X83714366Y-101273302D01*
X83714364Y-101273313D01*
X83694532Y-101499998D01*
X83694532Y-101500001D01*
X80900500Y-101500001D01*
X80900500Y-96500002D01*
X83695034Y-96500002D01*
X83714858Y-96726599D01*
X83714860Y-96726610D01*
X83773730Y-96946317D01*
X83773735Y-96946331D01*
X83869863Y-97152478D01*
X83920974Y-97225472D01*
X84600000Y-96546446D01*
X84600000Y-96552661D01*
X84627259Y-96654394D01*
X84679920Y-96745606D01*
X84754394Y-96820080D01*
X84845606Y-96872741D01*
X84947339Y-96900000D01*
X84953553Y-96900000D01*
X84274526Y-97579025D01*
X84347513Y-97630132D01*
X84347521Y-97630136D01*
X84553668Y-97726264D01*
X84553682Y-97726269D01*
X84773389Y-97785139D01*
X84773400Y-97785141D01*
X84999998Y-97804966D01*
X85000002Y-97804966D01*
X85226599Y-97785141D01*
X85226610Y-97785139D01*
X85446317Y-97726269D01*
X85446331Y-97726264D01*
X85652478Y-97630136D01*
X85725471Y-97579024D01*
X85046447Y-96900000D01*
X85052661Y-96900000D01*
X85154394Y-96872741D01*
X85245606Y-96820080D01*
X85320080Y-96745606D01*
X85372741Y-96654394D01*
X85400000Y-96552661D01*
X85400000Y-96546447D01*
X86079024Y-97225471D01*
X86130136Y-97152478D01*
X86226264Y-96946331D01*
X86226269Y-96946317D01*
X86285139Y-96726610D01*
X86285141Y-96726599D01*
X86304966Y-96500002D01*
X86304966Y-96499997D01*
X86285141Y-96273400D01*
X86285139Y-96273389D01*
X86226269Y-96053682D01*
X86226264Y-96053668D01*
X86130136Y-95847521D01*
X86130132Y-95847513D01*
X86079025Y-95774526D01*
X85400000Y-96453551D01*
X85400000Y-96447339D01*
X85372741Y-96345606D01*
X85320080Y-96254394D01*
X85245606Y-96179920D01*
X85154394Y-96127259D01*
X85052661Y-96100000D01*
X85046448Y-96100000D01*
X85725472Y-95420974D01*
X85652478Y-95369863D01*
X85446331Y-95273735D01*
X85446317Y-95273730D01*
X85226610Y-95214860D01*
X85226599Y-95214858D01*
X85000002Y-95195034D01*
X84999998Y-95195034D01*
X84773400Y-95214858D01*
X84773389Y-95214860D01*
X84553682Y-95273730D01*
X84553673Y-95273734D01*
X84347516Y-95369866D01*
X84347512Y-95369868D01*
X84274526Y-95420973D01*
X84274526Y-95420974D01*
X84953553Y-96100000D01*
X84947339Y-96100000D01*
X84845606Y-96127259D01*
X84754394Y-96179920D01*
X84679920Y-96254394D01*
X84627259Y-96345606D01*
X84600000Y-96447339D01*
X84600000Y-96453552D01*
X83920974Y-95774526D01*
X83920973Y-95774526D01*
X83869868Y-95847512D01*
X83869866Y-95847516D01*
X83773734Y-96053673D01*
X83773730Y-96053682D01*
X83714860Y-96273389D01*
X83714858Y-96273400D01*
X83695034Y-96499997D01*
X83695034Y-96500002D01*
X80900500Y-96500002D01*
X80900500Y-94180000D01*
X96494357Y-94180000D01*
X96514884Y-94401535D01*
X96514885Y-94401537D01*
X96575769Y-94615523D01*
X96575775Y-94615538D01*
X96674938Y-94814683D01*
X96674943Y-94814691D01*
X96809020Y-94992238D01*
X96973437Y-95142123D01*
X96973439Y-95142125D01*
X97162595Y-95259245D01*
X97162596Y-95259245D01*
X97162599Y-95259247D01*
X97370060Y-95339618D01*
X97588757Y-95380500D01*
X97588759Y-95380500D01*
X97811241Y-95380500D01*
X97811243Y-95380500D01*
X98029940Y-95339618D01*
X98237401Y-95259247D01*
X98426562Y-95142124D01*
X98590981Y-94992236D01*
X98725058Y-94814689D01*
X98824229Y-94615528D01*
X98885115Y-94401536D01*
X98905643Y-94180000D01*
X102094357Y-94180000D01*
X102114884Y-94401535D01*
X102114885Y-94401537D01*
X102175769Y-94615523D01*
X102175775Y-94615538D01*
X102274938Y-94814683D01*
X102274943Y-94814691D01*
X102409020Y-94992238D01*
X102573437Y-95142123D01*
X102573439Y-95142125D01*
X102762595Y-95259245D01*
X102762596Y-95259245D01*
X102762599Y-95259247D01*
X102970060Y-95339618D01*
X103188757Y-95380500D01*
X103188759Y-95380500D01*
X103411241Y-95380500D01*
X103411243Y-95380500D01*
X103629940Y-95339618D01*
X103837401Y-95259247D01*
X104026562Y-95142124D01*
X104190981Y-94992236D01*
X104325058Y-94814689D01*
X104424229Y-94615528D01*
X104485115Y-94401536D01*
X104505643Y-94180000D01*
X107694357Y-94180000D01*
X107714884Y-94401535D01*
X107714885Y-94401537D01*
X107775769Y-94615523D01*
X107775775Y-94615538D01*
X107874938Y-94814683D01*
X107874943Y-94814691D01*
X108009020Y-94992238D01*
X108173437Y-95142123D01*
X108173439Y-95142125D01*
X108362595Y-95259245D01*
X108362596Y-95259245D01*
X108362599Y-95259247D01*
X108570060Y-95339618D01*
X108788757Y-95380500D01*
X108788759Y-95380500D01*
X109011241Y-95380500D01*
X109011243Y-95380500D01*
X109229940Y-95339618D01*
X109437401Y-95259247D01*
X109626562Y-95142124D01*
X109790981Y-94992236D01*
X109925058Y-94814689D01*
X110024229Y-94615528D01*
X110085115Y-94401536D01*
X110105643Y-94180000D01*
X110085115Y-93958464D01*
X110024229Y-93744472D01*
X110024224Y-93744461D01*
X109925061Y-93545316D01*
X109925056Y-93545308D01*
X109807773Y-93390000D01*
X122124357Y-93390000D01*
X122144884Y-93611535D01*
X122144885Y-93611537D01*
X122205769Y-93825523D01*
X122205775Y-93825538D01*
X122304938Y-94024683D01*
X122304943Y-94024691D01*
X122439020Y-94202238D01*
X122603437Y-94352123D01*
X122603439Y-94352125D01*
X122792595Y-94469245D01*
X122792596Y-94469245D01*
X122792599Y-94469247D01*
X123000060Y-94549618D01*
X123218757Y-94590500D01*
X123218759Y-94590500D01*
X123441241Y-94590500D01*
X123441243Y-94590500D01*
X123659940Y-94549618D01*
X123867401Y-94469247D01*
X124056562Y-94352124D01*
X124220981Y-94202236D01*
X124355058Y-94024689D01*
X124454229Y-93825528D01*
X124460734Y-93802661D01*
X124498012Y-93743571D01*
X124561322Y-93714013D01*
X124630561Y-93723375D01*
X124683748Y-93768684D01*
X124699264Y-93802658D01*
X124705770Y-93825523D01*
X124705772Y-93825530D01*
X124705775Y-93825538D01*
X124804938Y-94024683D01*
X124804943Y-94024691D01*
X124939020Y-94202238D01*
X125103437Y-94352123D01*
X125103439Y-94352125D01*
X125292595Y-94469245D01*
X125292596Y-94469245D01*
X125292599Y-94469247D01*
X125500060Y-94549618D01*
X125718757Y-94590500D01*
X125718759Y-94590500D01*
X125941241Y-94590500D01*
X125941243Y-94590500D01*
X126159940Y-94549618D01*
X126367401Y-94469247D01*
X126556562Y-94352124D01*
X126720981Y-94202236D01*
X126855058Y-94024689D01*
X126954229Y-93825528D01*
X127015115Y-93611536D01*
X127035643Y-93390000D01*
X127015115Y-93168464D01*
X126954229Y-92954472D01*
X126954224Y-92954461D01*
X126855061Y-92755316D01*
X126855056Y-92755308D01*
X126720979Y-92577761D01*
X126556562Y-92427876D01*
X126556560Y-92427874D01*
X126367404Y-92310754D01*
X126367398Y-92310752D01*
X126159940Y-92230382D01*
X125941243Y-92189500D01*
X125718757Y-92189500D01*
X125500060Y-92230382D01*
X125368864Y-92281207D01*
X125292601Y-92310752D01*
X125292595Y-92310754D01*
X125103439Y-92427874D01*
X125103437Y-92427876D01*
X124939020Y-92577761D01*
X124804943Y-92755308D01*
X124804938Y-92755316D01*
X124705775Y-92954461D01*
X124705769Y-92954476D01*
X124699266Y-92977335D01*
X124661987Y-93036429D01*
X124598677Y-93065986D01*
X124529438Y-93056624D01*
X124476251Y-93011314D01*
X124460734Y-92977335D01*
X124454230Y-92954476D01*
X124454229Y-92954472D01*
X124454224Y-92954461D01*
X124355061Y-92755316D01*
X124355056Y-92755308D01*
X124220979Y-92577761D01*
X124056562Y-92427876D01*
X124056560Y-92427874D01*
X123867404Y-92310754D01*
X123867398Y-92310752D01*
X123659940Y-92230382D01*
X123441243Y-92189500D01*
X123218757Y-92189500D01*
X123000060Y-92230382D01*
X122868864Y-92281207D01*
X122792601Y-92310752D01*
X122792595Y-92310754D01*
X122603439Y-92427874D01*
X122603437Y-92427876D01*
X122439020Y-92577761D01*
X122304943Y-92755308D01*
X122304938Y-92755316D01*
X122205775Y-92954461D01*
X122205769Y-92954476D01*
X122144885Y-93168462D01*
X122144884Y-93168464D01*
X122124357Y-93389999D01*
X122124357Y-93390000D01*
X109807773Y-93390000D01*
X109790979Y-93367761D01*
X109626562Y-93217876D01*
X109626560Y-93217874D01*
X109437404Y-93100754D01*
X109437398Y-93100752D01*
X109229940Y-93020382D01*
X109011243Y-92979500D01*
X108788757Y-92979500D01*
X108570060Y-93020382D01*
X108476509Y-93056624D01*
X108362601Y-93100752D01*
X108362595Y-93100754D01*
X108173439Y-93217874D01*
X108173437Y-93217876D01*
X108009020Y-93367761D01*
X107874943Y-93545308D01*
X107874938Y-93545316D01*
X107775775Y-93744461D01*
X107775769Y-93744476D01*
X107714885Y-93958462D01*
X107714884Y-93958464D01*
X107694357Y-94179999D01*
X107694357Y-94180000D01*
X104505643Y-94180000D01*
X104485115Y-93958464D01*
X104424229Y-93744472D01*
X104424224Y-93744461D01*
X104325061Y-93545316D01*
X104325056Y-93545308D01*
X104190979Y-93367761D01*
X104026562Y-93217876D01*
X104026560Y-93217874D01*
X103837404Y-93100754D01*
X103837398Y-93100752D01*
X103629940Y-93020382D01*
X103411243Y-92979500D01*
X103188757Y-92979500D01*
X102970060Y-93020382D01*
X102876509Y-93056624D01*
X102762601Y-93100752D01*
X102762595Y-93100754D01*
X102573439Y-93217874D01*
X102573437Y-93217876D01*
X102409020Y-93367761D01*
X102274943Y-93545308D01*
X102274938Y-93545316D01*
X102175775Y-93744461D01*
X102175769Y-93744476D01*
X102114885Y-93958462D01*
X102114884Y-93958464D01*
X102094357Y-94179999D01*
X102094357Y-94180000D01*
X98905643Y-94180000D01*
X98885115Y-93958464D01*
X98824229Y-93744472D01*
X98824224Y-93744461D01*
X98725061Y-93545316D01*
X98725056Y-93545308D01*
X98590979Y-93367761D01*
X98426562Y-93217876D01*
X98426560Y-93217874D01*
X98237404Y-93100754D01*
X98237398Y-93100752D01*
X98029940Y-93020382D01*
X97811243Y-92979500D01*
X97588757Y-92979500D01*
X97370060Y-93020382D01*
X97276509Y-93056624D01*
X97162601Y-93100752D01*
X97162595Y-93100754D01*
X96973439Y-93217874D01*
X96973437Y-93217876D01*
X96809020Y-93367761D01*
X96674943Y-93545308D01*
X96674938Y-93545316D01*
X96575775Y-93744461D01*
X96575769Y-93744476D01*
X96514885Y-93958462D01*
X96514884Y-93958464D01*
X96494357Y-94179999D01*
X96494357Y-94180000D01*
X80900500Y-94180000D01*
X80900500Y-88750005D01*
X84349556Y-88750005D01*
X84369310Y-89064004D01*
X84369311Y-89064011D01*
X84369312Y-89064015D01*
X84407937Y-89266497D01*
X84428270Y-89373083D01*
X84525497Y-89672316D01*
X84525499Y-89672321D01*
X84659461Y-89957003D01*
X84659464Y-89957009D01*
X84828051Y-90222661D01*
X84828054Y-90222665D01*
X85028606Y-90465090D01*
X85028608Y-90465092D01*
X85028610Y-90465094D01*
X85257970Y-90680478D01*
X85257975Y-90680481D01*
X85257978Y-90680484D01*
X85512504Y-90865408D01*
X85512506Y-90865409D01*
X85512516Y-90865416D01*
X85788234Y-91016994D01*
X85788237Y-91016995D01*
X85788241Y-91016997D01*
X85788242Y-91016998D01*
X86080771Y-91132818D01*
X86080774Y-91132819D01*
X86385523Y-91211065D01*
X86385527Y-91211066D01*
X86451010Y-91219338D01*
X86697670Y-91250499D01*
X86697679Y-91250499D01*
X86697682Y-91250500D01*
X86697684Y-91250500D01*
X87012316Y-91250500D01*
X87012318Y-91250500D01*
X87012321Y-91250499D01*
X87012329Y-91250499D01*
X87198593Y-91226968D01*
X87324473Y-91211066D01*
X87629225Y-91132819D01*
X87629228Y-91132818D01*
X87921757Y-91016998D01*
X87921758Y-91016997D01*
X87921756Y-91016997D01*
X87921766Y-91016994D01*
X88197484Y-90865416D01*
X88452030Y-90680478D01*
X88681390Y-90465094D01*
X88881947Y-90222663D01*
X89050537Y-89957007D01*
X89184503Y-89672315D01*
X89281731Y-89373079D01*
X89340688Y-89064015D01*
X89341778Y-89046692D01*
X89356040Y-88820001D01*
X92589532Y-88820001D01*
X92609364Y-89046686D01*
X92609366Y-89046697D01*
X92668258Y-89266488D01*
X92668261Y-89266497D01*
X92764431Y-89472732D01*
X92764432Y-89472734D01*
X92894954Y-89659141D01*
X93055858Y-89820045D01*
X93055861Y-89820047D01*
X93242266Y-89950568D01*
X93448504Y-90046739D01*
X93647594Y-90100084D01*
X93707254Y-90136449D01*
X93737783Y-90199295D01*
X93739500Y-90219859D01*
X93739500Y-91647870D01*
X93739501Y-91647876D01*
X93745908Y-91707483D01*
X93796202Y-91842328D01*
X93796206Y-91842335D01*
X93882452Y-91957544D01*
X93882455Y-91957547D01*
X93997664Y-92043793D01*
X93997671Y-92043797D01*
X94132517Y-92094091D01*
X94132516Y-92094091D01*
X94139444Y-92094835D01*
X94192127Y-92100500D01*
X95887872Y-92100499D01*
X95947483Y-92094091D01*
X96082331Y-92043796D01*
X96197546Y-91957546D01*
X96283796Y-91842331D01*
X96284103Y-91841507D01*
X96284630Y-91840803D01*
X96288047Y-91834546D01*
X96288946Y-91835037D01*
X96325970Y-91785573D01*
X96391433Y-91761152D01*
X96459707Y-91775999D01*
X96487968Y-91797154D01*
X96490859Y-91800045D01*
X96490862Y-91800047D01*
X96677267Y-91930568D01*
X96883505Y-92026739D01*
X97103309Y-92085635D01*
X97265231Y-92099801D01*
X97329999Y-92105468D01*
X97330001Y-92105468D01*
X97330003Y-92105468D01*
X97386808Y-92100498D01*
X97556693Y-92085635D01*
X97776497Y-92026739D01*
X97982735Y-91930568D01*
X98169140Y-91800047D01*
X98330048Y-91639139D01*
X98373425Y-91577188D01*
X98428001Y-91533564D01*
X98497499Y-91526370D01*
X98559854Y-91557892D01*
X98576575Y-91577189D01*
X98619953Y-91639140D01*
X98780858Y-91800045D01*
X98780861Y-91800047D01*
X98967266Y-91930568D01*
X99173504Y-92026739D01*
X99393308Y-92085635D01*
X99555230Y-92099801D01*
X99619998Y-92105468D01*
X99620000Y-92105468D01*
X99620002Y-92105468D01*
X99676807Y-92100498D01*
X99846692Y-92085635D01*
X100066496Y-92026739D01*
X100272734Y-91930568D01*
X100459139Y-91800047D01*
X100620047Y-91639139D01*
X100663426Y-91577185D01*
X100718000Y-91533562D01*
X100787498Y-91526368D01*
X100849854Y-91557890D01*
X100866575Y-91577187D01*
X100909955Y-91639141D01*
X101070859Y-91800045D01*
X101070862Y-91800047D01*
X101257267Y-91930568D01*
X101463505Y-92026739D01*
X101683309Y-92085635D01*
X101845231Y-92099801D01*
X101909999Y-92105468D01*
X101910001Y-92105468D01*
X101910003Y-92105468D01*
X101966808Y-92100498D01*
X102136693Y-92085635D01*
X102356497Y-92026739D01*
X102562735Y-91930568D01*
X102749140Y-91800047D01*
X102910048Y-91639139D01*
X102953425Y-91577188D01*
X103008001Y-91533564D01*
X103077499Y-91526370D01*
X103139854Y-91557892D01*
X103156575Y-91577189D01*
X103199953Y-91639140D01*
X103360858Y-91800045D01*
X103360861Y-91800047D01*
X103547266Y-91930568D01*
X103753504Y-92026739D01*
X103973308Y-92085635D01*
X104135230Y-92099801D01*
X104199998Y-92105468D01*
X104200000Y-92105468D01*
X104200002Y-92105468D01*
X104256807Y-92100498D01*
X104426692Y-92085635D01*
X104646496Y-92026739D01*
X104852734Y-91930568D01*
X105039139Y-91800047D01*
X105200047Y-91639139D01*
X105330568Y-91452734D01*
X105426739Y-91246496D01*
X105485635Y-91026692D01*
X105505468Y-90800000D01*
X105485635Y-90573308D01*
X105426739Y-90353504D01*
X105330568Y-90147266D01*
X105200047Y-89960861D01*
X105200045Y-89960858D01*
X105039141Y-89799954D01*
X104852734Y-89669432D01*
X104852732Y-89669431D01*
X104646497Y-89573261D01*
X104646488Y-89573258D01*
X104426697Y-89514366D01*
X104426687Y-89514364D01*
X104352253Y-89507852D01*
X104287184Y-89482399D01*
X104246206Y-89425808D01*
X104242328Y-89356046D01*
X104250679Y-89331918D01*
X104281267Y-89266321D01*
X104281269Y-89266317D01*
X104340139Y-89046610D01*
X104340141Y-89046599D01*
X104359966Y-88820002D01*
X104359966Y-88819997D01*
X104353842Y-88750006D01*
X109349556Y-88750006D01*
X109369310Y-89064005D01*
X109369311Y-89064012D01*
X109369312Y-89064015D01*
X109369312Y-89064016D01*
X109418143Y-89320000D01*
X109428270Y-89373084D01*
X109525497Y-89672317D01*
X109525499Y-89672322D01*
X109659461Y-89957004D01*
X109659464Y-89957010D01*
X109828051Y-90222662D01*
X109828054Y-90222666D01*
X110028606Y-90465091D01*
X110028608Y-90465093D01*
X110028610Y-90465095D01*
X110143839Y-90573302D01*
X110257968Y-90680477D01*
X110257978Y-90680485D01*
X110512504Y-90865409D01*
X110512509Y-90865411D01*
X110512516Y-90865417D01*
X110788234Y-91016995D01*
X110788239Y-91016997D01*
X110788241Y-91016998D01*
X110788242Y-91016999D01*
X111080771Y-91132819D01*
X111080774Y-91132820D01*
X111385519Y-91211065D01*
X111385527Y-91211067D01*
X111451010Y-91219339D01*
X111697670Y-91250500D01*
X111697679Y-91250500D01*
X111697682Y-91250501D01*
X111697684Y-91250501D01*
X112012316Y-91250501D01*
X112012318Y-91250501D01*
X112012321Y-91250500D01*
X112012329Y-91250500D01*
X112198593Y-91226969D01*
X112324473Y-91211067D01*
X112629225Y-91132820D01*
X112629228Y-91132819D01*
X112921757Y-91016999D01*
X112921758Y-91016998D01*
X112921756Y-91016998D01*
X112921766Y-91016995D01*
X113197484Y-90865417D01*
X113452030Y-90680479D01*
X113681390Y-90465095D01*
X113881947Y-90222664D01*
X114050537Y-89957008D01*
X114184503Y-89672316D01*
X114281731Y-89373080D01*
X114340688Y-89064016D01*
X114341778Y-89046692D01*
X114360444Y-88750006D01*
X114360444Y-88749995D01*
X114340689Y-88435996D01*
X114340688Y-88435989D01*
X114340688Y-88435988D01*
X114340688Y-88435986D01*
X114281731Y-88126922D01*
X114184503Y-87827686D01*
X114184499Y-87827678D01*
X114050538Y-87542997D01*
X114050538Y-87542996D01*
X114050537Y-87542994D01*
X113929307Y-87351965D01*
X113881948Y-87277339D01*
X113881945Y-87277335D01*
X113681393Y-87034910D01*
X113681391Y-87034908D01*
X113452031Y-86819524D01*
X113452021Y-86819516D01*
X113197495Y-86634592D01*
X113197488Y-86634587D01*
X113197484Y-86634585D01*
X112921766Y-86483007D01*
X112921763Y-86483005D01*
X112921758Y-86483003D01*
X112921757Y-86483002D01*
X112629228Y-86367182D01*
X112629225Y-86367181D01*
X112324476Y-86288935D01*
X112324463Y-86288933D01*
X112012329Y-86249501D01*
X112012318Y-86249501D01*
X111697682Y-86249501D01*
X111697670Y-86249501D01*
X111385536Y-86288933D01*
X111385523Y-86288935D01*
X111080774Y-86367181D01*
X111080771Y-86367182D01*
X110788242Y-86483002D01*
X110788241Y-86483003D01*
X110512516Y-86634585D01*
X110512504Y-86634592D01*
X110257978Y-86819516D01*
X110257968Y-86819524D01*
X110028608Y-87034908D01*
X110028606Y-87034910D01*
X109828054Y-87277335D01*
X109828051Y-87277339D01*
X109659464Y-87542991D01*
X109659461Y-87542997D01*
X109525499Y-87827679D01*
X109525497Y-87827684D01*
X109428270Y-88126917D01*
X109369311Y-88435989D01*
X109369310Y-88435996D01*
X109349556Y-88749995D01*
X109349556Y-88750006D01*
X104353842Y-88750006D01*
X104340141Y-88593400D01*
X104340139Y-88593389D01*
X104281269Y-88373682D01*
X104281266Y-88373673D01*
X104250679Y-88308080D01*
X104240187Y-88239003D01*
X104268706Y-88175219D01*
X104327183Y-88136979D01*
X104352249Y-88132147D01*
X104426692Y-88125635D01*
X104646496Y-88066739D01*
X104852734Y-87970568D01*
X105039139Y-87840047D01*
X105200047Y-87679139D01*
X105330568Y-87492734D01*
X105426739Y-87286496D01*
X105485635Y-87066692D01*
X105505468Y-86840000D01*
X105503676Y-86819523D01*
X105485635Y-86613313D01*
X105485635Y-86613308D01*
X105426739Y-86393504D01*
X105330568Y-86187266D01*
X105200047Y-86000861D01*
X105200045Y-86000858D01*
X105039141Y-85839954D01*
X104852734Y-85709432D01*
X104852732Y-85709431D01*
X104646497Y-85613261D01*
X104646488Y-85613258D01*
X104426697Y-85554366D01*
X104426693Y-85554365D01*
X104426692Y-85554365D01*
X104426691Y-85554364D01*
X104426686Y-85554364D01*
X104200002Y-85534532D01*
X104199998Y-85534532D01*
X103973313Y-85554364D01*
X103973302Y-85554366D01*
X103753511Y-85613258D01*
X103753502Y-85613261D01*
X103547267Y-85709431D01*
X103547265Y-85709432D01*
X103360858Y-85839954D01*
X103199953Y-86000859D01*
X103156575Y-86062811D01*
X103101998Y-86106436D01*
X103032500Y-86113630D01*
X102970145Y-86082107D01*
X102953425Y-86062811D01*
X102910046Y-86000859D01*
X102749141Y-85839954D01*
X102562734Y-85709432D01*
X102562732Y-85709431D01*
X102356497Y-85613261D01*
X102356488Y-85613258D01*
X102136697Y-85554366D01*
X102136693Y-85554365D01*
X102136692Y-85554365D01*
X102136691Y-85554364D01*
X102136686Y-85554364D01*
X101910002Y-85534532D01*
X101909998Y-85534532D01*
X101683313Y-85554364D01*
X101683302Y-85554366D01*
X101463511Y-85613258D01*
X101463502Y-85613261D01*
X101257267Y-85709431D01*
X101257265Y-85709432D01*
X101070858Y-85839954D01*
X100909953Y-86000859D01*
X100866575Y-86062811D01*
X100811998Y-86106436D01*
X100742500Y-86113630D01*
X100680145Y-86082107D01*
X100663425Y-86062811D01*
X100620046Y-86000859D01*
X100459141Y-85839954D01*
X100272734Y-85709432D01*
X100272732Y-85709431D01*
X100066497Y-85613261D01*
X100066488Y-85613258D01*
X99846697Y-85554366D01*
X99846693Y-85554365D01*
X99846692Y-85554365D01*
X99846691Y-85554364D01*
X99846686Y-85554364D01*
X99620002Y-85534532D01*
X99619998Y-85534532D01*
X99393313Y-85554364D01*
X99393302Y-85554366D01*
X99173511Y-85613258D01*
X99173502Y-85613261D01*
X98967267Y-85709431D01*
X98967265Y-85709432D01*
X98780858Y-85839954D01*
X98619953Y-86000859D01*
X98576575Y-86062811D01*
X98521998Y-86106436D01*
X98452500Y-86113630D01*
X98390145Y-86082107D01*
X98373425Y-86062811D01*
X98330046Y-86000859D01*
X98169141Y-85839954D01*
X97982734Y-85709432D01*
X97982732Y-85709431D01*
X97776497Y-85613261D01*
X97776488Y-85613258D01*
X97556697Y-85554366D01*
X97556693Y-85554365D01*
X97556692Y-85554365D01*
X97556691Y-85554364D01*
X97556686Y-85554364D01*
X97330002Y-85534532D01*
X97329998Y-85534532D01*
X97103313Y-85554364D01*
X97103302Y-85554366D01*
X96883511Y-85613258D01*
X96883502Y-85613261D01*
X96677267Y-85709431D01*
X96677265Y-85709432D01*
X96490858Y-85839954D01*
X96329953Y-86000859D01*
X96286575Y-86062811D01*
X96231998Y-86106436D01*
X96162500Y-86113630D01*
X96100145Y-86082107D01*
X96083425Y-86062811D01*
X96040046Y-86000859D01*
X95879141Y-85839954D01*
X95692734Y-85709432D01*
X95692732Y-85709431D01*
X95486497Y-85613261D01*
X95486488Y-85613258D01*
X95266697Y-85554366D01*
X95266693Y-85554365D01*
X95266692Y-85554365D01*
X95266691Y-85554364D01*
X95266686Y-85554364D01*
X95040002Y-85534532D01*
X95039998Y-85534532D01*
X94813313Y-85554364D01*
X94813302Y-85554366D01*
X94593511Y-85613258D01*
X94593502Y-85613261D01*
X94387267Y-85709431D01*
X94387265Y-85709432D01*
X94200858Y-85839954D01*
X94039954Y-86000858D01*
X93909432Y-86187265D01*
X93909431Y-86187267D01*
X93813261Y-86393502D01*
X93813258Y-86393511D01*
X93754366Y-86613302D01*
X93754364Y-86613313D01*
X93734532Y-86839998D01*
X93734532Y-86840001D01*
X93754364Y-87066686D01*
X93754366Y-87066697D01*
X93813258Y-87286488D01*
X93813260Y-87286492D01*
X93813261Y-87286496D01*
X93843790Y-87351965D01*
X93854282Y-87421043D01*
X93825762Y-87484827D01*
X93767286Y-87523066D01*
X93742217Y-87527898D01*
X93668312Y-87534364D01*
X93668302Y-87534366D01*
X93448511Y-87593258D01*
X93448502Y-87593261D01*
X93242267Y-87689431D01*
X93242265Y-87689432D01*
X93055858Y-87819954D01*
X92894954Y-87980858D01*
X92764432Y-88167265D01*
X92764431Y-88167267D01*
X92668261Y-88373502D01*
X92668258Y-88373511D01*
X92609366Y-88593302D01*
X92609364Y-88593313D01*
X92589532Y-88819998D01*
X92589532Y-88820001D01*
X89356040Y-88820001D01*
X89360444Y-88750005D01*
X89360444Y-88749994D01*
X89340689Y-88435995D01*
X89340688Y-88435988D01*
X89340688Y-88435986D01*
X89340688Y-88435985D01*
X89281731Y-88126921D01*
X89184503Y-87827685D01*
X89050537Y-87542993D01*
X88887760Y-87286497D01*
X88881948Y-87277338D01*
X88881945Y-87277334D01*
X88681393Y-87034909D01*
X88681391Y-87034907D01*
X88452031Y-86819523D01*
X88452021Y-86819515D01*
X88197495Y-86634591D01*
X88197485Y-86634585D01*
X88197484Y-86634584D01*
X87921766Y-86483006D01*
X87921763Y-86483004D01*
X87921758Y-86483002D01*
X87921757Y-86483001D01*
X87629228Y-86367181D01*
X87629225Y-86367180D01*
X87324476Y-86288934D01*
X87324463Y-86288932D01*
X87012329Y-86249500D01*
X87012318Y-86249500D01*
X86697682Y-86249500D01*
X86697670Y-86249500D01*
X86385536Y-86288932D01*
X86385523Y-86288934D01*
X86080774Y-86367180D01*
X86080771Y-86367181D01*
X85788242Y-86483001D01*
X85788241Y-86483002D01*
X85512516Y-86634584D01*
X85512504Y-86634591D01*
X85257978Y-86819515D01*
X85257968Y-86819523D01*
X85028608Y-87034907D01*
X85028606Y-87034909D01*
X84828054Y-87277334D01*
X84828051Y-87277338D01*
X84659464Y-87542990D01*
X84659461Y-87542996D01*
X84525499Y-87827678D01*
X84525497Y-87827683D01*
X84428270Y-88126916D01*
X84369311Y-88435988D01*
X84369310Y-88435995D01*
X84349556Y-88749994D01*
X84349556Y-88750005D01*
X80900500Y-88750005D01*
X80900500Y-83924500D01*
X80920185Y-83857461D01*
X80972989Y-83811706D01*
X81024500Y-83800500D01*
X135075500Y-83800500D01*
X135142539Y-83820185D01*
G37*
%TD.AperFunction*%
%TD*%
M02*
